<svg xmlns="http://www.w3.org/2000/svg" xmlns:xlink="http://www.w3.org/1999/xlink" id="bcd47889-3248-49c1-897c-7a2d6d16ce33" data-name="Layer 1" viewBox="0 0 317 550"><defs/><defs><linearGradient id="a692ea9f-2a2e-4cba-9a1f-f84061a72d83" x1="120" x2="222.3" y1="142.4" y2="142.4" gradientTransform="matrix(1 0 0 -1 0 552)" gradientUnits="userSpaceOnUse"><stop offset=".3" stop-color="#a2927f"/><stop offset=".5" stop-color="#9b8c79"/><stop offset=".9" stop-color="#897a6a"/></linearGradient><linearGradient id="e5e9f675-c921-46b3-9cd8-7b091f0d6d77" x1="135" x2="168.5" y1="221.6" y2="217.2" gradientTransform="matrix(1 0 0 -1 0 552)" gradientUnits="userSpaceOnUse"><stop offset="0" stop-color="#a91f18"/><stop offset=".1" stop-color="#b01f16"/><stop offset=".2" stop-color="#c21e12"/><stop offset=".3" stop-color="#e01c0b"/><stop offset=".7" stop-color="#e01c0b"/><stop offset="1" stop-color="#a91f18"/></linearGradient><linearGradient id="a0f0df6d-1c22-4027-b980-5ad4bda5d721" x1="130" x2="158.8" y1="165.4" y2="165.4" gradientTransform="matrix(1 0 0 -1 0 552)" gradientUnits="userSpaceOnUse"><stop offset="0" stop-color="#1a263b"/><stop offset=".3" stop-color="#293a5f"/><stop offset=".8" stop-color="#293b60"/><stop offset="1" stop-color="#19253a"/></linearGradient><linearGradient id="b3586d59-0280-400a-87ce-608aa9ed609f" x1="137.6" x2="157.9" y1="71.2" y2="71.2" gradientTransform="matrix(1 0 0 -1 0 552)" gradientUnits="userSpaceOnUse"><stop offset="0" stop-color="#293b60"/><stop offset="1" stop-color="#19253a"/></linearGradient><linearGradient id="a5cd1dcd-cf8f-4a47-a773-4e80413f712f" x1="157.9" x2="198.7" y1="65.6" y2="65.6" xlink:href="#b3586d59-0280-400a-87ce-608aa9ed609f"/><linearGradient id="a062a622-d98c-42ff-bc6b-9249a96beee8" x1="155.1" x2="196.2" y1="215.2" y2="221.9" xlink:href="#b3586d59-0280-400a-87ce-608aa9ed609f"/><linearGradient id="fd052ac9-edd2-4006-8cf2-d0b52827b9ed" x1="186.6" x2="192.8" y1="128.4" y2="125.6" xlink:href="#b3586d59-0280-400a-87ce-608aa9ed609f"/><linearGradient id="b4d4ba58-9721-4f31-b6e3-7f0ceca02954" x1="196.6" x2="202.4" y1="130.2" y2="127.7" xlink:href="#b3586d59-0280-400a-87ce-608aa9ed609f"/><linearGradient id="e9141ae9-4596-47fd-a706-ac33ed4f0706" x1="177.6" x2="191.9" y1="57" y2="60.7" gradientTransform="matrix(1 0 0 -1 0 552)" gradientUnits="userSpaceOnUse"><stop offset="0" stop-color="#282828"/><stop offset=".3" stop-color="#494949"/><stop offset=".7" stop-color="#494949"/><stop offset="1" stop-color="#282828"/></linearGradient><linearGradient id="a690dc26-4c4e-45a6-8934-921ab67f3069" x1="148.5" x2="159.5" y1="51.2" y2="51.2" gradientTransform="matrix(1 0 0 -1 0 552)" gradientUnits="userSpaceOnUse"><stop offset="0" stop-color="#494949"/><stop offset="1" stop-color="#282828"/></linearGradient><linearGradient id="af199dc0-b308-4b81-9a2e-b88484abdd9a" x1="139.7" x2="143.2" y1="68.7" y2="67.2" xlink:href="#a690dc26-4c4e-45a6-8934-921ab67f3069"/><linearGradient id="fb5a1587-ad8a-43fc-b966-4b44ccb65691" x1="156.5" x2="209.2" y1="100.2" y2="86.3" gradientTransform="matrix(1 0 0 -1 0 552)" gradientUnits="userSpaceOnUse"><stop offset=".3" stop-color="#f2b58d"/><stop offset=".6" stop-color="#efb189"/><stop offset=".8" stop-color="#e5a67c"/><stop offset=".8" stop-color="#de9e74"/></linearGradient><linearGradient id="a03ed2d3-1b37-40c8-8661-c6819d6977d8" x1="128.5" x2="159.7" y1="96.2" y2="99.2" xlink:href="#fb5a1587-ad8a-43fc-b966-4b44ccb65691"/><linearGradient id="e78b0083-f4b3-4aaf-92b7-46afebab2a81" x1="68" x2="245.9" y1="357.3" y2="337.3" gradientTransform="matrix(1 0 0 -1 0 552)" gradientUnits="userSpaceOnUse"><stop offset=".3" stop-color="#f2b58d"/><stop offset=".5" stop-color="#efb189"/><stop offset=".7" stop-color="#e5a67c"/><stop offset=".8" stop-color="#de9e74"/></linearGradient><linearGradient id="b622627e-619c-4214-aeec-feadf71c822a" x1="149.5" x2="179.2" y1="268.7" y2="268.7" xlink:href="#a0f0df6d-1c22-4027-b980-5ad4bda5d721"/><linearGradient id="ff5c8177-7ad1-4e9b-bf16-3ac576030d4a" x1="29.9" x2="289.2" y1="430.5" y2="430.5" gradientTransform="matrix(1 0 0 -1 0 552)" gradientUnits="userSpaceOnUse"><stop offset="0" stop-color="#4f3721"/><stop offset=".3" stop-color="#48331d"/><stop offset=".8" stop-color="#362712"/><stop offset="1" stop-color="#291f0a"/></linearGradient><linearGradient id="b1740da7-97f3-4883-b868-f808b7fa46ca" x1="144.2" x2="169.3" y1="388.9" y2="388.9" xlink:href="#ff5c8177-7ad1-4e9b-bf16-3ac576030d4a"/><linearGradient id="edbd3315-46e1-4172-908d-18872b35ce3e" x1="81.3" x2="84.7" y1="369.3" y2="375" xlink:href="#ff5c8177-7ad1-4e9b-bf16-3ac576030d4a"/><linearGradient id="fff1117d-8536-4d17-9645-c3832aa720e6" x1="204.2" x2="270.7" y1="143.9" y2="143.9" xlink:href="#fb5a1587-ad8a-43fc-b966-4b44ccb65691"/><linearGradient id="b6c46e67-b073-4c94-8b0f-a35be63df686" x1="1.2" x2="76.3" y1="335.9" y2="335.9" xlink:href="#fb5a1587-ad8a-43fc-b966-4b44ccb65691"/><linearGradient id="f6571650-1f32-4dca-b084-b5318912b44f" x1="76.2" x2="129.8" y1="265.6" y2="280" xlink:href="#b3586d59-0280-400a-87ce-608aa9ed609f"/><linearGradient id="f3d34b3b-ce59-44d5-b5be-d7645a1ff05a" x1="221.1" x2="194.7" y1="288.4" y2="288.6" gradientTransform="matrix(1 0 0 -1 0 552)" gradientUnits="userSpaceOnUse"><stop offset="0" stop-color="#bfad95"/><stop offset=".8" stop-color="#8e7c68"/></linearGradient><linearGradient id="a8a63b3e-9cfa-49f7-8bd0-cd79814c0fda" x1="188.8" x2="253.4" y1="219.1" y2="227.3" xlink:href="#f3d34b3b-ce59-44d5-b5be-d7645a1ff05a"/><radialGradient id="ecbe759f-0596-41fc-8b0a-eaacc2ed9063" cx="-309.2" cy="555.8" r="1" gradientTransform="matrix(27.22 0 0 -21.15 8617.3 12265.5)" gradientUnits="userSpaceOnUse"><stop offset="0" stop-color="#646464"/><stop offset="1" stop-color="#494949"/></radialGradient><radialGradient id="b083783e-e518-4441-a2eb-ac987fecb002" cx="-304.1" cy="555.7" r="1" gradientTransform="matrix(19 0 0 -15.39 5891.7 9056.5)" xlink:href="#ecbe759f-0596-41fc-8b0a-eaacc2ed9063"/><radialGradient id="a70729b0-fdc4-4901-958e-24ebc3ed15be" cx="-278.9" cy="569" r="1" gradientTransform="matrix(6.93 2.23 2.23 -6.93 823.5 4779)" gradientUnits="userSpaceOnUse"><stop offset=".7" stop-color="#8a6f48"/><stop offset="1" stop-color="#533a18"/></radialGradient><radialGradient id="eadc83c3-5c65-4f8d-af46-e56c22fa4b49" cx="-274.2" cy="570.4" r="1" gradientTransform="matrix(6.24 2 2 -6.24 680.6 4324.6)" xlink:href="#a70729b0-fdc4-4901-958e-24ebc3ed15be"/><radialGradient id="b4530209-bc0b-4fbb-a864-acbe64d1f292" cx="-182.8" cy="598.5" r="1" gradientTransform="matrix(2.11 .68 .68 -2.11 92 1601.2)" gradientUnits="userSpaceOnUse"><stop offset=".8" stop-color="#fff"/><stop offset="1" stop-color="#fff" stop-opacity="0"/></radialGradient><radialGradient id="bf272dbb-52b4-4a1b-9035-22c228beab62" cx="-218.4" cy="587.6" r="1" gradientTransform="matrix(2.85 .91 .91 -2.85 242 2080.4)" xlink:href="#b4530209-bc0b-4fbb-a864-acbe64d1f292"/><style>.a67e0936-be5b-4090-bdfd-a89a2915eb44,.b7da0185-fe6e-4457-ac56-baed305bec8e{isolation:isolate}.acd251d1-2f87-4ded-ab5c-b352d306ecd8{fill:#494949}.abbcec9f-14e8-4919-96a4-61af5bdfde51{fill:#262626}.b9fe2748-e757-4efb-aa3d-0b7f1ae81b5a{fill:#303030}.aa2bbfe4-ffde-476f-aedd-9ff4f66b7cf8{fill:#a8a8a8}.a8475ce5-9b19-4d7c-b1ec-3fef0b2327b3,.b7da0185-fe6e-4457-ac56-baed305bec8e{fill:#fff}.b7da0185-fe6e-4457-ac56-baed305bec8e{opacity:.15}.a67e0936-be5b-4090-bdfd-a89a2915eb44{fill:#d88b64;opacity:.65}.f81d4798-0959-4cbe-974d-e9cbc3fbec16{fill:#162136}.aca1dc88-f784-4667-999f-090b3e1f468b{fill:#961a17}.b5f5ac40-29cc-4c6b-82d6-638e3276d54b{fill:#77695c}.a21c2a14-8b4f-4544-8c06-8501810d9a67{fill:#7e6e5b}.ec76ec16-61c6-4842-857b-138fe0ccdab1{fill:#2b1d13}.fb3468cd-9ec9-4d0d-b168-29e1a7b0b684{fill:#1e140e}.a34bbfad-9caf-47f3-bb93-72345554a491,.acab02c4-c313-4840-81ef-226c35d24df3,.badc8574-cc80-4494-809c-c1738dac3b53,.f620002c-319a-4fc1-a22a-e29bddea05a6{fill:none;stroke-miterlimit:10}.badc8574-cc80-4494-809c-c1738dac3b53,.f620002c-319a-4fc1-a22a-e29bddea05a6{stroke:#ddab47}.badc8574-cc80-4494-809c-c1738dac3b53{stroke-width:1.19px}.f620002c-319a-4fc1-a22a-e29bddea05a6{stroke-width:.95px}.a34bbfad-9caf-47f3-bb93-72345554a491,.acab02c4-c313-4840-81ef-226c35d24df3{stroke:#1d775d}.a34bbfad-9caf-47f3-bb93-72345554a491{stroke-width:1.4px}.acab02c4-c313-4840-81ef-226c35d24df3{stroke-width:1.12px}</style></defs><path id="b8f3b4ac-ea77-42cf-a8a5-e6ac1468d82c" fill="#ededf2" d="M224.2 471.7a1.9 1.9 0 011 2.8c.7 1.2-.2 3.3-.2 3.3 2.9 1 .5 7.1-1 10.2 1.9.1 8.8 5 6.4 7.4 9.3 3.4 9.9 14.9 8.3 21.2 3.1.7 3.6 5 3.1 9.4 2 12.6-27.3 19.3-52.3 23-4.7.5 14.3-8.3 11.4-8.7s-2.5-.5-2-2.3l-.9.4s-37.8-7.2-42.2-10.6c-32.9 9.8-38.1 6.1-38.1 6.1l7.9-18.9 39-43.6a4.5 4.5 0 010-1.8c.1-1 .6-.6.2-2s-3.2-13.5-4.6-17.2c-2.5-7.6-4.9-25.8-5.8-31.7l-5.7-2.2c-4.2-3.1-.9-15.4-1.3-22s1.9-8.7-1.5-11.8 2-13.2 2.5-16.9c-1.5-2.7 2.6-12.9 4.4-13.7-.6-8.2.7-33.8 2.2-41.2a255 255 0 01-66.6-48.2c-4.8-4.3-9.2-4.3-6.1-10.6-13-12.6-21.2.7-30.2-23.7-1.4-2.9-3.5-7.9-4.5-9.5s-29.4-19.1-15.9-26.4c-2.4-5.2-1.3-9.7 5-11.2-4.5-12.3 4.1-15 11-12.4 7.1-25.7 31 30.1 31.9 35.3.3 2.1.5-1.3.5-4-1.8-5.4 4.2-27.5 14.8-23.3 8.6 3.7 0 15.8.2 23.3-.9 4.9 2.3 22.2-.1 25.3 0 0 3.3 4.6 5.9 6.6 2.1-.8 5.1 2.2 5.7 3.9s9.8 9.5 17.1 14.8c-5.6-6.4-3.6-26.3.6-31.3a162.8 162.8 0 01-27.2-46c-9.2-5.1-19.1-21.6-22.1-35.2-2.2 5.4-2.1 22.5-2.1 22.5-7.9-9.8-10.8-36.7-6.3-54.2-4.3 2.1-7.2 9-11.4 16.9C68.6 49.5 120-6.7 197.4 6.4 194.9 4 186.1 0 186.1 0c8.5.8 40.7 10.8 48.3 18.8-1.1-4.3-8.2-12.3-8.2-12.3s19.3 10.7 23 21.4c15.6-1.6 37.3 6.9 37.3 6.9s-17.6-1.4-22.8 1c18.1 1.2 35.1 15.4 37.9 22.3-3.2-4.4-9.4-6.3-9.4-6.3 48.7 45.1 11.7 115.1-19.8 158 .1 16.5-22.1 34.6-37.7 29.9l-4.4 4.6c18.7 3.3 12.5 10.5 6 22.5 6.7 4.2 14.7 20.7 18.3 27.8 1.8 4.2 5 20.8 7.4 27.8s7.3 20.2 9.8 25.8c4.2 7.6 2.1 18.1-3 21.3 2.7 3.1 12.1 11.9 15 17.8 2.4 3.9 8.3 14.8 12.1 19.5s2 7-1.9 9.1c1.5 5.2-3.4 9.6-8.2 9.5-4.4 8.6-13.2 3.5-13.2 3.5-15 6.3-21-9.8-20.2-23.8-.6 1.4-4.4 4.3-4.4 4.3 1.6 6.9-8.2 11.4-15.1 14.9-.2 10-7 38.2-8.7 47.4z" data-name="shadow" style="isolation:isolate"/><path fill="url(#a692ea9f-2a2e-4cba-9a1f-f84061a72d83)" d="M211.8 381.7c-9.7 5.7-20 8.7-30.5 12a71.2 71.2 0 00-14.8 5.5c-.5.4-2.9 2.5-3.6 2.5s-2.6-3.5-3.3-5-.4-5.2-1-7.1c-4.2.1-10.1-.8-14.2-1.3s-10.6-1.3-14.5-2.1c-.5 3.5-1.9 8.8-.1 12.2-3-.2-5.9-3.5-8.4-5.1-.3 3.1-.6 9.2-.6 12.3s-3.3 19.1 2.9 19.5a39.2 39.2 0 0022.1 3.6 7 7 0 00.2 2.9c19.8 10.4 57.5 7.1 74.3-8.2.7-.4 1.1-2.1 1.3-2.8s.8-3.1.7-3.6c-5.1 5.6-22.2 3-17.3-7.5 12.1-8.9 16.8-5.8 14.6-22.9-2.8-.5-7-1.8-7.8-4.9z"/><path fill="url(#e5e9f675-c921-46b3-9cd8-7b091f0d6d77)" d="M133.9 365.7c-1.8 6.4-1.8 11.8-3.1 18 8.8 2.8 19.1 2.3 28.1 3.8 1.5-13.1 5.8-25.5 7.3-38.7s-.4-29.4 3.2-44.1c3-9.8 5.4-14.9 8.5-23.1a39.8 39.8 0 00-3.4 5.6 23.2 23.2 0 01-7.9 6.8c-6.7 2.5-16.5-1.4-16.9-9h-.4c-6.9 12.5-6.8 28.9-8.4 42.8-.8 8.2-3.2 19.4-4.6 27.5-.3 1.1-2.7 9.1-2.4 10.4z"/><path fill="url(#a0f0df6d-1c22-4027-b980-5ad4bda5d721)" d="M131.3 386.4l-1.3-.3.7-2.8.2.3c8.8 2.9 18.7 2.6 27.8 3.7l.2 2.5c-3.9.4-10.3-1-14.2-1.4s-9.7-1-13.4-2z"/><path fill="#293b60" d="M126.3 360.1c-3.5 3.5-4.4 7.8-4.5 12.4.4 1.1-.2 3.6-.5 4.7-1 3-2.8 8.1-2.9 11.3s7.2 8.8 11.4 10.2c-2.5-5.4.2-12.4 1.2-17.5 1.9-12.2 6.1-29.3 8.1-42.2s2.7-28.7 5.6-41.6c1.1-4 2.8-10.5 5.4-13.8V281h-5.6l-.4.8c-11.2 7.8-15.1 32.8-16.5 44.5a252 252 0 00-1.7 24.5c.1 2.3.6 7.1.4 9.3z"/><path fill="url(#b3586d59-0280-400a-87ce-608aa9ed609f)" d="M138 479.6a2.7 2.7 0 01.2-3h.6c3 6.2 13.4 6.2 19.1 5.5a6.2 6.2 0 00-.1 1.9c-2 1.4-6.4 1.1-8.7 1a33.1 33.1 0 00-3.9-1.1l-.3-.6a42.8 42.8 0 00-6.2-3.8z"/><path fill="url(#a5cd1dcd-cf8f-4a47-a773-4e80413f712f)" d="M160.1 480.2l-1.4.6a3.5 3.5 0 00-.6 3.4c-.3 1 .3 2.3.2 3.3 5 4.4 12.6 4.1 18.6 5.7l.6-.9a29 29 0 016.5-2.1c2.1-.5 5.5-1.5 7.7-.6a25.2 25.2 0 016.8-3.8c0-1.6.4-3.5 0-5.1l-.9-1c-2.5 4.9-6 6.7-11.2 8s-12.5 1.7-18 .2c-3.4-1-8.2-3.6-8.3-7.7z"/><path d="M166.5 506.1l-1.4-.6-.6-.9v-1.1c2.4-4.5 9.2-5.3 13.8-5.7a12.2 12.2 0 01-3 3 21.4 21.4 0 00-2.5 4.1c-1.6 1.2-4.4 1.3-6.3 1.2z" class="acd251d1-2f87-4ded-ab5c-b352d306ecd8"/><path fill="url(#ecbe759f-0596-41fc-8b0a-eaacc2ed9063)" d="M158.1 486.1a3.8 3.8 0 00-1.6 1.2c-.2 2 .9 4.8 1.5 6.6l1.1 6.2c-.1 2.3-.1 5.8-.7 8s-1.4 4.3-1.2 6.3c2.9 7 9 14 14.6 19 2.6 2 7.3 2.7 10.3 3.8a38.9 38.9 0 0017.3-1.6c11.3-3.9 13.8-8.8 13.4-20.4-1.7-7-3.3-10.1-10.5-12.1-1.6-.2-5.1-.7-6.7-.7l-6.1 1c-2.6.5-5.8 2.2-8.3 3.1l-.8-.2a9.5 9.5 0 01-2.4.7l-.6-.7v-1.5l-2.1 1.7c-.6 3.1-.6 7-1.1 10.2l-.7.6.8 6.3-.4.7a1.9 1.9 0 01-1.3 0v-.2l-.7-6.6c-1.8-1.6-.3-6.7-.2-8.9l-3 1h-3.3c-1.7-.4-4.1-1.3-4.7-3.1.3-3.7 3.6-6.8 6.7-8.3s7.9-2.5 11.8-2.3c-.8-2.8-3.2-2.8-5.6-3.3-5-.9-11.6-1.4-15.3-5.4z"/><path fill="url(#a062a622-d98c-42ff-bc6b-9249a96beee8)" d="M166.7 346.5c-1.3 9.4-4.3 22-6.2 31.3-1.4 5.4-3.5 19.2 2.2 23.8h.8a27.2 27.2 0 013.8-2.9l13.3-4.7a147 147 0 0030.9-12.1c-1.9-8.1-7.7-16.7-10.9-24.4-2.1-5.9-5-14.2-7.3-20s-6.8-13.9-9.2-19.8c-4.4-14.4 1.9-44.3 20.8-45.1-.1-.7-8-4.8-8.7-5.1a23.1 23.1 0 00-7.2-2.2c-2 1.3-7.8 5-9.8 5.9l-.3.5c.4 1.2.2 5 .2 6.3l-1.7 5.1c-1.9 4.9-4.9 11.9-6.5 16.9-4.8 13.9-3.5 31.9-4.2 46.5z"/><path fill="url(#fd052ac9-edd2-4006-8cf2-d0b52827b9ed)" d="M184.8 422.9s-.2-2 .5-2.2l7.5-1.2c2.2-.3 1.1 7.4 1.3 8.4s-9.4 2.1-9.1 2.1l-.2-.3z"/><path fill="url(#b4d4ba58-9721-4f31-b6e3-7f0ceca02954)" d="M195.7 421.1v7l.3.3c9.6-2.8 8-.7 7.6-10.4a33.2 33.2 0 00-7.6 1.1l-.5.6z"/><path d="M191.8 489.4c1.8-1.3 4.5-2.7 6.4-3.9l1.1.3.5 1.2c-.6 2.8-1.2 6.7-2.3 9.3a14.4 14.4 0 00-7.1-1.2c.4-1.5.4-4.4 1.4-5.7z" class="acd251d1-2f87-4ded-ab5c-b352d306ecd8"/><path fill="url(#e9141ae9-4596-47fd-a706-ac33ed4f0706)" d="M190.1 489.2l1.6.4-.7 1.8a9.6 9.6 0 01-.6 3.7h-2.2c-.4-.5-1.5-.5-2.1-.4l-.5.4h-2.3l-.5.6-3.9-.3a11 11 0 00-2-2.3 5.6 5.6 0 012.9-1.6l5.8-2.1z"/><path fill="url(#b083783e-e518-4441-a2eb-ac987fecb002)" d="M106 517.8a10.8 10.8 0 01-1-7.3l1-3.7a15.6 15.6 0 014.2-5A25.3 25.3 0 01127 498a26.7 26.7 0 0111.8 2.6 25.4 25.4 0 000 11.3l1.7.5 2.9 5.4c-4.6 2-12.7 3.5-17.4 4.9-6.6 1.1-15.1.2-20-4.9z"/><path fill="url(#a690dc26-4c4e-45a6-8934-921ab67f3069)" d="M147.6 517.1l-2.7.5v-.7a40.5 40.5 0 01-3.2-5.4 44.7 44.7 0 00-.7-4.7 19.8 19.8 0 011.2-7.2l1.9 1.8 2.2 1.1h2.5l1.9-1.1c2.1-3.4.1-6.8-1.4-9.9-1.4-1.5-4-3.5-6.1-3.8-.2-8.5 7.3 1 14.6-3.7a10.1 10.1 0 01.3 1.7 2.5 2.5 0 01-1.3 1.2c-.9 1.5.1 3.9.8 5.3l.8 3.9c2.1 4.6-.6 14.1-1.4 17.9-1.3.1-1.9.3-2.1 1.8a5.8 5.8 0 01-2.6.2z"/><path fill="url(#af199dc0-b308-4b81-9a2e-b88484abdd9a)" d="M137.6 485.6c-.1-1.5-.7-4.3-.2-5.8l1-.5c.6 0 2.3 1.4 2.8 1.7l4 2.1v.6l-1 .2c-.8.9-.8 2.6-1.2 3.7l-2-.3c-.2-.6-1.5-1.2-2-1.5l-.8.5z"/><path d="M102.7 527.4c-1.1-.4-1.2-8.6-1.1-8.5-.1-1.5.1-4 1.1-5.2l1.9-.5c-.3 8.1 13.4 10.4 18.8 10a109.8 109.8 0 0010.9-2.9c2.5-.6 6.6-1.2 9.1-2.3.1.6 1.9-.2 1.9-.4 2.6-.5 6.5-1.6 9.3-1.8a6.1 6.1 0 01.9-1.6l1.5-.3c.3 1.6 2.6 5.1 3.5 6.5 4.1 5 5.8 9 12.6 13.8 11.7 6.4 34.4 3.9 39.1-9.7 3.8.7 3.3 9.3 3 10.9.4 14.7-35.8 15.2-42.8 12.3V546l-2.6.4-2.6-1.2a12.2 12.2 0 01-.1-2.7l-2.6.3c-1.9-1.8-2.9-6.9-4.3-9.1a5.2 5.2 0 01-2.5.2l-2.6-3.8-.2-5.8h-1.1l-5.8 4.2a28.1 28.1 0 00-5.3 2.2l-3.8-1.5-1.2.2a20.9 20.9 0 01.1 2.5c0 .4-5.5 1.1-5.8 1.2l-4.2-2.1h-.2l-.4 2.6c-5.2 1.9-20.8-1.3-24.5-6.2z" class="abbcec9f-14e8-4919-96a4-61af5bdfde51"/><path d="M102.7 513.7c1.9 11.3 15.6 12.5 25.2 10.9s17.2-5.7 26.9-7v-1.8c-8.6.8-19.3 4.5-27.8 6.6l-4.9 1-4.2-.2c-5.3-1.8-12.7-2.7-13.3-9.7a13.7 13.7 0 00-1.9.2zM157 513.9l-1.2.2c1.7 6.1 11.7 22.1 18.1 24.1 12.3 4 37.3 2.5 39.6-12.9l-1.3-.8c-3.6 12.8-25.6 15.6-37.1 10.7a28.1 28.1 0 01-11-10.1c-1.9-2.8-7-7.6-7.1-11.2z" class="b9fe2748-e757-4efb-aa3d-0b7f1ae81b5a"/><path d="M127.5 498l3.1.2c-2.1-3 .8-9.8 4.2-10.3.1 1.5-1.2 2.9-2 4a14.3 14.3 0 01-.3 2.9 17.6 17.6 0 000 2.3l-.7 1.4a28.3 28.3 0 017 2.1c-.3 1.4-1.3 9.7.6 11.7a3.2 3.2 0 002.3-.8 15.7 15.7 0 00-.5-3.7 17.5 17.5 0 011-8.2c.7 2.5 8.9 4.5 9.3-.4.9-3.2-2.5-8.7-4.5-10.2s-3.8-1.4-3.8-1.4l.2 2.8c1.6 1.1 3.9 2.8 4.6 4.8a24.6 24.6 0 00.9 2.9 6.4 6.4 0 01-.5 2.4c-2.2-.5-4.8-2.5-5.2-4.8a23.2 23.2 0 00.4-4.6l.6-.6v-2.9l-3.2-.5-1-1h-1.9l-.5-.5a28.7 28.7 0 01-4.1.5l-2.2 1c-3.2 2.8-5.7 6.5-3.8 10.9zM179.8 497.7v-1.9c-6.9.1-16.3 1.7-19 9.2l.3 2.9a10.5 10.5 0 0010.3 1c.1 2.1-.8 6.4.1 8.4l2.1.3.8-.8a60.6 60.6 0 01.7-10.4l2.2-1.6v1.5l.9.7c1.2.1 4.7-1.4 5.8-1.8 4-1.3 10.3-2.8 14.4-2.9-1.1-1.5-4.3-2.2-5.6-3.6a17.5 17.5 0 018.5 1 2.7 2.7 0 01-1.4 2.6l3.4 1.2 1.1-1.6c-.3-2-2.4-3.7-4.1-4.4a29.5 29.5 0 00-5.2-2.3 20.2 20.2 0 00-6.5 0 4.7 4.7 0 00-2.6-.5l-.4.3a5.4 5.4 0 00-2.2.1l-.9.7a11.3 11.3 0 01-4.1-.2l.2 2.2h2.9l-3.6.7a15 15 0 00-5 6.5l-2 .5s-2.2 1.3-3.8.9c-6.7-1.3.4-6.9 3.1-7.2s6.4-1 9.6-1.5z" class="abbcec9f-14e8-4919-96a4-61af5bdfde51"/><path d="M143 496.5a9.8 9.8 0 01.5-2.9 17.1 17.1 0 00-.1-3.2 22.5 22.5 0 014 3.6l1.1 2.9c.2 1 .5 2.7-.1 3.6-2.2-.5-4-2.4-5.4-4zM192.9 498.7l4.1-.3-.4 2.3a10.2 10.2 0 01-3.7-2z" class="acd251d1-2f87-4ded-ab5c-b352d306ecd8"/><path d="M171.7 517.5h1.6c0 .6 1.2 6.3.5 6.7h-1.4zM140.6 512.6l1.4-1.1 2.9 5.4v.7a2.4 2.4 0 01-1.4.2z" class="aa2bbfe4-ffde-476f-aedd-9ff4f66b7cf8"/><path fill="url(#fb5a1587-ad8a-43fc-b966-4b44ccb65691)" d="M160.1 480.2c-1.2-6.4-1.7-15.6-2.4-22.1l-1.8-20.7v-1.9c15 3.2 35.9 2.4 50-3.3 1.4 5.3-3.5 22.1-4.1 27.6l-2.3 10.4c-.4 3.8-1.6 9-3.8 12.1-4.7 8.3-33.9 9.7-35.7-2.1z"/><path fill="url(#a03ed2d3-1b37-40c8-8661-c6819d6977d8)" d="M138.8 476.4a311.9 311.9 0 01-11.1-49.6c5.5 2 12.2 2.3 17.9 1.9.4 1.5-.6 2 1.5 3.6 3.8 1.7 6 2.1 8.9 3.2 1.1 14.2 1.7 30.8 4.1 44.7a4 4 0 00-2.2 1.8c-5.5.4-16.4.7-19.1-5.6z"/><path fill="url(#e78b0083-f4b3-4aaf-92b7-46afebab2a81)" d="M149.9 281a11.8 11.8 0 007.6 10.6c9.8 4 21-10.4 19.7-18.8 4.5-4 8.2-3.8 15.7-10.1a211.6 211.6 0 0015.7-15.5c16.5 5.3 37.1-12.6 37.3-30.1-2.6-25.4-42.5-9.5-39.8 10.8a19.2 19.2 0 01-5.2 5.8c3.5-8.6-6.8-20.1-9.9-26.5-1.9-4-4-9.8-5.5-13.9-.6 1.5.8 9.7 1 11.4-5.4-11.4-7.5-20.2-10.6-33.9s.7-34.5 3.8-47.8l-.4-.3a93 93 0 00-6.9 22.9 47.6 47.6 0 01-5.4-15.9c-2.2 4.2.7 15.7 2.1 19.4-11.5-7-25.1-18.4-25.3-33a65.1 65.1 0 00-5.9 22.4c-2-3.2-3.5-14.6-3.2-18-7.4 21.4-1.1 49 18.3 61.5-1.1 1.7-19.8 1.6-19 1.4l-11.7-2.3c-10.1 3.3-22.1-2-31.2-6.2-1.4.9-5.4 6.9-9 7.5-8.2.1 1.2-10.1 2.7-10.6-.9-1.5-7.1-5.8-8.6-6.9-2.8-2.9-6.8-7-8.8-10.6-2.1 9.3 1.7 20.7 4.5 29.5s7.5 17 11.6 23.6a218.1 218.1 0 0014.3 19.9c-17.5 36.1 21.3 55.1 52.1 53.7z"/><path d="M122 259c2.1 2.9 6.2 6.6 9.6 7.9 2-1.5 3.8-3.2 7-1.7 1.3-1 5.1.9 6.1 1.9a76.9 76.9 0 008.9-11.7c-2.3 2.1-9.7 2.5-12.3 1.7l-.3.8-1.2 1.1a4.4 4.4 0 01-3.2-.1l-1.3.4-2-.2-1.9-1.3a13.3 13.3 0 01-9.4 1.2z"/><path fill="url(#b622627e-619c-4214-aeec-feadf71c822a)" d="M150.4 287.6a16.8 16.8 0 01-.9-3.2l.6-1.1c.3 1 1.6 3.5 2 4.4l3.1 2.8 2.9 1.3c4.6 2.2 11.9-3 14.6-5.8l1.9-2.5 1.7-4.5a21.8 21.8 0 001.1-6.2l1.6-.9c1.5 7.7-4.8 18.9-12.8 22.3-6.8 1.5-13.8-.7-15.8-6.6z"/><path fill="url(#ff5c8177-7ad1-4e9b-bf16-3ac576030d4a)" d="M40.4 114.5c-2.9 17.5-4.1 38.1 5.2 53.9.6-6.9 1.5-15.1 2.6-22l.6-.5c3 6.6 5.5 15.8 9.2 22.1 3.2 4.1 7.9 11.5 12.9 13.6a70 70 0 01-3.8-27.9c5.9 11.2 18.1 18.7 29.3 23.9 7.8 2.8 17.6 6 25.9 3.3a67.7 67.7 0 0031 1.4 51.9 51.9 0 01-21.5-36.5c-.5-6.6.2-19.6 2.9-24.4a43.5 43.5 0 003.2 17.3c1.2-7.5 2.1-16.1 5.9-22.8 0 15.5 14.1 25.8 25.7 33.7-2-5.7-4.3-13.3-2.7-19.3 1.4 4.6 2.7 11.2 5.6 15.1a84 84 0 017.1-23c-1.6 11.2-5.2 24.1-5 35.6.6 15.9 6 33.1 12 47.7-.1-3.6-1.3-7.9-1-11.6.6.6 1.7 3.6 2 4.5a62 62 0 005.7 12.6c5.3 7.4 10.6 16.5 7.3 23a35.9 35.9 0 005.5-6.2 9.1 9.1 0 00.2-3.3c-.5-9.3 17.3-25.5 30.4-19.8 9.8 3.5 9.6 10.3 9.3 12.2s1-.7 1-.7l11.2-15.9a327.4 327.4 0 0017.7-33.7 127.5 127.5 0 0010.4-26.7c6.8-30.5 3.2-58.3-20.5-80.3a21.2 21.2 0 018.4 4.4c-4.8-10.8-26.6-19.6-37.9-20.5.4-1.5 20.8-1.9 20.3-1.5-.2-1.9-33.1-8.4-33.6-7-3.6-6.3-15.9-15.9-20.7-19.8v1c1.9 2.9 5.2 6.8 5.7 10.3-5-2.3-13.2-7.5-18.3-9.7-3.3-2.1-23.6-8.5-27.2-8.2 2.3 1.8 7.5 3.7 9.7 5.8-39.7-8.5-78.7 5.8-106.4 35.1a160.7 160.7 0 00-35.8 80c2.4-4.8 5.1-11.6 9.3-15.1z"/><path fill="url(#b1740da7-97f3-4883-b868-f808b7fa46ca)" d="M144.6 161.9c-2.4-3.5 5.5-6.1 9.5-5.6 6.7-.2 16.3 7.2 15.1 12.9l-.6.5-1.7.2a72.4 72.4 0 00-11.5-5.7l-4.5-1.1a19 19 0 01-6.3-1.2z"/><path fill="url(#edbd3315-46e1-4172-908d-18872b35ce3e)" d="M78.8 180.8c-.2-2.5 2.8-5.5 4-7.5l6.5 3.6c-2.6 2.5-5.2 7.1-9.5 5.2z"/><path fill="url(#fff1117d-8536-4d17-9645-c3832aa720e6)" d="M204.7 415.3c-3.6-10.1 11.6-8.8 14.5-16.1a31.2 31.2 0 00.4-12.4c8.1 1.5 17.5-3.7 22.7-9.3 8 8.1 13.1 12.7 18.7 24.4a201 201 0 005.5 9.7c2.9 4 7.6 8.7.3 11.8 2.6 4.7-2.7 10.1-7.2 10-1 4.6-10.2 6.4-13.7 3.8-14.8 7.1-20.7-13.6-20-24.2h-.4c-2.5 2.3-2 3.7-7.2 5.8s-11.5 1.2-13.6-3.6z"/><path fill="url(#b6c46e67-b073-4c94-8b0f-a35be63df686)" d="M60.6 262c-3.3.1-8.6-5.3-11.1-7.1l-1.5-.8c-15.8.7-18.4-9.7-24-20.9-2.2-5.9-5-9.1-10.3-11.9s-19.5-14.9-8.4-21c-3-5.2-1.1-9.9 5-11-4.1-7.4 1.8-17.8 10.9-12.4l.7-3.8c5.6-8.4 13.7 3.5 17.3 8.9 6.2 10.2 9.1 18.6 13.7 28.4.9-7.6.3-11.6 5-20 3.2-5.8 11.5-8.2 13.9-2.5s-2.1 8.8-2.7 15.5-.2 17.5.2 22.7l-1.1 7.5 4.7 5c.5.6 2.9 1.8 3.3 4.5 1.2 8.3-6.7 20-15.6 18.9z"/><path fill="url(#f6571650-1f32-4dca-b084-b5318912b44f)" d="M56.2 260.3c11.1 7.2 22.2-8.8 19.7-18.8l-1.2-1 .4-.4c2.5.1 3.3 1.5 4.4 3.3l7 6.5c2.6 2.3 8 6.7 10.7 8.9a54.5 54.5 0 007.1 8.4 65.9 65.9 0 0040.3 13.7l-.6 1.2c-10.4 6.3-12.8 26-15.5 36.8-8.8-4-20.9-11.7-28.8-17.3a235.5 235.5 0 01-34.6-27.4l-5.1-5.4c-1.1-1-5-1.9-5.1-4.6s.2-3.1 1.3-3.9z"/><path fill="#f44040" d="M131.8 266.8a6 6 0 016.8-1.6c1.2-.9 5.3.6 6 1.6-2.1 2.6-10.9 3.1-12.8 0z"/><path d="M131.5 257.9c.6 1 3.6 1.8 4.7.8v-.3c.1.7 3.7.6 3.8.3s1.1-1.3 1.3-1.7a19.5 19.5 0 00-5.9 0c-.8.1-3.2.3-3.9.9zM147.5 224.8c-6.6-9.7-4.4-25.6 1.5-34.7s16.7-1.7 18.3 5.5a40 40 0 01-.6 24.9 11.2 11.2 0 01-19.2 4.3zM119.2 218.8c.1-6.7-1.7-16.3-6.1-22.7S100 193 98.4 201c-7 29.2 20.3 40.3 20.8 17.8z" class="a8475ce5-9b19-4d7c-b1ec-3fef0b2327b3"/><path fill="url(#f3d34b3b-ce59-44d5-b5be-d7645a1ff05a)" d="M190.1 265.2l7.2-6.5c.6-.6 6.7-5.5 6.5-6.4 2.5 1.5 15 2.2 12.3 9.2a71.6 71.6 0 01-6.3 13.2c-1.3-.3-4.7-2.4-5.8-3.1a66.7 66.7 0 01-6.4-3.7c-2-1.4-5.3-1.9-7.5-2.7z"/><path fill="url(#a8a63b3e-9cfa-49f7-8bd0-cd79814c0fda)" d="M183.5 316.6a52 52 0 015.1-32.9c3.1-5.7 12.7-14.2 18.8-10s11.4 12.8 14.4 19c4.1 3.6 8.2 17.1 9.4 21.8a290 290 0 0010.3 32.8c2 6.5 7.3 13.9 5.9 21.5-3.5 11.6-18.1 21.3-30.7 17.1-3.8-1.5-4.2-1.9-5.3-5l-2.3-6.7a57 57 0 01-5.3-10.1 93.2 93.2 0 01-7.3-19c-3.6-9.1-8.9-19.7-13-28.5z"/><path d="M204.8 410.1c-.2-.8 7.7 1.7 7.2 2 2.6-3 .1-6-3.5-5.2-1.2.8-3.1 1.8-3.7 3.2zM240.4 432.4c-2.1-4 2.8-8.3 6.4-5.7.5.4 2.2 4.6 2.2 4.6v.4c-1.5-1-7 0-8 1zM252.9 430.9c-1.5-3 1.2-7.1 4.5-4.8.3.6 2.2 3.3 2 4.1h-.3a7.1 7.1 0 00-6.2.7zM260.7 426.9c-1.2-.9-.1-6.1 2.3-5.9a4 4 0 012.8.7c.4.8 1.7 3 1.6 4l-.2.4c-.7-.6-5.4-.4-6.1.8zM266 418.9c-1.4-1.8.2-6.1 3-3.7l1.6 2.9v.4a8.5 8.5 0 00-4.6.4z" class="b7da0185-fe6e-4457-ac56-baed305bec8e"/><path d="M103.9 180.8c6.8 2.3 14.7 2.3 17.6.3 4.7 2.6 27.2 3.9 31.3 1-18.4-8.4-26.6-44.2-18.6-62.3.1 3.8.6 12.7 3.9 19.3.9-8.7 2.2-16 5.7-23.4-1.9 12.3 17.3 30.5 25.6 33.3-2.7-1.9-5-17.7-2.3-21.5a32.6 32.6 0 005.3 17.8c1.2-5.8 1.4-14.6 7.5-24.1-9.9 29.7-5.5 57 6.1 83.8 0 0-.3-7.2-.7-11.8.6 1.7 4 11.2 6 15 4.6 8.2 13.2 17.4 9.2 26.4 0 0 4.5-4.7 6.1-7.6 1.5 2.4-4.8 11.1-11.6 15.5 6-8.3-5-28-7.2-34.2a33 33 0 002.3 9.5c-10.2-7.6-19.3-30.1-21.4-48.2 0-.7 1-.7 1-1.4s-1.2-2.6-1.2-3.5c-.4-10.2.1-9.6.1-9.6a28.8 28.8 0 01-24.3-16.6c-1.8 3.3-.3 12.9-.3 12.9s-8.2-6.6-9.4-10.4c-2.4 9.9 12.6 38.2 22.1 41.6 0 0-18.9 10.5-33.1 4.6-9.9 5.6-26.8-2.9-35.1-7.3 0 0-4 6.2-8.4 2.2 4.9 1.3 7.8-4.8 11.1-7.1l5.3 2.4c1.1.5 6.8 2.1 7.4 3.4zM81.6 175.1c-4-2.7-9-6.6-12-11.1-1 1.4 2.5 20.9 5.6 28.5-8.9-20.2-9.1-25.7-8.3-39.6-.8-.3 9.4 14.2 17.4 18.7" class="a67e0936-be5b-4090-bdfd-a89a2915eb44"/><path d="M229.9 215.1c2.3-.5 7.1-.9 9.2 3.4s-2.8-2-5.6.3c3-.2 8.5 1.6 8.4 10.7-2 6-9.3 12.3-14.7 15.2-7.6 4-11.4 4.2-18.6 2.5-22.3 26.6-62.4 44.6-95.7 26 18.4 8.7 55.7 8.6 77.9-12.5 15.3-12.5 13.7-15 18.8-17.3 6.6-2.1 9.3-7.5 5.3-12.3.2-4.2 10.8-14.9 15-16z" class="a67e0936-be5b-4090-bdfd-a89a2915eb44"/><path d="M150.6 283.6a39.5 39.5 0 0021.2-4.7c2.5 9.6-13.7 16.3-19.1 9 10.2 12.3 26-4.6 24.8-15.4-5.3 2.7-15 5.4-20.6 7.5-1 .1-6 .4-6.8.8zM128 429.1c3.8 2.5 12.7 2.8 16.4 2.9-1.3 3 5.2 6.7 6.9 6.1 3.7 8.5 5.3 32 5.8 40.5a7 7 0 00-1.2 1.9c-2.4 2-15.7 0-16.9-4 .6 5.2 16.4 6.9 18.9 5.7l.2-1a5.7 5.7 0 001.8-1.2 662 662 0 01-3.9-44.5c-3.2-1-7.6-2-10.2-4.2a11.3 11.3 0 010-2.6c-5.7.4-12.8.2-18-2.1 0 0-.8 1.9.2 2.5z" class="a67e0936-be5b-4090-bdfd-a89a2915eb44"/><path d="M156.1 439.1c9.3 4.5 35.3 2.1 44.1.4 5.5-1.9.3 13.7 0 17.7s-3.8 21.9-6.1 24.9c-6.9 6.9-21.4 8.1-31.8 1.8 6.5 6.5 15.4 5.1 24.7 3.6 7.5-1.9 8.5-3.8 10.7-8.2 2.8-14.7 7.8-31.6 8.7-46.5l.5-.8c-5.6 2.5-12.8 3.4-18.7 4.5a94 94 0 01-32.2-1.3 25.4 25.4 0 01.1 3.9zM220 391.9l1-3.6c5.9 2.4 19-3.8 21.6-7.9 0 0 7 4.9 9.1 7.1-4.7-5.2-7.5-8-9.4-10-6.6 6.7-13.3 10.7-23 9.2zM237.5 405.4l6.8 13.6c4.2 8.6 6.5 10.1 6.6 12.8s-1.4 4.3-.2 4.7 6.8.1 8.8-3.4c-1.1 5.1-10.4 7.5-13.4 3.7a9.8 9.8 0 002.9-4.6c.3-1.4-1.3-3.8-1.9-4.9-3.6-6.1-7.3-15.2-9.6-21.9z" class="a67e0936-be5b-4090-bdfd-a89a2915eb44"/><path d="M245.3 405.2c1.6 3 11.7 18 13.7 21.1s1.9 4.3 2.7 4.4 4.3-.4 5.3-3.1c-2 4.3-3.6 5.6-7.4 5.8a9.9 9.9 0 00.3-2.9c-4.9-8-10.8-16.7-14.6-25.3zM252 402.5c1.8 1.7 11.2 14.2 12.9 16.2s3.5 3.2 5.6.8c-.4 2.7-1.8 2.9-3.5 3.9-5.4-6.3-10.5-14-15-20.9zM226.1 409.2c.9 6 2.8 24.9 12.2 26.7 4.6 1.1 9.5-.5 10.6-3.4-6.4 13.6-20.4 3-22.3-8.5-1.1-5.8-.3-9.9-.5-14.8z" class="a67e0936-be5b-4090-bdfd-a89a2915eb44"/><path d="M204.7 414.3c5.6 7.5 18.9 3.3 21.1-4.5l.3 2.6c-1.8 1.5-2.6 5.8-9.4 7.2s-11.6-1-12-5.3zM134.2 459.5c.9.3 2.9.5 1.2-.3l-1.7-.8zM137.3 459.6c1.8 1.9 4.1-3.5 3.1-2.7a13.1 13.1 0 01-1.3 1.6zM170.1 459.4c.8 4 10.6 4.9 7.8 3.6-4.7-1.7-4.9-1.6-7.8-3.6zM183.2 463.7c4.2 1.6 9.2-8.3 6.2-4.8s-3.7 3.3-3.7 3.3a20.7 20.7 0 01-2.5 1.5zM117.8 236.1c-.8-16.3 35.7-11.8 26.8 4.7 6.4-10.4-17.4-15.3-21-12.1a42.7 42.7 0 00-4.3 3.7zM133.7 272.5c2.2 4.9 9.6 1.4 11-1.2-2.5 2-7.7 3.5-11 1.2zM168.5 170.1c-4.4 2.7-13.1-5.1-18.2-5s-6.2-1.4-6.2-4.3c2 3.1 9.2 2.2 11.9 3.5l8.4 4a15 15 0 004.1 1.8zM143.4 210.4c-1.1-42.5 35.6-27.6 24.3 6.7 8.1-32.6-22.6-46.2-24.3-6.7zM98.5 219.5C88 185.8 120.3 178 119 217.1c-1.8-36.8-27.7-29.8-20.5 2.4zM19.5 176.2c-3.7 6.7 11 25.2 15.4 26.1-4.8-3.6-15-17.2-13.8-25zM9.2 189.6c-1.4 3.8 14 20.2 16.2 20a88.7 88.7 0 01-15.1-20.3zM4.2 201.1c1.8 5.5 11.6 13.1 16.7 14.6-8.5-6.1-11-8.3-15.8-15.2zM47.1 231.8c-1.6 3.3-.9 14.6 6.3 14.1l-3.3-2.5a24.4 24.4 0 01-3-11.6zM66.5 237.9a7.3 7.3 0 002.6-3.5l-.8-.6zM73.7 239.4c3 4.1-2.4 21.3-9.7 20.9-4.7 2-13-5.4-15.6-6.4l5.4 4.5c3.3 2.4 2.4 3.9 8.8 3.6 9.2-1.2 14.4-11.5 13.6-19.1 0-1.3-1.7-2.6-2.5-3.5z" class="a67e0936-be5b-4090-bdfd-a89a2915eb44"/><path d="M175.8 314a4.6 4.6 0 00-2.1 1.2c2.5-.7 8.5-1.6 7.7 4.1s-2.6 12.9-3.3 17.5c.4-1.9 4.6-13.1 4.8-15.8.2 1.8.1 5.3.4 6.9.6-4 7 11.8 8.4 18.1 1.3 12.2 15.3 29.6 15.6 38.1l4.7-1.8a78.1 78.1 0 01-2.9-8.1c-3-4.1-5.1-9.9-7.4-14.4s-4.4-12.7-6.5-17.7a615 615 0 00-13.2-28.6 21.4 21.4 0 00-6.2.5z" class="f81d4798-0959-4cbe-974d-e9cbc3fbec16"/><path d="M183.5 330.1c.4 1 9.2 29.2 6 21.6-4.7-12.1-4.5-12.1-6-21.6zM167.5 388.5c-2.6-.9-4.1-1.6-1.1-1a18.9 18.9 0 0010.6-.6c5-1.5 8.8-1.3 0 1.1s-4 .8-9.5.5zM164.3 395c-.3-2.7 3.1-4.5 4.9-4.6s-1.1.8-2.7 2.2-2.3 3.6-2.2 2.4zM55 264.7c8.9 3.6 9.3 8.6 22.5 18.7s38 25.6 50.1 26.4c.6-5.7 9-25.1 17.1-28.3-9.9 4.7-15.2 32-16.2 37.4a270.7 270.7 0 01-40.2-25.2c-7.9-6.1-20.9-16.1-27.2-23.8a20.7 20.7 0 00-2.5-1.9l-2.2-1a6.8 6.8 0 01-1.4-2.3z" class="f81d4798-0959-4cbe-974d-e9cbc3fbec16"/><path d="M98.1 293.1c1.4 1.6 31.5 5.9 32.1 5.8-7.5 1.5-26-2.2-32.1-5.8zM119 275.9c23.8 12.7 25.2-.3 14.5 17.9-1.9 3.9 1.4 1.6 1.4 1.6a26.8 26.8 0 0110.6-14.5 73 73 0 01-26.5-5zM150.4 287.9l.9-1.6-1.2-3-.6.6a19.2 19.2 0 00.9 4zM172.7 289.3a28.6 28.6 0 012.3-7.7c1-2.3 2.8-6.3 2.2-8.8 1.1-.8 7.1-4 8.3-4.7s3.3-2.5 4.8-2.6c-1.8 1.1-11.7 12.6-12.4 16.4s-3.2 5.3-5.2 7.4zM121.3 377.1c.8 2.7 4.3 9.4 1.5.2-.9-3.5-1.5-.2-1.5-.2zM130 386.1l2.9.7.2-2.5-2.5-.8zM156.4 387.2v2.4l2.3.2v-2.3z" class="f81d4798-0959-4cbe-974d-e9cbc3fbec16"/><path d="M172.8 289.2c-10.2 16.9-5.8 44.6-9.4 65.4-1.6 11.5-6.3 25.3-7 32.6l2.3.3c2.6-16.2 8.3-33.5 8.1-50 .4-10.5 0-23.5 2.9-33.7 1-3.2 3.5-10.7 4.9-13.8.4-.8 2.2-5.1 2-6.1-1.3 1.5-2.2 3.9-3.8 5.3zM150.4 287.7c-6.3 15.8-4.8 34.3-8 51.8s-6.2 29.5-9.1 44.6a7.4 7.4 0 00-2.4-.5c1.9-15.4 6-31.4 8.7-46.7 3-16.9 1.5-36.8 9.8-52.3l1 3.1z" class="aca1dc88-f784-4667-999f-090b3e1f468b"/><path d="M156.5 391.7c-.3 3.5 3.2 20.7 9.8 16.5a71.3 71.3 0 0113.3-8c8.1-3.9 23.5-9.1 29.2-12.2 4 4.8 10.9 1.3 9.6 7.7-.3 2.9-1.3 7.3-6.7 9.5 8.2-3.4 7.9-5.8 8.2-10.6a67.8 67.8 0 00-.3-7.8c-2.9-.7-6.2-2-7.8-4.7-6.9 3.8-18 7.7-25.4 10.3s-17.9 3.9-23 9.4c-4-1.3-4.5-8.7-4.5-12-9-.9-19.9-1.7-28.6-3.7a25.6 25.6 0 00-1.2 10.3 4.3 4.3 0 01.4 2.3c-2.5-.9-6-3.9-8.1-5.4l-.2 2.1s5.1 6.8 8.8 6 2.1-3.1 2-8.3.2-5.2.2-5.2a76.9 76.9 0 0011.2 1.9c.8 3.9-2.8 14.7.7 16.9.8 1.5 1.3 22.8-1.5 22.1h3.2c-.1-6.2.3-15.8.2-22l-1.8-1.4c-1.1-4.7.8-10.6.5-15.3a178 178 0 0111.8 1.6z" class="b5f5ac40-29cc-4c6b-82d6-638e3276d54b"/><path d="M202.1 391.1c-.8.8 1.2 1.3 4.9 1.4v1.3a34.3 34.3 0 01-9.6-1.4l5-2zM130 405.4c-.5.4 17.8 1.6 12.2.4-7.5-1.9-6.5-.6-12.2-.4zM133.3 410.6a18.1 18.1 0 005.6-1.1c3.1-1.1 5-1.7 3.7-1.7a36.2 36.2 0 00-9.3 2.8zM147 390.7c.2.2-.2 13.3-.1 14 .4-2.7 1.2-6.7 1.1-9.3zM149.4 406.3c0-.3 18.7 1.8 13.9.4-7.9-1.8-7.9-1.1-13.9-.4zM148.3 407.9a18 18 0 014.6.8c1.8.6 4.6 1.9.9 1.2-5.3-1.2-3-.7-5.5-2zM207.3 418.5c2.1 2.2 9.2 3.2 11.2 2.8 5.4 0-14.6 11.6-13.4 11.3 5.3-2.4 11.9-6 16-10.3l1.1-5-4.5 1.9a14.4 14.4 0 01-10.4-.7zM193.9 420.1c2 10 1.1 10.2-8.9 9.9 9.4-1.5 9.9 1.2 8.9-9.9zM195.8 428.4c9.2-.8 9.8-1.2 7.8-10.3a29.1 29.1 0 01.2 7.8l-.4.3z" class="b5f5ac40-29cc-4c6b-82d6-638e3276d54b"/><path d="M193.3 262.6c1-.9 6-6.3 7.1-6.8s5.6 2 7.2 3.5l.2.4c-4.3 0-10.4 1.7-14.5 2.9zM196 262.1c-1.5.7-3.1 2.1.6 2.6-5-.7 13.4 8.9 13.4 9.6l-.6.3c-3.3-2.4-9.1-4.4-12.4-6.8l-2.9-1.6c-.8-.1-2.4-.5-2.9-1.3v-1.1zM201.9 338.2a11.4 11.4 0 01-2.6 2.3c1.3-1.9 7.7-12.5 9-15.6s.8-.3-1.5 5.2a26.8 26.8 0 01-4.9 8.1zM212.6 340.3c.3-4 .8-7.2-1.1.6s-2.1 19.2-.5 10.6 1.6-11.2 1.6-11.2z" class="a21c2a14-8b4f-4544-8c06-8501810d9a67"/><path d="M182.9 314.7c5 8.9 11.3 20.5 15 30.7s7.9 23.8 15.5 32.5a3.5 3.5 0 01-1.9 0c.8 6.7 11.1 9.6 17.6 8-6.2 1.4-8 1.1-12.9 0a25 25 0 00-3.5-2.1 41.2 41.2 0 01-3.6-9.6c-3.4-5.3-6.6-13.1-9.4-18.8a225 225 0 01-4-12.5c-3.6-8.5-9.4-19.7-12.8-28.2z" class="a21c2a14-8b4f-4544-8c06-8501810d9a67"/><path d="M87.3 178.4h.1l4.3-3.6-6.9-3a32.6 32.6 0 00-3.6 2.9c1.2.9 3 1.9 4.3 2.7-1.3.3-2.6 6.3-6 4.3 2.8 1.8 2.4.5 3.9.6zM145.1 158.7c-.7 3.4 14 2.7 16.9 6.3s7.1 4.8 7.2 3.7c-1.1 3.8-10.9-4.3-13.7-4.3-5.6-1.8-7.8-1.2-10.7-2.3l-.7-.9a3.7 3.7 0 011-2.5zM137.7 110.8c4.6-11.1 7-16.6.8 1.1-2.1 7.7-2.1 21-.4 26.3h-.9c-2.6-9.7-4-18 .5-27.4zM184.3 113.4c1.8-2.5 8.4-5.2 4.3-3.8-11.8 4.6-16.6 24.9-17.1 35l.7.2a69.5 69.5 0 0112.1-31.4zM201.6 233.4c1.2-1.3 3.6-7.3 3.6-7.3-.1-15.6 18.7-31.6 35.9-21.7 13.1 11.2 33-34.1 41.2-53.6a251.2 251.2 0 01-36.4 66.6c-1.8-5.6 1.6-7.5-8.2-11.7-14.9-7.3-32.1 10.2-31.5 21.5a27.7 27.7 0 01-4.6 6.2zM58.5 127.9s-1.7 11.6 5.2 25.4c-1.2 7.5.2 11.5.2 11.5s-1.1-2.1-3.6-6.1c.4 5.4 4.1 10.2 4.1 10.2s-.1 4.2 3.1 10.6c2.6 1.6 3.1 1.2 3.1 1.2a56.3 56.3 0 01-2.5-10.6c-1.7-5.1-2-12.3-2.1-17.6.1-2-2.2-5.3-4.2-11.1-2.7-7.9-2.5-7.9-3.3-13.5zM46.7 136.5s-1.1 7.4.5 13.3a7.3 7.3 0 011.3-3.6c-.3-2.4-1.5-7.2-1.8-9.7zM85.7 141.5a52.9 52.9 0 0031.5 40.6c4.1-1 5-.5 5-.5l.2-1.1c-9.4-2-21.4-13.4-26.3-19.8s-9.1-12.4-10.4-19.2z" class="ec76ec16-61c6-4842-857b-138fe0ccdab1"/><path d="M256.9 180a41 41 0 01-17.3 17.7c6.2-5.5 12.6-11 17.3-17.7zM245.4 198a8.2 8.2 0 01-7.1 4.1c2.3-1.5 4.7-2.7 7.1-4.1zM247.2 183c12.8-13.7 20.3-31.3 27.8-48.3-6 17.5-13.8 35.7-27.8 48.3zM87.6 119.7a63.6 63.6 0 016-40 97.5 97.5 0 00-6 40zM118.4 170.8a68 68 0 01-28.2-39.2 90.6 90.6 0 0028.2 39.2zM96.4 91.9c4.1-15.8 12.8-32.7 28.5-39.3-14.8 8.1-22.8 24-28.5 39.3zM54.7 135a51.3 51.3 0 012.6-40.1 69.4 69.4 0 00-2.6 40.1zM181.7 142.8a73.6 73.6 0 0117.4-42.8 106.3 106.3 0 00-17.4 42.8zM117.7 65.9c12-14.1 29.7-25.3 48.8-25.3-18.9 1.6-35.7 12.3-48.8 25.3zM184.5 55.9A89.5 89.5 0 00161.3 94a64.2 64.2 0 0123.2-38.1zM49.5 105c1.3-11.7 4.5-24.7 14.2-32.2-8.5 8.6-11.4 20.8-14.2 32.2zM192.9 201.2a92.5 92.5 0 01-1.8-70.1 110 110 0 001.8 70.1zM193.7 188.1c2.2 9.1 7.6 17.6 7.1 27.2-1.1-9.4-6.4-17.7-7.1-27.2zM247.3 77.7c8.3 18.6 2.7 39.9-5.5 57.5 6.7-18.1 12.3-38.5 5.5-57.5zM250.7 124.6a52.4 52.4 0 01-14.8 30.6 87.8 87.8 0 0014.8-30.6zM262.1 70.7a31.1 31.1 0 019.5 29.9 41.1 41.1 0 00-9.5-29.9zM142.1 74.8c-15 22-25.6 50.5-17 76.8-10.2-26 .6-55.7 17-76.8zM136.9 101.1A64.2 64.2 0 01157.2 70c-9 8.8-14.8 19.9-20.3 31.1zM79.2 161c-15.8-14.8-18.9-38.9-11.6-58.7-5.6 20.1-2.9 42.9 11.6 58.7zM246 154.9a120 120 0 01-30.2 37 233.5 233.5 0 0030.2-37zM261.3 78.3a42.9 42.9 0 014 27.9 82.7 82.7 0 00-4-27.9zM214.3 51.6a61.4 61.4 0 01-9.5 21.4c3-7.1 6.4-14.4 9.5-21.4zM232.9 58.2c6.4 4.9 7 14.4 7.3 21.9-1.8-7.3-2.2-16-7.3-21.9zM240 51.5a44.3 44.3 0 0129.8 24.7A58.7 58.7 0 00240 51.5zM156 17.5c14.1 1 27.8 6.1 40.2 12.6A218 218 0 00156 17.5zM170.8 52.9c6.4-7 15.9-12 25.6-11.2-9.6.8-18.1 5.5-25.6 11.2zM183.3 31.5a77 77 0 00-36.6 2.9 52 52 0 0136.6-2.9zM204.1 49.1c-4.9 4.3-7.2 10.9-10.7 16.3 2-6 4.8-13.2 10.7-16.3zM224.1 55.4c2.5 7.4.6 15.8-1.2 23.3.3-7.7 2.2-15.7 1.2-23.3zM241.5 58.4A35 35 0 01258.9 86a48.1 48.1 0 00-17.4-27.6z" class="fb3468cd-9ec9-4d0d-b168-29e1a7b0b684"/><path fill="url(#a70729b0-fdc4-4901-958e-24ebc3ed15be)" d="M149.3 214.2a7.3 7.3 0 0113.8-3.7c3.8 9.8-11.8 17.1-13.8 3.7z"/><path fill="url(#eadc83c3-5c65-4f8d-af46-e56c22fa4b49)" d="M106.2 217.6a6.5 6.5 0 0112.4-3.3c3.4 8.8-10.6 15.4-12.4 3.3z"/><path d="M161.2 215.5c-2 6.7-11.3 3.3-9.6-3.1s11.9-3.1 9.6 3.1zM116.9 218.6c-1.7 6-10 2.9-8.5-2.8s10.7-2.7 8.5 2.8z"/><path fill="url(#b4530209-bc0b-4fbb-a864-acbe64d1f292)" d="M111.8 214.5c2.9.1 2.9-4.4 0-4.4s-2.9 4.5 0 4.4z"/><path fill="url(#bf272dbb-52b4-4a1b-9035-22c228beab62)" d="M157.2 211.1c3.9 0 3.9-6.1 0-6s-3.9 6 0 6z"/><path d="M156.4 229.3c-18.9 1.1-16.9-41.7-.6-43.5 19 .7 17.9 43.2.6 43.5zm-.6-42.9c-14.8 2.1-17.3 42.6.6 41.8s16.4-41.4-.6-41.8z"/><path d="M144.9 281.9c-31.4.4-64.6-23.9-47.7-54.4C85 215.3 60.6 172 66.1 150.9l2 2.8c-6.2 20.3 21.2 64.7 30.4 73.8-21.4 37.9 33.8 60.7 63.2 50.2 16.3-3.2 38.4-20.8 46.8-31.4 15.8 6.3 43.6-17.2 35-36.1-7.7-9.8-24.9-6.1-32.4 5.1-3.7 5-5.6 10.3-4 14.8.2.5-.2.8-.4.2a15.5 15.5 0 012.4-15.2c8.1-11.6 27.1-16.4 35.3-5.5 9.7 18.9-18.1 45.3-35.5 38.5-13.9 16.8-40.2 34.2-64 33.8zM140.1 429.3c-6.4-.2-16.8-2-20.1-6.8-.8-8.5.4-21.5.8-30.1h1.1c-.4 6.3-1.5 26-.8 29.6 3 5.1 20.9 6.8 24.8 5.7v1.1a33.1 33.1 0 01-5.9.4z"/><path d="M161.3 292.8c-8.6.1-12.1-8.1-11.9-12.3h1.2c2.4 20.6 26.8 9.1 26.4-7.7h1.1c-.9 10.1-5.7 18.1-16.8 20zM204.5 266.1a31.9 31.9 0 00-15.3-.3l-.3-1.1c4.3-1.1 10.2-.6 15.7 1 .8.3.7.7-.1.4z"/><path d="M162.4 295c-7.3.8-13.7-6-13-11.1h.6c-.6 5.6 6 11.6 13.7 10.5 9.3-1.2 15.4-14 15.2-21.2h.5c.3 7.8-6.6 21.8-17 21.8zM204.8 432.8l-.5-.2c2.3-5.3.8-9.4 1.1-15.6h.6c-.3 6.2 1.2 10.4-1.2 15.8zM125.8 359.8c-.5-21.1-.1-66.4 20-79.6l.5 1c-19.5 13-19.9 57.9-19.4 78.5zM188.9 265.8l-.8-.6a52 52 0 0122.9-6.5c.2.5-.3.9-2.9 1.3-5.9.3-14.8 3.1-19.2 5.8zM207.5 257.3a40.1 40.1 0 00-5.5-2.8l.4-1.1c3.1 1.2 5.9 4.3 5.1 3.9z"/><path d="M207.9 259.9c-1.4-1.8-6.5-3.2-8-3.7l.4-1.1c2 .7 6.7 2.5 8.3 4.4z"/><path d="M210.1 275.4l-1-.6c6.4-13.7 13.8-17.4-5.8-21.8l.3-1.1c18.3 4.1 15 7.8 6.5 23.5zM142.2 184.4c-18.5.4-30.6-4.9-43.9-20.4a52.2 52.2 0 01-12.7-22.7c-.2-1 .4-1 .6 0a58.2 58.2 0 0065.3 40.7c-22.3-11.8-24.7-54.5-14.1-71.9 3.8-7 3.6-4.7 1 .5-10.1 20.2-8.1 58.5 17.2 72-4.1.8-9.1 1.8-13.4 1.8z"/><path d="M171.6 151.8c-19-12.2-27-21.3-28.2-33.9a56.7 56.7 0 00-4.7 23.6 37.5 37.5 0 01-3.8-24.7l1 .3a39.2 39.2 0 001.7 19.5 60.9 60.9 0 016.3-22.4c1.7 14.3 5 20.2 24.2 33.5a35.9 35.9 0 01-.7-24.1 39.5 39.5 0 004.7 19.8c1-5.6 5.2-25.5 13.7-31.9s.8.8.8.8c-10.8 10.8-13.5 34.4-13.9 35.9a62.3 62.3 0 01-5.8-15.7 39 39 0 004.7 19.3z"/><path d="M198.5 237.1c8.8-11.9-10.1-27.7-12.4-41 .5 5.3 2.1 15.2 2.1 15.2-11.5-22-21.4-64.2-6.2-95.1l1.6-.3c-11 19.7-10.4 61.4 2.3 86.5a33.3 33.3 0 01-.4-15c.3 17.7 18.8 32.6 16.3 44.8a33.2 33.2 0 004.3-6l.3 2.1c-3.9 6.3-5 5.6-7.9 8.8zM145.1 239.6c1.3-13.7-27.4-14.9-27.3-1.2 0 .5-.1 2.6-.3 0-.2-19.9 34.5-9.7 27.6 1.2z"/><path d="M111.6 231.1c-17.6.8-20.1-36.7-5.1-39.4 12.6 0 20.1 37.9 5.1 39.4zm-5.1-38.8c-14 2.9-10.9 38.5 5.1 37.7 13.3-1.7 6-37.5-5.1-37.7zM115.7 183c-30-1.5-56.2-27-57.5-55.3-.1-1.2.3-1.2.4 0a75 75 0 0011.8 29.4c5.6 11.8 41.5 29.3 52.3 22.8l1.6 1.3a20.8 20.8 0 01-8.6 1.8zM67.8 170.4c-4.8-1.2-10.7-20.1-7.2-12.7.8 2.1 3.5 8.6 7.5 10.9zM70.9 182.6c-12.4-6.6-22.7-29.2-24.1-47.5 0 0 1.2 10.4 10.3 29 4.8 9.6 11 15.3 13.8 16.4z"/><path d="M245.8 218.8l-.6-2.1c35.1-42.6 67.3-120.4 17.6-158.6 3.3 1 4 .6 9.7 4.2-8.7-10.2-27.7-19.3-40.8-17.8a52.8 52.8 0 0122.7-2.9c-9.1-2.5-26.2-7.2-32.2-5.7-2.2-5.4-12.7-14-18.9-18.9a31 31 0 015.9 11.6 116.7 116.7 0 00-44.8-19l10.2 5.6C97.9-.2 41.9 58 30.4 127.4c2.5-5.3 6.2-13 11-14.2-3.2 6.2-3.9 44.2 3.9 53.8.3-4.9 1.2-18.7 2.9-22l1 .5c-2.1 4.5-2.8 24.1-2.9 24.7-9.2-8-10-44.8-6.6-55-7 6.5-9.5 16.1-11.5 20.3C35 67.2 91.2-1.4 169.8 13.8c-10-5.4-7-3.8-12.3-5.9 6.4.7 19.4-.4 49.7 18.1-2.3-6.2-8.2-12.2-8.2-12.3l.7-.8c.8.6 19.4 14.2 23.2 21.7 8.4-1.3 36 7.1 37.2 7.5l-.2 1.1c-.2 0-11.8-1.4-20.8.3 13.3 1.4 34 12.8 38.4 25a28.7 28.7 0 00-10.2-7.8c45.9 42.2 12.1 115.2-21.5 158.1z"/><path d="M81.8 183.1c-7.9-1-.8-8.6 3-12.2l.7.8c-3.2 2.9-10.3 11.2-2.5 10 2.2-1.3 5.7-5.5 8.2-7.5l.7.9c-3.3 2.3-6.4 7.7-10.1 8zM168.2 170.5c-6-1.7-11.4-6.7-18.3-6.9-3.3-.4-6.1-.8-6.2-2.9 3.4-10.4 23-2.6 25 3.4 1.6 2.5 2.3 6-.5 6.4zM153 156.8c-6.9-.2-12.3 5.3-2.9 5.7 6.9-.4 12.9 6.3 18.6 6.5.7-5.9-7.4-12.1-15.7-12.2zM216 238.8c2.2-4.6-1.8-6.8-2.2-7.2 1.9-5.6 12.1-19.9 21.3-16.6 2.4.9.3.4-.1.3a9.1 9.1 0 00-5.9.9 30.2 30.2 0 00-13.2 15c5.4 4.5-2.3 11.1.1 7.6z"/><path d="M226.8 225.8a20 20 0 002.7-10.6h1.1c1.2 1.9-4.8 14.2-3.8 10.6zM154.4 255.7l-.8-.9c1.9-1.5 5.2-6.4 6.4-7a31 31 0 01-5.6 7.9zM123.1 260.4c-8.4-4.8-8.6-6.4.5-1zM162 247.4c-.6-.9-2.1-1-3.3-.5l-.5-1c1.5-.8 4.3-.6 4.9 1.2zM153.2 483.1c-17.6.5-15.9-11.8-20.3-26.2a259 259 0 01-5.8-30.5h1.2c.5 9.9 7.1 36.1 10.1 46.9 1.4 9.1 13.2 9.1 19.4 8.4l.2 1.1a36.4 36.4 0 01-4.8.3zM176.8 489.4c-18.8.3-17.7-8.8-19.1-25.4l-2.4-28.9h1.1l2.4 28.8c2.5 13.5-1.8 18.5 8.6 23.2a43 43 0 0020.5 0c10.1-2.7 9.4-10.3 11.5-19.1s5.8-23.4 6.6-36.1h1.1c-.8 12.8-5 27.8-6.6 36.3-1.6 15.4-7.3 21.9-23.7 21.2z"/><path d="M125.1 260.1a10.2 10.2 0 01-4.3-.9l-.2-1.4c4.9 3.1 10.4-1.2 16.2-1.6s14 1.7 18.6-3.2l-.2 1.8c-4.5 4.5-12.4 2.8-18.3 2.5s-7.3 2.9-11.8 2.8z"/><path d="M137.8 269.6c-8.1-.7-13.2-7.6-18.5-11.4v-1.1c6.3 4.4 16.7 16.3 25.5 9.2 4.5-4.5 7.5-10.3 12.4-15.4l1.3-.4c-7.4 7.1-9.3 18.7-20.7 19.1zM137.9 274.3a8.6 8.6 0 01-3.8-1.3c-1.4-1 .6-.2.8-.2 3.1.7 6.7.3 8.8-1s-3.6 3.2-5.8 2.5z"/><path d="M134.4 260a3.4 3.4 0 01-3.1-1.7l1.1-.5a2.3 2.3 0 003.9.1c1.3 1 3.9 1.3 4.5-.8l1.1.4a3.7 3.7 0 01-5.4 1.8 3.1 3.1 0 01-2.1.7zM144.4 267.3c-2.2-1.9-4.6-3.1-6.4-.8s.6-6.4 7.2 0z"/><path d="M132.3 267.5l-.9-.7c2.8-3.6 5.8-3.2 7.8-2.2l-.5 1c-2.4-1.1-4.6-.5-6.4 1.9zM133.3 370.7c-.6 10.3-5.3 19.2-3.1 28.1-3 1.2-9.4-5.3-10.9-7.6-3.9-4.5 2.4-15.1 2.5-18.9l.8 1.2c-2.6 11.9-8.5 16.2 6.3 24.4-1.5-3.1.3-10.2 1-13.7 2.3-14.4 8.4-40.6 10-53.2s2.4-37.9 9.9-48.2l.9.6c-7.3 10.3-8 33.9-9.6 47.7-.8 7.7-5.7 29.4-7.8 39.6zM178 283.3l-1-.4c1.6-3.6 3.9-9.1 7.8-11.3-4 3.4-5 8-6.8 11.7zM226.6 306.2c-1.9-7-8.5-20.2-12.2-26s-18.6-13.9-25.6-14.4v-1.1c7.2.4 21.4 8.9 26.5 14.9s10.8 20 11.7 28.3l-.4-1.7z"/><path d="M223.3 387.5c-5.3.5-12.2-2.8-12.6-6.9s-2.8-6.2-2.7-9.2c1.7 2.7 2.8 6.7 4.1 9.6 7.6 14.1 34.3-1.4 34.8-13.2s-8.1-22.6-10.5-33.1c-4-14.1-9.2-36.3-18.9-49.2l1-.5c9.7 12.9 15 35.2 19 49.4 2.4 10.7 11 22.4 10.5 33.7-.4 8-14.8 20.3-24.7 19.4z"/><path d="M213.2 378.3c-12.9-10-15.1-31.4-22.6-45.5-3.3-7.1-8.3-16.8-10.7-24.1-.1-.2-.7-1.4.4-.2 6.6 13.8 13.5 26.5 18 41.3a92.3 92.3 0 0014.9 28.5z"/><path d="M181.7 313.5a9.4 9.4 0 00-3.6-3.8c.5-1 4.4 2.3 4.6 3.4z"/><path d="M173.9 314.8c2-1.7 7.6-3.1 9.2-.8l-1 .5c-1.4-1.1-6.8-.4-8.1.6s-.4 0-.1-.3zM177.8 340.2c-.4-6 2.7-16.4 3.8-22.9 0-.3.5-2.8.4-.1.2 6.1-4.2 19.8-4.2 23zM189.6 352.1a48.5 48.5 0 01-5.8-20.8c1.2 5 3.6 15.7 5.9 20.4.2.3 1.5 3.3-.1.4z"/><path d="M183.7 317.4c-4.8-13.2 3.5-49.5 23.5-44.3l-.3.5c-19.4-5.1-27.3 32-22.7 43.6zM213.9 420.4c-8.6 1-14.6-9.3-6.4-13.6 11.1-4.6 13.4-8.1 11.5-20.1l1.1-.2c3.9 23.7-12 15-15.2 25.6-.8 8.3 14.4 11.2 20.6-.3l1 .5c-3.6 6.5-8.6 8.1-12.6 8.1z"/><path d="M240.1 439.3c-12.4.6-16.2-20.2-14.7-29.3 0-4.4 1.2-.3 1.2 0-.1 3.4-.1 10.4 1.6 15.7 4.3 18.4 23.6 12.6 19.6 4-2.7-3.8-9.3-18.9-10.3-23.6-.3-.9 0-1.1.4 0 1.8 5.4 8.7 19.6 11.5 24.1s-4.2 9.8-9.3 9.1z"/><path d="M251 439.4a8 8 0 01-5.4-1.8l1-1.4c3.8 4.2 15-.6 12.3-6.3-4.4-7-10-15.9-13.7-24-.3-.8 0-1 .4-.1 3.3 6.5 8.2 13.7 11.6 19.2 6 6.1 2.5 14.1-6.2 14.4z"/><path d="M260 434.1h-.5l.2-1.6c14.6-3.2 3.1-12.8-1.5-19.8-1-1.7-7.6-11.2-5.7-9.8 3.9 5.6 10.1 13.8 14.2 19.4s-1.1 11.9-6.7 11.8z"/><path d="M267 424.1l-.5-1.4c4.6-1.7 4.6-4.3 1.3-8.3a113.8 113.8 0 01-8.6-14.7c-3.8-9.5-12-15.2-17.3-21.9l.9-.7c4.9 6 14.5 14 17.4 22.1a118.5 118.5 0 007.7 13.4c3.9 4.4 5.1 9.4-.9 11.5zM211.9 412.4c-1-1-5.5-2.5-7-2l-.2-.5c1.5-.6 5.9.8 7.2 1.8 2.1-2.5.1-5.6-3.5-4.4v-.5c5.3-1.4 6.1 3.2 3.5 5.6zM240.7 432.9c-1.3-.2-1-2.4-.7-4s5.8-4.5 7.3-1.8l-.5.3c-3.2-3.9-8.1 1.8-6.2 4.9 1.6-.8 6.5-2.3 8.9-.7l-.3.5c-2.3-1.4-6.9 0-8.5.8zM252.9 431.1c-1.9-1.5 0-8.1 4.5-5.2l-.3.5c-3.3-2.5-4.9 2.4-4.2 4.1 1.3-1 5.7-1.2 7.1 0l-.3.5c-1.5-1.2-5.6-.8-6.8.1z"/><path d="M260.8 427.3c-3.1-2.3 1.8-9.8 5.4-5.3l-.5.3c-2.8-3.3-6.6 1.7-4.8 4.4 1.1-1.2 4.4-1.5 6.6-.8v.5a8.2 8.2 0 00-6.6.9zM266.1 419.3c-1.7-1.1-1.4-6.2 2.7-4.8v.5c-3.1-1.1-3.4 2.2-2.6 3.7a6.2 6.2 0 014.8-.3l-.2.5a6.1 6.1 0 00-4.7.4zM128.4 319.8c-21.3-10.3-21.2-11.6-37-23.1-12.4-8.9-23.4-18-30.8-26.6-1.8-2.2-5.6-2-6.2-5.5s1.3-4.5 1.4-4.6l.5 1.1c-3.3 4.9 2.4 5.5 5.2 8.4s9.6 9.9 14.5 14c18.1 12.9 29.2 23.5 52.9 34.5zM22.8 219.7c1.5-5.5 12.4-13.8 16.3-16s-4.7 4.2-9 8.4-7.9 10.2-7.3 7.6zM66.4 237.2c5.1-11.4-1-24.9 2.6-36.9 9.2-18.8-8.6-20.4-13.5-3.4-1.4 4.5-1.7 14.9-1.8 17.7s-.8 4.1-1.1.1.4-13.5 1.8-18.1c5-18.4 25.6-16.2 15.7 4.1-3.6 12.1 3.9 25.7-3 36.7-.4.9-1 .5-.7-.2z"/><path d="M50.8 215.6c-3.3 3.5.6-5 2-4.6l.5 1c-.7.3-1.1 2-2.5 3.6zM51.9 245.7c-6.2-2.7-5.6-18.9-4.1-12.4.3 10 8.4 13.6 4.1 12.4z"/><path d="M52.2 212.2c-3.1-9.6-11.1-28.8-18.5-36.5-6.6-9.5-15-4.2-11 7.9 2 7.2 8.5 15 12.2 18.3.3.3.3.9-.1.5-25-18.2-12.7-55.1 8.7-13.9 3.6 7.2 7.5 17 10 22.3z"/><path d="M24.4 208.9a61.6 61.6 0 01-15.5-21.4c-3.3-8.8 6.1-16.6 12.9-10.4l-.7.8c-5.7-5.3-14.1 1.2-11.1 9.3a75.4 75.4 0 0014.7 21.2c2.2 2.2.4 1.1-.3.5z"/><path d="M20.1 215.4c-13.7-7.8-24.3-23-9.9-26.5v1.1c-13.1 3.3-1.6 16.8 9.8 24.8 2.1 1.2.6.8.1.6z"/><path d="M61.1 262.6c-4.2.4-8.1-4.8-12.2-7.4-15.1-1.8-18-4.7-23.7-18.4-1.7-3.6-3.6-7.7-4.3-8.9-5.6-6.4-30.2-19-15.8-27.9l.5 1c-13 8.6 11.6 20 16.3 26.3s5.6 20.3 17 24.8a15.8 15.8 0 006.9 1.3c4.4-.8 9.8 6.7 13 7.8 9.4 2.8 18.9-10.9 16.7-18.9-1.6-2.2-6.9-6.6-7.8-8.9l1.1-.4c.6 2 6.7 7 7.8 8.9 2.4 5.9-5.5 21.8-15.5 20.7z"/><path d="M97 259.6c-3.4-3.3-18.1-15-18.3-16.5a4 4 0 00-4.4-2.5v-1.2a5.4 5.4 0 015.5 3.2c1.4 2.5 14.7 12.8 18.1 16.2z"/><path d="M59.1 267.6l-2.3-.2v-.6c11.9 3.1 26-13.7 21.6-24.7l.5-.3c4.5 9.2-7.7 27.3-19.9 25.8zM129.1 316.1c-4.2-.5-8.2-4.2-10.1-6.2s-.7-1 0-.3 6.5 4.5 10.3 4.9zM123.8 299.9c-7.3 0-22.2-3.4-25.2-6.7 5.9 3 22.9 6.3 30 5.8s-3.8 1.1-4.8.9zM221.3 384.9c-5.8 0-9.6-2.8-10.3-4.4l.5-.2c8 12.2 38-5.5 34.6-20.5l.6-.2c2.3 12.1-14.3 25.2-25.4 25.3zM135.4 459.4a3.2 3.2 0 01-2.2-1.9l.8-.4c-.1.9 3.6 3 1.4 2.3zM177.5 463.1a15.2 15.2 0 01-6.4-2.7c-1.5-1.1-1.3-1.3.2-.5s4.7 2.2 6.4 2.9 1.1.5-.2.3zM184.3 463.5c-3.5 1.3 5-4 5.2-5s1-1 .1.5-3.3 4.1-5.3 4.5zM160.4 487c-3.5-2.7-4.8-5.4-.6-7.3l.3 1.1c-3.2 1.3-1.3 3.6.5 6.1.3.3 0 .3-.2.1zM196.8 484.8c-3.3 2.3 3.8-3 .2-4.7l.6-1c2.7 1.6 1.3 4-.8 5.7z"/><path d="M191 494.7l-1.1-.3c.5-6.6 3.3-6.2 7.7-8.8.4-1.1.8-2.7.4-3.3l.9-.6c.9 1.4.1 3.7-.1 4.4s-4.2 2.5-5.9 3.3-1.4 3.4-1.9 5.3z"/><path d="M198 496l-1-.5c1.7-4.8 3.6-8.9 1.1-9.6l.4-1.1c3.7 1.4 1.5 5.3-.5 11.2zM137.6 479.8c-.6-1.3-.6-4 1.3-3.8l-.2 1.1c-.5.3-.4 1.5-.1 2.2zM178.3 496c-1.5-4.5-7.7-2.4-12.3-4.2-7.9-2.5-9.4-3.7-8-8.1l.8.7c-.6 3.6 1 4.2 7.4 6.3 4.8 1.7 12.1-.1 13.2 5.1z"/><path d="M187.7 538.2c-14.3 0-20.1-6.8-27.6-17.2-4.3-6.7-3.9-5.1-2.9-10.2 4.9-11.4-5-23.7.8-25.3l.3 1.1c-3.7 1.6 2.6 10.3 1.4 16.4.1 9.1-5.2 8.8 1.3 17.4 6.1 7 7.6 12.2 17 15.1 7.8 3.9 35.3.5 34.1-14.8 3.2-23.4-25.5-19.8-35.9-9.1 4.9-9.4 23.3-13.3 32.4-6.2 6.2 5.4 4.5 15.1 4.6 16.1 1.1 9.7-14.7 17.3-25.5 16.7z"/><path d="M158.8 534.6c-4.5-1.3-4.1-7.1-4.4-12.2s-1.8-8.4 2.7-9.2v1.2c-3.3.4-1.4 3.5-1.7 7.9s-.6 7.1 2.8 11.1a4.8 4.8 0 002-.1l.2 1.1-1.7.2z"/><path d="M165 543.4c-3.3-1.3-3.8-8.3-6.2-11.1-1.2 2.7-1.3-4.5-.9-3.7a15 15 0 011.1 1.7c1.1 1.1 4.4 9.7 5.6 11.7.3.4.3.4 1.9.1l.2 1.1-1.7.2zM185.4 540.6c-6.9.6-17.1-2.9-20-9.5a71.5 71.5 0 01-8.7-14.4c9.6 16.1 15 26 36.7 22.4 7.6-.9 16.1-4 19-9.7-1.3 6.5-18.1 11.9-27 11.2z"/><path d="M169.9 547c-3.7-1-3.5-2.2-3.4-5.6l-1.1-1a6.6 6.6 0 01-.3 1.3c-.2.9-1.5-4-.8-3.7a26 26 0 013.3 2.9 23.6 23.6 0 010 3.8 4.3 4.3 0 004.6.7l.2 1.1a12.3 12.3 0 01-2.5.5z"/><path d="M188.5 549.7a129.2 129.2 0 01-14.8-1c-2.4.1-1.9-2-1.9-3.6l-1.4-.7c-1-.5 0 2.4-1.2.6-1.7-4.5 2.5-.8 3.7-.7v3.1c10 1.8 37.3 3 41.6-10.4.3-3.4 1.6-10.7-2.6-11.9l.4-1c4.8 1 3.8 9.3 3.3 13.2-1.7 9.1-18.5 12.2-27.1 12.4zM166.9 510.5c-10.7-.1-6.8-9.9 0-12.8 4.8-2.1 21.9-6.4 17.9 4l-.5-.6c-5.3 1.4-10.1 9.5-17.4 9.4zm11.8-14.2c-23.7.1-21.6 22.7-1 7.5 1.7-1.6 5.2-3.7 6.5-3.8 1.3-4.2-2.7-3.4-5.5-3.7z"/><path d="M165.2 507c-3.8-2.1-.4-5.8 3-7.5s14.6-2.7 17-1.5l-.5 1c-2.8-1.6-23.1-.3-19.5 8z"/><path d="M167.8 507c-2.6-.1-4.1-1.2-4-3.3l1.1.2c4 6.8 13.2-5.3 19.1-6.2l.3 1.1c-6.5 1.8-9.8 8-16.5 8.2z"/><path d="M184.7 501.9a2.6 2.6 0 01-1.8-.7l.8-.8c4.7 2.3 3.4-8.4-.8-4l-.9-.7c5-4.8 8.8 5.5 2.7 6.2z"/><path d="M187.6 501.4a2.8 2.8 0 01-1.4-.4l.5-1-.2.5.2-.5c3.8 1.4 3-6.7-.9-4.3l-.6-.9c4.6-3.2 7.6 6 2.4 6.6zM173.4 505.2l-1.1-.4c.8-2.3 3.8-6.9 7.6-7.5l.2 1.1c-3 .5-5.9 4.3-6.7 6.8zM172.9 518.2h-1.3c-2.4-1.7-1.1-6-.4-10l1.1.3c-.6 3.5-1.5 6.9-.3 8.5 2.9.8 1.5-7.1 2.6-10.6h1.1c-1.2 4.6.6 10.7-2.8 11.8z"/><path d="M173.2 525.1c-2.4.2-1.6-6.9-2.1-7.6h1.1c.3.2.2 6.3 1.1 6.6s-.7-6.7-.4-6.7l1.1-.2c-.4.9 2.3 8-.8 8zM178.2 507.7c-1.2-.3-1.9-1.7-.7-3.7l.9.6a1.5 1.5 0 00-.1 1.9c2.2-.8 4-1.9 7-2.5l.3 1.1c-3.1.5-5.2 2.1-7.4 2.6zM194.3 503.1a25.1 25.1 0 00-5.6-2.2v-1.1a24 24 0 016 2.3zM202 501.9c-1.3-4.7-9-2.1-12.5-2.1v-1.1c3.4-.6 15.1-2 12.4 3.2z"/><path d="M204.6 503.5l-1.6-.4c3.6-6-14.4-8.4-14.6-7.4l-.2-1.1c1.2-1.3 20.1 2.1 16.4 8.9zM200 503.1l-.3-1.1a1.4 1.4 0 00.8-2.2l.7-.9c1.4 1.1.5 3.8-1.2 4.2zM198.2 502.7c-.9-.8-4-3.1-6.8-3.3l.9-.8a18.6 18.6 0 016.6 3.3z"/><path d="M197.1 501H196a9.2 9.2 0 01.4-2.6l1.1.3a12.4 12.4 0 00-.4 2.3zM180.4 503.1l-.6-1a16.1 16.1 0 014.7-1.3l.2 1.1a21.1 21.1 0 00-4.3 1.2zM195.5 518.2c2-1.7 7.2-3.2 10.3-1.7.9.3.3.2 0 .1a15.5 15.5 0 00-4.8-.1 17.4 17.4 0 00-5.2 1.7c-.5.3-.8.4-.3 0zM177.4 493.3l-1.1-.3c1.6-2.2 11.1-5.4 15.7-3.8l-.7.9c-1.1-1.5-14.6 2.5-13.9 3.2zM192 495.1h-.6c.9-3.8.5-4.4 3.2-5.6a22.5 22.5 0 003.4-2c.2-.1.9-.7.2 0-3.3 3.5-5.6 1.8-6.2 7.7z"/><path d="M178.1 494.3l-.3-.5c1.7-1.3 9.9-4.1 13.5-3.3v.5c-3.5-.7-11.5 2-13.2 3.3zM176.9 495.8c-.1-1.6-6.3-1.7-8.9-2.4-5.1-.7-10.3-3.6-9.5-3.7 2 2.9 17.6 3.1 18.9 6zM121.8 534.8c-7.6-.6-20.5-2.7-20.6-11.7.1-6.4-1.7-9.2 3.4-10.2v1.1c-4 .7-2.2 4.4-2.3 9 0 9.4 17.7 11.5 24.4 10.2a12.3 12.3 0 01.1-2.5l4.4-1.2c.8-.2.7 1.6.7 2.2s-.2.5-.3.1c.1-2.2-2.9-.1-3.8-.2s0 1.7.1 2.5a28.6 28.6 0 01-6.2.7z"/><path d="M132.3 533.8c-1.3.1-4.2-2-4.7-2.3l.6-.9c3.2 2.5 5.4 2.3 9.2 1.1a6.8 6.8 0 00-.4-2.6 43.2 43.2 0 005.3-1.5c1.5-1.1 1 1.1.6 2s-.5.2-.4 0c.8-1.8-3.4.4-4.1.3 1.2 3.8-3.1 3.3-6.1 3.9z"/><path d="M142.5 531.2c-1 0-2.6-1-3.9-1.5l.5-1c5.2 4.1 11.4-3.4 16-5.3l.4 1c-3.5 1.7-8.7 6.5-13 6.8zM143.5 505.3a8.9 8.9 0 00-2.5-2.7l.4-1.2c1.4.4 4.8 8.5 2.1 3.9z"/><path d="M121.5 523.8c-34.2-1.5-13.5-37.7 18.1-23.5l-.6 1c-36.3-15.4-50.4 30.9-6.7 19.1 5.9-1.2 17.5-4.9 22.6-5v1.1c-8.1.4-23.9 6.5-33.3 7.3zM147.5 503c-5.8.3-7.5-6.4-9.2-10.9s-.7-5.1 2.2-5.3c10.1-1.1 17 15.4 7 16.2zm-7.2-15.1c-3.2.2-.6 4-.1 6s2.6 7.3 5.8 7.8c10.8 1.4 2.9-15.5-5.7-13.8z"/><path d="M147.1 501.3c-.5.1-3.2-1.9-1.4-1 4.1 1.1 2.8-3.5 1-6.3s-6.1-3.7-8.5-5.7l.9-.7c2.7 1.7 6.1 1.9 8.6 5.8 1.5 2.2 3.6 8.2-.6 7.9z"/><path d="M148.2 500.8c-4.6.2-8.3-9.5-8.5-11.9h1.1c0 1.8 4.2 11.7 7.8 10.7l.2 1.1z"/><path d="M138.6 492.5c-5.6-.9-1.4-10.4 3.3-5.5l-.8.8c-3.4-3.6-6.2 3-2.3 3.5v1.2z"/><path d="M136.8 492.2c-4.7-.4-2.4-10 2.2-6.5l-.7.9c-3.3-2.6-4.2 5.1-1 4.4l.3 1.1z"/><path d="M127.1 498.2c-3.3-4.4 3.2-14.1 8.6-12.6l-.3 1.1c-4.4-1.3-10.1 7.3-7.3 10.9z"/><path d="M130 498.5c-2.1-3.8.7-10.3 4.7-11.1l.2 1.1a7.2 7.2 0 00-3.9 9.5z"/><path d="M140 496.2c-3.1-1.3-8.9-1.5-5-5.8l.7.8c-2.9 3.3 2.7 2.5 4.8 4z"/><path d="M139.6 498.3a29.8 29.8 0 00-6.7-1.5c-.5-1.2.6-2.8 1.6-3.3l.6.9a2.5 2.5 0 00-1.1 1.4 38.3 38.3 0 016 1.4z"/><path d="M131.8 498.7a2.5 2.5 0 011.4-3l.3 1.1c-.3.1-.8.6-.6 1.6z"/><path d="M132 497.1c-.8-3.7 1-7.7 2.6-8.4l.4 1c-1 .5-2.6 4-1.9 7.2zM143.5 496.1l-1.1-.4a7.5 7.5 0 000-5.5l1-.4c1 1.9.7 4.6.1 6.3zM140 512.9c-4.7-2-1.5-13.1-.2-17.1l1.1.2c-.6 2.7-1.7 4.6-2 7.9s-.6 9.5 2.2 7.3c-.8-3.5-.7-9 .5-11.8l1.1.4a18.4 18.4 0 00-.6 10c.6 2.1-.5 2.8-2.1 3.1z"/><path d="M144 518.7c-1.6 0-3.7-5.9-4.3-6.3l1-.5c.3.1 2.7 5.7 3.5 5.6s-3.2-5.9-3-6l1-.6c0 1.1 5.9 7.4 1.8 7.8zM143.8 487.6h-1.2c-.4-9.2 9.4.3 15.4-4.3l.5 1c-7.2 4.7-15.4-4.1-14.7 3.3z"/><path d="M137.3 485.8c-1-5.1-1.3-9.7 4.9-4.9 1.4.8 3.5 1.1 3.6 2.9h-1.1c-.3-1.2-4.5-2.3-5.1-3.3-3-2.1-1.4 2.7-1.2 5.1zM152.4 487.3a12.2 12.2 0 01-7.1-2.1c1.1.6 5.7 2.6 12.2.9v.5a20.2 20.2 0 01-5.2.7z"/><path d="M142.5 483.6c-.7-.5-4.4-3-4.6-2s-.3.3-.4-.3h-.5c.5-1.9 5.4 1.6 5.5 2.4zM120.7 525.6c-7.7 1.1-17-5-17.3-9.2-.5-1.5.2-.3.3-.1 11.9 18.1 33.9 2.6 51 1v.6c-16.8 2.1-18 6.6-34.1 7.7zM117 507.8a18 18 0 00-6.8-2.5c-.3 0-.8-.2 0-.2 2.3-.4 5.6 1.2 7.1 2.6s.1.3-.3.1zM137.9 459.6c-2.1.3 2.1-2 2.3-2.7s-1.1 2.9-2.3 2.7zM140.1 429.5c-6.4-.2-16.8-2-20.1-6.8-.8-8.4.4-21.5.8-30.1l1.1.2a281 281 0 00-.8 29.5c3 5.2 20.9 6.9 24.8 5.8v1.1c-.2 0-2.7.3-5.9.3z"/><path d="M222.7 416.6c-2.2 21.4-50.1 24.4-68.8 18.9-6.3-1.7-7.8-3-8.4-3.8-.7-5.7.3-20.8-.3-25.6h1.3c.3 4.8-.4 18.8 0 24.9.6 1 3.2 2.1 7.7 3.3 17.3 5.4 64.2 2.3 67.3-17.1z"/><path d="M146.3 406.7c-5.8.8-1.3-14.3-2.1-18.3h1.2c.7 3.9-3.5 17.5 1.5 17.5 1.4.3 1.6.6-.6.8z"/><path d="M157.6 390.4c-8.3-1-19.7-1.6-27.8-4l.4-1c7.9 2.2 20.7 3.4 28.6 3.8v1.1zM158.9 387.8c-1.3-.4-26.9-2.4-28.4-4l.2-.5c1.4 1.8 27 3.7 28.3 3.9zM146.9 404.3a48.6 48.6 0 00.3-13.3c1.3 2.6 1.4 11-.1 13.4-.2.7-.2.3-.2-.1zM210.4 378.6c-14.1 8.3-34.2 10-46.7 20.1 11.1-10.8 32.8-11.8 46.6-20.4zM141.9 426c-6.2.4-19.7-3.6-21.8-7.3l.4-.4c4.2 5.6 18.6 8.5 25.4 6.7v.6a17.3 17.3 0 01-4.1.4zM220.8 418.1c-18.6 17-54.1 18.6-75 8.5l.3-.4c20.7 10.4 55.1 8.2 73.7-7.9z"/><path d="M206 417.5c-.3 6.2 1.1 10.2-1.2 15.6l-.5-.3c2.3-5.3.8-9.7 1.1-15.9zM206.4 408.1c.6-6.8 1.5-18 .2-23.7l-.6.2c1.4 5.6.4 16.9-.2 23.7z"/><path d="M207 396.1c-8.5 0-15.4-1.7-18.6-4.4l.4-.4c3.1 2.6 9.9 4.2 18.2 4.3z"/><path d="M207 394.2c-3.2 0-11.2-.3-15.6-3.3l.7-.9a28 28 0 0014.9 3.1zM141.1 405.7c-3.2-.7-8.4-.3-9.9-.2s-1.7 0-.2-.4a18.7 18.7 0 0111.6.5c1.4.6 1.6.8-1.5.1zM160.6 406.6a37.3 37.3 0 00-9.9-.2c-1.6.1-1.7 0-.2-.4s8.2-1.6 13.2.7c1.3.6 0 .5-3.1-.1zM135 410.3c-5.8 1.3 6.9-3.6 7.2-2.8s1.6.2-.1.6-4.4 1.5-7.1 2.2zM154.3 409.7c3.8 1.6-5.8-.5-5.6-1.2-1.9-1.5 4.2.8 5.6 1.2zM123.2 379.7c-7.1-14.5 9.5-27.5 4.8-21.1s-6.4 13.3-4.3 21.7c.5 2.3 0 1-.5-.6zM170.1 389.2c-1.7.4-6.7-1.8-4.1-1.4 4.4 1.1 10.8.5 15.6-1.5-2.1 2.2-8.6 2.9-11.5 2.9zM199.9 339.9c3-2.9 7.3-10.7 8.6-14.5.1-.2.6-1 .3 0-.7 4.3-4.7 12.6-8.8 14.7-1.3 1-.3 0-.1-.2zM211.2 352.1c-2 6.2 2.2-21.1 1.8-13.7.1 3.8-.4 10-1.8 13.7zM201.7 359.8a46.4 46.4 0 01-3.5 7.7c-.3.6-.1.5.2.1a66.7 66.7 0 003.8-7.1zM131.7 354.1c-3.7 1.9 3.2-3.4 4.4-3.5 3.5-1.6-3.6 2.9-4.4 3.5zM123 388.1a17.4 17.4 0 01-1.7-6.7c.1-2.2.2-.9.5.4s2.9 9.7 1.2 6.3zM126.1 378.8a31.2 31.2 0 001.6-8.7c0-.3 0-2.6.5-.3a16.6 16.6 0 01-1.8 9.4c-.8 1.2-.5.2-.3-.4zM168 364.7c-.7.9-1.2 1.9-.7.4a9.2 9.2 0 014-4.7c1.7-.8 2.1-.7 1.2-.2a38 38 0 00-4.5 4.5zM165.1 393.4c-1.6 4-.9-2.6 2.6-2.7s-2.8 1.4-2.6 2.7zM185.3 430.3c-1.6.5-.3-7.5-.6-8.8s7-1.8 8.5-2.2 1.4 10.4.7 9.5a42.5 42.5 0 01-8.6 1.5zm-.3-.5a52.4 52.4 0 008.8-1.4c.4-.8 0-7-.2-8.3s-3.4.3-5.2.3-2.8-.1-3.3 1.3.1 5.7-.1 8.1zM195.9 428.6c-1.1-.3-.2-3.2-.4-4.4s0-3-.1-4.3 6.2-1.7 7.7-2.3.6 2.1 1.1 4.6-.2 4-.5 4.2a76 76 0 01-7.8 2.2zm7.5-10.5c-11 1.5-6.5.1-7.5 9.9a75.6 75.6 0 007.7-2c.3-.8 0-6.4-.2-7.9z"/><path d="M132.8 360.2c7.8-23 2.8-60.5 17.3-78.7l.3.5c-9.4 6.4-11.3 47.3-12.9 57s-5.3 24.3-6.6 33.9-5.2 15.8-2.9 24.9l-.5.2c-1.4-4-.5-8.6.5-12.6 1.9-6.7 2.7-17.9 4.8-25.2z"/><path d="M127 395.4c-4-2.5-7.9-6.7-8.6-8.6l.2-.2c.6 1.6 4.4 5.5 8.4 8.1v.7zM205.2 399.2c-1.5 0-1.5-2.9 0-2.9s1.5 2.9 0 2.9zm0-2.6c-.8-.1-1.1 2 0 2s1.1-2 0-2zM165.8 347.7c.8-10.4.7-28.4 1.8-36.3 1.3-15.9 12.7-28.1 10.8-39.7l1.1-.3c2 12.5-9.4 23.9-10.8 40.2s-.9 43.5-6.4 60.4c-2.5 13.6-5.7 20.8.8 29.3l.5-.5c11.7-8.6 34.8-10.7 47.9-19.6l.5 1.6c-13.5 8.5-35.7 10.4-47.6 18.8-1.6 1.5-2.2.8-3.7-1.5-7.1-14.8 4.2-34.8 5.1-52.2"/><path d="M168.8 341c1.1-11.8-.5-23.9 2.5-35.8 2-7.1 9.8-27.4 7.9-32.9h.5c2 5.7-5.8 25.8-7.9 33.1-2.7 9.8-1.4 24.7-2.4 36 1.2 16.8-12.7 44.1-4.6 59.3l-.5.2c-8.3-14.4 5.9-44.2 4.5-59.8z"/><path d="M199.9 421.3l-.2-2c.6-.2.7.9.1.7M202 424.1c-2.9 5.8-6.7-4.7-1.1-3.1" class="badc8574-cc80-4494-809c-c1738dac3b53"/><path d="M201.4 421.8l.6-.6M201.7 421.5c.6.2 0 .6-.1.7M201.7 422.5l.6-.3M202.3 422.2h.2M201.8 422.8h.6M202.2 422.7a.5.5 0 01.1.3M201.9 423.6c.2-.9.9.3.2.2s-.3-.1-.2-.2zM201.4 421.2c-.1-.9-.8.5-.1.3" class="f620002c-319a-4fc1-a22a-e29bddea05a6"/><path d="M189.5 423.2l-.2-2.1c.7-.2.8 1 .1.8M192.2 426.2c-3.9 6.1-8.6-4.8-1.4-3.3" class="a34bbfad-9caf-47f3-bb93-72345554a491"/><path d="M191.4 423.8l.9-.7M191.9 423.4c.8.2-.1.7-.2.8M191.8 424.5l.8-.3M192.7 424.1h.1M191.9 424.8h.8M192.5 424.7l.2.3M192 425.6c.1-.5.8-.3.6.1s-.7.2-.6-.1zM191.5 423.1c-.2-.9-1.1.5-.1.3" class="acab02c4-c313-4840-81ef-226c35d24df3"/></svg>