<svg xmlns="http://www.w3.org/2000/svg" xmlns:xlink="http://www.w3.org/1999/xlink" id="b615a19a-e680-4ce5-a6de-5c81076d83e8" data-name="Layer 1" viewBox="0 0 290 550"><defs/><defs><linearGradient id="aa3b0640-b132-4539-ab3e-87bfbfeecd4e" x1="173.3" x2="228.8" y1="99.5" y2="84.9" gradientTransform="matrix(1 0 0 -1 0 552)" gradientUnits="userSpaceOnUse"><stop offset=".3" stop-color="#f2b58d"/><stop offset=".6" stop-color="#efb189"/><stop offset=".8" stop-color="#e5a67c"/><stop offset=".8" stop-color="#de9e74"/></linearGradient><linearGradient id="f33565eb-1be0-45c6-863f-104fd0e45919" x1="141.4" x2="177" y1="94.9" y2="98.3" xlink:href="#aa3b0640-b132-4539-ab3e-87bfbfeecd4e"/><linearGradient id="ec810bcd-fa30-4718-ad31-41d3f1900ddc" x1="159.8" x2="161.3" y1="253.5" y2="235.4" xlink:href="#aa3b0640-b132-4539-ab3e-87bfbfeecd4e"/><linearGradient id="bde4435e-1ae2-483e-8399-d06701ee615c" x1="84.7" x2="187.7" y1="297" y2="370.6" xlink:href="#aa3b0640-b132-4539-ab3e-87bfbfeecd4e"/><linearGradient id="a479f3fa-deaa-4f69-988e-1cac48b38dc3" x1="135.3" x2="243.3" y1="140.5" y2="140.5" gradientTransform="matrix(1 0 0 -1 0 552)" gradientUnits="userSpaceOnUse"><stop offset=".3" stop-color="#a2927f"/><stop offset=".5" stop-color="#9b8c79"/><stop offset=".9" stop-color="#897a6a"/></linearGradient><linearGradient id="fa82876a-66ca-41d2-9ccd-4854b1b4a1e7" x1="166.9" x2="192.8" y1="264.8" y2="261.5" gradientTransform="matrix(1 0 0 -1 0 552)" gradientUnits="userSpaceOnUse"><stop offset="0" stop-color="#a91f18"/><stop offset=".1" stop-color="#b01f16"/><stop offset=".2" stop-color="#c21e12"/><stop offset=".3" stop-color="#e01c0b"/><stop offset=".7" stop-color="#e01c0b"/><stop offset="1" stop-color="#a91f18"/></linearGradient><linearGradient id="b7af448a-0f9b-40fa-a427-52b3bb7eb668" x1="187.9" x2="227.7" y1="265.4" y2="245.3" gradientTransform="matrix(1 0 0 -1 0 552)" gradientUnits="userSpaceOnUse"><stop offset="0" stop-color="#bfad95"/><stop offset="1" stop-color="#8e7c68"/></linearGradient><linearGradient id="add293a2-89a0-4dd8-9072-f43a4a6f448c" x1="220.7" x2="198.5" y1="295.5" y2="274.3" gradientTransform="matrix(1 0 0 -1 0 552)" gradientUnits="userSpaceOnUse"><stop offset="0" stop-color="#293b60"/><stop offset="1" stop-color="#19253a"/></linearGradient><linearGradient id="e1a6c302-4236-445e-8682-a49171f08e62" x1="146.9" x2="167.6" y1="238.2" y2="208" xlink:href="#add293a2-89a0-4dd8-9072-f43a4a6f448c"/><linearGradient id="a7e5bd9e-0d33-4959-8f94-a4b789f2f0a2" x1="128.9" x2="156.4" y1="376.3" y2="376.3" gradientTransform="matrix(1 0 0 -1 0 552)" gradientUnits="userSpaceOnUse"><stop offset="0" stop-color="#4f3721"/><stop offset=".5" stop-color="#48321e"/><stop offset="1" stop-color="#3a2819"/></linearGradient><linearGradient id="ea7dc6b9-e9f2-4e57-b9c1-42f17636a44d" x1="74.9" x2="87.6" y1="340.3" y2="340.3" xlink:href="#a7e5bd9e-0d33-4959-8f94-a4b789f2f0a2"/><linearGradient id="bc066dbe-7042-44d5-a19d-3d669344376c" x1="9.7" x2="248.6" y1="464.4" y2="400.7" gradientTransform="matrix(1 0 0 -1 0 552)" gradientUnits="userSpaceOnUse"><stop offset="0" stop-color="#4f3721"/><stop offset=".3" stop-color="#48331d"/><stop offset=".8" stop-color="#362712"/><stop offset="1" stop-color="#291f0a"/></linearGradient><linearGradient id="fadd714e-2662-4278-8da2-6c4455182b6b" x1="147.1" x2="183.4" y1="188.6" y2="181.9" xlink:href="#fa82876a-66ca-41d2-9ccd-4854b1b4a1e7"/><linearGradient id="fe98290b-3c07-4b0c-988c-217c38313095" x1="153.6" x2="174.7" y1="74.1" y2="74.1" xlink:href="#add293a2-89a0-4dd8-9072-f43a4a6f448c"/><linearGradient id="ac748259-1063-4007-9883-a155d9764df5" x1="174.7" x2="217.3" y1="68.2" y2="68.2" xlink:href="#add293a2-89a0-4dd8-9072-f43a4a6f448c"/><linearGradient id="b774a725-839d-43cf-be20-b7d3b6b6eea8" x1="187.3" x2="231.9" y1="173.2" y2="204.3" xlink:href="#add293a2-89a0-4dd8-9072-f43a4a6f448c"/><linearGradient id="e08f27c8-b073-438d-a996-3998b30f8c41" x1="204.7" x2="211.2" y1="122.7" y2="119.8" xlink:href="#add293a2-89a0-4dd8-9072-f43a4a6f448c"/><linearGradient id="f37a3a6d-f93d-46d2-a60c-021a796ca559" x1="215.1" x2="221.1" y1="124.7" y2="122" xlink:href="#add293a2-89a0-4dd8-9072-f43a4a6f448c"/><linearGradient id="ba5c391f-cb04-49a9-bfc3-619683e274c8" x1="195.2" x2="210.2" y1="59.3" y2="63.1" gradientTransform="matrix(1 0 0 -1 0 552)" gradientUnits="userSpaceOnUse"><stop offset="0" stop-color="#282828"/><stop offset=".3" stop-color="#494949"/><stop offset=".7" stop-color="#494949"/><stop offset="1" stop-color="#282828"/></linearGradient><linearGradient id="a268f5c6-f48e-403e-ac37-d8a790199d23" x1="164.9" x2="176.4" y1="53.3" y2="53.3" gradientTransform="matrix(1 0 0 -1 0 552)" gradientUnits="userSpaceOnUse"><stop offset="0" stop-color="#494949"/><stop offset="1" stop-color="#282828"/></linearGradient><linearGradient id="a73e5131-4732-4174-b61a-be9bc49f521d" x1="155.7" x2="159.4" y1="71.5" y2="70" xlink:href="#a268f5c6-f48e-403e-ac37-d8a790199d23"/><radialGradient id="b61561a1-22ef-471c-87c0-5ca70f5e4c34" cx="-290.1" cy="555.5" r="1" gradientTransform="matrix(7.6 0 0 -7.6 2360.3 4444.6)" gradientUnits="userSpaceOnUse"><stop offset=".7" stop-color="#8a6f48"/><stop offset="1" stop-color="#533a18"/></radialGradient><radialGradient id="bed74e89-4247-482b-8f74-f65249e570f9" cx="-285.1" cy="555.4" r="1" gradientTransform="matrix(6.84 0 0 -6.84 2063.5 4038.6)" xlink:href="#b61561a1-22ef-471c-87c0-5ca70f5e4c34"/><radialGradient id="ab583e38-5bfc-40c9-b0df-e20d444a3c86" cx="-322.2" cy="555.8" r="1" gradientTransform="matrix(28.4 0 0 -22.08 9371.7 12781.5)" gradientUnits="userSpaceOnUse"><stop offset="0" stop-color="#646464"/><stop offset="1" stop-color="#494949"/></radialGradient><radialGradient id="bf937c64-2aca-4f81-b101-bab088953593" cx="-317.1" cy="555.8" r="1" gradientTransform="matrix(19.83 0 0 -16.06 6416.3 9431.3)" xlink:href="#ab583e38-5bfc-40c9-b0df-e20d444a3c86"/><radialGradient id="f7fa5a91-0373-480d-bf68-4e7bcb5d0560" cx="-212.3" cy="554.5" r="1" gradientTransform="matrix(2.74 0 0 -2.75 694 1757.4)" gradientUnits="userSpaceOnUse"><stop offset=".8" stop-color="#fff"/><stop offset="1" stop-color="#fff" stop-opacity="0"/></radialGradient><radialGradient id="aa3152b2-ddb1-41ec-a83f-ec76002d4983" cx="-227" cy="554.7" r="1" gradientTransform="matrix(3.12 0 0 -3.12 863.3 1948)" xlink:href="#f7fa5a91-0373-480d-bf68-4e7bcb5d0560"/><clipPath id="a21c8ba0-a09c-4261-b46b-61059a9b398f"><path fill="none" d="M0 0h289.5v550H0z"/></clipPath><style>.a7ae794f-6ca8-4286-b2f0-ae8a49275721,.afdec8d3-832f-48b1-98e1-26e60744e21f,.b047c394-d354-4589-ac63-943bcf6d91a2,.f844e99b-05e5-4bfd-8653-ff7bb816d4e5{fill:none}.ac55a136-c94e-42cd-a063-9ade7cc256e7,.acc61ce2-2831-4086-9f25-0eff392245f0,.b09637d2-1173-4c32-89cf-3dc472e6443e{isolation:isolate}.a91477a0-0bf3-4848-8be3-b3a8d8842de8{fill:#fff}.a8ab9182-c342-4662-b5cb-41417310569b{fill:#293b60}.bae20f09-64c6-440f-9397-e257d21cc8e0{fill:#494949}.acab0795-cfcc-4f8c-b197-e07dfca3ea28{fill:#262626}.a49696fb-4f9f-49f6-aab5-26ea32d98f3f{fill:#303030}.bbe8ddf2-c56d-40c9-a4ab-1a6d6639cc9c{fill:#161616}.fb3d6b2e-f2c0-4299-af5d-335684c3b1e8{fill:#a8a8a8}.acc61ce2-2831-4086-9f25-0eff392245f0{fill:#d88b64;opacity:.65}.ac55a136-c94e-42cd-a063-9ade7cc256e7,.b09637d2-1173-4c32-89cf-3dc472e6443e,.fb3e26f5-20d8-4040-9ab3-c6c6ca814243{opacity:.7}.ac55a136-c94e-42cd-a063-9ade7cc256e7{fill:#2b1d13}.b09637d2-1173-4c32-89cf-3dc472e6443e{fill:#1e140e}.b100c2a4-a2e7-4077-92d7-788ed93ebea0{fill:#77695c}.baf6c32e-c42b-4edc-8276-9ecfca2d6a47{fill:#162136}.b688481f-6f1d-434c-b049-7550f6161440{fill:#961a17}.ef4a6781-10ba-4dc6-b830-d7c734371cb9{fill:#7e6e5b}.a7ae794f-6ca8-4286-b2f0-ae8a49275721,.afdec8d3-832f-48b1-98e1-26e60744e21f{stroke:#ddab47}.a7ae794f-6ca8-4286-b2f0-ae8a49275721,.afdec8d3-832f-48b1-98e1-26e60744e21f,.b047c394-d354-4589-ac63-943bcf6d91a2,.f844e99b-05e5-4bfd-8653-ff7bb816d4e5{stroke-miterlimit:10}.a7ae794f-6ca8-4286-b2f0-ae8a49275721{stroke-width:1.19px}.afdec8d3-832f-48b1-98e1-26e60744e21f{stroke-width:.95px}.b047c394-d354-4589-ac63-943bcf6d91a2,.f844e99b-05e5-4bfd-8653-ff7bb816d4e5{stroke:#1d775d}.b047c394-d354-4589-ac63-943bcf6d91a2{stroke-width:1.4px}.f844e99b-05e5-4bfd-8653-ff7bb816d4e5{stroke-width:1.12px}</style></defs><g clip-path="url(#a21c8ba0-a09c-4261-b46b-61059a9b398f)"><path id="fa576d21-083d-4a3b-a70c-58f71dd40b2f" fill="#ededf2" d="M216.5 538l1-.4c-.6 1.9-1 2 2.1 2.4s-16.8 9.6-11.9 9.1c26-3.8 56.8-10.9 54.6-24 .4-4.5 0-9.2-3.3-9.9 1.7-6.7 1-18.5-8.6-22 2.4-2.5-4.8-7.7-6.7-7.8 1.5-3.2 4-9.6 1.1-10.6 0 0 .9-2.3.2-3.5a2 2 0 00-1.2-2.9c3.6-8.7 9.8-26.3 11-39.1 8.2-3.4 13.3-8.6 13.6-9.9 2-9.2 2.4-39.4 2.3-47.7 6.2-3.4 3.5-13.5.8-23s-9-42.9-8.2-52.1c5.6-10.1 11.8-35.2-2.9-43.3 6.4-18.1 4-19.2-15.8-19.3a17.9 17.9 0 012-3.5c16.2.9 33.5-26.3 27.2-41.5 8.4-28 27.8-76.2 5.5-127.7-20-38-35.6-34.1-35.6-34.1s2.9-2.9 12 2c-1.3-6.2-34.7-17-47.6-8.7 2.6-5.8 24.7-9.8 24.7-9.8s-28.6-.5-40.8 5.2C183.8 4.5 157.1.3 157.1.3S172 5.9 175 12.6c-12.2-7.9-39.9-8.5-52.5-4.5a21 21 0 0115.7 4C66.1 10.6 13.5 99.4 30.7 174.3c1.8-14.9 6.2-22.2 6.2-22.2s2.3 34.3 22.1 52.1c-2.2-7.7-5.2-25.7-5.2-25.7s13.7 23.2 34.2 30.4c12.6 21.9 42.2 37 42.2 37S118.8 291.6 178 284c-10 9.5-25 28.5-23.3 42.4s8.2 19.4 18.4 17.9c-3.4 10.1-4.2 10.1-4.2 10.1a19.5 19.5 0 00-3.3 14.2c-2.7 7.8-7.1 15.8-1.3 20.8-.6 9.6-1.2 28.3-1 30s1.3 3.2 5.9 4.8c.7 3.3 8.4 31.2 13.3 40.4-2.1.1-.9 3.8-.9 3.8s-2.2-.5-.8 6.5c-2.5-.4-12.5 1.3-9.8 11.8-4.7-1-24.5.1-24.2 16.8-1.8-.5-2.7 1.2-3.1 3.5l-10.9 26.4s5.4 3.8 39.8-6.4c4.5 3.5 43.9 11 43.9 11z" data-name="shadow" style="isolation:isolate"/><path fill="url(#aa3b0640-b132-4539-ab3e-87bfbfeecd4e)" d="M177 477.3a233.3 233.3 0 01-5.8-36.2c16.9 4.5 40 3.1 56-3.7-.6 9.1-4.9 21.8-7.6 30.6-2.4 4.3-3.3 9.4-6.8 13.4-6.3 6-34 7.9-35.8-4.1z"/><path fill="url(#f33565eb-1be0-45c6-863f-104fd0e45919)" d="M154.8 473.3c-1.6-4.7-4.6-11.6-6.4-16.2-2.3-7.8-5.3-17.5-7.1-25.3a44 44 0 0020.6 2.8c.4 1.5-.6 2.1 1.6 3.8s5.6 1.9 7.6 2.7a260.1 260.1 0 005.9 36.2 3.9 3.9 0 00-2.3 1.9c-5.7.4-17.2.7-19.9-5.9z"/><path fill="url(#ec810bcd-fa30-4718-ad31-41d3f1900ddc)" d="M147.8 312.4c-.2-9.1 18.3-20.6 25.2-12.3-.9.5-4.1 1.8-5.2 2.2s-5.6 3.8-7 6.4a58.3 58.3 0 00-2.3 5.8c-.3.8-1.1 2.5-.8 3.4a29.9 29.9 0 01-2.9-3.2c-2-1-4.7-2.5-7-2.3z"/><path fill="url(#bde4435e-1ae2-483e-8399-d06701ee615c)" d="M47.9 189.2c10.6 11.2 29 16.3 43.4 16.3 6.4 0 14.8-.9 19.9-5.2 10.2 0 22.1-3.3 31.2-7.9-24.1-7.3-38-33-38.1-57.2 2.1 5.8 4.5 13.4 9 17.8l.3-.5a57.5 57.5 0 01-1.4-23.7 107 107 0 003.9 8.5 60.5 60.5 0 0012.4 9.6 92.1 92.1 0 0019.1 6.7 35.2 35.2 0 01-8-17.5 73.2 73.2 0 0010.1 12.7c-.2-6.5-1.9-17.1-.2-23.4l.6.3c.8 12.4 2.9 26.1 6.8 37.9l6.8 14a171.5 171.5 0 0019 25.8c-1-3.3-3.2-7.2-4.1-10.6a182 182 0 016.4 8.3l6.2 6.5c5.6 4.2 15.8 12.1 15.3 20.5a55 55 0 003.6-8.7c-4.2-10.7 4.5-27.6 17.9-30.9 18.6-3.8 21.1 13.4 17.2 26.9s-12.6 22.2-26.5 23.4c-3.9 7.7-8.5 17.1-13.7 24-3 2.8-6.4 6.7-9.6 9.3a44.6 44.6 0 01-3.1 10.8c-5.1 7.5-16.1 14.1-23.2 4.6-27.3 10.9-74 8.8-66.9-32.9a192 192 0 01-36-29.4c-7.6-10.1-16.1-22-18.3-34.6"/><path d="M147.3 199.1c18.1-6.5 31.2 33.7 11.6 38.6-17.4 2.2-25.2-31.5-11.6-38.6zM96.2 237.5c-2.1-7.4-.3-21 11.1-16.2 7 2.5 12.2 12.5 13.3 18.3l1 3.7-.2 4.4c-.8 2.8-1.5 4.4-4.4 5.6s-7.3.8-10-.9c-5.7-2.6-9.1-9.1-10.8-14.9z" class="a91477a0-0bf3-4848-8be3-b3a8d8842de8"/><path fill="url(#b61561a1-22ef-471c-87c0-5ca70f5e4c34)" d="M149.1 225c-2.7-7.7 6.4-14 12.5-8 6.9 8.5-6.2 20.8-12.5 8z"/><path fill="url(#bed74e89-4247-482b-8f74-f65249e570f9)" d="M107.4 242.2a6.8 6.8 0 0111.2-7.2c6.3 7.6-5.6 18.7-11.2 7.2z"/><path fill="url(#a479f3fa-deaa-4f69-988e-1cac48b38dc3)" d="M136.6 397.7c2.6 1.6 5.7 5 8.8 5.3-1.8-3.6-.4-9.1.1-12.8a152.5 152.5 0 0015.1 2.2c4.4.5 10.5 1.5 14.9 1.4.6 2 .5 5.4 1 7.4s1.8 4.4 3.4 5.2 3.3-2.2 3.8-2.7l3.3-1.6c7.4-3 16.2-5.1 23.7-7.8 11.2-3.1 22.1-10.2 32.6-15.1-.8 15.2.4 31.8-2.1 46.9-.3.7-.6 2.6-1.4 3-17.4 15.9-56.8 19.3-77.5 8.5a10.2 10.2 0 01-.3-3c-2.6.2-8.6.1-11.3.1a100.3 100.3 0 01-11.7-3.9s-3.2-.7-3.4-3.1c-.7-5.7.1-12.2.4-17.3 0-3.1.3-9.6.6-12.7z"/><path fill="#60584f" d="M223.6 403.4c-2-2.2 2.3-3.8 1.3-.4l-.6.4z"/><path fill="url(#fa82876a-66ca-41d2-9ccd-4854b1b4a1e7)" d="M170.3 297.9a24.2 24.2 0 01-2.6-8.4 15.4 15.4 0 0014.3 5.2c7.6-2.2 12-9.8 14.3-16.9.4.9.1 5 .1 6-2.6 3.7-6.4 9-9.6 12.1l-2.2 4.7h-.7l-.9 1.7c-2.9-1-6.3-3.9-9.4-2.5a3.1 3.1 0 01-1.5-.8c-.4-.1-1.7-.6-1.8-1.1z"/><path fill="url(#b7af448a-0f9b-40fa-a427-52b3bb7eb668)" d="M204.1 263.9h1.3a50.8 50.8 0 0112.8-6.3l5.2.4 4.1 1.4c-16.9 1.5-26.8 14.6-33.1 29-1.2 0-2.5 1.6-3.2 2.4-2.3 2.7-5.5 6-6.2 9.6a3.5 3.5 0 00-2 2.1c-4.2-1-4.4-3.9-10.2-2.4-7.7 2.9-12.2 6.4-13.9 13.4-.4 1.1-1.3 3.4-1.2 4.6l8.5 14.4c2.6 4.5 4.6 8.8 7.9 11.4 3.5 5.1 15.7 6 21.2 5s8.9-4.7 12.2-7.2a73.3 73.3 0 0026.8-33.9 82.4 82.4 0 004-9.7 37.6 37.6 0 003.5-12.4c.5-9.7-.4-18.4-9.2-24.1 1.7-3.9 4.5-12.3 2.7-16.3-4.9-3.4-12.2-3.1-18-3.5-3.2 5.8-6.4 12.5-10.1 18-.7 1.1-2.6 2.9-3.1 4.1z"/><path fill="url(#add293a2-89a0-4dd8-9072-f43a4a6f448c)" d="M196.4 283.6c.3-3 .8-9.8.3-12.8a78.2 78.2 0 007.1-7 64.4 64.4 0 007.2-3c6.2-3.9 9.3-3.5 16.1-1.6a4.6 4.6 0 01-2.3.6l-5.3 1.3c-6.2 1.9-11 6.5-15.6 10.8a39.4 39.4 0 01-3.8 5.3l-2.2 4.1c-.2.5-.9 2.1-1.5 2.3z"/><path d="M168.5 290.3l-.7-1 .6-1.2.6-.2c2.2 3 6.6 4.6 10.2 4.3s6.4-2.4 8.6-4.3c4.5-3.6 7.2-10 7.4-15.7l1.5-1.1a28.3 28.3 0 01-.1 6.5c-.9 1.6-1.7 4.1-2.5 5.8-4.5 10.6-16.8 15.8-25.6 6.9z" class="a8ab9182-c342-4662-b5cb-41417310569b"/><path fill="url(#e1a6c302-4236-445e-8682-a49171f08e62)" d="M170.6 298.3a21.1 21.1 0 01-2.6-10.1c-5.1.7-11 3.6-16.2 3.7-2.6 2.9-7.7 6.7-10.4 9.7-1.9 1.4-5.6 6.9-7 8.7a54.5 54.5 0 00-7.4 24.5c.6 15.9 13.9 22 28.1 15.6 8.4-3.1 12.7-3.6 18.6-6.6-5.3-5.6-9.4-15.3-13.6-21.7-.4-1.9-6.7-10-10.6-9.5-2.2-.4-1.5-.8-1.5-.8-.3-7.6 15.6-18.4 22.6-13.5z"/><path fill="url(#a7e5bd9e-0d33-4959-8f94-a4b789f2f0a2)" d="M128.9 178.9c.4-9.9 18-10.1 24.6-4.4 3.2 2.7 4.2 6.8.6 6a95.4 95.4 0 00-13.5-1.9c-4.2-.3-9.2 2.7-11.7.3z"/><path fill="url(#ea7dc6b9-e9f2-4e57-b9c1-42f17636a44d)" d="M79.8 204.5l7.8 1c-2.4 3.3-4.7 8.1-6.7 11.6-.2 1.8-5.9 2.7-6-.1.4-5.2 2.4-8.5 4.9-12.5z"/><path fill="url(#bc066dbe-7042-44d5-a19d-3d669344376c)" d="M77.7 204.2c7.5 1 12 2.5 21.7.9 6.8-2 9.3-2 11.8-5.2 10.5.4 21.9-2.9 31.2-7.5a56.8 56.8 0 01-35.1-36.7l-2.1-8.1c-.1-3.6-.6-8.9-1-12.5a52.6 52.6 0 009.5 18.7 74.3 74.3 0 01-1.8-24.9c.7.7 2.5 4.8 2.9 5.7l3.3 4.5c7.6 7.7 19.2 11.5 29.2 14.9v-.8a53.8 53.8 0 01-5.6-9.2c-.2-.9-2.6-7-2.1-7.9a82.9 82.9 0 0010.1 12.7c-.3-7.8-1.7-17.2 0-25 1.2 8.4 2 19.7 3.9 28 4.3 19.3 16.4 37.1 29.1 51.8-1-3.3-3.6-7.9-4.5-11.3a109.1 109.1 0 0017.8 19.4c4.6 3.2 11.2 10.6 10.4 17 1-2.2 2.8-6.7 3.6-8.9a13 13 0 00-.7-3.3 23.8 23.8 0 01.4-8.4l1.4-4.7 2-3.2c1.6-2.9 6.2-8.3 10.1-9.9 6.8-3.8 22-2.7 22.8 7.3a252.6 252.6 0 0013.3-54.2c1.5-12.5 3.2-27.6 1.7-40.1a102.8 102.8 0 00-19.3-49.7A101.4 101.4 0 00225.4 40c-2.4-1.4-7.8-4.2-10.2-5.7 3-.2 7.1.8 10 1.7l-.3-.7c-11.8-7.8-29.2-10.4-43-7.8 5.2-4 13.3-5.7 19.3-8-5.6-.5-14.6.5-20.3.9s-12.1 1.2-16.2 3.2a98 98 0 00-27-13.1v.7c3.2 2.5 8.3 5.7 10.2 9.4a126 126 0 00-34.5-5.3c-4.8-.1-12.5 0-17.2 1.4 3.4 1.5 9 1.4 12.4 2.9a118.1 118.1 0 00-62 25.1C34.5 55.4 23.9 69.3 15.9 83.4S4.2 115.8 2.5 132.2s-2.2 32.8.8 48.2c.8-4.9 1.7-17 5.9-20 0 5.7 2.2 12.8 3.5 18.4a69.4 69.4 0 0018.6 33.7l.2-.8c-1.9-7.2-4.3-15.4-4.4-22.9 5.9 9 22.4 27 33.3 28.4a83.8 83.8 0 01-9.7-17.6c-.9-3-2.8-7.1-2.9-10.3a58.6 58.6 0 0029.9 14.9z"/><path d="M211.3 496.6h4.2l-.6 2.3c-.6-.5-3.3-1.7-3.6-2.3z" class="bae20f09-64c6-440f-9397-e257d21cc8e0"/><path fill="url(#fadd714e-2662-4278-8da2-6c4455182b6b)" d="M146.8 385.9l-.4 1.7c9.2 2.9 20 2.4 29.4 4 1.5-14.2 6.8-28.5 7.7-42.8-1.1.6-9.9-4.9-9.6-5a35.3 35.3 0 00-7.2 3c-2.1.6-6.7 1.8-8.7 2.6s-1.8 3.1-2.2 3.7l-2.1 4.5a91.7 91.7 0 00-6.9 28.3z"/><path d="M147 390.4l-1.4-.3.7-3 .3.4c5.6 2 12.2 2.4 18.1 2.8 3.2.3 7.7.9 10.9 1.1v2.6c-4 .4-10.7-1.1-14.7-1.5s-10.1-1-13.9-2.1z" class="a8ab9182-c342-4662-b5cb-41417310569b"/><path d="M145.4 403.3c-1.2.3-8.7-5.7-8.8-5.8s-2.7-3.3-3.1-4.9c.1-3.4 2-8.7 3.1-11.8a13.4 13.4 0 00.5-4.9 36 36 0 011.2-8 32.5 32.5 0 013.7-5.2l3.4-10.1c3.7.1 9-1.8 12.3-3.3-3.8 8-6.1 12.1-8.6 21.6-1.2 7-1.3 9.5-2.4 14.1s-3.9 12.6-1.3 18.3z" class="a8ab9182-c342-4662-b5cb-41417310569b"/><path fill="url(#fe98290b-3c07-4b0c-988c-217c38313095)" d="M153.9 476.7a3.1 3.1 0 01.2-3.2h.7c3.2 6.4 14 6.4 19.9 5.7a6.7 6.7 0 00-.1 2c-2.1 1.4-6.6 1.1-9.1 1a49 49 0 00-4.1-1.2l-.2-.6a38.8 38.8 0 00-4.8-3 4.2 4.2 0 00-1.7-1z"/><path fill="url(#ac748259-1063-4007-9883-a155d9764df5)" d="M177 477.3l-1.5.6a3.6 3.6 0 00-.5 3.6c-.4 1 .2 2.4.2 3.4 5.2 4.6 13.1 4.3 19.4 5.9l.6-.9a37.5 37.5 0 016.7-2.2c2.3-.5 5.8-1.5 8.1-.6a26 26 0 017.1-4c0-1.7.4-3.6 0-5.3l-.9-1.1c-2.7 5.2-6.2 7-11.7 8.4s-13.1 1.8-18.8.2c-3.6-1-8.6-3.7-8.7-8z"/><path d="M183.7 504.4l-1.5-.7-.6-1v-1.1c2.5-4.7 9.6-5.5 14.4-5.9a15.2 15.2 0 01-3.1 3.1 22.6 22.6 0 00-2.6 4.2c-1.7 1.3-4.6 1.5-6.6 1.4z" class="bae20f09-64c6-440f-9397-e257d21cc8e0"/><path fill="url(#ab583e38-5bfc-40c9-b0df-e20d444a3c86)" d="M175 483.4a3.8 3.8 0 00-1.8 1.3c-.2 2.1 1 5 1.6 6.9l1.2 6.4c-.2 2.4-.2 6.1-.8 8.4s-1.4 4.5-1.2 6.5 1.9 4 2.6 5.1a72.1 72.1 0 0012.6 14.9c2.7 2 7.6 2.8 10.8 3.9a39.2 39.2 0 0018-1.7c4.2-1.4 9.3-3.9 11.8-7.6 2.8-5.6 2.8-13.4.6-19.2l-2.3-3.6-2.6-1.9a31.4 31.4 0 00-8.9-2.2c-3.7-.4-9.4 1-12.8 2l-4.7 2.2-.9-.2a10.2 10.2 0 01-2.5.6l-.6-.6-.2-1.6-2.1 1.7c-.7 3.3-.7 7.3-1.2 10.7l-.7.6.8 6.6-.3.7a1.7 1.7 0 01-1.4 0l-.2-.2-.7-6.9c-1.8-1.6-.3-7-.2-9.3l-3.1 1.1h-3.5c-1.8-.4-4.3-1.4-4.8-3.3.2-3.8 3.7-7 6.9-8.7s8.3-2.5 12.3-2.3c-.9-3-3.2-3-5.8-3.5-5.2-.9-12.1-1.4-15.9-5.6z"/><path fill="url(#b774a725-839d-43cf-be20-b7d3b6b6eea8)" d="M181.4 405.5l-.8.7h-.8c-6.1-4.9-3.8-19.2-2.3-24.9 1.9-9.6 5-22.8 6.5-32.6 14.4 1.9 17-2.5 27.8-10.3a139.7 139.7 0 0011.1-10.6l6-9.3c3.6-6 4.6-9.7 6.6-12.9-.1 15.6 3.3 33.1 7.4 48.1a105.1 105.1 0 013.3 10.9c.1 2.4.5 7.7.4 10.1 1.5 2.8-8.9 7.3-9.2 7.3l-7.8 4.1c-8.7 4.8-21.5 9.5-31.2 12-4 1.7-14 4.1-17 7.4z"/><path fill="url(#e08f27c8-b073-438d-a996-3998b30f8c41)" d="M202.8 428.5s-.2-2.1.5-2.2l7.9-1.4c2.2-.3 1.1 7.9 1.3 8.8s-9.9 2.3-9.5 2.2l-.2-.3z"/><path fill="url(#f37a3a6d-f93d-46d2-a60c-021a796ca559)" d="M214.2 426.7v7.2l.3.3c10-2.9 8.4-.7 7.9-10.7a30.6 30.6 0 00-7.9 1l-.5.7z"/><path d="M210.1 486.9c1.8-1.4 4.7-2.8 6.7-4.1l1.2.4.5 1.2c-.7 2.9-1.3 7-2.5 9.7a14.4 14.4 0 00-7.4-1.3c.4-1.6.4-4.6 1.5-5.9z" class="bae20f09-64c6-440f-9397-e257d21cc8e0"/><path fill="url(#ba5c391f-cb04-49a9-bfc3-619683e274c8)" d="M208.3 486.7l1.7.4-.7 1.8a12.8 12.8 0 01-.7 3.9h-2.2a3.4 3.4 0 00-2.2-.4l-.6.4h-2.4l-.5.7-4.1-.4a15 15 0 00-2-2.4c.4-.8 2.2-1.4 3-1.6l6-2.2z"/><path fill="url(#bf937c64-2aca-4f81-b101-bab088953593)" d="M120.6 516.5a11 11 0 01-1.1-7.5l1.1-4c.8-1.5 2.8-4.2 4.3-5.1a26.4 26.4 0 0117.5-4.1 28.1 28.1 0 0112.4 2.8 26.1 26.1 0 000 11.8l1.8.5 2.9 5.6c-4.7 2.1-13.1 3.6-18 5.1-7 1.2-15.8.2-20.9-5.1z"/><path fill="url(#a268f5c6-f48e-403e-ac37-d8a790199d23)" d="M163.9 515.8l-2.7.6v-.8c-.6-.5-2.9-4.8-3.4-5.6s-.7-4.5-.7-4.9v-4l1.1-3.6 2 2 2.4 1h2.5l2-1.1c2.2-3.6.1-7.1-1.4-10.4a14.6 14.6 0 00-6.4-3.9c-.2-8.9 7.5 1 15.2-3.8l.4 1.7a2.8 2.8 0 01-1.4 1.2c-1 1.7.1 4.1.8 5.6l.8 4c2.3 4.9-.6 14.7-1.4 18.7-1.4.2-2 .3-2.3 1.9s-2 .3-2.6.3z"/><path fill="url(#a73e5131-4732-4174-b61a-be9bc49f521d)" d="M153.5 482.9c-.1-1.6-.7-4.5-.2-6l1.1-.6c.6 0 2.4 1.4 2.9 1.8a39.5 39.5 0 014.1 2.2v.6l-1 .2c-.8 1-.8 2.7-1.2 3.9l-2.1-.3c-.2-.6-1.5-1.3-2.1-1.5l-.8.4z"/><path d="M117.1 526.6c-1.1-.4-1.2-9-1.2-8.9 0-1.6.2-4.2 1.2-5.4l2-.5c-.2 8.5 13.9 10.7 19.6 10.4 3.3-.6 8.1-2 11.4-3s6.9-1.3 9.4-2.4c.3.5 2-.2 2-.5 2.8-.5 6.9-1.6 9.8-1.9a5.4 5.4 0 011-1.6l1.5-.4a27 27 0 003.7 6.9c4.3 5.2 5.9 9.4 13.1 14.3 12.2 6.8 35.9 4.2 40.8-10.1 4 .8 3.4 9.7 3.1 11.5.2 15.3-37.2 15.8-44.6 12.7v-1.8l-2.8.5-2.6-1.3a13.1 13.1 0 01-.1-2.8l-2.8.4c-2-2-3.1-7.3-4.5-9.6a4.6 4.6 0 01-2.6.2l-2.7-4-.2-6h-1.1l-6.1 4.4a27.5 27.5 0 00-5.6 2.3l-3.9-1.6-1.2.2a24.3 24.3 0 010 2.7c.1.4-5.7 1.1-6 1.2l-4.3-2.2-.3.2-.4 2.7c-5.4 1.8-21.7-1.6-25.6-6.6z" class="acab0795-cfcc-4f8c-b197-e07dfca3ea28"/><path d="M117.1 512.3c2 11.7 16.3 13 26.4 11.3s17.8-5.9 28-7.2v-1.9c-9 .8-20.2 4.7-29 6.8l-5.1 1.1-4.5-.2c-5.5-1.9-13.1-2.8-13.7-10.2zM173.8 512.4l-1.3.3c1.8 6.3 12.3 23 18.9 25.1 12.9 4.2 38.9 2.7 41.4-13.4l-1.4-.9c-3.8 13.4-26.7 16.3-38.7 11.2a29.3 29.3 0 01-11.5-10.6c-2-2.9-7.3-7.9-7.4-11.7z" class="a49696fb-4f9f-49f6-aab5-26ea32d98f3f"/><path d="M143 495.9h3.3c-2.3-3 .8-10.1 4.3-10.6.1 1.5-1.2 2.9-2.1 4.1a10.2 10.2 0 01-.3 3v2.4l-.7 1.5a27.8 27.8 0 017.3 2.2c-.3 1.5-1.4 10.1.7 12.2a4.9 4.9 0 002.3-.8 13.1 13.1 0 00-.5-3.9 19.4 19.4 0 011-8.6c.7 2.7 9.3 4.7 9.7-.4 1-3.3-2.6-9.1-4.6-10.6l-4-1.5v2.9c1.8 1.1 4.2 3 4.9 5a26.3 26.3 0 00.9 3 7.5 7.5 0 01-.5 2.6 12.4 12.4 0 01-3.6-1.9c-.3-.5-2-2.4-1.8-3.1a25.9 25.9 0 00.4-4.8l.6-.7v-3l-3.3-.5-1.1-1H154l-.6-.6a10.1 10.1 0 00-2.5.5h-1.7l-2.3 1.1c-3.3 3.1-5.9 6.8-3.9 11.5zM197.6 495.5v-1.9c-7.2 0-17.1 1.8-19.9 9.5l.4 3.1c2.9 2.3 7.4 2.5 10.7 1 .2 2.2-.8 6.7.1 8.8l2.2.4.8-.9a79.9 79.9 0 01.8-10.9l2.2-1.6.2 1.6.9.7c1.3 0 4.9-1.5 6.1-2a59.4 59.4 0 0115-2.9c-1.2-1.6-4.5-2.3-5.8-3.8a17.7 17.7 0 018.8 1 3.2 3.2 0 01-1.5 2.8l3.6 1.2 1.1-1.6c-.3-2.2-2.4-3.9-4.3-4.7a37 37 0 00-5.4-2.4 25.1 25.1 0 00-6.7 0 6.2 6.2 0 00-2.7-.5l-.5.4a4.5 4.5 0 00-2.3 0l-.9.8a14.8 14.8 0 01-4.2-.2l.2 2.3h2.9l-3.7.7c-2 1.7-4.4 4.2-5.2 6.8l-2.2.5s-2.2 1.3-3.9.9c-7-1.3.5-7.1 3.3-7.5l9.9-1.6z" class="acab0795-cfcc-4f8c-b197-e07dfca3ea28"/><path d="M159.4 487.6a15 15 0 01-.4 5.6c-.1 1.5 3.6 5.4 5.8 5l.7-.6c.1-1.7-1-4.8-1.7-6.2s-3.1-3-4.4-3.8z" class="bae20f09-64c6-440f-9397-e257d21cc8e0"/><path d="M147.1 529.1a8.2 8.2 0 01.3 3.4c-3.6-1.8-3.7-2.1-3.7-2.1zM155 528.4a33.1 33.1 0 003.6 1.4c1.8-4.8-1-1.9-3.6-1.4zM175 533.4v-3.8a12.5 12.5 0 012.1 3.5c-.3.4-1.7.2-2.1.3zM181.6 542.7l.3-3.6 2.4 1.8-.4 1.8zM186.8 546.7v-3.4l3.1 1.2v1.4z" class="bbe8ddf2-c56d-40c9-a4ab-1a6d6639cc9c"/><path d="M189.8 523.1l-.7-6.5 1.6-.2c.1.5 1.2 6.3.8 6.7l-.6.6zM159.8 516.7l-3.2-5.8 1.4-1 3.3 5.9a1.9 1.9 0 01-1.5.9z" class="fb3d6b2e-f2c0-4299-af5d-335684c3b1e8"/><path d="M141.5 432.5c.7 4.2 15.5 5.8 19.2 5.5-1.4 3.1 5.4 7 7.2 6.4.4 4.8 4.7 26.9 6 31.2a4.9 4.9 0 00-1.2 2c-2.5 2.1-16.5 0-17.7-4.1.7 5.4 17.2 7.1 19.7 5.8l.3-1c.4-.2 1.6-.8 1.8-1.3a308.3 308.3 0 01-5.7-35.9c-2.9-.8-6.7-1.8-9-3.8a12.2 12.2 0 010-2.7c-6.5.5-14.5.1-20.4-2.9z" class="acc61ce2-2831-4086-9f25-0eff392245f0"/><path d="M152.9 461.3c1.7.9 3.9-1.3 3.6-3.2a12.7 12.7 0 01-3.6 3.2zM150.3 460.3a7.8 7.8 0 001.5 1c-.8.6-1.8.1-1.5-1zM171.2 445.2c11.7 5.2 40.5 2.4 51.5-.2 1.2-.2.9-.1-.3 5.4-2.8 9.1-5.7 21.6-10.2 29.1-6.9 6.9-22.7 8.2-33.1 1.7 6.8 6.7 15.9 5.2 25.7 3.7 8.3-2.3 6.9-2.8 10.3-6.4 4.9-11 8.8-24 11.6-35.6 0-1-.1-4.5.5-5.3a103.7 103.7 0 01-56 3.7z" class="acc61ce2-2831-4086-9f25-0eff392245f0"/><path d="M187.4 461.1c2.6 1.7 5.9 3.5 9 4-2.6 1.6-9.6-2-9-4zM148 310.8c2.8-.7 7.9 2 8.8 2.9.3-2.8 6-12.4 16.1-14 .1.7-.1.4-.1.4-3.3.2-14 8.6-13.7 12.7-.3.9-1.8 4.1-1.4 5.1-.9-1.2-4.6-3.9-5.8-4.9l-3.9-.9zM243.3 214.7c2.6-2.9 2.8-21.1-1.1-23.8 4.8 6.7 4.2 11.6 4.5 18.5s-3.9 12.9-7.7 17.2a27.5 27.5 0 01-20.3 12.2c-4.6 8.4-9.2 19-15.7 26.1-2.7 2.7-6.6 6.1-9.3 8.8l-13.8 9.2c-5.7 2.3-13.7 6.5-19.8 7.4a76.1 76.1 0 01-18.4 2.4c-9 .5-19.8-.9-27.8-5.2 24.6 13.4 77.7-3.3 94.3-33.7 10.7-16 4.3-17.7 12.3-21.6 4.5-2.2 4.2-9.2-.9-11 0-10.3 11.7-31.4 22.3-18.7 0 0-6.4-1.4-9 3 5.1-4.2 9-2.2 10.1 1s-1 11 .3 8.2z" class="acc61ce2-2831-4086-9f25-0eff392245f0"/><path d="M84.2 210.9l3.6-5.5-8-.9-2.5 4.1s-14.8-2.2-23.5-9.1a93.8 93.8 0 0013.8 27.1c-15-17.4-16.1-23.4-19.8-37.3 9.4 11.9 49.8 23.6 63.1 10.9a77.8 77.8 0 0031.5-7.8c-20.8-4.4-40.2-35.5-38.1-57.2 1.3 3.8 4.1 12.7 9.4 18.2-1.8-9-2.8-16.6-1.6-25.1 3.2 15 25.2 23 35.5 25.3a30.4 30.4 0 01-6.7-12.1c-2.2-7.6-2.1-8.7-2.1-8.7a33.3 33.3 0 0010.7 15.5c.6-5.9-2.5-15 .8-26.1-.5 33 12.3 58.4 32.3 81.7 0 0-2.5-7.1-4.4-11.6 1.1 1.5 7.5 9.9 10.7 13 7.1 6.8 18.6 13.2 17.4 23.4 0 0 3.1-6 3.7-9.4a12.2 12.2 0 011 2.3s-2.7 11.7-7.6 16.8c3.2-10.4-13.8-26.2-17.9-31.9 1.2 3.8 5.2 8.8 5.2 8.8-14.5-3.4-39.4-39.3-41.1-55.7-8.2 2-20.8.8-29.4-8.9-.7 3.8 3.8 12.9 3.8 12.9s-10.3-4-12.7-7.4c1.1 11.1 21.4 35.8 33.6 35.9 0 0-14 15-30 13.6-3 6.3-21.5 5.8-28.3 5.4 0 0-3.3 11.1-10.1 7.5 4.4 2.1 6.7-6.6 7.7-7.7z" class="acc61ce2-2831-4086-9f25-0eff392245f0"/><path d="M128.3 178.6c2.9 6.9 12.6.4 19.8 3.4 5.4 1.3 7.4 1.2 8.2-2.1-6.9 1.4-14.2-3.5-25-.1l-1.9-.4zM124.8 252.9c0-14.6 30.7-17 29.3-1.4-2.3-10.4-19.5-8.3-24.2-4.5 0 0-3.7 3.2-5.1 5.9zM155.9 283l-4.2 1c-.7.2 3.1 1.4 6.7-.2s6.1-7.9 4.4-6-5.2 4.8-6.9 5.2zM118.8 234.1c-10.5-28.7-35.7-13.5-19.1 11.4-14.1-25.4 9-35.2 19.1-11.4zM143.5 226.6c-13.5-27.6 17.2-43.2 24.7-7.4-2.1-36.9-42.2-23.8-24.7 7.4zM170.6 289.6c4.4 1.1 14.2-4.3 20.2-10-.7 2.5-4.7 12.7-15.3 12.2 10.5 2.6 20-11.5 19.9-19.7a112.2 112.2 0 01-26.5 15.5zM201.2 465.6c5.9 1 9.2-8 6.9-5.6s-3.8 4-6.9 5.6z" class="acc61ce2-2831-4086-9f25-0eff392245f0"/><g class="fb3e26f5-20d8-4040-9ab3-c6c6ca814243"><path d="M84.5 210.3h.1l3.2-5-7.8-.8a21.6 21.6 0 00-2.7 4 38 38 0 005.1 1.3c-1.1 1.7-2 9.8-6.8 8.4 3.9 1 3.9.4 5.3-1.2zM129.2 176.2c.4 3.6 14.8-1.6 18.7 1.1s8.7 2.5 8.3 1.4c.2 4.1-12.2-.9-14.9-.1-6.1 0-8.1 1.3-11.4 1.1l-1-.7a3.9 3.9 0 01.3-2.8zM104.4 124.9c1.1-12.5 1.7-18.8 1.1.8.3 8.4 4.5 21.7 7.8 26.4l-.9.2c-5.6-8.8-9.5-16.6-8-27.4zM152.2 113.1c1-3.1 3.2-7.8 1.2-4.8-7.6 9.6-7 29.7-4.2 39.8h.7a72.7 72.7 0 012.3-35zM207 227.1c.8-1.7 1.3-8.3 1.3-8.3-5-15.5 8.7-37.4 29-32.9 16.3 7.3 22.2-44.4 24.1-66.3a263.6 263.6 0 01-15.3 77.7c-3.9-6 0-8-11.9-9-16.9-2.6-28.9 19.9-24.2 31a52.4 52.4 0 01-3 7.8zM30.7 167s2.7 12 14 23.5a27.3 27.3 0 003.7 11.4 25.3 25.3 0 01-5.4-3.8 69.7 69.7 0 007.2 7.7 29.5 29.5 0 006.8 10.7c3 .7 2.1-.6 2.1-.6a96.5 96.5 0 01-5.9-9.7c-2.1-5-4.7-12.1-6.5-17.2-.5-2.1-4.4-4.5-8.2-9.6-5.2-7-5-7.1-7.8-12.4zM22.4 180s1.3 7.7 4.7 13.1a8 8 0 01.2-4c-1.1-2.4-3.8-6.8-4.9-9.1zM62.5 172.5c1.3 4.9 14.7 26.8 44 30.6 3.8-2.2 4.8-2 4.8-2v-1.2c-10.1 1-25.4-6.6-32.4-11.4s-13.1-9.6-16.4-16z" class="ac55a136-c94e-42cd-a063-9ade7cc256e7"/><g class="fb3e26f5-20d8-4040-9ab3-c6c6ca814243"><path d="M247.7 157a42.8 42.8 0 01-11.6 23.1c4.4-7.4 9.1-14.9 11.6-23.1zM241.9 178.6a8.6 8.6 0 01-5.8 6.3c1.8-2.3 3.9-4.2 5.8-6.3zM239 163.1c8.5-17.7 10.5-37.6 12.6-56.8-.5 19.3-2.6 39.8-12.6 56.8zM60.3 149.9a66.6 66.6 0 01-6.5-41.6 101.8 101.8 0 006.5 41.6zM107 191.3A72 72 0 0166.6 161a96.1 96.1 0 0040.4 30.3zM60.4 119.5c-.8-17 2.6-36.5 16.1-48.1-12.2 12.7-15.2 31.1-16.1 48.1zM32.4 175.5a53.4 53.4 0 01-10-40.8 73.3 73.3 0 0010 40.8zM161.3 143.5a77.1 77.1 0 013.9-48.1 108.9 108.9 0 00-3.9 48.1zM73.4 87c7.6-17.9 21.8-34.6 40.7-40.5C95.9 54 82.5 69.9 73.4 87zM136.8 56.1a92.8 92.8 0 00-11.1 45.2 67.2 67.2 0 0111.1-45.2zM17.8 147.2c-2.4-12-3.3-26 4-36.5-5.7 11.3-4.7 24.3-4 36.5zM190.7 198.2a96.9 96.9 0 01-23.8-69.2 114.8 114.8 0 0023.8 69.2zM187.4 184.9c5 8.3 13 15.2 15.5 24.9-4-9.1-11.9-15.7-15.5-24.9zM206.2 58.1c14.1 15.9 15.2 39 12.5 59.1 1-20.2.2-42.3-12.5-59.1zM224.2 103.8a54.7 54.7 0 01-5.1 35.1 91 91 0 005.1-35.1zM218.7 46.5a32.5 32.5 0 0118.8 26.9 42.6 42.6 0 00-18.8-26.9zM100.5 88.2c-8 26.6-9.6 58.3 7.1 81.8-18.3-22.7-16.8-55.7-7.1-81.8zM103.6 116c.4-13 2.8-26.6 10.5-37.3a114 114 0 00-10.5 37.3zM64.9 193.7C44.5 183.9 34 160.9 35 138.9c.7 21.8 10.6 43.6 29.9 54.8zM229.1 135.4a126.4 126.4 0 01-18.6 46.3c8-14.6 13.7-30.3 18.6-46.3zM220.3 54.4A44.7 44.7 0 01233 80.9a85.3 85.3 0 00-12.7-26.5zM165.2 42.5a64.9 64.9 0 01-2.8 24.3c.7-8 1.9-16.3 2.8-24.3zM185.8 43.2c7.8 3 11.5 12.2 14.1 19.6-4.2-6.7-7.3-15.3-14.1-19.6zM190.7 34.3a46 46 0 0137.4 15.4 60.7 60.7 0 00-37.4-15.4zM96.5 26.8c14.3-3.5 29.5-2.7 43.9 0a230 230 0 00-43.9 0zM122.3 57.4c4.2-9 12-17 21.9-19.2a51.5 51.5 0 00-21.9 19.2zM128 32.1a80.3 80.3 0 00-35.5 14.4c9.4-9 22.5-14 35.5-14.4zM154.2 43.2c-3.5 5.8-3.7 13.1-5.5 19.6.1-6.7.6-14.7 5.5-19.6zM176.1 43.2c4.8 6.6 5.6 15.6 6.1 23.6-2.1-7.7-2.8-16.3-6.1-23.6zM194.3 40.7a37 37 0 0126 22.1 50 50 0 00-26-22.1z" class="b09637d2-1173-4c32-89cf-3dc472e6443e"/></g></g><path d="M223.1 401.6c-.8 3.9 3.4 3.1 1.9-.1 0 3.3-2.2 1.9-1.9.1zM214.1 393.9c.9 1.1 9.5 3.5 11.9 3.7-3.9 1.2-12.9-.4-15.9-3.1l4-1.1z" class="b100c2a4-a2e7-4077-92d7-788ed93ebea0"/><path d="M207.6 401.7c9.7-2 24.9-10.1 30.8-13.2.9 9.9.6 33.7-1.7 43l4.3-3.5c2.2-15.2 1.9-33.5 2.1-48.8-11.3 5.6-23.7 13-35.9 16.3-6.3 2-14 4.5-20.2 6.7l-4.3 2.2c-.5.5-2 2-2.8 2-3.4-2.7-4.2-8.3-4.2-12.4-4.2.4-11.3-1.1-15.5-1.6s-10.3-1-14.6-2.3c-.6 4-2 9-.2 12.9-2.9-.5-6.4-3.7-8.8-5.3 0 0 4.2 8 9.5 8.5 2.3 1.1 2.2-12.9 3-13.8s7.6 1.1 10.7 1.3c1.7 1.8-4.7 22.3 4.2 17.4l-3.4-.6a16.3 16.3 0 010-5.4c-.2-3.1.3-8.3.4-11.4-1 0 11.9 1.5 12.4 1.4-1.3.8 2.9 19.7 8.3 16.9s18.3-7.8 25.9-10.3z" class="b100c2a4-a2e7-4077-92d7-788ed93ebea0"/><path d="M163.4 394.8c1.4.6 2.6 13.7-.2 14.8a40.3 40.3 0 001.1-8.4l-.9-6.4zM147.6 410.1c-8.3 1.5-.1.8 4.7.9 2.6 0 8.8.5 7.3 0s-4.8-1.1-4.8-1.1a29 29 0 00-7.2.2zM150.4 415.3c-1.6.5-2.7 1.2-.6 1s16.1-4.8 8.8-3.6a26.7 26.7 0 00-8.2 2.6zM166.8 411.1c-1.8.4-1.8.5-.6.5l9.2.5c2.8.1 9.9 1 5.6-.2-8.1-1.9-8.1-2-14.2-.8zM165.5 413.4c-1-.6-1.4-.9-.6 0a5.3 5.3 0 004 2.3c2.4.4 6.6.4 3.3-.4a41.3 41.3 0 01-6.7-1.9zM202.8 435.9c-.5.7 11.5-.3 10.2-1.9s.8-8.4-1.2-9.1c0 0 .6-.1.7 2.7a34.8 34.8 0 01.1 4.3v1.8c.6 1.5-9.6 2.4-9.8 2.2zM214.5 434.2c.3-.1 6.7-1.8 7.6-2.2s.6.3.7-1.1-.3-7.1-.3-7.1v-.3c2 10.1 1.1 9.1-8 10.7z" class="b100c2a4-a2e7-4077-92d7-788ed93ebea0"/><path d="M160.8 411.6c.1.5.3.8-.9.9s-.6.9-.1.7c2.8-.5 0 20.3.2 21.5h1.9c.5-2.8.4-10.4.4-13.2 0-.8.4-9.8 0-10.2l-1.4-.2z" class="b100c2a4-a2e7-4077-92d7-788ed93ebea0"/><path d="M159.5 410.4c.1.3 1.2 1.8-.7 2.3s1.3.2 1.3.2l1.1-.4v-.9c-.2-.5-1.3-1-1.7-1.2z" class="b100c2a4-a2e7-4077-92d7-788ed93ebea0"/><path d="M155.1 354.5c-6 1-11.1 2.3-11.1 2.3l1.6-4c1.4-.2 4.8-.7 6.2-1.1a21.8 21.8 0 015.9-2.5c.3 1.1-2 4.4-2.6 5.3z" class="baf6c32e-c42b-4edc-8276-9ecfca2d6a47"/><path d="M151 354.9c-3.5 2.3-6.6 3.5-3.6 1.1s3.6-1.1 3.6-1.1zM182.8 355.2c18 4.1 39.8-9.4 46.5-32.3 0 0-4 30.3-12.5 47.8a184.4 184.4 0 0014.2-44.5c.8 3.2.4 22.5-1.3 29.8a283 283 0 005.8-50.3 121 121 0 01-16.4 26.9c-11.1 8.1-19.3 20.2-35.6 16.2.4 1.3-.5 5.2-.7 6.4zM156.2 316.3c2 2.6 6.6 18.4 14 29a27.8 27.8 0 013.9-1.4 45.7 45.7 0 01-7.8-11.5c-2.9-4.6-6.7-11.9-10.1-16.1zM171 290.1c-4 .9-17.8 2.3-17.8 2.3l15.7-4.3a10 10 0 012.1 2zM169.9 296.3c-2.1-.9-5.8-.3-5.8-.3a4.2 4.2 0 011.2-3.2 11.7 11.7 0 00-2.9 3.5s-.9-1.5-1.6-1.7l.4 1.9c-3.8.5-14.5 7.9-13.9 14.5 0 0-4-1.1-5.9-.8a13.8 13.8 0 013.6 1.2 24.6 24.6 0 00-3.9 2.2c2-.9 6.7-1.2 6.7-1.2a40.5 40.5 0 001.2-5 28 28 0 0111.2-8.6 10.1 10.1 0 0110.2-.5zM143.3 372.3s1.4 2.2.5 6.9-2.9 4.8-2.5 4.2 2.6-10.5 2-11.1zM149.6 388.4l-.3 2.6a33.7 33.7 0 01-3.4-.9l.2-2.8zM173.8 391.3a12.8 12.8 0 00-.3 2.8h2.2v-2.6z" class="baf6c32e-c42b-4edc-8276-9ecfca2d6a47"/><path d="M127 333.2c4.2 27.9 26.4 14 41.4 9.4l2.9 2c-2.8 1.1-9.5 3.8-12.4 4.3a70.6 70.6 0 01-9.8 3.3c-15.2 2-21.1-3.9-22.1-19zM192.4 282.4a53.3 53.3 0 00-1.2 5.7c.1.8 5.9-10.9 5.4-11.2v-5.8l-1.5 1.1c-.2 3.2-.7 7.6-2.7 10.2z" class="baf6c32e-c42b-4edc-8276-9ecfca2d6a47"/><path d="M216 258.4c-6.8 2.2-17.1 11.9-17.6 19 0 0 3.9-3.4 4.9-7.7 1 2.7-1.8 5.2-2.8 7.2s-3 5.1-4.1 6.7l.3-12.5c1.3-1.3 6.1-6.3 7.4-7.3s9.4-4.2 11.9-5.4z" class="baf6c32e-c42b-4edc-8276-9ecfca2d6a47"/><path d="M146.6 387.5l3 .9c-.6-7.6 3.9-28.7 9.6-34.5-.5.3 13-4.5 13.5-4.8s7.9 6.4 8.6 6c-1.1 7.7-6.3 29.3-7.5 36.2h1.8c1.2-6.2 3.2-15.4 4.3-21.6s3.7-15.2 3.6-20.6c-2.9-1.3-7.5-3.1-9.8-5.4-3.4 1.3-12.6 4.8-16 5.4-2.6 5.5-6.6 14.2-8.3 20.1s-2.3 12.7-2.8 18.3zM172.5 299.1a9.5 9.5 0 01-2.5-1.3 35.5 35.5 0 01-1.9-7.8c.1 1.3 2.5 4.3 3.9 7.6 0 0 1.4.2 1.7.9s6 .7 8.5 2.4c.4-.6 1.5-1.4 2-1.2.1-1.4 3.9-5.6 3.9-5.6l-2.3 3.5-.8 2.8h-.7l-1.5 2.1c-2.6-1.4-6.3-3.8-9.5-2.6zM191.2 288.1c-.2.9-2.8 6-2.8 6 2.5-2.8 5.7-7 7.9-9.9.1-1.6.5-4.6 0-6.1a37.8 37.8 0 01-5.1 10z" class="b688481f-6f1d-434c-b049-7550f6161440"/><path d="M192.4 363.1c4.5 3 8.9 19.5 11.6 23.5-6-3.3-7.9-19.5-11.6-23.5zM184.4 369c-.4.9.1-2.5 1.3-3.9s7.1-4.1 4.7-2.5c-4.2 3.2-4 3-6 6.4zM181.2 391c1.2 3.1 18.5 1.9 19.3-1.5.6-.9-3.7 1.8-9.5 1.9s-10.8-1.2-9.8-.4zM181.4 399.6c.2-2.9 3.4-5.1 5.8-5s-1.8.9-3.5 2.2-2.7 4.1-2.3 2.8z" class="baf6c32e-c42b-4edc-8276-9ecfca2d6a47"/><path d="M218.3 257.5c2.7-1.2 7.1-2.1 9.2-1.4.5.2-1.2.2-2.4.6 1.5 0 7.2 3 8 4.4s-.3.5-.3.5c-2.1-.9-8-2.8-10.3-3.5s-3.4 0-4.2-.6zM222.3 242.3c-11.9 1 17.7 4.7 7.6 6.2a38.9 38.9 0 00-12.4 3.5l-4.7 2.7s-3.9 3.8-1.6 3.7a69.2 69.2 0 008.1-1.4l-14.7 6.8c.4-2.2 3.8-5.7 5.1-7.5 2.1-4.4 5.3-10.2 7.7-14.5zM202.6 277.7c.4-4 9.6-5.7 11.6-4.6-3-.6-9.7 2.3-11.6 4.6zM191.2 297.4a59 59 0 01.5-7.1l2.3-3c.2 1.8-2.3 8.5-2.8 10.1zM181.6 302c-1.7 1.1-3 9.8-1.4 13.3.1-7.9 1.4-8.6 2.8-12.2 0 0 .3 3.7 2 5.6a28.7 28.7 0 01-.1-7.8h-.9c-.3.3-1.1 1-1.1 1.5zM163 326.9c7.4 12.2 22.7 25.6 38.9 15.2a80.5 80.5 0 0031.4-36.4c3.7-7.1 10.6-23.2 8-31.2 4.1 15.8-11.8 49-25.5 60.8-8.2 6.5-13.9 13.9-22.3 13.9-17.6 2.3-25-11.6-30.5-22.3z" class="ef4a6781-10ba-4dc6-b830-d7c734371cb9"/><path d="M196.2 343c-3.3 1.4-7.6 2.3-11.2 1.4s4.4-.3 9.8-2.5l8.2-3.6c2.9-1.4 1.2-.2.7.1-4.8 3.2-3.8 2.9-7.5 4.6zM209.2 331.8c-2 1.6-7.8 3.9-11.1 4.7s4.7-2.8 12-7.7a67.2 67.2 0 0016.7-15.7c3.6-5.1 8.9-12 3.3-3.2a66 66 0 01-20.9 21.9z" class="ef4a6781-10ba-4dc6-b830-d7c734371cb9"/><path d="M157.2 238.4c-16.4 2.1-25.6-40.1-6.2-40.2 17.5-1 27.5 38.6 6.2 40.2zm-6.2-39.6c-19 2-8.4 40.3 6.2 38.4 19.7-1.8 10-39.2-6.2-38.4z"/><path d="M140.2 294.1C112.8 295.7 96.4 279 101 255c-17.8-9.7-53.1-41.8-54.8-67l2.3 1.5c1 23.9 40.5 57.8 54.4 65-9 44.3 48.6 44.8 77.9 26.8 21.6-11.9 30.2-29 37.4-43.2 17.6 1.2 37.7-31.1 23.2-47-10.8-7.4-26.7 1.9-30.6 15.3a20.3 20.3 0 001.3 16.4c.5 1.5-.3.6-.6.2-3.3-4.4-4-10.4-1.8-16.9 4.1-14.5 21.4-23.7 33-16.2 15 16.2-4 50.5-23.5 49.9-12 29.9-43 55.2-79 54.3zM148.8 312.2l-1.5-.6c.5-9.9 19.3-20.1 26.6-11.8l-1 .6c-3.1-3.2-9.9-3.4-14.1-.3-3.9 1.2-11 7.6-10 12.1z"/><path d="M178.3 292.9a11.7 11.7 0 01-9.9-4.9l.9-.7c10 12 25.9-3 25.3-15.3l1.7-.2c-1.3 10.6-6.4 19.2-18 21.1z"/><path d="M196.9 284.2h-1.2c.3-3.8.9-10.7.4-13.2l1.2-.2c.5 2.6-.1 9.4-.4 13.5z"/><path d="M192.3 295.1c-.3 1.4-2.2 5-1.1-.3 2.4-10 11.1-20.9 14.8-27.4-.2 3.5-3.1 7.1-5.2 10.1s-7.9 15-8.5 17.6z"/><path d="M184.8 308.5c-3.6-11.9 7.3-17.5 11.3-25.6l1 .6c-4.2 8-14.1 14.1-12.3 25z"/><path d="M179.9 314.6c-.5-5.3 1.3-13.5 5.1-14.6l-.2 1.2a21.6 21.6 0 00-4.6 13.8c.1.7-.2.3-.3-.4z"/><path d="M158.4 318.3h-1.2c.1-11.8 14.8-24.3 25.9-16.4v1.2c-2.1-.3-4.5-2.5-6.7-2.8-8.6-.4-18.2 9.8-17.9 18zM203.7 264.9l-.3-1.1c6.3-2.3 16.7-9.7 23.3-7.7-7.3-.9-16.4 6.7-23 8.8z"/><path d="M190.6 350.6c-24.6 3-23.6-29.8-40.6-37.4-2.4-.4-7.8-2.2-8.6-3 29.4.6 20.2 45.7 55.1 37.4a76.5 76.5 0 0033.7-32.4c12-21.3 21.7-57.3-13.8-56.6l1.3-1.3c35.4.5 25.6 36.6 13.9 58.4-7.2 14.9-26.2 34.4-41 34.9z"/><path d="M141.4 313.4c2.2-1.2 6.5-1.9 8.1-1.5l-.2 1.1c-1.6-.3-6.1-.3-7.9.6s-.5 0 0-.2zM191.5 343.9a32.6 32.6 0 0011-5c.4-.3 2-1.1.6.2-2.6 3-8.3 5.5-12.7 5.6s-1-.3 1.1-.8zM201.3 276.9l-.9-.8a10.6 10.6 0 002.7-6.2c0-.3.1-.3.2 0s0 4.8-2 7zM204.7 276.4c-1.8 1.2-2.6 1.8-1.7.6 2.3-3.1 7.2-4.2 9.3-4.1s2.7.2.7.4-6.5 1.9-8.3 3.1z"/><path d="M203.1 273.7l-.5-.4c4.7-6.5 19-16.6 27.7-13.2l-.3.5c-8.2-3.5-22.6 6.5-26.9 13.1zM179.8 295.2c-5.2 0-10.3-2.3-12.2-5.8l.5-.3c11.8 15 29.3-2.9 28.5-16.6h.6c.3 8-6.8 22.4-17.4 22.7zM156.1 435.4c-6.7-.2-17.5-2-20.9-7-.8-8.9.4-22.5.8-31.5h1.2c-.5 6.6-1.6 27.2-.9 30.9 3.2 5.4 21.8 7.2 25.9 6v1.2c-.2 0-2.9.3-6.2.3z"/><path d="M192 444.3c-8.8 0-25.3-1.8-30.2-6.6-.8-6 .3-21.7-.3-26.7h1.3c.4 5-.3 19.6 0 26 18.8 10 53.4 7.2 69.7-3.5 3.5-2.4 7.4-5.1 7.6-5.9 3-11.8 2.1-35.1 2.5-48.5h1.2c-.5 13.4.4 37-2.5 48.8-12.3 12.5-27.8 15.7-49.3 16.3zM203.6 386.6c-5.1-2.1-9.4-20.2-11-23.4 3.8 3.6 7.8 21.1 11 23.4z"/><path d="M162.7 411.6c-6.1.8-1.5-14.9-2.2-19.1h1.1c.8 4-3.5 18.4 1.6 18.2 1.5.4 1.7.7-.5.9z"/><path d="M174.4 394.5c-8.7-.9-20.6-1.6-29-4.1l.5-1.1c8.2 2.3 21.5 3.6 29.7 4l.2 1.2zM175.8 391.8c-1.4-.4-28.1-2.4-29.7-4.1l.2-.6c1.5 2 28.2 4 29.5 4.1zM163.3 409.1a52.4 52.4 0 00.3-13.8 23.5 23.5 0 01-.1 13.9c-.3.8-.3.3-.2-.1zM180.5 402.7c18.7-13.3 49.8-14.8 65.8-31.8l.5.2c-6.1 7.2-19.4 11.9-28.3 16.3-6.2 2.4-18.2 5.9-24.6 8.4a53.4 53.4 0 00-13.2 7.5 4.2 4.2 0 01-.2-.6z"/><path d="M181.4 405.5c-8.3-11 5.3-47.8 4.4-56.8h.6c.6 11.9-12.7 43.9-4.5 56.4zM158 431.8c-6.4.4-20.5-3.8-22.8-7.7l.5-.4c4.4 5.8 19.4 8.9 26.5 7v.6a18.1 18.1 0 01-4.3.5zM194.3 439c-7.7 0-27.7-2.6-32.3-6.6l.4-.4c20.6 11.1 65.1 8.6 79.3-11.8h.6c-6.4 13-34.2 18.5-48 18.7z"/><path d="M223.7 439.2l-.5-.3c2.6-6.5.5-13.9 1.2-21.1s2.2-21.9.6-29.3h.5c1.7 7.4 0 21.1-.5 29.4s1.4 14.8-1.3 21.4z"/><path d="M225.9 400.6c-8.8-.1-16-1.8-19.3-4.7l.3-.4c3.3 2.7 10.4 4.4 19.1 4.5z"/><path d="M225.9 398.6c-3.3 0-11.7-.4-16.2-3.5l.7-.9c3 2 8.6 3.2 15.6 3.2zM157.2 410.6a41.1 41.1 0 00-10.4-.2c-1.6.2-1.7 0-.2-.4a19.2 19.2 0 0112.2.5c1.4.5 1.6.8-1.6.1zM177.6 411.5a41.1 41.1 0 00-10.4-.2c-1.7.2-1.8 0-.2-.4s8.5-1.7 13.8.7c1.4.7 0 .6-3.2-.1zM150.9 415.4c-6.1 1.3 7.1-3.8 7.4-3 3.8-.1-5.4 2.2-7.4 3zM171 414.7c3.9 1.8-6.1-.5-5.8-1.2-2.1-1.6 4.3.8 5.8 1.2zM138.5 383.5c-7.4-15.4 10-28.8 5-22.2s-6.7 14-4.4 22.7c.5 2.5-.1 1.1-.6-.5zM187.5 393.4c-1.9.3-7-1.9-4.4-1.6 4.7 1.3 11.4.6 16.4-1.5-2.2 2.3-9 3-12 3.1zM218.6 341.8a52.6 52.6 0 009.2-15.1c-.7 4.6-4.9 13.1-9.2 15.4-1.4 1-.2 0 0-.3zM230.4 354.6c-2.1 6.6 2.3-22.1 1.8-14.3.1 4-.4 10.4-1.8 14.3zM216.8 370.7a214.5 214.5 0 0013.7-41.7c.8 6.2-8 35.1-13.7 41.7zM147.3 356.7c-1 .8-1.7.8-.5-.4a22 22 0 015.1-3.2c1.7-.9 1.3-.4.4.2l-5 3.4z"/><path d="M142.6 362.7h-1.3c0-.1 2.4-7.1 3.8-10.7l1.1.5c-1.4 3.5-3.4 9.7-3.6 10.2zM145 403.7c-16.9-8.1-11.7-13.5-8.2-26.9h1.1c-2.9 12.5-8.6 17.3 6.6 25.5-1.6-3.3.3-10.6 1-14.3 1.8-12.4 5.4-28.9 11.8-39.4l1.1.3c-6.2 10.2-10 27-11.8 39.4-.7 2.9-1.8 9.5-1.6 11.6s2 3.4 0 3.7z"/><path d="M138.3 392.2a15.4 15.4 0 01-1.7-7c0-2.3.1-.9.5.4s3 10.1 1.2 6.6zM141.5 382.5c.7-2.3 1.8-6.5 1.7-9.1 0-.3.1-2.7.5-.3s-.5 7.6-1.9 9.8-.4.2-.3-.4zM185.3 367.7c-.7 1-1.2 2-.7.4a9.8 9.8 0 014.1-4.9c1.8-.7 2.2-.7 1.3-.1a33.4 33.4 0 00-4.7 4.6zM182.2 397.7c-1.7 4.2-.9-2.7 2.7-2.8s-2.9 1.5-2.7 2.8z"/><path d="M180.1 407.1c-12.9-10.5 3.4-42.8 3-58.9h1.2c-.2 16.8-12.9 41.7-5.7 55.8 1.7 2.4 1.2 2.2 2.4 1.1 7.5-6.2 22.1-8 33-12.5s17.3-8.3 25.2-12c5.8-2.6 6.7-4.1 6.7-4.7.9-9.1-2.1-17.4-4.5-25.2-3.3-12.1-7-32.3-6.7-45l1.7-1.9c-.5 11.2 2.1 32.3 5.3 43.1s6.5 18.5 5.4 29.2c-.3 1.7-2.7 3.5-7.4 5.6-7.9 3.7-15.7 8.7-25.3 12.1-11.8 4.5-26 6.5-34.3 13.3zM203.3 436.2c-1.7.6-.3-7.8-.6-9.1s7.2-1.9 8.9-2.3 1.4 10.8.6 9.9a43.5 43.5 0 01-8.9 1.5zm-.3-.5c2.4.1 8.1-1.1 9.2-1.4s0-7.4-.2-8.8-3.6.4-5.4.5-3-.2-3.4 1.2 0 6-.2 8.5zM214.4 434.4c-1.2-.2-.2-3.2-.4-4.6s-.1-3-.2-4.4 6.5-1.8 8.1-2.4.6 2.2 1.1 4.8-.2 4.2-.5 4.3a48.8 48.8 0 01-8.1 2.3zm7.8-10.9c-11.5 1.6-6.7 0-7.9 10.4 2.2-.4 7.2-1.9 8.1-2.2s0-6.7-.2-8.2z"/><path d="M191.9 354.4c-2.3-.8-6.8-5.5-2.2-2.2 1.4.9 8.7 5 2.2 2.2zM143 402.5c-2.5-9.6 2.4-15.7 2.9-26.2s5-18.3 9.5-26.5l.5.2c-4.4 8.2-8.5 16.6-9.4 26.4s-5.3 16.5-3 25.9z"/><path d="M142.5 399.8a27 27 0 01-9-9l.2-.2c.7 1.7 4.6 5.8 8.7 8.4l.1.8zM224.1 403.8c-1.6 0-1.6-3 0-3s1.6 3 0 3zm0-2.7c-.8-.1-1.1 2.1 0 2.1s1.1-2.2 0-2.1zM161.7 297.8c0-2.2 2.2-4 3.3-4.9s.3 0 0 .3a6.8 6.8 0 00-2.1 4.6z"/><path d="M161.8 298.3h-1.2c.1-4.4.7-5.3 1.2 0zM144.8 353.7c-15.1.7-21.6-13-17.9-27.8 2.2-13 14.9-27.2 24.8-34.4l1.5.9c-10.1 6.9-22.8 20.6-24.5 33.8-2.7 11.5.1 23.3 10.8 25.5 7.2.5 8.8.5 14.8-1.9s14.9-4.3 19.3-6.9l1.4 1.3c-4.4 2.6-13.6 4.5-19.4 6.9s-5.9 2.3-10.8 2.6z"/><path d="M134.6 345.9c-4.6-1.9-5.1-12.8-3.5-6.3-.8 1 9.5 9.7 3.5 6.3zM143 346.6c4.2-1.6 12.4-5.9 14.6-7s2.9-.4.5 1.1a79.1 79.1 0 01-15 6.2c-.4.1-1.5.2-.1-.3zM208.2 259.4l-.3-1.7c5-4.3 16-10.9 23.4-9.3a47 47 0 00-23.1 11zM227.4 245.7a34 34 0 00-11.2-1.5V243c3.3-.4 8.8 1.5 11.5 2.6.4.2.4.3-.2.1z"/><path d="M227 249.3c-1.6-1.4-6.3-3-8.7-3.7s8.5 1.5 9.4 2.8z"/><path d="M233.3 262l-1.1-.4c6.3-18.8 3.9-18.2-15.3-19v-1.2c19 .6 23.5.8 16.4 20.6zM169.9 298.5c-.9-2.2-3.7-8.6-2-11l1 .6c-1.4 2.3 1.5 8.3 2.1 10zM201.3 335.5a65 65 0 0028.1-25c.5-.8 1-.9.5-.1-5.9 11.3-18.9 23.4-28.6 25.1zM111.3 201.1a67.6 67.6 0 01-48.5-27.7c17.6 22.8 51.9 33.7 78.2 19-23.9-6.1-39.7-38.2-37.4-61-.1-5.4 1.5-13.3 1.2 1.4-1.8 22.7 15.5 55.2 39.4 59.2a68.9 68.9 0 01-32.9 9.1z"/><path d="M115.4 156.2a40.5 40.5 0 01-11.8-23.3h1.2c.3 5.3 3.9 13.7 7.9 18.8-3.2-11.9-.9-26.9-.9-27 2.6 13.7 11.7 22 34.7 28.4a38 38 0 01-8.4-23.8c1.3 6.5 7.4 15 11 18.2-.9-6.1-2.5-25.3 3.5-36.1 1.2-2.7-.5 3.8-1 5.5-4.3 15-1.1 31.6-.8 33.9-2-2.1-5.8-5.1-10.4-12.5a35 35 0 009.8 16.9c-22.7-6-32.7-11.4-37.7-23.8-.7 5.1-.5 16.5 2.9 24.8z"/><path d="M205.3 232.2c4.8-14.9-18.7-24.1-25.5-36.8l5 11.6c-18.2-17.6-39.5-55.8-34.6-89.8l1.2.2c-4.5 22.2 10.4 64.3 30.2 84.2a35 35 0 01-5.1-14.7c6.2 17.8 29.1 26.3 30.5 39.3a39.1 39.1 0 002.4-7.3l1.1.2c-1.8 7.7-3.3 9.1-5.2 13.1zM124.3 259c-4.6-16.4 26.2-23.3 29.8-7.7.1.5-.1.6-.2.1-5.3-13.7-32.1-5.3-29.6 7.6zM161.3 222.6c.2 7.2-10.1 6.8-10.5 0s10.9-6.9 10.5 0zM118.3 239.8c.2 6.5-9 6.1-9.3 0s9.7-6.2 9.3 0z"/><path d="M113.3 254.4c-15.4 2.2-26.8-32.1-10.3-34.4 12.9-1.7 30 33.9 10.3 34.4zM103 220.6c-15.8 3.7-3.9 34.5 10.3 32.7 18-.8 1.3-34.2-10.3-32.7zM91.9 206.5a67 67 0 01-61-38.6c-.4-1-.1-1.2.4-.1 3.6 8.2 14 19.1 22 25.5 9.6 10.1 49.4 16.1 58.5 6.2l.8.8c.3.2-7.7 6.6-20.7 6.2zM53.8 207.7c-2.7.4-12.8-10.6-10.2-9.2s6.8 6.4 10.2 7.2z"/><path d="M60.4 218.3c-11.8-3.3-28.3-18.7-36.3-34-3.8-7.9 0-2.7.6-1.4 7.1 15.1 25.1 31.3 35.7 33.8z"/><path d="M32.7 214.2c-11.6-5-24.2-41.3-24.1-52.5-4.9 8.6-4.3 19-4.9 23.8-15.1-70 18.8-156.2 101.7-166.2-11.6-2.1-8.1-1.5-14.1-1.9 6.6-1.3 19.2-6.6 55.2 2.1-4.3-5.4-16.4-12.2-16.4-12.2s28.6 9.5 34.7 15.8c8-4.1 41-4.1 42.3-4.1s-14.9 3.1-23.3 7.7c13.6-2.8 37.9 1.9 46.1 12.6a30.5 30.5 0 00-12.6-4.5c59.1 27.3 48.8 110.8 29.3 164.3l-1.4-2.1c21.2-53.6 28.4-141.2-33.2-163.3 3.6-.1 4.1-.7 11 1.1-11.9-7.4-33.7-10.4-46.3-4.7 5.8-5 15.1-8.5 21.7-10.1-9.9.4-28.4 1.2-33.8 4.6-3.9-4.7-17.1-9.9-24.9-12.8 3.4 2.3 7.4 5.8 9.6 9.7a122 122 0 00-50.6-4.6l11.9 2.3v1.2C30.3 24.9-8 107.5 3.2 176.8c.8-6.1 2.1-14.9 6.4-17.7-1.1 7.4 10.1 45 21.1 52.2a100 100 0 01-4.1-22.8l1.1.2c-.6 5.2 4.9 24.9 5 25.5z"/><path d="M77.5 219.5c-7-.4-.4-12.4 2.3-15.5l.8.9c-2.7 2.5-9.2 17-.8 12.6 2.3-2.8 5-9.9 7.7-12.7l.9.8c-4 3.3-5.1 13.6-10.9 13.9zM154.7 181a59.5 59.5 0 00-23.8-.6c-9.2-2.2 4.5-11.6 10.9-10.4 6.8-.7 20.4 7.8 12.9 11zm-13.6-3c5.1-.3 10.4 2.7 14.5 1.4-.5-5.6-9.9-9.1-16.9-7.9-4.6.1-13.4 6.7-7.8 7.7 3-.1 6.9-1.3 10.2-1.2zM223.1 228.6c1.1-5.7-3.6-6.8-4.2-7.1 0-6.2 6-24.8 16.6-23-7.8.2-14.9 14.3-14.6 21.4 1.3.7 4.8 2.9 2.5 8.9-.1.3-.3.2-.3-.2z"/><path d="M229.4 213.5a23 23 0 00-.4-13l1.1-.4a22 22 0 01-.5 13.4c-.2.6-.4.8-.2 0zM152.8 284c-.2 0-1.2-.1.1-.4a22 22 0 008.3-4.4c3-1.6-3.7 5.8-8.4 4.8zM143.1 280a31.5 31.5 0 01-10.2-1.8c-.4-.1-.5-.5 0-.3 10.6 3.2 26.6.1 32.4-12a40.3 40.3 0 004-8.9c.3-.9 1.1-3 .5 0-2.2 12.1-13.2 24.8-26.7 23zM172 253.3c-.6-1-2.2-1-3.4-.5s-.8.3-.2-.3a3.7 3.7 0 013.3-.6c1 .3.8 2.8.3 1.4zM169.8 480.3c-12.7-.4-15-3.6-18.9-15.7-3.8-9.2-8.7-24.4-10-32.8h1.2c1.5 10.3 8 27.8 12.2 38.4 1.5 9.6 13.8 9.2 20.3 8.5l.2 1.4a38.4 38.4 0 01-5 .3z"/><path d="M151 461.1a3.1 3.1 0 01-2.3-2l1.1-.4c-.1 1.1 3.4 3.2 1.2 2.4zM195.2 465a15.5 15.5 0 01-6.7-2.9c-1.5-1.1-1.4-1.3.2-.5s10.4 4.2 6.5 3.4zM202.3 465.4c-3.7 1.3 5.2-4.2 5.4-5.2s1.1-1.1.1.4-3.4 4.4-5.5 4.8z"/><path d="M194.4 486.9c-6.6.7-16.5-2.8-17.6-7.5-2.2-8.3-5.8-29.7-6.3-38.2h1.1c.5 8.5 4.1 29.6 6.3 37.8.5 1.4 2 3.5 6.8 5.3 8.1 2.1 27.3 2.4 30.6-7.8 5.3-13.1 9.8-24.1 11.3-39.1h1.1c-1.3 13.8-5 23.2-9.3 35.3-2.5 11-12.5 14.7-24 14.2z"/><path d="M177.3 484.4c-3.6-2.8-4.9-5.6-.6-7.6l.4 1.1c-3.5 1.4-1.4 3.7.4 6.4.3.3.1.3-.2.1zM215.4 482.1c-3.5 2.5 3.9-3.1.1-4.9l.6-1c2.8 1.6 1.4 4.1-.7 5.9z"/><path d="M209.3 492.4l-1.2-.3c.6-6.9 3.4-6.4 8.1-9.2.4-1.1.7-2.9.3-3.4l1-.7c1 1.5.1 3.9-.1 4.7s-4.4 2.5-6.1 3.4-1.5 3.6-2 5.5z"/><path d="M216.6 493.8l-1.1-.5c1.8-5.1 3.7-9.4 1.2-10.1l.4-1.1c3.8 1.4 1.5 5.6-.5 11.7zM153.5 476.9c-.6-1.4-.6-4.2 1.4-4l-.3 1.2c-.4.2-.3 1.5 0 2.3zM196 493.7c-1.5-4.6-8-2.4-12.9-4.3-8.1-2.6-9.7-3.9-8.3-8.5l.9.8c-.7 3.7 1 4.4 7.7 6.6 5 1.7 12.7-.2 13.7 5.2z"/><path d="M205.8 537.8c-9.7-.3-17-2.8-21.8-9.3-2.3-2.3-11-13.1-10.7-15.6 6.2-19.2-4.9-27.6 1.5-30.1l.3 1.2c-3.8 1.5 2.8 10.7 1.5 17.1.1 9.5-5.5 9.2 1.4 18.1 6.3 7.4 7.9 12.7 17.7 15.9 8.1 4 36.8.4 35.6-15.5 3.3-24.4-26.6-20.7-37.5-9.5 5.1-9.9 24.3-13.9 33.8-6.5 6.5 5.7 4.8 15.7 4.8 16.8 1 10.3-15.1 17.9-26.6 17.4z"/><path d="M175.6 534.1a2.3 2.3 0 01-1.4-.4c-3.1-3.3-2.9-6.8-3.1-12.4s-1.9-8.7 2.8-9.5v1.1c-3.4.5-1.5 3.7-1.8 8.4s-.6 7.4 2.9 11.6a5.7 5.7 0 002.1-.2l.3 1.2-1.9.2z"/><path d="M182.2 543.3c-3.5-1.4-4-8.7-6.5-11.7-1.3 3-1.3-4.8-1-3.8a44.6 44.6 0 014.9 9.4c1.5 2.7 1 5.6 4.1 4.7l.2 1.1-1.7.3zM203.5 540.4c-7.3.6-18-3.1-20.9-10-3-4.1-9.2-13.3-9.1-15 10 16.8 15.6 27.1 38.3 23.4 7.9-1 16.8-4.2 19.8-10.1-1.4 6.7-18.8 12.4-28.1 11.7z"/><path d="M187.2 547c-3.9-1-3.6-2.3-3.5-5.8l-1.2-1.1a8.7 8.7 0 01-.3 1.4c-.2.9-1.5-4.2-.8-3.9a43.1 43.1 0 013.5 3v4a4.3 4.3 0 004.7.7l.3 1.2a15.7 15.7 0 01-2.7.5z"/><path d="M206.7 549.8a141.1 141.1 0 01-15.5-1c-2.5.1-2-2.1-2-3.8l-1.5-.7c-1-.5.1 2.5-1.2.7s-.7-2.8 0-2.5l3.9 1.7c0 .3-.1 3 0 3.2 10.4 1.9 38.9 3.1 43.4-10.9.3-3.4 1.7-11.1-2.7-12.3l.4-1.1c5 1 3.9 9.7 3.4 13.8-1.7 9.5-19.3 12.8-28.2 12.9zM184.2 508.9c-11.2-.1-7.2-10.3-.1-13.3 5-2.3 22.9-6.7 18.7 4.1l-.5-.6c-5.6 1.4-10.6 9.9-18.1 9.8zm12.3-14.8c-25 .2-22.5 23.6-1.1 7.8 1.8-1.7 5.4-3.9 6.7-4 1.4-4.3-2.8-3.5-5.6-3.8z"/><path d="M182.4 505.2c-1.3-.6-1.9-1.2-1.8-2.3 1.2-7.9 18.8-8.8 22.6-7l-.5 1c-2.9-1.7-24.1-.3-20.3 8.3z"/><path d="M185 505.2c-2.7 0-4.2-1.2-4.1-3.4l1.2.2c4.1 7.1 13.7-5.5 19.8-6.5l.4 1.2c-6.9 1.9-10.3 8.3-17.3 8.5z"/><path d="M202.7 499.9a2.6 2.6 0 01-1.9-.7l.8-.8c4.9 2.4 3.6-8.8-.8-4.2l-.9-.7c5.2-5 9.1 5.7 2.8 6.4z"/><path d="M205.7 499.4a4 4 0 01-1.5-.4l.6-1-.3.5.3-.5c4 1.5 3.1-7-1-4.5l-.6-1c4.8-3.3 7.9 6.3 2.5 6.9zM190.8 503.3l-1.1-.3c.9-2.4 4-7.2 8-7.9l.2 1.2c-3.2.5-6.2 4.5-7.1 7zM190.4 516.9H189c-2.5-1.7-1.1-6.2-.4-10.4l1.2.4c-.7 3.5-1.7 7.2-.4 8.8 3 .9 1.7-7.4 2.8-11.1h1.1c-1.3 4.8.7 11.2-2.9 12.3z"/><path d="M190.7 524.1c-2.5.3-1.7-7.1-2.2-7.9h1.2c.2.2.2 6.6 1.1 6.9s-.7-7-.5-7l1.2-.2c-.4 1 2.4 8.3-.8 8.3zM195.9 505.9c-1.2-.3-2-1.7-.8-3.8l1 .7a1.5 1.5 0 00-.1 1.9c2.3-.8 4.2-1.9 7.4-2.6l.2 1.2c-3.2.5-5.4 2.1-7.7 2.6zM212.7 501.2a27 27 0 00-5.8-2.3v-1.1c1.9.2 6.1 2.2 6.3 2.3zM220.8 500c-1.4-5-9.5-2.3-13.1-2.3v-1.1c3.5-.6 15.7-2.1 13 3.4z"/><path d="M223.4 501.6l-1.7-.4c3.8-6.2-14.8-8.8-15.2-7.8v-1.1c1.2-1.4 20.9 2.3 17 9.3z"/><path d="M218.7 501.2l-.4-1.1a1.5 1.5 0 00.9-2.3l.7-1c1.4 1.2.5 4-1.2 4.4zM216.7 500.8c-.9-.9-4.1-3.3-7-3.4l1-.9c1.7.2 5.8 2.5 6.8 3.4z"/><path d="M215.6 499h-1.2a9.1 9.1 0 01.5-2.7l1.1.3a12.4 12.4 0 00-.4 2.4zM198.2 501.1l-.6-1a21.9 21.9 0 014.8-1.3l.3 1.1a29.6 29.6 0 00-4.5 1.2zM213.9 517c2.1-1.8 7.6-3.4 10.8-1.9.9.4.3.3 0 .2a16.8 16.8 0 00-5-.1 21.5 21.5 0 00-5.4 1.7c-.5.3-.9.5-.4.1zM195 491l-1.1-.4c1.7-2.3 11.6-5.6 16.4-3.9l-.7.9c-1.1-1.5-15.3 2.6-14.6 3.4zM210.3 492.8h-.6c.9-3.9.5-4.5 3.3-5.9a16.6 16.6 0 003.5-2c.2-.1 1-.8.3 0-3.5 3.6-5.9 1.8-6.5 8z"/><path d="M195.8 492l-.4-.5a27.9 27.9 0 0114.2-3.5v.6a27 27 0 00-13.7 3.4zM194.5 493.6c-.1-1.7-6.5-1.9-9.3-2.5-5.3-.8-10.7-3.8-9.8-3.9 2 3.1 18.4 3.2 19.7 6.2zM137 534.3c-7.9-.7-21.3-2.8-21.4-12.2 0-6.7-1.8-9.6 3.5-10.7v1.2c-4.2.7-2.3 4.5-2.4 9.3 0 9.9 18.4 12.1 25.5 10.7a19.4 19.4 0 010-2.6l4.7-1.2c.8-.2.7 1.6.7 2.2s-.2.6-.3.2c.1-2.3-3.1-.2-4-.2s0 1.7.1 2.5a29 29 0 01-6.5.8z"/><path d="M148 533.3c-1.3 0-4.4-2.2-4.9-2.5l.6-.9c3.4 2.6 5.7 2.4 9.6 1.1a6.3 6.3 0 00-.3-2.6c.1-.1 5.1-1.4 5.4-1.7s1.1 1.3.7 2.1-.5.2-.5 0c.9-1.8-3.5.5-4.2.4 1.2 3.9-3.2 3.4-6.4 4.1z"/><path d="M158.7 530.5c-1.1 0-2.8-1-4.1-1.5l.5-1.1c5.4 4.3 11.9-3.5 16.7-5.5l.4 1.1c-3.7 1.7-9.1 6.7-13.5 7zM159.6 503.5a9.2 9.2 0 00-2.5-2.9l.4-1.1c1.4.3 5.1 8.8 2.1 4z"/><path d="M136.7 522.8c-35.5-1.4-14.2-39.4 18.9-24.5l-.6 1c-38.2-16.1-52.3 32.4-7 19.9 6.1-1.2 18.3-5.1 23.5-5.2v1.2c-8.5.4-24.9 6.7-34.8 7.6zM163.9 501.1c-6.2.3-7.8-6.7-9.7-11.6-1.4-3.4-.6-5.4 2.7-5.4 10.2-.9 17.4 16.2 7 17zm-7.5-15.8c-3.4.3-.7 4.2-.1 6.3s2.6 7.6 6 8.2c11.3 1.3 3-16.3-5.9-14.5z"/><path d="M163.5 499.3c-.6.1-3.4-2-1.5-1.1 4.3 1.2 2.9-3.6 1.1-6.5s-6.4-3.9-8.9-6l1-.7c2.7 1.7 6.3 2 8.8 6 1.6 2.3 3.8 8.6-.5 8.3z"/><path d="M164.6 498.7c-4.8.3-8.7-9.8-8.9-12.4h1.2c0 1.9 4.3 12.3 8.1 11.2l.2 1.2z"/><path d="M154.6 490.1c-5.8-1-1.4-10.9 3.4-5.8l-.8.9c-3.5-3.8-6.5 3.1-2.4 3.7v1.2z"/><path d="M152.7 489.8c-4.9-.4-2.5-10.5 2.3-6.7l-.7.9c-3.4-2.7-4.4 5.3-1.1 4.6l.4 1.1z"/><path d="M142.6 496.1c-3.4-4.7 3.3-14.8 8.9-13.2l-.2 1.2c-4.7-1.4-10.6 7.5-7.7 11.4z"/><path d="M145.6 496.4c-2.2-4 .7-10.8 4.9-11.6l.2 1.1a7.6 7.6 0 00-4.1 10z"/><path d="M156 494c-3.2-1.4-9.3-1.6-5.2-6.1l.8.9c-3 3.4 2.7 2.6 5 4.1z"/><path d="M155.6 496.2a28.1 28.1 0 00-6.9-1.6c-.6-1.3.5-2.9 1.6-3.5l.6 1a2.9 2.9 0 00-1.1 1.4 35.5 35.5 0 016.2 1.6z"/><path d="M147.5 496.5a2.4 2.4 0 011.5-3l.3 1.1a1.4 1.4 0 00-.7 1.7z"/><path d="M147.6 494.9c-.8-3.8 1.1-8.1 2.8-8.8l.5 1.1c-1.1.5-2.8 4.2-2.1 7.5zM159.6 493.9l-1-.4a8 8 0 000-5.7l1-.6a9.1 9.1 0 010 6.7zM156.1 511.4c-5-1.9-1.6-13.8-.3-17.8l1.2.2c-.6 2.8-1.8 4.8-2.1 8.2s-.6 10 2.3 7.7c-.8-3.7-.8-9.5.5-12.4l1.1.4a20.3 20.3 0 00-.6 10.5c.7 2.2-.5 2.9-2.1 3.2z"/><path d="M160.2 517.4c-1.6 0-3.9-6.1-4.5-6.5l1-.6c.4.1 2.8 6 3.8 5.9s-3.4-6.1-3.2-6.3l1-.5c.1 1 6.2 7.6 1.9 8zM160 485h-1.2c-.5-9.6 9.7.3 16-4.5l.6 1.1c-7.7 4.9-16.1-4.3-15.4 3.4z"/><path d="M153.2 483.2c-1.1-5.4-1.3-10.2 5.2-5.2 1.4.9 3.6 1.1 3.7 3h-1.2c-.3-1.3-4.6-2.5-5.3-3.6-3.1-2.1-1.4 2.9-1.3 5.4zM169 484.7a12.6 12.6 0 01-7.4-2.2 18 18 0 0012.7.9v.6a22.2 22.2 0 01-5.4.7z"/><path d="M158.6 480.9c-.7-.6-4.5-3.2-4.8-2.2s-.3.3-.3-.3h-.6c.5-2 5.6 1.6 5.7 2.5zM135.9 524.7c-8.3 1-17.5-5.1-18.1-9.6-.5-1.5.2-.4.3-.1 12.4 18.8 35.4 2.7 53.3 1v.6c-17.6 2.2-18.8 7-35.6 8.1zM132 506.1a18.9 18.9 0 00-7.1-2.6c-.2-.1-.8-.2 0-.2 2.9-1 9.8 4.1 7.1 2.8zM153.6 461.3c-2.2.3 2.2-2.1 2.4-2.8s-1.2 3-2.4 2.8zM159.3 321.3c-.4-12.4 8.3-20 19.6-21v.6c-10.8 1-19.3 8.3-18.9 20.4zM168.6 297.9a15.6 15.6 0 01-.9-8.9h.5c-.4 3.4-.1 6.6.9 8.7z"/><path fill="url(#f7fa5a91-0373-480d-bf68-4e7bcb5d0560)" d="M111.2 237.9c3.6.1 3.6-5.5 0-5.5s-3.5 5.6 0 5.5z"/><path fill="url(#aa3152b2-ddb1-41ec-a83f-ec76002d4983)" d="M155 219.6c4 .1 4-6.3 0-6.2s-4.1 6.3 0 6.2z"/><path d="M218.5 426.8v-2c.5-.3.6.9 0 .7M220.8 429.8c-3.1 6-7-4.9-1.2-3.3" class="a7ae794f-6ca8-4286-b2f0-ae8a49275721"/><path d="M220.1 427.4l.7-.6M220.4 427.1c.7.1 0 .6-.1.7M220.4 428.1l.6-.3M221.1 427.8h.1M220.5 428.4h.6M220.9 428.4c.2 0 .2.3.2.3M220.6 429.2c.2-.8.9.4.2.3s-.2-.1-.2-.3zM220.2 426.8c-.2-.9-1 .4-.2.2" class="afdec8d3-832f-48b1-98e1-26e60744e21f"/><path d="M207.7 428.8l-.2-2.1c.7-.3.8 1 .1.8M210.5 431.9c-4.1 6.4-9-4.9-1.4-3.4" class="b047c394-d354-4589-ac63-943bcf6d91a2"/><path d="M209.7 429.4l.9-.6M210.1 429.1c.9.1 0 .7-.1.7M210.1 430.2l.8-.3M211 429.8h.2M210.2 430.5h.8M210.8 430.4l.2.3M210.3 431.3c.1-.5.9-.3.7.1s-.8.2-.7-.1zM209.8 428.7c-.2-.9-1.2.6-.1.3" class="f844e99b-05e5-4bfd-8653-ff7bb816d4e5"/></g></svg>