<svg id="e9f3f552-e10a-47d6-a73a-098b3c7f1bce" data-name="Layer 1" xmlns="http://www.w3.org/2000/svg" xmlns:xlink="http://www.w3.org/1999/xlink" viewBox="0 0 317 550"><defs><linearGradient id="b4f91de2-bc4c-4566-aadd-bcdc63996e69" x1="120.04" y1="417.61" x2="222.31" y2="417.61" gradientTransform="translate(0 -8)" gradientUnits="userSpaceOnUse"><stop offset="0.25" stop-color="#a2927f"/><stop offset="0.54" stop-color="#9b8c79"/><stop offset="0.95" stop-color="#897a6a"/></linearGradient><linearGradient id="b1eb10c2-3646-497b-b17d-e0a0d5c38ab4" x1="135.02" y1="338.41" x2="168.51" y2="342.83" gradientTransform="translate(0 -8)" gradientUnits="userSpaceOnUse"><stop offset="0" stop-color="#a91f18"/><stop offset="0.08" stop-color="#b01f16"/><stop offset="0.19" stop-color="#c21e12"/><stop offset="0.31" stop-color="#e01c0b"/><stop offset="0.68" stop-color="#e01c0b"/><stop offset="1" stop-color="#a91f18"/></linearGradient><linearGradient id="fe739e46-6ac5-401d-9f86-9aab3599eb0e" x1="129.96" y1="394.49" x2="158.85" y2="394.49" gradientTransform="translate(0 -8)" gradientUnits="userSpaceOnUse"><stop offset="0" stop-color="#1a263b"/><stop offset="0.27" stop-color="#293a5f"/><stop offset="0.8" stop-color="#293b60"/><stop offset="1" stop-color="#19253a"/></linearGradient><linearGradient id="ebe8600f-3f00-4107-9ef4-1b320e0d8ac2" x1="137.63" y1="488.75" x2="157.9" y2="488.75" gradientTransform="translate(0 -8)" gradientUnits="userSpaceOnUse"><stop offset="0" stop-color="#293b60"/><stop offset="1" stop-color="#19253a"/></linearGradient><linearGradient id="a42621f0-ac86-4853-aa48-771b69a40b44" x1="157.92" y1="494.45" x2="198.68" y2="494.45" xlink:href="#ebe8600f-3f00-4107-9ef4-1b320e0d8ac2"/><radialGradient id="f55b8889-2f01-43b5-967d-ddc6406734c3" cx="-618.41" cy="0.38" r="1" gradientTransform="translate(17032.4 501.4) scale(27.22 21.15)" gradientUnits="userSpaceOnUse"><stop offset="0" stop-color="#646464"/><stop offset="1" stop-color="#494949"/></radialGradient><linearGradient id="baead213-dc66-4052-9f21-0e84f18af8e2" x1="155.05" y1="344.72" x2="196.17" y2="338.08" xlink:href="#ebe8600f-3f00-4107-9ef4-1b320e0d8ac2"/><linearGradient id="aee98ed2-d40a-4bcb-ae53-a13501c68666" x1="186.67" y1="431.52" x2="192.86" y2="434.33" xlink:href="#ebe8600f-3f00-4107-9ef4-1b320e0d8ac2"/><linearGradient id="e6d5047e-84d8-4ae1-bb98-0420e914acad" x1="196.61" y1="429.74" x2="202.38" y2="432.29" xlink:href="#ebe8600f-3f00-4107-9ef4-1b320e0d8ac2"/><linearGradient id="ab8ea798-714d-42eb-b6ba-8c04bac509da" x1="177.53" y1="502.88" x2="191.86" y2="499.26" gradientTransform="translate(0 -8)" gradientUnits="userSpaceOnUse"><stop offset="0" stop-color="#282828"/><stop offset="0.26" stop-color="#494949"/><stop offset="0.65" stop-color="#494949"/><stop offset="1" stop-color="#282828"/></linearGradient><radialGradient id="e051d04e-9463-438f-90a5-649ca25aa8a6" cx="-608.21" cy="0.52" r="1" gradientTransform="translate(11671.2 497.2) scale(19 15.39)" xlink:href="#f55b8889-2f01-43b5-967d-ddc6406734c3"/><linearGradient id="e55b0232-2399-466d-b1db-97e2b78d1b37" x1="148.49" y1="508.74" x2="159.49" y2="508.74" gradientTransform="translate(0 -8)" gradientUnits="userSpaceOnUse"><stop offset="0" stop-color="#494949"/><stop offset="1" stop-color="#282828"/></linearGradient><linearGradient id="b9f6b671-f638-4e1e-a42c-54ff9eae2181" x1="139.68" y1="491.28" x2="143.25" y2="492.74" xlink:href="#e55b0232-2399-466d-b1db-97e2b78d1b37"/><linearGradient id="b61e5bf0-634b-45aa-8a78-46e5f483f1db" x1="156.55" y1="459.8" x2="209.2" y2="473.73" gradientTransform="translate(0 -8)" gradientUnits="userSpaceOnUse"><stop offset="0.35" stop-color="#f2b58d"/><stop offset="0.55" stop-color="#efb189"/><stop offset="0.75" stop-color="#e5a67c"/><stop offset="0.85" stop-color="#de9e74"/></linearGradient><linearGradient id="b28ccb09-0b71-4d66-b88d-75e9a179c2ac" x1="128.51" y1="463.78" x2="159.66" y2="460.77" xlink:href="#b61e5bf0-634b-45aa-8a78-46e5f483f1db"/><linearGradient id="fa545dfe-78e9-4ad5-a6eb-5e8e17a35d0b" x1="67.96" y1="202.74" x2="245.85" y2="222.81" gradientTransform="translate(0 -8)" gradientUnits="userSpaceOnUse"><stop offset="0.35" stop-color="#f2b58d"/><stop offset="0.52" stop-color="#efb189"/><stop offset="0.69" stop-color="#e5a67c"/><stop offset="0.77" stop-color="#de9e74"/></linearGradient><linearGradient id="fd3683d1-4612-4f8e-825a-206a4d51f651" x1="149.54" y1="291.35" x2="179.2" y2="291.35" xlink:href="#fe739e46-6ac5-401d-9f86-9aab3599eb0e"/><linearGradient id="bba6d9a0-e85b-4849-a993-1c7579957b90" x1="30" y1="129.7" x2="289.26" y2="129.7" gradientTransform="translate(0 -8)" gradientUnits="userSpaceOnUse"><stop offset="0" stop-color="#4f3721"/><stop offset="0.31" stop-color="#48331d"/><stop offset="0.76" stop-color="#362712"/><stop offset="1" stop-color="#291f0a"/></linearGradient><linearGradient id="af38cfa6-78b5-4692-bb65-0a428393ca1d" x1="144.17" y1="171.07" x2="169.26" y2="171.07" xlink:href="#bba6d9a0-e85b-4849-a993-1c7579957b90"/><linearGradient id="abbea8d5-c1bb-45f3-8762-cb4f6a92804b" x1="81.3" y1="190.7" x2="84.7" y2="184.96" xlink:href="#bba6d9a0-e85b-4849-a993-1c7579957b90"/><linearGradient id="bebaa650-f21a-4f29-b663-938b279eb49b" x1="204.15" y1="416.04" x2="270.63" y2="416.04" xlink:href="#b61e5bf0-634b-45aa-8a78-46e5f483f1db"/><linearGradient id="e82f952c-3939-42bf-b7a8-678cebaf4775" x1="1.24" y1="224.11" x2="76.32" y2="224.11" xlink:href="#b61e5bf0-634b-45aa-8a78-46e5f483f1db"/><linearGradient id="a713387a-7693-4b4a-8ad3-f9f403684d07" x1="76.13" y1="294.32" x2="129.76" y2="279.94" xlink:href="#ebe8600f-3f00-4107-9ef4-1b320e0d8ac2"/><linearGradient id="b052c226-67c0-4c11-837a-a0a8a67a7ee1" x1="221.08" y1="271.64" x2="194.71" y2="271.47" gradientTransform="translate(0 -8)" gradientUnits="userSpaceOnUse"><stop offset="0" stop-color="#bfad95"/><stop offset="0.85" stop-color="#8e7c68"/></linearGradient><linearGradient id="bc7e1853-8eac-4d00-bd16-79fb439c0cc3" x1="188.76" y1="340.97" x2="253.41" y2="332.73" xlink:href="#b052c226-67c0-4c11-837a-a0a8a67a7ee1"/><radialGradient id="a0a9f6f3-dcda-40f4-8a41-55183d6b2ffb" cx="-557.73" cy="-25.91" r="1.02" gradientTransform="matrix(6.93, 2.23, -2.23, 6.93, 3966.22, 1635.66)" gradientUnits="userSpaceOnUse"><stop offset="0.74" stop-color="#8a6f48"/><stop offset="1" stop-color="#533a18"/></radialGradient><radialGradient id="a27f064c-9ad4-4137-a1b9-623358d9a666" cx="-548.35" cy="-28.8" r="1.02" gradientTransform="matrix(6.24, 2, -2, 6.24, 3476.25, 1495.92)" xlink:href="#a0a9f6f3-dcda-40f4-8a41-55183d6b2ffb"/><radialGradient id="bfbab6fd-8f53-4c7d-b982-959ad8d358d0" cx="-365.59" cy="-85.02" r="1" gradientTransform="matrix(2.11, 0.68, -0.68, 2.11, 826.94, 640.19)" gradientUnits="userSpaceOnUse"><stop offset="0.75" stop-color="#fff"/><stop offset="1" stop-color="#fff" stop-opacity="0"/></radialGradient><radialGradient id="a1bf7826-d3d9-40fd-b595-556e1d2798eb" cx="-436.8" cy="-63.11" r="1" gradientTransform="matrix(2.85, 0.91, -0.91, 2.85, 1343.27, 787.22)" xlink:href="#bfbab6fd-8f53-4c7d-b982-959ad8d358d0"/></defs><path id="ba08c5f7-decc-42c7-bb64-331d1e4d095b" data-name="shadow" d="M224.2,471.7a2,2,0,0,1,1.1,2.8c.7,1.1-.2,3.3-.2,3.3,2.9,1,.5,7.1-1.1,10.2,1.9.1,8.8,5,6.5,7.4,9.3,3.4,9.8,14.8,8.3,21.1,3.1.7,3.6,5.1,3.2,9.4,2,12.7-27.3,19.4-52.3,23.1-4.8.5,14.2-8.3,11.3-8.7s-2.5-.5-1.9-2.3l-1,.4s-37.8-7.2-42.2-10.5c-32.9,9.8-38.1,6.1-38.1,6.1l7.9-18.9,39-43.6a4.5,4.5,0,0,1,0-1.8c.2-1,.6-.6.2-1.9s-3.1-13.5-4.5-17.2c-2.5-7.6-4.9-25.8-5.8-31.7l-5.7-2.1c-4.2-3.1-.9-15.5-1.3-22s1.9-8.8-1.4-11.9,2-13.1,2.5-16.8c-1.5-2.7,2.6-12.9,4.4-13.8-.6-8.2.7-33.8,2.2-41.1-22.4-11.6-49.1-29.3-66.6-48.2-4.7-4.3-9.2-4.4-6-10.6-13.1-12.6-21.2.7-30.2-23.7-1.4-2.9-3.5-7.9-4.5-9.5s-29.5-19.1-16-26.4c-2.4-5.2-1.3-9.7,5.1-11.2-4.5-12.3,4-15,11-12.4,7.1-25.8,31,30,31.9,35.3.3,2.1.5-1.3.5-4-1.8-5.4,4.3-27.5,14.8-23.3,8.6,3.7,0,15.7.2,23.3-.9,4.9,2.3,22.2-.1,25.3a50.5,50.5,0,0,0,5.9,6.7c2.1-.9,5.1,2.1,5.7,3.9s9.8,9.5,17.1,14.8c-5.6-6.5-3.6-26.3.6-31.3-10.1-11.9-22.4-31.5-27.2-46-9.2-5.1-19.1-21.6-22-35.2-2.2,5.5-2.1,22.5-2.1,22.5-7.9-9.8-10.8-36.7-6.3-54.2-4.3,2.1-7.2,9-11.4,16.9C68.6,49.5,120-6.7,197.4,6.4,194.9,4,186.1,0,186.1,0c8.5.8,40.8,10.8,48.3,18.8-1.1-4.3-8.2-12.3-8.2-12.3s19.4,10.6,23,21.3c15.6-1.6,37.3,7,37.3,7s-17.6-1.4-22.8,1c18.1,1.2,35.1,15.3,38,22.2-3.3-4.4-9.5-6.2-9.5-6.2,48.8,45.1,11.7,115.1-19.8,158,.1,16.5-22.1,34.6-37.7,29.9l-4.4,4.6c18.7,3.3,12.5,10.5,6,22.4,6.7,4.3,14.7,20.7,18.4,27.9,1.8,4.2,5,20.7,7.4,27.7s7.3,20.2,9.8,25.8c4.2,7.6,2,18.1-3,21.4,2.7,3.1,12,11.9,15,17.7,2.4,3.9,8.2,14.8,12.1,19.5s2,7-1.9,9.1c1.4,5.2-3.4,9.6-8.2,9.5-4.4,8.6-13.3,3.4-13.3,3.4-14.9,6.4-21-9.8-20.2-23.8-.6,1.4-4.4,4.3-4.4,4.3,1.7,6.9-8.2,11.4-15.1,14.9C232.7,434.3,225.9,462.5,224.2,471.7Z" style="fill:#ededf2"/><path d="M211.8,381.7c-9.7,5.7-20,8.8-30.5,12.1a68.1,68.1,0,0,0-14.7,5.4c-.5.4-2.9,2.5-3.6,2.5s-2.6-3.5-3.3-5-.4-5.2-1-7.1c-4.2.1-10.1-.9-14.3-1.4a138.7,138.7,0,0,1-14.4-2.1c-.5,3.6-1.9,8.9-.1,12.3-3-.2-6-3.5-8.4-5.1-.3,3-.6,9.2-.7,12.2s-3.3,19.1,3,19.5c9.1,3.8,12.3,4.2,22,3.6,0,.6-.1,2.4.3,2.9,19.8,10.4,57.5,7.1,74.2-8.2.8-.4,1.1-2.1,1.3-2.9s.8-3.1.7-3.6c-5.1,5.6-22.2,3-17.3-7.5,12.1-8.9,16.8-5.8,14.6-22.9C216.8,386.1,212.6,384.8,211.8,381.7Z" style="fill:url(#b4f91de2-bc4c-4566-aadd-bcdc63996e69)"/><path d="M133.9,365.7c-1.9,6.5-1.8,11.8-3.2,18,8.8,2.8,19.1,2.4,28.2,3.8,1.5-13.1,5.8-25.5,7.3-38.7s-.4-29.5,3.2-44.1c3-9.8,5.5-15,8.5-23.2a52.1,52.1,0,0,0-3.4,5.6,24.4,24.4,0,0,1-7.9,6.8c-6.6,2.5-16.5-1.5-16.9-9h-.5c-6.9,12.5-6.8,28.9-8.4,42.8-.8,8.2-3.2,19.4-4.6,27.5C136,356.4,133.6,364.4,133.9,365.7Z" style="fill:url(#b1eb10c2-3646-497b-b17d-e0a0d5c38ab4)"/><path d="M131.3,386.4l-1.4-.4.7-2.8.2.3c8.7,2.9,18.7,2.6,27.8,3.7v2.5c-3.8.4-10.3-1-14.1-1.4S135,387.4,131.3,386.4Z" style="fill:url(#fe739e46-6ac5-401d-9f86-9aab3599eb0e)"/><path d="M126.3,360.1c-3.5,3.5-4.4,7.8-4.5,12.4.3,1.1-.2,3.6-.5,4.7-1,3-2.8,8.1-3,11.3s7.2,8.8,11.5,10.3c-2.5-5.5.2-12.5,1.2-17.5,1.9-12.2,6.1-29.3,8.1-42.2s2.7-28.7,5.6-41.6c1-4,2.7-10.5,5.3-13.8V281h-5.6l-.4.9c-11.2,7.8-15.1,32.8-16.5,44.5a224.1,224.1,0,0,0-1.7,24.5A70.9,70.9,0,0,1,126.3,360.1Z" style="fill:#293b60"/><path d="M138,479.6a2.9,2.9,0,0,1,.2-3h.6c3.1,6.1,13.5,6.1,19.1,5.5a6.1,6.1,0,0,0-.1,1.9c-2.1,1.4-6.4,1.1-8.8,1a28.5,28.5,0,0,0-3.9-1.1l-.2-.6a33.3,33.3,0,0,0-6.2-3.8Z" style="fill:url(#ebe8600f-3f00-4107-9ef4-1b320e0d8ac2)"/><path d="M160.1,480.2l-1.4.6a3.5,3.5,0,0,0-.6,3.4c-.3.9.2,2.3.2,3.3,5,4.4,12.6,4.1,18.6,5.7l.6-.9a29,29,0,0,1,6.5-2.1c2.2-.5,5.5-1.4,7.7-.5,1.6-1.6,4.8-3,6.8-3.9,0-1.6.4-3.5,0-5l-.9-1.1c-2.5,4.9-6,6.7-11.2,8.1s-12.6,1.7-18,.2C165,486.9,160.2,484.3,160.1,480.2Z" style="fill:url(#a42621f0-ac86-4853-aa48-771b69a40b44)"/><path d="M166.5,506.1l-1.4-.6-.6-.9v-1.1c2.4-4.5,9.2-5.3,13.8-5.7a12.2,12.2,0,0,1-3,3,21.4,21.4,0,0,0-2.5,4.1C171.2,506.1,168.4,506.2,166.5,506.1Z" style="fill:#494949"/><path d="M158.1,486.1a3.8,3.8,0,0,0-1.6,1.2c-.2,2,.9,4.8,1.5,6.6l1.2,6.1a69.9,69.9,0,0,1-.7,8c-.4,1.9-1.4,4.3-1.2,6.3,3,7,9,14,14.6,19.1,2.6,1.9,7.3,2.7,10.3,3.7a37.6,37.6,0,0,0,17.3-1.6c11.2-3.9,13.8-8.8,13.3-20.4-1.7-6.9-3.2-10.1-10.5-12.1-1.6-.2-5.1-.7-6.6-.7l-6.1,1c-2.6.5-5.9,2.2-8.3,3.1l-.8-.2-2.4.7-.6-.7v-1.5l-2.1,1.7c-.6,3.2-.6,7-1.2,10.2l-.6.7.7,6.3-.3.7a2.9,2.9,0,0,1-1.3,0l-.2-.3-.7-6.6c-1.7-1.5-.2-6.7-.1-8.8l-3,1h-3.3c-1.7-.4-4.1-1.3-4.6-3.2.2-3.6,3.6-6.7,6.6-8.3s7.9-2.4,11.8-2.2c-.8-2.8-3.2-2.9-5.6-3.3-5-.9-11.7-1.4-15.3-5.3v-1.1Z" style="fill:url(#f55b8889-2f01-43b5-967d-ddc6406734c3)"/><path d="M166.7,346.5c-1.4,9.4-4.3,22-6.2,31.3-1.4,5.4-3.6,19.2,2.2,23.8h.8a27.2,27.2,0,0,1,3.8-2.9c1.4-.6,11.6-4.1,13.3-4.7,9.7-2.6,22.1-7.1,30.9-12.1-1.9-8.2-7.7-16.7-11-24.5-2.1-5.8-4.9-14.2-7.2-20s-6.8-13.8-9.3-19.8c-4.4-14.4,1.9-44.3,20.8-45.1-.1-.6-8-4.7-8.6-5.1a26.1,26.1,0,0,0-7.2-2.2c-2,1.3-7.8,5-9.8,5.9l-.3.5c.4,1.2.2,5,.2,6.3l-1.7,5.1c-1.8,4.8-4.9,11.8-6.5,16.8C166.1,313.9,167.4,331.9,166.7,346.5Z" style="fill:url(#baead213-dc66-4052-9f21-0e84f18af8e2)"/><path d="M184.8,422.9s-.2-2,.5-2.2l7.6-1.3c2.2-.3,1.1,7.5,1.3,8.4s-9.4,2.1-9.1,2.1l-.3-.3Z" style="fill:url(#aee98ed2-d40a-4bcb-ae53-a13501c68666)"/><path d="M195.7,421.1V428l.3.3c9.6-2.8,8-.6,7.6-10.3-2.1-.2-5.6.6-7.6,1l-.5.6Z" style="fill:url(#e6d5047e-84d8-4ae1-bb98-0420e914acad)"/><path d="M191.8,489.4c1.8-1.3,4.6-2.7,6.5-3.9l1.1.3.5,1.2c-.7,2.7-1.2,6.7-2.4,9.3a14,14,0,0,0-7-1.2C190.8,493.6,190.8,490.7,191.8,489.4Z" style="fill:#494949"/><path d="M190.1,489.2l1.6.4-.7,1.7a15.1,15.1,0,0,1-.6,3.7h-2.2a3,3,0,0,0-2.1-.4l-.6.4h-2.3l-.4.7-4-.3a10.6,10.6,0,0,0-1.9-2.3c.4-.8,2.1-1.4,2.9-1.6l5.7-2.1Z" style="fill:url(#ab8ea798-714d-42eb-b6ba-8c04bac509da)"/><path d="M106,517.8a10.8,10.8,0,0,1-1-7.3l1-3.7a16.7,16.7,0,0,1,4.1-5c4.5-3.2,11.4-4.5,16.8-3.8a27.2,27.2,0,0,1,11.9,2.6,24,24,0,0,0,0,11.3l1.7.4,2.9,5.4c-4.5,2-12.6,3.5-17.3,4.9C119.4,523.8,110.9,522.9,106,517.8Z" style="fill:url(#e051d04e-9463-438f-90a5-649ca25aa8a6)"/><path d="M147.6,517.1l-2.7.5v-.7a40.5,40.5,0,0,1-3.2-5.4,44.7,44.7,0,0,0-.7-4.7,19.5,19.5,0,0,1,1.2-7.2l1.9,1.9,2.3,1h2.4l2-1.1c2.1-3.5.1-6.8-1.4-10-1.4-1.5-4-3.4-6.1-3.7-.3-8.5,7.2.9,14.6-3.7.1.4.2,1.3.3,1.7a3.5,3.5,0,0,1-1.3,1.1c-.9,1.6.1,3.9.8,5.4l.7,3.8c2.2,4.6-.6,14.1-1.3,17.9-1.3.2-2,.3-2.2,1.8s-2,.3-2.6.3Z" style="fill:url(#e55b0232-2399-466d-b1db-97e2b78d1b37)"/><path d="M137.6,485.6c-.1-1.6-.7-4.3-.2-5.8l1-.5c.7,0,2.3,1.3,2.9,1.7s3,1.5,3.9,2.1v.6h-1c-.8.9-.8,2.6-1.2,3.8l-2-.3c-.2-.6-1.5-1.2-2-1.5l-.8.4Z" style="fill:url(#b9f6b671-f638-4e1e-a42c-54ff9eae2181)"/><path d="M102.7,527.4c-1.1-.4-1.2-8.6-1.1-8.6s.1-4,1.1-5.2l1.9-.5c-.4,8.1,13.4,10.4,18.7,10a102.9,102.9,0,0,0,10.9-2.9c2.6-.6,6.7-1.2,9.1-2.3.2.5,1.9-.2,1.9-.5,2.7-.5,6.6-1.6,9.3-1.8l1-1.6,1.5-.3c.2,1.7,2.6,5.2,3.5,6.5,4.1,5,5.7,9,12.5,13.8,11.7,6.4,34.4,3.9,39.1-9.7,3.9.7,3.3,9.3,3,10.9.3,14.7-35.9,15.2-42.8,12.2V546l-2.7.5-2.5-1.3a12.2,12.2,0,0,1-.1-2.7l-2.6.3c-2-1.8-3-6.9-4.4-9.1a4,4,0,0,1-2.4.2l-2.6-3.8-.3-5.7h-1l-5.9,4.2a34.9,34.9,0,0,0-5.3,2.2l-3.8-1.5-1.2.2a11.3,11.3,0,0,1,0,2.6c.1.3-5.5,1.1-5.8,1.1l-4.1-2.1h-.3l-.3,2.6C122,535.5,106.4,532.3,102.7,527.4Z" style="fill:#262626"/><path d="M102.7,513.7c1.9,11.3,15.6,12.5,25.2,10.8s17.1-5.7,26.8-6.9v-1.8c-8.7.8-19.4,4.5-27.8,6.5l-4.8,1-4.3-.2c-5.2-1.8-12.6-2.7-13.2-9.7Z" style="fill:#303030"/><path d="M157,513.9l-1.2.2c1.7,6.1,11.7,22.1,18.1,24.1,12.3,4,37.3,2.6,39.6-12.9l-1.3-.8c-3.6,12.8-25.5,15.6-37,10.7a29.3,29.3,0,0,1-11.1-10.1C162.2,522.3,157.1,517.5,157,513.9Z" style="fill:#303030"/><path d="M127.5,498l3.1.2c-2.1-2.9.8-9.8,4.2-10.2.1,1.5-1.2,2.8-2,3.9a14.3,14.3,0,0,1-.3,2.9v2.3l-.7,1.4a36.1,36.1,0,0,1,7.1,2.1c-.3,1.4-1.4,9.7.6,11.7.6.2,1.7-.4,2.3-.7a15.7,15.7,0,0,0-.5-3.7,17.5,17.5,0,0,1,1-8.2c.7,2.5,8.9,4.5,9.3-.4.9-3.2-2.5-8.7-4.5-10.2l-3.8-1.4v2.7c1.7,1.1,4,2.9,4.7,4.8a14,14,0,0,0,.9,2.9,6.4,6.4,0,0,1-.5,2.4c-2.1-.5-4.8-2.5-5.1-4.8a35.7,35.7,0,0,0,.4-4.6l.6-.6v-2.9l-3.2-.5-1.1-1h-1.9l-.5-.5c-1.3.1-2.7.6-4,.4l-2.3,1C128.1,489.9,125.6,493.6,127.5,498Z" style="fill:#262626"/><path d="M179.8,497.7v-1.9c-6.9,0-16.4,1.7-19,9.1l.4,3c2.8,2.2,7.1,2.3,10.2,1,.2,2.1-.8,6.4.1,8.4l2.1.4.8-.8a62.5,62.5,0,0,1,.7-10.5l2.2-1.5v1.5l.9.7c1.3,0,4.7-1.4,5.9-1.9,3.9-1.3,10.2-2.8,14.4-2.8-1.2-1.5-4.3-2.2-5.6-3.6a17.1,17.1,0,0,1,8.4.9,2.7,2.7,0,0,1-1.4,2.6l3.4,1.1,1.1-1.6c-.3-2-2.4-3.7-4.1-4.4a24.2,24.2,0,0,0-5.2-2.3,23.6,23.6,0,0,0-6.5,0,4.7,4.7,0,0,0-2.6-.5l-.4.4a3.6,3.6,0,0,0-2.3.1l-.8.7a14.1,14.1,0,0,1-4.1-.2l.2,2.2h2.8l-3.6.7c-2,1.7-4.3,4-5,6.5l-2.1.5s-2.2,1.3-3.7.8c-6.7-1.2.4-6.8,3.1-7.2S176.6,498.2,179.8,497.7Z" style="fill:#262626"/><path d="M143,496.5a8.7,8.7,0,0,1,.5-2.8,12.2,12.2,0,0,0-.2-3.3,17.2,17.2,0,0,1,4,3.6l1.1,2.9c.2,1,.6,2.7-.1,3.6S144.4,498.1,143,496.5Z" style="fill:#494949"/><path d="M192.9,498.7l4.1-.3-.4,2.3A10.2,10.2,0,0,1,192.9,498.7Z" style="fill:#494949"/><path d="M171.7,517.5h1.7c0,.6,1.2,6.4.5,6.7h-1.4Z" style="fill:#a8a8a8"/><path d="M140.6,512.6l1.4-1.1,2.9,5.5v.7l-1.4.2Z" style="fill:#a8a8a8"/><path d="M160.1,480.2c-1.1-6.4-1.7-15.7-2.3-22.1l-1.9-20.7.2-1.9c15,3.2,35.9,2.4,50-3.3,1.3,5.2-3.5,22.1-4.2,27.6l-2.3,10.4c-.4,3.8-1.6,9-3.8,12.1-4.7,8.3-33.9,9.7-35.7-2.1Z" style="fill:url(#b61e5bf0-634b-45aa-8a78-46e5f483f1db)"/><path d="M138.8,476.4c-4.7-15.4-9.1-33.5-11.1-49.6,5.4,2,12.1,2.2,17.9,1.9.4,1.5-.6,2,1.5,3.6,3.7,1.7,6,2.1,8.9,3.2,1.1,14.2,1.7,30.7,4.1,44.7a3.6,3.6,0,0,0-2.2,1.8C152.4,482.4,141.5,482.7,138.8,476.4Z" style="fill:url(#b28ccb09-0b71-4d66-b88d-75e9a179c2ac)"/><path d="M149.9,281a11.6,11.6,0,0,0,7.7,10.6c9.7,4,20.9-10.4,19.7-18.8,4.5-4,8.2-3.8,15.7-10a211.6,211.6,0,0,0,15.7-15.5c16.5,5.3,37.1-12.6,37.3-30.1-2.6-25.4-42.5-9.5-39.8,10.8-1.2,1.9-3.2,4.7-5.2,5.8,3.5-8.6-6.8-20.1-10-26.5-1.9-4-3.9-9.8-5.4-13.9-.7,1.4.8,9.7.9,11.4-5.4-11.4-7.5-20.2-10.6-33.8s.7-34.5,3.8-47.8l-.5-.3c-3.2,6.8-5.5,15.5-6.9,22.9a50.5,50.5,0,0,1-5.4-16c-2.2,4.2.7,15.8,2.2,19.4-11.6-7-25.1-18.3-25.3-33-3.1,4.4-5.5,17.2-5.9,22.4-2-3.2-3.5-14.6-3.2-18-7.4,21.4-1,49,18.3,61.5-1.1,1.7-19.8,1.6-19,1.4l-11.7-2.3c-10.1,3.3-22.1-2-31.2-6.2-1.4.9-5.4,7-9,7.5-8.2.1,1.2-10.1,2.7-10.6-.9-1.5-7.1-5.8-8.6-6.9-2.9-2.9-6.8-7-8.8-10.6-2.2,9.3,1.7,20.7,4.5,29.5s7.5,17,11.6,23.7a185.4,185.4,0,0,0,14.3,19.9C80.3,263.4,119.1,282.4,149.9,281Z" style="fill:url(#fa545dfe-78e9-4ad5-a6eb-5e8e17a35d0b)"/><path d="M122,259c2.1,2.8,6.3,6.6,9.6,7.9,2.1-1.5,3.8-3.2,7.1-1.8,1.3-1,5.1.9,6,1.9a68.1,68.1,0,0,0,8.9-11.7c-2.4,2.1-9.7,2.5-12.3,1.8l-.2.8-1.2,1.1a5,5,0,0,1-3.2-.2l-1.3.5-2-.2-1.9-1.3C128.7,259.5,125,259.6,122,259Z"/><path d="M150.4,287.6a18.1,18.1,0,0,1-.9-3.1l.5-1.1c.4.9,1.6,3.4,2,4.4l3.1,2.8,2.9,1.3c4.5,2.2,11.9-3,14.6-5.8l1.9-2.5,1.7-4.5a18.8,18.8,0,0,0,1.1-6.2l1.5-.9c1.6,7.7-4.8,18.9-12.8,22.3C159.4,295.7,152.4,293.5,150.4,287.6Z" style="fill:url(#fd3683d1-4612-4f8e-825a-206a4d51f651)"/><path d="M40.4,114.5c-2.9,17.5-4.1,38.1,5.3,53.9.6-6.9,1.4-15.1,2.6-22l.6-.5c3,6.6,5.5,15.8,9.2,22.2,3.2,4.1,7.9,11.5,12.9,13.6-2.5-8.7-5.1-18.8-3.8-27.9,5.9,11.2,18.1,18.7,29.3,23.9,7.9,2.8,17.6,6,26,3.3,9.4,2.5,21.4,3.8,30.9,1.4-12.1-8.2-19.5-21.7-21.5-36.5-.5-6.6.2-19.5,2.9-24.4-.3,2.7,1.1,15,3.2,17.4,1.2-7.5,2.2-16.1,5.9-22.9.1,15.5,14.2,25.8,25.7,33.8-2-5.7-4.3-13.3-2.7-19.3,1.4,4.6,2.7,11.1,5.6,15.1,1.4-7.3,3.5-16.4,7.1-23.1-1.5,11.2-5.2,24.1-4.9,35.6.6,15.9,6,33.1,12,47.7-.2-3.6-1.3-7.9-1-11.6.6.6,1.6,3.6,1.9,4.5a62,62,0,0,0,5.7,12.6c5.3,7.4,10.6,16.5,7.2,23a35.9,35.9,0,0,0,5.6-6.1,18.8,18.8,0,0,0,.2-3.4c-.5-9.2,17.2-25.4,30.3-19.7,9.8,3.4,9.6,10.3,9.3,12.2s1-.7,1-.7l11.2-15.9a336.5,336.5,0,0,0,17.7-33.6,127.5,127.5,0,0,0,10.4-26.7c6.8-30.5,3.2-58.3-20.5-80.3a19.6,19.6,0,0,1,8.4,4.5c-4.8-10.9-26.6-19.7-37.9-20.5.4-1.5,20.8-1.9,20.3-1.5-.2-1.9-33.1-8.5-33.6-7.1-3.6-6.3-15.9-15.9-20.6-19.7v.9c1.9,2.9,5.2,6.9,5.7,10.4-5-2.3-13.1-7.5-18.2-9.8-3.4-2-23.6-8.4-27.3-8.2,2.3,1.8,7.5,3.7,9.7,5.7C132.5,6.3,93.5,20.6,65.8,50c-18.6,21.7-33,54.1-35.8,80,2.4-4.8,5.1-11.6,9.3-15Z" style="fill:url(#bba6d9a0-e85b-4849-a993-1c7579957b90)"/><path d="M144.6,161.9c-2.5-3.5,5.5-6.1,9.5-5.6,6.7-.2,16.3,7.2,15,12.9l-.6.5-1.6.2c-3.3-1.9-7.9-4.5-11.6-5.7l-4.5-1.1A19,19,0,0,1,144.6,161.9Z" style="fill:url(#af38cfa6-78b5-4692-bb65-0a428393ca1d)"/><path d="M78.8,180.8c-.2-2.5,2.8-5.5,4.1-7.6l6.4,3.6c-2.6,2.6-5.2,7.1-9.5,5.2Z" style="fill:url(#abbea8d5-c1bb-45f3-8762-cb4f6a92804b)"/><path d="M204.7,415.3c-3.6-10,11.6-8.7,14.5-16.1a31.2,31.2,0,0,0,.4-12.4c8.1,1.5,17.6-3.7,22.7-9.3,8,8.1,13.1,12.7,18.7,24.3,2.4,4.6,5.6,9.8,5.6,9.8,2.8,4,7.6,8.7.3,11.8,2.6,4.7-2.7,10.1-7.2,9.9-1,4.7-10.2,6.5-13.7,3.8-14.8,7.2-20.7-13.6-20-24.2h-.3c-2.6,2.3-2.1,3.7-7.2,5.9s-11.7,1.2-13.8-3.6Z" style="fill:url(#bebaa650-f21a-4f29-b663-938b279eb49b)"/><path d="M60.6,262c-3.3.1-8.6-5.4-11.1-7.1l-1.5-.8c-15.8.7-18.4-9.7-24-20.9-2.3-5.9-5-9.1-10.3-11.9s-19.4-14.9-8.4-21c-3-5.3-1.1-9.9,4.9-11-4.1-7.4,1.8-17.8,10.9-12.5.2-.9.5-2.8.8-3.7,5.5-8.5,13.7,3.5,17.3,8.8,6.2,10.2,9.1,18.6,13.7,28.5.9-7.6.3-11.7,5-20,3.3-5.8,11.5-8.2,14-2.5s-2.1,8.7-2.8,15.5c-1.5,5.3-.2,17.4.2,22.7-.3,2.3-1.2,7.5-1.2,7.5s4.2,4.4,4.7,4.9,3,1.8,3.4,4.5C77.4,251.4,69.5,263.1,60.6,262Z" style="fill:url(#e82f952c-3939-42bf-b7a8-678cebaf4775)"/><path d="M56.2,260.3c11,7.2,22.2-8.8,19.7-18.9l-1.2-1,.4-.4c2.5.1,3.3,1.5,4.4,3.4s5.8,5.5,6.9,6.5c2.7,2.2,8,6.7,10.7,8.8a50.1,50.1,0,0,0,7.1,8.4c11.6,9.2,26,13.6,40.3,13.7l-.6,1.3c-10.4,6.3-12.9,26-15.5,36.8-8.8-4-20.9-11.7-28.8-17.3-11.7-7.9-24.5-17.5-34.6-27.4l-5.1-5.4c-1-1-5-1.8-5.1-4.6S55.1,261.1,56.2,260.3Z" style="fill:url(#a713387a-7693-4b4a-8ad3-f9f403684d07)"/><path d="M131.8,266.8a6,6,0,0,1,6.8-1.6c1.1-.8,5.3.7,6,1.6C142.5,269.4,133.7,269.9,131.8,266.8Z" style="fill:#f44040"/><path d="M131.5,257.9c.6,1,3.6,1.8,4.7.8l.2-.3c.1.7,3.7.6,3.8.3a10.9,10.9,0,0,0,1.3-1.7,16.7,16.7,0,0,0-5.9,0C134.6,257.1,132.2,257.3,131.5,257.9Z" style="fill:#fff"/><path d="M147.5,224.8c-6.6-9.7-4.4-25.6,1.5-34.7s16.7-1.7,18.4,5.5,2.3,17.2-.7,24.8-13,11.1-19.2,4.4Z" style="fill:#fff"/><path d="M119.2,218.8c.1-6.7-1.7-16.3-6.2-22.7S99.9,193,98.3,201C91.4,230.2,118.7,241.3,119.2,218.8Z" style="fill:#fff"/><path d="M190.1,265.2l7.2-6.4c.6-.7,6.7-5.5,6.5-6.5,2.5,1.5,15,2.3,12.2,9.3a78.7,78.7,0,0,1-6.3,13.2c-1.3-.3-4.6-2.4-5.8-3.1l-6.4-3.7C195.6,266.5,192.3,266,190.1,265.2Z" style="fill:url(#b052c226-67c0-4c11-837a-a0a8a67a7ee1)"/><path d="M183.5,316.6c-1.4-10.9-.7-22.4,5.1-32.9,3.1-5.6,12.7-14.2,18.8-10s11.4,12.8,14.4,19.1c4.1,3.6,8.2,17,9.4,21.8,2.7,10.4,6.2,22.8,10.3,32.7,1.9,6.5,7.3,13.9,5.9,21.5-3.5,11.6-18.1,21.4-30.7,17.2-3.9-1.6-4.3-1.9-5.4-5s-2.2-6.7-2.2-6.7c-1.7-2-4.3-7.7-5.4-10.1a106.5,106.5,0,0,1-7.3-19C192.9,336,187.6,325.4,183.5,316.6Z" style="fill:url(#bc7e1853-8eac-4d00-bd16-79fb439c0cc3)"/><path d="M204.8,410.1c-.2-.7,7.7,1.7,7.2,2,2.7-2.9.2-6-3.4-5.2C207.3,407.7,205.4,408.7,204.8,410.1Z" style="fill:#fff;opacity:0.15000000596046448;isolation:isolate"/><path d="M240.4,432.4c-2.1-4,2.8-8.3,6.4-5.8a34.7,34.7,0,0,1,2.1,4.7v.3c-1.5-1-7,0-8,1Z" style="fill:#fff;opacity:0.15000000596046448;isolation:isolate"/><path d="M252.9,430.9c-1.5-3,1.3-7,4.5-4.7.3.6,2.2,3.3,2,4l-.3.2A6.8,6.8,0,0,0,252.9,430.9Z" style="fill:#fff;opacity:0.15000000596046448;isolation:isolate"/><path d="M260.7,426.9c-1.2-1-.1-6.1,2.3-6a4.6,4.6,0,0,1,2.7.7c.4.8,1.7,3.1,1.7,4l-.3.4c-.7-.6-5.4-.4-6,.8h-.4Z" style="fill:#fff;opacity:0.15000000596046448;isolation:isolate"/><path d="M266,418.9c-1.4-1.8.3-6.1,3.1-3.8l1.6,2.9v.4A9.9,9.9,0,0,0,266,418.9Z" style="fill:#fff;opacity:0.15000000596046448;isolation:isolate"/><path d="M103.9,180.8c6.9,2.3,14.8,2.3,17.7.3,4.7,2.6,27.1,4,31.3,1.1-18.4-8.5-26.5-44.3-18.6-62.3.1,3.8.6,12.7,3.9,19.3.9-8.7,2.2-16,5.7-23.4-1.9,12.3,17.3,30.5,25.6,33.3-2.8-1.9-5-17.8-2.3-21.5a32.6,32.6,0,0,0,5.3,17.8c1.2-5.8,1.4-14.6,7.6-24.1-9.9,29.8-5.6,57.1,6.1,83.9,0,0-.3-7.2-.7-11.8.5,1.7,3.9,11.2,6,15,4.6,8.2,13.2,17.4,9.2,26.4,0,0,4.5-4.6,6-7.6,1.6,2.4-4.8,11.1-11.5,15.5,5.9-8.3-5-28.1-7.2-34.2,0,3.8,2.3,9.5,2.3,9.5-10.2-7.7-19.3-30.2-21.4-48.2-.1-.7,1-.7.9-1.4s-1.2-2.6-1.2-3.4c-.4-10.2.1-9.6.1-9.6-8.1-.5-19.2-5.2-24.3-16.6-1.8,3.2-.3,12.8-.3,12.8s-8.3-6.6-9.5-10.4c-2.3,10,12.6,38.2,22.1,41.7,0,0-18.9,10.4-33.1,4.6-9.9,5.6-26.8-2.9-35.1-7.3,0,0-4,6.2-8.4,2.2,4.9,1.3,7.8-4.8,11.2-7.1l5.2,2.4C97.6,177.9,103.3,179.5,103.9,180.8Z" style="fill:#d88b64;opacity:0.6499999761581421;isolation:isolate"/><path d="M81.6,175.1c-4.1-2.7-9-6.5-12.1-11.1-1,1.5,2.5,20.9,5.7,28.5-9-20.2-9.1-25.7-8.3-39.6-.9-.3,9.4,14.2,17.4,18.8" style="fill:#d88b64;opacity:0.6499999761581421;isolation:isolate"/><path d="M229.9,215.1c2.3-.6,7.1-.9,9.1,3.3s-2.7-2-5.6.3c3-.2,8.5,1.6,8.4,10.7-2.1,6-9.3,12.2-14.8,15.2-7.6,4-11.4,4.2-18.6,2.5-22.3,26.6-62.4,44.6-95.7,25.9,18.4,8.7,55.7,8.7,77.9-12.4,15.3-12.5,13.7-15,18.8-17.3,6.6-2.1,9.3-7.5,5.3-12.3C215.1,226.9,225.7,216.2,229.9,215.1Z" style="fill:#d88b64;opacity:0.6499999761581421;isolation:isolate"/><path d="M150.6,283.6a39.3,39.3,0,0,0,21.2-4.7c2.5,9.7-13.7,16.3-19,9,10.2,12.3,25.9-4.6,24.7-15.4-5.3,2.7-15,5.4-20.6,7.5-1,.1-5.9.4-6.8.8Z" style="fill:#d88b64;opacity:0.6499999761581421;isolation:isolate"/><path d="M128,429.1c3.8,2.5,12.7,2.7,16.4,2.8-1.3,3,5.2,6.7,6.9,6.1,3.7,8.5,5.3,32,5.8,40.5a7,7,0,0,0-1.2,1.9c-2.4,2-15.7,0-16.9-4,.6,5.2,16.4,6.8,18.8,5.6l.2-1a5.2,5.2,0,0,0,1.8-1.2c-1.5-14-3.3-30.4-3.9-44.5-3.2-1.1-7.6-2-10.3-4.2a24.3,24.3,0,0,1,0-2.7c-5.6.5-12.7.2-18-2.1.2.3-.6,2.2.4,2.8Z" style="fill:#d88b64;opacity:0.6499999761581421;isolation:isolate"/><path d="M156.1,439.1c9.3,4.6,35.3,2.2,44.1.4,5.5-1.9.3,13.7,0,17.7s-3.8,21.9-6.1,24.9c-6.8,7-21.4,8.1-31.7,1.9,6.5,6.5,15.3,5,24.7,3.6,7.5-1.9,8.5-3.8,10.7-8.2,2.8-14.7,7.7-31.6,8.7-46.5l.5-.8c-5.5,2.4-12.8,3.3-18.7,4.4-10.1,1.3-22.3,1.2-32.2-1.2C156.1,436.2,156.2,438.1,156.1,439.1Z" style="fill:#d88b64;opacity:0.6499999761581421;isolation:isolate"/><path d="M220,391.9s.7-2.4,1-3.6c5.9,2.4,19-3.8,21.6-7.9,0,0,7,4.9,9.1,7.2-4.7-5.2-7.5-8-9.4-10-6.6,6.7-13.3,10.7-23,9.2Z" style="fill:#d88b64;opacity:0.6499999761581421;isolation:isolate"/><path d="M237.5,405.4s2.6,5,6.8,13.6,6.5,10.1,6.6,12.9-1.4,4.3-.2,4.6,6.8.1,8.7-3.4c-1.1,5.1-10.4,7.5-13.4,3.7a9.8,9.8,0,0,0,2.9-4.6c.3-1.4-1.2-3.8-1.8-4.9C243.5,421.2,239.8,412.1,237.5,405.4Z" style="fill:#d88b64;opacity:0.6499999761581421;isolation:isolate"/><path d="M245.3,405.2c1.5,3,11.6,18,13.7,21.1s1.9,4.3,2.7,4.4,4.3-.5,5.3-3.2c-2,4.4-3.7,5.6-7.4,5.8a9.2,9.2,0,0,0,.4-2.9C255,422.5,249.1,413.8,245.3,405.2Z" style="fill:#d88b64;opacity:0.6499999761581421;isolation:isolate"/><path d="M252,402.5c1.8,1.7,11.2,14.3,12.9,16.3s3.4,3.1,5.5.8c-.4,2.7-1.7,2.9-3.4,3.9A217.2,217.2,0,0,1,252,402.5Z" style="fill:#d88b64;opacity:0.6499999761581421;isolation:isolate"/><path d="M226.1,409.2c.8,6,2.8,24.9,12.2,26.7,4.6,1.1,9.4-.5,10.5-3.4-6.3,13.6-20.4,3-22.2-8.5C225.5,418.2,226.3,414.1,226.1,409.2Z" style="fill:#d88b64;opacity:0.6499999761581421;isolation:isolate"/><path d="M204.7,414.3c5.6,7.5,18.9,3.3,21.1-4.6l.2,2.7c-1.8,1.5-2.6,5.8-9.4,7.2s-11.5-1-11.9-5.3Z" style="fill:#d88b64;opacity:0.6499999761581421;isolation:isolate"/><path d="M134.2,459.5c.9.4,2.9.5,1.2-.3l-1.7-.8Z" style="fill:#d88b64;opacity:0.6499999761581421;isolation:isolate"/><path d="M137.3,459.6c1.8,1.9,4.1-3.5,3.2-2.7l-1.4,1.6Z" style="fill:#d88b64;opacity:0.6499999761581421;isolation:isolate"/><path d="M170.1,459.4c.8,3.9,10.6,4.9,7.8,3.5C173.2,461.3,173,461.4,170.1,459.4Z" style="fill:#d88b64;opacity:0.6499999761581421;isolation:isolate"/><path d="M183.2,463.7c4.2,1.6,9.2-8.3,6.1-4.8s-3.7,3.3-3.7,3.3A14,14,0,0,1,183.2,463.7Z" style="fill:#d88b64;opacity:0.6499999761581421;isolation:isolate"/><path d="M117.8,236.1c-.8-16.3,35.7-11.8,26.8,4.7,6.3-10.4-17.4-15.3-21-12.1a44.3,44.3,0,0,0-4.3,3.7Z" style="fill:#d88b64;opacity:0.6499999761581421;isolation:isolate"/><path d="M133.7,272.5c2.3,4.9,9.6,1.4,11.1-1.2C142.2,273.3,137,274.8,133.7,272.5Z" style="fill:#d88b64;opacity:0.6499999761581421;isolation:isolate"/><path d="M168.5,170.1c-4.4,2.6-13.1-5.1-18.2-5s-6.1-1.5-6.2-4.3c1.9,3.1,9.2,2.2,11.9,3.5l8.4,4A15,15,0,0,0,168.5,170.1Z" style="fill:#d88b64;opacity:0.6499999761581421;isolation:isolate"/><path d="M143.4,210.4c-1.2-42.5,35.5-27.6,24.2,6.7C175.8,184.5,145.1,170.9,143.4,210.4Z" style="fill:#d88b64;opacity:0.6499999761581421;isolation:isolate"/><path d="M98.5,219.5C88,185.8,120.3,178,119,217.1,117.2,180.3,91.3,187.3,98.5,219.5Z" style="fill:#d88b64;opacity:0.6499999761581421;isolation:isolate"/><path d="M19.5,176.2c-3.7,6.7,11,25.2,15.4,26-4.8-3.5-15-17.2-13.8-24.9Z" style="fill:#d88b64;opacity:0.6499999761581421;isolation:isolate"/><path d="M9.2,189.6c-1.4,3.8,14,20.2,16.2,20-1.4-.5-14.7-17.1-15.1-20.3Z" style="fill:#d88b64;opacity:0.6499999761581421;isolation:isolate"/><path d="M4.2,201.1c1.8,5.5,11.6,13,16.7,14.5-8.6-6.1-11-8.2-15.8-15.2Z" style="fill:#d88b64;opacity:0.6499999761581421;isolation:isolate"/><path d="M47.1,231.8c-1.6,3.4-.9,14.6,6.3,14.1l-3.3-2.5C48,240.2,47.3,235.6,47.1,231.8Z" style="fill:#d88b64;opacity:0.6499999761581421;isolation:isolate"/><path d="M66.5,237.9a7.9,7.9,0,0,0,2.7-3.5l-.8-.6Z" style="fill:#d88b64;opacity:0.6499999761581421;isolation:isolate"/><path d="M73.7,239.4c3,4-2.5,21.2-9.7,20.8-4.7,2-13-5.4-15.6-6.4l5.4,4.5c3.3,2.4,2.3,3.9,8.8,3.6,9.2-1.2,14.4-11.5,13.6-19.1C76.2,241.6,74.5,240.3,73.7,239.4Z" style="fill:#d88b64;opacity:0.6499999761581421;isolation:isolate"/><path d="M175.8,314a4.6,4.6,0,0,0-2.1,1.2c2.4-.7,8.5-1.6,7.7,4.2s-2.6,12.8-3.3,17.4c.4-1.8,4.6-13.1,4.8-15.8.2,1.8.1,5.3.4,7,.6-4.1,7,11.8,8.5,18,1.3,12.3,15.2,29.6,15.6,38.1l4.7-1.8a59.7,59.7,0,0,1-2.8-8.1c-3-4.1-5.1-9.9-7.4-14.4s-4.4-12.7-6.5-17.7c-2.9-7.1-9.9-21.7-13.2-28.6C180.1,313.5,177.6,313.4,175.8,314Z" style="fill:#162136"/><path d="M183.5,330.1c.4,1,9.2,29.2,6,21.5C184.8,339.6,185,339.6,183.5,330.1Z" style="fill:#162136"/><path d="M167.5,388.5c-2.6-.9-4.1-1.6-1.1-1a19.3,19.3,0,0,0,10.7-.6c5-1.5,8.7-1.3,0,1.1S173,388.8,167.5,388.5Z" style="fill:#162136"/><path d="M164.3,395c-.3-2.6,3.1-4.5,4.9-4.5s-1.1.7-2.7,2.2S164.2,396.2,164.3,395Z" style="fill:#162136"/><path d="M55,264.7c8.9,3.5,9.3,8.5,22.6,18.7s38,25.6,50,26.4c.6-5.7,9.1-25.1,17.2-28.3-10,4.7-15.2,32-16.2,37.4-13.5-6.3-28.1-16.5-40.2-25.2-7.9-6.1-21-16.1-27.2-23.8a24.8,24.8,0,0,0-2.6-1.9l-2.1-1A5.7,5.7,0,0,1,55,264.7Z" style="fill:#162136"/><path d="M98.1,293.1c1.4,1.6,31.5,5.9,32.1,5.9C122.7,300.4,104.2,296.7,98.1,293.1Z" style="fill:#162136"/><path d="M119,275.9c23.8,12.7,25.3-.2,14.5,17.9-1.9,3.9,1.4,1.6,1.4,1.6,1.1-5.5,6.2-11.6,10.7-14.5C137,281.4,126.9,278.7,119,275.9Z" style="fill:#162136"/><path d="M150.4,287.9l1-1.6-1.2-3-.5.6A11.2,11.2,0,0,0,150.4,287.9Z" style="fill:#162136"/><path d="M172.7,289.3a28.6,28.6,0,0,1,2.3-7.7c1-2.3,2.8-6.2,2.2-8.8,1-.7,7-4,8.3-4.7s3.3-2.5,4.8-2.6c-1.8,1-11.7,12.6-12.4,16.3S174.7,287.2,172.7,289.3Z" style="fill:#162136"/><path d="M121.3,377.1c.8,2.7,4.2,9.5,1.5.3C121.9,373.8,121.3,377.1,121.3,377.1Z" style="fill:#162136"/><path d="M130,386.1l2.9.8.2-2.5-2.4-.8Z" style="fill:#162136"/><path d="M156.4,387.2v2.4l2.3.2v-2.4Z" style="fill:#162136"/><path d="M172.8,289.2c-10.2,16.9-5.9,44.6-9.4,65.4-1.7,11.5-6.3,25.3-7,32.6l2.3.3c2.6-16.2,8.3-33.5,8.1-50,.3-10.5,0-23.4,2.9-33.6,1.1-3.3,3.6-10.7,4.9-13.8.4-.8,2.2-5.1,2-6.1C175.3,285.4,174.4,287.8,172.8,289.2Z" style="fill:#961a17"/><path d="M150.4,287.7c-6.3,15.8-4.8,34.3-8,51.8s-6.2,29.4-9.1,44.5a9.7,9.7,0,0,0-2.4-.4c1.9-15.4,6-31.4,8.7-46.7,3-16.9,1.4-36.8,9.8-52.3C149.7,285.4,150.1,286.9,150.4,287.7Z" style="fill:#961a17"/><path d="M156.5,391.7c-.4,3.5,3.1,20.7,9.7,16.5a66.2,66.2,0,0,1,13.3-8c8.1-3.9,23.5-9.1,29.2-12.2,4,4.8,11,1.3,9.6,7.7-.3,2.9-1.3,7.3-6.7,9.5,8.2-3.5,7.9-5.9,8.2-10.6a65.2,65.2,0,0,0-.3-7.7c-2.9-.8-6.2-2.1-7.8-4.7-6.9,3.7-18,7.7-25.5,10.2s-17.8,4-22.9,9.4c-4-1.2-4.5-8.7-4.6-12-9-.9-19.8-1.7-28.6-3.7a27.2,27.2,0,0,0-1.2,10.2,4.7,4.7,0,0,1,.4,2.3c-2.4-.8-6-3.8-8.1-5.3l-.2,2s5.1,6.8,8.7,6,2.1-3.1,2-8.3.3-5.2.3-5.2a86.3,86.3,0,0,0,11.2,2c.8,3.9-2.8,14.6.7,16.9.8,1.5,1.2,22.8-1.6,22.1h3.2c0-6.2.4-15.8.2-22l-1.8-1.4c-1.1-4.6.7-10.6.5-15.3C145.9,390.2,155.8,391.4,156.5,391.7Z" style="fill:#77695c"/><path d="M202.1,391.1c-.8.8,1.2,1.3,4.9,1.4v1.3a34.3,34.3,0,0,1-9.6-1.4l5-2Z" style="fill:#77695c"/><path d="M130,405.4c-.5.4,17.8,1.6,12.2.3C134.7,403.9,135.7,405.2,130,405.4Z" style="fill:#77695c"/><path d="M133.3,410.6a18.1,18.1,0,0,0,5.6-1.1c3-1.1,4.9-1.7,3.7-1.7A36.2,36.2,0,0,0,133.3,410.6Z" style="fill:#77695c"/><path d="M147,390.7c.2.2-.2,13.3-.1,14,.4-2.6,1.2-6.6,1.1-9.3Z" style="fill:#77695c"/><path d="M149.4,406.3c-.1-.3,18.7,1.8,13.8.4C155.4,404.9,155.4,405.6,149.4,406.3Z" style="fill:#77695c"/><path d="M148.3,407.9a24.7,24.7,0,0,1,4.6.8c1.9.6,4.7,1.9,1,1.2C148.5,408.7,150.8,409.2,148.3,407.9Z" style="fill:#77695c"/><path d="M207.3,418.5c2.2,2.2,9.2,3.3,11.2,2.8,5.4,0-14.6,11.7-13.4,11.4,5.4-2.4,11.9-6,16-10.3l1.1-5a25.3,25.3,0,0,0-4.5,1.9A14.9,14.9,0,0,1,207.3,418.5Z" style="fill:#77695c"/><path d="M193.9,420.1c2,10,1.1,10.2-8.8,9.9C194.4,428.5,194.9,431.2,193.9,420.1Z" style="fill:#77695c"/><path d="M195.8,428.4c9.3-.7,9.8-1.2,7.9-10.3a33.9,33.9,0,0,1,.1,7.8l-.3.3Z" style="fill:#77695c"/><path d="M193.3,262.6c.9-.9,6-6.2,7.1-6.8s5.6,2,7.2,3.5l.2.5C203.5,259.7,197.4,261.4,193.3,262.6Z" style="fill:#7e6e5b"/><path d="M196,262.1c-1.5.7-3.1,2,.6,2.6-5.1-.7,13.4,8.9,13.3,9.6l-.6.2c-3.3-2.3-9.1-4.3-12.4-6.8l-2.9-1.6c-.8-.2-2.4-.6-2.9-1.3v-1.1Z" style="fill:#7e6e5b"/><path d="M201.9,338.2a11.4,11.4,0,0,1-2.6,2.3c1.3-1.9,7.7-12.5,9-15.6s.8-.3-1.5,5.2A26.8,26.8,0,0,1,201.9,338.2Z" style="fill:#7e6e5b"/><path d="M212.6,340.3c.4-4,.9-7.2-1,.6s-2.2,19.3-.5,10.6,1.5-11.2,1.5-11.2Z" style="fill:#7e6e5b"/><path d="M182.9,314.7c5,8.9,11.3,20.5,15,30.7s7.9,23.8,15.6,32.5a3.3,3.3,0,0,1-1.9,0c.8,6.8,11.1,9.6,17.5,8-6.2,1.5-8,1.1-12.9,0a23.9,23.9,0,0,0-3.4-2.1,40.4,40.4,0,0,1-3.6-9.5c-3.5-5.3-6.6-13.1-9.5-18.8-.7-2.2-3.5-10.4-4-12.5C192.1,334.4,186.3,323.2,182.9,314.7Z" style="fill:#7e6e5b"/><path d="M87.3,178.4h.1l4.4-3.6-6.9-3a32.6,32.6,0,0,0-3.6,2.9c1.2.9,3,1.9,4.3,2.7-1.3.3-2.7,6.3-6,4.3,2.8,1.9,2.4.6,3.9.6S86.5,179.2,87.3,178.4Z" style="fill:#2b1d13"/><path d="M145.1,158.7c-.6,3.4,14,2.7,16.9,6.3s7.1,4.8,7.2,3.7c-1,3.8-10.9-4.3-13.7-4.3-5.6-1.8-7.8-1.1-10.7-2.3l-.7-.9A3.7,3.7,0,0,1,145.1,158.7Z" style="fill:#2b1d13"/><path d="M137.7,110.8c4.6-11.1,7-16.6.8,1.1-2.1,7.7-2.1,21-.4,26.3h-.9C134.6,128.5,133.2,120.2,137.7,110.8Z" style="fill:#2b1d13"/><path d="M184.3,113.4c1.8-2.5,8.4-5.3,4.3-3.9-11.7,4.6-16.5,24.9-17.1,35l.7.2C173.9,134.1,177.5,122,184.3,113.4Z" style="fill:#2b1d13"/><path d="M201.6,233.4c1.2-1.3,3.6-7.3,3.6-7.3,0-15.6,18.7-31.6,36-21.7,13,11.2,33-34.1,41.2-53.7a252.4,252.4,0,0,1-36.3,66.6c-1.8-5.6,1.6-7.5-8.3-11.7-14.8-7.2-32.1,10.2-31.4,21.5A33.8,33.8,0,0,1,201.6,233.4Z" style="fill:#2b1d13"/><path d="M58.5,127.9s-1.7,11.7,5.2,25.4c-1.2,7.5.1,11.5.1,11.5s-1.1-2.2-3.6-6.1c.4,5.4,4.1,10.2,4.1,10.2s0,4.2,3.2,10.6c2.5,1.5,3,1.2,3,1.2A65.3,65.3,0,0,1,68,170.1c-1.6-5.1-2-12.3-2-17.6.1-2-2.3-5.4-4.2-11.1C59.1,133.5,59.3,133.5,58.5,127.9Z" style="fill:#2b1d13"/><path d="M46.7,136.5s-1.1,7.4.5,13.3a7.3,7.3,0,0,1,1.3-3.6C48.2,143.8,47,139,46.7,136.5Z" style="fill:#2b1d13"/><path d="M85.7,141.5c-.2,4.8,5.8,28.7,31.5,40.6,4.2-1,5-.5,5-.5l.2-1.1c-9.4-2-21.4-13.4-26.4-19.8S87,148.3,85.7,141.5Z" style="fill:#2b1d13"/><path d="M256.9,180c-3.3,7.5-10.2,13.6-17.2,17.7,6.1-5.5,12.5-11,17.2-17.7Z" style="fill:#1e140e"/><path d="M245.4,198a8.2,8.2,0,0,1-7.1,4.1C240.6,200.6,243,199.4,245.4,198Z" style="fill:#1e140e"/><path d="M247.2,183c12.8-13.7,20.3-31.3,27.8-48.3C269,152.2,261.2,170.4,247.2,183Z" style="fill:#1e140e"/><path d="M87.6,119.7c-2.6-13.5-.1-27.8,6.1-40a95.9,95.9,0,0,0-6.1,40Z" style="fill:#1e140e"/><path d="M118.4,170.8a68,68,0,0,1-28.2-39.2,90.6,90.6,0,0,0,28.2,39.2Z" style="fill:#1e140e"/><path d="M96.4,91.9c4.1-15.7,12.8-32.6,28.5-39.3-14.8,8.1-22.8,24-28.5,39.3Z" style="fill:#1e140e"/><path d="M54.7,135c-4-13-4.3-28.1,2.6-40.2-5.4,12.7-5.1,26.9-2.6,40.2Z" style="fill:#1e140e"/><path d="M181.7,142.8A73.6,73.6,0,0,1,199.1,100a106.3,106.3,0,0,0-17.4,42.8Z" style="fill:#1e140e"/><path d="M117.7,65.9c12-14.2,29.8-25.3,48.8-25.3-18.9,1.6-35.7,12.3-48.8,25.3Z" style="fill:#1e140e"/><path d="M184.5,55.9c-10.4,10.9-19.3,23.4-23.1,38.2,2.3-15.3,11.5-28.4,23.1-38.2Z" style="fill:#1e140e"/><path d="M49.5,105C50.7,93.3,54,80.3,63.7,72.8,55.2,81.4,52.3,93.6,49.5,105Z" style="fill:#1e140e"/><path d="M192.9,201.2a92.5,92.5,0,0,1-1.9-70.1A110.7,110.7,0,0,0,192.9,201.2Z" style="fill:#1e140e"/><path d="M193.7,188.1c2.2,9.1,7.5,17.7,7,27.2-1-9.4-6.3-17.7-7-27.2Z" style="fill:#1e140e"/><path d="M247.3,77.7c8.3,18.6,2.7,39.9-5.6,57.5,6.8-18.1,12.4-38.5,5.6-57.5Z" style="fill:#1e140e"/><path d="M250.7,124.6A53.4,53.4,0,0,1,236,155.3a90.7,90.7,0,0,0,14.7-30.7Z" style="fill:#1e140e"/><path d="M262.1,70.7c8,7.4,12.5,19.2,9.5,29.9,1.3-10.9-2.9-21.5-9.5-29.9Z" style="fill:#1e140e"/><path d="M142.1,74.8c-15,21.9-25.6,50.4-17,76.8-10.2-26,.6-55.7,17-76.8Z" style="fill:#1e140e"/><path d="M136.9,101.1c4-11.8,10.2-23.4,20.3-31.1-9,8.8-14.8,19.9-20.3,31.1Z" style="fill:#1e140e"/><path d="M79.2,161c-15.8-14.8-18.8-38.9-11.6-58.6-5.6,20-2.9,42.8,11.6,58.6Z" style="fill:#1e140e"/><path d="M246,154.9c-7.7,14-17.7,27-30.2,37,11.5-11.1,21.2-23.8,30.2-37Z" style="fill:#1e140e"/><path d="M261.3,78.3a42.8,42.8,0,0,1,4,27.9A82.7,82.7,0,0,0,261.3,78.3Z" style="fill:#1e140e"/><path d="M214.3,51.6A60.6,60.6,0,0,1,204.8,73c3-7.1,6.4-14.4,9.5-21.4Z" style="fill:#1e140e"/><path d="M232.9,58.2c6.3,5,7,14.4,7.3,21.9C238.4,72.8,238,64.1,232.9,58.2Z" style="fill:#1e140e"/><path d="M240,51.5c13.3,2.6,23.9,12.8,29.7,24.7C262.6,65.2,252.7,55.7,240,51.5Z" style="fill:#1e140e"/><path d="M156,17.5c14.1,1,27.7,6.1,40.1,12.6C183.1,25,169.9,20,156,17.5Z" style="fill:#1e140e"/><path d="M170.8,52.9c6.4-7,15.9-12,25.5-11.2-9.5.8-18,5.5-25.5,11.2Z" style="fill:#1e140e"/><path d="M183.3,31.5a76.6,76.6,0,0,0-36.5,3C157.9,28.9,171.3,28.1,183.3,31.5Z" style="fill:#1e140e"/><path d="M204.1,49.1c-4.9,4.3-7.2,10.9-10.7,16.3C195.4,59.4,198.2,52.2,204.1,49.1Z" style="fill:#1e140e"/><path d="M224.1,55.4c2.5,7.5.7,15.8-1.2,23.3.3-7.7,2.2-15.7,1.2-23.3Z" style="fill:#1e140e"/><path d="M241.5,58.4c9.5,5.5,17,16.5,17.4,27.6-2.1-10.9-8.9-20.8-17.4-27.6Z" style="fill:#1e140e"/><path d="M149.3,214.2a7.3,7.3,0,0,1,13.8-3.7c3.8,9.8-11.8,17.1-13.8,3.7Z" style="fill:url(#a0a9f6f3-dcda-40f4-8a41-55183d6b2ffb)"/><path d="M106.2,217.6a6.5,6.5,0,0,1,12.4-3.3C122,223.1,108,229.7,106.2,217.6Z" style="fill:url(#a27f064c-9ad4-4137-a1b9-623358d9a666)"/><path d="M161.2,215.5c-1.9,6.7-11.2,3.2-9.5-3.1S163.5,209.3,161.2,215.5Z"/><path d="M116.9,218.6c-1.7,6-10.1,2.9-8.6-2.8S119.1,213.1,116.9,218.6Z"/><path d="M111.8,214.5c2.9,0,2.9-4.5,0-4.4S108.9,214.6,111.8,214.5Z" style="fill:url(#bfbab6fd-8f53-4c7d-b982-959ad8d358d0)"/><path d="M157.2,211.1c3.9.1,3.9-6,0-6S153.3,211.1,157.2,211.1Z" style="fill:url(#a1bf7826-d3d9-40fd-b595-556e1d2798eb)"/><path d="M156.4,229.3c-19,1.1-16.9-41.7-.6-43.5C174.8,186.5,173.7,229,156.4,229.3Zm-.6-42.9c-14.9,2.1-17.3,42.6.6,41.8s16.4-41.4-.6-41.8Z"/><path d="M144.9,281.9c-31.4.5-64.6-23.9-47.8-54.3C85,215.3,60.6,172,66.1,150.9l2,2.9c-6.2,20.2,21.2,64.6,30.5,73.7-21.4,37.9,33.8,60.7,63.1,50.2,16.3-3.2,38.5-20.8,46.8-31.4,15.8,6.3,43.6-17.2,35-36.1-7.6-9.8-24.9-6.1-32.4,5-3.6,5-5.5,10.3-4,14.8.2.5-.1.8-.4.2-1.8-4.8-1.4-10,2.4-15.2,8.1-11.7,27.1-16.5,35.3-5.5,9.6,18.9-18.1,45.2-35.5,38.5-13.9,16.9-40.2,34.3-64,33.9Z"/><path d="M140.1,429.3c-6.4-.2-16.8-2-20-6.8-.8-8.5.4-21.5.8-30.1H122c-.4,6.3-1.5,26-.8,29.6,3,5.2,20.9,6.9,24.8,5.7v1.1a35.9,35.9,0,0,1-6,.4Z"/><path d="M161.3,292.8c-8.7.1-12.2-8.1-11.9-12.3h1.1c2.4,20.6,26.8,9,26.4-7.8H178c-.8,10.2-5.6,18.2-16.7,20.1Z"/><path d="M204.5,266.1a30.8,30.8,0,0,0-15.3-.4l-.3-1.1c4.3-1,10.2-.6,15.7,1,.8.4.7.8-.1.5Z"/><path d="M162.4,295c-7.4.8-13.7-5.9-13-11.1h.6c-.6,5.5,6,11.6,13.7,10.4,9.3-1.2,15.5-13.9,15.2-21.2h.6c.2,7.9-6.7,21.9-17.1,21.9Z"/><path d="M204.8,432.8l-.5-.3c2.2-5.3.8-9.4,1.1-15.6h.6C205.7,423.2,207.2,427.4,204.8,432.8Z"/><path d="M125.8,359.8c-.5-21.1-.1-66.4,20-79.5l.5,1c-19.5,12.9-19.9,57.9-19.4,78.5Z"/><path d="M188.9,265.8l-.8-.7c5.4-3.8,16-6,22.9-6.4.2.4-.3.8-2.9,1.3C202.2,260.3,193.3,263.1,188.9,265.8Z"/><path d="M207.5,257.3a40.1,40.1,0,0,0-5.5-2.8l.4-1c3.1,1.1,5.9,4.2,5.1,3.8Z"/><path d="M207.9,259.9c-1.4-1.8-6.5-3.2-8-3.7l.4-1.1c2,.7,6.8,2.5,8.3,4.4Z"/><path d="M210.1,275.4l-1-.5c6.4-13.7,13.8-17.4-5.8-21.9l.3-1.1c18.3,4.1,15,7.8,6.5,23.5Z"/><path d="M142.2,184.4c-18.5.4-30.5-4.9-43.8-20.4-4.3-4.7-11.1-13.7-12.7-22.7-.2-1,.4-1,.6,0,10.2,30.3,37.7,45.2,65.3,40.7-22.3-11.8-24.7-54.5-14.1-71.9,3.8-7,3.6-4.7,1,.5-10.1,20.3-8.2,58.5,17.2,72.1-4.2.7-9.2,1.7-13.5,1.7Z"/><path d="M171.6,151.8c-19-12.2-27-21.3-28.3-33.9-2.1,4.6-5.3,15.1-4.7,23.6-3.9-6.4-5.6-18-3.9-24.7l1.1.3c-1.3,4.9-.5,13.6,1.7,19.5a58.8,58.8,0,0,1,6.3-22.4c1.7,14.3,5,20.2,24.2,33.5-3.7-9.8-2.6-16.9-.7-24.1-.7,6.3,2.3,15.8,4.7,19.8,1-5.6,5.2-25.5,13.7-31.9s.8.8.8.8c-10.8,10.7-13.6,34.4-13.9,35.9a62.3,62.3,0,0,1-5.8-15.7C166.5,137.8,168.4,146.2,171.6,151.8Z"/><path d="M198.5,237.1c8.8-12-10.1-27.7-12.4-41,.5,5.2,2.1,15.2,2.1,15.2-11.5-22-21.4-64.2-6.2-95.2l1.6-.3c-10.9,19.8-10.4,61.5,2.3,86.5-1.1-5.5-1.5-10.2-.3-14.9.3,17.7,18.8,32.6,16.3,44.8a38.9,38.9,0,0,0,4.4-6l.2,2.1C202.5,234.6,201.4,233.9,198.5,237.1Z"/><path d="M145.1,239.6c1.4-13.7-27.4-14.9-27.3-1.2,0,.5-.2,2.6-.3,0C117.3,218.5,152,228.7,145.1,239.6Z"/><path d="M111.6,231.1c-17.6.8-20.1-36.7-5.1-39.4,12.6,0,20.1,37.9,5.1,39.4Zm-5.1-38.8c-13.9,2.9-10.8,38.5,5.1,37.7C124.9,228.3,117.6,192.5,106.5,192.3Z"/><path d="M115.7,183c-30-1.5-56.1-27-57.5-55.4-.1-1.2.3-1.1.4,0,.8,8.6,6.3,21.3,11.8,29.4,5.6,11.7,41.5,29.3,52.4,22.8l1.6,1.3a19.6,19.6,0,0,1-8.7,1.9Z"/><path d="M67.8,170.4c-4.7-1.1-10.6-20.1-7.1-12.7.8,2,3.5,8.6,7.4,10.9Z"/><path d="M70.9,182.6c-12.4-6.5-22.7-29.1-24.1-47.5,0,0,1.2,10.4,10.3,29,4.7,9.7,11,15.4,13.7,16.5v2Z"/><path d="M245.8,218.8l-.6-2c35-42.7,67.3-120.4,17.6-158.6,3.3,1,3.9.5,9.7,4.2-8.7-10.2-27.7-19.3-40.9-17.8,6.8-2.8,16.2-3.4,22.8-2.9-9.2-2.5-26.3-7.2-32.2-5.7-2.2-5.4-12.8-14-19-18.9,2.4,3.1,5,7.4,5.9,11.6-19.1-13.1-38.3-18.2-44.8-19,2.1,1.1,5.3,2.8,10.2,5.6C97.9-.2,41.9,58,30.4,127.4c2.5-5.3,6.3-12.9,11-14.2-3.2,6.2-3.9,44.1,4,53.8.3-4.9,1.2-18.7,2.9-22l1,.5c-2.1,4.5-2.9,24.1-2.9,24.7-9.2-8-10-44.8-6.6-55-7,6.5-9.5,16-11.5,20.3C35,67.2,91.2-1.4,169.8,13.8c-10-5.4-7-3.8-12.3-5.9,6.4.8,19.4-.4,49.7,18.1-2.3-6.2-8.2-12.2-8.2-12.2l.7-.9c.8.6,19.5,14.3,23.2,21.7,8.4-1.4,36,7.1,37.2,7.5l-.2,1.1c-.1,0-11.7-1.4-20.7.3,13.3,1.4,34,12.8,38.4,25-2.6-3-7.3-6.8-10.2-7.8,45.8,42.2,12,115.2-21.6,158.1Z"/><path d="M81.8,183.1c-8-.9-.8-8.6,3-12.2l.7.9c-3.3,2.8-10.4,11.2-2.5,10,2.1-1.3,5.7-5.5,8.2-7.5l.7.9c-3.3,2.2-6.4,7.6-10.1,7.9Z"/><path d="M168.2,170.5c-5.9-1.8-11.3-6.8-18.2-6.9-3.3-.4-6.2-.8-6.2-2.9,3.4-10.4,23.1-2.6,25,3.4,1.5,2.5,2.2,6-.6,6.4ZM153,156.8c-7-.2-12.4,5.4-2.9,5.7,6.9-.3,13,6.3,18.7,6.6.6-6-7.5-12.2-15.8-12.3Z"/><path d="M216,238.8c2.2-4.6-1.8-6.8-2.2-7.2,1.9-5.6,12.1-19.9,21.3-16.6,2.4,1,.4.5-.1.4a9.1,9.1,0,0,0-5.9.9c-6,2.8-11.7,10.6-13.2,15,5.4,4.4-2.3,11,.1,7.5Z"/><path d="M226.8,225.8a20,20,0,0,0,2.7-10.6h1.1C231.8,217.1,225.8,229.4,226.8,225.8Z"/><path d="M154.4,255.7l-.8-.8c1.9-1.5,5.2-6.5,6.4-7.1-1,2.5-3.5,5.6-5.6,7.9Z"/><path d="M123.1,260.4c-8.4-4.8-8.7-6.5.5-1Z"/><path d="M162,247.4c-.5-1-2.1-1-3.3-.5l-.5-1c1.5-.8,4.3-.6,4.9,1.2Z"/><path d="M153.2,483.1c-17.7.5-15.9-11.8-20.3-26.2-2.1-7.7-5.6-26.2-5.8-30.5h1.1c.6,9.9,7.1,36.1,10.1,46.9,1.5,9.1,13.2,9.1,19.5,8.4v1.1a33.8,33.8,0,0,1-4.7.3Z"/><path d="M176.8,489.4c-18.8.3-17.7-8.8-19.1-25.4-.7-8.2-2.1-24.5-2.4-28.9h1.1c.3,4.4,1.7,20.7,2.4,28.9,2.5,13.5-1.8,18.5,8.6,23.2,4.7,1.8,15,1.4,20.5,0,10-2.7,9.4-10.3,11.5-19.1s5.7-23.4,6.5-36.2H207c-.8,12.8-5,27.8-6.5,36.3C198.9,483.6,193.2,490.1,176.8,489.4Z"/><path d="M125.1,260.1a8.3,8.3,0,0,1-4.3-1l-.3-1.4c4.9,3.1,10.4-1.2,16.3-1.6s14,1.7,18.6-3.2l-.3,1.9c-4.5,4.4-12.3,2.8-18.3,2.5s-7.2,2.9-11.7,2.8Z"/><path d="M137.8,269.6c-8.1-.7-13.2-7.6-18.5-11.4v-1.1c6.3,4.4,16.7,16.3,25.4,9.2,4.5-4.4,7.5-10.3,12.5-15.4l1.3-.4c-7.4,7.1-9.3,18.7-20.7,19.1Z"/><path d="M137.9,274.3a8.6,8.6,0,0,1-3.8-1.3c-1.4-1,.5-.2.8-.1a12.8,12.8,0,0,0,8.8-1.1C147.1,270.1,140.1,275,137.9,274.3Z"/><path d="M134.4,260a3.5,3.5,0,0,1-3.1-1.8l1-.5a2.3,2.3,0,0,0,3.9.1c1.3,1,3.9,1.3,4.5-.8l1.1.4c-.7,2.4-3.6,2.8-5.4,1.8a2.4,2.4,0,0,1-2,.8Z"/><path d="M144.4,267.3c-2.2-2-4.6-3.1-6.4-.9s.7-6.4,7.2.1Z"/><path d="M132.3,267.5l-.9-.7c2.8-3.6,5.8-3.2,7.8-2.2l-.5,1c-2.4-1.1-4.6-.5-6.4,1.9Z"/><path d="M133.3,370.7c-.6,10.3-5.3,19.2-3.2,28.1-3,1.2-9.4-5.3-10.9-7.6-3.9-4.5,2.4-15.1,2.5-18.9l.9,1.2c-2.6,11.9-8.5,16.2,6.3,24.4-1.6-3.1.3-10.2.9-13.7,2.4-14.4,8.4-40.5,10.1-53.2s2.4-37.8,9.9-48.2l.9.7c-7.4,10.3-8.1,33.9-9.7,47.7-.7,7.6-5.6,29.3-7.7,39.5Z"/><path d="M178,283.3l-1-.5c1.6-3.6,3.9-9.1,7.8-11.2-4,3.4-5,8-6.8,11.7Z"/><path d="M226.6,306.2c-2-7-8.6-20.2-12.2-26s-18.6-13.9-25.6-14.4v-1.1c7.2.4,21.4,8.8,26.5,14.8s10.7,20,11.7,28.4l-.4-1.7Z"/><path d="M223.3,387.5c-5.4.5-12.3-2.8-12.6-6.9s-2.8-6.2-2.8-9.2c1.7,2.6,2.9,6.7,4.1,9.5,7.6,14.1,34.3-1.4,34.8-13.1s-8.1-22.6-10.5-33.1c-4-14.1-9.2-36.4-18.9-49.2l1-.5c9.7,12.9,14.9,35.2,19,49.4,2.4,10.7,11,22.4,10.5,33.7-.3,8-14.7,20.3-24.6,19.4Z"/><path d="M213.2,378.3c-12.9-10-15.1-31.4-22.6-45.5-3.3-7.2-8.3-16.8-10.7-24.1-.1-.3-.7-1.4.4-.2,6.7,13.8,13.6,26.5,18.1,41.2C201.7,359.9,207.5,371.9,213.2,378.3Z"/><path d="M181.7,313.5c-.5-1.2-2.3-3.4-3.5-3.8.5-1,4.4,2.3,4.6,3.4Z"/><path d="M173.9,314.8c2-1.7,7.6-3.1,9.2-.8l-1,.5c-1.4-1.2-6.8-.5-8.1.5s-.4.1-.1-.2Z"/><path d="M177.8,340.2c-.4-6,2.7-16.4,3.8-22.9,0-.3.6-2.8.4-.1C182.2,323.3,177.8,337,177.8,340.2Z"/><path d="M189.6,352.1c-3-4.5-6-15.3-6-20.5,0-.4-.2-2.8.3-.3,1.1,5,3.6,15.7,5.9,20.4C189.9,352,191.2,355,189.6,352.1Z"/><path d="M183.7,317.4c-4.8-13.2,3.5-49.5,23.5-44.3l-.3.5c-19.4-5.1-27.3,32-22.7,43.6Z"/><path d="M213.9,420.4c-8.6,1-14.6-9.3-6.4-13.5,11.2-4.6,13.4-8.2,11.5-20.1l1.1-.2c3.9,23.7-12.1,15-15.2,25.6-.8,8.2,14.4,11.2,20.6-.3l1,.5c-3.6,6.4-8.6,8-12.6,8Z"/><path d="M240.1,439.3c-12.4.5-16.2-20.2-14.7-29.4,0-4.3,1.1-.3,1.1,0,0,3.4-.1,10.4,1.6,15.7,4.3,18.5,23.6,12.7,19.6,4-2.7-3.8-9.3-18.9-10.3-23.6-.3-.9,0-1.1.4,0,1.8,5.4,8.7,19.6,11.5,24.1s-4.1,9.9-9.2,9.2Z"/><path d="M251,439.4a8,8,0,0,1-5.4-1.8l1-1.4c3.8,4.2,15-.6,12.3-6.4-4.4-7-10-15.8-13.7-24-.3-.7,0-1,.4-.1,3.3,6.5,8.1,13.8,11.6,19.2C263.2,431.1,259.7,439.1,251,439.4Z"/><path d="M260,434.1h-.5v-1.6c14.6-3.2,3.1-12.8-1.4-19.8-1-1.7-7.6-11.2-5.7-9.8,3.9,5.6,10.1,13.8,14.2,19.4s-1.1,11.9-6.7,11.8Z"/><path d="M267,424.1l-.5-1.4c4.6-1.7,4.5-4.3,1.2-8.3a126.6,126.6,0,0,1-8.6-14.7c-3.8-9.6-12-15.2-17.3-21.9l.9-.6c4.9,6,14.5,13.9,17.4,22.1a128,128,0,0,0,7.7,13.4c4,4.3,5.2,9.3-.8,11.4Z"/><path d="M211.9,412.4c-1-1.1-5.5-2.5-7.1-2l-.2-.5c1.5-.5,5.9.8,7.2,1.8,2.1-2.5,0-5.6-3.5-4.4v-.5C213.7,405.4,214.5,410,211.9,412.4Z"/><path d="M240.7,432.9c-1.4-.2-1-2.4-.8-4s5.8-4.5,7.4-1.8l-.5.3c-3.2-3.9-8.2,1.8-6.2,4.9,1.5-.8,6.5-2.3,8.9-.6l-.3.5c-2.3-1.5-6.9-.1-8.5.7Z"/><path d="M252.9,431.1c-1.9-1.5,0-8.1,4.5-5.2l-.3.5c-3.3-2.4-5,2.4-4.2,4.1,1.3-1,5.7-1.1,7.1,0l-.4.4c-1.4-1.1-5.5-.7-6.7.2Z"/><path d="M260.8,427.3c-3.2-2.3,1.7-9.7,5.3-5.3l-.5.3c-2.7-3.3-6.6,1.8-4.8,4.4,1.1-1.2,4.4-1.5,6.7-.8l-.2.5a8,8,0,0,0-6.5.9Z"/><path d="M266.1,419.3c-1.6-1.2-1.4-6.2,2.7-4.8v.5c-3-1.1-3.4,2.2-2.5,3.6a7.3,7.3,0,0,1,4.8-.3l-.2.5A6.7,6.7,0,0,0,266.1,419.3Z"/><path d="M128.4,319.8c-21.4-10.3-21.2-11.6-37-23.2-12.3-8.9-23.4-18-30.8-26.5-1.8-2.2-5.5-2-6.1-5.5s1.3-4.5,1.4-4.6l.5,1c-3.3,5,2.4,5.6,5.1,8.4s9.6,9.9,14.6,14c18.1,12.9,29.2,23.5,52.9,34.5Z"/><path d="M22.8,219.7c1.5-5.4,12.4-13.8,16.3-15.9s-4.7,4.2-9,8.3-7.9,10.2-7.3,7.6Z"/><path d="M66.4,237.2c5.1-11.4-1-24.9,2.6-36.9,9.1-18.7-8.6-20.4-13.6-3.4-1.3,4.5-1.6,14.9-1.7,17.7s-.8,4-1.1.1.4-13.6,1.8-18.1c5.1-18.4,25.6-16.2,15.7,4.1-3.6,12.1,3.9,25.7-3,36.7-.4.9-1,.5-.7-.2Z"/><path d="M50.8,215.6c-3.3,3.6.6-4.9,2-4.6l.5,1c-.7.3-1.1,2-2.5,3.6Z"/><path d="M51.9,245.7c-6.2-2.7-5.6-18.9-4.1-12.4.3,10,8.4,13.6,4.1,12.4Z"/><path d="M52.2,212.2c-3.1-9.6-11.1-28.8-18.5-36.5-6.6-9.5-15.1-4.2-11,7.9,2.1,7.2,8.6,15,12.2,18.3.3.3.3.9-.1.6-25-18.2-12.7-55.2,8.7-14,3.6,7.3,7.5,17,10.1,22.4Z"/><path d="M24.4,208.9c-6.4-5.2-14.2-16.6-15.5-21.4C5.6,178.7,15,170.9,21.8,177l-.7.9c-5.7-5.4-14,1.2-11,9.3,1.3,4.6,9.3,15.9,14.7,21.2,2.1,2.2.3,1.1-.4.5Z"/><path d="M20.1,215.4c-13.8-7.8-24.3-23-9.9-26.5V190c-13.1,3.4-1.6,16.8,9.8,24.8C22.1,216,20.6,215.6,20.1,215.4Z"/><path d="M61.1,262.6c-4.2.4-8.1-4.9-12.2-7.4-15.1-1.7-18.1-4.7-23.8-18.4-1.7-3.6-3.6-7.7-4.3-8.9C15.2,221.5-9.4,209,5.1,200l.5,1c-13,8.6,11.6,20,16.2,26.3s5.6,20.3,17,24.8a14.3,14.3,0,0,0,7,1.2c4.3-.8,9.8,6.8,13,7.9,9.4,2.8,18.8-11,16.7-19-1.7-2.2-6.9-6.6-7.8-8.9l1-.4c.7,2.1,6.7,7,7.8,8.9,2.5,6-5.4,21.9-15.4,20.8Z"/><path d="M97,259.6c-3.5-3.3-18.2-15-18.3-16.5a4,4,0,0,0-4.4-2.5v-1.1a5.3,5.3,0,0,1,5.6,3.2c1.3,2.5,14.6,12.8,18.1,16.2Z"/><path d="M59.1,267.6l-2.3-.2v-.5c11.9,3,26-13.7,21.6-24.7l.5-.3c4.5,9.1-7.7,27.2-19.9,25.7Z"/><path d="M129.1,316.1c-4.3-.5-8.3-4.2-10.1-6.2s-.7-1,0-.3a20.6,20.6,0,0,0,10.4,4.9Z"/><path d="M123.8,299.9c-7.3,0-22.2-3.4-25.2-6.7,5.9,3,22.9,6.4,30,5.8s-3.8,1.1-4.8.9Z"/><path d="M221.3,384.9c-5.8,0-9.7-2.8-10.3-4.4l.5-.2c8,12.2,38-5.5,34.6-20.5l.5-.2c2.4,12.1-14.2,25.2-25.3,25.3Z"/><path d="M135.4,459.4a3,3,0,0,1-2.2-1.9l.8-.4c-.1.9,3.6,3,1.4,2.3Z"/><path d="M177.5,463.1a14.2,14.2,0,0,1-6.4-2.7c-1.5-1.1-1.3-1.3.2-.5a62.2,62.2,0,0,0,6.4,2.9c1.6.6,1.1.5-.2.3Z"/><path d="M184.3,463.5c-3.6,1.2,5-4.1,5.2-5s1-1,.1.5-3.3,4.1-5.3,4.5Z"/><path d="M160.4,487c-3.5-2.7-4.7-5.4-.6-7.3l.4,1.1c-3.3,1.3-1.3,3.6.4,6.2C160.9,487.2,160.6,487.2,160.4,487Z"/><path d="M196.8,484.8c-3.3,2.3,3.7-3,.1-4.7l.6-1C200.3,480.7,198.9,483.1,196.8,484.8Z"/><path d="M191,494.7l-1.1-.2c.5-6.6,3.3-6.2,7.7-8.8.4-1.1.7-2.7.4-3.2l.9-.7c1,1.4.1,3.8-.1,4.5s-4.2,2.5-5.8,3.3-1.5,3.2-2,5.1Z"/><path d="M198,496l-1-.5c1.7-4.8,3.6-9,1.1-9.6l.4-1.1c3.7,1.4,1.5,5.3-.5,11.2Z"/><path d="M137.6,479.8c-.6-1.3-.6-4,1.3-3.8l-.2,1.1c-.4.2-.3,1.4,0,2.2Z"/><path d="M178.3,496c-1.4-4.5-7.7-2.4-12.3-4.1-7.8-2.5-9.3-3.8-8-8.1l.9.7c-.7,3.6,1,4.2,7.4,6.3,4.8,1.6,12.1-.1,13.1,5Z"/><path d="M187.7,538.2c-14.3,0-20.1-6.8-27.6-17.2-4.3-6.7-4-5.2-2.9-10.2,4.9-11.4-5-23.7.8-25.3l.3,1.1c-3.7,1.6,2.6,10.3,1.4,16.4.1,9.2-5.2,8.8,1.4,17.4s7.5,12.2,16.9,15.2c7.8,3.8,35.3.4,34.1-14.8,3.2-23.4-25.5-19.8-35.9-9.1,4.9-9.4,23.3-13.3,32.4-6.2,6.2,5.4,4.5,15.1,4.6,16.1,1.1,9.6-14.7,17.2-25.5,16.6Z"/><path d="M158.8,534.6c-4.5-1.3-4.1-7.2-4.4-12.2s-1.8-8.4,2.7-9.2v1.1c-3.3.5-1.4,3.5-1.7,8s-.6,7.1,2.8,11.1a8.2,8.2,0,0,0,2.1-.1l.2,1.1-1.8.2Z"/><path d="M165,543.4c-3.3-1.3-3.8-8.3-6.2-11.2-1.2,2.8-1.3-4.5-.9-3.6a8.2,8.2,0,0,1,1,1.7c1.2,1.1,4.4,9.7,5.6,11.7.3.4.3.4,1.9.1l.2,1.1-1.6.2Z"/><path d="M185.4,540.6c-6.9.6-17.2-3-20-9.6-2.8-3.9-8.8-12.7-8.8-14.4,9.6,16.1,15,26,36.8,22.5,7.6-1,16.1-4,18.9-9.7-1.2,6.5-18,11.9-26.9,11.2Z"/><path d="M169.9,547c-3.7-1-3.4-2.2-3.4-5.6l-1.1-1a8.7,8.7,0,0,1-.3,1.3c-.2.9-1.5-4-.9-3.7a40.9,40.9,0,0,1,3.4,2.9c0,.4.1,2.8,0,3.8a4.3,4.3,0,0,0,4.6.7l.2,1.1a12.3,12.3,0,0,1-2.5.5Z"/><path d="M188.5,549.7a129.2,129.2,0,0,1-14.8-1c-2.4.1-1.9-2-1.9-3.6l-1.4-.6c-1-.5.1,2.4-1.1.6-1.7-4.6,2.5-.8,3.6-.7v3.1c10,1.8,37.3,3,41.6-10.4.3-3.3,1.6-10.7-2.6-11.8l.4-1.1c4.8,1,3.7,9.3,3.3,13.2-1.7,9-18.5,12.1-27.1,12.3Z"/><path d="M166.9,510.5c-10.7-.1-6.9-9.9,0-12.8,4.8-2.2,21.9-6.4,17.9,3.9l-.5-.6c-5.3,1.5-10.1,9.6-17.4,9.5Zm11.8-14.2c-23.8.1-21.6,22.7-1.1,7.5,1.7-1.6,5.2-3.7,6.5-3.8,1.4-4.2-2.6-3.4-5.4-3.7Z"/><path d="M165.2,507c-3.9-2-.4-5.8,3-7.5s14.7-2.8,17-1.5l-.5,1c-2.8-1.6-23.1-.3-19.5,8Z"/><path d="M167.8,507c-2.6-.1-4.1-1.2-3.9-3.3l1.1.2c4,6.8,13.2-5.3,19-6.2l.3,1.1c-6.5,1.8-9.8,8-16.5,8.2Z"/><path d="M184.7,501.9a2.4,2.4,0,0,1-1.8-.7l.8-.8c4.7,2.3,3.4-8.4-.8-3.9l-.9-.7c5-4.9,8.8,5.4,2.7,6.1Z"/><path d="M187.6,501.4a2,2,0,0,1-1.4-.4l.6-1-.3.5.3-.5c3.8,1.4,3-6.7-1-4.3l-.6-.9C189.8,491.6,192.8,500.8,187.6,501.4Z"/><path d="M173.4,505.2l-1.1-.4c.8-2.3,3.8-6.9,7.7-7.5l.2,1.1c-3.1.5-6,4.3-6.8,6.8Z"/><path d="M172.9,518.2h-1.3c-2.4-1.6-1.1-5.9-.4-9.9l1.1.3c-.6,3.4-1.6,6.9-.3,8.5,2.9.7,1.6-7.1,2.6-10.7l1.1.2C174.5,511,176.3,517.1,172.9,518.2Z"/><path d="M173.2,525.1c-2.4.2-1.6-6.8-2.1-7.6h1.1c.3.2.2,6.3,1.1,6.6s-.6-6.6-.4-6.7H174c-.4.8,2.3,7.9-.8,7.9Z"/><path d="M178.2,507.7c-1.2-.3-1.9-1.7-.7-3.7l.9.6a1.5,1.5,0,0,0-.1,1.9c2.2-.8,4.1-1.9,7.1-2.5l.2,1.1c-3.1.5-5.2,2.1-7.4,2.6Z"/><path d="M194.3,503.1c-1.1-.5-4.3-2-5.6-2.1v-1.1c1.8.2,5.8,2.2,6,2.3Z"/><path d="M202,501.9c-1.3-4.7-9-2.2-12.5-2.2v-1.1c3.4-.5,15.1-1.9,12.4,3.3Z"/><path d="M204.6,503.5l-1.6-.4c3.6-6-14.4-8.4-14.6-7.5v-1.1c1.1-1.2,20,2.2,16.3,9Z"/><path d="M200,503.1l-.3-1.1a1.4,1.4,0,0,0,.8-2.2l.7-.9c1.4,1.1.5,3.8-1.2,4.2Z"/><path d="M198.2,502.7c-.9-.9-4-3.2-6.7-3.3l.9-.8c1.6.2,5.6,2.4,6.6,3.3Z"/><path d="M197.1,501H196a15.8,15.8,0,0,1,.4-2.6l1.1.3a12.4,12.4,0,0,0-.4,2.3Z"/><path d="M180.4,503.1l-.6-1a16.4,16.4,0,0,1,4.6-1.3l.2,1.1a22.1,22.1,0,0,0-4.2,1.2Z"/><path d="M195.5,518.2c2-1.7,7.2-3.2,10.3-1.7.8.3.3.2-.1.1a15.5,15.5,0,0,0-4.8-.1,17.4,17.4,0,0,0-5.2,1.7C195.3,518.5,195,518.6,195.5,518.2Z"/><path d="M177.4,493.3l-1.1-.3c1.6-2.2,11.1-5.4,15.8-3.8l-.7.9c-1.2-1.5-14.7,2.5-14,3.2Z"/><path d="M192,495.1h-.6c.9-3.8.5-4.4,3.2-5.6a20.7,20.7,0,0,0,3.4-1.9c.2-.1.9-.7.3,0-3.4,3.4-5.7,1.7-6.3,7.6Z"/><path d="M178.1,494.3l-.3-.4c1.8-1.3,10-4.2,13.6-3.3v.5C187.8,490.3,179.8,493,178.1,494.3Z"/><path d="M176.9,495.8c-.1-1.6-6.3-1.8-8.9-2.4-5.1-.7-10.2-3.6-9.4-3.7,2,2.9,17.6,3.1,18.9,6Z"/><path d="M121.8,534.8c-7.6-.6-20.5-2.7-20.5-11.7,0-6.4-1.7-9.2,3.4-10.2V514c-4,.8-2.2,4.4-2.3,9,.1,9.4,17.7,11.5,24.4,10.2a10.5,10.5,0,0,1,.1-2.4l4.5-1.2c.7-.2.6,1.6.6,2.1s-.2.6-.2.1c.1-2.2-2.9-.1-3.8-.2v2.5a28.6,28.6,0,0,1-6.2.7Z"/><path d="M132.3,533.8c-1.2,0-4.2-2-4.7-2.3l.6-.9c3.2,2.6,5.4,2.3,9.2,1.1a6.1,6.1,0,0,0-.4-2.5c.1-.1,4.9-1.3,5.2-1.6s1,1.2.7,2-.5.2-.5,0c.8-1.7-3.3.4-4.1.3,1.3,3.8-3,3.3-6,3.9Z"/><path d="M142.5,531.2c-1.1,0-2.7-1-3.9-1.5l.4-1c5.2,4.1,11.4-3.4,16-5.3l.4,1.1c-3.4,1.6-8.6,6.4-12.9,6.7Z"/><path d="M143.5,505.3a12,12,0,0,0-2.4-2.8l.4-1.1C142.8,501.8,146.2,509.9,143.5,505.3Z"/><path d="M121.5,523.8c-34.2-1.5-13.5-37.7,18.1-23.5l-.5,1c-36.3-15.4-50.4,30.9-6.7,19.1,5.9-1.2,17.5-4.9,22.6-5v1.1c-8.2.4-24,6.5-33.4,7.3Z"/><path d="M147.5,503h0c-5.9.3-7.5-6.4-9.2-10.9s-.7-5.2,2.1-5.4C150.6,485.7,157.5,502.2,147.5,503Zm-7.2-15.1c-3.3.3-.7,4-.1,6.1s2.6,7.2,5.8,7.8C156.8,503.1,148.9,486.2,140.3,487.9Z"/><path d="M147.1,501.3c-.6.1-3.2-1.9-1.4-1,4.1,1.1,2.8-3.4,1-6.3s-6.1-3.7-8.5-5.7l.9-.6c2.6,1.6,6.1,1.9,8.5,5.7,1.6,2.2,3.7,8.2-.5,7.9Z"/><path d="M148.2,500.8c-4.6.2-8.3-9.4-8.6-11.9h1.1c0,1.8,4.1,11.7,7.8,10.7l.2,1.1Z"/><path d="M138.6,492.5c-5.6-.9-1.4-10.4,3.3-5.5l-.7.9c-3.4-3.6-6.3,2.9-2.3,3.5v1.1Z"/><path d="M136.8,492.2c-4.6-.4-2.4-10,2.3-6.5l-.7.9c-3.3-2.6-4.2,5.1-1.1,4.4l.4,1.1Z"/><path d="M127.1,498.2c-3.3-4.5,3.2-14.1,8.6-12.6l-.2,1.1c-4.5-1.3-10.1,7.2-7.4,10.9Z"/><path d="M130,498.5c-2.1-3.8.7-10.3,4.8-11.1l.2,1.1a7.1,7.1,0,0,0-3.9,9.5Z"/><path d="M140,496.2c-3.1-1.3-8.9-1.4-5-5.8l.7.9c-2.9,3.3,2.7,2.5,4.8,3.9Z"/><path d="M139.6,498.3a29.1,29.1,0,0,0-6.6-1.5c-.5-1.2.6-2.7,1.6-3.3l.6,1a3.3,3.3,0,0,0-1.1,1.3,30.7,30.7,0,0,1,6,1.5Z"/><path d="M131.8,498.7c-.3-1.6.5-2.7,1.5-2.9l.3,1.1a1.3,1.3,0,0,0-.7,1.6Z"/><path d="M132,497.1c-.8-3.7,1-7.7,2.6-8.5l.5,1c-1.1.5-2.7,4-2,7.2Z"/><path d="M143.5,496.1l-1.1-.4a7.5,7.5,0,0,0,0-5.5l1-.5A8.8,8.8,0,0,1,143.5,496.1Z"/><path d="M140,512.9c-4.7-2.1-1.5-13.1-.2-17.1l1.1.2c-.6,2.7-1.7,4.6-2,7.8s-.6,9.6,2.2,7.3c-.8-3.5-.8-9,.5-11.8l1.1.4a19.5,19.5,0,0,0-.6,10c.6,2.2-.5,2.9-2.1,3.2Z"/><path d="M144,518.7c-1.6,0-3.7-5.9-4.3-6.3l1-.6c.3.1,2.7,5.7,3.6,5.6s-3.2-5.8-3-6l1-.6C142.2,512,148.1,518.3,144,518.7Z"/><path d="M143.8,487.6h-1.1c-.5-9.2,9.3.3,15.3-4.3l.6,1c-7.3,4.7-15.5-4.1-14.8,3.3Z"/><path d="M137.3,485.8c-1-5.2-1.3-9.7,5-4.9,1.4.8,3.5,1.1,3.5,2.9h-1.1c-.3-1.2-4.5-2.4-5.1-3.4-3-2.1-1.3,2.8-1.2,5.2Z"/><path d="M152.4,487.3a12.2,12.2,0,0,1-7.1-2.1c1.1.6,5.7,2.5,12.2.9v.5a20.2,20.2,0,0,1-5.2.7Z"/><path d="M142.5,483.6c-.7-.6-4.3-3.1-4.6-2s-.3.3-.3-.3H137c.5-2,5.4,1.5,5.5,2.3Z"/><path d="M120.7,525.6c-7.7,1.1-17-5-17.3-9.2-.5-1.4.2-.3.3-.1,11.9,18.1,33.9,2.6,51.1,1v.6c-16.9,2.1-18.1,6.6-34.2,7.7Z"/><path d="M117,507.8a19.1,19.1,0,0,0-6.8-2.5c-.3,0-.8-.2,0-.2,2.3-.4,5.7,1.2,7.2,2.6S117.4,508,117,507.8Z"/><path d="M137.9,459.6c-2.1.3,2.1-2,2.3-2.6s-1.1,2.8-2.3,2.6Z"/><path d="M140.1,429.5c-6.4-.2-16.8-2-20-6.8-.8-8.5.4-21.5.8-30.1H122c-.4,6.3-1.5,26-.8,29.6,3,5.2,20.9,6.9,24.8,5.7v1.1a35.9,35.9,0,0,1-6,.4Z"/><path d="M222.7,416.6c-2.2,21.4-50.1,24.5-68.8,18.9-6.4-1.7-7.8-2.9-8.4-3.8-.8-5.7.2-20.8-.3-25.6h1.3c.3,4.9-.4,18.8,0,24.9.6,1,3.3,2.1,7.7,3.3,17.3,5.5,64.2,2.4,67.3-17Z"/><path d="M146.3,406.7c-5.8.8-1.3-14.2-2.1-18.2h1.1c.7,3.9-3.5,17.5,1.5,17.5C148.3,406.2,148.5,406.5,146.3,406.7Z"/><path d="M157.6,390.4c-8.3-.9-19.7-1.6-27.7-3.9l.4-1c7.9,2.2,20.7,3.4,28.5,3.8v1.1Z"/><path d="M158.9,387.8c-1.3-.4-26.9-2.4-28.4-4l.2-.5c1.4,1.9,27,3.8,28.3,3.9Z"/><path d="M146.9,404.3c.5-2.5.8-10.6.1-13.1-.1-.5,0-.8.2-.1,1.3,2.5,1.3,11-.1,13.4-.2.6-.2.2-.2-.2Z"/><path d="M210.4,378.6c-14.1,8.3-34.2,10-46.8,20.2,11.2-10.8,32.8-11.8,46.7-20.5Z"/><path d="M141.9,426c-6.2.4-19.7-3.6-21.8-7.4l.4-.4c4.2,5.6,18.6,8.5,25.4,6.7v.5a10.7,10.7,0,0,1-4.1.6Z"/><path d="M220.8,418.1c-18.6,17-54,18.6-75,8.5l.4-.4c20.7,10.4,55.1,8.2,73.7-7.9Z"/><path d="M206,417.5c-.3,6.2,1.1,10.3-1.2,15.6l-.5-.3c2.2-5.3.8-9.7,1.1-15.9Z"/><path d="M206.4,408.1c.6-6.8,1.5-18.1.2-23.7h-.5c1.3,5.6.4,17-.2,23.8Z"/><path d="M207,396.1c-8.5-.1-15.4-1.7-18.6-4.5l.4-.4c3.1,2.6,9.9,4.2,18.2,4.3Z"/><path d="M207,394.2c-3.2,0-11.2-.4-15.6-3.3l.6-.9c2.9,2,8.3,3.1,14.9,3.1Z"/><path d="M141.1,405.7a38,38,0,0,0-10-.2c-1.6.2-1.7,0-.2-.4a18.8,18.8,0,0,1,11.6.5c1.5.6,1.7.8-1.4.1Z"/><path d="M160.6,406.6a38,38,0,0,0-10-.2c-1.6.2-1.7,0-.2-.4s8.2-1.6,13.2.7c1.4.6.1.5-3-.1Z"/><path d="M135,410.3c-5.8,1.3,6.8-3.6,7.1-2.8s1.6.2-.1.6S137.7,409.6,135,410.3Z"/><path d="M154.3,409.7c3.8,1.7-5.8-.4-5.6-1.2C146.8,407,152.9,409.3,154.3,409.7Z"/><path d="M123.2,379.7c-7.1-14.6,9.5-27.6,4.8-21.2s-6.4,13.3-4.3,21.7c.5,2.4,0,1.1-.5-.5Z"/><path d="M170.1,389.2c-1.8.3-6.7-1.8-4.2-1.5,4.5,1.2,10.9.6,15.7-1.4-2.1,2.2-8.6,2.9-11.5,2.9Z"/><path d="M199.9,339.9c3-2.9,7.3-10.7,8.6-14.5.1-.3.5-1,.3,0-.7,4.3-4.7,12.5-8.9,14.7-1.2,1-.2,0,0-.2Z"/><path d="M211.2,352.1c-2,6.2,2.2-21.1,1.8-13.7.1,3.8-.4,10-1.8,13.7Z"/><path d="M201.7,359.8a46.4,46.4,0,0,1-3.5,7.7c-.3.5-.2.5.1,0a58.1,58.1,0,0,0,3.9-7.1Z"/><path d="M131.7,354.1c-3.7,1.9,3.2-3.3,4.4-3.4C139.6,349,132.5,353.5,131.7,354.1Z"/><path d="M123,388.1a16.9,16.9,0,0,1-1.7-6.7c0-2.1.2-.9.5.4S124.7,391.5,123,388.1Z"/><path d="M126.1,378.8a31.9,31.9,0,0,0,1.6-8.8c0-.3,0-2.5.5-.3a15.1,15.1,0,0,1-1.8,9.4C125.6,380.4,125.9,379.4,126.1,378.8Z"/><path d="M168,364.7c-.7.9-1.2,1.9-.7.4a9.5,9.5,0,0,1,4-4.7c1.7-.8,2-.7,1.2-.2A38,38,0,0,0,168,364.7Z"/><path d="M165.1,393.4c-1.6,4-.9-2.6,2.6-2.7S164.9,392.1,165.1,393.4Z"/><path d="M185.3,430.3c-1.6.5-.3-7.5-.7-8.7s7-1.8,8.6-2.2,1.4,10.4.6,9.5a49.4,49.4,0,0,1-8.5,1.4Zm-.3-.5a37.7,37.7,0,0,0,8.8-1.4c.4-.8,0-7.1-.2-8.4s-3.4.4-5.2.4-2.8-.1-3.3,1.2.1,5.8-.1,8.2Z"/><path d="M195.9,428.6c-1.1-.3-.2-3.1-.4-4.4s-.1-2.9-.2-4.2,6.2-1.7,7.7-2.3.6,2.1,1.1,4.6-.2,4-.5,4.1A66.4,66.4,0,0,1,195.9,428.6Zm7.5-10.5c-11,1.5-6.4,0-7.5,9.9,2-.4,6.9-1.8,7.7-2.1s0-6.3-.2-7.8Z"/><path d="M132.8,360.2c7.8-23,2.7-60.5,17.3-78.7l.3.4c-9.5,6.5-11.3,47.3-13,57s-5.3,24.3-6.6,33.9-5.1,15.8-2.9,24.9l-.5.2c-1.4-4-.5-8.6.5-12.6,2-6.6,2.8-17.8,4.9-25.1Z"/><path d="M127,395.4c-4-2.5-7.9-6.6-8.7-8.6l.3-.2c.6,1.6,4.4,5.6,8.3,8.1C127,394.7,127.1,395.4,127,395.4Z"/><path d="M205.2,399.2c-1.5,0-1.5-2.9,0-2.9S206.7,399.2,205.2,399.2Zm0-2.6c-.8-.1-1.1,2,0,2S206.3,396.6,205.2,396.6Z"/><path d="M165.8,347.7c.8-10.4.7-28.3,1.8-36.3,1.3-15.9,12.8-28.1,10.8-39.7l1.1-.2c2,12.4-9.4,23.8-10.8,40.1s-.9,43.5-6.4,60.4c-2.5,13.6-5.7,20.8.8,29.3l.5-.5c11.7-8.6,34.8-10.7,47.9-19.6l.4,1.6c-13.4,8.5-35.6,10.4-47.6,18.9-1.5,1.5-2.2.8-3.7-1.6-7-14.8,4.2-34.7,5.2-52.2"/><path d="M168.8,341c1.1-11.8-.5-23.9,2.5-35.9,2-7,9.8-27.4,7.9-32.9h.6c2,5.8-5.9,25.9-7.9,33.1-2.7,9.8-1.4,24.7-2.4,35.9,1.2,16.8-12.7,44.2-4.6,59.3l-.5.3c-8.4-14.3,5.8-44.1,4.4-59.7Z"/><path d="M199.9,421.3l-.2-2c.5-.2.6.9.1.7" style="fill:none;stroke:#ddab47;stroke-miterlimit:10;stroke-width:1.191499948501587px"/><path d="M202,424.1c-2.9,5.7-6.7-4.7-1.1-3.1" style="fill:none;stroke:#ddab47;stroke-miterlimit:10;stroke-width:1.191499948501587px"/><path d="M201.4,421.8l.7-.6" style="fill:none;stroke:#ddab47;stroke-miterlimit:10;stroke-width:0.9531999826431274px"/><path d="M201.7,421.5c.6.1,0,.6-.1.7" style="fill:none;stroke:#ddab47;stroke-miterlimit:10;stroke-width:0.9531999826431274px"/><path d="M201.7,422.5l.6-.3" style="fill:none;stroke:#ddab47;stroke-miterlimit:10;stroke-width:0.9531999826431274px"/><path d="M202.3,422.2h.1" style="fill:none;stroke:#ddab47;stroke-miterlimit:10;stroke-width:0.9531999826431274px"/><path d="M201.8,422.8h.6" style="fill:none;stroke:#ddab47;stroke-miterlimit:10;stroke-width:0.9531999826431274px"/><path d="M202.2,422.7c.1,0,.2.3.2.3" style="fill:none;stroke:#ddab47;stroke-miterlimit:10;stroke-width:0.9531999826431274px"/><path d="M201.9,423.6c.2-.8.9.4.2.3S201.8,423.7,201.9,423.6Z" style="fill:none;stroke:#ddab47;stroke-miterlimit:10;stroke-width:0.9531999826431274px"/><path d="M201.4,421.2c-.2-.9-.9.5-.1.2" style="fill:none;stroke:#ddab47;stroke-miterlimit:10;stroke-width:0.9531999826431274px"/><path d="M189.5,423.2l-.2-2.1c.7-.3.8,1,.1.8" style="fill:none;stroke:#1d775d;stroke-miterlimit:10;stroke-width:1.3976999521255493px"/><path d="M192.2,426.2c-3.9,6.1-8.6-4.8-1.4-3.3" style="fill:none;stroke:#1d775d;stroke-miterlimit:10;stroke-width:1.3976999521255493px"/><path d="M191.4,423.8l.9-.6" style="fill:none;stroke:#1d775d;stroke-miterlimit:10;stroke-width:1.1181000471115112px"/><path d="M191.9,423.4c.8.1,0,.6-.2.7" style="fill:none;stroke:#1d775d;stroke-miterlimit:10;stroke-width:1.1181000471115112px"/><path d="M191.8,424.5l.8-.3" style="fill:none;stroke:#1d775d;stroke-miterlimit:10;stroke-width:1.1181000471115112px"/><path d="M192.7,424.1h.2" style="fill:none;stroke:#1d775d;stroke-miterlimit:10;stroke-width:1.1181000471115112px"/><path d="M191.9,424.8h.8" style="fill:none;stroke:#1d775d;stroke-miterlimit:10;stroke-width:1.1181000471115112px"/><path d="M192.5,424.7c.1,0,.2.3.2.3" style="fill:none;stroke:#1d775d;stroke-miterlimit:10;stroke-width:1.1181000471115112px"/><path d="M192,425.6c0-.5.8-.3.6.1S191.9,425.9,192,425.6Z" style="fill:none;stroke:#1d775d;stroke-miterlimit:10;stroke-width:1.1181000471115112px"/><path d="M191.5,423.1c-.2-.9-1.2.5-.2.3" style="fill:none;stroke:#1d775d;stroke-miterlimit:10;stroke-width:1.1181000471115112px"/></svg>