<svg id="b38c7eb6-e53d-4320-9e81-e15d43f3be68" data-name="a47d0aac-c4dc-43d3-bb69-58310b4417f0" xmlns="http://www.w3.org/2000/svg" xmlns:xlink="http://www.w3.org/1999/xlink" viewBox="0 0 290 550"><defs><clipPath id="f67d757c-e180-4b8c-a899-77be3f81ffb3"><rect width="289.5" height="550" style="fill:none"/></clipPath><linearGradient id="b343df4a-25b6-46ec-889f-2f2297c52eeb" x1="173.34" y1="91.58" x2="228.77" y2="76.92" gradientTransform="matrix(1, 0, 0, -1, 0, 544)" gradientUnits="userSpaceOnUse"><stop offset="0.35" stop-color="#f2b58d"/><stop offset="0.55" stop-color="#efb189"/><stop offset="0.75" stop-color="#e5a67c"/><stop offset="0.85" stop-color="#de9e74"/></linearGradient><linearGradient id="f81a9f9a-638e-408c-97e5-52c949db075e" x1="141.45" y1="86.85" x2="176.97" y2="90.28" xlink:href="#b343df4a-25b6-46ec-889f-2f2297c52eeb"/><linearGradient id="bbf82eb2-da14-460c-9a0d-0750af51c0a6" x1="159.77" y1="245.46" x2="161.24" y2="227.38" xlink:href="#b343df4a-25b6-46ec-889f-2f2297c52eeb"/><linearGradient id="fe3f734a-0346-482e-bffa-45bc7ae4b876" x1="84.64" y1="288.98" x2="187.72" y2="362.57" xlink:href="#b343df4a-25b6-46ec-889f-2f2297c52eeb"/><radialGradient id="b6ed7c99-8aaa-4d29-81a1-afb3671be213" cx="-870.15" cy="554.42" r="1.02" gradientTransform="matrix(7.6, 0, 0, -7.6, 6769, 4436.2)" gradientUnits="userSpaceOnUse"><stop offset="0.74" stop-color="#8a6f48"/><stop offset="1" stop-color="#533a18"/></radialGradient><radialGradient id="bf1492d8-13ce-415d-bda0-39df9f52ac60" cx="-855.48" cy="554.25" r="1.02" gradientTransform="matrix(6.84, 0, 0, -6.84, 5963.96, 4031.04)" xlink:href="#b6ed7c99-8aaa-4d29-81a1-afb3671be213"/><linearGradient id="ba1f2b16-feb0-47eb-87f2-8ea8a858d2fc" x1="135.22" y1="132.45" x2="243.3" y2="132.45" gradientTransform="matrix(1, 0, 0, -1, 0, 544)" gradientUnits="userSpaceOnUse"><stop offset="0.25" stop-color="#a2927f"/><stop offset="0.54" stop-color="#9b8c79"/><stop offset="0.95" stop-color="#897a6a"/></linearGradient><linearGradient id="bfc813e6-ce88-4e5f-b1b7-75a96adf445c" x1="166.89" y1="256.92" x2="192.78" y2="253.61" gradientTransform="matrix(1, 0, 0, -1, 0, 544)" gradientUnits="userSpaceOnUse"><stop offset="0" stop-color="#a91f18"/><stop offset="0.08" stop-color="#b01f16"/><stop offset="0.2" stop-color="#c21e12"/><stop offset="0.33" stop-color="#e01c0b"/><stop offset="0.68" stop-color="#e01c0b"/><stop offset="1" stop-color="#a91f18"/></linearGradient><linearGradient id="ad9c3bf8-40ce-47c9-bbfb-637c6b2dec89" x1="187.87" y1="257.29" x2="227.59" y2="237.18" gradientTransform="matrix(1, 0, 0, -1, 0, 544)" gradientUnits="userSpaceOnUse"><stop offset="0" stop-color="#bfad95"/><stop offset="1" stop-color="#8e7c68"/></linearGradient><linearGradient id="eae81938-203d-4d06-a530-8f8d9b0fba0f" x1="220.66" y1="287.51" x2="198.45" y2="266.37" gradientTransform="matrix(1, 0, 0, -1, 0, 544)" gradientUnits="userSpaceOnUse"><stop offset="0" stop-color="#293b60"/><stop offset="1" stop-color="#19253a"/></linearGradient><linearGradient id="bce531d8-a304-4426-9bd3-c1cb45fc271f" x1="146.91" y1="230.25" x2="167.65" y2="200" xlink:href="#eae81938-203d-4d06-a530-8f8d9b0fba0f"/><linearGradient id="b389f37f-48a9-4a4c-9a6c-21f7a94fbff5" x1="128.87" y1="368.3" x2="156.4" y2="368.3" gradientTransform="matrix(1, 0, 0, -1, 0, 544)" gradientUnits="userSpaceOnUse"><stop offset="0" stop-color="#4f3721"/><stop offset="0.47" stop-color="#48321e"/><stop offset="1" stop-color="#3a2819"/></linearGradient><linearGradient id="bb298a89-a0cf-40b7-ac70-2f02f2acc29e" x1="74.93" y1="332.38" x2="87.58" y2="332.38" xlink:href="#b389f37f-48a9-4a4c-9a6c-21f7a94fbff5"/><linearGradient id="a0cbf77a-d98e-46d8-96cf-0c2a0ef4f21b" x1="9.69" y1="456.34" x2="248.6" y2="392.61" gradientTransform="matrix(1, 0, 0, -1, 0, 544)" gradientUnits="userSpaceOnUse"><stop offset="0" stop-color="#4f3721"/><stop offset="0.31" stop-color="#48331d"/><stop offset="0.76" stop-color="#362712"/><stop offset="1" stop-color="#291f0a"/></linearGradient><linearGradient id="a33a4af0-32b3-4d62-b348-39a5c5575e5b" x1="147.05" y1="180.52" x2="183.42" y2="173.83" xlink:href="#bfc813e6-ce88-4e5f-b1b7-75a96adf445c"/><linearGradient id="e8ac2942-21a5-459e-9424-b383d4ee43a4" x1="153.54" y1="66" x2="174.7" y2="66" xlink:href="#eae81938-203d-4d06-a530-8f8d9b0fba0f"/><linearGradient id="b25c5a98-df76-49d6-b798-8e8cfeb532a7" x1="174.7" y1="60.3" x2="217.24" y2="60.3" xlink:href="#eae81938-203d-4d06-a530-8f8d9b0fba0f"/><radialGradient id="ee1eb805-5273-44f5-9469-445cf137598a" cx="-966.72" cy="555.46" r="1" gradientTransform="matrix(28.4, 0, 0, -22.08, 27673.9, 12772.18)" gradientUnits="userSpaceOnUse"><stop offset="0" stop-color="#646464"/><stop offset="1" stop-color="#494949"/></radialGradient><linearGradient id="bbd791dd-5ad9-4629-94c4-ad7aa6b76d7c" x1="187.3" y1="165.15" x2="231.9" y2="196.25" xlink:href="#eae81938-203d-4d06-a530-8f8d9b0fba0f"/><linearGradient id="e7ac27e8-abcd-46a1-a6d1-cff217f7a804" x1="204.71" y1="114.76" x2="211.17" y2="111.83" xlink:href="#eae81938-203d-4d06-a530-8f8d9b0fba0f"/><linearGradient id="acc54265-a516-4a35-8437-6eda0148900f" x1="215.11" y1="116.68" x2="221.13" y2="114.02" xlink:href="#eae81938-203d-4d06-a530-8f8d9b0fba0f"/><linearGradient id="ee11ec3f-7f3c-46c9-bf3b-e0f27945a732" x1="195.22" y1="51.33" x2="210.18" y2="55.11" gradientTransform="matrix(1, 0, 0, -1, 0, 544)" gradientUnits="userSpaceOnUse"><stop offset="0" stop-color="#282828"/><stop offset="0.26" stop-color="#494949"/><stop offset="0.65" stop-color="#494949"/><stop offset="1" stop-color="#282828"/></linearGradient><radialGradient id="a5dd2446-8db2-4c6f-a64e-f59cbc884612" cx="-951.47" cy="555.25" r="1" gradientTransform="matrix(19.83, 0, 0, -16.06, 18994.72, 9420.66)" xlink:href="#ee1eb805-5273-44f5-9469-445cf137598a"/><linearGradient id="e2ce5030-de7b-4086-8252-734bd4a8176c" x1="164.91" y1="45.25" x2="176.38" y2="45.25" gradientTransform="matrix(1, 0, 0, -1, 0, 544)" gradientUnits="userSpaceOnUse"><stop offset="0" stop-color="#494949"/><stop offset="1" stop-color="#282828"/></linearGradient><linearGradient id="b2f0e737-09f8-4e73-9674-dd3793f5e497" x1="155.74" y1="63.58" x2="159.46" y2="62.06" xlink:href="#e2ce5030-de7b-4086-8252-734bd4a8176c"/><radialGradient id="a7de3487-40d9-4671-85a3-be57408961f0" cx="-636.71" cy="551.63" r="0.99" gradientTransform="matrix(2.74, 0, 0, -2.74, 1857.76, 1746.64)" gradientUnits="userSpaceOnUse"><stop offset="0.75" stop-color="#fff"/><stop offset="1" stop-color="#fff" stop-opacity="0"/></radialGradient><radialGradient id="fc320479-aa52-49af-8052-ee950cf327d2" cx="-680.9" cy="552.16" r="0.99" gradientTransform="matrix(3.12, 0, 0, -3.12, 2279.68, 1939.22)" xlink:href="#a7de3487-40d9-4671-85a3-be57408961f0"/></defs><g style="clip-path:url(#f67d757c-e180-4b8c-a899-77be3f81ffb3)"><path d="M177,477.3c-2.6-11.2-5.1-24.7-5.8-36.2,16.9,4.4,39.9,3.1,55.9-3.8-.6,9.2-4.8,21.8-7.5,30.6-2.5,4.3-3.4,9.4-6.8,13.4C206.5,487.4,178.8,489.3,177,477.3Z" style="fill:url(#b343df4a-25b6-46ec-889f-2f2297c52eeb)"/><path d="M154.8,473.3c-1.6-4.7-4.6-11.6-6.4-16.2-2.3-7.7-5.4-17.5-7.1-25.3,7.9,2.9,12.3,3.2,20.6,2.8.4,1.5-.6,2.1,1.6,3.8s5.6,2,7.6,2.8a260.1,260.1,0,0,0,5.9,36.2,3.9,3.9,0,0,0-2.3,1.9C169,479.6,157.5,479.9,154.8,473.3Z" style="fill:url(#f81a9f9a-638e-408c-97e5-52c949db075e)"/><path d="M147.8,312.4c-.2-9.1,18.3-20.6,25.2-12.3l-5.2,2.3c-2.4,1.6-5.6,3.8-7,6.4a57.7,57.7,0,0,0-2.2,5.8,6.7,6.7,0,0,0-.9,3.4c-1-1-2-2.1-2.9-3.2S150.1,312.2,147.8,312.4Z" style="fill:url(#bbf82eb2-da14-460c-9a0d-0750af51c0a6)"/><path d="M47.9,189.2c10.6,11.2,29,16.3,43.4,16.3,6.4,0,14.8-.9,19.9-5.2,10.2,0,22.1-3.3,31.2-7.9-24.2-7.3-38-33-38.1-57.2,2.1,5.8,4.5,13.4,9,17.8l.2-.5c-2.2-7.3-2.4-16.2-1.3-23.7,1.2,2.9,2.5,5.7,3.9,8.5a60.5,60.5,0,0,0,12.4,9.6c5.5,2.5,13.1,5.7,19,6.7-3.8-4.8-7.3-11.1-7.9-17.5a77.2,77.2,0,0,0,10.1,12.7c-.2-6.5-2-17.1-.2-23.4l.6.3c.8,12.4,2.9,26.1,6.8,37.9,1.7,3.4,5.2,10.5,6.8,14a176,176,0,0,0,18.9,25.8c-.9-3.3-3.2-7.2-4.1-10.6,1.5,1.6,5.1,6.5,6.5,8.3l6.2,6.5c5.6,4.2,15.7,12.1,15.3,20.5a47.9,47.9,0,0,0,3.6-8.8c-4.2-10.6,4.5-27.6,17.8-30.8,18.6-3.8,21.1,13.3,17.2,26.9s-12.6,22.2-26.6,23.4c-3.9,7.6-8.5,17.1-13.6,23.9-3,2.9-6.4,6.7-9.6,9.4a45.9,45.9,0,0,1-3.1,10.8c-5.1,7.5-16.1,14.1-23.1,4.6-27.3,10.9-74,8.8-66.9-32.9-12.3-8.1-26.1-18.4-36-29.5-7.6-10-16.1-21.9-18.4-34.6" style="fill:url(#fe3f734a-0346-482e-bffa-45bc7ae4b876)"/><path d="M147.3,199.1c18.1-6.5,31.2,33.6,11.6,38.6C141.5,239.9,133.7,206.2,147.3,199.1Z" style="fill:#fff"/><path d="M96.2,237.5c-2.1-7.5-.3-21.1,11.1-16.3,7.1,2.5,12.2,12.5,13.4,18.3l1,3.8-.2,4.4c-.8,2.8-1.6,4.4-4.4,5.6a12.4,12.4,0,0,1-10.1-.9C101.3,249.8,97.9,243.3,96.2,237.5Z" style="fill:#fff"/><path d="M149.1,225c-2.7-7.8,6.4-14,12.5-8C168.5,225.5,155.4,237.8,149.1,225Z" style="fill:url(#b6ed7c99-8aaa-4d29-81a1-afb3671be213)"/><path d="M107.4,242.2c-2.4-7,5.8-12.6,11.2-7.2C124.9,242.6,113,253.7,107.4,242.2Z" style="fill:url(#bf1492d8-13ce-415d-bda0-39df9f52ac60)"/><path d="M136.6,397.7c2.5,1.6,5.6,5,8.8,5.3-1.9-3.5-.5-9.1.1-12.8a152.5,152.5,0,0,0,15.1,2.2c4.4.5,10.5,1.5,14.9,1.4.6,2,.5,5.4,1.1,7.4s1.7,4.4,3.4,5.2,3.2-2.2,3.8-2.6l3.3-1.7c7.4-2.9,16.1-5.1,23.6-7.7,11.2-3.1,22.1-10.3,32.6-15.2-.8,15.2.4,31.9-2.1,46.9-.2.7-.5,2.6-1.4,3-17.4,15.9-56.8,19.4-77.5,8.5a15.3,15.3,0,0,1-.3-3c-2.6.2-8.6.1-11.3.1a114.6,114.6,0,0,1-11.7-3.9s-3.3-.7-3.5-3c-.7-5.8.1-12.2.4-17.3C136,407.3,136.3,400.8,136.6,397.7Z" style="fill:url(#ba1f2b16-feb0-47eb-87f2-8ea8a858d2fc)"/><path d="M223.6,403.4c-2-2.2,2.3-3.8,1.3-.3l-.6.4Z" style="fill:#60584f"/><path d="M170.3,297.9a27.4,27.4,0,0,1-2.6-8.4,15.9,15.9,0,0,0,14.3,5.2c7.7-2.2,12.1-9.8,14.4-16.9.4.9.1,5,.1,6-2.7,3.6-6.4,8.9-9.6,12l-2.2,4.7H184l-.9,1.7c-2.8-1-6.2-3.9-9.4-2.5l-1.5-.8C171.7,298.9,170.4,298.4,170.3,297.9Z" style="fill:url(#bfc813e6-ce88-4e5f-b1b7-75a96adf445c)"/><path d="M204.1,263.9h1.3a52.5,52.5,0,0,1,12.8-6.3l5.2.4,4.1,1.4c-16.9,1.5-26.8,14.7-33.1,29-1.2.1-2.5,1.7-3.2,2.5-2.3,2.7-5.5,6-6.2,9.5a3,3,0,0,0-1.9,2.2c-4.2-1-4.5-3.9-10.2-2.4-7.7,2.8-12.2,6.4-13.9,13.4a15.1,15.1,0,0,0-1.3,4.6c2.8,4.4,6,9.9,8.5,14.4s4.6,8.8,7.9,11.5c3.5,5.1,15.7,5.9,21.2,5s8.9-4.7,12.3-7.2A73.6,73.6,0,0,0,234.3,308a81.5,81.5,0,0,0,4.1-9.6,38.3,38.3,0,0,0,3.5-12.4c.6-9.7-.3-18.4-9.2-24.2,1.7-3.9,4.4-12.3,2.7-16.3-5-3.4-12.2-3.1-18-3.5-3.2,5.7-6.4,12.5-10.1,17.9C206.5,260.9,204.6,262.7,204.1,263.9Z" style="fill:url(#ad9c3bf8-40ce-47c9-bbfb-637c6b2dec89)"/><path d="M196.4,283.6c.3-3,.8-9.8.3-12.8a78.2,78.2,0,0,0,7.1-7c2.4-.9,4.8-1.9,7.1-3,6.2-3.9,9.3-3.5,16.1-1.6-.4.4-1.8.5-2.3.6l-5.3,1.3c-6.2,1.9-11,6.5-15.6,10.8-.5,1.4-2.8,4.2-3.8,5.3l-2.1,4.1C197.7,281.8,197,283.4,196.4,283.6Z" style="fill:url(#eae81938-203d-4d06-a530-8f8d9b0fba0f)"/><path d="M168.5,290.3l-.7-1,.6-1.2.7-.2c2.2,3,6.6,4.6,10.2,4.3s6.4-2.4,8.5-4.3c4.6-3.6,7.2-9.9,7.5-15.6l1.5-1.1a35.3,35.3,0,0,1-.1,6.5c-.9,1.6-1.7,4.1-2.5,5.8-4.6,10.5-16.9,15.7-25.7,6.8Z" style="fill:#293b60"/><path d="M170.6,298.3a22.3,22.3,0,0,1-2.6-10.1c-5.1.7-10.9,3.6-16.1,3.7-2.7,2.9-7.7,6.7-10.4,9.7-1.9,1.4-5.6,6.9-7.1,8.7s-4.1,8.2-5,11.1-2.7,9.3-2.4,13.3c.6,15.9,13.8,22.1,28.1,15.7,8.4-3.1,12.6-3.6,18.6-6.6-5.2-5.6-9.4-15.3-13.6-21.7-.4-1.9-6.7-10-10.6-9.5-2.3-.4-1.6-.8-1.6-.8C147.7,304.2,163.6,293.4,170.6,298.3Z" style="fill:url(#bce531d8-a304-4426-9bd3-c1cb45fc271f)"/><path d="M128.9,178.9c.4-9.9,18.1-10.1,24.6-4.4,3.2,2.7,4.3,6.8.6,6.1a87.9,87.9,0,0,0-13.5-2C136.4,178.3,131.4,181.3,128.9,178.9Z" style="fill:url(#b389f37f-48a9-4a4c-9a6c-21f7a94fbff5)"/><path d="M79.8,204.5l7.8,1c-2.4,3.3-4.7,8.1-6.6,11.6-.2,1.7-6,2.7-6-.2C75.3,211.8,77.3,208.5,79.8,204.5Z" style="fill:url(#bb298a89-a0cf-40b7-ac70-2f02f2acc29e)"/><path d="M77.7,204.2c7.5,1,12,2.5,21.7.9,6.8-2,9.3-2,11.9-5.2,10.4.4,21.9-2.9,31.2-7.5-17.1-5.5-29.4-20-35.1-36.7l-2.1-8.1c-.2-3.6-.6-9-1-12.6,2.1,6.4,4.9,13.7,9.5,18.8a74.5,74.5,0,0,1-1.8-24.9c.7.7,2.5,4.8,2.9,5.7l3.3,4.5c7.6,7.7,19.2,11.5,29.3,14.9v-.8a48.9,48.9,0,0,1-5.6-9.3c-.2-.9-2.6-7-2.1-7.8a77.2,77.2,0,0,0,10.1,12.7c-.4-7.8-1.8-17.2,0-25,1.2,8.4,2,19.7,3.9,28,4.2,19.3,16.3,37.1,29.1,51.8-1.1-3.3-3.7-7.9-4.5-11.3,4.5,6.8,11.5,14.1,17.7,19.4,4.7,3.2,11.2,10.6,10.4,17,1-2.2,2.9-6.6,3.6-8.9a11.4,11.4,0,0,0-.7-3.2,29.6,29.6,0,0,1,.3-8.4l1.4-4.7,2-3.2c1.6-2.9,6.1-8.2,10.1-9.9,6.8-3.7,22-2.7,22.8,7.4,6.6-16.8,10.7-36.4,13.3-54.3,1.5-12.4,3.2-27.6,1.7-40.1-2.1-17.4-8.5-35.8-19.2-49.7a125,125,0,0,0-16.3-13.6c-2.5-1.4-7.8-4.2-10.2-5.7,3-.2,7.1.8,9.9,1.6l-.2-.7c-11.9-7.8-29.2-10.3-43.1-7.7,5.2-4.1,13.3-5.7,19.4-8-5.7-.5-14.6.4-20.3.9s-12.1,1.2-16.2,3.2c-7.7-6-17.8-9.9-27-13.1v.7c3.2,2.5,8.3,5.7,10.2,9.4-10.7-3.5-23.2-5.1-34.4-5.3-4.9-.1-12.5-.1-17.2,1.4,3.3,1.4,9,1.4,12.3,2.9C86.3,21,64.6,31.5,46.7,44.8,34.5,55.4,23.9,69.3,15.9,83.4S4.2,115.8,2.5,132.2s-2.2,32.9.8,48.3c.8-4.9,1.6-17.1,5.9-20,0,5.7,2.2,12.8,3.5,18.4,3.4,12.2,8.9,25.3,18.6,33.7l.2-.8c-1.9-7.2-4.3-15.4-4.4-22.9,5.9,9,22.4,27,33.3,28.4a86.4,86.4,0,0,1-9.7-17.6c-.9-3-2.8-7.1-3-10.3C56.2,197.4,66.4,201.9,77.7,204.2Z" style="fill:url(#a0cbf77a-d98e-46d8-96cf-0c2a0ef4f21b)"/><path d="M211.3,496.6a29.5,29.5,0,0,1,4.2-.1l-.6,2.3C214.3,498.4,211.6,497.2,211.3,496.6Z" style="fill:#494949"/><path d="M146.8,385.9l-.4,1.7c9.2,3,20,2.5,29.4,4,1.5-14.2,6.8-28.5,7.7-42.7-1.1.6-9.9-4.9-9.6-5.1a37.8,37.8,0,0,0-7.2,3c-2.1.6-6.7,1.8-8.7,2.6s-1.8,3-2.2,3.7l-2.2,4.5C149.6,366.2,147.9,376.5,146.8,385.9Z" style="fill:url(#a33a4af0-32b3-4d62-b348-39a5c5575e5b)"/><path d="M147,390.4l-1.4-.4.8-2.9.2.4c5.6,2,12.2,2.4,18.1,2.8,3.2.3,7.6.9,10.9,1v2.6c-4,.5-10.7-1-14.7-1.4S150.8,391.5,147,390.4Z" style="fill:#293b60"/><path d="M145.4,403.3c-1.3.3-8.7-5.7-8.9-5.8a15.7,15.7,0,0,1-3.1-4.9c.1-3.3,2.1-8.6,3.1-11.8.3-1.1.9-3.7.5-4.9a31.9,31.9,0,0,1,1.3-8.1,27.3,27.3,0,0,1,3.7-5.2c.9-2.8,2.5-7.3,3.4-10.1,3.7.1,8.9-1.8,12.2-3.3-3.8,8-6.1,12.1-8.6,21.6-1.2,7-1.3,9.4-2.4,14.1S142.8,397.6,145.4,403.3Z" style="fill:#293b60"/><path d="M153.9,476.7a2.9,2.9,0,0,1,.2-3.1h.6c3.2,6.4,14.1,6.4,20,5.7a6.7,6.7,0,0,0-.1,2c-2.1,1.4-6.7,1.1-9.1,1a27.5,27.5,0,0,0-4.1-1.1l-.2-.6a24.1,24.1,0,0,0-4.8-3,4.2,4.2,0,0,0-1.7-1Z" style="fill:url(#e8ac2942-21a5-459e-9424-b383d4ee43a4)"/><path d="M177,477.3l-1.5.6a3.9,3.9,0,0,0-.6,3.6c-.3,1,.3,2.4.2,3.4,5.2,4.6,13.1,4.3,19.4,5.9l.6-.9a26.3,26.3,0,0,1,6.7-2.2c2.3-.5,5.8-1.5,8-.6,1.7-1.7,5-3.1,7.1-4.1,0-1.7.4-3.6,0-5.3l-.9-1.1c-2.7,5.2-6.2,7-11.7,8.4s-13.1,1.8-18.8.2C182.1,484.3,177.1,481.6,177,477.3Z" style="fill:url(#b25c5a98-df76-49d6-b798-8e8cfeb532a7)"/><path d="M183.7,504.4l-1.4-.7-.7-1v-1.1c2.5-4.7,9.6-5.5,14.4-5.9a15.2,15.2,0,0,1-3.1,3.1,22.6,22.6,0,0,0-2.6,4.2C188.6,504.3,185.7,504.5,183.7,504.4Z" style="fill:#494949"/><path d="M175,483.4a3.7,3.7,0,0,0-1.7,1.3c-.2,2.1,1,5,1.6,6.9l1.2,6.4c-.2,2.4-.2,6-.8,8.4s-1.4,4.5-1.3,6.5,1.9,4,2.6,5a69.2,69.2,0,0,0,12.6,14.9c2.7,2,7.6,2.8,10.7,3.9A38.3,38.3,0,0,0,218,535c4.1-1.4,9.2-3.9,11.7-7.6,2.8-5.6,2.9-13.4.7-19.2l-2.3-3.6-2.6-2a31.2,31.2,0,0,0-9-2.2c-3.6-.4-9.3,1-12.8,2a40.2,40.2,0,0,1-4.7,2.2l-.8-.2a10.3,10.3,0,0,1-2.5.7l-.6-.7v-1.6l-2.1,1.7c-.7,3.3-.7,7.3-1.2,10.7l-.6.7.8,6.6-.3.7h-1.3l-.2-.3-.7-6.9c-1.8-1.6-.2-7-.1-9.2l-3.1,1.1h-3.5c-1.8-.4-4.2-1.4-4.8-3.3.3-3.8,3.8-7,6.9-8.7s8.3-2.5,12.3-2.3c-.9-3-3.3-3-5.8-3.5-5.2-.9-12.2-1.5-16-5.6v-1Z" style="fill:url(#ee1eb805-5273-44f5-9469-445cf137598a)"/><path d="M181.4,405.5l-.8.7h-.8c-6-4.8-3.8-19.2-2.3-24.9,2-9.6,5-22.9,6.5-32.6,14.4,1.9,17-2.5,27.9-10.3A109.6,109.6,0,0,0,223,327.9s3.9-5.9,6-9.3c3.5-6.1,4.5-9.7,6.6-12.9-.1,15.6,3.3,33.1,7.4,48.1a105.1,105.1,0,0,1,3.3,10.9c.1,2.4.5,7.7.4,10.1,1.6,2.8-8.9,7.4-9.1,7.3l-7.8,4.1c-8.8,4.8-21.6,9.5-31.2,12C194.4,399.8,184.4,402.2,181.4,405.5Z" style="fill:url(#bbd791dd-5ad9-4629-94c4-ad7aa6b76d7c)"/><path d="M202.8,428.5s-.2-2.1.5-2.3l7.9-1.3c2.2-.4,1.1,7.8,1.3,8.8s-9.9,2.2-9.5,2.2l-.3-.3C202.8,433.8,202.8,430.4,202.8,428.5Z" style="fill:url(#e7ac27e8-abcd-46a1-a6d1-cff217f7a804)"/><path d="M214.2,426.7v7.2l.3.3c10-2.9,8.3-.7,7.9-10.8-2.2-.2-5.8.6-7.9,1.1l-.5.7Z" style="fill:url(#acc54265-a516-4a35-8437-6eda0148900f)"/><path d="M210.1,486.9c1.9-1.4,4.8-2.8,6.7-4.1l1.1.3.5,1.3c-.7,2.8-1.3,7-2.5,9.7a14.6,14.6,0,0,0-7.4-1.3C209,491.2,209,488.2,210.1,486.9Z" style="fill:#494949"/><path d="M208.3,486.7l1.7.5-.7,1.8a13.4,13.4,0,0,1-.7,3.9h-2.3a2.9,2.9,0,0,0-2.2-.4l-.6.4h-2.4l-.5.7-4.2-.4a11.6,11.6,0,0,0-2-2.4c.5-.9,2.2-1.4,3-1.7l6-2.1Z" style="fill:url(#ee11ec3f-7f3c-46c9-bf3b-e0f27945a732)"/><path d="M120.6,516.5a11.1,11.1,0,0,1-1.1-7.6l1.1-3.9c.8-1.5,2.8-4.3,4.3-5.2,4.6-3.4,11.9-4.7,17.5-4a28,28,0,0,1,12.4,2.7,26.1,26.1,0,0,0,0,11.8l1.7.4,3,5.7c-4.7,2.1-13.2,3.6-18.1,5.1C134.5,522.8,125.7,521.8,120.6,516.5Z" style="fill:url(#a5dd2446-8db2-4c6f-a64e-f59cbc884612)"/><path d="M163.9,515.8l-2.8.5v-.7c-.6-.6-2.9-4.9-3.4-5.6s-.7-4.5-.7-4.9v-4l1.1-3.6,2,1.9,2.4,1.1H165l2-1.1c2.2-3.6.1-7.1-1.5-10.4-1.5-1.5-4.2-3.6-6.3-3.9-.3-8.9,7.5,1,15.2-3.9a5.7,5.7,0,0,1,.3,1.8,3.7,3.7,0,0,1-1.3,1.2c-1,1.7.1,4.1.8,5.6l.8,4c2.3,4.9-.6,14.7-1.4,18.7-1.4.2-2,.3-2.3,1.9a6.3,6.3,0,0,1-2.7.3Z" style="fill:url(#e2ce5030-de7b-4086-8252-734bd4a8176c)"/><path d="M153.5,482.9c-.1-1.6-.7-4.5-.2-6.1l1.1-.5c.7,0,2.4,1.4,3,1.8l4.1,2.2v.6h-1c-.9,1-.9,2.7-1.3,3.9l-2.1-.3c-.2-.6-1.5-1.3-2.1-1.5l-.9.4Z" style="fill:url(#b2f0e737-09f8-4e73-9674-dd3793f5e497)"/><path d="M117.1,526.6c-1.2-.4-1.2-9-1.2-8.9-.1-1.6.1-4.1,1.2-5.4l2-.5c-.2,8.6,13.8,10.8,19.5,10.4a112.4,112.4,0,0,0,11.4-3c2.7-.7,7-1.3,9.5-2.4.3.5,1.9-.2,2-.5,2.8-.5,6.9-1.6,9.7-1.9a8.6,8.6,0,0,1,1-1.6l1.6-.3c.2,1.8,2.7,5.4,3.7,6.8,4.3,5.2,6,9.4,13.1,14.4,12.2,6.7,35.9,4.1,40.8-10.1,4,.7,3.4,9.7,3.2,11.4.2,15.4-37.3,15.8-44.7,12.8V546l-2.8.5-2.6-1.3a13.1,13.1,0,0,1-.1-2.8l-2.7.4c-2.1-1.9-3.1-7.2-4.6-9.5a4.6,4.6,0,0,1-2.6.2l-2.7-4-.3-6h-1.1l-6.1,4.4a26.6,26.6,0,0,0-5.5,2.3c-.5-.1-3.4-1.4-3.9-1.6l-1.2.2a12.2,12.2,0,0,1,0,2.7c.1.4-5.8,1.1-6,1.2l-4.3-2.2h-.3l-.4,2.7C137.3,535,121,531.6,117.1,526.6Z" style="fill:#262626"/><path d="M117.1,512.3c1.9,11.7,16.3,13,26.3,11.3s17.9-5.9,28-7.2v-1.9c-9,.8-20.2,4.7-29.1,6.8l-5,1.1-4.5-.2c-5.5-1.9-13.1-2.8-13.8-10.1A6.2,6.2,0,0,0,117.1,512.3Z" style="fill:#303030"/><path d="M173.8,512.4l-1.3.3c1.8,6.3,12.3,23,18.9,25.2,12.8,4.2,38.9,2.7,41.3-13.4l-1.4-.8c-3.7,13.3-26.7,16.3-38.6,11.2a29.3,29.3,0,0,1-11.5-10.6C179.2,521.2,173.9,516.2,173.8,512.4Z" style="fill:#303030"/><path d="M143,495.9l3.3.2c-2.2-3.1.8-10.2,4.4-10.7.1,1.5-1.2,3-2.1,4.1a16.3,16.3,0,0,1-.3,3.1V495l-.7,1.4a39.2,39.2,0,0,1,7.4,2.2c-.4,1.5-1.4,10.1.6,12.2a4.1,4.1,0,0,0,2.4-.8,26,26,0,0,0-.5-3.9,19.4,19.4,0,0,1,1-8.6c.7,2.7,9.3,4.7,9.7-.4.9-3.4-2.6-9.1-4.6-10.6l-4-1.5v2.8c1.7,1.2,4.2,3,4.9,5a17.1,17.1,0,0,0,.9,3,5.4,5.4,0,0,1-.6,2.5,10.4,10.4,0,0,1-3.6-1.9c-.3-.5-2-2.4-1.8-3.1a38.8,38.8,0,0,0,.4-4.8l.7-.6v-3l-3.4-.5-1.1-1h-1.9l-.5-.5c-.4.1-2.2.1-2.5.5h-1.7l-2.4,1.1C143.6,487.5,141,491.2,143,495.9Z" style="fill:#262626"/><path d="M197.6,495.5v-1.9c-7.2,0-17.1,1.8-19.9,9.5l.4,3.1c2.9,2.3,7.4,2.4,10.7,1,.2,2.2-.8,6.7.1,8.7l2.2.4.8-.9a66.5,66.5,0,0,1,.7-10.9l2.3-1.6v1.6l.9.7c1.3,0,4.9-1.5,6.1-2,4.1-1.4,10.7-2.9,15-2.9-1.2-1.6-4.5-2.3-5.8-3.8a17.6,17.6,0,0,1,8.8,1,2.8,2.8,0,0,1-1.5,2.8l3.5,1.2,1.2-1.6a6.8,6.8,0,0,0-4.3-4.6,26.1,26.1,0,0,0-5.4-2.4,18.9,18.9,0,0,0-6.7,0,5,5,0,0,0-2.7-.5l-.5.4a3.9,3.9,0,0,0-2.4.1l-.8.8a15.5,15.5,0,0,1-4.3-.2l.2,2.3h3l-3.7.7c-2.1,1.7-4.5,4.2-5.2,6.8l-2.1.5s-2.2,1.3-3.9.8c-7-1.3.4-7.1,3.2-7.5C191.9,496,194.2,496.1,197.6,495.5Z" style="fill:#262626"/><path d="M159.4,487.6a12.9,12.9,0,0,1-.5,5.5c0,1.5,3.7,5.4,5.8,5l.7-.6a14.7,14.7,0,0,0-1.7-6.2C163.1,490,160.7,488.4,159.4,487.6Z" style="fill:#494949"/><path d="M147.1,529.1a9.3,9.3,0,0,1,.3,3.3c-3.7-1.8-3.8-2-3.8-2Z" style="fill:#161616"/><path d="M155,528.4c.1.3,3.6,1.5,3.6,1.5C160.4,525,157.6,527.9,155,528.4Z" style="fill:#161616"/><path d="M175,533.4v-3.7a11.3,11.3,0,0,1,2.1,3.5C176.8,533.5,175.4,533.3,175,533.4Z" style="fill:#161616"/><path d="M181.6,542.7l.3-3.6,2.4,1.8-.4,1.8Z" style="fill:#161616"/><path d="M186.8,546.7v-3.4l3.1,1.2v1.4Z" style="fill:#161616"/><path d="M189.8,523.1l-.7-6.5,1.6-.2c0,.6,1.2,6.3.7,6.7l-.6.6Z" style="fill:#a8a8a8"/><path d="M159.8,516.7l-3.3-5.8,1.4-.9,3.3,5.9A1.6,1.6,0,0,1,159.8,516.7Z" style="fill:#a8a8a8"/><path d="M141.5,432.5c.7,4.2,15.5,5.8,19.1,5.5-1.4,3.1,5.4,7,7.2,6.4.5,4.9,4.7,26.9,6,31.2a4.1,4.1,0,0,0-1.2,2c-2.5,2.1-16.4,0-17.6-4.2.6,5.4,17.1,7.1,19.7,5.9l.3-1.1a5.7,5.7,0,0,0,1.8-1.2c-2.2-11.4-4.8-24.3-5.7-35.9-2.9-.8-6.7-1.8-9-3.8v-2.8c-6.5.5-14.4.1-20.3-2.8Z" style="fill:#d88b64;opacity:0.6499999761581421;isolation:isolate"/><path d="M152.9,461.3c1.7.9,3.9-1.3,3.6-3.1A13.4,13.4,0,0,1,152.9,461.3Z" style="fill:#d88b64;opacity:0.6499999761581421;isolation:isolate"/><path d="M150.3,460.3l1.6,1C151,461.9,150,461.4,150.3,460.3Z" style="fill:#d88b64;opacity:0.6499999761581421;isolation:isolate"/><path d="M171.2,445.2c11.7,5.2,40.5,2.4,51.5-.2,1.2-.3.9-.1-.4,5.3-2.7,9.2-5.6,21.6-10.2,29.1-6.9,6.9-22.7,8.2-33.1,1.7,6.8,6.7,16,5.3,25.8,3.7,8.3-2.3,6.8-2.8,10.3-6.5a211.5,211.5,0,0,0,11.6-35.6c0-.9-.1-4.4.4-5.3a102.3,102.3,0,0,1-55.9,3.6v4.2Z" style="fill:#d88b64;opacity:0.6499999761581421;isolation:isolate"/><path d="M187.4,461.1c2.6,1.7,5.9,3.5,9,4C193.8,466.7,186.8,463.1,187.4,461.1Z" style="fill:#d88b64;opacity:0.6499999761581421;isolation:isolate"/><path d="M148,310.8c2.7-.7,7.9,2,8.7,2.9.3-2.8,6-12.4,16.2-14,.1.7-.1.4-.1.4-3.3.2-14,8.6-13.7,12.7-.3.9-1.8,4.1-1.4,5.1-.9-1.2-4.6-3.9-5.8-4.9l-3.8-.9v-1.3Z" style="fill:#d88b64;opacity:0.6499999761581421;isolation:isolate"/><path d="M243.3,214.7c2.6-2.9,2.8-21.2-1.1-23.8,4.8,6.7,4.2,11.6,4.5,18.5s-3.9,12.9-7.8,17.2c-5.3,7.5-11.3,10.7-20.3,12.2-4.5,8.4-9.2,18.9-15.6,26.1-2.7,2.7-6.7,6.1-9.4,8.8l-13.8,9.2c-5.7,2.3-13.7,6.5-19.8,7.4a76.1,76.1,0,0,1-18.4,2.4c-9,.5-19.8-1-27.8-5.3,24.6,13.4,77.7-3.2,94.3-33.6,10.8-16,4.3-17.7,12.4-21.7,4.5-2.2,4.2-9.1-.9-11-.1-10.3,11.7-31.4,22.3-18.7,0,0-6.4-1.4-9.1,3,5.2-4.3,9-2.3,10.1,1s-.9,11.1.4,8.3Z" style="fill:#d88b64;opacity:0.6499999761581421;isolation:isolate"/><path d="M84.2,210.9l3.6-5.5-8.1-.9-2.5,4s-14.8-2.1-23.4-9.1c-.5,1.8,8.3,20.6,13.8,27.1-15-17.4-16.1-23.4-19.9-37.3,9.4,11.9,49.9,23.6,63.2,10.9,5.3,1.2,27.8-4.7,31.5-7.8-20.9-4.4-40.2-35.5-38.1-57.2,1.2,3.7,4.1,12.6,9.4,18.2-1.9-9-2.9-16.6-1.7-25.1,3.2,15,25.3,23,35.5,25.3a31.4,31.4,0,0,1-6.7-12.1c-2.2-7.6-2.1-8.7-2.1-8.7a33.8,33.8,0,0,0,10.7,15.6c.6-5.9-2.5-15,.7-26.1-.4,33,12.3,58.4,32.4,81.6,0,0-2.6-7.1-4.4-11.6,1.1,1.5,7.4,9.9,10.6,13,7.1,6.8,18.6,13.2,17.5,23.3,0,0,3-6,3.6-9.4a6.7,6.7,0,0,1,1,2.3s-2.8,11.7-7.6,16.8c3.2-10.4-13.7-26.2-17.9-31.8,1.2,3.8,5.3,8.8,5.3,8.8-14.6-3.4-39.5-39.3-41.1-55.7-8.2,2.1-20.8.8-29.4-8.9-.7,3.8,3.8,12.9,3.8,12.9s-10.3-4-12.7-7.4c1.1,11.1,21.3,35.7,33.6,35.8,0,0-14,15-30,13.6-3,6.3-21.6,5.8-28.3,5.4,0,0-3.4,11.1-10.2,7.5,4.6,2.3,6.9-6.4,7.9-7.5Z" style="fill:#d88b64;opacity:0.6499999761581421;isolation:isolate"/><path d="M128.3,178.6c2.9,6.9,12.6.4,19.8,3.4,5.4,1.2,7.3,1.2,8.1-2.1-6.8,1.4-14.2-3.5-24.9-.1l-1.9-.4Z" style="fill:#d88b64;opacity:0.6499999761581421;isolation:isolate"/><path d="M124.8,252.9c0-14.7,30.6-17,29.3-1.4-2.3-10.4-19.5-8.3-24.2-4.5C129.9,247,126.2,250.2,124.8,252.9Z" style="fill:#d88b64;opacity:0.6499999761581421;isolation:isolate"/><path d="M155.9,283l-4.2,1c-.8.2,3,1.3,6.6-.2s6.1-8,4.4-6S157.6,282.6,155.9,283Z" style="fill:#d88b64;opacity:0.6499999761581421;isolation:isolate"/><path d="M118.8,234.1c-10.5-28.6-35.8-13.4-19.1,11.5C85.6,220.1,108.7,210.3,118.8,234.1Z" style="fill:#d88b64;opacity:0.6499999761581421;isolation:isolate"/><path d="M143.5,226.6c-13.5-27.6,17.2-43.2,24.6-7.4C166.1,182.3,126,195.4,143.5,226.6Z" style="fill:#d88b64;opacity:0.6499999761581421;isolation:isolate"/><path d="M170.6,289.6c4.4,1.1,14.2-4.3,20.2-10-.7,2.5-4.8,12.7-15.4,12.2,10.6,2.6,20.1-11.5,19.9-19.7-7.7,5.9-17.3,12.1-26.5,15.5Z" style="fill:#d88b64;opacity:0.6499999761581421;isolation:isolate"/><path d="M201.2,465.6c5.9,1,9.2-7.9,6.9-5.6S204.3,464,201.2,465.6Z" style="fill:#d88b64;opacity:0.6499999761581421;isolation:isolate"/><g style="opacity:0.699999988079071"><path d="M84.5,210.3h.1l3.2-4.9-7.9-.9c-.7.8-2.1,3.1-2.7,4a47.7,47.7,0,0,0,5.1,1.3c-1.2,1.7-2,9.8-6.8,8.3,3.9,1,3.9.4,5.3-1.1S83.6,212,84.5,210.3Z" style="fill:#2b1d13;opacity:0.699999988079071;isolation:isolate"/><path d="M129.2,176.2c.4,3.6,14.8-1.7,18.8,1s8.6,2.6,8.3,1.4c.2,4.1-12.2-.9-14.9,0-6.1,0-8.1,1.3-11.4,1.1l-1-.7A3.4,3.4,0,0,1,129.2,176.2Z" style="fill:#2b1d13;opacity:0.699999988079071;isolation:isolate"/><path d="M104.4,124.9c1.1-12.5,1.7-18.8,1.1.8.3,8.3,4.5,21.6,7.8,26.3l-.9.3C106.8,143.5,102.9,135.7,104.4,124.9Z" style="fill:#2b1d13;opacity:0.699999988079071;isolation:isolate"/><path d="M152.2,113.1c1-3.1,3.2-7.8,1.2-4.8-7.6,9.6-7,29.7-4.2,39.8h.7C148.3,136.9,148.1,123.7,152.2,113.1Z" style="fill:#2b1d13;opacity:0.699999988079071;isolation:isolate"/><path d="M207,227.1c.8-1.7,1.3-8.3,1.3-8.3-4.9-15.5,8.7-37.4,29-32.9,16.4,7.2,22.2-44.4,24.2-66.3a264.7,264.7,0,0,1-15.3,77.7c-3.9-6,0-8-11.9-9.1-16.9-2.5-28.9,20-24.2,31A76.1,76.1,0,0,1,207,227.1Z" style="fill:#2b1d13;opacity:0.699999988079071;isolation:isolate"/><path d="M30.7,167s2.7,11.9,14,23.5c1.1,7.8,3.7,11.4,3.7,11.4a22.9,22.9,0,0,1-5.4-3.8,66.6,66.6,0,0,0,7.2,7.8A29.7,29.7,0,0,0,57,216.5c3,.7,2.1-.6,2.1-.6a96.5,96.5,0,0,1-5.9-9.7c-2.1-5-4.8-12-6.5-17.2-.5-2-4.5-4.5-8.2-9.6C33.3,172.4,33.5,172.3,30.7,167Z" style="fill:#2b1d13;opacity:0.699999988079071;isolation:isolate"/><path d="M22.4,180s1.3,7.7,4.7,13.1a7.8,7.8,0,0,1,.2-4C26.2,186.7,23.5,182.3,22.4,180Z" style="fill:#2b1d13;opacity:0.699999988079071;isolation:isolate"/><path d="M62.5,172.5c1.3,4.8,14.7,26.7,44,30.6,3.8-2.3,4.8-2.1,4.8-2.1v-1.1c-10.1.9-25.4-6.6-32.5-11.5S65.8,178.9,62.5,172.5Z" style="fill:#2b1d13;opacity:0.699999988079071;isolation:isolate"/><g style="opacity:0.699999988079071"><path d="M247.7,157c-1,8.6-5.9,16.7-11.6,23.1C240.5,172.7,245.2,165.2,247.7,157Z" style="fill:#1e140e;opacity:0.699999988079071;isolation:isolate"/><path d="M241.9,178.6a8.6,8.6,0,0,1-5.8,6.3C237.9,182.6,240,180.7,241.9,178.6Z" style="fill:#1e140e;opacity:0.699999988079071;isolation:isolate"/><path d="M239,163.1c8.5-17.7,10.4-37.6,12.6-56.8C251.1,125.6,249,146.1,239,163.1Z" style="fill:#1e140e;opacity:0.699999988079071;isolation:isolate"/><path d="M60.3,149.9c-6.8-12.6-8.8-27.6-6.5-41.7C53.2,122.4,55.1,136.7,60.3,149.9Z" style="fill:#1e140e;opacity:0.699999988079071;isolation:isolate"/><path d="M107,191.3A70.6,70.6,0,0,1,66.7,161,95.8,95.8,0,0,0,107,191.3Z" style="fill:#1e140e;opacity:0.699999988079071;isolation:isolate"/><path d="M60.4,119.5c-.9-17,2.6-36.5,16.1-48C64.3,84.1,61.3,102.5,60.4,119.5Z" style="fill:#1e140e;opacity:0.699999988079071;isolation:isolate"/><path d="M32.4,175.5c-8.1-11.7-13.1-26.7-10-40.8C21,149,25.8,163,32.4,175.5Z" style="fill:#1e140e;opacity:0.699999988079071;isolation:isolate"/><path d="M161.3,143.5a77.1,77.1,0,0,1,3.9-48.1A108.8,108.8,0,0,0,161.3,143.5Z" style="fill:#1e140e;opacity:0.699999988079071;isolation:isolate"/><path d="M73.4,87c7.5-17.9,21.7-34.6,40.7-40.5C95.9,54,82.5,69.9,73.4,87Z" style="fill:#1e140e;opacity:0.699999988079071;isolation:isolate"/><path d="M136.8,56.1c-6.9,14.1-11.8,29.3-11.1,45.2C123.3,85.4,128.4,69.5,136.8,56.1Z" style="fill:#1e140e;opacity:0.699999988079071;isolation:isolate"/><path d="M17.8,147.2c-2.4-12-3.3-26,4-36.5C16.1,122,17.1,135,17.8,147.2Z" style="fill:#1e140e;opacity:0.699999988079071;isolation:isolate"/><path d="M190.7,198.2A96.3,96.3,0,0,1,166.9,129,115,115,0,0,0,190.7,198.2Z" style="fill:#1e140e;opacity:0.699999988079071;isolation:isolate"/><path d="M187.4,184.9c5,8.4,13,15.2,15.5,24.9C198.9,200.7,191,194.1,187.4,184.9Z" style="fill:#1e140e;opacity:0.699999988079071;isolation:isolate"/><path d="M206.2,58.1c14.1,15.9,15.1,38.9,12.4,59C219.7,97,218.9,74.9,206.2,58.1Z" style="fill:#1e140e;opacity:0.699999988079071;isolation:isolate"/><path d="M224.2,103.8a54.1,54.1,0,0,1-5.1,35.1A91.3,91.3,0,0,0,224.2,103.8Z" style="fill:#1e140e;opacity:0.699999988079071;isolation:isolate"/><path d="M218.7,46.5c10.2,4.9,18.4,15.3,18.8,26.8C235.4,62.1,228,52.8,218.7,46.5Z" style="fill:#1e140e;opacity:0.699999988079071;isolation:isolate"/><path d="M100.5,88.2c-8.1,26.5-9.7,58.3,7.1,81.8C89.3,147.3,90.8,114.3,100.5,88.2Z" style="fill:#1e140e;opacity:0.699999988079071;isolation:isolate"/><path d="M103.6,116c.3-13,2.8-26.5,10.5-37.3C107.9,90.2,105.6,103.1,103.6,116Z" style="fill:#1e140e;opacity:0.699999988079071;isolation:isolate"/><path d="M64.9,193.7C44.5,183.9,34,160.9,35,138.9,35.7,160.7,45.6,182.5,64.9,193.7Z" style="fill:#1e140e;opacity:0.699999988079071;isolation:isolate"/><path d="M229.1,135.4c-3.3,16.3-9.1,32.4-18.5,46.3C218.5,167.1,224.2,151.4,229.1,135.4Z" style="fill:#1e140e;opacity:0.699999988079071;isolation:isolate"/><path d="M220.3,54.4A45.3,45.3,0,0,1,233,80.9,86.5,86.5,0,0,0,220.3,54.4Z" style="fill:#1e140e;opacity:0.699999988079071;isolation:isolate"/><path d="M165.2,42.5a62.5,62.5,0,0,1-2.8,24.3C163.1,58.8,164.3,50.5,165.2,42.5Z" style="fill:#1e140e;opacity:0.699999988079071;isolation:isolate"/><path d="M185.8,43.2c7.9,3,11.5,12.2,14.1,19.6C195.7,56.1,192.6,47.5,185.8,43.2Z" style="fill:#1e140e;opacity:0.699999988079071;isolation:isolate"/><path d="M190.7,34.3c14-1.5,27.8,5.3,37.3,15.3C217.5,40.9,204.7,34.5,190.7,34.3Z" style="fill:#1e140e;opacity:0.699999988079071;isolation:isolate"/><path d="M96.5,26.8c14.3-3.4,29.5-2.6,43.9,0C125.8,25.8,111.1,25,96.5,26.8Z" style="fill:#1e140e;opacity:0.699999988079071;isolation:isolate"/><path d="M122.3,57.4c4.2-9,12-17,21.9-19.2C135,42,127.9,49.3,122.3,57.4Z" style="fill:#1e140e;opacity:0.699999988079071;isolation:isolate"/><path d="M128,32.1c-12.7,2-25.1,6.7-35.4,14.4C101.9,37.5,115,32.5,128,32.1Z" style="fill:#1e140e;opacity:0.699999988079071;isolation:isolate"/><path d="M154.2,43.2c-3.6,5.9-3.7,13.1-5.5,19.6C148.8,56.1,149.3,48.1,154.2,43.2Z" style="fill:#1e140e;opacity:0.699999988079071;isolation:isolate"/><path d="M176.1,43.2c4.9,6.6,5.6,15.6,6.1,23.6C180.1,59.1,179.4,50.5,176.1,43.2Z" style="fill:#1e140e;opacity:0.699999988079071;isolation:isolate"/><path d="M194.3,40.7c11.2,2.5,22.1,11.1,26,22C214.9,52.6,205,44.9,194.3,40.7Z" style="fill:#1e140e;opacity:0.699999988079071;isolation:isolate"/></g></g><path d="M223.1,401.6c-.8,3.8,3.4,3,1.9-.1C225,404.8,222.8,403.4,223.1,401.6Z" style="fill:#77695c"/><path d="M214.1,393.9c.9,1.1,9.5,3.6,11.8,3.7-3.8,1.2-12.9-.4-15.8-3.1l4-1.1Z" style="fill:#77695c"/><path d="M207.6,401.7c9.7-2.1,24.9-10.2,30.8-13.2.9,9.9.6,33.7-1.7,43,1.1-1,4.3-3.5,4.3-3.5,2.2-15.3,1.9-33.5,2.1-48.9-11.2,5.6-23.6,13-35.9,16.3-6.2,2-14,4.5-20.2,6.7l-4.3,2.2c-.5.5-2,2-2.7,2-3.4-2.7-4.3-8.3-4.2-12.4-4.2.4-11.3-1.1-15.5-1.5a83.8,83.8,0,0,1-14.6-2.4c-.6,4-2,9-.1,12.9-2.9-.5-6.4-3.7-8.8-5.3,0,0,4.2,8,9.5,8.5,2.2,1.1,2.2-13,2.9-13.8s7.6,1.1,10.7,1.3c1.7,1.9-4.7,22.3,4.2,17.4l-3.3-.6a11.9,11.9,0,0,1,0-5.3c-.2-3.1.3-8.3.4-11.4-1,0,11.9,1.5,12.4,1.4-1.3.8,2.9,19.6,8.3,16.9A254,254,0,0,1,207.6,401.7Z" style="fill:#77695c"/><path d="M163.4,394.8c1.4.6,2.6,13.7-.2,14.8a59.9,59.9,0,0,0,1.1-8.5C164.1,399.3,163.7,396.6,163.4,394.8Z" style="fill:#77695c"/><path d="M147.6,410.1c-8.4,1.5-.2.8,4.6.9,2.6,0,8.8.5,7.3,0s-4.8-1.1-4.8-1.1S149.2,409.6,147.6,410.1Z" style="fill:#77695c"/><path d="M150.4,415.3c-1.6.6-2.7,1.2-.6,1.1s16.1-4.9,8.8-3.6A26,26,0,0,0,150.4,415.3Z" style="fill:#77695c"/><path d="M166.8,411.1c-1.8.4-1.9.6-.6.5l9.2.4c2.8.2,9.9,1,5.7-.1C172.9,410,172.9,409.9,166.8,411.1Z" style="fill:#77695c"/><path d="M165.5,413.4c-1-.6-1.4-.9-.6,0a5.4,5.4,0,0,0,4,2.3c2.4.4,6.6.3,3.3-.4A39.3,39.3,0,0,1,165.5,413.4Z" style="fill:#77695c"/><path d="M202.8,435.9c-.5.7,11.5-.3,10.2-1.8s.8-8.5-1.2-9.1c0,0,.6-.2.7,2.7s.1,4.3.1,4.3v1.8C213.2,435.2,203,436.1,202.8,435.9Z" style="fill:#77695c"/><path d="M214.5,434.2c.3-.1,6.7-1.8,7.5-2.2s.6.3.7-1.2-.3-7-.3-7v-.4C224.5,433.6,223.6,432.6,214.5,434.2Z" style="fill:#77695c"/><path d="M160.8,411.6c.2.5.3.8-.9.9s-.6.9-.1.6c2.8-.5,0,20.3.3,21.5H162c.5-2.7.4-10.3.4-13.2,0-.7.4-9.8,0-10.2L161,411Z" style="fill:#77695c"/><path d="M159.5,410.4c.1.3,1.2,1.8-.6,2.3s1.3.2,1.3.2l1.1-.4v-.9A5.7,5.7,0,0,0,159.5,410.4Z" style="fill:#77695c"/><path d="M155.1,354.5c-6.1,1-11.2,2.4-11.2,2.4l1.6-4.1a42.3,42.3,0,0,0,6.2-1.1,33.7,33.7,0,0,1,5.9-2.5C158,350.3,155.7,353.6,155.1,354.5Z" style="fill:#162136"/><path d="M151,354.9c-3.5,2.3-6.6,3.5-3.7,1.1S151,354.9,151,354.9Z" style="fill:#162136"/><path d="M182.8,355.2c18,4.1,39.8-9.4,46.5-32.4,0,0-3.9,30.4-12.4,47.9,7.8-16.4,13.1-36.4,14.2-44.5.8,3.2.4,22.5-1.3,29.8,2.3-10,6.4-39.9,5.8-50.3-4.1,8.4-10.1,19.9-16.4,26.9-11.1,8.1-19.4,20.2-35.6,16.2C183.9,350.1,183,354,182.8,355.2Z" style="fill:#162136"/><path d="M156.2,316.3c2.1,2.7,6.6,18.4,14,29a30.4,30.4,0,0,1,3.9-1.4c-2.4-1.7-6.4-8.9-7.8-11.5C163.4,327.8,159.6,320.5,156.2,316.3Z" style="fill:#162136"/><path d="M171,290.1c-4,.9-17.8,2.3-17.8,2.3l15.7-4.3A10,10,0,0,1,171,290.1Z" style="fill:#162136"/><path d="M169.9,296.3c-2.1-.9-5.8-.4-5.8-.4a4.1,4.1,0,0,1,1.2-3.2,10.6,10.6,0,0,0-2.8,3.5s-1-1.6-1.6-1.8a12.9,12.9,0,0,0,.4,1.9c-3.8.5-14.5,7.9-13.9,14.5,0,0-3.9-1.1-5.9-.8a11.8,11.8,0,0,1,3.6,1.2,18.7,18.7,0,0,0-3.9,2.2c2-.9,6.7-1.2,6.7-1.2a38.9,38.9,0,0,0,1.2-4.9c2.8-3.3,7.1-7.3,11.2-8.7s6.9-2.3,10.2-.5Z" style="fill:#162136"/><path d="M143.3,372.3s1.4,2.2.6,6.9-3,4.9-2.5,4.3,2.5-10.6,1.9-11.2Z" style="fill:#162136"/><path d="M149.6,388.4l-.3,2.6a21.4,21.4,0,0,1-3.4-.9l.3-2.8Z" style="fill:#162136"/><path d="M173.8,391.3l-.3,2.8h2.2v-2.6Z" style="fill:#162136"/><path d="M127,333.2c4.2,27.9,26.3,14.1,41.4,9.4l2.9,2c-2.8,1.1-9.5,3.8-12.4,4.3a86.8,86.8,0,0,1-9.8,3.3C133.9,354.2,128,348.3,127,333.2Z" style="fill:#162136"/><path d="M192.4,282.4a57.8,57.8,0,0,0-1.2,5.7c.1.8,5.9-10.9,5.4-11.2v-5.8l-1.5,1.1C194.9,275.4,194.4,279.8,192.4,282.4Z" style="fill:#162136"/><path d="M216,258.4c-6.8,2.3-17.1,11.9-17.6,19,0,0,3.9-3.5,4.9-7.8,1,2.7-1.7,5.2-2.7,7.2s-3.1,5.2-4.1,6.7c0-3.5.1-9,.3-12.5,1.2-1.2,6.1-6.2,7.4-7.2S213.5,259.6,216,258.4Z" style="fill:#162136"/><path d="M146.6,387.5l3,.9c-.7-7.6,3.9-28.7,9.6-34.5-.5.3,13-4.5,13.5-4.8s7.9,6.4,8.6,6c-1,7.7-6.3,29.3-7.5,36.3h1.8c1.2-6.1,3.2-15.4,4.3-21.6s3.7-15.1,3.6-20.6c-2.9-1.2-7.5-3.1-9.8-5.3-3.4,1.3-12.6,4.8-16,5.3-2.6,5.5-6.5,14.2-8.2,20.1A160.3,160.3,0,0,0,146.6,387.5Z" style="fill:#961a17"/><path d="M172.5,299.1a12.6,12.6,0,0,1-2.6-1.3,36.4,36.4,0,0,1-1.9-7.9c.1,1.3,2.5,4.3,3.9,7.6,0,0,1.4.2,1.7.9s6,.7,8.5,2.3c.4-.6,1.5-1.4,2-1.1,0-1.4,3.8-5.6,3.8-5.6l-2.3,3.5-.8,2.8-.6.2-1.5,2.1c-2.6-1.4-6.3-3.8-9.5-2.7Z" style="fill:#961a17"/><path d="M191.2,288.1c-.2.9-2.8,6-2.8,6,2.5-2.8,5.6-6.9,7.9-9.9.1-1.5.4-4.6,0-6.1C195,281.5,193.5,285.2,191.2,288.1Z" style="fill:#961a17"/><path d="M192.4,363.1c4.5,3.1,9,19.5,11.6,23.5C198,383.3,196.1,367.1,192.4,363.1Z" style="fill:#162136"/><path d="M184.4,369c-.4.9.2-2.5,1.4-3.8s7.1-4.1,4.7-2.5C186.2,365.8,186.4,365.6,184.4,369Z" style="fill:#162136"/><path d="M181.2,391c1.2,3.1,18.4,1.9,19.2-1.5.6-.9-3.7,1.8-9.5,1.9S180.2,390.2,181.2,391Z" style="fill:#162136"/><path d="M181.4,399.6c.2-2.8,3.4-5.1,5.8-4.9s-1.8.8-3.5,2.1S181,400.9,181.4,399.6Z" style="fill:#162136"/><path d="M218.3,257.5c2.7-1.3,7.1-2.1,9.2-1.4s-1.2.1-2.4.6c1.4,0,7.1,3,7.9,4.4s-.3.6-.3.6c-2.1-1-8-2.8-10.3-3.5S219.1,258.1,218.3,257.5Z" style="fill:#7e6e5b"/><path d="M222.3,242.3c-11.9,1,17.7,4.7,7.6,6.2a35.9,35.9,0,0,0-12.4,3.5l-4.7,2.7s-3.9,3.8-1.5,3.7a70.4,70.4,0,0,0,8-1.4c-4.5,1.9-10.3,4.7-14.7,6.8.4-2.2,3.8-5.7,5.1-7.5,2.1-4.5,5.3-10.2,7.8-14.5Z" style="fill:#7e6e5b"/><path d="M202.6,277.7c.3-4,9.6-5.7,11.6-4.6C211.2,272.5,204.5,275.4,202.6,277.7Z" style="fill:#7e6e5b"/><path d="M191.2,297.4a56.5,56.5,0,0,1,.5-7.1l2.3-3C194.2,289.1,191.7,295.8,191.2,297.4Z" style="fill:#7e6e5b"/><path d="M181.6,302c-1.6,1.1-3,9.8-1.4,13.3,0-7.9,1.3-8.5,2.8-12.2,0,0,.3,3.7,2,5.6a33.9,33.9,0,0,1-.1-7.8h-.8c-.3.3-1.1,1.1-1.1,1.5Z" style="fill:#7e6e5b"/><path d="M163,326.9c7.4,12.2,22.7,25.6,38.9,15.2,14.3-9.8,24.6-20.3,31.4-36.4,3.7-7.1,10.6-23.2,8-31.2,4.1,15.8-11.8,49-25.5,60.8-8.1,6.5-13.8,13.9-22.3,13.9C175.9,351.5,168.5,337.6,163,326.9Z" style="fill:#7e6e5b"/><path d="M196.2,343c-3.3,1.4-7.7,2.3-11.3,1.4s4.5-.3,9.8-2.5c2.5-1,5.7-2.5,8.2-3.7s1.2-.2.7.2C198.9,341.6,199.9,341.3,196.2,343Z" style="fill:#7e6e5b"/><path d="M209.2,331.8c-2.1,1.6-7.8,4-11.1,4.7s4.7-2.8,12-7.7A64.4,64.4,0,0,0,226.8,313c3.6-5.1,8.9-11.9,3.3-3.2a64.7,64.7,0,0,1-20.9,22Z" style="fill:#7e6e5b"/><path d="M157.2,238.4c-16.4,2.1-25.6-40.1-6.2-40.2C168.5,197.2,178.5,236.8,157.2,238.4ZM151,198.8c-19.1,1.9-8.4,40.3,6.2,38.4,19.7-1.8,10-39.2-6.2-38.4Z"/><path d="M140.2,294.1C112.8,295.7,96.4,279,101,255c-17.8-9.7-53.1-41.8-54.8-67l2.3,1.6c1,23.9,40.6,57.8,54.4,64.9-9,44.4,48.6,44.8,77.9,26.9,21.6-12,30.3-29,37.4-43.2,17.7,1.2,37.8-31,23.2-47-10.7-7.3-26.7,1.9-30.6,15.4-2.2,6.1-1.1,11.1,1.3,16.4.5,1.5-.3.6-.6.2-3.3-4.3-4-10.4-1.8-16.9,4.2-14.5,21.5-23.7,33-16.2,15.1,16.2-3.9,50.5-23.5,49.9C207.2,269.7,176.2,295,140.2,294.1Z"/><path d="M148.8,312.2l-1.6-.6c.5-9.8,19.4-20,26.6-11.8l-1,.7c-3.1-3.2-9.8-3.4-14.1-.4-3.8,1.2-10.9,7.6-9.9,12.1Z"/><path d="M178.3,292.9a11.9,11.9,0,0,1-10-5l1-.7c10,12,25.8-2.9,25.3-15.2l1.7-.2c-1.3,10.6-6.4,19.2-18,21.1Z"/><path d="M196.9,284.2h-1.2c.3-3.8.9-10.7.5-13.2l1.2-.2c.4,2.6-.2,9.4-.5,13.5Z"/><path d="M192.3,295.1c-.4,1.4-2.3,5-1.1-.3,2.4-10,11.1-20.8,14.8-27.3-.2,3.5-3.1,7-5.1,10.1s-8,14.9-8.6,17.5Z"/><path d="M184.8,308.5c-3.7-11.9,7.2-17.5,11.3-25.6l1,.6C192.9,291.5,183,297.6,184.8,308.5Z"/><path d="M179.9,314.6c-.5-5.3,1.3-13.5,5.1-14.6l-.2,1.2a21.9,21.9,0,0,0-4.6,13.9C180.3,315.7,180,315.3,179.9,314.6Z"/><path d="M158.4,318.3h-1.2c.1-11.8,14.8-24.3,25.9-16.4v1.2c-2.1-.3-4.5-2.5-6.7-2.7-8.6-.5-18.2,9.7-17.9,17.9Z"/><path d="M203.7,264.9l-.3-1.1c6.3-2.2,16.7-9.6,23.3-7.7-7.3-.9-16.4,6.7-23,8.8Z"/><path d="M190.6,350.6c-24.6,3-23.6-29.8-40.6-37.5-2.3-.4-7.7-2.2-8.6-3,29.4.6,20.2,45.7,55.2,37.4,10-3.8,28.5-19.8,33.7-32.4,12-21.3,21.6-57.3-13.8-56.6l1.2-1.4c35.4.6,25.7,36.7,13.9,58.4-7.2,15.1-26.2,34.6-41,35.1Z"/><path d="M141.4,313.4c2.2-1.2,6.4-1.9,8.1-1.5l-.3,1.1c-1.6-.4-6.1-.3-7.9.6C141.1,313.8,140.9,313.6,141.4,313.4Z"/><path d="M191.5,343.9a34.3,34.3,0,0,0,11-5c.4-.3,2-1.1.6.2-2.6,3.1-8.3,5.5-12.7,5.7S189.4,344.4,191.5,343.9Z"/><path d="M201.3,276.9l-.9-.8a12.5,12.5,0,0,0,2.7-6.1c0-.4.1-.3.1,0S203.3,274.7,201.3,276.9Z"/><path d="M204.7,276.4c-1.8,1.2-2.6,1.8-1.7.6,2.3-3.1,7.2-4.2,9.3-4.1s2.8.2.7.4A25.3,25.3,0,0,0,204.7,276.4Z"/><path d="M203.1,273.7l-.5-.3c4.7-6.6,19-16.7,27.7-13.3l-.3.5C221.8,257.1,207.4,267.1,203.1,273.7Z"/><path d="M179.8,295.2c-5.2,0-10.3-2.4-12.2-5.9l.5-.3c11.8,15,29.3-2.9,28.5-16.6h.6c.3,8.1-6.8,22.5-17.4,22.8Z"/><path d="M156.1,435.4c-6.7-.2-17.5-2.1-20.9-7.1-.9-8.8.4-22.5.8-31.5h1.2c-.4,6.6-1.6,27.1-.9,30.9,3.1,5.4,21.8,7.2,25.8,6V435a41.7,41.7,0,0,1-6.1.4Z"/><path d="M192,444.3c-8.7,0-25.3-1.8-30.2-6.6-.8-6,.3-21.7-.4-26.7h1.4c.3,5.1-.4,19.7,0,26,18.8,10,53.4,7.3,69.7-3.5,3.5-2.4,7.5-5,7.7-5.8,2.9-11.8,2-35.2,2.5-48.6h1.2c-.4,13.4.5,37-2.5,48.8-12.4,12.5-27.9,15.7-49.4,16.3Z"/><path d="M203.6,386.6c-5.1-2.1-9.4-20.2-11-23.4C196.4,366.8,200.4,384.3,203.6,386.6Z"/><path d="M162.7,411.6c-6.1.9-1.4-14.9-2.2-19h1.2c.7,4-3.6,18.4,1.6,18.2C164.7,411.1,164.9,411.4,162.7,411.6Z"/><path d="M174.4,394.5c-8.6-1-20.6-1.6-28.9-4.1l.4-1.1c8.2,2.3,21.6,3.6,29.8,4v1.2Z"/><path d="M175.8,391.8c-1.4-.4-28.1-2.5-29.6-4.1l.2-.6c1.5,1.9,28.2,3.9,29.5,4.1Z"/><path d="M163.3,409.1c.5-2.6.8-11.1.1-13.7-.1-.5,0-.8.2-.1,1.3,2.6,1.4,11.5-.1,14-.3.7-.3.2-.2-.2Z"/><path d="M180.5,402.7c18.7-13.3,49.8-14.8,65.8-31.9l.5.3c-6.1,7.2-19.4,11.9-28.3,16.2-6.2,2.4-18.2,5.9-24.6,8.4a55.6,55.6,0,0,0-13.2,7.5C180.7,403.3,180.5,402.8,180.5,402.7Z"/><path d="M181.4,405.5c-8.3-11,5.4-47.8,4.4-56.8h.6c.6,12-12.6,43.9-4.5,56.4Z"/><path d="M158,431.8c-6.4.4-20.5-3.7-22.8-7.7l.4-.4c4.4,5.8,19.4,8.8,26.5,7l.2.6a21,21,0,0,1-4.3.5Z"/><path d="M194.3,439c-7.7,0-27.7-2.5-32.3-6.5l.4-.5c20.5,11.1,65.1,8.6,79.3-11.8h.6c-6.4,13-34.2,18.5-48,18.7Z"/><path d="M223.7,439.2l-.5-.3c2.6-6.5.5-13.9,1.2-21.1s2.2-21.9.6-29.3h.6c1.7,7.5,0,21.1-.6,29.5s1.4,14.7-1.3,21.3Z"/><path d="M225.9,400.6c-8.8-.1-16.1-1.8-19.4-4.7l.4-.4c3.2,2.7,10.3,4.4,19,4.5Z"/><path d="M225.9,398.6c-3.4,0-11.7-.4-16.2-3.5l.7-1c3,2.1,8.6,3.2,15.6,3.3Z"/><path d="M157.2,410.6a40.2,40.2,0,0,0-10.4-.2c-1.6.2-1.7,0-.2-.4s7.3-1.5,12.1.5c1.5.5,1.7.8-1.5.1Z"/><path d="M177.6,411.5a40.2,40.2,0,0,0-10.4-.2c-1.6.2-1.7,0-.2-.4s8.6-1.6,13.8.8c1.4.6,0,.5-3.2-.2Z"/><path d="M150.9,415.4c-6.1,1.4,7.1-3.7,7.4-2.9C162.1,412.3,152.9,414.6,150.9,415.4Z"/><path d="M171,414.7c3.9,1.8-6-.5-5.8-1.2C163.1,411.9,169.5,414.3,171,414.7Z"/><path d="M138.5,383.5c-7.4-15.3,9.9-28.8,5-22.1s-6.7,13.9-4.5,22.7C139.6,386.5,139,385.1,138.5,383.5Z"/><path d="M187.5,393.4c-1.8.3-7-1.9-4.3-1.5a28.4,28.4,0,0,0,16.3-1.5C197.3,392.6,190.5,393.3,187.5,393.4Z"/><path d="M218.6,341.8c3.1-3,7.6-11.2,9-15.1.1-.3.5-1.1.3,0-.7,4.5-4.9,13.1-9.2,15.4C217.2,343.1,218.4,342.1,218.6,341.8Z"/><path d="M230.4,354.6c-2.1,6.6,2.3-22.1,1.9-14.3C232.3,344.3,231.8,350.7,230.4,354.6Z"/><path d="M216.8,370.7c5.6-10.9,10.8-29.4,13.7-41.7C231.3,335.2,222.5,364.1,216.8,370.7Z"/><path d="M147.3,356.7c-1.1.8-1.7.9-.6-.3a25.5,25.5,0,0,1,5.2-3.3c1.7-.8,1.2-.4.4.2Z"/><path d="M142.6,362.7h-1.3c0-.1,2.5-7.1,3.9-10.7l1.1.4c-1.5,3.6-3.5,9.8-3.7,10.3Z"/><path d="M145,403.7c-16.9-8.2-11.7-13.5-8.2-27l1.2.2c-2.9,12.5-8.6,17.3,6.6,25.5-1.6-3.3.3-10.6,1-14.3,1.8-12.3,5.4-28.9,11.8-39.4l1.1.3c-6.2,10.2-10.1,26.9-11.8,39.3-.7,3-1.8,9.6-1.6,11.6S147,403.4,145,403.7Z"/><path d="M138.3,392.2a17.2,17.2,0,0,1-1.7-7c.1-2.2.2-.9.5.5S140.1,395.7,138.3,392.2Z"/><path d="M141.5,382.5a40.6,40.6,0,0,0,1.7-9.1c0-.3,0-2.7.5-.3a15.9,15.9,0,0,1-1.9,9.8C141.1,384.1,141.4,383.1,141.5,382.5Z"/><path d="M185.3,367.7c-.7.9-1.2,2-.7.4a9.6,9.6,0,0,1,4.2-4.9c1.7-.8,2.1-.7,1.2-.2A34.8,34.8,0,0,0,185.3,367.7Z"/><path d="M182.2,397.7c-1.7,4.2-1-2.7,2.7-2.8S182,396.4,182.2,397.7Z"/><path d="M180.1,407.1c-12.9-10.5,3.4-42.8,3-58.9h1.2c-.2,16.8-12.9,41.6-5.7,55.8,1.7,2.4,1.2,2.2,2.4,1.1,7.5-6.2,22.1-8.1,33-12.5s17.3-8.3,25.1-12.1c5.8-2.6,6.7-4.1,6.8-4.6.8-9.1-2.2-17.4-4.5-25.2-3.3-12.2-7-32.4-6.8-45l1.7-1.9c-.5,11.2,2.1,32.3,5.3,43.1s6.5,18.5,5.4,29.2c-.3,1.6-2.7,3.4-7.4,5.5-7.9,3.7-15.7,8.8-25.2,12.1C202.6,398.3,188.4,400.3,180.1,407.1Z"/><path d="M203.3,436.2c-1.7.6-.4-7.8-.7-9.1s7.3-1.9,9-2.3,1.4,10.9.6,10a53.2,53.2,0,0,1-8.9,1.4Zm-.3-.5c2.4.1,8.1-1.1,9.2-1.4s0-7.4-.2-8.7-3.5.4-5.4.4-3-.1-3.4,1.3,0,5.9-.2,8.4Z"/><path d="M214.4,434.4c-1.2-.3-.2-3.3-.4-4.6s-.1-3.1-.2-4.4,6.5-1.8,8.1-2.4.6,2.2,1.1,4.8-.2,4.2-.5,4.3A44.2,44.2,0,0,1,214.4,434.4Zm7.8-10.9c-11.4,1.5-6.7,0-7.8,10.4a72.7,72.7,0,0,0,8-2.2c.3-.8,0-6.7-.2-8.2Z"/><path d="M191.9,354.4c-2.3-.8-6.8-5.5-2.2-2.3C191.1,353.1,198.4,357.2,191.9,354.4Z"/><path d="M143,402.5c-2.4-9.6,2.4-15.8,3-26.2s5-18.3,9.4-26.5l.5.2c-4.4,8.2-8.5,16.6-9.4,26.4s-5.4,16.5-3,26Z"/><path d="M142.5,399.8c-4.2-2.6-8.3-6.9-9.1-9l.3-.2c.6,1.7,4.6,5.8,8.7,8.4C142.5,399.1,142.6,399.8,142.5,399.8Z"/><path d="M224.1,403.8c-1.6,0-1.6-3,0-3S225.7,403.8,224.1,403.8Zm0-2.7c-.8-.1-1.1,2.1,0,2.1s1.1-2.2,0-2.1Z"/><path d="M161.7,297.8c0-2.2,2.1-4,3.3-4.9s.3,0,0,.2a7.3,7.3,0,0,0-2.1,4.6Z"/><path d="M161.8,298.3h-1.2C160.7,293.9,161.3,293,161.8,298.3Z"/><path d="M144.8,353.7c-15.1.7-21.6-13-17.9-27.7,2.2-13,14.9-27.3,24.8-34.4l1.4.9c-10.1,6.8-22.8,20.6-24.5,33.7s.2,23.4,10.9,25.5c7.2.5,8.8.6,14.8-1.9s14.9-4.3,19.2-6.8l1.4,1.3c-4.4,2.6-13.6,4.5-19.4,6.9s-5.8,2.2-10.7,2.5Z"/><path d="M134.6,345.9c-4.7-2-5.1-12.9-3.6-6.3C130.3,340.6,140.6,349.3,134.6,345.9Z"/><path d="M143,346.6c4.2-1.6,12.4-5.9,14.6-7s2.9-.4.5,1.1-10.5,5.2-15,6.2C142.7,347,141.6,347.1,143,346.6Z"/><path d="M208.2,259.4l-.3-1.7c5-4.3,16-10.9,23.4-9.3-7.5,1.1-18,5.8-23.1,11Z"/><path d="M227.4,245.7c-3.2-.9-8.3-1.9-11.2-1.6v-1.2c3.3-.4,8.8,1.5,11.5,2.6.4.3.4.4-.2.2Z"/><path d="M227,249.3c-1.6-1.4-6.2-3-8.6-3.6s8.5,1.4,9.4,2.7Z"/><path d="M233.3,262l-1.1-.4c6.3-18.8,3.9-18.2-15.3-19v-1.2c19,.6,23.5.8,16.4,20.6Z"/><path d="M169.9,298.5c-.9-2.2-3.7-8.7-2-11l1,.6c-1.4,2.3,1.5,8.3,2.1,10Z"/><path d="M201.3,335.5c11-5.6,20.7-12.8,28.1-25,.5-.8,1-.9.5-.1C224,321.7,211,333.8,201.3,335.5Z"/><path d="M111.3,201.1c-16.3-.8-37.5-11.4-48.5-27.6,17.6,22.8,51.9,33.7,78.2,19-23.9-6.1-39.6-38.2-37.3-61-.2-5.4,1.5-13.3,1.2,1.4-1.8,22.7,15.5,55.2,39.4,59.2-9.9,5.4-21.6,9-33,9Z"/><path d="M115.4,156.2c-5.9-5.1-11.3-16.1-11.7-23.4h1.2c.3,5.3,3.9,13.7,7.9,18.8-3.1-12-.9-26.9-.9-27,2.6,13.7,11.8,22,34.8,28.4-6.8-8.5-8-16-8.4-23.8,1.3,6.5,7.3,14.9,11,18.2-.9-6.1-2.5-25.4,3.5-36.1,1.2-2.7-.5,3.7-1,5.5-4.3,15-1,31.5-.7,33.9a53.6,53.6,0,0,1-10.4-12.4,33,33,0,0,0,9.8,16.9c-22.7-6-32.7-11.5-37.8-23.9C111.8,136.5,112,147.9,115.4,156.2Z"/><path d="M205.3,232.2c4.8-14.9-18.7-24-25.4-36.8,2.2,5,4.9,11.6,4.9,11.6-18.2-17.6-39.4-55.8-34.5-89.8l1.2.2c-4.5,22.2,10.4,64.3,30.2,84.2-2.9-5.1-4.7-9.7-5.1-14.7,6.2,17.8,29,26.3,30.4,39.3a44.6,44.6,0,0,0,2.4-7.3l1.2.2C208.7,226.8,207.2,228.2,205.3,232.2Z"/><path d="M124.3,259c-4.6-16.3,26.3-23.2,29.8-7.7.1.5-.1.6-.2.1C148.6,237.7,121.8,246.1,124.3,259Z"/><path d="M161.3,222.6c.2,7.2-10.1,6.8-10.4,0S161.7,215.7,161.3,222.6Z"/><path d="M118.3,239.8c.2,6.5-9.1,6.1-9.4,0S118.7,233.6,118.3,239.8Z"/><path d="M113.3,254.4C97.9,256.5,86.5,222.3,103,220,115.9,218.3,133,253.9,113.3,254.4ZM103,220.6c-15.8,3.7-3.9,34.4,10.3,32.6C131.3,252.5,114.6,219.1,103,220.6Z"/><path d="M91.9,206.5c-27.8.3-50.1-16.4-60.9-38.5-.4-1.1-.1-1.3.4-.2,3.6,8.2,14,19.1,22,25.5,9.5,10.1,49.4,16.2,58.4,6.3l.8.8c.3.1-7.7,6.5-20.7,6.1Z"/><path d="M53.8,207.7c-2.8.4-12.8-10.6-10.3-9.1s6.9,6.4,10.3,7.2Z"/><path d="M60.4,218.3c-11.8-3.3-28.3-18.7-36.3-34-3.8-7.9,0-2.7.7-1.4,7.1,15,25,31.3,35.7,33.7v1.7Z"/><path d="M32.7,214.2c-11.7-5-24.2-41.3-24.1-52.5-4.9,8.6-4.3,19-4.9,23.8-15.1-70,18.8-156.1,101.7-166.2-11.6-2.2-8.2-1.5-14.1-1.9,6.6-1.3,19.2-6.6,55.2,2.1-4.3-5.4-16.4-12.2-16.4-12.2s28.6,9.6,34.7,15.8C172.7,19,205.7,19,207,19s-14.9,3.1-23.3,7.7c13.6-2.8,37.9,1.9,46.1,12.6-3.5-2.2-9.4-4.5-12.6-4.4,59.2,27.3,48.8,110.8,29.3,164.2l-1.4-2.1c21.2-53.6,28.4-141.2-33.2-163.3,3.5-.1,4.1-.7,11,1.1-11.9-7.4-33.7-10.3-46.3-4.7,5.8-5,15-8.5,21.7-10.1-9.9.4-28.4,1.2-33.8,4.6-3.9-4.7-17.1-9.8-24.9-12.7a33.8,33.8,0,0,1,9.6,9.6c-23.1-6.9-43.8-5.9-50.6-4.6l11.9,2.3v1.2C30.3,24.9-8,107.5,3.2,176.8c.8-6,2.1-14.9,6.4-17.6-1.1,7.3,10.1,44.9,21.1,52.2-1.3-5-4.8-18.9-4.2-22.8l1.2.2C27.1,193.9,32.6,213.6,32.7,214.2Z"/><path d="M77.5,219.5c-7-.4-.4-12.3,2.3-15.5l.8.9c-2.7,2.5-9.2,17-.8,12.6,2.3-2.8,5-9.9,7.7-12.7l.9.8C84.4,208.9,83.3,219.2,77.5,219.5Z"/><path d="M154.7,181c-7.4-1.4-16.1-2.5-23.8-.6-9.2-2.2,4.5-11.6,10.9-10.4,6.8-.7,20.4,7.8,12.9,11Zm-13.6-3c5.1-.2,10.4,2.7,14.6,1.4-.5-5.6-9.9-9.1-17-7.9-4.6.2-13.4,6.7-7.8,7.8,3-.2,6.9-1.4,10.2-1.3Z"/><path d="M223.1,228.6c1.1-5.7-3.7-6.8-4.2-7.1,0-6.3,6-24.8,16.5-23-7.8.1-14.8,14.3-14.5,21.4,1.3.6,4.8,2.8,2.5,8.8-.1.4-.3.3-.3-.1Z"/><path d="M229.4,213.5c1-3.3,1-9.6-.4-13l1.1-.4c1.5,3.7.7,9.8-.5,13.5C229.4,214.1,229.2,214.3,229.4,213.5Z"/><path d="M152.8,284c-.2,0-1.1-.1.2-.5a23.7,23.7,0,0,0,8.3-4.4C164.2,277.6,157.5,285,152.8,284Z"/><path d="M143.1,280a29.6,29.6,0,0,1-10.2-1.8c-.4-.1-.5-.5,0-.4,10.6,3.2,26.6.2,32.4-12a42.2,42.2,0,0,0,4.1-8.9c.3-.9,1.1-3,.5,0-2.3,12.2-13.3,24.9-26.8,23.1Z"/><path d="M172,253.3c-.6-1-2.3-1.1-3.4-.5s-.8.2-.2-.3a3.9,3.9,0,0,1,3.3-.6c1,.3.8,2.8.3,1.4Z"/><path d="M169.8,480.3c-12.7-.4-15.1-3.7-18.9-15.7-3.8-9.2-8.7-24.4-10.1-32.8H142c1.5,10.3,8.1,27.8,12.3,38.3,1.5,9.6,13.8,9.2,20.3,8.5V480a27,27,0,0,1-4.9.4Z"/><path d="M151,461.1a3.1,3.1,0,0,1-2.3-2l1.1-.4C149.7,459.8,153.2,461.9,151,461.1Z"/><path d="M195.2,465a14.2,14.2,0,0,1-6.7-2.8c-1.5-1.2-1.4-1.4.2-.5S199.1,465.8,195.2,465Z"/><path d="M202.3,465.4c-3.7,1.3,5.2-4.2,5.4-5.3s1-1,.1.5S204.4,465,202.3,465.4Z"/><path d="M194.4,486.9c-6.7.7-16.5-2.9-17.6-7.6-2.2-8.2-5.9-29.6-6.3-38.2h1.2c.5,8.5,4.1,29.6,6.3,37.8.5,1.3,2,3.5,6.8,5.3,8.2,2.1,27.4,2.4,30.6-7.8,5.4-13.1,9.8-24.2,11.3-39.1h1.2c-1.4,13.8-5.1,23.2-9.4,35.3-2.6,11.2-12.6,14.9-24.1,14.4Z"/><path d="M177.3,484.4c-3.6-2.8-4.9-5.6-.6-7.6l.4,1.1c-3.4,1.4-1.4,3.8.5,6.4C177.8,484.6,177.6,484.6,177.3,484.4Z"/><path d="M215.4,482.1c-3.5,2.5,3.9-3.1.2-4.9l.6-1C218.9,477.8,217.5,480.3,215.4,482.1Z"/><path d="M209.3,492.4l-1.1-.2c.5-6.9,3.4-6.4,8-9.2.4-1.1.8-2.8.4-3.4l.9-.7c1,1.5.1,3.9-.1,4.7s-4.4,2.6-6.1,3.4-1.5,3.5-2,5.4Z"/><path d="M216.6,493.8l-1.1-.5c1.8-5.1,3.7-9.4,1.2-10.1l.4-1.1c3.8,1.4,1.5,5.6-.5,11.7Z"/><path d="M153.5,476.9c-.6-1.3-.6-4.2,1.3-3.9l-.2,1.2c-.4.2-.4,1.5,0,2.3Z"/><path d="M196,493.7c-1.5-4.7-8-2.5-12.8-4.3-8.2-2.6-9.8-4-8.3-8.5l.9.8c-.7,3.7,1,4.4,7.7,6.6,5,1.7,12.7-.1,13.7,5.2Z"/><path d="M205.8,537.8c-9.7-.3-17-2.8-21.8-9.4-2.3-2.3-11-13-10.7-15.6,6.2-19.2-4.9-27.6,1.4-30.1l.3,1.1c-3.8,1.5,2.7,10.8,1.5,17.1.1,9.6-5.5,9.2,1.4,18.2,6.3,7.4,7.9,12.7,17.7,15.8,8.1,4,36.9.4,35.6-15.5,3.3-24.4-26.6-20.6-37.5-9.5,5.1-9.9,24.3-13.9,33.8-6.4,6.4,5.7,4.7,15.7,4.8,16.8,1.1,10.4-15,18-26.5,17.5Z"/><path d="M175.6,534.1c-.7,0-1.2-.1-1.4-.4-3.2-3.2-3-6.8-3.2-12.3s-1.8-8.8,2.8-9.6V513c-3.4.5-1.4,3.7-1.7,8.3s-.7,7.4,2.9,11.6a5,5,0,0,0,2.1-.2l.2,1.2-1.8.2Z"/><path d="M182.2,543.3c-3.5-1.4-4-8.6-6.5-11.7-1.3,3-1.3-4.8-.9-3.8a46.6,46.6,0,0,1,4.9,9.4c1.5,2.6,1,5.5,4.1,4.6l.2,1.2Z"/><path d="M203.5,540.4c-7.2.6-17.9-3.1-20.9-10-3-4-9.2-13.3-9.1-15,10,16.8,15.6,27.2,38.4,23.4,7.9-1,16.8-4.2,19.8-10.1-1.5,6.7-18.9,12.4-28.2,11.7Z"/><path d="M187.2,547c-3.9-1-3.6-2.3-3.5-5.8l-1.2-1-.3,1.3c-.3.9-1.5-4.2-.9-3.9a32.7,32.7,0,0,1,3.5,3c0,.4.1,2.9,0,4a4.5,4.5,0,0,0,4.8.8l.2,1.2C189,546.7,187.9,547,187.2,547Z"/><path d="M206.7,549.8a133,133,0,0,1-15.5-1.1c-2.5.1-2-2.1-2-3.8l-1.5-.6c-1-.5.1,2.5-1.2.6s-.7-2.8,0-2.4l3.8,1.7v3.2c10.5,1.9,38.9,3.1,43.4-10.9.3-3.5,1.7-11.2-2.7-12.4l.4-1.1c5,1.1,3.9,9.8,3.4,13.8C233.2,546.4,215.6,549.7,206.7,549.8Z"/><path d="M184.2,508.9c-11.2-.1-7.2-10.4,0-13.3,5-2.3,22.8-6.7,18.7,4.1l-.5-.6C196.7,500.5,191.7,509,184.2,508.9Zm12.3-14.8c-24.9.2-22.5,23.7-1.1,7.8,1.8-1.6,5.5-3.9,6.8-4C203.5,493.6,199.3,494.4,196.5,494.1Z"/><path d="M182.4,505.2c-1.3-.7-1.9-1.3-1.7-2.4,1.2-7.9,18.8-8.8,22.6-7l-.5,1c-3-1.6-24.2-.2-20.4,8.4Z"/><path d="M185,505.2c-2.7-.1-4.3-1.3-4.1-3.4l1.2.2c4.1,7.1,13.8-5.5,19.9-6.5l.3,1.1c-6.9,2-10.3,8.4-17.3,8.6Z"/><path d="M202.7,499.9a2.6,2.6,0,0,1-1.9-.7l.8-.9c4.9,2.4,3.5-8.7-.9-4.1l-.9-.8C205.1,488.5,209,499.2,202.7,499.9Z"/><path d="M205.7,499.4a4.2,4.2,0,0,1-1.5-.4l.6-1-.3.5.3-.5c4,1.5,3.1-7-1-4.5l-.6-1C208,489.2,211.1,498.8,205.7,499.4Z"/><path d="M190.8,503.3l-1.1-.4c.8-2.4,4-7.2,8-7.8l.2,1.2c-3.2.5-6.2,4.5-7.1,7Z"/><path d="M190.4,516.9H189c-2.5-1.7-1.1-6.2-.4-10.4l1.1.3c-.6,3.6-1.6,7.2-.4,8.9,3,.8,1.7-7.4,2.8-11.2l1.2.2C192,509.4,194,515.8,190.4,516.9Z"/><path d="M190.7,524.1c-2.5.2-1.7-7.1-2.2-7.9h1.2c.3.2.2,6.6,1.1,6.9s-.7-7-.4-7h1.2c-.5.9,2.3,8.2-.9,8.2Z"/><path d="M195.9,505.9c-1.2-.3-2-1.8-.7-3.8l1,.7c-.5.8-.6,1.4-.1,2,2.3-.8,4.2-2,7.4-2.6l.2,1.1c-3.3.5-5.5,2.1-7.8,2.6Z"/><path d="M212.7,501.2c-1.1-.6-4.4-2.1-5.9-2.2v-1.2c1.9.2,6.1,2.3,6.3,2.4Z"/><path d="M220.8,500c-1.4-4.9-9.4-2.3-13-2.2v-1.2c3.4-.6,15.6-2.1,12.9,3.4Z"/><path d="M223.4,501.6l-1.7-.4c3.7-6.3-14.9-8.8-15.2-7.8l-.2-1.2c1.3-1.3,21,2.4,17.1,9.4Z"/><path d="M218.7,501.2l-.4-1.1a1.6,1.6,0,0,0,1-2,.4.4,0,0,0-.1-.3l.7-.9C221.3,498,220.4,500.8,218.7,501.2Z"/><path d="M216.7,500.8c-.9-.9-4.1-3.3-7-3.4l1-.9c1.7.2,5.8,2.5,6.9,3.5Z"/><path d="M215.6,499h-1.2a25.1,25.1,0,0,1,.4-2.7l1.1.3c.1,0-.3,1.5-.3,2.4Z"/><path d="M198.2,501.1l-.6-1c1.1-.7,4.5-1.3,4.8-1.4l.2,1.2a31.7,31.7,0,0,0-4.4,1.2Z"/><path d="M213.9,517c2.1-1.8,7.5-3.3,10.8-1.8.9.3.3.2-.1.1a16.8,16.8,0,0,0-5-.1,20,20,0,0,0-5.4,1.7C213.8,517.2,213.4,517.4,213.9,517Z"/><path d="M195,491l-1.1-.4c1.7-2.3,11.6-5.6,16.4-4l-.7.9c-1.1-1.4-15.3,2.7-14.6,3.5Z"/><path d="M210.3,492.8h-.6c.9-3.9.5-4.5,3.3-5.9a17.5,17.5,0,0,0,3.5-2c.2-.1,1-.8.3,0-3.5,3.6-5.9,1.8-6.5,8Z"/><path d="M195.8,492l-.4-.5c1.9-1.4,10.4-4.3,14.1-3.5v.6c-3.5-.8-11.9,2.1-13.6,3.4Z"/><path d="M194.5,493.6c-.1-1.7-6.5-1.9-9.3-2.5-5.3-.8-10.7-3.8-9.8-3.9,2.1,3.1,18.4,3.2,19.7,6.2Z"/><path d="M137,534.3c-7.9-.6-21.4-2.8-21.4-12.2,0-6.7-1.8-9.6,3.5-10.7v1.2c-4.2.8-2.3,4.6-2.4,9.4.1,9.9,18.5,12.1,25.5,10.6a10.5,10.5,0,0,1,.1-2.5l4.7-1.3c.8-.2.7,1.7.7,2.2s-.2.6-.3.2c.1-2.3-3.1-.1-4-.2v2.6A34.8,34.8,0,0,1,137,534.3Z"/><path d="M148,533.3c-1.3,0-4.4-2.1-4.9-2.4l.6-1c3.3,2.7,5.7,2.4,9.6,1.1a7.5,7.5,0,0,0-.4-2.6c.1-.1,5.1-1.3,5.4-1.7s1.1,1.2.7,2.1-.5.2-.5,0c.8-1.8-3.5.4-4.3.4,1.4,3.9-3,3.4-6.2,4.1Z"/><path d="M158.7,530.5c-1.1,0-2.8-1.1-4.1-1.6l.5-1.1c5.4,4.3,11.9-3.5,16.7-5.5l.4,1.1c-3.7,1.8-9.1,6.8-13.5,7.1Z"/><path d="M159.6,503.5a8,8,0,0,0-2.6-2.9l.4-1.2C158.9,499.8,162.6,508.3,159.6,503.5Z"/><path d="M136.7,522.8c-35.5-1.4-14.3-39.4,18.9-24.5l-.5,1c-38.2-16.1-52.3,32.4-7,19.9,6.1-1.2,18.3-5.1,23.5-5.2v1.2c-8.5.4-24.9,6.7-34.8,7.6Z"/><path d="M163.9,501.1c-6.2.3-7.7-6.7-9.7-11.6-1.5-3.4-.7-5.4,2.7-5.4C167.1,483.2,174.3,500.3,163.9,501.1Zm-7.5-15.8c-3.4.3-.7,4.2-.1,6.3s2.7,7.5,6.1,8.1c11.2,1.4,2.9-16.2-6-14.4Z"/><path d="M163.5,499.3c-.6.1-3.4-2-1.5-1,4.3,1.2,2.9-3.6,1.1-6.6s-6.3-3.8-8.9-6l1-.7c2.7,1.7,6.3,2,8.9,6,1.5,2.3,3.7,8.6-.6,8.3Z"/><path d="M164.6,498.7c-4.8.2-8.7-9.8-8.9-12.4h1.2c0,1.9,4.3,12.3,8.1,11.2l.2,1.2Z"/><path d="M154.6,490.1c-5.8-.9-1.4-10.9,3.4-5.8l-.8.9c-3.5-3.8-6.5,3.1-2.4,3.7v1.2Z"/><path d="M152.7,489.8c-4.8-.5-2.5-10.5,2.4-6.8l-.7.9c-3.4-2.7-4.4,5.3-1.1,4.6l.4,1.1a1.8,1.8,0,0,1-1,.2Z"/><path d="M142.6,496.1c-3.4-4.7,3.3-14.8,8.9-13.2l-.2,1.1c-4.7-1.3-10.5,7.5-7.7,11.4Z"/><path d="M145.6,496.4c-2.2-4,.8-10.7,5-11.6l.2,1.2a7.6,7.6,0,0,0-4.2,9.8h.1Z"/><path d="M156,494c-3.3-1.4-9.3-1.5-5.2-6.1l.8.9c-3,3.5,2.8,2.6,5,4.1Z"/><path d="M155.6,496.2a26.7,26.7,0,0,0-6.9-1.6c-.5-1.3.6-2.9,1.6-3.5l.6,1a2.6,2.6,0,0,0-1.1,1.4A33,33,0,0,1,156,495Z"/><path d="M147.5,496.5a2.5,2.5,0,0,1,1.5-3.1l.3,1.1a1.4,1.4,0,0,0-.7,1.7Z"/><path d="M147.6,494.9c-.8-3.8,1.1-8.1,2.7-8.8l.5,1.1c-1.1.5-2.8,4.2-2.1,7.5Z"/><path d="M159.6,493.9l-1.1-.4a8,8,0,0,0,0-5.7l1.1-.5A9.4,9.4,0,0,1,159.6,493.9Z"/><path d="M156.1,511.4c-4.9-2-1.5-13.8-.2-17.8l1.2.2c-.6,2.8-1.8,4.8-2.1,8.2s-.6,10,2.3,7.7c-.9-3.7-.8-9.4.5-12.4l1.1.4a20.8,20.8,0,0,0-.6,10.5c.6,2.2-.6,2.9-2.2,3.2Z"/><path d="M160.2,517.4c-1.6,0-3.9-6.1-4.5-6.5l1-.6c.3.1,2.8,5.9,3.7,5.9s-3.4-6.1-3.2-6.2l1-.6C158.4,510.4,164.5,517,160.2,517.4Z"/><path d="M160,485h-1.2c-.5-9.6,9.7.3,16-4.5l.6,1c-7.7,5-16.1-4.2-15.4,3.5Z"/><path d="M153.2,483.2c-1-5.4-1.3-10.2,5.2-5.2,1.4.9,3.6,1.1,3.7,3h-1.2c-.3-1.3-4.6-2.5-5.3-3.5-3.1-2.2-1.4,2.9-1.2,5.4Z"/><path d="M169,484.7a12.4,12.4,0,0,1-7.4-2.2,18.5,18.5,0,0,0,12.7.9v.6a20,20,0,0,1-5.4.7Z"/><path d="M158.6,480.9c-.7-.6-4.5-3.2-4.8-2.1s-.3.3-.3-.4h-.6c.5-2,5.6,1.6,5.7,2.5Z"/><path d="M135.9,524.7c-8.3,1-17.5-5.1-18-9.7-.6-1.5.2-.3.3-.1,12.4,18.9,35.4,2.7,53.3,1.1v.6c-17.7,2.2-18.9,7-35.7,8.1Z"/><path d="M132,506.1a20.3,20.3,0,0,0-7.1-2.6c-.3,0-.8-.2,0-.2C127.8,502.3,134.7,507.4,132,506.1Z"/><path d="M153.6,461.3c-2.2.3,2.1-2,2.4-2.8S154.8,461.5,153.6,461.3Z"/><path d="M159.3,321.3c-.4-12.4,8.3-20.1,19.5-21.1v.6c-10.9,1-19.4,8.4-18.9,20.5Z"/><path d="M168.6,297.9c-1.1-2.2-1.4-5.5-.9-9h.6a15.8,15.8,0,0,0,.9,8.6Z"/><path d="M111.2,237.9c3.6.1,3.6-5.5,0-5.5S107.7,238,111.2,237.9Z" style="fill:url(#a7de3487-40d9-4671-85a3-be57408961f0)"/><path d="M155,219.6c4,.1,4-6.3,0-6.2S150.9,219.7,155,219.6Z" style="fill:url(#fc320479-aa52-49af-8052-ee950cf327d2)"/><path d="M218.5,426.8l-.2-2.1c.6-.2.7,1,.1.8" style="fill:none;stroke:#ddab47;stroke-miterlimit:10;stroke-width:1.191499948501587px"/><path d="M220.8,429.8c-3.1,6-7-4.9-1.2-3.3" style="fill:none;stroke:#ddab47;stroke-miterlimit:10;stroke-width:1.191499948501587px"/><path d="M220.1,427.4l.7-.6" style="fill:none;stroke:#ddab47;stroke-miterlimit:10;stroke-width:0.9531999826431274px"/><path d="M220.4,427.1c.7.1,0,.6-.1.7" style="fill:none;stroke:#ddab47;stroke-miterlimit:10;stroke-width:0.9531999826431274px"/><path d="M220.4,428.1l.6-.3" style="fill:none;stroke:#ddab47;stroke-miterlimit:10;stroke-width:0.9531999826431274px"/><path d="M221.1,427.8h.1" style="fill:none;stroke:#ddab47;stroke-miterlimit:10;stroke-width:0.9531999826431274px"/><path d="M220.5,428.4h.6" style="fill:none;stroke:#ddab47;stroke-miterlimit:10;stroke-width:0.9531999826431274px"/><path d="M220.9,428.4c.1,0,.2.3.2.3" style="fill:none;stroke:#ddab47;stroke-miterlimit:10;stroke-width:0.9531999826431274px"/><path d="M220.6,429.2c.2-.8.9.4.2.3S220.6,429.4,220.6,429.2Z" style="fill:none;stroke:#ddab47;stroke-miterlimit:10;stroke-width:0.9531999826431274px"/><path d="M220.2,426.8c-.2-.9-.9.5-.1.3" style="fill:none;stroke:#ddab47;stroke-miterlimit:10;stroke-width:0.9531999826431274px"/><path d="M207.7,428.8l-.2-2.2c.7-.3.8,1,.1.8" style="fill:none;stroke:#1d775d;stroke-miterlimit:10;stroke-width:1.3976999521255493px"/><path d="M210.5,431.9c-4.1,6.4-9-5-1.5-3.4" style="fill:none;stroke:#1d775d;stroke-miterlimit:10;stroke-width:1.3976999521255493px"/><path d="M209.7,429.4l.9-.7" style="fill:none;stroke:#1d775d;stroke-miterlimit:10;stroke-width:1.1181000471115112px"/><path d="M210.1,429.1c.9.1,0,.7-.2.8" style="fill:none;stroke:#1d775d;stroke-miterlimit:10;stroke-width:1.1181000471115112px"/><path d="M210.1,430.2l.8-.3" style="fill:none;stroke:#1d775d;stroke-miterlimit:10;stroke-width:1.1181000471115112px"/><path d="M211,429.8h.2" style="fill:none;stroke:#1d775d;stroke-miterlimit:10;stroke-width:1.1181000471115112px"/><path d="M210.2,430.5h.8" style="fill:none;stroke:#1d775d;stroke-miterlimit:10;stroke-width:1.1181000471115112px"/><path d="M210.8,430.4c.1,0,.2.3.2.3" style="fill:none;stroke:#1d775d;stroke-miterlimit:10;stroke-width:1.1181000471115112px"/><path d="M210.3,431.3c0-.5.8-.3.6.1S210.2,431.6,210.3,431.3Z" style="fill:none;stroke:#1d775d;stroke-miterlimit:10;stroke-width:1.1181000471115112px"/><path d="M209.8,428.7c-.2-.9-1.2.5-.2.3" style="fill:none;stroke:#1d775d;stroke-miterlimit:10;stroke-width:1.1181000471115112px"/></g></svg>