<svg xmlns="http://www.w3.org/2000/svg" id="f1078e8f-17a6-4d3d-812d-76c548831186" data-name="Layer 1" viewBox="0 0 210 210"><defs/><defs><linearGradient id="f6e72b43-15b6-4f61-b40a-1192ce0cfacd" x1="105" x2="105" y1="15.5" y2="204" gradientTransform="matrix(1 0 0 -1 0 212)" gradientUnits="userSpaceOnUse"><stop offset="0" stop-color="#fff" stop-opacity="0"/><stop offset=".9" stop-color="#fff" stop-opacity=".4"/><stop offset="1" stop-color="#fff" stop-opacity=".5"/></linearGradient><style>.e586bf66-2800-44de-869a-f0d4ed524d09{stroke:#000;fill:none;stroke-linecap:round;stroke-linejoin:round;stroke-width:1.93px}</style></defs><path d="M105.9 7.3c131.8 3.4 131.8 196.7 0 200C-26 204-26 10.7 105.9 7.3z" style="isolation:isolate" opacity=".3"/><path fill="#5e4b3a" stroke="#000" stroke-miterlimit="10" stroke-width="1.4" d="M105 8c127.9 3.2 127.9 190.8 0 194-127.9-3.2-127.9-190.8 0-194z"/><path fill="#936f51" d="M105 8c124.3 3.2 124.3 185.3 0 188.5C-19.3 193.3-19.3 11.1 105 8z"/><path fill="url(#f6e72b43-15b6-4f61-b40a-1192ce0cfacd)" d="M105 8c124.3 3.2 124.3 185.3 0 188.5C-19.3 193.3-19.3 11.1 105 8z"/><path fill="#d3d3d3" d="M105 24.4c106.3 2.7 106.2 158.5 0 161.2C-1.3 182.9-1.2 27.1 105 24.4z"/><path fill="#eaefea" d="M105 28.3c106.3 2.7 106.2 154.6 0 157.3C-1.3 182.9-1.2 30.9 105 28.3z"/><path fill="none" stroke="#000" stroke-miterlimit="10" stroke-width="1.4" d="M105 24.4c106.3 2.7 106.2 158.5 0 161.2C-1.3 182.9-1.2 27.1 105 24.4z"/><path d="M66.3 38l4 6.9M73.7 34.3l1.5 3.7M81.1 31.4l1.2 3.8M88.9 29.3l.8 4M96.9 28.1l.4 3.9M105 27.6v8M113.1 28l-.5 4M121 29.3l-.8 3.9M128.9 31.3l-1.2 3.9M136.5 34.3l-1.7 3.6M143.7 37.9l-4 6.9M148 45.6l2.5-3.3M154.1 50.5l2.8-3.1M159.5 55.9l3.1-2.7M164.4 61.8l3.2-2.3M165.1 70.3l6.9-4M172 75.2l3.7-1.7M174.7 82.3l3.9-1.2M176.8 89.7l3.8-.8M177.9 97.3l4.1-.4M174.4 105h7.9M177.9 112.6l4 .5M176.8 120.3l3.8.7M174.8 127.7l3.8 1.2M172 134.9l3.6 1.5M165 139.7l6.9 3.9M164.4 148.1l3.2 2.4M159.6 154.1l3 2.6M154.1 159.5l2.7 2.9M148.1 164.3l2.4 3.2M139.7 165l4.1 7.1M134.8 172.1l1.8 3.6M127.7 174.8l1.2 3.8M120.2 176.8l.9 3.9M112.6 177.9l.4 4M105 174.4v8M97.3 177.9l-.4 4M89.7 176.7l-.8 3.9M82.2 174.8l-1.2 3.7M75.1 172.1l-1.6 3.6M70.2 165.1l-3.9 6.9M61.9 164.3l-2.4 3.3M55.9 159.4l-2.7 3.1M50.4 154.1l-2.9 2.7M45.6 148.1l-3.1 2.3M44.9 139.6l-6.9 4.1M34.3 136.5l3.6-1.6M31.4 129l3.9-1.3M29.3 121l3.9-.8M28 113.1l3.9-.5M27.7 105h7.9M28 96.9l4.1.4M29.3 88.9l3.9.8M31.4 81l3.8 1.3M34.3 73.6l3.5 1.5M37.9 66.3l6.9 3.9M42.4 59.4l3.2 2.5M47.5 53.1l2.9 2.7M53.3 47.4l2.6 3M59.5 42.4l2.4 3.2" class="e586bf66-2800-44de-869a-f0d4ed524d09"/><path d="M100.5 41.1l-2 .9-.3-1.7 2.6-1.3h2v10.1h-2.3v-8zM105.1 49.1v-1.5c1.7-1.5 4.8-4.2 4.6-5.4s-2.9-1.6-3.8-.7l-.7-1.6c6.8-3.7 9.4 3.3 3.2 7.2h3.8v2zM107.7 162.5c-2-.2-4.1 1-4.2 2.4 5.2-3.7 7.9 5.9 1.6 6.1s-3.7-11.6 2.6-10.4zm-1.3 5a1.5 1.5 0 10-3-.2c-.1 2.3 3.1 2.8 3 .2zM139.4 155h-3.9l-.3 1.6c8.3-.3 4.1 9.4-2.6 6.1l.5-1.7c4.9 2.3 6.3-3.8.1-2.7l.6-5.2h5.6v1.9zM154.7 79v-1.4c1.8-1.6 4.9-4.3 4.6-5.5s-2.8-1.6-3.8-.6l-.7-1.7c6.9-3.7 9.5 3.3 3.2 7.2h3.9v2zM133.6 48.1a16.3 16.3 0 00-1.9.9l-.4-1.8 2.6-1.2h2v10h-2.3v-7.9zM158.6 140.2v-2.4h-4.4v-1.6l3.8-6.1h2.9v5.9h1.2v1.8h-1.2v2.4zm0-4.2l.1-4.1-2.3 4.1zM164.1 107.8c3.8 2.4 6.6-2.3 1.2-2.1V104c4.8.3 2.4-3.8-.9-1.6l-.5-1.7c1.6-1.3 6.8-1 6.4 1.7a2.5 2.5 0 01-1.8 2.4 2.5 2.5 0 012.2 2.4c.3 3-5.1 3.8-7.1 2.4zM39.9 108.5c1.7.2 3.9-.6 4.2-2.5a3.1 3.1 0 01-5.1-2.4 3.6 3.6 0 013.7-3.6c6.9.7 3.9 11.7-2.8 10.4zm1.4-5.1a1.5 1.5 0 002.7 1c1-2.5-2.5-4.2-2.7-1zM48.1 74.5l-2 .9-.4-1.7 2.7-1.3h2v10.1h-2.3v-8zM60.3 77.4c.4 7-7.9 6.9-7.5.1s8-6.9 7.5-.1zm-5.2.1c-.1 4.6 3.1 4.5 2.9-.1s-3-4.6-2.9.1zM49.7 135.5c-2.9-1.6-1.1-5.2 2.1-5s4.5 3.3 1.9 4.8c3.3 1.3 1.8 5.9-2.1 5.6s-4.9-4-1.9-5.4zm3.4 2.5c0-.9-.6-1.4-1.6-1.7-3.3 1.2.9 4.9 1.6 1.7zm-2.6-4.8c0 .7.6 1.1 1.4 1.4 2.8-1.2-.9-4.3-1.4-1.4zM78.2 152.6v1.5l-4.1 8.6h-2.5l4.2-8.1h-4.7v-1.9zM69.5 50.6a16.3 16.3 0 00-1.9.9l-.4-1.8 2.7-1.2h1.9v10h-2.3v-7.9zM76.6 50.6a16.3 16.3 0 00-1.9.9l-.4-1.8 2.6-1.2h2v10h-2.3zM106.8 112.3c-1.8 3.9-9.2 3.5-7.3-1.8s9.4-2.9 7.3 1.8zm-5.7-6.7c-.5-5.8 5.1-8.3 7.5-12.4-1.4-2.8-5.4 1.4-7 2.6l-1.9-4.4c4.5-5 17.6-5.5 13.9 4-1.7 4.1-7.1 5.2-8.2 9.8z"/></svg>