<?xml version="1.0" encoding="utf-8"?>
<!-- Generator: Adobe Illustrator 24.1.1, SVG Export Plug-In . SVG Version: 6.00 Build 0)  -->
<svg version="1.1" id="b6bc81e1-4058-4894-a23f-9f8e3d6b4602"
	 xmlns="http://www.w3.org/2000/svg" xmlns:xlink="http://www.w3.org/1999/xlink" x="0px" y="0px" viewBox="0 0 313 550"
	 style="enable-background:new 0 0 313 550;" xml:space="preserve">
<style type="text/css">
	.st0{clip-path:url(#SVGID_2_);}
	.st1{fill:url(#SVGID_3_);}
	.st2{fill:url(#SVGID_4_);}
	.st3{fill:url(#SVGID_5_);}
	.st4{fill:#352920;}
	.st5{fill:url(#SVGID_6_);}
	.st6{fill:url(#SVGID_7_);}
	.st7{fill:url(#SVGID_8_);}
	.st8{fill:url(#SVGID_9_);}
	.st9{fill:url(#SVGID_10_);}
	.st10{fill:#262626;}
	.st11{fill:#303030;}
	.st12{fill:#161616;}
	.st13{fill:#A8A8A8;}
	.st14{fill:url(#SVGID_11_);}
	.st15{fill:url(#SVGID_12_);}
	.st16{fill:url(#SVGID_13_);}
	.st17{fill:url(#SVGID_14_);}
	.st18{fill:#F44040;}
	.st19{fill:url(#SVGID_15_);}
	.st20{fill:url(#SVGID_16_);}
	.st21{fill:url(#SVGID_17_);}
	.st22{fill:url(#SVGID_18_);}
	.st23{fill:url(#SVGID_19_);}
	.st24{fill:#FFFFFF;}
	.st25{fill:url(#SVGID_20_);}
	.st26{fill:url(#SVGID_21_);}
	.st27{fill:url(#SVGID_22_);}
	.st28{fill:url(#SVGID_23_);}
	.st29{fill:url(#SVGID_24_);}
	.st30{fill:url(#SVGID_25_);}
	.st31{fill:url(#SVGID_26_);}
	.st32{fill:url(#SVGID_27_);}
	.st33{fill:url(#SVGID_28_);}
	.st34{fill:#D88B64;}
	.st35{fill:#162136;}
	.st36{fill:#7E6E5B;}
	.st37{fill:#77695C;}
	.st38{fill:#961A17;}
	.st39{opacity:0.65;}
	.st40{opacity:0.65;fill:#D88B64;enable-background:new    ;}
	.st41{opacity:0.15;fill:#FFFFFF;enable-background:new    ;}
	.st42{fill:url(#SVGID_29_);}
	.st43{fill:url(#SVGID_30_);}
	.st44{opacity:0.65;fill:#DB9E33;enable-background:new    ;}
	.st45{fill:url(#SVGID_31_);}
	.st46{fill:url(#SVGID_32_);}
	.st47{fill:none;stroke:#FFFFFF;stroke-width:2.3443;stroke-miterlimit:10;}
	.st48{fill:none;stroke:#FFFFFF;stroke-width:1.8754;stroke-miterlimit:10;}
</style>
<g>
	<defs>
		<rect id="SVGID_1_" width="312.9" height="550"/>
	</defs>
	<clipPath id="SVGID_2_">
		<use xlink:href="#SVGID_1_"  style="overflow:visible;"/>
	</clipPath>
	<g class="st0">
		
			<linearGradient id="SVGID_3_" gradientUnits="userSpaceOnUse" x1="62.5263" y1="426.8878" x2="177.5363" y2="426.8878" gradientTransform="matrix(1 0 0 1 0 -8)">
			<stop  offset="0.25" style="stop-color:#A2927F"/>
			<stop  offset="0.54" style="stop-color:#9B8C79"/>
			<stop  offset="0.95" style="stop-color:#897A6A"/>
		</linearGradient>
		<path class="st1" d="M64.1,433.9c-2.9-0.6-1-10.6-0.5-11c1.5-8.9,5.2-22.5,6.2-31.4C90,410,102,413.4,128.6,417.7
			c3.5-2.4,2.2-9.2,2.5-12.8c0-2.7-0.1-5.4-0.5-8.1c2.3,0,4.6,0.2,6.8,0.6c8.3,0.1,21.6-2,28.3-6.5l0.3,12c0.3,1.4-1.5,6.8,1,7.1
			s5.6-3.8,7.4-5.7c0.5,5,1.9,15.2,2.6,20.2s1.6,6.9-1.3,10.3c-13.3,15.6-44.8,11.7-60,11.5c-10.6,1.3-30.5-3.4-40.2-7.3
			C72.4,437.6,66.5,436.4,64.1,433.9z"/>
		
			<linearGradient id="SVGID_4_" gradientUnits="userSpaceOnUse" x1="85.1306" y1="471.6301" x2="134.9006" y2="474.7201" gradientTransform="matrix(1 0 0 1 0 -8)">
			<stop  offset="0.5" style="stop-color:#F2B58D"/>
			<stop  offset="0.63" style="stop-color:#EFB189"/>
			<stop  offset="0.77" style="stop-color:#E5A67C"/>
			<stop  offset="0.83" style="stop-color:#DE9E74"/>
		</linearGradient>
		<path class="st2" d="M92.9,476.6c-2.6-9.8-6.1-23.8-7.5-34c6.4,1.9,21.2,3.9,31.3,3.8s19.8-1,18.4,1.5c-0.4,5.3-1.4,16-2,21.3
			s0.4,5.4-2.8,11.3C124.6,489.2,95.1,488.4,92.9,476.6z"/>
		
			<linearGradient id="SVGID_5_" gradientUnits="userSpaceOnUse" x1="133.6702" y1="468.4172" x2="159.2002" y2="469.9972" gradientTransform="matrix(1 0 0 1 0 -8)">
			<stop  offset="7.000000e-02" style="stop-color:#DE9E74"/>
			<stop  offset="0.37" style="stop-color:#F2B58D"/>
			<stop  offset="0.52" style="stop-color:#F0B28A"/>
			<stop  offset="0.73" style="stop-color:#DE9E74"/>
		</linearGradient>
		<path class="st3" d="M137.3,479.4l-2.9-0.6c-0.6-0.8-1.4-1.5-2.3-2c1.4-8.4,2.3-21.6,3-30.1c7.7,0.9,19.8,0.8,26.7-3.3
			c-0.8,3.5-3.1,13.5-3.2,16.9l-2.8,8.5C153.9,477,144.8,479.6,137.3,479.4z"/>
		<path class="st4" d="M97,496.3l-4.2-0.2l0.6,2.3C94,498.1,96.7,496.9,97,496.3z"/>
		<path class="st4" d="M124.9,504.1l1.5-0.7l0.6-1v-1.1c-2.5-4.8-9.7-5.5-14.5-6c0.4,0.9,2.3,2.5,3.1,3.2c1,1.3,1.9,2.8,2.6,4.3
			C119.9,504,122.9,504.2,124.9,504.1z"/>
		
			<radialGradient id="SVGID_6_" cx="-668.5361" cy="-0.3595" r="1" gradientTransform="matrix(-28.67 0 0 -22.28 -19078.3691 497.5808)" gradientUnits="userSpaceOnUse">
			<stop  offset="0" style="stop-color:#544438"/>
			<stop  offset="1" style="stop-color:#352920"/>
		</radialGradient>
		<path class="st5" d="M133.7,482.9c0.7,0.3,1.2,0.7,1.7,1.3c0.3,2.1-0.9,5.1-1.5,7l-1.3,6.5c0.2,2.4,0.2,6.1,0.8,8.4
			s1.4,4.6,1.3,6.6c-0.1,2-2,4-2.7,5.1c-3.5,5.6-7.8,10.6-12.7,15c-2.8,2.1-7.7,2.9-10.8,4c-6.1,0.8-12.4,0.3-18.3-1.7
			c-11.8-4.1-14.5-9.3-14-21.5c1.8-7.4,3.3-10.6,11-12.7c1.6-0.2,5.4-0.8,7-0.8l6.4,1.1c2.8,0.5,6.2,2.2,8.8,3.3l0.8-0.2
			c0.8,0.3,1.6,0.6,2.5,0.7l0.7-0.7v-1.6l2.2,1.7c0.6,3.4,0.7,7.4,1.2,10.8l0.7,0.7l-0.8,6.6l0.3,0.7c0.4,0.2,1,0.2,1.4,0l0.2-0.2
			l0.7-7c1.9-1.6,0.3-7,0.2-9.3l3.2,1.1l3.5-0.2c1.8-0.4,4.3-1.3,4.9-3.3c-0.3-3.8-3.8-7.1-7-8.7s-8.4-2.6-12.5-2.4
			c0.9-3,3.3-3,5.9-3.5c5.2-0.9,12.2-1.5,16.1-5.6L133.7,482.9z"/>
		<path class="st4" d="M98.3,486.5c-1.9-1.4-4.9-2.9-6.8-4.1l-1.2,0.3l-0.5,1.3c0.6,2.8,1.3,7,2.5,9.7c2.3-1.1,4.9-1.5,7.4-1.3
			C99.3,490.8,99.3,487.8,98.3,486.5z"/>
		
			<linearGradient id="SVGID_7_" gradientUnits="userSpaceOnUse" x1="113.2559" y1="500.227" x2="98.1559" y2="496.417" gradientTransform="matrix(1 0 0 1 0 -8)">
			<stop  offset="0" style="stop-color:#231C16"/>
			<stop  offset="0.37" style="stop-color:#352920"/>
			<stop  offset="0.77" style="stop-color:#33281F"/>
			<stop  offset="1" style="stop-color:#221B15"/>
		</linearGradient>
		<path class="st6" d="M100,486.2l-1.7,0.5l0.7,1.8c0,1.3,0.3,2.6,0.7,3.9h2.3c0.7-0.4,1.4-0.5,2.2-0.4l0.6,0.4h2.4l0.5,0.7l4.2-0.3
			c0.5-0.9,1.2-1.8,2-2.5c-0.5-0.8-2.2-1.4-3.1-1.7l-6-2.1L100,486.2z"/>
		
			<radialGradient id="SVGID_8_" cx="-678.2639" cy="-0.4968" r="1" gradientTransform="matrix(-20.02 0 0 -16.21 -13396.1807 494.5993)" gradientUnits="userSpaceOnUse">
			<stop  offset="0" style="stop-color:#544438"/>
			<stop  offset="1" style="stop-color:#352920"/>
		</radialGradient>
		<path class="st7" d="M188.6,516.4c1.1-2.3,1.8-5.2,1-7.7l-1-3.9c-1.1-2-2.6-3.8-4.4-5.3c-4.7-3.4-12-4.7-17.7-4
			c-4.3-0.1-8.6,0.9-12.5,2.8c0.9,3.9,0.9,8,0,11.9l-1.7,0.4l-3,5.8c4.7,2,13.3,3.6,18.2,5.1C174.5,522.7,183.4,521.7,188.6,516.4z"
			/>
		
			<linearGradient id="SVGID_9_" gradientUnits="userSpaceOnUse" x1="143.84" y1="506.4884" x2="132.26" y2="506.4884" gradientTransform="matrix(1 0 0 1 0 -8)">
			<stop  offset="0" style="stop-color:#352920"/>
			<stop  offset="1" style="stop-color:#221B15"/>
		</linearGradient>
		<path class="st8" d="M144.8,515.7l2.8,0.5v-0.7c0.6-0.6,2.9-4.9,3.4-5.7s0.7-4.6,0.7-5v-4l-1.1-3.6l-2,1.9l-2.4,1.1h-2.5l-2.1-1.1
			c-2.2-3.6-0.1-7.2,1.5-10.5c1.5-1.5,4.2-3.6,6.4-3.9c0.2-9-7.6,1-15.4-3.9c-0.1,0.4-0.2,1.3-0.3,1.8c0.3,0.5,0.8,0.9,1.4,1.2
			c0.9,1.6-0.1,4.1-0.9,5.6l-0.7,4.1c-2.3,4.9,0.6,14.8,1.3,18.8c1.5,0.2,2.1,0.3,2.3,1.9c0.9,0.3,1.8,0.5,2.7,0.3L144.8,515.7z"/>
		
			<linearGradient id="SVGID_10_" gradientUnits="userSpaceOnUse" x1="153.1163" y1="487.9722" x2="149.3563" y2="489.5122" gradientTransform="matrix(1 0 0 1 0 -8)">
			<stop  offset="0" style="stop-color:#352920"/>
			<stop  offset="1" style="stop-color:#221B15"/>
		</linearGradient>
		<path class="st9" d="M155.3,482.5c0.2-1.7,0.8-4.6,0.3-6.2l-1.1-0.5c-0.7,0-2.5,1.4-3,1.8l-4.2,2.2v0.7h1c0.9,1,0.9,2.8,1.3,4
			l2.1-0.4c0.6-0.6,1.3-1.1,2.1-1.5l0.9,0.4L155.3,482.5z"/>
		<path class="st10" d="M192.1,526.5c1.2-0.4,1.2-9.1,1.2-9c0-1.6-0.2-4.2-1.2-5.4l-2.1-0.5c0.3,8.6-13.9,10.8-19.7,10.5
			c-3.9-0.8-7.7-1.8-11.5-3.1c-2.7-0.6-7-1.3-9.5-2.4c-0.3,0.6-2-0.2-2-0.5c-2.9-0.5-7-1.6-9.9-1.9c-0.3-0.6-0.6-1.1-1-1.6l-1.6-0.4
			c-0.2,1.8-2.6,5.4-3.6,6.9c-4.4,5.3-6.1,9.5-13.3,14.5c-12.3,6.8-36.2,4.2-41.1-10.2c-4.1,0.8-3.5,9.8-3.2,11.6
			c-0.2,15.5,37.6,15.9,45,12.8V546l2.9,0.5l2.6-1.3c0.1-0.9,0.2-1.9,0.1-2.8l2.7,0.3c2.1-1.9,3.2-7.3,4.7-9.6
			c0.8,0.3,1.7,0.4,2.5,0.2l2.8-4l0.2-6.1h1.1l6.2,4.4c1.9,0.6,3.8,1.4,5.6,2.4l3.9-1.6l1.3,0.2c-0.1,0.9-0.1,1.8-0.1,2.7
			c0,0.3,5.9,1.1,6.1,1.2l4.4-2.2h0.3l0.3,2.7C171.7,535,188.2,531.6,192.1,526.5z"/>
		<path class="st11" d="M192.1,512.1c-2,11.8-16.5,13.1-26.6,11.4s-18.1-6-28.3-7.3v-1.9c9.1,0.8,20.4,4.7,29.3,6.9l5.1,1.1l4.5-0.2
			c5.6-1.9,13.3-2.9,13.9-10.3L192.1,512.1z"/>
		<path class="st11" d="M134.8,512.2l1.4,0.3c-1.8,6.3-12.5,23.3-19.1,25.3c-13,4.3-39.3,2.7-41.7-13.5l1.4-0.9
			c3.7,13.4,27,16.5,39,11.3c4.8-2.4,8.8-6.1,11.6-10.7C129.5,521.1,134.7,516,134.8,512.2z"/>
		<path class="st10" d="M166,495.5l-3.3,0.2c2.2-3.1-0.9-10.3-4.5-10.8c-0.1,1.6,1.3,3,2.2,4.2c0,1,0.1,2,0.3,3c0,0.8,0,1.7,0,2.5
			l0.8,1.4c-2.6,0.5-5.1,1.2-7.5,2.3c0.4,1.5,1.5,10.2-0.6,12.2c-0.9,0-1.7-0.2-2.4-0.7c0-1.3,0.2-2.6,0.6-3.9
			c0.3-2.9-0.1-5.9-1.1-8.7c-0.7,2.7-9.4,4.8-9.8-0.4c-0.9-3.4,2.6-9.2,4.7-10.7l4-1.5v2.9c-1.8,1.1-4.2,3-5,5
			c-0.2,1.1-0.5,2.1-0.9,3.1c0,0.9,0.2,1.7,0.6,2.5c1.3-0.4,2.5-1,3.6-1.8c0.3-0.6,2-2.5,1.8-3.2c-0.3-1.6-0.4-3.3-0.4-4.9l-0.7-0.6
			v-3l3.4-0.6l1.1-1h2l0.5-0.5c0.9,0,1.7,0.1,2.5,0.4h1.8l2.3,1.1C165.4,487.1,167.9,490.8,166,495.5z"/>
		<path class="st10" d="M110.8,495.2v-2c7.3,0.1,17.3,1.8,20.1,9.6l-0.4,3.2c-2.9,2.2-7.4,2.4-10.7,1c-0.2,2.2,0.8,6.7-0.2,8.8
			l-2.2,0.4l-0.8-0.9c0-3.7-0.3-7.4-0.8-11l-2.3-1.6v1.6l-0.9,0.7c-1.4,0.1-5-1.4-6.2-2c-4.1-1.3-10.8-2.9-15.2-2.9
			c1.3-1.6,4.6-2.3,5.9-3.8c-3-0.5-6.1-0.1-8.9,1c0,1.1,0.5,2.2,1.5,2.8l-3.7,1.2l-1.1-1.7c0.3-2.1,2.4-3.8,4.3-4.6
			c1.7-1,3.6-1.9,5.5-2.5c2.3-0.3,4.5-0.3,6.8,0c0.9-0.4,1.8-0.5,2.7-0.5l0.4,0.4c0.8-0.2,1.6-0.2,2.4,0l0.9,0.8
			c1.4,0.2,2.9,0.1,4.3-0.2l-0.2,2.3h-3c0.9,0.2,2.9,0.5,3.7,0.8s4.5,4.2,5.3,6.8l2.2,0.6c0,0,2.3,1.3,3.9,0.8
			c7.1-1.3-0.4-7.2-3.2-7.5C116.6,495.7,114.2,495.7,110.8,495.2z"/>
		<path class="st4" d="M149.4,487.2c-0.2,1.9-0.1,3.8,0.4,5.6c0.1,1.6-3.7,5.5-5.8,5.1l-0.7-0.6c0.1-2.2,0.7-4.3,1.7-6.3
			C145.7,489.6,148.1,488,149.4,487.2z"/>
		<path class="st12" d="M161.8,529.1c-0.3,1.1-0.4,2.3-0.3,3.4c1.3-0.6,2.6-1.3,3.8-2.1L161.8,529.1z"/>
		<path class="st12" d="M153.8,528.3c0,0.3-3.6,1.5-3.6,1.5C148.4,524.9,151.2,527.8,153.8,528.3z"/>
		<path class="st12" d="M133.6,533.3v-3.7c-0.9,1-1.6,2.2-2,3.5C131.8,533.5,133.2,533.3,133.6,533.3z"/>
		<path class="st12" d="M126.9,542.7l-0.2-3.6l-2.5,1.8l0.4,1.8H126.9z"/>
		<path class="st12" d="M121.7,546.8v-3.4l-3.1,1.2v1.4L121.7,546.8z"/>
		<path class="st13" d="M118.7,523l0.7-6.6l-1.6-0.2c-0.1,0.6-1.2,6.4-0.8,6.8l0.6,0.6L118.7,523z"/>
		<path class="st13" d="M149,516.5l3.3-5.9l-1.5-0.9l-3.3,5.9C147.8,516.2,148.4,516.5,149,516.5z"/>
		
			<linearGradient id="SVGID_11_" gradientUnits="userSpaceOnUse" x1="90.9119" y1="491.4425" x2="134.1672" y2="491.4425" gradientTransform="matrix(1 0 0 1 0 -8)">
			<stop  offset="0" style="stop-color:#293B60"/>
			<stop  offset="0.34" style="stop-color:#27395C"/>
			<stop  offset="0.64" style="stop-color:#233351"/>
			<stop  offset="0.94" style="stop-color:#1B283F"/>
			<stop  offset="1" style="stop-color:#19253A"/>
		</linearGradient>
		<path class="st14" d="M91.1,482.5c-0.3-1.1-0.3-2.1,0-3.2c0-0.7,0.1-3.4,1.8-2.7c1.8,8.2,15.5,9.9,21,9.6s16.7-1.2,18.2-9.4
			c2.3,0.9,2.6,3.3,1.3,4.3l0.4,0.6c-0.1,0.8-0.1,1.6-0.1,2.4c-3.7,4.6-14.8,4.8-19.5,6.3c-1.2-1.4-4.5-2.1-6.1-2.7
			s-6.6-2.1-9.3-1.1C96.4,485.4,93.3,483.9,91.1,482.5z"/>
		
			<linearGradient id="SVGID_12_" gradientUnits="userSpaceOnUse" x1="134.2" y1="485.3531" x2="155.43" y2="485.3531" gradientTransform="matrix(1 0 0 1 0 -8)">
			<stop  offset="0" style="stop-color:#1A273D"/>
			<stop  offset="0.35" style="stop-color:#293B60"/>
			<stop  offset="0.56" style="stop-color:#27395C"/>
			<stop  offset="0.77" style="stop-color:#223250"/>
			<stop  offset="0.98" style="stop-color:#1A273D"/>
			<stop  offset="1" style="stop-color:#19253A"/>
		</linearGradient>
		<path class="st15" d="M135.7,481.5l-1.4-0.6c-0.2-0.7,0.2-1.5-0.1-2.3c5.5,2.9,16.7-0.8,20-5.9l1.1,0.8c0.2,0.8,0.1,1.6-0.3,2.3
			c-1.4,0.1-2.7,0.7-3.5,1.8l-3.8,2l-0.2,0.6c-1.7,0.9-3.5,1.5-5.4,1.8C140.4,482,137.4,482.1,135.7,481.5z"/>
		
			<linearGradient id="SVGID_13_" gradientUnits="userSpaceOnUse" x1="119.8101" y1="348.71" x2="158.4401" y2="344.39" gradientTransform="matrix(1 0 0 1 0 -8)">
			<stop  offset="7.000000e-02" style="stop-color:#A91F18"/>
			<stop  offset="0.15" style="stop-color:#C31E12"/>
			<stop  offset="0.23" style="stop-color:#D81C0D"/>
			<stop  offset="0.28" style="stop-color:#E01C0B"/>
			<stop  offset="0.72" style="stop-color:#E01C0B"/>
			<stop  offset="0.87" style="stop-color:#BF1E13"/>
			<stop  offset="1" style="stop-color:#A91F18"/>
		</linearGradient>
		<path class="st16" d="M122.7,344.6c2.4,15.9,5.6,32.7,7.7,48.7c5.4,1.3,11.8,0.4,16.6,0.1c6.4-0.6,12.6-2.2,18.5-4.8
			c-0.2-13.4-4.5-27.6-6.4-40.7h-0.2c-2.9-6.1-4-19.2-4.6-25.8c-1.1-10.2-0.5-22.1-0.1-32.2c-9.6,17-30.1,9.9-38.2-4.5
			c1.2,5.9,4.8,13.7,4.9,20.5c0.5,10,0.6,16.9,1.1,25.9C121.9,336.1,122.1,340.4,122.7,344.6z"/>
		
			<linearGradient id="SVGID_14_" gradientUnits="userSpaceOnUse" x1="36.9874" y1="380.8616" x2="182.9874" y2="336.5616" gradientTransform="matrix(1 0 0 1 0 -8)">
			<stop  offset="0" style="stop-color:#293B60"/>
			<stop  offset="1" style="stop-color:#19253A"/>
		</linearGradient>
		<path class="st17" d="M122.8,344.9c0.1,10.1,14.7,67.8,5.3,72.7c-32-5.4-39.5-9-63.4-30.6c-0.3-1.3,0.6-3.7,1-4.8
			s2.8-12.7,3.4-15.2c-2.6,2.8-5.5,5.3-8.6,7.6c-2.3,3.2-5.5,7.8-9.9,7.8s-10.5-3.9-14.1-6.8c-1.1-1-4.6-3.4-5-5
			c-1-1.9-1.2-4.1-0.5-6.1c1.9-6.1,9.5-16.2,12.5-21.4c4.3-7.7,10.3-18.9,14.5-26.8s7.8-14.6,11.7-22.2
			c5.5-10.4,22.5-17.5,33.2-11.5v-0.2c1.2-0.8,13.1,4,12.9,4.8c2.7,4.4,4.1,13.2,5,18.1C121.6,318,121.5,332.2,122.8,344.9z
			 M173.5,346.5c-3.3-12.6-7.7-27-9.4-39.9c-1.4-8.2,0.6-19.7-6.2-25.9h-3.4l-0.7,3.5l0.7,0.6c-0.9,15.7-1.2,33,0.7,48.8
			c1,4.1,2.4,12.1,4.3,15.8c1.1,5.6,0.4,6,2.3,13.1c4.1,17.8,4.1,30.5,4.2,47.3c3.3,0.1,6.3-3.4,8.4-5.5c0,0,5.1-5.7,6.5-6.4
			s1.8-3.3,1.8-3.3C183.4,380.4,176.4,359.6,173.5,346.5z"/>
		<path class="st18" d="M104.6,405.3c-1.3,0,0.3-5,0-5c0.4-3.1,0.9-8.8,1.2-11.8c0.3-1,5.6,0.5,5.4,0.5c2.8,0.6,9.5,0.6,11.2,3.4
			c-0.8,5.7-0.5,10.8-2,16.2c-0.7,0.7-3.5-0.5-4.3-0.6C112.6,407.1,108.1,405.9,104.6,405.3z"/>
		
			<linearGradient id="SVGID_15_" gradientUnits="userSpaceOnUse" x1="130.7816" y1="402.849" x2="165.6716" y2="399.829" gradientTransform="matrix(1 0 0 1 0 -8)">
			<stop  offset="0" style="stop-color:#1A263B"/>
			<stop  offset="0.34" style="stop-color:#293B60"/>
			<stop  offset="0.78" style="stop-color:#283A5E"/>
			<stop  offset="1" style="stop-color:#19253A"/>
		</linearGradient>
		<path class="st19" d="M131.1,396.9l-0.5-3.4c9.9,1.5,25.8-0.8,34.9-4.9c0.1,0.8,0.1,1.6,0,2.4C157.5,396.4,140.7,398,131.1,396.9z
			"/>
		
			<linearGradient id="SVGID_16_" gradientUnits="userSpaceOnUse" x1="114.2" y1="297.7946" x2="154.7818" y2="297.7946" gradientTransform="matrix(1 0 0 1 0 -8)">
			<stop  offset="0" style="stop-color:#1A263B"/>
			<stop  offset="0.27" style="stop-color:#293A5F"/>
			<stop  offset="0.8" style="stop-color:#293B60"/>
			<stop  offset="1" style="stop-color:#19253A"/>
		</linearGradient>
		<path class="st20" d="M115.4,285.6c-0.2-1.8-1.1-4-1.2-5.8c1,0,3.4,3.6,4,4.2s7,6.6,9.3,8.3c7.6,6.8,24.8,3.1,26.5-8l0.7,1
			c0.7,5.2-3.2,9.3-7.5,11.8C134.6,304.6,123,295,115.4,285.6z"/>
		
			<linearGradient id="SVGID_17_" gradientUnits="userSpaceOnUse" x1="13.1946" y1="394.7362" x2="44.2346" y2="427.5362" gradientTransform="matrix(1 0 0 1 0 -8)">
			<stop  offset="0.35" style="stop-color:#F2B58D"/>
			<stop  offset="0.55" style="stop-color:#EFB189"/>
			<stop  offset="0.75" style="stop-color:#E5A67C"/>
			<stop  offset="0.85" style="stop-color:#DE9E74"/>
		</linearGradient>
		<path class="st21" d="M3.5,412.8c-7.3-3.7,1.8-11.3,3.9-13.7s5-8.5,6.4-11.5s4.4-6.7,7.4-8.2s8.6-5,10.9-7.9
			c2.1,3.9,13.2,10.2,17.4,10.7c-1.3,1.9-2.1,9.3-2.2,11.8s9.7,9.7,11,10.7c4.7,2.7-0.5,11.3-6.3,9.8c-7.8-2.4-7.6-4.8-10.4-10
			l-0.5,0.3c-1.5,8.9-8.5,29.1-21.2,21.4c-3.3,3.7-10.6-0.4-10.9-4.7C4.1,422.1,0.5,417.3,3.5,412.8z"/>
		
			<linearGradient id="SVGID_18_" gradientUnits="userSpaceOnUse" x1="226.6867" y1="183.6231" x2="262.1867" y2="221.1331" gradientTransform="matrix(1 0 0 1 0 -8)">
			<stop  offset="0.35" style="stop-color:#F2B58D"/>
			<stop  offset="0.61" style="stop-color:#EFB189"/>
			<stop  offset="0.88" style="stop-color:#E5A67C"/>
			<stop  offset="1" style="stop-color:#DE9E74"/>
		</linearGradient>
		<path class="st22" d="M214.2,221.2l0.6-1.5l1.5-1.4c1.5-1.5,4.7-4.4,6.3-5.7c-2-4.8-0.8-11.6,1.3-16.1c-0.6-0.5-1.4-2.9-1.7-3.6
			c3.3-5.4,6.8-16.8,9.3-22.8c1.8,3.4,5.2,17.2,5.1,20.8c4.6-11.2,8-23,16.2-33c3.1-4.3,14.4-4.2,13.3,3.2c0.9-0.2,1.8-0.5,2.6-0.9
			l3-0.2c4.1,0.4,8.9,7.4,4.3,11.1c1.4-0.1,2.8,0,4.1,0.4c2.7,2.2,2.6,9.2,0.3,11.6c5.4-0.1,4.9,6.4,3,8.9
			c-2.3,4.2-14.4,13.5-18.3,14.9c-3.6,8.1-10.5,29.3-23.5,24.8l-5.9,3.1c-0.9,0.6-5.3,4.6-6.5,4.3
			C222.5,238.8,213.8,228,214.2,221.2z"/>
		
			<linearGradient id="SVGID_19_" gradientUnits="userSpaceOnUse" x1="69.6339" y1="194.3343" x2="214.994" y2="230.9343" gradientTransform="matrix(1 0 0 1 0 -8)">
			<stop  offset="0.35" style="stop-color:#F2B58D"/>
			<stop  offset="0.55" style="stop-color:#EFB189"/>
			<stop  offset="0.75" style="stop-color:#E5A67C"/>
			<stop  offset="0.85" style="stop-color:#DE9E74"/>
		</linearGradient>
		<path class="st23" d="M56.5,229.1c4.6,5.8,17,8.2,23.5,6.8c4.1,11.2,20.9,24.8,30.6,31.3c0.5,12.8,20.3,35.1,34.5,27.1
			c6.8-3.3,9.5-7.6,9.4-13.6c31-1.1,62.6-14,48-50.6c7.6-13.2,15.3-28.4,22.2-42.1c6.5-15.7,12.3-35.2,11.9-52.4h-0.7
			c-3,14.5-10.7,29.3-21.3,39.8c1.9,1.2,3.5,1,5.4,3.7s1.3,4.2-1,5.5s-1.7-0.4-3-2.4s-4.8-3.2-4.8-3.2l-8.1,5.9l-8.7,4.3
			c-3.5,2.2-7.5,3.5-11.7,3.9v-0.8c11.1-6.2,28.7-17.2,28.9-31.8c-5.4,17.8-27.5,31.2-44.9,33.7c0.5-2,3.3-10,4-12.1l2-10.1
			c1.2-10.4,0.5-20.8-2.3-30.9c-2-5.6-5.7-18.3-11.4-21.3c0.4,1.3,1.3,5.4,1.6,6.8l-0.3,7.2c-1.2,7.2-4.3,15.3-3.7,22.7
			c-3.4-4.3-4.3-11.6-5.6-16.8c-0.7,0.9-0.8,3.4-0.8,4.4c-0.1,5.7,0.2,11.4,0.8,17l-0.6,1.6c-6.3-6.5-11-17.8-14-26.2
			c-1.9-7.9-2.4-16.1-1.6-24.2c-3,3.2-4.5,9-5.4,13.2c-0.5,3.9-0.7,7.9-0.6,11.8c0.4,2,1.3,6.1,1.7,8c-2.8-0.6-8.2-6.1-10.4-7.7
			c-5.8-4.2-13.2-15.7-16.6-21.3c7.4,30.9,3.7,49.8-7.2,78.7c-2.8,9-7.6,19.7-4.9,29.2c-7.4-5.6-11.9-26.5-13.2-35.5l-0.7,0.2
			c-0.4,8.9,2.2,18.5,5,26.9h-0.9c-2.7-2.3-5.5-8.4-7.3-11.5c-2.7-4.9-4.5-12.3-6.2-17.6C47.7,185.5,43.2,216.9,56.5,229.1z"/>
		<path class="st24" d="M132.6,228c-6.1-6.4-7-21.1-3.2-29.3s17.4-12.9,21.8-1.7C158.9,211.2,150.8,239.8,132.6,228z"/>
		<path class="st24" d="M178,225.9c0,0,0.2-6.8,1.3-10.3c1-6.9,12.5-19.5,19.4-12.4c6.8,9.6,3.4,28.5-8.7,33
			C185.5,237.5,178.6,236.6,178,225.9z"/>
		<path class="st24" d="M157.9,252.5c0.6,2,5.5,2.5,6.7,1.2c1.5,1.5,4.9,1.2,5.6-1.2c-1-0.2-2-0.5-2.9-0.9
			C164.5,251.4,160.5,251.4,157.9,252.5z"/>
		
			<linearGradient id="SVGID_20_" gradientUnits="userSpaceOnUse" x1="168.3643" y1="252.4402" x2="203.6443" y2="281.1201" gradientTransform="matrix(1 0 0 1 0 -8)">
			<stop  offset="0" style="stop-color:#BFAD95"/>
			<stop  offset="0.85" style="stop-color:#8E7C68"/>
		</linearGradient>
		<path class="st25" d="M158.2,280.9c3.7,4.1,4.8,10.6,5.3,15.9c0,2.3,0.1,4.6,0.5,6.8c2.4-0.7,8-5.8,10-7.5
			c9.1-7.5,20-16.6,29-24.3c4.8-5.1,16.5-15.3,20.9-20.9c1.2-2.1,2.6-4,4.1-5.9c0.9-0.9,2.7-2,3.3-3.2c0-0.8,0-1.7-0.1-2.5l-0.9-0.5
			c-7.4,1.3-18.2-12.5-15.6-19.4h-1.2c-2.6,1.5-6,4.6-8.6,6.3l-2.6,4.5c6.4,15.9,5.7,31-10,40.8c-4,3-10.4,5.2-15.2,6.4
			s-13.4,3.4-18.9,3V280.9z"/>
		
			<linearGradient id="SVGID_21_" gradientUnits="userSpaceOnUse" x1="88.2409" y1="296.1317" x2="108.6509" y2="275.4117" gradientTransform="matrix(1 0 0 1 0 -8)">
			<stop  offset="0" style="stop-color:#BFAD95"/>
			<stop  offset="1" style="stop-color:#8E7C68"/>
		</linearGradient>
		<path class="st26" d="M85.5,281.6l-3.2,1.3c-1.1-4.4-1-10.1-0.9-14.6s20.2-6.3,21.1-6.9c2.2,1.5,6.3,4,7.7,6.3
			c1.7,5.2,4.1,11.2,4.5,16.7l1.3,1.6v1.4C108.2,282.2,94.6,278.5,85.5,281.6z"/>
		
			<linearGradient id="SVGID_22_" gradientUnits="userSpaceOnUse" x1="119.23" y1="181.87" x2="147.06" y2="181.87" gradientTransform="matrix(1 0 0 1 0 -8)">
			<stop  offset="0.3" style="stop-color:#EFBD50"/>
			<stop  offset="1" style="stop-color:#DDAB47"/>
		</linearGradient>
		<path class="st27" d="M120.3,179.2l-0.8-0.5l-0.3-0.9l0.6-1.6c3.8-3.2,10-5.7,14.7-7c9.4-2.9,18.1,4.6,8.2,6.2
			c-3.7-0.7-16.1,1.2-18.4,3C123,178.8,121.7,179.1,120.3,179.2z"/>
		
			<linearGradient id="SVGID_23_" gradientUnits="userSpaceOnUse" x1="211.17" y1="188.15" x2="220.53" y2="188.15" gradientTransform="matrix(1 0 0 1 0 -8)">
			<stop  offset="0.3" style="stop-color:#EFBD50"/>
			<stop  offset="1" style="stop-color:#DDAB47"/>
		</linearGradient>
		<path class="st28" d="M211.2,179c2.4,0.8,4.9,3.4,6.5,5.3l1.5,0.3l1-0.6c0.5-1.7,0.4-3.6-0.4-5.2c-0.7-1.1-3.4-2.5-4.6-3.1
			L211.2,179z"/>
		
			<linearGradient id="SVGID_24_" gradientUnits="userSpaceOnUse" x1="21.2789" y1="135.7451" x2="248.7089" y2="184.9251" gradientTransform="matrix(1 0 0 1 0 -8)">
			<stop  offset="0.3" style="stop-color:#EFBD50"/>
			<stop  offset="0.83" style="stop-color:#DDAB47"/>
		</linearGradient>
		<path class="st29" d="M216,174.3c-8.8,8.4-21.1,17.1-33.5,19l0.6-1.2c11.3-5.7,22.6-14.2,27.8-26.1l-0.3-1.6
			c-2.1,2.5-4.6,7.1-6.8,9.5c-5.1,5.4-10.9,10.1-17.2,14c-5.6,2.9-13.9,5.2-20.1,6.5c6.8-16.4,9.3-36.3,3.6-53.4
			c-2.1-6.9-5.1-17-11.2-21.4c2,5.8,1.3,13.2,0.4,19.2s-3,12.5-2.7,17.5c-3.6-4.5-4.3-11.7-5.8-17.1c-1,3.3-0.5,9.4-0.6,12.8
			c-0.1,0.5,1.2,9.7,0.5,10c-4.2-2.3-7.6-10.2-10-14.1c-5.3-10.7-7.2-23.8-5.9-35.6l-0.6,0.3c-4.7,7.2-5.6,17.8-5.3,26.2
			c0.7,2,1.2,4,1.5,6h-1.2c-10.4-7-19-17.3-25.3-27.9c0.6,7.6,3.4,16.8,3.4,24.5s0,15-1.3,21.2c-1.9,9.5-5.5,20.4-8.6,29.4
			s-8.6,21.7-6,32.2c-5-3.9-8.3-13.9-9.7-19.6c-1.6-5-2.7-10.2-3.2-15.4l-0.7-0.6c-1,2.7,0.3,8.4,0.5,11.2
			c0.7,5.2,2.9,11.5,4.3,16.6c-5.4-4.6-8.6-13.1-11.3-19.5c-0.6-1.8-3.2-8.3-3.1-10.1c-30-0.4-24.1,56,11.6,49.1
			c3,5.7,6.8,10.8,11.4,15.3l-0.8,0.4c-6.5-0.8-13.6-2.9-18.6-7.2v1.3C74,250.6,79,255,83.3,258c-7.3-0.6-15.2-6-21.4-9.8
			c-11.1-7.7-20.5-17.8-27.4-29.4C21.2,191.4,14,158,17.8,127.6c6-43.7,30.3-75.9,74.8-84.7c48.2-10.7,110.1-3.4,138.9,41.5
			c9.5,14.3,15.5,32.4,17.4,49.5c0.6,5.4,0.9,10.9,0.7,16.3c-0.1,2.3-0.4,10.9-1.6,12.9c-2.8-10.8-5.7-23.3-11.2-33.1
			C232.8,149.8,229.1,158.6,216,174.3z"/>
		
			<linearGradient id="SVGID_25_" gradientUnits="userSpaceOnUse" x1="19.3396" y1="234.1102" x2="35.4496" y2="227.8503" gradientTransform="matrix(1 0 0 1 0 -8)">
			<stop  offset="0.3" style="stop-color:#EFBD50"/>
			<stop  offset="0.92" style="stop-color:#DDAB47"/>
		</linearGradient>
		<path class="st30" d="M41.9,230.9l0.5-0.6c-1.9-2.4-5.6-7.9-7.3-10.5s-4.7-11.5-6.2-12.4s-1,3.9-1.2,4.5
			c-1.1,4.4-2.9,8.6-5.4,12.4c2.5-0.7,5.5-3,7.7-4.4c-1.2,7.5-6,15-11.5,20.1l0.4,0.4c2.6-0.1,8-1.9,10.4-2.9S39.4,233.1,41.9,230.9
			z"/>
		
			<linearGradient id="SVGID_26_" gradientUnits="userSpaceOnUse" x1="44.6455" y1="25.5024" x2="70.4755" y2="74.4524" gradientTransform="matrix(1 0 0 1 0 -8)">
			<stop  offset="0.3" style="stop-color:#EFBD50"/>
			<stop  offset="0.92" style="stop-color:#DDAB47"/>
		</linearGradient>
		<path class="st31" d="M25,99.3c-0.5,1.6-2.1,5.9-2.5,7.4c-6.1-20.1-9.4-49.9-0.3-69.8c13.4-24.6,45-32.5,71.1-26.4
			c13.5,4.6,26.7,15.9,31.5,28.2l-6.3,0.4c-13.9-13.4-51.1-4.3-56.2,15C45.3,63.3,31.5,81.5,25,99.3z"/>
		
			<linearGradient id="SVGID_27_" gradientUnits="userSpaceOnUse" x1="58.2813" y1="53.7912" x2="116.5212" y2="47.2712" gradientTransform="matrix(1 0 0 1 0 -8)">
			<stop  offset="7.000000e-02" style="stop-color:#A91F18"/>
			<stop  offset="0.15" style="stop-color:#C31E12"/>
			<stop  offset="0.23" style="stop-color:#D81C0D"/>
			<stop  offset="0.28" style="stop-color:#E01C0B"/>
			<stop  offset="0.72" style="stop-color:#E01C0B"/>
			<stop  offset="0.87" style="stop-color:#BF1E13"/>
			<stop  offset="1" style="stop-color:#A91F18"/>
		</linearGradient>
		<path class="st32" d="M115.6,39.3l3.2-0.2C105.1,26.2,67,34.5,62.7,53.9C78.3,45.1,98,40.8,115.6,39.3z"/>
		
			<linearGradient id="SVGID_28_" gradientUnits="userSpaceOnUse" x1="55.8891" y1="321.7112" x2="90.3891" y2="349.5811" gradientTransform="matrix(1 0 0 1 0 -8)">
			<stop  offset="0" style="stop-color:#BFAD95"/>
			<stop  offset="1" style="stop-color:#8E7C68"/>
		</linearGradient>
		<path class="st33" d="M75.9,301.9l-3.1-1.6c3.4-16.6,27-3.7,15.2,8.8l-2.9-2.5C91.9,300,79.3,290.5,75.9,301.9z M75.4,310
			l-3.3,4.7l-6.6-2.6l-1.6,3.1l15.5,8.9l2.6-3.5l-6.2-4c0.9-1.7,2-3.2,3.2-4.7c1.9,1.3,3.8,2.4,5.8,3.5l1.9-3.6
			c1.2,0.3-16.8-9.6-16.1-8.9l-1.5,3.4C71.3,307.4,73.4,308.6,75.4,310z M75.7,330.5c2.4-3.6,3-3.7,2.3-4.1s-9.7-6.1-15-8.6
			c-0.4,0.6-2,4-2,4S74.1,329.1,75.7,330.5z M58.6,326.9l5,3.6c-2.1,4.2-5.9,2.2-8.1,0.9c-0.6,0.9-1.8,3.5-1.8,3.5s4.5,3.3,7.7,1.6
			c-1.7,4.4,3.9,5.9,6.4,5s6-7.3,6.7-9.3s-11.3-7.7-14-8.7C60.5,323.5,58.3,326.5,58.6,326.9z M66.9,331.4l3.2,2c0.7,3.2-7.4,8-5,0
			C65.9,331.3,66.5,331.2,66.9,331.4z M47.5,349.4c2.1,8.6,17,8.9,17.5-0.8C66.7,336.2,42.9,334.9,47.5,349.4z M51.4,344.2
			c2.3-4.4,11-1.3,9.9,3.7C60.1,356.5,47.5,350.7,51.4,344.2L51.4,344.2z"/>
		<path class="st18" d="M156.4,261.2c1.1-1.2,6.5-1.6,7.3-0.5c1-1.8,5.8-0.3,6.4,0.7C166.4,264.8,160.2,264.1,156.4,261.2z"/>
		<path class="st34" d="M219.1,177.9c3.4-3.2,9.4-10.5,12.1-17c0.2,3.7-1.9,15.6-3.4,19.3c8.2-26.2,8.2-24.8,8.4-44.9l-0.9,0.4
			c-2.8,14.6-9.6,29.8-21,39.8C216,176.1,217.6,176.9,219.1,177.9z"/>
		<path class="st35" d="M152.7,288.2c0,1.6-0.2,3.2-0.5,4.8c2-1,3-6.3,2.3-8.2L154,285C153.7,286.1,153.2,287.2,152.7,288.2z"/>
		<path class="st35" d="M115.7,281.2l2.5,7.3c-2.5-3.1-2.1-1.9-3-4.3s-1.2-3-1-4.4h0.8L115.7,281.2z"/>
		<path class="st35" d="M110.2,302c0.3,2,0.4,5.5,0.4,5.5c1.6-1,3.1-2.3,4.3-3.7c-0.6,3-1.8,5.8-3.6,8.3c0.6,0.6,0,12.3-0.6,10.2
			s-1.8-4.6-3.4-0.7s-9.9,16.5-12.1,19.7c-6.4,11.8-11.1,26.4-27.4,31.8l1.3-6.1c8.6-8.7,16.4-18.1,23.4-28.2
			C99.6,328.8,109.9,315.1,110.2,302z"/>
		<path class="st35" d="M94.8,317.2c5.2,0.8,10.8-3.8,10.6-9.2C104,313.1,99.6,315.9,94.8,317.2z"/>
		<path class="st35" d="M91.2,329.4c-1.8,4.8-4,9.4-6.4,13.9c-3,4.9-13.9,16.9-12.3,14.5C78.4,351,87.6,336.3,91.2,329.4z"/>
		<path class="st35" d="M162.3,389.8c0,1,0.1,1.9,0.2,2.9l3.2-1.8l-0.2-2.3L162.3,389.8z"/>
		<path class="st35" d="M132.9,393.8c0.3,1.1,0.4,2.2,0.4,3.3l-2.2-0.2l-0.5-3.4L132.9,393.8z"/>
		<path class="st35" d="M109.2,368.9c-4.5,1.8-8.1,5.5-9.8,10.1c-3.1,7.9-5.6,15.5-4.6,14.5C98.7,388.7,102.6,371.7,109.2,368.9z"/>
		<path class="st35" d="M56.9,372.1c2,0.3,15.1-4.6,16.5-9.5c1.3-1.4-3.5,2.7-8.1,5.3C62.6,369.4,59.8,370.8,56.9,372.1z"/>
		<path class="st35" d="M154.5,284c1.2-0.9,2.2-2,3.1-3.3h-3.1L154,283l0.5,1.2V284z"/>
		<path class="st35" d="M163.6,320.8c-0.5-4.3-0.9-13.1,0-8.7s3,33.9,1,21.5S163.6,320.8,163.6,320.8z"/>
		<path class="st35" d="M169.5,369c6.9,2.7,8.3,21.2,5.6,25C176,389.8,173.2,372.4,169.5,369z"/>
		<path class="st35" d="M85.5,358.9c0,0,4,8.8,2.6,3.8c-0.6-2.1-1.1-4.2-1.4-6.4l-1.2,1.3V358.9z"/>
		<path class="st35" d="M79.8,364c1,3.9,6.1,15,6.1,15s-4.7-16.5-4.6-16.7L79.8,364z"/>
		<path class="st36" d="M105.5,263.8c-3-0.3-11.7,2.5-13.4,3.1c15.4-1.4,21.7,11.6,6.6,6.8c3,4.2,1.7,7.2-9.5,2.1
			c3.7,2.2,7.4,4.3,11.3,6.1c3.1,0.2,6.1,0.9,9,2c2.4,0.8,4.7,2,6.7,3.6c-1-2.4-2.6-6.5-2.1-9.2c-1.7-3.7-3-7.5-3.9-11.4
			L105.5,263.8z"/>
		<path class="st36" d="M165.4,284.2c1.7,2.2,6,4.2,9.8-1.9C169.3,286.5,170.2,284.2,165.4,284.2z"/>
		<path class="st36" d="M163.6,297.9c4.9-1.7,16.8-15.8,15.2-12.6c-1.3,2.4-2.8,4.7-4.4,6.9c0,0,0.8,1.1,5-4.5s4.9-6.3,3.3-3.3
			s-3.3,5-1.8,4c14.7-12,32.9-26.1,45.6-42.4c-5.6,9.5-14.3,16.5-21.6,23.9c-12.5,11-28,23.9-41.1,34.2
			C163.8,303,163.5,299.1,163.6,297.9z"/>
		<path class="st36" d="M203.8,266.3c-12,10.5,2.6-4.2,6.1-8.6s8.3-12.2,7.7-10.3c-1.7,3.6-3.7,7.1-5.9,10.5
			C209.3,260.9,206.6,263.7,203.8,266.3z"/>
		<path class="st36" d="M227.4,238.8c1.8,0.3,4.6,4.7-2.2,3.6c1.5,0.9,2.2,1.1,0.8,2.5s-4.1,7.6-13.3,16.1c-2.2,3-2.7,3.9-2.7,3.9
			c2.8-2.7,11.8-10.9,13.9-14c1-1.5,1.9-3.1,2.6-4.7c1.4-0.9,3.1-2.7,4.4-3.7c0.3-0.9,0.5-1.8,0.7-2.7l-1-1
			C229.5,239,228.5,239,227.4,238.8z"/>
		<path class="st37" d="M69.6,393.5c3,3.4,11.3,13.5,24.6,19s33.8,12.9,37.9,8.7s3.3-4.8,1.2-24.1l-2.2-0.2
			c-0.2,5.5,1.9,16.3-1.7,20.7c-7.1-0.8-19.5-3.7-26.5-5.1c-6.1,0.2-30.2-17.2-32.7-20.1L69.6,393.5z"/>
		<path class="st37" d="M133.1,398.5c9.7,0.5,22.9-0.3,32.6-6c0.3-1.1,0-1.3,0-1.3c-7.1,4.8-26.9,6.8-34.6,5.7L133.1,398.5z"/>
		<path class="st37" d="M162.2,392.9c0.3,1.7,0,11.4-0.4,16.1c-3.5,15.6,11.6,2.9,13.3,1.5l-0.6-5.5c-1.9,1.2-3.6,2.7-5,4.4
			l-2.4,0.7l-1.2-0.7c-0.5-5.3,0.4-12.9-0.4-18.1L162.2,392.9z"/>
		<path class="st37" d="M149.4,404.7c0,0,0.6-7.1,1.9-7.3s-1.6-0.5-1.6-0.5C149.4,399.5,149.3,402.1,149.4,404.7z"/>
		<path class="st37" d="M146.8,401c-0.1-1.4,2.7-5.1,2.5-1.1s0,4.1,0,4.1l0.4-7.4l-2.6,0.3L146.8,401z"/>
		<path class="st37" d="M147.9,410.7c-1,0.3-1.5,0.7,1,0.3c0.8-0.1,0.8-2.9,0.7-5.7s-0.5,3.9-0.4,3.9
			C149,409.8,148.5,410.4,147.9,410.7z"/>
		<path class="st37" d="M168.8,419.4c1.2,2-5.8,17.4-9,17.7C160.8,436.9,169.2,420.6,168.8,419.4z"/>
		<path class="st37" d="M172.9,412.3c0.9-0.7,0.5,0,1,3.2c0.1,5.6,3.7,15.1,1,20.1c-1.8,2.5,2.1-1.3,2.4-3.3c0.2-1,0.3-2,0.3-3
			c-0.8-6-2.4-18.2-3.1-24.2l-2,5.8L172.9,412.3z"/>
		<path class="st37" d="M170.7,415c0.4,1.5,0.7,3.1,0.7,4.7c0.1,3.1-1.9,12.5-1.1,4.7S170.7,415,170.7,415z"/>
		<path class="st37" d="M72.8,402.1c0,0.5,8.6,21,8.3,20.6C77.4,418.7,72.9,407.5,72.8,402.1z"/>
		<path class="st37" d="M77.9,430c-0.6-0.5-0.3-0.8,3.1,1.8s6.3,4.2,2.8,2.6S79.5,431.5,77.9,430z"/>
		<path class="st37" d="M124.5,433.7c4-0.2,15.2-8.5,14.4-15.2C135.3,426.8,130.6,430.6,124.5,433.7z"/>
		<path class="st38" d="M152.2,293c-1.4,8.9-0.7,38.4,2.3,49.6c2.2,7.9,9.1,42.1,7.8,47.2l3.2-1.2c-1.1-17.6-4.8-29.8-9-48.6
			c-3.4-12.4-3.1-39.6-2.2-49.7C153.5,291.2,152.8,292.1,152.2,293z"/>
		<path class="st38" d="M118,287.9c5.8,10.8,4.8,35.8,5.7,50.4c1.6,17,6.6,41.5,9.2,55.5c-2.2,0.1-2-0.2-2-0.2
			c-2.9-15.2-6.3-35.1-8.4-50.5c-1.7-17.7,0.9-38.7-6.2-55.7l0.4-0.7L118,287.9z"/>
		<g class="st39">
			<path class="st40" d="M153.4,268.7c2.4,4.5,12.3,6,15,0.6C165,272,156.5,271.4,153.4,268.7z"/>
			<path class="st40" d="M220.9,213.9c0.3,2.6,3.5,7.9,8.3,8.7c-5.7-4.1-5.5-6.3-7-10.3L220.9,213.9z"/>
			<path class="st40" d="M234.1,224.7c6,1.5,12-7.7,9.6-12c-0.7,3.8-1.1,4.3-2.7,6.7S237.1,224.2,234.1,224.7z"/>
			<path class="st40" d="M262.7,212.4c-2.6,5.7-5.8,14.8-12.5,18.7c-2.4,0.6-4.8,0.9-7.3,0.8c-1.1-0.4-3.1,0.4-4.2,0.9
				s-6.3,4.8-9,6.3c-6.5,0.8-16.9-12.6-15.6-18.7l0.4-0.5c-1.6,5.1,10.7,22.6,17.7,15.5c3.4-2.3,7.9-5.2,9.2-5.3
				c12.2,3.7,19.1-15.7,22.4-24c4.8-3.1,19.2-9.9,20.6-18.6c2.6,6.3-19,18.8-19.8,19.8L262.7,212.4z"/>
			<path class="st40" d="M264.6,197.2c3.2-0.2,16.6-11.3,17.9-13.8l-2.3-0.2C276.2,188,269.7,193.5,264.6,197.2z"/>
			<path class="st40" d="M261,189.4c0.6-0.4,17.6-18.2,17.5-18.2H276C271.9,176.4,264.6,183.8,261,189.4z"/>
			<path class="st40" d="M252.8,182.5c1.1-1.8,21.2-17.1,14.5-21.7l-1.2,0.3c1.4,3.6-4.2,10.6-5.7,12.2L252.8,182.5z"/>
			<path class="st40" d="M246.9,183.9c3.3,2.8,6.5,5.9,9.4,9.2c4.8,5.4,11.6,14,7,6.2C255.7,188.4,251.6,186.5,246.9,183.9z"/>
			<path class="st40" d="M111.5,271.8c3.8,8.4,33.2,15.8,39.4,13.5c-7.5,17.7-25.9,5.6-32.7-1.3c0,0,12.3,14.5,23.3,11.7
				c13.6-4.5,12.1-10.1,13-15c-9.6,0.3-22.4-3-31.3-6.3c-2.6-1.4-10.3-5.5-13-6.7L111.5,271.8z"/>
			<path class="st40" d="M85.9,445.3c3.2,4.2,44.2,6.3,47.3,5c0,7.5-0.9,20.8-3.4,28.5c-2.9,10.2-32.2,5.4-34.8,2.3
				c5.3,6.1,35,8.4,37.1-4.3l1.3,0.8c0.4,0.6,0.9,1.1,1.6,1.4c4.4,1.7,16.7-1.5,19.2-6.3c-1.3,2.2-16.2,9.1-19.5,3.6
				c-1-1.5-0.8-1.7-0.5-5.4s1.6-16.6,1.9-20.1c-0.3,1.3,23.1-0.4,23.3-2.1c0.4-0.2-2.1,8.4-2.4,7.7c0.6,2.4-2,9-2.8,12.6
				s-0.9,4.4-3.4,6.3c6.2-0.9,8.9-25.6,11-31.4c-3,0.9-17,3-20.4,3.5c-4.5-0.6-9.1-0.9-13.6-0.9c-13.5,0.5-29.9,0.1-42.9-3.9
				L85.9,445.3z"/>
			<path class="st40" d="M171.8,176.9c-1.3,5.8-3.1,11.5-5.4,17c13.2-1.1,30.9-10.7,38.5-21.6c1.1-1.8,4.7-7.8,6.2-9.1
				c-0.8,7.4-10.4,18-16.9,21.9c-3.7,2.3-9.2,7.1-13.5,8.1l4.7-0.4c2.3-0.6,4.6-1.4,6.7-2.4c5.8-2.8,14.4-6.9,19-11.5
				c3.1,1.2,4.8,4.5,7.9,5.7c-1.5,1.1-3.5,0.2-5.1-1.5c-7.2,12.4-33.4,18.6-45.5,17.8c2.3-0.6,4.6-1.5,6.7-2.7
				c-5.1,1.9-15.2,0.9-15.2,0.9c9.6-13.6,10.4-50.4,4.2-62.5c2.6,5.1-5.3,25.8-2.5,31.6c-3.4-1.4-7.4-6.8-8.3-10.6
				c-0.6,2.6,2.5,11.8,3.4,14c-12.5-6.7-22.1-25.4-23.5-38.4c0,0-0.5,15.6,2.4,22.8c-3.4-0.6-15.1-6.9-23.6-15.3
				c8.9,22.7-26,66.6-16.9,87.3c-4.5-0.1-8.5-5.1-8.5-5.1c0.8,1.4,1.7,2.6,2.7,3.8c-7.4-2-22.8-31.4-24.1-40c1,0,1.9,0,2.9,0.1
				c3,9.7,6.9,22.1,14.5,30.4c-2.3-8.8-6.5-20-4.8-29c0,1.1,0.3,2.2,1,3.1c0.1,2.4,1.8,9.9,2.3,12.4c1.4,5.1,3.8,12.8,7,17.1
				c0.4,0.4,2.1,3.3,2.9,3.2c-2.2-13.2,7.3-32.5,11-45.2c1.4-5.2,4.1-15.6,5.2-20.8c1.4-12.3-1.4-28.4-3.4-40.5
				c1.2,2.6,10.6,14.4,12.6,16.9c3.8,3.4,9.6,9.2,14,11.8c-2.7-9.5-2.5-25.7,4.3-34.1c-3.2,14.2,5.6,40.8,15.9,50.8
				c-0.2-3.9-1.1-18.1-0.3-24.3c1.1,5.2,3.3,13.9,6,18.4c0.2-12.1,7.4-26.7,1.6-38.6C172.2,131.7,175.7,159.8,171.8,176.9z"/>
			<path class="st40" d="M149.5,239.1c3.9-13.6,31.8-15.4,28.2,3.9c-1-14.7-18.3-11.7-24.2-8.2L149.5,239.1z"/>
			<path class="st40" d="M59,206.6c0,0,7,0.1,8.1,2.2c-1.8,2.9-2,6.5-0.5,9.5c0.8,1.3,1.2-5.2,5.3-4.9c2.2,2.4,4.2,9.1,4.2,9.1
				s-3.6,5.5,0.2,8c-3.8-6.8,4.5-5.2,3.1-9.4c-1.8-6-7.6-12.6-12.9-15.5l-3.2-0.4C61.8,205.4,60.4,205.9,59,206.6z"/>
			<path class="st40" d="M119.5,178.7c1.7,4.3,11.5-2,16.4-0.9s13.6,0.6,11.3-5.1c-2,5.7-14.4,0.2-25.5,6.3L119.5,178.7z"/>
			<path class="st40" d="M127.7,217.3c-7.8-41.6,35.9-36.8,25.3,1.7C161.2,182.4,122.5,179.6,127.7,217.3z"/>
			<path class="st40" d="M178.2,222.2c0.6-30.3,35.5-31.2,21.6,4.4C210.1,190.4,179.8,197.1,178.2,222.2z"/>
			<path class="st40" d="M31,372.7c4.9,13.2,17.6,5.8,16.5,18.7c0.9-7,0.5-5.3,2-9.2c0,0-0.1,0.8-6.1-2.2c-8.5-4.7-7.5-4.9-10.7-7.9
				L31,372.7z"/>
			<path class="st40" d="M39.6,399.3c1.3,8.1-7,35.1-21.5,23.6c3.7,8.6,14.4,4.9,18.3-3.9s3.8-11.3,5-15.1
				C41,402.8,40.1,400.4,39.6,399.3z"/>
			<path class="st40" d="M40.2,400.1c0,0,5.1,11,9.3,12.4s10-0.2,10.5-4.2C53.5,423.7,42.2,409.7,40.2,400.1z"/>
			<path class="st40" d="M33.8,398.8c0,0-4.8,8.5-11.1,14.3s-7.3,7.7-6.4,10.1c0.9,2.4-6.5,4.3-7.1-2c-0.4,6.1,8.3,8,10.7,5
				c-1-1.2-1.8-2.7-2.2-4.2l0.4-1.8C23.8,413.8,30.4,406.8,33.8,398.8z"/>
			<path class="st40" d="M28.8,392.3c-0.6,0.4-24.6,37.3-26.4,23.4c0.4,5.1,3.8,6.1,6.8,5.5c0.5-1.9,3-5.1,4.3-6.5
				C18.3,407.8,25.5,400.2,28.8,392.3z"/>
			<path class="st40" d="M21.6,391.3c0,0-4.7,7.7-10.2,12.2s-8,9.6-10.5,5.8c-0.2,2.3,1.6,2.8,2.6,3.5
				C9.7,406.7,18,398.9,21.6,391.3z"/>
			<path class="st40" d="M222.6,193.8c0.9-0.8,11.7-17.9,8.9-23.7c-2.8,7.1-5.8,16.1-9.3,22.8L222.6,193.8z"/>
			<path class="st40" d="M107.4,265c21.7,17.4,99.8,21.5,98.4-22.1C210.3,290.6,128.1,285.3,107.4,265z"/>
			<path class="st40" d="M152.3,453.2c0.2,1.3,1.3,4,3.4,3.2C154.4,455.5,153.3,454.4,152.3,453.2z"/>
			<path class="st40" d="M112.5,460.6c2.1,1,8.6-2,9.1-4.1C118.8,458.4,115.8,459.8,112.5,460.6z"/>
			<path class="st40" d="M100.3,454.8c0.7,3.3,3.8,6.3,7.4,6.1C104.7,460.4,102.1,457,100.3,454.8z"/>
		</g>
		<path class="st41" d="M0.9,406.6c0.9-0.3,3.5,1.2,4,1.8s1.6-3.2,1.2-4s-1.6-1.1-2.7-1.4L0.9,406.6z"/>
		<path class="st41" d="M2.9,414.1h1.3l1.6,0.9c0,0,0.8,0.9,1.2,0.9c3.3-0.4,2.5-7.1-1.1-5.6C5.2,411,3.1,413.1,2.9,414.1z"/>
		<path class="st41" d="M9.6,419.8c2.3-0.6,5.7,3.5,6.5-0.6c0.8-4.1-0.8-4.5-3.2-3.6C11.3,416.5,10.1,418,9.6,419.8z"/>
		<path class="st41" d="M17.7,421.2c1.9-0.8,5.2,1.7,6.6,0.3s0.5-6-2.8-5.1C20,417.5,18.1,419.4,17.7,421.2z"/>
		<path class="st41" d="M52.3,408.3c-1.7-2.6-1-6.5,3-5.6c0.3,0.3,5.2,2.6,4.7,4C57.4,406,54.4,406.1,52.3,408.3z"/>
		
			<radialGradient id="SVGID_29_" cx="-728.8094" cy="-15.3298" r="1.02" gradientTransform="matrix(-7.56 1.3 -1.3 -7.56 -5392.1099 1048.9299)" gradientUnits="userSpaceOnUse">
			<stop  offset="0.74" style="stop-color:#4F6081"/>
			<stop  offset="1" style="stop-color:#324365"/>
		</radialGradient>
		<path class="st42" d="M147.4,215.9c0.9-4.1-1.6-8.2-5.7-9.1c-3.1-0.7-6.3,0.6-8.1,3.3C128.1,219.7,143.3,229.7,147.4,215.9z"/>
		
			<radialGradient id="SVGID_30_" cx="-738.046" cy="-17.0392" r="1.02" gradientTransform="matrix(-6.8 1.17 -1.17 -6.8 -4856.1802 970.7701)" gradientUnits="userSpaceOnUse">
			<stop  offset="0.74" style="stop-color:#4F6081"/>
			<stop  offset="1" style="stop-color:#324365"/>
		</radialGradient>
		<path class="st43" d="M192,223.3c1.2-7.4-7.9-11.6-12.4-5.3C174.7,226.7,188.3,235.7,192,223.3z"/>
		<path class="st44" d="M125.6,41.7c37.1-2.1,65.9,32.1,69,67.1C189.8,74.4,162.3,41.4,125.6,41.7z"/>
		<path class="st44" d="M96.9,51.8c3,26.3,5.3,54.4,21,76.8C100.8,107,98.2,78.3,96.9,51.8z"/>
		<path class="st44" d="M62.5,60.5c-17.2,19.4-27.3,44.6-26.4,70.6C33.5,105,44,78.9,62.5,60.5z"/>
		<path class="st44" d="M31.8,127.6c2.7,18.6,4,37.9,12.1,55.1C34.3,166.2,32.8,146.3,31.8,127.6z"/>
		<path class="st44" d="M63.2,173.7c-3.2-13.8-1.8-28.5,0.9-42.3C63.1,145.5,61.6,159.6,63.2,173.7z"/>
		<path class="st44" d="M111.4,46.6c14.2,12.9,22.9,31.6,26.8,50.2C132.6,78.6,124.4,60.6,111.4,46.6z"/>
		<path class="st44" d="M136.4,76.7c8.6,15.5,12.3,33.3,13.6,50.9C147.1,110.2,143.5,92.8,136.4,76.7z"/>
		<path class="st44" d="M102.6,47c7.9,11.5,11.9,25.2,15.5,38.5C113,72.9,108.9,59.1,102.6,47z"/>
		<path class="st44" d="M69.7,56.4c-7.9,10.8-15.7,22-19.2,35.1C52.3,78,60.6,66.1,69.7,56.4z"/>
		<path class="st44" d="M49.1,68.2c-4.6,6.6-7.8,14-11.6,21C39.7,81.6,43.2,73.8,49.1,68.2z"/>
		<path class="st44" d="M82.4,52.8c-1.2,16.6-0.5,33.3,2.1,49.8C80.3,86.3,79.6,69.4,82.4,52.8z"/>
		<path class="st44" d="M74.7,55.6c-2.4,7.9-3.6,16.5-5.4,24.6C69.4,71.8,70.7,63.1,74.7,55.6z"/>
		<path class="st44" d="M91.8,52.6c1,5.8,1.3,11.7,1,17.6C91.5,64.4,91.1,58.5,91.8,52.6z"/>
		<path class="st44" d="M121,46.2c7.9,2.3,14.5,8.7,18.1,16C134.1,55.8,128.2,50,121,46.2z"/>
		<path class="st44" d="M198.7,94.8c7.2,25.6,10.8,57.7-6.6,79.9C207.9,151.7,204.2,120.7,198.7,94.8z"/>
		<path class="st44" d="M199.8,170c-3.8,8.2-12.4,13.1-20.5,16.3C186.6,181.6,194.6,177.2,199.8,170z"/>
		<path class="st44" d="M217.5,75.4c13.6,19.6,17.9,44.3,11.6,67.3C233.7,119.6,229.6,95.6,217.5,75.4z"/>
		<path class="st44" d="M226.8,129.4c0.3,13.6-3.6,27.5-12.4,38.1C221.8,156,225.4,142.8,226.8,129.4z"/>
		<path class="st44" d="M85.9,92.5c5.3,22.2,13.5,44.8,10,68C97.7,137.2,89.6,115.1,85.9,92.5z"/>
		<path class="st44" d="M100.5,139.8c2.8,20.2-5.6,39.2-10.9,58.3C93.3,178.6,101.6,160,100.5,139.8z"/>
		<path class="st44" d="M129.2,44.8c12.1,1.7,24.5,8.7,30.3,19.8C152.3,54.5,140.9,48.1,129.2,44.8z"/>
		<path class="st44" d="M191.9,60.1c13.5,8.4,24.2,22.2,27.2,38C214.5,82.8,204.4,69.8,191.9,60.1z"/>
		<path class="st44" d="M43.7,219.3c-10.3-14.1-13.7-32.1-16.4-49C31.6,186.9,34.9,204.4,43.7,219.3z"/>
		<path class="st44" d="M38.6,189.9c-7.2-13-9.4-28.1-10.1-42.8C30.8,161.6,32.9,176.3,38.6,189.9z"/>
		<path class="st44" d="M91,29c-3.6-8.9-12.9-13.4-20.9-17.7C78.8,14,89,19.4,91,29z"/>
		<path class="st44" d="M75.8,34.1c-6.9-6.3-18.2-7.4-27-4.9C57.1,25,70.1,26.4,75.8,34.1z"/>
		<path class="st44" d="M104,29.3c1-3,1.9-6,2.8-9C107.5,23.6,106.4,27,104,29.3z"/>
		<path class="st44" d="M99.4,28.4c0-2.8-0.1-5.7-0.3-8.5C101,22.4,101.1,25.8,99.4,28.4z"/>
		<path class="st44" d="M82.5,31.3c-1.9-4.2-5.2-7.3-8.8-10C78.2,22.5,82.3,26.5,82.5,31.3z"/>
		<path class="st44" d="M60.3,48.2c-11.1-1.9-24.2,2-29.8,12.4C34.6,49.1,49.4,44.5,60.3,48.2z"/>
		<path class="st44" d="M67.2,41.6c-6.4-2.7-13.5-2.8-20.3-2.5C53.4,37.1,61.5,37.4,67.2,41.6z"/>
		<path class="st44" d="M39.9,59C32.4,67.8,29.4,79.5,28,90.9C27.7,79.4,31.1,66.7,39.9,59z"/>
		<path d="M131.5,483.9c3.6-2.8,4.9-5.6,0.6-7.7l-0.4,1.2c3.4,1.3,1.4,3.8-0.5,6.4C130.9,484.1,131.2,484.1,131.5,483.9z"/>
		<path d="M93,481.6c3.5,2.5-3.9-3.1-0.1-5l-0.6-1C89.4,477.2,90.9,479.8,93,481.6z"/>
		<path d="M99.2,492l1.1-0.3c-0.6-7-3.4-6.4-8.1-9.3c-0.4-1.1-0.8-2.9-0.4-3.4l-0.9-0.7c-1,1.5-0.2,4,0.1,4.7s4.4,2.6,6.2,3.4
			S98.6,490.1,99.2,492z"/>
		<path d="M91.8,493.4l1.1-0.5c-1.8-5.1-3.8-9.4-1.2-10.1l-0.4-1.2C87.4,483.1,89.7,487.2,91.8,493.4z"/>
		<path d="M155.4,476.3c0.7-1.3,0.7-4.2-1.3-3.9l0.2,1.1c0.5,0.3,0.4,1.5,0,2.3L155.4,476.3z"/>
		<path d="M112.6,493.4c1.5-4.8,8.1-2.5,13-4.4c8.2-2.6,9.8-4,8.4-8.6l-0.9,0.8c0.7,3.8-1.1,4.4-7.8,6.7c-5.1,1.7-12.8-0.2-13.9,5.2
			L112.6,493.4z"/>
		<path d="M102.7,537.8c9.8-0.3,17.1-2.8,22-9.4c2.3-2.3,11.1-13.1,10.7-15.7c-6.2-19.4,5-27.8-1.4-30.3l-0.4,1.1
			c3.9,1.6-2.7,10.9-1.4,17.2c-0.1,9.7,5.5,9.4-1.5,18.4c-6.3,7.4-7.9,12.8-17.8,16c-8.2,4-37.2,0.4-35.9-15.7
			c-3.4-24.6,26.8-20.8,37.8-9.6c-5.2-9.9-24.5-14-34.2-6.5c-6.5,5.7-4.7,15.9-4.8,17C74.9,530.7,91,538.3,102.7,537.8z"/>
		<path d="M133.1,534.1c0.5,0,1.1-0.1,1.5-0.5c3.2-3.2,2.9-6.8,3.2-12.4s1.8-8.8-2.9-9.7v1.2c3.4,0.5,1.5,3.8,1.8,8.4
			c-0.6,6.1,0.6,7.5-2.9,11.7c-0.7,0.1-1.5,0.1-2.2-0.1l-0.2,1.2L133.1,534.1z"/>
		<path d="M126.5,543.4c3.6-1.4,4.1-8.8,6.6-11.8c1.3,3,1.3-4.8,0.9-3.8c-0.4,0.5-0.8,1.1-1.1,1.7c-1.2,1.2-4.6,10.2-5.9,12.4
			c-0.3,0.4-0.3,0.4-2,0l-0.2,1.2L126.5,543.4z"/>
		<path d="M105,540.4c7.3,0.6,18.1-3.1,21.1-10.1c3-4,9.3-13.4,9.2-15.1c-10.2,17-15.6,27.3-38.7,23.6c-7.9-1-16.9-4.2-19.9-10.2
			C78,535.4,95.7,541.2,105,540.4z"/>
		<path d="M121.4,547.1c3.9-1,3.7-2.3,3.6-5.9l1.2-1c0.1,0.4,0.2,0.9,0.3,1.3c0.2,1,1.5-4.2,0.8-3.9c-1.2,0.9-2.4,1.9-3.5,3
			c0,0.5-0.1,3,0,4.1c-1.3,1.2-3.2,1.4-4.8,0.7l-0.2,1.2C119.6,546.8,120.5,547,121.4,547.1z"/>
		<path d="M101.8,550c5.2-0.1,10.4-0.4,15.6-1.1c2.5,0.1,2-2.1,2.1-3.8l1.4-0.7c1.1-0.5-0.1,2.5,1.2,0.6c0.2-0.4,0.8-2.7,0-2.4
			l-3.8,1.7c0,0.3,0,3-0.1,3.2c-10.5,1.9-39.3,3.2-43.8-10.9c-0.2-3.6-1.7-11.3,2.7-12.5l-0.4-1.1c-5,1-3.9,9.8-3.4,13.9
			C75,546.5,92.8,549.8,101.8,550z"/>
		<path d="M112.5,502.5c-1.5-1.5-6-4-6.2-3.8l-0.6,0.7c-6-13.6,27.8-5.1,26,4.7C129.9,513.9,115.8,507,112.5,502.5z M107.3,494.3
			c-1.2,0.2-1.4,1.3-0.9,3.3c1.3,0.1,5,2.3,6.8,4c3.1,3.4,14.2,8.9,17.3,2.4C129.2,495.3,115,492.4,107.3,494.3z"/>
		<path d="M126.3,505c1.4-0.7,1.9-1.3,1.8-2.4c-1.2-8-19-8.8-22.8-7.1l0.5,1.1C108.8,494.8,130.2,496.2,126.3,505z"/>
		<path d="M123.7,505c2.7-0.1,4.3-1.3,4.1-3.5l-1.2,0.2c-4.1,7.2-13.9-5.5-20-6.5l-0.4,1.1C113.1,498.2,116.6,504.8,123.7,505z"/>
		<path d="M105.8,499.6c0.7,0,1.4-0.2,1.9-0.7l-0.8-0.9c-4.9,2.4-3.6-8.8,0.8-4.1l1-0.8C103.4,488,99.4,498.9,105.8,499.6z"/>
		<path d="M102.8,499c0.5,0,1-0.1,1.5-0.4l-0.6-1l0.3,0.5l-0.3-0.5c-4,1.5-3.2-7.1,1-4.5l0.6-1C100.4,488.8,97.3,498.5,102.8,499z"
			/>
		<path d="M117.8,503l1.1-0.3c-0.8-2.5-4-7.3-8.1-7.9l-0.2,1.1C113.9,496.5,116.9,500.5,117.8,503z"/>
		<path d="M118.3,516.7h1.3c2.5-1.7,1.1-6.2,0.4-10.4l-1.1,0.3c0.6,3.6,1.6,7.3,0.3,9c-3,0.8-1.6-7.5-2.8-11.3l-1.1,0.2
			C116.6,509.1,114.7,515.7,118.3,516.7z"/>
		<path d="M117.9,524c2.5,0.3,1.7-7.2,2.2-7.9l-1.1-0.2c-0.3,0.3-0.3,6.7-1.1,6.9s0.6-7,0.4-7h-1.2C117.5,516.6,114.7,524,117.9,524
			z"/>
		<path d="M112.7,505.7c1.2-0.3,2-1.8,0.7-3.9l-0.9,0.7c0.5,0.6,0.5,1.4,0.1,2c-2.3-0.8-4.3-2-7.5-2.7l-0.2,1.2
			C108.1,503.5,110.3,505.2,112.7,505.7z"/>
		<path d="M95.7,500.9c1.9-1,3.9-1.8,5.9-2.3v-1.2c-2,0.2-6.2,2.3-6.4,2.4L95.7,500.9z"/>
		<path d="M87.6,499.6c1.3-4.9,9.5-2.2,13.1-2.2v-1.2c-3.6-0.1-13.9-2.9-13.4,3.3C87.4,500.2,87.5,500,87.6,499.6z"/>
		<path d="M84.9,501.3l1.7-0.4c-3.8-6.3,15-8.9,15.4-7.9v-1.1C100.8,490.5,80.9,494.2,84.9,501.3z"/>
		<path d="M89.7,500.9l0.3-1.1c-0.8-0.3-1.3-1.2-1-2c0-0.1,0.1-0.2,0.2-0.4l-0.8-0.9C87,497.6,87.9,500.5,89.7,500.9z"/>
		<path d="M91.7,500.5c0.9-0.9,4.1-3.3,7.1-3.5l-1-0.9c-1.8,0.3-5.9,2.6-7,3.5L91.7,500.5z"/>
		<path d="M92.8,498.7H94c0-0.9-0.2-1.8-0.5-2.7l-1.1,0.3C92.6,497.1,92.7,497.9,92.8,498.7z"/>
		<path d="M110.3,500.8l0.6-1c-1.1-0.7-4.5-1.3-4.8-1.4l-0.3,1.2C107.3,499.8,108.8,500.2,110.3,500.8z"/>
		<path d="M94.5,516.8c-2.1-1.8-7.6-3.4-10.9-1.8c-0.9,0.3-0.3,0.2,0,0.1c1.7-0.3,3.4-0.3,5.1-0.1c1.9,0.3,3.7,0.9,5.4,1.8
			C94.6,517.1,95,517.2,94.5,516.8z"/>
		<path d="M113.6,490.6l1.1-0.4c-1.7-2.3-11.8-5.6-16.6-4l0.7,0.9C100,485.6,114.3,489.8,113.6,490.6z"/>
		<path d="M98.2,492.4h0.6c-1-4-0.6-4.6-3.4-5.9c-1.3-0.5-2.5-1.2-3.6-2.1c-0.1-0.1-0.9-0.7-0.2,0C95.1,488,97.6,486.2,98.2,492.4z"
			/>
		<path d="M112.8,491.6l0.3-0.5c-1.8-1.4-10.5-4.4-14.2-3.5v0.6C102.6,487.4,111,490.2,112.8,491.6z"/>
		<path d="M114.1,493.2c0.1-1.7,6.6-1.9,9.4-2.5c5.3-0.8,10.7-3.8,9.9-3.9c-2.1,3.1-18.6,3.2-19.9,6.2L114.1,493.2z"/>
		<path d="M172.1,534.2c8-0.6,21.6-2.8,21.6-12.3c0-6.7,1.8-9.7-3.5-10.7v1.1c4.2,0.8,2.3,4.7,2.5,9.5c0.1,9.8-18.8,12.3-25.8,10.7
			c0.1-0.8,0-1.7-0.1-2.5l-4.7-1.3c-0.7-0.2-0.6,1.7-0.6,2.3s0.2,0.5,0.2,0.1c-0.1-2.3,3.1-0.1,4-0.2v2.6
			C167.8,534,169.9,534.2,172.1,534.2z"/>
		<path d="M161,533.2c1.4,0.1,4.5-2.1,5-2.4l-0.7-1c-3.3,2.7-5.7,2.5-9.6,1.2c-0.1-0.9,0-1.8,0.3-2.7c-0.1-0.1-5.1-1.3-5.5-1.7
			s-1.1,1.3-0.7,2.2s0.5,0.2,0.5,0c-0.8-1.9,3.5,0.4,4.3,0.3C153.3,533.1,157.8,532.6,161,533.2z"/>
		<path d="M150.2,530.5c1.2,0,2.8-1.1,4.1-1.6l-0.4-1.1c-5.5,4.3-12-3.5-16.9-5.5l-0.4,1.1C140.3,525.1,145.7,530.2,150.2,530.5z"/>
		<path d="M149.3,503.2c0.7-1.1,1.5-2.1,2.5-2.9l-0.4-1.2C150,499.5,146.3,508.1,149.3,503.2z"/>
		<path d="M172.4,522.7c35.9-1.5,14.4-39.7-19-24.8l0.5,1.1c38.6-16.2,52.9,32.6,7.1,20.1c-6.2-1.3-18.4-5.2-23.7-5.3v1.2
			C145.9,515.4,162.5,521.8,172.4,522.7z"/>
		<path d="M140.8,499c-3.6-6.3,5.2-19.4,14.2-14.1c1.2,1-0.4,4.7-1.2,6.7c-1.4,4.3-3.7,9.5-8.8,9.2
			C143.4,500.9,141.8,500.3,140.8,499z M152.5,484.8c-9-1.7-17.2,16-6,14.6c3.5-0.6,5-4.8,6.2-8.2S156,485,152.5,484.8z"/>
		<path d="M145.4,498.9c0.6-0.1,1.2-0.4,1.7-0.8c1.1-1,0-0.3-0.2-0.2c-4.4,1.2-3-3.6-1.1-6.6s6.4-3.9,9-6.1l-1-0.6
			c-2.8,1.7-6.4,2-9,6C143.2,492.9,141,499.3,145.4,498.9z"/>
		<path d="M144.2,498.4c4.9,0.2,8.8-9.9,9-12.5h-1.1c-0.1,1.9-4.4,12.3-8.2,11.3l-0.2,1.2H144.2z"/>
		<path d="M154.4,489.7c5.9-1,1.4-11-3.5-5.8l0.8,0.9c3.6-3.9,6.6,3.1,2.5,3.7v1.2L154.4,489.7z"/>
		<path d="M156.3,489.4c4.9-0.5,2.5-10.6-2.4-6.8l0.8,0.9c3.4-2.7,4.4,5.4,1.1,4.6l-0.4,1.1C155.7,489.4,156,489.4,156.3,489.4z"/>
		<path d="M166.5,495.8c3.4-4.8-3.3-15-9-13.3l0.2,1.1c4.7-1.3,10.7,7.6,7.8,11.5L166.5,495.8z"/>
		<path d="M163.5,496c2.2-4-0.8-10.8-5-11.7l-0.2,1.2c3.9,1.6,5.7,6,4.1,9.9c0,0,0,0.1,0,0.1L163.5,496z"/>
		<path d="M152.9,493.6c3.3-1.4,9.4-1.6,5.3-6.2l-0.8,1c3.1,3.4-2.8,2.6-5,4.1L152.9,493.6z"/>
		<path d="M153.4,495.8c2.3-0.8,4.6-1.4,7-1.6c0.5-1.3-0.6-2.9-1.7-3.5l-0.6,1c0.5,0.3,0.9,0.8,1.1,1.4c-2.1,0.3-4.2,0.9-6.2,1.6
			L153.4,495.8z"/>
		<path d="M161.6,496.2c0.3-1.7-0.5-2.8-1.6-3.1l-0.3,1.1c0.4,0.1,0.9,0.6,0.7,1.8L161.6,496.2z"/>
		<path d="M161.4,494.6c0.8-3.9-1.1-8.2-2.8-8.9l-0.5,1c1.2,0.6,2.8,4.3,2.1,7.6L161.4,494.6z"/>
		<path d="M149.3,493.5l1.1-0.4c-0.8-1.9-0.8-3.9,0-5.8l-1.1-0.5C148.4,489,148.4,491.3,149.3,493.5z"/>
		<path d="M152.9,511.2c5-2,1.5-13.9,0.2-18l-1.1,0.2c0.6,2.8,1.8,4.9,2.1,8.3s0.6,10.1-2.4,7.7c0.9-3.7,0.8-9.5-0.5-12.5l-1.1,0.5
			c1.1,3.4,1.3,7,0.6,10.5C150,510.1,151.2,510.8,152.9,511.2z"/>
		<path d="M148.7,517.3c1.7,0,3.9-6.2,4.5-6.6l-1-0.6c-0.3,0.1-2.8,6-3.7,5.9s3.4-6.2,3.1-6.3l-1-0.6
			C150.5,510.2,144.4,516.9,148.7,517.3z"/>
		<path d="M148.9,484.6h1.2c0.5-9.8-9.7,0.2-16.1-4.6l-0.6,1.1C141.1,486.1,149.6,476.7,148.9,484.6z"/>
		<path d="M155.8,482.7c1-5.5,1.3-10.3-5.3-5.2c-1.4,0.9-3.6,1.1-3.7,3h1.2c0.3-1.3,4.7-2.5,5.4-3.6c3.1-2.2,1.4,2.9,1.2,5.5
			L155.8,482.7z"/>
		<path d="M139.8,484.2c4.1,0,7.2-1.7,7.5-2.2s-6,2.7-12.8,0.9v0.6C136.2,483.9,138,484.2,139.8,484.2z"/>
		<path d="M150.3,480.4c0.7-0.6,4.6-3.3,4.9-2.2s0.3,0.3,0.3-0.3h0.6C155.5,475.8,150.4,479.5,150.3,480.4z"/>
		<path d="M173.3,524.6c8.3,1,17.6-5.1,18.2-9.7c0.5-1.5-0.2-0.4-0.3-0.1c-12.6,19-35.7,2.7-53.8,1.1v0.5
			C155,518.7,156.3,523.4,173.3,524.6z"/>
		<path d="M177.2,505.8c2.2-1.3,4.6-2.2,7.1-2.6c0.3-0.1,0.9-0.2,0-0.2C181.4,502,174.4,507.1,177.2,505.8z"/>
		<path d="M141.9,448.1c-25.4-0.8-56.3,1.2-78.8-13.9c-2.1-2.2-1.6-5-0.4-10.2c2.5-11.2,5.5-26.5,6.6-32.6l1.2,0.2
			c-1.1,6.1-4.1,21.5-6.7,32.6c-4.6,11.4,7.2,12.4,19.5,16.8c14.1,4.8,23.7,4.8,36,4.8c17.4,0.9,45.6,1.4,55.4-10.6
			c5.3-5.4-0.5-19.2-0.9-30.8l1.2-0.2c0.4,12.3,6.5,25.7,0.5,31.8S156.8,448.1,141.9,448.1z"/>
		<path d="M176.4,194.9c15.2-7.3,29-16.1,33.9-29.7c-8.4,16.9-26.6,27.5-45.5,30.4c12.9-27.8,8.5-56.8-4.9-74.7
			c4.8,13.2-5.6,26.9-1.7,38.8c-4.5-3.6-6.3-11.8-7.3-18.1c-0.3,9.7-0.5,20.9,3.9,27c-14.3-13.5-23.8-34.9-20.6-54.7
			c-5.6,9.6-5.3,23.1-1.8,34.4c-25.1-15-38.4-46.1-37.7-65.3c3,20.8,14.1,47.9,34.6,60.8c-3.2-12.1-0.7-25.1,6.9-35.1
			c-3.4,18.5,1.7,37.5,14,51.7c-1.7-7.9,0.4-29.1,0.4-29.1s1.6,16.7,5.2,22.8c0.5-11.8,8-25.4,0.9-37.4c17,13.5,23.3,48.6,11,76.6
			c22.1-3.7,38.6-17.3,44.8-36.4c1.5,14.1-13.7,27.9-28.4,35.4c29.7-5.9,56.5-45.5,51.6-73.9c-0.2-2.4-0.2-3.1,0.5,0.5
			C243.5,150.4,209.1,194.7,176.4,194.9z"/>
		<path d="M92.9,225.9c-8.2-4.2-13-21.8-14.9-35.9c0.1,13.2,4.3,23.7,6.9,29.9c-11.8-8.8-22.4-40.1-19-55.7
			c-0.5,19.6,9.1,41.9,15.6,50.4c-3.2-8.2-6.9-24.8-2.7-35.5c-0.7,12.6,4.2,35.3,11.6,43.5c-1.7-7.2,1.8-17.5,6.2-30.1
			c13.6-28.8,11.1-68.5,3.3-85.4l1.1-0.4C123.4,169.3,85.1,194.9,92.9,225.9z"/>
		<path d="M163.9,258.1c-10.2-0.4-22.2-5.4-25-13.6c9.1,11.6,26.8,17.5,43.2,6.4C179.1,256.2,168.9,258,163.9,258.1z"/>
		<path d="M135.6,246.4c-1.7-4.3,6.8-5.4,4.8-4C135,243.1,136.6,249.6,135.6,246.4z"/>
		<path d="M161.6,271.8c-2.7,0-5.2-0.8-7.4-2.4c-1.8-1.4,0-0.4,0.3-0.2c4.2,1.8,8.8,1.9,13.1,0.4c0.3-0.2,1.6-0.6,0.3,0.2
			C166,271,163.8,271.7,161.6,271.8z"/>
		<path d="M177.3,241.8c-0.9-10.5-21.2-12.2-27-3.4c-0.3,0.4-1.5,1.8-0.4,0C157.4,224.7,179.7,232,177.3,241.8z"/>
		<path d="M129,418.2c-24.9-2.3-44.7-10.6-63.2-28.9c-4.3-1.9,2.3-16,2.7-22l1.7-1.2c-1.6,7.2-3.4,13.4-4.6,19
			c-0.9,3.3,1.4,2.2,4,5.3c14.6,15.3,36.6,23.7,55.9,25.6c5.4,1.6,4.6-2.5,5.2-9.2c1.8,0-8.2-58.9-8.6-62.6
			c-1.3-11.9-0.8-30.5-2.2-41.6c-0.9-8.3-5.5-16.7-6.6-23.7h1.1c1.3,7.1,5.8,15.2,6.7,23.7c1.3,11.1,0.9,29.7,2.1,41.6
			S139.5,411.8,129,418.2z"/>
		<path d="M127.1,416.9h-0.6c4.9-24.8-4.5-50-6.3-72.2c-2.2-15.7-0.2-43.4-3.9-56.4l0.6-0.2c3.7,13,1.7,40.9,3.9,56.5
			C122.7,366.8,132.1,392,127.1,416.9z"/>
		<path d="M168.9,409.2h-0.6c2.3-20.7-8-60.8-11.7-81.4c-0.9-8.2-1.3-16.4-1-24.6c-0.1-6.4,1.3-17.5-1.6-20.9l0.5-0.4
			c3,3.5,1.7,14.7,1.7,21.3s-0.3,15.7,1,24.5C160.9,348.1,171.2,388.7,168.9,409.2z"/>
		<path d="M168.8,406.7l-0.3-0.5c4.6-2.4,11.4-9.1,13.9-13.8l0.5,0.3C180.3,397.4,173.5,404.2,168.8,406.7z"/>
		<path d="M127.5,414c-35.2-5.2-42.6-11.7-62.5-29.2l0.3-0.6c19.9,17.6,27.1,24,62.3,29.2L127.5,414z"/>
		<path d="M154.3,281.4c-31.1,1.6-63.3-23.1-74.9-44.6C45,243.7,35.6,185.7,68.8,186l0.4,2.3c-30.3-4-25,55.1,11.4,46.6
			c1.7,9.3,24.9,32.4,48.8,40.8c30.6,10.8,92.9-0.7,72.1-45.7c13.2-18,39.9-76.5,34.2-99h1.2c5.5,22.3-20.1,79.5-33.8,99.1
			C218.1,263.9,187.4,282,154.3,281.4z"/>
		<path d="M76,229.9c-2.2-2.7-0.3-6.1,2.5-7.1c0.5-0.9,0.5-3.1-2.4-7.4c-5.7-9.6-12.4-10.8-16-9.5c7.9-3.7,11.5,1.6,17,8.9
			c1.8,2.6,4.6,7.3,2.5,9.3c-2.7,0.4-5,3.4-3.2,5.8C76.6,230.1,76.2,230.1,76,229.9z"/>
		<path d="M65.7,215.3c-0.3-3.3,0.3-7.5,2.9-9.2l0.6,1c-2.1,1.4-3.3,5-3.2,7.9C66,215.6,65.7,215.8,65.7,215.3z"/>
		<path d="M88,259.5c-66.9-8-92.9-128.3-52.7-181.2c24.8-38,83.2-44.8,124.3-38.1c63.1,7.4,100.9,69.3,88.4,128.9
			c-1.4-17-12.1-40.7-12-39.5l1-0.6c5.2,10.3,8.9,21.3,11,32.6c5-36.7-9.3-76.4-35.5-97.7C156.8,19.3,25.1,30,18.3,127.9
			C13.5,179.5,31,239.7,80.7,256.7c-5.6-3.8-9.6-9.5-11.2-16.1c4.3,6,12.3,10.1,22.2,10.3c0.5,0.6,1,1.2,1.4,1.8
			c-7.5,0.2-15.9-3.3-20.6-7.1C75.5,251.6,82.1,257.4,88,259.5z"/>
		<path d="M15.6,241.3c8.3-5.3,13.1-16.5,13.7-20.3c-1.3,1.2-6.7,4.4-9.9,6c5.4-6,8.5-13.8,8.8-21.9h1.2c-0.2,6.4-2.2,12.7-5.7,18.1
			c5.8-3.6,5.3-3.5,7.4-5.4c-0.6,2.6-1.2,11.9-11.5,21.8c11.4-1.8,22.4-10,22.5-10.1l1.3,1.3C43.3,231.3,27.2,241.3,15.6,241.3z"/>
		<path d="M62,54c0.9-16.7,43.9-30,57.4-15.4l-0.9,0.8c-10.2-12.5-52.8-3.2-55.3,14.5L62,54z"/>
		<path d="M21.7,107.4c-5.6-22-12.2-61.9,7.8-81.6c35-29.6,78.5-22.2,96.1,12.6l-1.1,0.4C109,6.1,63.9-2.9,30.3,26.6
			c-19.5,19.3-13,58.7-7.4,80.5L21.7,107.4z"/>
		<path d="M87.6,362c-1-4.1-2.2-8.2-3.6-12.2l1.1-0.4C85.8,349.8,90.3,370.2,87.6,362z"/>
		<path d="M85.3,377.7c-1.5-4.8-4.3-14.1-6.1-22.1l1.1-0.8C81.2,359.8,86.9,382.5,85.3,377.7z"/>
		<path d="M173.8,361.7c0.8-1.8-3-16.1-0.4-9.4C175.6,355.2,173.8,370,173.8,361.7z"/>
		<path d="M138.4,397.9c-2.6,0-5.2-0.2-7.8-0.7l0.2-1.1c9.1,1.4,24.4,0.3,34.6-5.7l0.6,1C157.9,396.3,146.6,397.9,138.4,397.9z"/>
		<path d="M93,345.7c-1-1.3-2-2.5-3.1-3.6l0.9-0.8C92.5,343.1,94.6,347.6,93,345.7z"/>
		<path d="M137,300c-8.9,0.4-19.1-9.8-21.6-15.2l0.6-0.2c2.2,5,11.4,14.4,19.8,14.8c6,1.8,22.2-6.9,18.2-15.1l0.5-0.3
			C158.9,291.6,143.5,301.5,137,300z"/>
		<path d="M137.3,394.3c-2.2,0-4.4-0.2-6.9-0.4v-0.6c7.7,1.7,30.7-1.9,35-5.1l0.3,0.5C164.3,390.6,142.7,395,137.3,394.3z"/>
		<path d="M139.9,231.3c-18.3,0.2-18.2-42.1,2.2-41.4C159.3,191.1,159.1,231.6,139.9,231.3z M142.1,190.5
			c-18.7,0.1-18.8,35.3-4.7,39.4C158.1,234,158,190.8,142.1,190.5L142.1,190.5z"/>
		<path d="M186.9,237.4c-16.2,1-9.3-37.3,6.6-36.4S202,238.4,186.9,237.4z M193.5,201.6c-13.6-1.2-22.3,34.1-6.6,34.6
			S208.2,202.6,193.5,201.6L193.5,201.6z"/>
		<path d="M125.4,444.5c-17.6,0.6-35.9-2.3-50.1-8.4c-8.7-2.8-13.4-7.2-12.9-9.2H63c1.6,8.1,31.9,15.5,43.3,16.5
			c24.5-0.1,60.4,7,70.7-15.8h0.6C170.5,445.8,145.3,444.2,125.4,444.5z"/>
		<path d="M113.8,460.4c2.4-0.4,4.7-1.3,6.7-2.8c1.6-1.2,1.4-1.4-0.2-0.6c-2.2,1.2-4.5,2.2-6.8,3.1
			C111.9,460.7,112.4,460.6,113.8,460.4z"/>
		<path d="M106.6,460.9c3.8,1.3-5.2-4.3-5.5-5.3s-1-1.1,0,0.4S104.5,460.4,106.6,460.9z"/>
		<path d="M113.3,486.7c-6.7,0.6-18.8-2.6-20.2-7.8c-3.3-9.7-6.4-26-8.7-36.6l1.1-0.2c1.8,8.2,3.8,18.5,6,26.9s0.9,12.2,12.1,15.6
			c35.2,5.9,27.2-12.5,31-38.1l1.2,0.2c-0.5,4.1-2.5,26.3-2.9,28.7C131.5,485.2,122.3,486.7,113.3,486.7z"/>
		<path d="M139.4,480.1c-1.8,0-3.5-0.2-5.2-0.7l0.3-1.1c23.7,4.5,21.9-18.3,26.8-35l1.2,0.3C157.8,458.5,159.7,480.2,139.4,480.1z"
			/>
		<path d="M89.9,443.8c-1-9.5,0-24.9,0.7-36.8h0.6c-0.7,11.5-1.6,27.5-0.8,36.5L89.9,443.8z"/>
		<path d="M148,447h-0.6c0.8-8-0.1-24.3,0.5-36.4h0.6C147.5,422.9,148.7,438.6,148,447z"/>
		<path d="M147.1,411c-0.5,0.1,0-0.4,1.1-0.8c1.7-3.2,0.6-9.8,1.3-13.9h0.8c-1.5,3.3,1.1,14.6-2.9,14.7
			C147.4,411,147.9,410.9,147.1,411z"/>
		<path d="M146.5,408.3c-0.3-0.6,0.2-12.2,0.6-8.8C146.9,400.4,147,412,146.5,408.3z"/>
		<path d="M160.4,436.1c2.3-3.7,6.9-11.4,8.2-16.4c0.4,3.6-5.4,13.9-8,16.7S159.9,436.8,160.4,436.1z"/>
		<path d="M170,425.2c0.1-1.8,0.2-6,0.2-8.4c0-0.3,0.5-4,0.8,0c0,2.7-0.2,5.5-0.5,8.2C170.5,425.6,169.7,430.2,170,425.2z"/>
		<path d="M80.8,422.7c-4.1-4.5-8.8-16.6-7.9-20.2C73.4,408.1,78.6,419,80.8,422.7z"/>
		<path d="M83.8,434.6c-2.2-0.9-4.1-2.3-5.7-4c-1.3-1.6-0.4-1.1,0.8-0.1S88.8,436.8,83.8,434.6z"/>
		<path d="M124.8,433.4c5.5-2.8,11.3-8.8,13.6-14.1c0.1-0.3,0.9-1.8,0.3,0.2C137.4,424.8,129.1,432.9,124.8,433.4z"/>
		<path d="M119.8,409c-22-6.1-15,1.7-14.2-20.5c1-1.7,17.5,2.2,17,3.6C121.8,395.6,122.3,408.4,119.8,409z M104.2,405
			c4.2,0.7,11.4,2.7,15.6,3.6c0.3,0.1,0.7-0.1,0.6-0.4s1.5-13.2,1.8-16.2c-1-1.4-12.9-3.5-16.3-3.7
			C105.7,392.4,104.8,401.2,104.2,405z"/>
		<path d="M120.8,179.8c-11.3-4.3,28.8-20.1,26.8-5.7c-1.2,2.2-4.1,2-6.5,2C134.9,175.4,126.7,178.1,120.8,179.8z M140.1,169.2
			c-4.3-0.7-23.1,6.5-19.6,9.2c6.7-2.5,15.7-4.4,22.7-3.8S144.7,168.5,140.1,169.2z"/>
		<path d="M218.7,185.4c-3-1.1-5.2-6.1-8.1-5.9l0.2-1.2c2.5,0.5,4.8,2.2,6.9,5.2c0.3,0.4,0.7,0.8,1.3,0.6c3.5-2.7-1.3-7.5-4.7-8.2
			l0.4-1.1C220.6,176.2,224.2,183.5,218.7,185.4z"/>
		<path d="M157.8,456.2c1-0.2,1.8-1,2.1-2l-0.9-0.4C159.2,454.9,155.6,457,157.8,456.2z"/>
		<path d="M155.2,456.4c2.2,0.3-2.2-2.1-2.4-2.8S154,456.6,155.2,456.4z"/>
		<path d="M163.4,264.3c-7.9,0.1-14.8-9.9-21-14.5l0.7-1c7.8,6.8,20.4,22.2,29.2,9.5c1.7-2,4.5-5.6,8.1-5.2
			C173.4,256.7,172.3,264.1,163.4,264.3z"/>
		<path d="M175.2,255.2c-6.2-1.9-10.5-4.9-18.3-1.8c-4.4,1.6-12.3,0.5-14.8-5.5c10.3,9.6,20.2-0.6,29.6,4.8c1.8,1.7,4.6,1.8,6.6,0.3
			l0.7,1C177.9,254.8,176.6,255.2,175.2,255.2z"/>
		<path d="M156.5,261.6l-0.7-0.9c2.8-1.9,8.2-1.7,9.1,0.1s1,2.3-1,0.7S159,260,156.5,261.6z"/>
		<path d="M169.6,261.8c-1.3-1.8-4.5-1.9-6-1l-0.6-1c2.1-1.3,5.9-0.9,7.6,1.3L169.6,261.8z"/>
		<path d="M167.2,255.5c-1,0-1.9-0.3-2.8-0.8c-2.5,1.4-5.7,0.6-7.2-1.9l1.1-0.5c1,2,4.5,2.7,6.1,0.9c1.4,1,3.7,2.2,5.8-0.7l1,0.6
			C170.4,254.5,168.9,255.4,167.2,255.5z"/>
		<path d="M166.4,411.6c-3.2,0,0.1-17.4-1.9-28.7s-5-29.1-6.7-35.7c-7.2-24.2-3.5-42.3-4.3-63.5l1-0.7c1.7,2.7,0.5,6.9,0.3,9.7
			c-0.5,8.8-1,22.2,0.4,34.1c0.6,7.3,0.7,7.9,3.8,20.1s9.2,51.3,7.7,62.1c3.1-0.1,14.5-10.8,15.3-14.7c1.4-8.3-5.9-36.7-8.4-45.1
			c-4.5-16.7-10.5-36.5-10.5-48.4s-2.9-16.6-5.7-20.4l0.9-0.7c3,3.9,5.7,8.5,6,21s6,31.7,10.5,48.2c2.4,8.5,9.9,37.3,8.9,45.6
			C182,400.1,171.8,409.9,166.4,411.6z"/>
		<path d="M50.7,383c-4.2,0-13.2-4.7-18-9.8c-8.6-9.6,6.9-21.9,11.2-32.1c4.8-8.6,20-36.4,24.2-45.1s14.4-16.9,25.8-16.2
			c2.7,0.1,7,0.9,9.8,2.7c5.3,3.4-7.7-2.2-9.1-1.4c-11.9-0.8-21.8,7.8-25.5,15.4S49.7,333.1,45,341.7s-19.2,21.7-11.4,30.7
			c7.5,6.5,17.6,14.3,23.9,5c10.3-8.5,45.1-47.3,50.7-66.6c0.9-2.5,1.4-5.1,1.7-7.8c0-0.5,0.1-4.4,0.6-0.3
			C112.2,322.4,63.8,378.6,50.7,383z"/>
		<path d="M109.1,311.8l-0.8-0.9c2.1-1.8,4-3.9,5.5-6.3C118.5,299.5,111.3,310.8,109.1,311.8z"/>
		<path d="M111.2,322.7c-1.3,6.8,0.1-10.6-0.1-9.9C112.5,314.9,112,318.8,111.2,322.7z"/>
		<path d="M57.6,371.5c5.2-2,13.5-7.5,16-10.1l0.8,0.9c-2.6,2.8-11.3,7.4-16.6,9.4C56.7,372.2,56.6,371.9,57.6,371.5z"/>
		<path d="M94.8,317.2c0.1,0,5.6-1.8,8.3-6.2s2.9-3.7,1.1,0.6S94.8,317.2,94.8,317.2z"/>
		<path d="M116.3,287.9c-5.5-4.4-12.3-5.2-16.5-6.2l0.2-0.5c4.2,0.9,11.1,1.7,16.7,6.3L116.3,287.9z"/>
		<path d="M164.2,333.6c-1-6.6-1.5-13.2-1.4-19.9c0-0.4,0.2-3.4,0.4-1.4S166.4,343.9,164.2,333.6z"/>
		<path d="M81.4,283.2c-1.1-6.3-1.3-14.4,0.1-16.4s16.5-5,21.1-6l0.3,1.2c-20.5,5.3-23.4,0.5-19.6,20.5L81.4,283.2z"/>
		<path d="M115.6,287.1c-3.1-6.5-16.7-12.8-24-16.1c-4.9-2.3-9.4-4.3,0.1-0.9s21.7,9.6,25,16.5L115.6,287.1z"/>
		<path d="M94.7,278.1c-3-0.6-5.9-1.8-8.5-3.5c-1.5-1.2-0.5-1.1,1-0.3c2.5,1.4,5.2,2.5,8,3.3C98.9,278.8,98.2,278.8,94.7,278.1z"/>
		<path d="M93.2,266.3c2.8-1,8.6-3.1,12.7-3.1v1.1C103.8,263.7,90.1,267.8,93.2,266.3z"/>
		<path d="M138.5,296.8c-7.5,1.3-22.4-13-24.8-17.3s-2.5-8.8-4.7-12.9l1.1-0.5c3.3,11.2,14.6,32,32,28.9c14.5-6.3,9.9-9.8,12-15.1
			c2.4,0.1,0.7,1.5,0.4,4.3C155.7,285.7,149.2,296.6,138.5,296.8z"/>
		<path d="M114.2,279.4c-1.9-4-5.2-9.3-8.7-10.9c-0.5-0.2-0.4-0.6,0.3-0.3c4.2,2,7.9,7.3,9.5,10.7L114.2,279.4z"/>
		<path d="M164.3,305l-0.8-1.5c12.4-9.9,62.1-49.3,66.9-63.8c-6.1,1.9-19.5-13.3-16.5-19.8c-3.1,1.2-6.1,5.3-9.4,7.4l0.4-2.2
			c3.9-2.6,7.1-7.8,11.6-6.3c-2.5,1.9-3.3,4,2.6,12.9s11.1,6.8,11.6,6.7C241.7,243,168.4,301.5,164.3,305z"/>
		<path d="M164.2,303.6l-0.6-1.6c6-3.5,11.6-10.8,13.9-14.9c0.7-1.4,1.2-1.7,0.6-0.4C175.9,290.8,170.7,299.8,164.2,303.6z"/>
		<path d="M229.4,243.8c-7-1-11.4-4.1-15.3-10.9s-4.8-11.3-1.4-13.5v0.6c-2.7,2.1-1.1,6.9,1.8,12.6s8.5,9.5,15.3,10.4L229.4,243.8z"
			/>
		<path d="M200.7,268.7c5.7-4.7,13.1-13.9,16.2-20.1c0.1-0.3,1.2-2.5,0.3-0.1c-2.2,6.8-9.9,16.8-16.5,20.7
			C197.4,271.5,200.3,269.1,200.7,268.7z"/>
		<path d="M169.5,285.4c-1,0-2.1-0.2-3-0.7c-3.7-1.8,4.4,0.6,7-1.7c1.6-0.7,2.3-1.2,1.2-0.2S172.5,285.4,169.5,285.4z"/>
		<path d="M177.4,290.3c1.3-2.3,7.1-10.1,6.3-7.7S176.1,292.6,177.4,290.3z"/>
		<path d="M215.4,219.7l-0.6-1c2.4-1.4,5.3-4.9,7.1-7.1l0.9,0.7C220.9,214.7,218,218.3,215.4,219.7z"/>
		<path d="M231,239.5l-1.5-1c0.3-0.3,7.5-5.9,12-7.5c10.8,4.8,20.2-16.7,22.8-24.3c6.5-4.1,14.3-8.8,18-14.2
			c2.8-3.9,2.9-9.2-2.2-8.7l-0.2-1.2c6.2-0.6,6.9,5.9,3.4,10.6s-11.5,10.8-18,14.8c-3,9.1-11.5,28.8-23.8,24.5
			C237.2,234.2,231,239.4,231,239.5z"/>
		<path d="M228.4,222.4c-9.1-3-8.1-22.2-5.3-25.8c-0.8-1.1-1.2-2.4-1.3-3.7l1.2-0.9c0.5,2.7,1,3.9,1.4,4.3
			C221.2,203.8,221.7,215.2,228.4,222.4z"/>
		<path d="M236.7,224.5c-7.5,1.4,4.6-1.5,6-9.6c0.9-3.1,1.4-2.8,1.2,0.3S240.6,223.6,236.7,224.5z"/>
		<path d="M262.6,199.5c-2.6-3.7-9-11.5-13.1-13.8s-2.9-2.3,0.3-0.9s11.9,10.1,13.9,14.4S265.1,203.3,262.6,199.5z"/>
		<path d="M237.1,193c-1.4,7.1-1.2-0.2-1.2-0.2c0.4-7.1-3.3-19.8-5.1-22.5l0.8-1.5c1.6,2.3,4.6,12.4,5.4,19.7
			c2.7-9.4,9.1-22.5,13.8-29.1c9.2-12.2,23.1-1.1,12.1,11.9c-2.1,2.6-11.3,13.7-9.7,10.3c3.2-4.2,15.5-17.6,11.4-23.8
			c-2.5-3.6-7.8-3.9-12.9,2.3S238.5,185.8,237.1,193z"/>
		<path d="M261,188.9c3.3-7.9,21.8-18.7,14.2-26.6c-2.5-2.3-6.3-2.4-8.9-0.2l-0.8-0.9c6.6-5.5,16.3,2.3,11.8,9.2
			s-10.8,11.7-15.7,18.8C261.3,189.6,260.7,189.4,261,188.9z"/>
		<path d="M265.1,196.6c4.3-3.7,17.7-14,16.5-19.7c0-3.7-1.8-6.3-5.4-5.1l-0.4-1.1c10.9-1.9,8,12.7-0.3,18.2
			C273.4,191.1,263.5,199,265.1,196.6z"/>
		<path d="M52.8,415.7c-9.7,1.3-16.4-23.5-11.5-14c0.7,6.8,13.3,19.7,18.2,6.8c0.8-3.7-4-4.2-6.7-6.8c-5.5-4-5.7-4.2-5.8-6.8
			s-0.1-7.6,1.7-12.7l1.1,0.4c-1.7,4.9-1.6,11-1.6,12.2s0.1,2.1,5.3,6c3.2,2.9,8.2,3.1,7.5,7.9S56.7,415.8,52.8,415.7z"/>
		<path d="M52.1,408.9c-1.7-2.9-1.4-8.3,3.8-6.1l-0.2,0.5c-3.3-1.6-4.9,1.6-3.4,4.6c2-1.7,5.5-2.6,8-1.2l-0.3,0.5
			C57.5,405.8,53.9,406.9,52.1,408.9z"/>
		<path d="M25.7,428.7c-5.4,0.5-9-5.2-8.6-6.8c2.5-7.1,14.3-15.4,16.7-23.1c0.2-0.4,0.7-0.1,0.5,0.4c-2.5,5.2-5.6,10-9.4,14.3
			c-2.1,2.6-6.7,6-6.6,8.4s1.5,4.5,6.3,5c9.5,1.8,15.8-18,16.1-23.4l1.2,0.2C41.6,409.6,35.7,429.1,25.7,428.7z"/>
		<path d="M16,428.3c-6.1-0.3-10.8-7-4.7-12c4.6-5.1,13.9-17.4,17.3-23.6c1.8-1.2-4.3,9-6.2,11.4c-3.2,6.3-15.2,14.8-11.9,19.6
			c2.2,2.9,6,4.4,9.5,1.8l1,1.2C19.6,427.8,17.8,428.3,16,428.3z"/>
		<path d="M8.9,422.2c-9,0-9.2-8.7-2.3-13.4c2.9-2.6,11.9-11.2,15-17.5c0.3-0.6,0.6-0.1,0.3,0.5c-3.3,6.5-11.6,15.3-14.5,17.9
			c-5.9,4.5-6.3,10.5,1.8,11v1.2L8.9,422.2z"/>
		<path d="M3.2,413.4c-7.9-4.2,0.4-11,4-15.5s5.1-8.9,7.4-13.2s16.1-11.1,17.3-13.4l0.8,0.8c-1,2.3-15.5,9.1-17,13.2
			s-4.3,8.8-7.5,13.3S-3.2,408.8,3.9,412L3.2,413.4z"/>
		<path d="M23.3,422.4c-1.7-0.4-4.5-1.3-5.5-0.8l-0.3-0.6c1.1-0.5,3.9,0.1,5.5,0.8c3.7-0.8,1.4-8-2.5-4.2l-0.4-0.4
			C24.7,412.8,27.6,420.9,23.3,422.4z"/>
		<path d="M14.5,421.5c-1.2-0.5-3.9-2.1-4.9-1.1L9,420.2c0.8-1.6,4.3,0,5.4,0.6c3.4-1.5,1.6-8.3-2.8-3.6l-0.4-0.4
			C15.8,411.5,19.2,419.1,14.5,421.5z"/>
		<path d="M7.2,416.3c-1.1-0.2-3.1-2.8-4.3-1.5l-0.5-0.2c0.8-1.6,3.3-0.2,4.3,0.8c2.6,1.5,3.4-7.7-1.5-4.2l-0.4-0.4
			C9.4,407,11.1,415.2,7.2,416.3z"/>
		<path d="M4.9,408.7c-1-0.5-2.6-2.3-3.9-1.5l-0.4-0.5c1.4-0.8,3.2,0.3,4.3,1.4c1.7-0.9,1.3-6.4-2-3.9l-0.5-0.4
			C6.2,400.5,8,407.4,4.9,408.7z"/>
		<path d="M95,392.9c4.2-6.1,7.1-22.3,14-23.8C102.8,372.3,99.9,390.5,95,392.9z"/>
		<path d="M124.1,383.9c0-0.1-6.1-9.1-10.2-12.8s0-0.7,0-0.7C117,370.9,129.3,390.8,124.1,383.9z"/>
		<path d="M175,392.1c-0.2-5.2-2.1-16.4-4.7-21.4c-0.2-0.5-1.9-3.2,0.2-0.6c3.9,4.5,5.9,16.5,5,22S175,392.9,175,392.1z"/>
		<path d="M72.5,357.3c5.5-5.7,14.2-22.1,18.7-27.9c-3.2,6.9-12.7,23.2-18.7,28.5C71.9,358.4,71.9,357.9,72.5,357.3z"/>
		<path d="M88,309.3l-3.1-2.7c6.8-6.5-5.6-16-8.9-4.5l-3.4-1.7C76.1,283.2,100.1,296.7,88,309.3z M85.3,306.5l2.7,2.4
			c11.3-12.1-11.5-25-15.1-8.6l2.9,1.4C79.1,290.6,92.1,299.5,85.3,306.5z"/>
		<path d="M79.4,324.2c-0.4-0.2-14-8.1-15.7-8.9l1.7-3.3l6.6,2.6l3.2-4.6c-2-1.4-4.1-2.6-6.3-3.6l1.6-3.6c2.8,1.2,5.5,2.5,8.1,4
			c5,2.8,8,4.8,8.3,4.9l-2.1,3.9c-0.2-0.1-3.7-2.1-5.8-3.5c-1.1,1.4-2.1,2.9-3,4.5l6.2,4L79.4,324.2z M64.1,315.2
			c1.9,1,14,7.9,15.2,8.7l2.5-3.3c-2.2-1.3-6-3.8-6.1-3.9s0.8-1.8,3.3-5c1.7,1.2,5,3.1,5.7,3.5l1.8-3.4c-0.2-0.5-15.1-8.7-15.9-8.7
			l-1.3,3.1c2.2,1.1,4.3,2.4,6.3,3.8c-0.2,0.1-0.9,1.2-3.5,4.9l-6.5-2.6L64.1,315.2z"/>
		<path d="M75.7,330.8c-1.8-1.7-14.5-8.7-14.9-9s1.7-3.5,2.2-4.2c4.9,2.4,11.2,6.3,15,8.6C79.2,327.2,76.4,329,75.7,330.8z
			 M61.2,321.7c1.3,0.7,12.5,7,14.4,8.6c0.8-1.6,2.8-2.8,2.3-3.8c-3.8-2.3-10-6.2-14.8-8.5C62.6,318.7,61.5,321.1,61.2,321.7
			L61.2,321.7z"/>
		<path d="M66.1,341.9c-2.7,0.1-6.1-2-5-5.1c-2.3,1.3-7.4-1.4-7.6-1.8s1.3-2.9,1.9-3.8c2.6,1.7,6.3,2.9,8-0.6
			c-3.1-3.1-7.1-2.4-2.9-7.3c2.7,1.1,13.2,8,14.2,8.9C73.5,334.9,70.2,342.1,66.1,341.9z M61.6,336.2c-2,3.8,3,6.3,6.1,5.1
			s5.9-7.1,6.7-9c-1.3-1-11.1-7.5-13.8-8.6c-0.8,0.9-1.4,2-1.9,3.1c1.2,1,3.7,2.6,5.1,3.7c-1.7,3.8-5.5,2.9-8.3,1.1
			c-0.5,0.8-1.4,2.8-1.7,3.3S59.5,337.9,61.6,336.2L61.6,336.2z"/>
		<path d="M66.3,338c-3.4,0.3-1.4-7.4,0.7-6.7s3.4,1.5,3.3,2.6S68.4,338,66.3,338z M66.6,331.5c-1.5,0.4-3.2,6.3-0.3,6.2l0,0
			c2.1,0,3.7-3.1,3.8-4.2S67.6,331.8,66.6,331.5z"/>
		<path d="M57.2,356.2c-11.7,0.8-14.3-17.6-2.4-17.7S69,355.4,57.2,356.2z M54.8,338.8c-10.8-0.1-9.6,16.7,1.3,17
			S67.4,338.4,54.8,338.8L54.8,338.8z"/>
		<path d="M56.8,352.4c-7,0.5-8.5-10.4-1.5-10.5S63.7,352.1,56.8,352.4z M55.3,342.2c-6.2,0-5.5,9.7,0.8,9.9S62.5,341.8,55.3,342.2
			L55.3,342.2z"/>
		<path d="M160.5,259.7c1.1,0.3,2.3,0.5,3.5,0.6l1.1-0.6h1.9c0.4,0.1,3,1.7,3.4,1.5s4.6-4,4.9-6l-4.6-2.4c-0.3,0.7-2,1.6-2.6,2
			c-1.3,0.1-2.6-0.1-3.7-0.7c-2.2,1.2-5,0.6-6.6-1.3c-3.1,0.4-7.4,0.5-10.4-0.5c1.4,3.7,5.8,6.5,8.7,8.8
			C157.4,260.3,158.9,259.8,160.5,259.7z"/>
		<path d="M134.9,215.6c1,7.2,11.2,5,10.4-1.8S133.3,208.8,134.9,215.6z"/>
		<path d="M180.6,222.7c1,6.5,10.1,4.6,9.4-1.6S179.2,216.6,180.6,222.7z"/>
		
			<radialGradient id="SVGID_31_" cx="-875.3042" cy="-42.4659" r="0.99" gradientTransform="matrix(-2.73 0.47 -0.47 -2.73 -2223.27 513.2)" gradientUnits="userSpaceOnUse">
			<stop  offset="0.75" style="stop-color:#FFFFFF"/>
			<stop  offset="1" style="stop-color:#FFFFFF;stop-opacity:0"/>
		</radialGradient>
		<path class="st45" d="M186.9,219.7c3.6,0.1,3.6-5.6,0-5.5S183.3,219.8,186.9,219.7z"/>
		
			<radialGradient id="SVGID_32_" cx="-859.5361" cy="-36.8349" r="0.99" gradientTransform="matrix(-2.73 0.47 -0.47 -2.73 -2223.27 513.2)" gradientUnits="userSpaceOnUse">
			<stop  offset="0.75" style="stop-color:#FFFFFF"/>
			<stop  offset="1" style="stop-color:#FFFFFF;stop-opacity:0"/>
		</radialGradient>
		<path class="st46" d="M141.2,211.7c3.6,0.1,3.6-5.6,0-5.5S137.6,211.8,141.2,211.7z"/>
		<path class="st47" d="M113.4,395.7l0.6-3.6c1.3-0.1,0.9,1.9-0.2,1.3"/>
		<path class="st47" d="M116.9,401.9c-2.6,4.1-9.7,1.6-8.8-3.3s5-5.2,7.7-3"/>
		<path class="st48" d="M116.5,397.4l1.7-0.7"/>
		<path class="st48" d="M117.3,397.1c1.4,0.5-0.3,1-0.5,1.1"/>
		<path class="st48" d="M116.9,398.8l1.4-0.2"/>
		<path class="st48" d="M118.5,398.6h0.3"/>
		<path class="st48" d="M116.9,399.4h1.4"/>
		<path class="st48" d="M117.9,399.5c0.2,0.1,0.2,0.6,0.2,0.6"/>
		<path class="st48" d="M116.8,400.8c0.2-0.8,1.5-0.2,1,0.4S116.5,401.2,116.8,400.8z"/>
		<path class="st48" d="M116.9,396.4c0-1.7-2.2,0.3-0.3,0.4"/>
	</g>
</g>
</svg>
