<?xml version="1.0" encoding="utf-8"?>
<!-- Generator: Adobe Illustrator 24.1.1, SVG Export Plug-In . SVG Version: 6.00 Build 0)  -->
<svg version="1.1" id="b5fec1ed-092a-4f07-950d-dc12061ce47c"
	 xmlns="http://www.w3.org/2000/svg" xmlns:xlink="http://www.w3.org/1999/xlink" x="0px" y="0px" viewBox="0 0 285 550"
	 style="enable-background:new 0 0 285 550;" xml:space="preserve">
<style type="text/css">
	.st0{clip-path:url(#SVGID_2_);}
	.st1{fill:url(#SVGID_3_);}
	.st2{fill:url(#SVGID_4_);}
	.st3{fill:url(#SVGID_5_);}
	.st4{fill:#352920;}
	.st5{fill:url(#SVGID_6_);}
	.st6{fill:url(#SVGID_7_);}
	.st7{fill:url(#SVGID_8_);}
	.st8{fill:url(#SVGID_9_);}
	.st9{fill:url(#SVGID_10_);}
	.st10{fill:#262626;}
	.st11{fill:#303030;}
	.st12{fill:#161616;}
	.st13{fill:#A8A8A8;}
	.st14{fill:url(#SVGID_11_);}
	.st15{fill:url(#SVGID_12_);}
	.st16{fill:url(#SVGID_13_);}
	.st17{fill:url(#SVGID_14_);}
	.st18{fill:url(#SVGID_15_);}
	.st19{fill:url(#SVGID_16_);}
	.st20{fill:url(#SVGID_17_);}
	.st21{fill:url(#SVGID_18_);}
	.st22{fill:url(#SVGID_19_);}
	.st23{fill:url(#SVGID_20_);}
	.st24{fill:#FFFFFF;}
	.st25{fill:url(#SVGID_21_);}
	.st26{fill:url(#SVGID_22_);}
	.st27{fill:url(#SVGID_23_);}
	.st28{fill:url(#SVGID_24_);}
	.st29{fill:url(#SVGID_25_);}
	.st30{fill:url(#SVGID_26_);}
	.st31{fill:url(#SVGID_27_);}
	.st32{fill:url(#SVGID_28_);}
	.st33{fill:url(#SVGID_29_);}
	.st34{fill:url(#SVGID_30_);}
	.st35{fill:url(#SVGID_31_);}
	.st36{fill:#F44040;}
	.st37{fill:url(#SVGID_32_);}
	.st38{fill:url(#SVGID_33_);}
	.st39{fill:url(#SVGID_34_);}
	.st40{fill:url(#SVGID_35_);}
	.st41{fill:#D88B64;}
	.st42{fill:#961A17;}
	.st43{fill:#7E6E5B;}
	.st44{fill:#77695C;}
	.st45{opacity:0.65;}
	.st46{opacity:0.65;fill:#D88B64;enable-background:new    ;}
	.st47{fill:#162136;}
	.st48{opacity:0.15;fill:#FFFFFF;enable-background:new    ;}
	.st49{fill:url(#SVGID_36_);}
	.st50{fill:url(#SVGID_37_);}
	.st51{fill:#DB9E33;}
	.st52{opacity:0.75;fill:#DB9E33;enable-background:new    ;}
	.st53{fill:url(#SVGID_38_);}
	.st54{fill:url(#SVGID_39_);}
	.st55{fill:none;stroke:#FFFFFF;stroke-width:2.3443;stroke-miterlimit:10;}
	.st56{fill:none;stroke:#FFFFFF;stroke-width:1.8754;stroke-miterlimit:10;}
</style>
<g>
	<defs>
		<rect id="SVGID_1_" width="284.9" height="550"/>
	</defs>
	<clipPath id="SVGID_2_">
		<use xlink:href="#SVGID_1_"  style="overflow:visible;"/>
	</clipPath>
	<g class="st0">
		
			<linearGradient id="SVGID_3_" gradientUnits="userSpaceOnUse" x1="51.9766" y1="119.1547" x2="169.294" y2="119.1547" gradientTransform="matrix(1 0 0 -1 0 544)">
			<stop  offset="0.25" style="stop-color:#A2927F"/>
			<stop  offset="0.54" style="stop-color:#9B8C79"/>
			<stop  offset="0.95" style="stop-color:#897A6A"/>
		</linearGradient>
		<path class="st1" d="M53.6,440.1c-3-0.9-1-10.7-0.6-11.2c1.6-9,5.4-22.9,6.3-32c20.7,18.9,32.8,22.3,60,26.7
			c3.6-2.4,2.2-9.3,2.5-13c0-2.8-0.1-5.5-0.5-8.3c1.4-0.2,5.5,0.4,7,0.6c8.4,0.1,21.9-2,28.8-6.6l0.3,12.2c0.3,1.4-1.5,7.1,1,7.3
			s5.7-3.9,7.5-5.8c0.5,5.2,2,15.5,2.7,20.6s1.6,7.1-1.4,10.5C153.6,457,121.5,453,106,452.8c-10.8,1.3-31-3.5-41-7.5
			C62,443.9,56,442.6,53.6,440.1z"/>
		
			<linearGradient id="SVGID_4_" gradientUnits="userSpaceOnUse" x1="73.5099" y1="78.3778" x2="127.0999" y2="75.0478" gradientTransform="matrix(1 0 0 -1 0 544)">
			<stop  offset="0.5" style="stop-color:#F2B58D"/>
			<stop  offset="0.63" style="stop-color:#EFB189"/>
			<stop  offset="0.77" style="stop-color:#E5A67C"/>
			<stop  offset="0.83" style="stop-color:#DE9E74"/>
		</linearGradient>
		<path class="st2" d="M82.9,475.1c-3.8-8.8-7-17.8-9.5-27.1c9.5,5.1,44.2,4.7,53.7,5.4c-0.6,2.4-2.4,11.5-2.9,14.1
			c-0.8,4.4,0.2,5.6-3.1,11.5C115.3,488,85.2,487.1,82.9,475.1z"/>
		
			<linearGradient id="SVGID_5_" gradientUnits="userSpaceOnUse" x1="124.25" y1="81.1003" x2="150.77" y2="79.4603" gradientTransform="matrix(1 0 0 -1 0 544)">
			<stop  offset="7.000000e-02" style="stop-color:#DE9E74"/>
			<stop  offset="0.37" style="stop-color:#F2B58D"/>
			<stop  offset="0.52" style="stop-color:#F0B28A"/>
			<stop  offset="0.73" style="stop-color:#DE9E74"/>
		</linearGradient>
		<path class="st3" d="M128.2,477.9l-3-0.5c-0.6-0.8-1.4-1.6-2.3-2.1c1.3-6.5,2.8-15.6,4.3-22c7,1,19.3-0.7,26-3.4
			c-1.3,4.1-3.7,9.5-4.9,13.6c-0.8,2.7-1.8,5.3-2.9,7.8C143.6,475.6,132.6,478.6,128.2,477.9L128.2,477.9z"/>
		<path class="st4" d="M87.2,495.2c-1.5-0.1-2.9-0.2-4.4-0.1l0.6,2.3C84,497,86.8,495.8,87.2,495.2z"/>
		<path class="st4" d="M115.6,503.1l1.5-0.7l0.7-1v-1.2c-2.6-4.9-9.9-5.6-14.9-6.1c0.9,1.2,2,2.3,3.2,3.2c1.1,1.3,2,2.8,2.7,4.4
			C110.5,503.1,113.5,503.2,115.6,503.1z"/>
		
			<radialGradient id="SVGID_6_" cx="-1045.5892" cy="556.526" r="1" gradientTransform="matrix(-29.23 0 0 22.73 -30486.3105 -12143.2793)" gradientUnits="userSpaceOnUse">
			<stop  offset="0" style="stop-color:#544438"/>
			<stop  offset="1" style="stop-color:#352920"/>
		</radialGradient>
		<path class="st5" d="M124.5,481.6c0.7,0.3,1.3,0.7,1.8,1.3c0.2,2.1-1,5.1-1.6,7.1l-1.2,6.6l0.4,7c0.4,2.6,1.7,5.7,1.7,8.3
			c-2.7,6.7-8.5,13.4-13.5,18.5c-2.2,2.3-5.1,3.8-8.2,4.5c-3.1,1.1-6.3,1.7-9.6,2c-9.1-0.2-20.3-2.4-26.2-10
			c-3.4-7.1-3.3-17.1,1.7-23.4c3.6-3.4,9.7-4.3,14.5-4.4c2.6,0.4,8.2,1.3,10.6,2.2c1.6,0.9,3.2,1.6,4.9,2.2l0.9-0.2
			c0.8,0.4,1.7,0.6,2.6,0.7l0.6-0.7v-1.6l2.2,1.8c0.7,3.4,0.7,7.5,1.3,11l0.7,0.7l-0.8,6.8l0.4,0.7h1.4l0.2-0.3l0.7-7.1
			c1.8-1.6,0.3-7.2,0.1-9.5l3.2,1.1c2.9,0,7.4-0.3,8.6-3.5s-3.9-7.2-7.1-8.9s-8.5-2.6-12.7-2.4c0.9-3.1,3.4-3.1,6-3.6
			c5.4-1,12.5-1.5,16.5-5.7L124.5,481.6L124.5,481.6z"/>
		<path class="st4" d="M88.4,485.2c-1.9-1.4-4.9-2.9-6.9-4.2l-1.2,0.3l-0.5,1.3c0.7,2.9,1.3,7.2,2.6,10c2.4-1.1,5-1.5,7.6-1.3
			C89.5,489.6,89.5,486.5,88.4,485.2z"/>
		
			<linearGradient id="SVGID_7_" gradientUnits="userSpaceOnUse" x1="103.6684" y1="52.8833" x2="88.2784" y2="56.7733" gradientTransform="matrix(1 0 0 -1 0 544)">
			<stop  offset="0" style="stop-color:#231C16"/>
			<stop  offset="0.37" style="stop-color:#352920"/>
			<stop  offset="0.77" style="stop-color:#33281F"/>
			<stop  offset="1" style="stop-color:#221B15"/>
		</linearGradient>
		<path class="st6" d="M90.2,484.9l-1.7,0.5l0.7,1.9c0,1.4,0.3,2.7,0.7,4h2.3c0.7-0.4,1.4-0.6,2.2-0.5l0.6,0.5h2.5L98,492l4.3-0.4
			c0.6-0.9,1.3-1.8,2.1-2.5c-1.2-1.6-4.8-2.1-6.6-3S92,485,90.2,484.9z"/>
		
			<radialGradient id="SVGID_8_" cx="-1060.5315" cy="556.732" r="1" gradientTransform="matrix(-20.41 0 0 16.53 -21473.1699 -8700.5801)" gradientUnits="userSpaceOnUse">
			<stop  offset="0" style="stop-color:#544438"/>
			<stop  offset="1" style="stop-color:#352920"/>
		</radialGradient>
		<path class="st7" d="M180.5,515.7c1.3-2.4,1.6-5.2,1.1-7.8l-1.1-4c-0.9-1.6-2.9-4.4-4.5-5.3c-4.8-3.5-12.2-4.9-18-4.1
			c-4.4,0-8.8,0.9-12.8,2.8c0.9,4,0.9,8.2,0,12.2l-1.8,0.5l-3.1,5.8c4.8,2.1,13.6,3.7,18.6,5.2C166.2,522.1,175.2,521.1,180.5,515.7
			z"/>
		
			<linearGradient id="SVGID_9_" gradientUnits="userSpaceOnUse" x1="134.88" y1="46.658" x2="123.07" y2="46.658" gradientTransform="matrix(1 0 0 -1 0 544)">
			<stop  offset="0" style="stop-color:#352920"/>
			<stop  offset="1" style="stop-color:#221B15"/>
		</linearGradient>
		<path class="st8" d="M135.9,514.9l2.8,0.5v-0.7c0.6-0.6,3-5,3.5-5.8s0.7-4.7,0.7-5.1v-4.1l-1.1-3.7l-2,2l-2.4,1.1h-2.6l-2.1-1.1
			c-2.3-3.7-0.1-7.3,1.5-10.7c1.5-1.6,4.3-3.7,6.5-4c0.3-9.2-7.7,1-15.7-4c-0.1,0.6-0.2,1.2-0.3,1.8c0.3,0.5,0.8,1,1.4,1.2
			c1,1.8,0,4.2-0.8,5.8l-0.8,4.1c-2.3,5.2,0.6,15,1.4,19.2c1.4,0.2,2.1,0.3,2.3,1.9c0.9,0.3,1.9,0.4,2.8,0.3
			C130.8,513.7,135.9,514.9,135.9,514.9z"/>
		
			<linearGradient id="SVGID_10_" gradientUnits="userSpaceOnUse" x1="144.3436" y1="65.4601" x2="140.5036" y2="63.8901" gradientTransform="matrix(1 0 0 -1 0 544)">
			<stop  offset="0" style="stop-color:#352920"/>
			<stop  offset="1" style="stop-color:#221B15"/>
		</linearGradient>
		<path class="st9" d="M146.6,481.1c0.1-1.7,0.8-4.6,0.2-6.3l-1.1-0.5c-0.7,0-2.5,1.4-3.1,1.9s-3.2,1.7-4.2,2.3v0.6h1
			c0.9,1,0.9,2.8,1.3,4l2.1-0.3c0.2-0.6,1.6-1.3,2.1-1.6l0.9,0.5L146.6,481.1z"/>
		<path class="st10" d="M184,526c1.2-0.4,1.3-9.3,1.2-9.2c0.1-1.6-0.1-4.2-1.2-5.6l-2.1-0.5c0.3,8.8-14.2,11.1-20.1,10.7
			c-4-0.8-7.9-1.8-11.7-3.1c-2.8-0.7-7.2-1.3-9.8-2.5c-0.3,0.6-2-0.2-2-0.5c-2.9-0.5-7.1-1.7-10-1.9c-0.3-0.6-0.6-1.2-1-1.7
			l-1.6-0.4c-0.3,1.8-2.7,5.5-3.8,7c-4.4,5.4-6.1,9.7-13.5,14.8c-12.6,6.9-36.9,4.2-42-10.4c-4.2,0.7-3.5,10-3.3,11.7
			c-0.2,15.8,38.4,16.3,46,13.1v-1.8l2.9,0.5l2.7-1.4c0.1-1,0.2-1.9,0.1-2.9l2.8,0.4c2.1-2,3.2-7.4,4.7-9.8c0.8,0.3,1.7,0.4,2.6,0.2
			l2.8-4.1l0.3-6.2h1.1l6.3,4.5c2,0.6,3.9,1.4,5.7,2.4c0.5-0.1,3.5-1.4,4-1.6l1.3,0.2c-0.1,0.9-0.1,1.9,0,2.8
			c-0.1,0.4,5.9,1.2,6.2,1.2l4.4-2.2h0.3l0.4,2.8C163.4,534.6,180,531.2,184,526z"/>
		<path class="st11" d="M184,511.3c-2,12.1-16.8,13.4-27.1,11.7s-18.4-6.1-28.8-7.4v-1.9c9.3,0.8,20.8,4.8,29.9,7l5.2,1.1l4.6-0.2
			c5.7-1.9,13.5-2.9,14.2-10.4C182.7,511.1,183.3,511.1,184,511.3z"/>
		<path class="st11" d="M125.7,511.4l1.3,0.3c-1.8,6.5-12.7,23.8-19.5,25.9c-13.2,4.3-40,2.7-42.5-13.8l1.4-0.9
			c3.8,13.7,27.5,16.7,39.8,11.5c4.9-2.5,9-6.3,11.9-10.9C120.2,520.5,125.6,515.3,125.7,511.4z"/>
		<path class="st10" d="M157.5,494.4l-3.4,0.2c2.3-3.2-0.9-10.5-4.5-11c-0.1,1.6,1.3,3.1,2.2,4.2c0,1,0.1,2.1,0.3,3.1v2.5l0.8,1.5
			c-2.6,0.5-5.2,1.2-7.6,2.3c0.4,1.5,1.5,10.4-0.6,12.5c-0.9,0-1.7-0.2-2.4-0.8c0.1-1.4,0.3-2.7,0.6-4c0.3-3,0-6.1-1.1-8.9
			c-0.8,2.8-9.5,4.9-10-0.4c-1-3.5,2.7-9.4,4.8-11l4.1-1.5v2.9c-1.8,1.2-4.3,3.1-5,5.2c-0.2,1-0.5,2.1-0.9,3.1
			c0,0.9,0.2,1.8,0.6,2.6c1.3-0.5,2.5-1.1,3.6-1.9c0.3-0.5,2-2.5,1.8-3.2c-0.2-1.7-0.4-3.3-0.4-5l-0.7-0.6v-3.1l3.4-0.6l1.1-1.1h2
			l0.5-0.5c0.4,0.1,2.2,0.1,2.6,0.5h1.8l2.4,1.1C156.8,485.8,159.5,489.6,157.5,494.4z"/>
		<path class="st10" d="M101.2,494v-2c7.5,0,17.6,1.8,20.5,9.8l-0.4,3.2l-2.6,1.5c-2.5,0.6-6,0.7-8.4-0.5c-0.2,2.3,0.8,6.9-0.1,9
			l-2.3,0.4l-0.8-0.9c0.1-3.8-0.2-7.5-0.8-11.2l-2.3-1.7v1.6l-0.9,0.7c-1.4,0-5-1.5-6.3-2c-4.2-1.4-11-3-15.4-3
			c1.2-1.6,4.6-2.4,6-3.9c-3.1-0.5-6.2-0.1-9.1,1c-0.1,1.1,0.5,2.2,1.5,2.8l-3.7,1.2l-1.2-1.7c0.4-2.2,2.5-3.9,4.4-4.8
			c1.8-1,3.6-1.9,5.6-2.5c2.3-0.4,4.6-0.4,6.9,0c0.9-0.4,1.8-0.6,2.8-0.6l0.5,0.4c0.8-0.2,1.6-0.2,2.4,0.1l0.9,0.8
			c1.5,0.1,2.9,0.1,4.4-0.2l-0.2,2.4h-3.1l3.8,0.7c2.1,1.8,4.6,4.3,5.4,7l2.2,0.5c0,0,2.3,1.4,4,0.9c7.3-1.3-0.5-7.3-3.3-7.7
			C107.1,494.5,104.7,494.6,101.2,494z"/>
		<path class="st4" d="M140.5,485.9c-0.2,1.9-0.1,3.9,0.5,5.7c-0.1,1.6-3.7,5.6-6,5.2l-0.7-0.6c-0.1-1.7,1-4.9,1.7-6.4
			S139.2,486.7,140.5,485.9z"/>
		<path class="st12" d="M153.2,528.6c-0.3,1.1-0.4,2.3-0.3,3.4c3.8-1.9,3.9-2.1,3.9-2.1L153.2,528.6z"/>
		<path class="st12" d="M145.1,527.8c-0.1,0.3-3.7,1.5-3.7,1.5C139.5,524.4,142.4,527.3,145.1,527.8z"/>
		<path class="st12" d="M124.5,533v-3.8c-0.9,1-1.7,2.3-2.1,3.6C122.6,533.1,124.1,533,124.5,533z"/>
		<path class="st12" d="M117.6,542.5l-0.3-3.7l-2.5,1.8l0.4,1.8L117.6,542.5z"/>
		<path class="st12" d="M112.3,546.7v-3.5l-3.2,1.2v1.5L112.3,546.7z"/>
		<path class="st13" d="M109.3,522.4l0.7-6.7l-1.7-0.2c0,0.6-1.2,6.5-0.8,6.9l0.6,0.6L109.3,522.4z"/>
		<path class="st13" d="M140.1,515.8l3.4-6l-1.5-1l-3.4,6.1C138.9,515.5,139.5,515.8,140.1,515.8z"/>
		
			<linearGradient id="SVGID_11_" gradientUnits="userSpaceOnUse" x1="80.89" y1="61.8075" x2="125.02" y2="61.8075" gradientTransform="matrix(1 0 0 -1 0 544)">
			<stop  offset="0" style="stop-color:#293B60"/>
			<stop  offset="0.34" style="stop-color:#27395C"/>
			<stop  offset="0.64" style="stop-color:#233351"/>
			<stop  offset="0.94" style="stop-color:#1B283F"/>
			<stop  offset="1" style="stop-color:#19253A"/>
		</linearGradient>
		<path class="st14" d="M81.1,481.1c-0.2-1.1-0.2-2.1,0-3.2c0.1-0.7,0.1-3.4,1.8-2.7c1.9,8.3,15.8,10.1,21.4,9.8s17-1.2,18.5-9.6
			c2.3,0.9,2.7,3.3,1.4,4.4l0.4,0.7c-0.1,0.8-0.1,1.6-0.1,2.4c-3.8,4.7-15.1,5-19.9,6.4c-1.2-1.4-4.5-2.1-6.2-2.7s-6.8-2.2-9.5-1.2
			C86.5,484.1,83.3,482.5,81.1,481.1z"/>
		
			<linearGradient id="SVGID_12_" gradientUnits="userSpaceOnUse" x1="125.04" y1="67.95" x2="146.69" y2="67.95" gradientTransform="matrix(1 0 0 -1 0 544)">
			<stop  offset="0" style="stop-color:#1A273D"/>
			<stop  offset="0.35" style="stop-color:#293B60"/>
			<stop  offset="0.56" style="stop-color:#27395C"/>
			<stop  offset="0.77" style="stop-color:#223250"/>
			<stop  offset="0.98" style="stop-color:#1A273D"/>
			<stop  offset="1" style="stop-color:#19253A"/>
		</linearGradient>
		<path class="st15" d="M126.6,480.1l-1.4-0.6c-0.3-0.7,0.2-1.6-0.1-2.3c5.7,2.9,17.1-0.9,20.4-6l1.2,0.8c0.3,0.6-0.2,1.8-0.4,2.4
			c-1.4,0.1-2.7,0.8-3.5,1.9c-1.1,0.6-2.8,1.4-3.9,2.1l-0.2,0.6c-1.7,0.9-3.5,1.6-5.4,1.9C131.4,480.6,128.3,480.7,126.6,480.1z"/>
		
			<linearGradient id="SVGID_13_" gradientUnits="userSpaceOnUse" x1="113.5708" y1="171.8032" x2="156.8708" y2="176.6532" gradientTransform="matrix(1 0 0 -1 0 544)">
			<stop  offset="0" style="stop-color:#A91F18"/>
			<stop  offset="0.1" style="stop-color:#C31E12"/>
			<stop  offset="0.21" style="stop-color:#D81C0D"/>
			<stop  offset="0.28" style="stop-color:#E01C0B"/>
			<stop  offset="0.72" style="stop-color:#E01C0B"/>
			<stop  offset="0.87" style="stop-color:#BF1E13"/>
			<stop  offset="1" style="stop-color:#A91F18"/>
		</linearGradient>
		<path class="st16" d="M121.2,398.7c5.5,1.4,12,0.4,16.9,0.1c6.5-0.6,12.8-2.3,18.8-4.9c-0.8-14-3-27.9-6.5-41.5
			c-7.7-2.4-16.8-7.3-24-11c-3.5,2.6-8.9,6.2-13.1,7.6C115.8,365.2,119,382.4,121.2,398.7z"/>
		
			<linearGradient id="SVGID_14_" gradientUnits="userSpaceOnUse" x1="107.2505" y1="243.136" x2="150.3205" y2="247.9559" gradientTransform="matrix(1 0 0 -1 0 544)">
			<stop  offset="0" style="stop-color:#A91F18"/>
			<stop  offset="0.1" style="stop-color:#C31E12"/>
			<stop  offset="0.21" style="stop-color:#D81C0D"/>
			<stop  offset="0.28" style="stop-color:#E01C0B"/>
			<stop  offset="0.72" style="stop-color:#E01C0B"/>
			<stop  offset="0.87" style="stop-color:#BF1E13"/>
			<stop  offset="1" style="stop-color:#A91F18"/>
		</linearGradient>
		<path class="st17" d="M108.5,291.1c1,4.4,2.5,10.7,3.3,15.1c0.7,1.1,1.2,2.3,1.6,3.6c5.9-3.9,16.4-4.9,23.2-6.5
			c3-0.5,8.2-1.7,11-0.1c0.4-2.6,0.4-5.2,0-7.8h-0.7c-0.9,2.3-1.4,5.1-3.4,6.8c-4.7,0.5-14.5,2.2-18.9,3.8c-7.5-3-12-8-16.1-14.8
			L108.5,291.1z"/>
		
			<linearGradient id="SVGID_15_" gradientUnits="userSpaceOnUse" x1="49.1102" y1="360.5104" x2="216.2002" y2="301.6205" gradientTransform="matrix(1 0 0 -1 0 544)">
			<stop  offset="0.35" style="stop-color:#F2B58D"/>
			<stop  offset="0.57" style="stop-color:#EFB189"/>
			<stop  offset="0.8" style="stop-color:#E5A67C"/>
			<stop  offset="0.91" style="stop-color:#DE9E74"/>
		</linearGradient>
		<path class="st18" d="M108.1,283.4c5,9.4,13.8,23.5,26.9,19.7c6.9-2.5,8.3-3.1,10.6-8.1c29.4,3.1,54-6.3,45.9-40.6
			c22-25.7,47.6-56.6,51-91.5c-2.8,4.4-5.4,11.8-8.1,16.4s-15.9,20-21.2,22.3c1.8,1,3.4,2.4,4.7,4c0.1,1.8,1.6,3.8-0.9,5.6
			s-1.8,0.6-3-1.4c-1.2-1.9-2.7-3.7-4.3-5.2c-7.8,4.4-22.4,9.6-31.2,9.4l0.4-0.8c12-5.2,29-11.3,33.2-25.2c-0.4-0.2-5.2,6.4-5.5,6.7
			l-7.9,6.8c-8.7,5.6-26.3,11.7-37.3,10.4c14.9-20,20.9-56.3,5.2-77c2.5,7.5-1.7,18.8-4.3,25.2c-1.4,3.6-4,9.4-3.9,13.3
			c-2.6-5.2-2.5-13.5-2.8-19.2l-0.5,0.3c-1.9,7.5-2.9,15.2-3.2,23c-10.1-12.9-12.2-37.6-7.8-52.9l-0.9,0.3
			c-7,6.5-10.3,24.3-8.9,33.2c-2.2-2.7-6.8-8.2-9.1-10.8c-1.5-0.9-12.7-20.7-12.6-22.6c0.2,38.6-5.1,47.7-23.6,80.5
			c-3.1,7-9.3,16-7.5,24.1c-7.5-7.3-7.7-30-6.9-39l-0.6,0.2c-1.7,3.3-1.7,9-1.6,12.6c0,5.9,0.5,11.9,1.7,17.7
			c-4.2-5.8-6.6-16.3-8.2-23.2c-0.1-1.1-1-9.2-1.4-10.2c-31.2-6.2-33.7,52,2.8,51.9c1.9,10.3,15.3,23.8,22.5,30.6
			c3.2,3.1,6.6,6,10.3,8.6C102.9,280,105.5,281.6,108.1,283.4z"/>
		
			<linearGradient id="SVGID_16_" gradientUnits="userSpaceOnUse" x1="159.1805" y1="238.3697" x2="153.3805" y2="228.9297" gradientTransform="matrix(1 0 0 -1 0 544)">
			<stop  offset="0.22" style="stop-color:#F2B58D"/>
			<stop  offset="0.79" style="stop-color:#DE9E74"/>
		</linearGradient>
		<path class="st19" d="M149.5,304.5c4.2,1,5.9,13.8,5.4,16c2.4-1.2,5.4-2.5,7.9-3.5c0.9-4.9-7.1-15.2-13.1-13.2L149.5,304.5z"/>
		
			<linearGradient id="SVGID_17_" gradientUnits="userSpaceOnUse" x1="100.4964" y1="234.373" x2="110.9164" y2="226.933" gradientTransform="matrix(1 0 0 -1 0 544)">
			<stop  offset="0.29" style="stop-color:#F2B58D"/>
			<stop  offset="0.74" style="stop-color:#DE9E74"/>
		</linearGradient>
		<path class="st20" d="M98.5,315.7c0,0,0.8-4.5,2.7-6.9c2.5-4.9,12-5.2,12.2,0.4c-0.7,2.9-1.8,5.7-3.1,8.3
			c-0.5,1.6-1.3,3.1-2.3,4.4c-3,1.8-6.9,0.8-8.6-2.1C98.6,318.5,98.3,317.1,98.5,315.7L98.5,315.7z"/>
		
			<linearGradient id="SVGID_18_" gradientUnits="userSpaceOnUse" x1="92.9904" y1="238.2605" x2="101.9504" y2="231.8605" gradientTransform="matrix(1 0 0 -1 0 544)">
			<stop  offset="0.29" style="stop-color:#F2B58D"/>
			<stop  offset="0.74" style="stop-color:#DE9E74"/>
		</linearGradient>
		<path class="st21" d="M105.3,303.3c-3.2-3.9-12,0.5-13.5,4.3c-2.6,6.4-0.7,11.4,6.7,10l0.3-3.8l1.8-4c1.2-2.2,3.6-4.5,6.2-4.6
			v-0.7L105.3,303.3z"/>
		
			<linearGradient id="SVGID_19_" gradientUnits="userSpaceOnUse" x1="94.423" y1="246.2208" x2="96.7831" y2="237.1408" gradientTransform="matrix(1 0 0 -1 0 544)">
			<stop  offset="0.29" style="stop-color:#F2B58D"/>
			<stop  offset="0.74" style="stop-color:#DE9E74"/>
		</linearGradient>
		<path class="st22" d="M88.2,307.4c-0.8-3-0.4-4.8,1.5-7.3s7.5-4.3,11.4-3.4l2,1.7c0.4,1,1,3.1,1.3,4.2c-2-1.1-5-0.7-7,0
			s-4.3,2.4-4.7,3.6l-1.1,1.5l-0.4,1.5l-1,1C89.3,309.4,88.7,308.5,88.2,307.4z"/>
		
			<linearGradient id="SVGID_20_" gradientUnits="userSpaceOnUse" x1="92.45" y1="249.53" x2="93.81" y2="244.3" gradientTransform="matrix(1 0 0 -1 0 544)">
			<stop  offset="0.29" style="stop-color:#F2B58D"/>
			<stop  offset="0.74" style="stop-color:#DE9E74"/>
		</linearGradient>
		<path class="st23" d="M88,303.4l-1.2-1.5l-0.4-2.2l0.8-2.2l2.5-2.1l3.1-1.3l3.5-0.5c1.4,0.4,2.8,1,4,1.9v0.9
			c-2.9-0.3-5.8,0.5-8.2,2.1l-2.1,1.4C89.1,300.9,88.5,302.1,88,303.4z"/>
		<path class="st24" d="M128,244.1c-11.2-2-10-20.8-6.6-28.9c1.7-7.5,12.1-14.4,19.7-10.3s6.3,23.7,3.2,29.9S134.7,246.1,128,244.1z
			"/>
		<path class="st24" d="M170.6,256.6c-7.8-9.5,2.3-32.9,16.4-32.7c12,0.8,6.4,21.4,3.2,26.1S176.5,262.2,170.6,256.6z"/>
		
			<linearGradient id="SVGID_21_" gradientUnits="userSpaceOnUse" x1="86.7413" y1="503.8838" x2="138.2813" y2="485.7238" gradientTransform="matrix(1 0 0 -1 0 544)">
			<stop  offset="0" style="stop-color:#A91F18"/>
			<stop  offset="0.1" style="stop-color:#C31E12"/>
			<stop  offset="0.21" style="stop-color:#D81C0D"/>
			<stop  offset="0.28" style="stop-color:#E01C0B"/>
			<stop  offset="0.72" style="stop-color:#E01C0B"/>
			<stop  offset="0.87" style="stop-color:#BF1E13"/>
			<stop  offset="1" style="stop-color:#A91F18"/>
		</linearGradient>
		<path class="st25" d="M81.8,53.5c6.4-18.6,49.6-20.4,60.5-5.4C123.7,46.6,99.6,45.9,81.8,53.5z"/>
		
			<linearGradient id="SVGID_22_" gradientUnits="userSpaceOnUse" x1="121.16" y1="145.7118" x2="156.9969" y2="145.7118" gradientTransform="matrix(1 0 0 -1 0 544)">
			<stop  offset="0" style="stop-color:#1A273D"/>
			<stop  offset="0.35" style="stop-color:#293B60"/>
			<stop  offset="0.56" style="stop-color:#27395C"/>
			<stop  offset="0.77" style="stop-color:#223250"/>
			<stop  offset="0.98" style="stop-color:#1A273D"/>
			<stop  offset="1" style="stop-color:#19253A"/>
		</linearGradient>
		<path class="st26" d="M121.6,402.2l-0.5-3.3c11.5,1.3,25.2-0.2,35.8-5c0.1,0.9,0,1.8-0.2,2.7C146.6,402.3,133.1,403.5,121.6,402.2
			L121.6,402.2z"/>
		
			<linearGradient id="SVGID_23_" gradientUnits="userSpaceOnUse" x1="106.9" y1="249.1" x2="146.63" y2="249.1" gradientTransform="matrix(1 0 0 -1 0 544)">
			<stop  offset="0" style="stop-color:#1A273D"/>
			<stop  offset="0.35" style="stop-color:#293B60"/>
			<stop  offset="0.56" style="stop-color:#27395C"/>
			<stop  offset="0.77" style="stop-color:#223250"/>
			<stop  offset="0.98" style="stop-color:#1A273D"/>
			<stop  offset="1" style="stop-color:#19253A"/>
		</linearGradient>
		<path class="st27" d="M108.5,291.3c-0.8-2.4-1.3-5-1.6-7.5h2.1c-0.1,2,3.2,6.6,4.3,8.2c4,4.9,7.6,10.6,15.3,11.7
			s10.2-0.9,14.2-4.6c0.7-0.8,1.4-1.6,2-2.4c0-0.2,0.5-1.8,0.5-1.8l1.2,0.3c0.1,2.7-1.7,5.4-3.4,7.3c-6.2,0.2-13,2.5-19.1,3.5
			l-0.2-0.4C118.4,304.3,111.1,295.7,108.5,291.3z"/>
		
			<linearGradient id="SVGID_24_" gradientUnits="userSpaceOnUse" x1="57.2405" y1="154.5382" x2="172.4105" y2="189.4782" gradientTransform="matrix(1 0 0 -1 0 544)">
			<stop  offset="0" style="stop-color:#293B60"/>
			<stop  offset="1" style="stop-color:#19253A"/>
		</linearGradient>
		<path class="st28" d="M157.5,415.6c0-20.5-1-43-7.5-63.3c-5.4-1.9-10.6-4.2-15.7-6.8c-2.3-1-5.4-3.6-8.1-3.2
			c-3.8,2.3-8.5,6-12.9,7c0.1,10.3,15,69.2,5.4,74.1c-32.7-5.5-40.3-9.1-64.7-31.2c4.3-20,9.6-41.8,12.1-62.2c3.2,2.3,6.2,5,8.9,7.9
			c14.9,11.3,35.5,18.1,51.1,3.5c7.5,5,28.2,13.9,39.1,12.4c3.8,11.7,9.6,33.1,9.1,46.1c0,0-0.3,2.5-1.8,3.3s-6.7,6.6-6.7,6.6
			C163.9,412,160.8,415.6,157.5,415.6z"/>
		
			<linearGradient id="SVGID_25_" gradientUnits="userSpaceOnUse" x1="17.473" y1="390.0426" x2="255.3264" y2="390.0426" gradientTransform="matrix(1 0 0 -1 0 544)">
			<stop  offset="0.3" style="stop-color:#EFBD50"/>
			<stop  offset="1" style="stop-color:#DDAB47"/>
		</linearGradient>
		<path class="st29" d="M83.9,215c18.9-36.5,29.8-47.4,28.5-91.1c4,12.1,13,24.9,21.8,34c-1.6-7.3,2.1-27.1,9.9-33.1
			c-0.1,0.6-0.1,1.3,0,1.9c-5.5,12.9-0.4,39.4,7,50.7l0.9-1.2c0.6-7,1.2-15.5,3.6-22.1c0.5,5.9,0.2,13.5,2.7,19
			c2.4-12.2,11-24.5,8.8-37.7c15.1,19.6,8.7,58.4-5.6,76.6c19.5,0.7,38.1-7.9,50.3-23c-1,6-9,12-13.8,15.2c-3.1,1.8-9.7,5.1-13,6.5
			c-1.1,0.5-5.9,2.1-6.4,3.3c5.7-0.2,14.3-2.2,19.7-3.9c2.8-1.5,9.6-5.1,12.5-6.3l13-10.3l8.5-10.1c3.2-5.6,6-11.5,8.4-17.5
			c1.2-0.7,2.4-4.4,3-5.6c2.2,6.9,3.6,14,4.4,21.2l0.8,12.7l0.4,0.9c11.9-33.8,6.3-77.3-17.9-106.1c-36.2-39.2-105.3-52.8-155-33.5
			c-46.7,21-62.1,76.3-58.4,123.1c2.4,32.2,16.4,69.5,48.6,82.5c-3.3-2.7-5.9-6.2-7.7-10.1c-2.5-6.1-1.9-5.8-1.9-5.8
			c2.7,3.9,14.3,12.6,20.7,12.3c-2.6-1.3-10.7-15.9-10.6-18.4c-35.8,0.8-35.3-56.7-2.9-51.8c0.5,6.2,2.9,16.1,4.6,22.1
			c0,0,1.6,6.7,4.8,10.8c-0.7-6.9-3.1-24.5,0.8-32.2c-0.8,10.6-0.1,34.8,7,41.3C79.6,224.9,82.9,219,83.9,215z"/>
		
			<linearGradient id="SVGID_26_" gradientUnits="userSpaceOnUse" x1="66.0137" y1="533.6714" x2="84.9637" y2="484.5214" gradientTransform="matrix(1 0 0 -1 0 544)">
			<stop  offset="0.3" style="stop-color:#EFBD50"/>
			<stop  offset="1" style="stop-color:#DDAB47"/>
		</linearGradient>
		<path class="st30" d="M32.6,98.9c-1.7-24.1-2.6-63.3,22.1-80c32.8-21,83.2-8.9,93.4,30l-6.3-0.8c-10.5-15-52.9-13.4-59.9,5
			C63.4,59,40.3,80.5,32.6,98.9z"/>
		
			<linearGradient id="SVGID_27_" gradientUnits="userSpaceOnUse" x1="1.962" y1="315.6067" x2="25.772" y2="329.7367" gradientTransform="matrix(1 0 0 -1 0 544)">
			<stop  offset="0.3" style="stop-color:#EFBD50"/>
			<stop  offset="1" style="stop-color:#DDAB47"/>
		</linearGradient>
		<path class="st31" d="M3.4,233.7c8.9,0.4,19.4-3.3,27.7-6.3c-3-3.1-9.4-23.9-9.6-26.9c-1.9,6.5-5.3,12.4-9.9,17.3
			c3.1-0.9,6-2.1,8.8-3.6C17.3,222.3,10.6,229.2,3.4,233.7z"/>
		
			<linearGradient id="SVGID_28_" gradientUnits="userSpaceOnUse" x1="118.3797" y1="359.1821" x2="145.7397" y2="358.282" gradientTransform="matrix(1 0 0 -1 0 544)">
			<stop  offset="0.3" style="stop-color:#EFBD50"/>
			<stop  offset="1" style="stop-color:#DDAB47"/>
		</linearGradient>
		<path class="st32" d="M120.1,188.8c-1,0.1-1.9,0-2.8-0.5l-0.2-0.8c3.2-3.9,12.1-6,19-6.1c3.6,0.2,8.7,1.4,9.4,3.7
			c0.8,3.9-0.1,2.9-1.9,4.3c-5.7-1-13.1-2.2-18.9-1.6C123.2,188.3,121.7,188.6,120.1,188.8z"/>
		
			<linearGradient id="SVGID_29_" gradientUnits="userSpaceOnUse" x1="210.17" y1="337.6499" x2="218.51" y2="337.3799" gradientTransform="matrix(1 0 0 -1 0 544)">
			<stop  offset="0.3" style="stop-color:#EFBD50"/>
			<stop  offset="1" style="stop-color:#DDAB47"/>
		</linearGradient>
		<path class="st33" d="M209.8,204.7l4.1-3.3c2.9,1.8,5.8,5.5,3.9,9.4c-0.6,0.4-1.4,0.7-2.1,0.8l-1.1-1l-0.5-1.7
			C212.9,207.7,211.2,205.9,209.8,204.7z"/>
		
			<linearGradient id="SVGID_30_" gradientUnits="userSpaceOnUse" x1="92.5063" y1="268.0585" x2="118.0863" y2="192.9386" gradientTransform="matrix(1 0 0 -1 0 544)">
			<stop  offset="0" style="stop-color:#293B60"/>
			<stop  offset="1" style="stop-color:#19253A"/>
		</linearGradient>
		<path class="st34" d="M56.4,315.1c-4.5-13.4-2.2-27.7,10.1-36.1c2.6-2.3,17-1.2,18.7-1c6.1,1.1,16.7,0.5,21.7,4.7
			c0.7,7.7,4.4,16.3,5.2,24l-1.9-1.5H107c-0.7-1-1.7-1.9-2.8-2.4c0-2.6-1.5-5-3.8-6.1v-0.5c-1.8-2.7-5.5-2.6-8.3-1.9
			s-6.2,3.4-5.2,7.8l1.2,1.5c-0.2,1.9,0.1,3.9,0.9,5.6c0.7,0.5,1.4,1,2,1.6c-0.6,5.7,1.9,8.2,7.6,7.1c0.1,4.7,9.1,8.1,11.2,1.2
			c1.8-4.5,3.2-6.6,3.6-9.1c6.4-3.7,16.8-4.8,24-6.6c13.7-3.5,18,5.7,17.7,17.5c-14.2,5.9-24.9,19.7-38.4,26.9
			c-8.5,4.9-25.8,2.1-34.3-5c-13.6-10.9-20.5-14.4-26-27.6L56.4,315.1z"/>
		
			<linearGradient id="SVGID_31_" gradientUnits="userSpaceOnUse" x1="82.3197" y1="138.3401" x2="104.6097" y2="197.1101" gradientTransform="matrix(1 0 0 -1 0 544)">
			<stop  offset="0" style="stop-color:#293B60;stop-opacity:0"/>
			<stop  offset="1" style="stop-color:#19253A"/>
		</linearGradient>
		<path class="st35" d="M60,366.1c2.3-10.5,4.9-25.4,6.3-36.1c13.6,12.4,26.9,23.4,47.1,19.3c2.4,17,6.6,38.2,8.3,55.3l0.8,9.1
			c-0.4,1.9-1.4,6.5-1.7,8.4l-1.4,1.5c-33.6-6.3-38-7.8-64.1-30.1c0,0-1.7-0.4-0.6-4.4C56.6,381.4,59,370.1,60,366.1z"/>
		<path class="st36" d="M94.9,410.9c-1.3,0,0.3-5,0-5.1c0.4-3.1,0.9-8.9,1.2-12c0.3-1,5.7,0.5,5.5,0.5c2.8,0.7,9.7,0.7,11.4,3.5
			c-0.8,5.8-0.5,11.1-2,16.6c-0.8,0.6-3.6-0.6-4.4-0.7C103,412.8,98.5,411.5,94.9,410.9z"/>
		
			<linearGradient id="SVGID_32_" gradientUnits="userSpaceOnUse" x1="146.4" y1="244.6224" x2="149.46" y2="244.6224" gradientTransform="matrix(1 0 0 -1 0 544)">
			<stop  offset="0" style="stop-color:#293B60"/>
			<stop  offset="1" style="stop-color:#19253A"/>
		</linearGradient>
		<path class="st37" d="M147.6,295.5c0.2,1.8,0.7,5.4,0,7.1c1.1,1.2,1.2,1.7,3,1.2c0,0,0.3-5.6-1.1-7.9S147.6,295.5,147.6,295.5
			L147.6,295.5z"/>
		
			<linearGradient id="SVGID_33_" gradientUnits="userSpaceOnUse" x1="143.2827" y1="238.0715" x2="168.5827" y2="189.9715" gradientTransform="matrix(1 0 0 -1 0 544)">
			<stop  offset="0" style="stop-color:#BFAD95"/>
			<stop  offset="0.27" style="stop-color:#AE9C85"/>
			<stop  offset="0.72" style="stop-color:#978570"/>
			<stop  offset="1" style="stop-color:#8E7C68"/>
		</linearGradient>
		<path class="st38" d="M150.6,303.8c0.4-0.1-0.5-8.1-1.1-7.7h6.2c3.4,1.6,10.9,5.7,14.2,7.5c25.8,13.5,27.5,45.9-6.3,50.3
			c-17.1-1-24.3-6.2-37.4-12.3c10.6-9.5,22.9-19.7,36.5-24.3l0.2-0.8c-0.7-3.6-0.6-4.2-3.7-8.4S154.6,304.3,150.6,303.8z"/>
		
			<linearGradient id="SVGID_34_" gradientUnits="userSpaceOnUse" x1="66.16" y1="274.15" x2="101.0545" y2="274.15" gradientTransform="matrix(1 0 0 -1 0 544)">
			<stop  offset="0" style="stop-color:#BFAD95"/>
			<stop  offset="1" style="stop-color:#8E7C68"/>
		</linearGradient>
		<path class="st39" d="M80,260.1c-14.6,2.4-15.2,2.5-12.6,18.6c6.5-3,29.1,0.8,33.7,0.9C94.1,273.8,85.9,266.9,80,260.1z"/>
		
			<linearGradient id="SVGID_35_" gradientUnits="userSpaceOnUse" x1="88.1828" y1="224.2982" x2="70.7128" y2="197.9482" gradientTransform="matrix(1 0 0 -1 0 544)">
			<stop  offset="0" style="stop-color:#BFAD95"/>
			<stop  offset="0.27" style="stop-color:#AE9C85"/>
			<stop  offset="0.72" style="stop-color:#978570"/>
			<stop  offset="1" style="stop-color:#8E7C68"/>
		</linearGradient>
		<path class="st40" d="M62,313.5c-9.6-11.4,12.2-21.7,15.9-10.1l-3.1,1.5c-2.7-7.1-16.4-0.4-10.3,6.2L62,313.5z M65.3,317.7
			c1.6-1.8,3.5-3.3,5.6-4.6l3.1,4.4c0,0-4.8,3.2-6,4.8c0.8,0.9,1.6,1.8,2.5,2.6c-0.9-0.1,14.1-11.2,13.9-10.5l-2-2.5
			c-2,0.9-4,1.9-5.8,3.2l-2.5-4.1c1.8-1.3,3.8-2.4,5.9-3.3l-1.5-2.6c-4.7,1.3-13.4,8.1-15.5,10L65.3,317.7z M76.6,330.2
			c-0.5-0.6,10.8-11.7,10.6-11.2c-0.9-0.9-1.8-1.8-2.6-2.8c-1.9,1-9.6,7.3-12.1,10.9L76.6,330.2z M90.3,339.5
			c0.5-1.5,0.5-3.1-0.1-4.6c3.7,1.8,7.4-3.6,5.3-7c-0.8-1.8-5.1-5.4-7.3-7.3c-2,1.2-8.5,7.8-10,12.3l0.5,0.3
			c-0.9,1.7,2.4,2.8,3.2,3.7l0.6-1.3l-0.3-0.7c0.5-1.3,1.3-2.6,2.3-3.6c2.1,0.1,3.1,4.1,1.6,6.3l0.4,0.2c-0.2,0.4-0.4,0.8-0.4,1.2
			c1.2,0.8,2.5,1.5,3.8,2.1c0-0.6,0.3-1.2,0.8-1.5L90.3,339.5z M86.1,329c0-1,2.7-3.3,3.1-3.5C93.5,326.4,92.5,335.2,86.1,329z
			 M105.7,346.4c8.3-1.6,10-15.6,1.1-18.5C93.4,324.8,91.2,348.5,105.7,346.4z M101.4,341.7c-4.4-2.9,0.9-13.5,5.8-8.4
			C110.5,337.2,106.3,345.1,101.4,341.7L101.4,341.7z"/>
		<path class="st41" d="M217.7,205c4-2.6,11.3-8.9,15.2-15c-0.5,3.8-4.7,15.3-6.8,18.8c12.8-25,12.6-23.5,16.3-43.7l-0.9,0.3
			c-5.4,14.2-14.9,28.3-28.1,36.3C215,202.6,216.4,203.7,217.7,205z"/>
		<path class="st41" d="M117.1,188c2.1,5.4,6.6,0,14.5,1.8c6.2,0.8,15,2.8,14.6-2.1c-2.6,3.2-11.9-0.4-15.7,0.1
			c-6.9,0.2-7.3,1.3-12.1,1.2L117.1,188z"/>
		<path class="st42" d="M114.3,355.2c5.8-0.9,13.2-7.5,13.2-7.5s5.6,6.5,24.5,10.3c-0.5-2-1.1-3.9-2-5.8
			c-6.9-2.3-17.6-6.8-23.6-10.9c-3.5,2.9-8.4,7-13.1,7.6v3.4L114.3,355.2z"/>
		<path class="st42" d="M153.9,395.1c-0.4-7.3-2.9-34.7-6.5-39.9l3.8,0.4c3,12.6,5,25.4,5.8,38.3L153.9,395.1z"/>
		<path class="st42" d="M115.9,354c0.6,1.9,7.1,44.7,6.8,45.1l-1.5-0.2c-0.6-11.6-6.5-34.6-7.1-46.1L115.9,354z"/>
		<path class="st42" d="M110.8,294.4c1.2,3.1,3.7,12.5,3.7,12.5s7.4-1.9,10.4-1.1c-2.6,0.7-10.4,3.5-11.6,3.4
			c-0.2-1.1-0.6-2.1-1.2-3c-0.6-2.3-1.1-4.6-1.4-7c-0.6-1.6-2-5.8-1.8-7.5C109.3,292.4,110.3,293.7,110.8,294.4z"/>
		<path class="st42" d="M144.4,301.3c1.2-0.2,2.4,0,3.5,0.5l-0.3,1.5c-0.8-0.6-3.1-0.9-4.1-1L144.4,301.3z"/>
		<path class="st43" d="M153.7,321.2c-4.1,1.4-22.7,18.3-18.8,21.1c5.4,4.2,24.5,0.7,8.4,4.2c13.3,7.7,42.7,4.6,46.1-14.7
			c2.9,14.9-22.7,23.6-31.3,21.9l-8.1-1.4l-11.3-4.6c-2.6-1.2-10.2-4.3-12-6.7C134.8,334.2,144.3,326,153.7,321.2z"/>
		<path class="st43" d="M163.9,349.3c4.4,0.2,18-8,17.7-10.8c-2.6,2.5-5.5,4.6-8.7,6.3C168.7,346.9,161.9,349.5,163.9,349.3z"/>
		<path class="st43" d="M172.3,318.5c4.3,0.8,11.1,5.3,9.6,10c-0.4,1.6,3.9-3.5-1.1-7.8S170.9,318.4,172.3,318.5z"/>
		<path class="st43" d="M157.5,306.2c3.1,0.9,6.6,7.6,6.6,7.6c1-0.6,2.1-1,3.3-1.3c-1.1,0.4-1.7,1.6-1.5,2.7c0,0,4.4,0.2,2.5,0.4
			c-1.9,0.3-3.7,0.8-5.5,1.4C162.9,313.1,160.3,308.8,157.5,306.2z"/>
		<path class="st43" d="M78.2,260.4c-4.9,1-11.6,2.3,0.5,8s12.9,6.2,14,6.8s-2.9-0.1-1.1,2.9c2,0.6,4.2,1.1,6.3,1.3l0.8-0.7
			c-1.3-2-5.2-5.5-7-7c-3.6-3.3-8.5-8.1-11.7-11.7L78.2,260.4z"/>
		<path class="st43" d="M70.5,271.6c2.3,1.6,10,3.4,12.1,3.4s-1.4-0.5-5.1-1.7S67.9,269.8,70.5,271.6z"/>
		<path class="st44" d="M59.1,399.3c12.2,13.7,35.6,28.4,59.2,27.8c4.1,0.1,7.1,0.4,7.2-1.7c0.5-6.8-0.3-13.2-1.9-20.8
			c3.9,2.4,28.5-2.8,31-4.9c0,0,0.3,8.1,0,13.3c-1.6,11-0.3,13.9,10,5.3c1.5,3.3,4.4,20.4,0.2,25.3c5.6-2.8,4.7-10.1,3.9-13.9
			c-0.8-5.6-1.9-13.5-2.5-19.2h-0.5c-1.2,1.3-2.5,2.5-3.9,3.5l-2,1.3h-1.5l-0.6-0.6c-0.2-5.4,0.5-13.4-0.3-18.7
			c-7.5,4.7-25.9,7.8-35.7,5.9c0.4,6.5,1.6,14.1-0.9,20.3l-1,0.6c-11.8-0.7-26.1-4-36.9-9.1c-7.4-3.5-16.8-11.7-23.1-16.8
			L59.1,399.3z"/>
		<path class="st44" d="M160,424.5c-0.4,1.2-9,19.5-9.1,19.2C154.2,439.8,159.5,429.9,160,424.5z"/>
		<path class="st44" d="M160.9,420.9c0.7,0.6-0.2,15,0.6,9.7c0.9-7.2,0.8-6.2,0.7-11.1L160.9,420.9z"/>
		<path class="st44" d="M128.5,427.4c4.7-10.2,1.9-4.2-4.6,2.5c-4,4.1-15,12.8-11.2,10.8c2.5-1.4,4.9-3,7.2-4.7
			C122.9,434,126.2,430.3,128.5,427.4z"/>
		<path class="st44" d="M142.3,403.5c-0.7,0.2-2,13.3-2,11.6c0.2-4.2,0.5-8.2,0.6-11.9L142.3,403.5z"/>
		<path class="st44" d="M139.2,404.1c-1.2,0.2-1.2,15.6-1.4,10.3s-0.1-8.4,0.1-10.5c2.4,0.2,2.6,0,2.9,4.3s0.2-4.6,0.2-4.6h-1.2"/>
		<path class="st44" d="M140.4,414.4c0.2,1.6,0.3,2.3-0.9,2.6C139.5,415.7,140.2,415.4,140.4,414.4z"/>
		<path class="st44" d="M62.5,407.5c0.3,1.4,7.8,20.1,8.1,21C67.3,425.1,62.2,411.7,62.5,407.5z"/>
		<path class="st44" d="M68.8,435.2c-2.2-2.3-2.9-2.7,0-0.6s10.8,9,4.5,4.5S68.8,435.2,68.8,435.2z"/>
		<path class="st41" d="M90.5,456.3c1.4,7.2,10.3,7.7,6.5,5.7c-1.4-0.4-2.6-1.3-3.4-2.5C92.4,458.6,91.3,457.5,90.5,456.3z"/>
		<path class="st41" d="M102.9,462.2c2.2,1,8.6-1.7,9.3-4.2C109.3,459.8,106.2,461.3,102.9,462.2z"/>
		<path class="st41" d="M143.5,455.4c0,0,0.6,2.4,1.9,3.1s2.3,0.3,1.4-0.2C145.5,457.6,144.4,456.6,143.5,455.4z"/>
		<path class="st41" d="M148.3,458.6c0.7,0.2,2.1,0.3,1.6-1L148.3,458.6z"/>
		<g class="st45">
			<path class="st46" d="M170.3,195.7c-2.3,5.6-5.1,11-8.4,16.1c13.5,1.2,33-5.3,42.5-15c1.4-1.6,6-7,7.8-8.1
				c-2.1,7.3-13.6,16.3-20.8,19.1c-4.2,1.6-10.5,5.6-15,5.8l4.8,0.4c2.4-0.2,4.8-0.6,7.2-1.2c6.3-1.8,15.6-4.5,21-8.2
				c2.9,1.7,4,5.1,6.6,7.1c-0.8,0.2-3.2-0.3-3.9-1.6s-0.6-0.8-0.6-0.8c-9.4,11.2-36.8,12.9-48.8,9.9c2.5-0.2,4.9-0.7,7.2-1.5
				c-5.4,1-15.4-1.7-15.4-1.7c12-12,19.2-48.8,15.2-62.1c1.6,5.6-9.8,25-8,31.4c-3.2-2-6.3-8.2-6.5-12.2c-1.1,2.5-1.9,12.5-1.4,14.9
				c-8.6-7.1-15.6-33-14.5-42.9c0,0-3.2,15.5-1.5,23.4c-3.3-1.3-14-9.6-21.1-19.6c5,24.3-37.8,62.6-32.2,84.8
				c-4.5-0.9-7.6-6.6-7.6-6.6c0.5,1.5,1.2,2.9,2.1,4.2c-7.1-3.3-17.4-35.5-17.2-44.4l2.8,0.6c1.3,10.3,3.1,23.5,9.3,33.1
				c-0.8-9.2-3.1-21.2,0.2-30c-0.2,1.1,0,2.3,0.5,3.3c-0.3,2.5,0.1,10.3,0.1,12.9c0.5,5.4,1.6,13.6,4.1,18.4
				c0.3,0.5,1.6,3.7,2.4,3.7c0-13.6,13-31.4,18.9-43.5c2.3-4.9,6.8-14.9,8.9-20c3.6-12.1,3.6-28.7,3.6-41.3
				c0.8,2.8,8.2,16.3,9.7,19.1c3.3,4.1,8.1,10.9,12.1,14.3c-1.1-10,1.9-26.2,10.2-33.4c-5.6,13.7-1.4,41.9,7.1,53.8
				c0.5-4,2-18.4,4-24.5c0.1,5.4,0.8,14.5,2.8,19.6c2.2-12.1,12.1-25.4,8.3-38.2C179,150.2,177.1,179.4,170.3,195.7z"/>
			<path class="st46" d="M118.9,228.4c-0.8-40.3,41.4-31.4,25.7,5.7C157.1,198.7,121.3,190.6,118.9,228.4z"/>
			<path class="st46" d="M168.4,244c7.5-36.4,42.4-23.5,20,8.2c2.7-2.9,7.2-13.2,5.6-22.1s-13.5-7.8-19.9,0.9S168.4,244,168.4,244z"
				/>
			<path class="st46" d="M136.3,279.7c2.4,6.9,12,7.1,16.2,3C148.5,284.8,139.4,282.6,136.3,279.7z"/>
			<path class="st46" d="M137.9,252.2c8.7-10.3,35.3-6.3,26.8,12.4c3.1-14.6-14.7-16.6-21.4-14.8L137.9,252.2z"/>
			<path class="st46" d="M51.8,205.8c0,0,7.1,1.4,7.8,3.6c-2.3,2.6-3.1,6.2-2.1,9.5c0.6,1.5,2.1-5,6.2-4c1.8,2.8,2.6,9.9,2.6,9.9
				s-4.6,4.9-1.2,8.1c-2.6-7.6,5.4-4.4,4.7-8.9c-0.8-6.3-5.4-14-10.2-17.8l-3.1-0.9C55.4,205,52.9,205.5,51.8,205.8z"/>
			<path class="st46" d="M112.2,290.4c8.1,5.5,17.6,8.3,27.4,8.1c-5.3,4.3-12.7,4.9-18.6,1.5c7.5,6.8,22.2,2.9,24.6-4.7l-1.2-1.1
				c-10.1-1.8-26.7-4.8-35.4-10.4C108.7,286,111.1,288.7,112.2,290.4z"/>
			<path class="st46" d="M149.5,304.5c3.5,2.2,6.8,5.1,6.7,13.8c1.2-1.4,6.7-2.2,6.7-2.2v1.1c-2.3,0.9-5.9,2-7.9,3.5
				c0.4-4.6-0.5-9.2-2.6-13.4L149.5,304.5z"/>
			<path class="st46" d="M127.2,453c-10.2-0.5-21.7,0.1-31.9-0.6l-10.5-1.2L73.1,448c0,0-0.6-1.2,1.1,2.9
				c14.1,6.2,37.4,6.7,50.2,5.9c-0.3,3.3-2.4,14.3-3.4,18.3s-1.6,6.2-7.4,7.6s-24.8,0.7-28.8-3.9l1.8,1.9l2.9,1.4
				c4.4,2.8,12,2.8,17,2.6l7.3-0.9l5.3-2.6c1.3-0.9,3-4.3,3.7-5.7l1.4,0.6c0.2,0.5,0.6,1,1,1.3l4.6,0.6c2.6-0.3,7.8-1.2,10.1-2.5
				l3.8-2.3l1.9-2.9c-1.7,4.1-15.6,8.5-19.3,6.4c-0.1-0.4-0.2-0.8-0.4-1.1c-0.4-0.8-1.9-0.9-1.7-1.9s3.2-14.2,3.7-17.1
				c0.4,0.9,21.1-0.8,21.8-2.7c0,0-0.6,3.9-1.1,4.2s0-0.2-0.6,1.6c-1.5,5.8-3.9,13.6-10.1,16.1c-2,0.9,1.9-0.1,3.5-1.1
				c5.1-2.9,6.1-9.9,7.8-14.3c0.5-1.5,1.8-4.9,2.4-6.4s1.4-2.9,1.1-3.7s-6.4,1.6-7.3,1.8C140.6,452.8,132,453.7,127.2,453z"/>
			<path class="st46" d="M98.6,315.7c-0.4,5.7,8.9,8.5,11.3,2.1c-0.9,5.7-7,6.1-10.5,3C98.6,319.9,98.6,316.8,98.6,315.7z"/>
			<path class="st46" d="M90.8,313.3c0.1,0.7,2.8,4.5,6.5,3.2c0.5-3.4,2-6.6,4.2-9.2c-0.7,2.3-2.2,5-2.9,7.1c0.1,1,0,2-0.2,3
				c-1.8,0.6-3.8,0.6-5.6-0.1C91.4,316.4,91,314.8,90.8,313.3z"/>
			<path class="st46" d="M87.9,305.6c0.4,1.3,1.4,2.3,2.7,2.6c1.1-2.6,3.3-4.6,6-5.4c-4.7,4.2-4.3,3.4-5.7,7.5
				C89,309.7,88.3,307.2,87.9,305.6z"/>
			<path class="st46" d="M86.8,299.5c0.2,0.6,0.6,1.1,1.1,1.5c1.7-1.7,3.9-3,6.2-3.6c-3.9,2.3-4.3,2.3-5.8,5.4l-0.6,0.3
				C86.7,302.2,86.4,300.8,86.8,299.5z"/>
		</g>
		<path class="st47" d="M114,355.2c-13.2,5.5-36.6,0.7-43.1-10.8c0,0,7.1,18.2,7.4,20.7s-4.5-7.3-7.4-13.2s-3.1-2.3-1.9,3
			c2,8.7,4.9,20.8,7,26.6c-2-5-14.6-38.3-10.5-44.8l0.7-6.8c11.7,11.4,29.4,24.1,47.1,19L114,355.2z"/>
		<path class="st47" d="M151.6,357.6c3.8,0.8,11.1,2.5,15.4,0.5l-1.4-3.5c-4.3-0.5-11.3-1.3-15.6-2.3
			C150.8,354,151.3,355.8,151.6,357.6z"/>
		<path class="st47" d="M165,373.6c0,0,0.3-12.8-2.8-15.6C167.4,354,166.8,372.3,165,373.6z"/>
		<path class="st47" d="M164.3,378.7c-2.2-5.3-2.3-5.9-1.2-1.3s2.7,17.4,3.1,20.9s2.2,2.9,1.2-5.6
			C165.8,380.9,165.4,383.5,164.3,378.7z"/>
		<path class="st47" d="M154,395.1l0.4,3l2.6-1.9v-2.6C156.1,394.3,155.1,394.8,154,395.1z"/>
		<path class="st47" d="M122.5,399.1c0.2,1.1,0.4,2.2,0.7,3.3l-1.5-0.2l-0.5-3.2L122.5,399.1z"/>
		<path class="st47" d="M101.1,373.7c-8.3-0.5-15.4,20.1-17.3,25.5C91.7,391.6,92.1,376.6,101.1,373.7z"/>
		<path class="st47" d="M57,316.6c13.3,17.1,43.3,44.3,67.9,21.3c11.3-8,23.1-17.5,30.2-19.2v2l-5.7,3c-9.7,6-19.7,15.8-29.2,22
			l-9.8,3.8c-7,2.3-30.9-4.1-34.7-11.6l-8.4-6.6C63.8,327.4,58.9,321.3,57,316.6z"/>
		<path class="st47" d="M147.9,301.8c0.9,0.4,1.8,0.6,2.7,0.8v1l-1.4,0.4l-1.7-0.7L147.9,301.8z"/>
		<path class="st47" d="M113.3,310.3c-0.5,1.5-1.7,10.6-4.2,12.8s-8.8,5.5-11.7-3.1c-2.8,1.5-7.6-0.1-7.7-7.5
			c-1.9-0.6-3.3-4.7-2.8-8c-1.2-0.6-1-3.5-0.4-4c0.3,1,0.7,2,1.4,2.9c0,2.9,0.2,5.1,2.8,7c-0.4,5.1,2.6,9.3,8,7.1l0.5,2.3l1.2,1.4
			l1.6,1.1l3,0.6l1.5-0.6c1.2,0,2.3-0.7,2.7-1.9L113.3,310.3z"/>
		<path class="st47" d="M115.1,314.1c0.7-0.5,1.7,20.1,2.4,11.4s-0.1-6.6-1-10.2L115.1,314.1z"/>
		<path class="st47" d="M114.5,311.9c0-0.1,13.5,5.4,8.8,2.3s-4.9-2.3-8.4-2.6L114.5,311.9z"/>
		<path class="st47" d="M65.5,321.8c5.2,7.6,18.7,20.4,30.7,19.7C84.4,338.6,73.5,330.8,65.5,321.8z"/>
		<path class="st47" d="M109.1,345.2c3.5-0.4,6.8-1.7,9.6-3.8c2.7-2.2,4.1-4.8,3.1-3.9c-3.7,3.8-7.1,5.2-11.7,6.5L109.1,345.2
			L109.1,345.2L109.1,345.2z"/>
		<path class="st43" d="M109,345.1c-1.7-0.2-3.4-0.5-5.1-0.9c2.2,0,4.6,0.1,6-0.4v0.3C109.7,344.5,109.4,344.8,109,345.1z"/>
		<path class="st43" d="M86.3,338.2c-0.2,0.3-0.2,0.7-0.2,1.1c0.6,0.4,1.3,0.8,4,1.3l0.3-0.5L86.3,338.2z"/>
		<path class="st43" d="M78.6,333.6c-0.1,0.3-0.1,0.6-0.1,0.9c0,0.2,3.1,2.3,3.2,2.5l0.5-0.9L78.6,333.6z"/>
		<path class="st48" d="M86.6,299.1h0.8c0.8,0.4,1.3,1,1.6,1.8l1.5-1.5c-0.1-1.1-0.6-2.8-2-2.9C87.7,297.2,87,298.1,86.6,299.1z"/>
		<path class="st48" d="M87.8,305c1.2,0.1,2.3,0.5,3.2,1.2c0.3,0.7,0.7-0.1,0.9-0.3s0.8-3-0.4-3.9c-0.7-0.3-1.6-0.4-2.3-0.1
			C88,302.3,88,304.1,87.8,305z"/>
		<path class="st48" d="M90.6,312.9v-1.5c2.6-3.9,7.1-1.5,5.7,2.9H96c-1.1-0.7-2.4-1.2-3.8-1.2C91.9,313.1,90.8,313.1,90.6,312.9z"
			/>
		<path class="st48" d="M100.7,317.1c-0.2-1,0.3-1.6,1.1-2.8c2.8-3.3,7.7,2,5.2,4.8C105.2,317.8,102.7,317.6,100.7,317.1z"/>
		
			<radialGradient id="SVGID_36_" cx="-1140.2446" cy="557.5307" r="1.0205" gradientTransform="matrix(-7.82 0 0 7.82 -8787.2402 -4131.7202)" gradientUnits="userSpaceOnUse">
			<stop  offset="0.74" style="stop-color:#4F6081"/>
			<stop  offset="1" style="stop-color:#324365"/>
		</radialGradient>
		<path class="st49" d="M138.9,230.7c1.6-4-0.3-8.5-4.3-10.2c-3-1.2-6.4-0.5-8.6,1.9C118.9,231.2,132.4,243.9,138.9,230.7z"/>
		
			<radialGradient id="SVGID_37_" cx="-1154.6193" cy="557.7082" r="1.02" gradientTransform="matrix(-7.04 0 0 7.04 -7951.5801 -3682.6399)" gradientUnits="userSpaceOnUse">
			<stop  offset="0.74" style="stop-color:#4F6081"/>
			<stop  offset="1" style="stop-color:#324365"/>
		</radialGradient>
		<path class="st50" d="M182.4,245.8c2.5-7.2-6-13-11.6-7.4C164.4,246.3,176.6,257.7,182.4,245.8z"/>
		<path class="st51" d="M109.6,87c-7.1,21.8,3.2,44.8,1.6,65.4c2.5-20.5,2-25.7-0.9-37.4C109.4,107.2,108.9,94.7,109.6,87z"/>
		<path class="st51" d="M245.5,143.1c2.2,16.1,4.8,34.9,3.8,52.5l-0.3-1.3c-0.9-10.9-1.1-24.4-5.9-34.5
			C244.8,155.4,245.1,147.9,245.5,143.1z"/>
		<path class="st51" d="M212,206.8l-2.5-2.2c0.2,0,4.4-2.2,4.7-2.4c1.2,0.9,2.4,1.8,3.5,2.8l-3.5,2.6c-0.1-0.1,2.9,5.5,3.5,3.4
			C214.6,213.6,213.8,207.9,212,206.8z"/>
		<path class="st51" d="M117.3,187.2c0.2,1.2,2.7,0.3,6.4-0.4c4.7-0.8,9.5-0.8,14.2,0c5.3,0.9,7.1,1.7,7.8,0.5
			c-0.8,4.5-14-0.7-16.8,0.4c-4.9,0.5-8.6,1.3-11.6,1.1l-0.2-0.6L117.3,187.2z"/>
		<path class="st51" d="M65.7,164.6c-2.1,6.4-3.4,13-4.1,19.7c-22.7-5.5-30.2,32.2-15.9,47c9.4,12.8,20,25.5,32.1,26.2
			c-4.5-4.6-8.8-11.4-10.4-17.6c-39.6-3.1-31.4-58.9-3-52.4C63.9,185.6,64.9,166.7,65.7,164.6z"/>
		<path class="st51" d="M28.8,223.1c-3.7,2.7-23.1,9.6-24.2,9.8c4.7,1.2,8.7-0.2,12.7-0.3s9.4-3.6,13.4-4.9L28.8,223.1z"/>
		<path class="st52" d="M147.2,51.9c37.7,4.3,60.7,43.7,57.8,79.4C206.1,95.8,184.2,57.9,147.2,51.9z"/>
		<path class="st52" d="M116.7,57c-1.6,27-4.1,55.6,7.7,80.9C111,113.2,113.4,83.9,116.7,57z"/>
		<path class="st52" d="M80.5,59.8c-20.6,16.5-35.1,40-38.7,66.3C43.7,99.5,58.8,75.1,80.5,59.8z"/>
		<path class="st52" d="M38.1,121.9c-0.6,19.1-2.6,38.8,2.5,57.5C33.8,161.1,35.8,140.9,38.1,121.9z"/>
		<path class="st52" d="M61.6,173.7c-0.9-14.5,3.2-29,8.3-42.4C66.4,145.3,62.4,159.3,61.6,173.7L61.6,173.7z"/>
		<path class="st52" d="M132.1,54.3c12.1,15.4,17.5,35.7,18.2,55.1C147.9,90.2,142.7,70.6,132.1,54.3z"/>
		<path class="st52" d="M152,88.9c6,17.1,6.6,35.7,4.8,53.5C156.9,124.5,156.4,106.4,152,88.9z"/>
		<path class="st52" d="M123.2,53.2c5.9,12.9,7.5,27.4,8.8,41.3C129.1,81,127.5,66.5,123.2,53.2z"/>
		<path class="st52" d="M88.5,57c-9.8,9.4-19.7,19.4-25.4,31.9C67.3,75.6,77.6,65.1,88.5,57z"/>
		<path class="st52" d="M65.7,65.2C59.9,71,55.5,77.9,50.4,84.3C54,77,58.8,69.8,65.7,65.2z"/>
		<path class="st52" d="M101.9,55.6C97.8,72.1,95.6,89,95.3,106C93.9,88.9,96.2,71.7,101.9,55.6z"/>
		<path class="st52" d="M93.6,57c-3.7,7.6-6.5,16-9.7,23.8C85.6,72.4,88.4,63.8,93.6,57z"/>
		<path class="st52" d="M111.4,57c0,6-0.7,12-2.1,17.8C109,68.8,109.7,62.8,111.4,57z"/>
		<path class="st52" d="M141.8,55.6c7.6,3.7,13,11.2,15.4,19.2C153.3,67.5,148.4,60.7,141.8,55.6z"/>
		<path class="st52" d="M211.5,117.9c2.7,26.9,0.8,59.8-20.5,79.2C210.9,176.7,212.5,144.9,211.5,117.9z"/>
		<path class="st52" d="M199.6,193.7c-5.2,7.6-14.8,11-23.5,12.8C184.3,203,193.1,200,199.6,193.7z"/>
		<path class="st52" d="M233.7,101.7c10.3,22.1,10.3,47.5,0,69.6C242.3,148.9,242.3,124.1,233.7,101.7z"/>
		<path class="st52" d="M233.7,157.5c-2.1,13.8-8.4,27-19.1,36.2C224.1,183.4,230,170.8,233.7,157.5z"/>
		<path class="st52" d="M98.5,96c1.4,23.2,5.8,47.4-1.8,70C102.6,143,98.3,119.3,98.5,96z"/>
		<path class="st52" d="M105,146.1c-0.8,20.8-12.4,38.4-21.1,56.7C91,183.9,102.6,166.6,105,146.1z"/>
		<path class="st52" d="M150.3,55.6c11.9,3.8,23.1,13.1,27,25.2C171.8,69.4,161.5,61,150.3,55.6z"/>
		<path class="st52" d="M210.7,81.8c12.1,10.8,20.5,26.5,20.8,42.9C229.4,108.6,221.5,93.8,210.7,81.8z"/>
		<path class="st52" d="M34.1,216.2c-7.9-16-8.2-34.7-8-52.1C27.6,181.5,27.8,199.6,34.1,216.2z"/>
		<path class="st52" d="M34.1,185.7c-5-14.3-4.6-29.9-2.7-44.7C31.2,155.9,30.8,171,34.1,185.7z"/>
		<path class="st52" d="M114.7,33.1c-2.1-9.5-10.6-15.7-17.9-21.4C105,15.9,114.3,23.1,114.7,33.1z"/>
		<path class="st52" d="M98.5,35.6c-5.9-7.6-17-10.7-26.3-9.7C81.3,23.1,94.1,26.9,98.5,35.6z"/>
		<path class="st52" d="M127.6,35.6l4.4-8.5C132.2,30.5,130.5,33.8,127.6,35.6z"/>
		<path class="st52" d="M123.2,33.9c0.5-2.8,0.9-5.7,1.1-8.6C125.8,28.1,125.3,31.5,123.2,33.9z"/>
		<path class="st52" d="M105.7,33.9c-1.1-4.5-3.9-8.2-7.1-11.5C102.9,24.3,106.3,29.1,105.7,33.9z"/>
		<path class="st52" d="M80.5,47.1c-10.8-3.9-24.7-2.3-32.2,7.2C54.5,43.5,70.2,41.4,80.5,47.1z"/>
		<path class="st52" d="M88.5,41.6c-6-3.8-13-5.2-20-6C75.5,34.7,83.6,36.4,88.5,41.6z"/>
		<path class="st52" d="M58.1,54.3c-9,7.6-14,18.9-17.5,30C42.3,72.8,47.9,60.6,58.1,54.3z"/>
		<path d="M122.3,482.6c3.7-2.9,5.1-5.8,0.6-7.9l-0.4,1.1c3.5,1.4,1.4,3.9-0.5,6.6C121.7,482.8,122,482.8,122.3,482.6z"/>
		<path d="M83.1,480.2c3.6,2.5-4-3.2-0.2-5.1l-0.6-1C79.4,475.8,80.9,478.4,83.1,480.2z"/>
		<path d="M89.3,490.8l1.2-0.3c-0.6-7.2-3.4-6.6-8.3-9.5c-0.4-1.2-0.8-2.9-0.4-3.5l-1-0.7c-1,1.5-0.1,4.1,0.1,4.8s4.5,2.7,6.3,3.5
			S88.8,488.8,89.3,490.8z"/>
		<path d="M81.8,492.2l1.1-0.5c-1.8-5.2-3.8-9.7-1.2-10.4l-0.4-1.1C77.3,481.7,79.7,485.9,81.8,492.2z"/>
		<path d="M146.7,474.8c0.6-1.4,0.7-4.3-1.4-4l0.2,1.2c0.4,0.2,0.4,1.5,0,2.4L146.7,474.8z"/>
		<path d="M103,492.2c1.5-4.8,8.2-2.5,13.2-4.4c8.4-2.7,10-4.1,8.6-8.7l-0.9,0.8c0.7,3.9-1.1,4.5-7.9,6.8c-5.2,1.7-13-0.1-14.1,5.4
			L103,492.2z"/>
		<path d="M92.9,537.6c10-0.3,17.5-2.9,22.5-9.6c2.3-2.3,11.3-13.4,11-16c-6.4-19.9,5.1-28.3-1.5-30.9l-0.4,1.2
			c3.9,1.6-2.8,11.1-1.5,17.6c-0.1,9.8,5.6,9.5-1.5,18.7c-6.5,7.6-8.1,13.1-18.2,16.3c-8.4,4.1-37.9,0.4-36.7-15.9
			c-3.4-25.1,27.3-21.2,38.6-9.8c-5.3-10.1-25-14.3-34.8-6.6c-6.6,5.8-4.9,16.2-4.9,17.3C64.5,530.3,81,538,92.9,537.6z"/>
		<path d="M124,533.7c0.7,0,1.2-0.1,1.4-0.4c3.3-3.3,3.1-6.9,3.3-12.7s1.9-9-2.9-9.8v1.2c3.5,0.5,1.5,3.8,1.8,8.6s0.7,7.6-3,11.9
			c-0.7,0.1-1.5,0-2.2-0.2l-0.2,1.2L124,533.7z"/>
		<path d="M117.2,543.2c3.6-1.4,4.1-8.9,6.7-12c1.4,3.1,1.3-5,1-3.9c-2.1,3-3.7,6.3-5,9.7c-1.5,2.7-1,5.7-4.2,4.8l-0.2,1.2
			L117.2,543.2z"/>
		<path d="M95.3,540.2c7.4,0.6,18.4-3.2,21.5-10.3c3.1-4.2,9.4-13.7,9.4-15.5c-10.4,17.4-15.9,27.9-39.5,24.1
			c-8.1-1-17.3-4.3-20.3-10.4C67.8,535.1,85.8,540.9,95.3,540.2z"/>
		<path d="M112,547c4-1,3.7-2.3,3.6-6l1.2-1c0.1,0.5,0.2,0.9,0.3,1.4c0.3,0.9,1.6-4.3,0.9-4c-1.3,0.9-2.5,2-3.6,3.1
			c0,0.4-0.1,3,0,4.1c-1.6,1.3-2.9,1.4-4.9,0.8l-0.2,1.2C110.2,546.7,111.3,547,112,547z"/>
		<path d="M92,549.9c5.3-0.1,10.6-0.4,15.9-1.1c2.6,0.1,2.1-2.1,2.1-3.9l1.5-0.7c1.1-0.6-0.2,2.6,1.2,0.6c0.2-0.5,0.8-2.8,0-2.5
			l-3.9,1.8v3.3c-10.8,2-40.1,3.2-44.7-11.2c-0.3-3.6-1.7-11.5,2.7-12.7l-0.4-1.1c-5.1,1.1-4,10-3.5,14.2
			C64.7,546.4,82.8,549.7,92,549.9z"/>
		<path d="M102.9,501.5c-1.5-1.5-6.1-4.1-6.3-3.8l-0.5,0.6c-6.2-13.8,28.3-5.3,26.5,4.9C120.8,513.4,106.3,506.1,102.9,501.5z
			 M97.7,493.1c-1.3,0.2-1.5,1.3-1,3.3c1.4,0.1,5.1,2.4,7,4.1c3.2,3.5,14.5,9.1,17.6,2.5C120,494.2,105.4,491.2,97.7,493.1z"/>
		<path d="M117,504c1.4-0.7,1.9-1.3,1.8-2.4c-1.2-8.2-19.3-9-23.3-7.2l0.6,1.1C99.1,493.7,120.9,495.1,117,504z"/>
		<path d="M114.3,504c2.8-0.1,4.4-1.3,4.2-3.5l-1.2,0.2c-4.3,7.3-14.2-5.7-20.5-6.7l-0.4,1.2C103.6,497.1,107.1,503.8,114.3,504z"/>
		<path d="M96.1,498.6c0.7,0,1.4-0.3,1.9-0.7l-0.8-0.9c-5,2.5-3.6-9,0.9-4.2L99,492C93.6,486.8,89.6,497.8,96.1,498.6z"/>
		<path d="M93,498c0.5,0,1-0.2,1.5-0.4l-0.6-1l0.3,0.5l-0.3-0.5c-4.1,1.5-3.2-7.2,1-4.6l0.7-1C90.6,487.5,87.4,497.4,93,498z"/>
		<path d="M108.3,502.1l1.1-0.4c-0.8-2.5-4.1-7.4-8.2-8.1l-0.2,1.2C104.3,495.4,107.4,499.5,108.3,502.1z"/>
		<path d="M108.8,516h1.4c2.6-1.7,1.1-6.4,0.4-10.7l-1.2,0.3c0.7,3.7,1.7,7.4,0.4,9.1c-3.1,0.9-1.7-7.6-2.8-11.5l-1.2,0.2
			C107.1,508.3,105.2,515,108.8,516z"/>
		<path d="M108.4,523.5c2.6,0.3,1.7-7.4,2.3-8.1h-1.2c-0.3,0.2-0.2,6.8-1.1,7.1s0.7-7.2,0.5-7.2h-1.2
			C108,515.9,105.2,523.5,108.4,523.5z"/>
		<path d="M103.1,504.7c1.2-0.3,2-1.8,0.7-4l-1,0.7c0.5,0.6,0.6,1.5,0.1,2.1c-2.4-0.8-4.4-2-7.6-2.7L95,502
			C98.4,502.6,100.7,504.2,103.1,504.7z"/>
		<path d="M85.8,499.8c1.9-1,3.9-1.7,6-2.3v-1.2c-2,0.2-6.3,2.3-6.5,2.4L85.8,499.8z"/>
		<path d="M77.5,498.6c1.4-5.1,9.7-2.3,13.4-2.3v-1.2c-3.7-0.1-14.2-3-13.6,3.4c0.1,0.7,0.2,0.5,0.3,0.1H77.5z"/>
		<path d="M74.8,500.3l1.7-0.4c-0.8-2.1-1.4-3,3.6-5.9s12-2.2,12-2.2l0.2-1.2C91,489.3,70.7,493,74.8,500.3z"/>
		<path d="M79.7,499.9l0.4-1.2c-0.8-0.2-1.3-1.1-1.1-2c0-0.1,0.1-0.3,0.2-0.4l-0.7-1C76.9,496.6,77.8,499.5,79.7,499.9z"/>
		<path d="M81.7,499.5c1-0.9,4.3-3.4,7.2-3.5l-1-0.9c-2.6,0.8-5,2-7.1,3.6L81.7,499.5z"/>
		<path d="M82.8,497.6H84c-0.1-0.9-0.2-1.9-0.4-2.8l-1.2,0.3C82.6,495.9,82.7,496.8,82.8,497.6z"/>
		<path d="M100.7,499.8l0.6-1c-1.6-0.7-3.3-1.2-5-1.4l-0.2,1.2C97.7,498.8,99.2,499.2,100.7,499.8L100.7,499.8z"/>
		<path d="M84.5,516.1c-2.1-1.9-7.7-3.4-11.1-1.9c-0.9,0.4-0.3,0.2,0.1,0.1c1.7-0.3,3.4-0.3,5.1-0.1c1.9,0.3,3.8,0.9,5.6,1.8
			C84.7,516.4,85.1,516.5,84.5,516.1z"/>
		<path d="M104,489.4l1.2-0.4c-1.8-2.4-12-5.8-16.9-4.1l0.8,0.9C90.2,484.3,104.7,488.6,104,489.4z"/>
		<path d="M88.3,491.3h0.6c-0.7-6.1-2.9-5.2-7-8.1c-0.2-0.2-1-0.8-0.3,0c3.6,3.6,6.1,1.8,6.7,8.2L88.3,491.3z"/>
		<path d="M103.2,490.4l0.4-0.5c-1.9-1.4-10.7-4.5-14.6-3.6v0.6C92.7,486.1,101.3,489,103.2,490.4L103.2,490.4z"/>
		<path d="M104.5,492c0.1-1.7,6.7-1.9,9.6-2.6c5.4-0.8,11-3.9,10.1-4c-2.2,3.2-19,3.3-20.3,6.4L104.5,492z"/>
		<path d="M163.7,533.9c8.2-0.7,22-2.9,22.1-12.6c0-6.9,1.8-9.9-3.6-11v1.2c4.3,0.8,2.3,4.7,2.5,9.7c0.1,10-19.2,12.5-26.2,10.9
			c0.1-0.9,0-1.7-0.1-2.6l-4.8-1.3c-0.8-0.2-0.7,1.7-0.7,2.3s0.2,0.6,0.3,0.2c-0.1-2.3,3.1-0.2,4.1-0.2v2.7
			C159.4,533.7,161.5,533.9,163.7,533.9z"/>
		<path d="M152.4,532.9c1.3,0,4.5-2.2,5-2.5l-0.7-1c-3.4,2.7-5.8,2.5-9.9,1.2c0-0.9,0.1-1.8,0.4-2.7c-0.1-0.1-5.3-1.4-5.6-1.7
			s-1.1,1.3-0.7,2.2s0.6,0.2,0.5,0c-0.8-1.9,3.6,0.4,4.4,0.4C144.5,532.7,149.2,532.2,152.4,532.9z"/>
		<path d="M141.4,530.1c1.1,0,2.9-1.1,4.2-1.6l-0.5-1.1c-5.6,4.4-12.2-3.6-17.2-5.7l-0.4,1.1C131.3,524.5,136.8,529.8,141.4,530.1z"
			/>
		<path d="M140.4,502.3c0.6-1.2,1.5-2.2,2.6-3l-0.4-1.2C141.1,498.4,137.4,507.2,140.4,502.3z"/>
		<path d="M164,522.1c36.5-1.4,14.8-40.5-19.4-25.2l0.6,1.1c39.5-16.5,53.7,33.3,7.2,20.5c-6.3-1.3-18.8-5.3-24.2-5.4v1.2
			C136.9,514.6,153.9,521.2,164,522.1z"/>
		<path d="M131.8,497.9c-3.7-6.4,5.2-19.8,14.5-14.4c1.2,1-0.5,4.8-1.3,6.8c-1.4,4.4-3.8,9.7-9,9.3
			C134.4,499.8,132.8,499.2,131.8,497.9z M143.7,483.5c-9.2-1.8-17.5,16.3-6,14.9c3.5-0.6,5-4.9,6.3-8.4S147.3,483.7,143.7,483.5z"
			/>
		<path d="M136.4,497.9c0.6,0.1,3.5-2,1.6-1.1c-4.4,1.2-3-3.7-1.1-6.7s6.5-3.9,9.1-6.1l-1-0.7c-2.8,1.8-6.5,2-9.2,6.2
			C134.2,491.8,132,498.2,136.4,497.9z"/>
		<path d="M135.3,497.3c5,0.2,9-10.1,9.2-12.8h-1.2c0,2-4.5,12.6-8.3,11.5l-0.2,1.2L135.3,497.3z"/>
		<path d="M145.6,488.4c6-1,1.5-11.2-3.5-5.9l0.8,0.9c3.6-3.9,6.7,3.2,2.5,3.8v1.2H145.6z"/>
		<path d="M147.6,488.2c5-0.5,2.6-10.8-2.4-7l0.8,0.9c3.5-2.8,4.5,5.5,1.2,4.7l-0.4,1.1C147,488.1,147.3,488.2,147.6,488.2z"/>
		<path d="M158,494.6c3.5-4.8-3.4-15.2-9.2-13.5l0.3,1.2c4.8-1.4,10.8,7.8,7.9,11.7L158,494.6z"/>
		<path d="M154.9,494.9c2.2-4.1-0.8-11-5.1-11.9l-0.2,1.2c3.9,1.5,5.9,5.9,4.4,9.8c0,0.1-0.1,0.3-0.2,0.4L154.9,494.9z"/>
		<path d="M144.1,492.4c3.4-1.4,9.6-1.6,5.4-6.2l-0.8,0.9c3.1,3.6-2.9,2.7-5.1,4.2L144.1,492.4z"/>
		<path d="M144.6,494.7c2.3-0.8,4.7-1.4,7.1-1.6c0.5-1.3-0.6-3-1.7-3.6l-0.6,1c0.5,0.4,0.9,0.8,1.2,1.4c-2.2,0.3-4.3,0.9-6.4,1.6
			L144.6,494.7z"/>
		<path d="M153,495.1c0.3-1.7-0.5-2.9-1.6-3.1l-0.3,1.2c0.7,0.3,1,1,0.7,1.7l0,0L153,495.1z"/>
		<path d="M152.8,493.4c0.8-3.9-1.1-8.3-2.8-9.1l-0.5,1.1c1.2,0.5,2.8,4.3,2.1,7.7L152.8,493.4z"/>
		<path d="M140.4,492.4l1.1-0.4c-0.6-1.6-0.9-4.2,0-5.9l-1.1-0.5C139.4,487.6,139.7,490.5,140.4,492.4z"/>
		<path d="M144.1,510.4c5.1-2,1.6-14.2,0.2-18.4l-1.2,0.2c0.6,2.9,1.9,4.9,2.1,8.4s0.7,10.3-2.4,7.9c0.9-3.8,0.8-9.7-0.5-12.7
			l-1.1,0.4c1.2,3.5,1.4,7.2,0.6,10.8C141.2,509.3,142.4,510,144.1,510.4z"/>
		<path d="M139.9,516.6c1.7,0,4-6.3,4.6-6.7l-1.1-0.6c-0.4,0.1-2.9,6.1-3.8,6s3.5-6.3,3.2-6.4l-1-0.6
			C141.7,509.4,135.4,516.2,139.9,516.6z"/>
		<path d="M140.1,483.2h1.2c0.5-10-9.8,0.3-16.4-4.6l-0.6,1C132.2,484.8,140.8,475.2,140.1,483.2z"/>
		<path d="M147.1,481.3c1-5.6,1.5-10.5-5.4-5.3c-1.5,0.9-3.7,1.2-3.8,3.1h1.2c0.3-1.3,4.8-2.5,5.5-3.6c3.2-2.2,1.4,3,1.3,5.6
			L147.1,481.3z"/>
		<path d="M130.8,482.9c4.1,0,7.3-1.8,7.6-2.2c-1.2,0.6-6.1,2.7-13.1,0.9l-0.2,0.6C127,482.6,128.9,482.9,130.8,482.9z"/>
		<path d="M141.5,479c0.7-0.6,4.7-3.3,4.9-2.2s0.3,0.3,0.4-0.4h0.6C146.8,474.3,141.6,478,141.5,479z"/>
		<path d="M164.9,524.1c8.5,1.1,18-5.2,18.6-9.9c0.6-1.5-0.2-0.4-0.3-0.1c-12.8,19.4-36.4,2.8-54.9,1.1v0.6
			C146.3,518,147.6,522.9,164.9,524.1z"/>
		<path d="M168.8,504.9c2.3-1.3,4.7-2.2,7.3-2.7c0.3,0,0.9-0.2,0-0.2C173.2,501,166.1,506.2,168.8,504.9z"/>
		<path d="M119.4,424.4c-26.8-3-44.2-10.9-64.1-30.3c-3.6-2.4-0.6-4.9-0.3-8.7c3.7-14.8,9.1-41.1,10.7-56.1h1.2
			c-1.6,15-7,41.4-10.7,56.2c-1.4,7.1-3,5.4,3,10.1c14.9,15.6,37.3,24.1,57,26.1c14.1,4.6-4.1-65.4-3.6-73.3h1.2
			C114.2,361.6,129.5,417.5,119.4,424.4L119.4,424.4z"/>
		<path d="M132.9,454c-22.3-1.8-37.3,2.2-60.2-5.5c-6.4-2.3-17.8-5.4-19.9-8.1s-2-5.2-0.8-10.5c2.6-11.4,5.6-27,6.8-33.2l1.2,0.2
			c-1.2,6.2-4.2,21.9-6.8,33.3c-4.8,11.6,7.4,12.6,19.8,17.1c14.3,4.9,24.2,4.9,36.7,4.8c17.8,1,46.6,1.5,56.5-10.8
			c5.4-5.3-0.5-19.6-0.9-31.4l1.2-0.2c0.4,12.6,6.6,26.2,0.6,32.4S148.1,454,132.9,454L132.9,454z"/>
		<path d="M171.7,214.6c16.5-4.7,32-11.2,39.3-23.9c-11.4,15.6-31.4,22.8-50.9,22.2c18.1-25.9,18.5-55.7,7.7-76.1
			c3,14.6-9.5,27.3-8.3,40.1c-4-4.4-4.2-13.8-4.1-20.2c-1.6,6.8-3.2,24.3-3.2,24.3c-9.9-15.3-13.8-37.5-8.8-55.1
			c-7.3,8.8-9.4,22.7-7.8,34.6c-20.3-17.5-31.5-48.2-26.1-72.2c0.2-2.5,0.7-2.4,0.6,0.2c-1.9,21.5,4.9,50.1,23.2,66.6
			c-1.1-12.7,3.7-25.3,13-34c-6.5,18-4.7,37.9,5.1,54.4c-0.3-8.3,4.8-27.4,5.1-28.1s-0.9,16,1.7,22.8c2.5-11.8,12.4-24.1,7.4-37.5
			c15.5,16.6,15.3,52.8-2.3,78.9c22.8,0.1,43-12.1,52.5-30.2c-1.4,14.6-19.1,27.1-35.8,32.1c33.4-1.5,64.2-36.6,64.6-67.7
			c0.1-0.9,1.1-5.4,1.1-0.3C247,181.1,208.4,219.9,171.7,214.6z"/>
		<path d="M82.4,231.3c-7.5-5.7-9.3-24.2-8.7-38.6c-2.2,13.3,0.2,24.6,1.8,31.2c-9.3-9.9-14.7-40.8-9.9-58.5
			c-2.1,15.7,1.9,44.1,7.4,52.7c-1.7-8.9-2.6-26.1,3.4-36.2c-2.9,12.5-1.8,36.3,4.2,45.7c-0.5-7.6,4.8-17.2,11.4-29.2
			c18.7-26.9,23-66.5,18.2-85.3l1.2-0.2C124,181.5,80.7,197.7,82.4,231.3z"/>
		<path d="M151.1,277.5c-12.2,0.6-23.8-11.4-25.4-17.2c6.4,9.8,22.4,20.1,40.5,11.9C171.4,271.1,153.1,278.8,151.1,277.5
			L151.1,277.5z"/>
		<path d="M122.4,259.1c-0.8-3,3.4-4.2,4.9-2.9C126.7,256,122.4,256.9,122.4,259.1z"/>
		<path d="M147.8,284c-3.8,0-7.5-1.3-10.6-3.5c-0.5-0.3-1.9-1.6,0.2-0.4c3.9,2.2,8.4,3.2,12.9,2.6
			C155.8,281.9,149.1,284.2,147.8,284z"/>
		<path d="M164.5,262c0.4-11.4-18.5-15-26.8-8.9c-1.4,0.9-0.7,0-0.2-0.5c9.4-10,34.4-1.9,26.8,12.3
			C164.1,264.6,164.6,263.8,164.5,262z"/>
		<path d="M162.7,355.2c-12.6,0.1-28.5-8.6-37.8-13.1l1.4-1.7c7.7,3.8,20.4,10.6,31.1,12.3c19.9,3,37.9-13.6,28.8-32.8
			c-2.5-7.3-14.4-15-33.6-24l1.8-1.4c19.6,9.2,30.4,17.4,33,25.1s5.7,18.9-3.3,26.3C177.4,351.2,170.9,355.2,162.7,355.2
			L162.7,355.2z"/>
		<path d="M164.5,317h-1.2c0.4-1.9,1.7-3.5,3.4-4.3c0.8-0.4,0.9-0.2,0.2,0.1S165,314.9,164.5,317z"/>
		<path d="M144.8,345.2c-4.1,0.1-8.2-0.9-11.8-2.9c-2.5-1.4-2.7-1.9-0.7-1C132,342.7,156,344.8,144.8,345.2z"/>
		<path d="M164.6,349.1c5.5-1.2,12.4-5,16-9.3c0.3-0.3,1.7-2.1,0.4,0.1c-3,5.2-10.3,9.3-16.5,9.6
			C164.2,349.5,163.2,349.3,164.6,349.1z"/>
		<path d="M164.9,373.2c1.5-5.2,1.2-10.7-0.7-15.8c-0.1-0.3-1-2.3,0.3-0.2c2.8,4.5,3.4,11.6,0.7,16.3
			C165.1,373.8,164.5,374.3,164.9,373.2z"/>
		<path d="M105.3,344.4c-3.2-0.4-0.3-0.4,0.1-0.4c2.6-0.1,5.2-0.6,7.7-1.6c2.6-1,5.1-2.4,7.4-4c0.5-0.3,2.5-2,0.6,0.1
			C117.4,342.9,110.7,345.1,105.3,344.4z"/>
		<path d="M122.4,314.2c-2.2-1.1-4.7-1.8-7.2-2c-1.3,0.1-1.3-0.9,0.2-1.2s6,0.8,7.6,2.1S123.9,315.2,122.4,314.2z"/>
		<path d="M118.2,324.4c-1.4,9.2-1.1-8.7-2.6-9c-1.2-2.2-0.4-1.8,0.9-0.8S118.7,320.4,118.2,324.4z"/>
		<path d="M93.5,294.1c-1.4-3.8-5.7-7.6-9.9-9.1c-0.4-0.1-0.3-0.5,0-0.4c4.5,1.6,9.9,4.7,11.5,8.9L93.5,294.1z"/>
		<path d="M87.2,292.3c-1.4-1.6-10.6-0.6-7.1-1.8c1.6-0.3,5.6-0.8,7.8,1.4S89.4,293.6,87.2,292.3z"/>
		<path d="M92.5,291.4c-0.5-2.5-1.3-5-2.6-7.2c0.1-1.8,3.6,4.8,3.8,6.9L92.5,291.4z"/>
		<path d="M104,351.2c-41.8-6-66-50.3-39-72c5.8-5.2,33.3-0.9,39.1,0.6l-0.3,1.7c-5.3-1-32.5-6.1-38.1-1.4
			C47,298.2,50,320.7,84.8,343.5s49.7-22.2,82-27.7c0.8-0.2,3.6-0.4,0.4,0.5c-13.7,3.8-26.9,13.9-36.2,22.2S114.9,351.3,104,351.2z"
			/>
		<path d="M181.8,327c-0.5-2.9-5.3-7.5-8.3-7.9s-2.1-0.5,0.2-0.7s2.7,0,5,1.9s3.7,4.5,3.7,6.4S182.1,328.5,181.8,327L181.8,327z"/>
		<path d="M130.7,304.5c-8.4,1.7-22.2-16.5-24.4-21.7l2-0.5c1.9,4.6,12.3,22.9,24.2,20.9s12.5-8.6,12.5-8.9l1.8,0.2
			C147.5,295.1,142.5,304.2,130.7,304.5z"/>
		<path d="M111.1,306.2c-0.1-5.9-5.2-18.9-4.8-24.2h1.2c-0.2,5.7,5.1,18.8,5.4,24.8L111.1,306.2z"/>
		<path d="M158.1,416.8c-3.1,0.4-0.2-17.4-2.2-28.7s-4-30.7-6.8-36.3l1.1-0.5c5,10.3,8.9,53,7.9,63.3c2.8,0.7,14.9-11.2,15.6-14.8
			c1.6-7.4-6.3-39.7-8.8-46l1.1-0.4c2.5,6.5,10.5,39,8.8,46.5C173.8,404.6,162.5,415.3,158.1,416.8L158.1,416.8z"/>
		<path d="M117.8,422.8l-0.6-0.2c5.2-25.4-5-50.8-6.5-73.6h0.6C112.9,371.9,123.1,397.2,117.8,422.8z"/>
		<path d="M160.4,414.9h-0.6c1.5-9.4-3.7-53.1-7.7-62.5l0.6-0.2C157,363.5,161.8,405.1,160.4,414.9z"/>
		<path d="M160.3,412.3L160,412c4.7-2.4,11.6-9.6,14.2-14.3l0.5,0.3C172.1,402.9,165.1,409.8,160.3,412.3z"/>
		<path d="M118.2,419.8c-35.8-5.3-43.4-11.9-63.7-29.8l0.3-0.5c20.3,18.1,27.5,24.6,63.5,29.7L118.2,419.8z"/>
		<path d="M157.2,297c-31.7-0.5-58.8-13.1-78.1-37.2c-6.8-7.9-12.3-14.7-12.8-19.6c-35.6-0.2-34.8-61.2-1-53.3l-0.4,1.2
			c-31.4-5.7-32.6,52.6,3.7,50.1c0.2,9.5,16.9,31.1,39.6,43.7c30.5,17,95.9,23.2,82.8-27.7c16.3-15.8,53.3-70,51.6-93.5h2.2
			c1.5,23-33.7,76.9-51.9,93.9C198.5,277.9,186.9,298,157.2,297z"/>
		<path d="M64.9,232.6c-2.3-3.6,0.6-6.2,4-6.5c1.9-7.4-9.4-23.9-16.2-20.3c-0.7,0.2-2.1,0.4,0.2-0.3c8-4.8,22,15.1,16.5,21.8
			C62.2,227.8,66.2,234.1,64.9,232.6z"/>
		<path d="M57,216.2c-0.1-3.3,1.6-7.8,4.4-8.9l0.8,1.4c-2.4,1-4.5,4.4-4.9,7.3C57.2,216.4,57.1,218.6,57,216.2z"/>
		<path d="M70.5,262.9C4.4,244.2,1.6,118.2,50.2,72.9C81.7,39,141.5,42.4,181.6,56.2c62.1,18.4,89.4,87.2,66.5,144.9
			c1.6-17.4-5.1-43.1-5.2-41.8l1.2-1.8c3.3,11.8,5.2,23.9,5.4,36.1c11.4-36,3.9-78.3-18.8-104.3C182.4,34.8,48.2,22.6,24.4,119.8
			c-13.7,51.1-6.6,114.6,40.4,140.3c-5-4.8-8-11.2-8.5-18.1c3.3,6.9,11.8,13.2,21.8,15.1l-0.2,1.2c-7.5-1.4-14.3-5.2-19.5-10.8
			C60.4,254,64.7,259.4,70.5,262.9z"/>
		<path d="M5,234.5l-4.6-0.3c9.3-4,17.6-15.2,19-18.9c-3.6,1.7-7.3,3.1-11.1,4.2c6.6-5.1,11.1-12.4,12.7-20.5l1.2,0.3
			c-1.3,6.5-4.4,12.4-8.9,17.2c6.5-2.6,5.9-2.6,8.4-4.1c-1.1,2.4-3.2,11.7-15.4,19.9c11.4,0.2,24.4-6.1,24.4-6.2l1.6,1.7
			C31.9,228.3,16.9,234.5,5,234.5L5,234.5z"/>
		<path d="M83.2,52.7l-2.6,0.8c5.9-18.2,49.9-22.1,63.2-5.3l-3.3-0.2C133.1,34.4,88.3,35.6,83.2,52.7z"/>
		<path d="M31.5,100.7c-1.9-23.1-1.8-65.2,21.7-81.5c40.6-23.6,84.2-8.8,96.1,29.7h-2.6C136.7,13.2,93-3.7,54.1,20.2
			c-23,16-22.5,54.6-20.7,77.4L31.5,100.7z"/>
		<path d="M104.5,323.4c-12.3-1.1-5.4-20.2,3.7-19.1c7.5,0.7,5.9,7,3.1,12.2C109.9,319.9,108.9,323.5,104.5,323.4z M108.2,305.5
			c-7.6-1-14.2,15.7-3.7,16.7c3.9,0,4.3-3.3,5.7-6.2C112.4,311.5,114.8,306.3,108.2,305.5z"/>
		<path d="M95.9,318.4c-15.3-2.6,2.6-26.2,11.5-13.8l-1,0.7c-2.2-4.7-9.7-2.3-11.4-0.5c-5.4,3.5-5,14.9,3.4,12l0.3,1.2
			C97.8,318.3,96.8,318.4,95.9,318.4L95.9,318.4z"/>
		<path d="M90.5,310.9c-12.6-9.6,14.3-23.5,14.4-8.3h-1.2c0-12.6-22.9-0.6-12.7,7.3L90.5,310.9z"/>
		<path d="M107,319.3c-1.9-0.9-4-1.5-6.1-1.7c-0.3,0-0.6-0.2-0.6-0.8C101.7,309.5,110.9,314.8,107,319.3z M104.1,313.4
			c-1.5,0-3.3,2.3-3.2,3.6c1.8,0.1,5.2,1,6.1,1.7C107.9,317.2,106.9,313.5,104.1,313.4L104.1,313.4z"/>
		<path d="M96.2,314.7c-1.4-0.8-2.9-1.3-4.5-1.3c-0.4,0-0.7-0.1-1-0.4c-1-2,2-4.6,4.5-3.4S97.7,313.9,96.2,314.7z M91.8,312.8
			c1.5,0,3.1,0.4,4.4,1.2c0.7-1.3-0.2-4.6-2.5-4.5S90,312.7,91.8,312.8L91.8,312.8z"/>
		<path d="M91.3,306.9c-0.9-0.9-2.2-1.5-3.5-1.6v-0.6c1.3,0,2.5,0.5,3.5,1.4c2.4-2.1-0.8-6.6-2.9-2.7l-0.5-0.3
			C90.6,298.6,95,304.5,91.3,306.9z"/>
		<path d="M87.6,303.8c-7.2-8,10.9-14.8,13.6-7.6l-1.1,0.5c-2-5.8-17.5,0-11.6,6.3L87.6,303.8z"/>
		<path d="M88.9,301c-0.3-0.5-1.3-2-2.1-1.4l-0.4-0.5c1.1-1.1,3,1.3,3,1.6L88.9,301z"/>
		<path d="M90.8,299.7h-0.6c0-1.8-1-3.8-2.4-2.2l-0.4-0.4C89.1,295.4,91,297.5,90.8,299.7z"/>
		<path d="M155.5,320.5h-1.2c0.7-17.1-8.7-19.9-22.1-15.4c-6.3,1.4-15.5,3.1-19.3,5.8v-2c3.9-2.5,12.8-3.4,19-5
			c14.8-5.4,24.8,0.6,23.6,16.7V320.5z"/>
		<path d="M162.4,317.3c0-5-5.8-14.8-13.3-12.7v-1.2c8-2.5,15,9.1,15.2,13.6L162.4,317.3z"/>
		<path d="M78,364.8c-1.9-7.6-8.6-18.5-8.2-24.7C71.5,347.3,78.2,358.7,78,364.8z"/>
		<path d="M76.4,384.2c-3.3-7.9-8-28.5-9-36c-0.1-0.5-0.1-4.7,0.6-0.1C67.4,349.1,80.3,394.1,76.4,384.2z"/>
		<path d="M129.3,403.3c-2.6,0.1-5.3-0.1-7.9-0.6l0.2-1.2c9.2,1.5,24.9,0.4,35.3-5.8l0.6,1C149.3,401.7,137.6,403.3,129.3,403.3z"/>
		<path d="M82.7,351.1c-2.6-2.6-4.1-4.3-5.7-5.6s-1.1-1.4,0.7-0.6C79.1,344.1,89,357.1,82.7,351.1z"/>
		<path d="M148.1,303.4l-1.2-0.2c0.4-2,0.8-6-0.3-8.5l1.1-0.5C149.2,297.6,148.3,302.8,148.1,303.4z"/>
		<path d="M143.7,302.6l-0.7-0.4c4.1-4.4,3.4-7.8,3.3-7.8l0.6-0.2C146.9,294.4,148,298,143.7,302.6z"/>
		<path d="M125.4,306.2c-8.7-1.6-16.5-12.5-17.9-17.9l0.6-0.2c1.4,5.3,9,15.9,17.4,17.5L125.4,306.2z"/>
		<path d="M152.9,321.6h-0.6c1-5-3-19.9-12.7-18.5v-0.6C149,301.2,154.2,316.3,152.9,321.6L152.9,321.6z"/>
		<path d="M128.2,399.7c-2.4,0-4.7-0.1-7.1-0.4v-0.6c8,1.9,31.3-1.5,35.7-5.2l0.3,0.5C155.7,396,133.6,400.4,128.2,399.7
			L128.2,399.7z"/>
		<path d="M130.8,245c-19.5,0.3-14.9-39.8,3.1-41.5C155.5,201.4,149.7,245.6,130.8,245z M135.6,204.1c-18.2,0-23.4,39.4-4.7,39.7
			C147.6,245,154,203.8,135.6,204.1z"/>
		<path d="M176.6,259.3c-18.7,0.3-5.3-37.2,9.4-35.7C204.7,224.8,191.2,260.8,176.6,259.3z M186,224.2c-12-1.9-27.3,33.2-9.4,33.9
			C191,259.3,202.7,224.7,186,224.2z"/>
		<path d="M66.7,278.7c-2.8-16.4-0.6-17.2,13.2-19.3l0.2,1.2c-14.1,2.2-14.5,2.9-12.2,17.9L66.7,278.7z"/>
		<path d="M100.2,280.2c-5.5-3.8-21.8-10.6-26.9-15c-2.1-1.6-0.1-0.5,0.8,0c7.2,4.2,21.2,9.8,27.6,13.8L100.2,280.2z"/>
		<path d="M80.4,275c-3.2-0.4-7.2-1.2-9-2.5s-0.6-1,1-0.4c2.7,1,5.5,1.7,8.4,2.3C82.9,274.8,83.6,275.5,80.4,275z"/>
		<path d="M94.7,341.5c-9-2.1-22.1-10.3-28.1-18.1c-2.1-3-0.4-1,0.2-0.4c6.9,6.8,18.9,15.1,27.7,17.8
			C96.3,341.4,100.3,342.7,94.7,341.5z"/>
		<path d="M116.1,450.9c-17.9,0.6-36.6-2.3-51-8.6c-8.9-2.8-13.7-7.3-13.2-9.4h0.6c1.6,8.7,32.3,16,44.2,17.1
			c24.6,0.1,61.8,6.2,72.1-16.3h0.6c0.5,4-8.2,10.4-11.3,11.9c-10.9,6.2-25.4,5.1-42,5.5L116.1,450.9z"/>
		<path d="M104.2,462c2.5-0.4,4.9-1.4,6.9-2.9c1.6-1.2,1.4-1.4-0.2-0.5c-2.2,1.2-4.5,2.2-6.9,3.1C102.3,462.3,102.9,462.2,104.2,462
			z"/>
		<path d="M96.9,462.5c1.7,0.4,1.5,0.2-0.3-0.9c-1.9-1.3-3.7-2.8-5.3-4.5c-1.1-1.1-1.1-1-0.1,0.5S94.8,462,96.9,462.5z"/>
		<path d="M103.7,485.4c-14.8,0.2-20.9-4.1-24.4-17.7c-2.2-6-5.2-13.8-6.6-19.5l1.2-0.3c1.4,5.6,4.4,13.4,6.6,19.3
			c4.2,9.5,1.8,12.5,13.3,15.9c30.3,4.5,27.7-5,32.7-29.9l1.2,0.2C123.3,470.7,127,486.6,103.7,485.4z"/>
		<path d="M130.4,478.6c-1.8,0-3.6-0.2-5.4-0.7l0.3-1.2c6.1,2.1,20-1,21.2-10.5c1.6-5.2,4.4-12,6.1-16.6l1.2,0.4
			C148,462.8,148.6,478.5,130.4,478.6L130.4,478.6z"/>
		<path d="M79.8,450.2c-1-9.8,0.1-25.4,0.8-37.6h0.6c-1.2,11.7-1.8,28.1-0.8,37.2L79.8,450.2z"/>
		<path d="M139.1,453.5l-0.6-0.2c0.7-8.1-0.5-24.7,0.6-37.1h0.6C138.6,428.8,139.8,444.9,139.1,453.5L139.1,453.5z"/>
		<path d="M138.5,416.1c3-1.1,1.4-11,2.1-14.4h0.6c-0.7,2.8,0.8,14.9-2.1,14.8S137.7,416.3,138.5,416.1z"/>
		<path d="M137.7,415c-0.2-3.5-0.2-6.9,0-10.4c0.5-3.5,0.6,9.5,0.3,9.8S137.7,416.5,137.7,415z"/>
		<path d="M151.7,442.4c2.6-3.8,7-11.8,7.9-17.1c0.1-0.3,0.5-1.9,0.3-0.1c-0.5,5.7-4.6,14.1-8.1,17.6
			C150,444.6,151.3,443,151.7,442.4L151.7,442.4z"/>
		<path d="M161.3,430.8c0.1-1.1,0.8-17.3,1.3-8.3c-0.1,3-0.4,5.9-1,8.8C161,433.8,161.2,431.5,161.3,430.8z"/>
		<path d="M70.3,428.3c-4-4.8-8.6-16.3-7.7-20.5C62.9,413.6,68.1,423.9,70.3,428.3z"/>
		<path d="M74.2,440c-2.4-1.4-4.6-3.2-6.3-5.4c-1.5-2-1.5-2.4,0.2-0.5s4.8,4.3,6.4,5.6S76.3,441.1,74.2,440z"/>
		<path d="M114.2,440.4c-3,1.5-5.5,2.1-0.3-0.8s13.9-11.1,15.7-15.3c1.8-4.2,2.2-4.9,0.8,0.3C128.5,431.7,117.3,438.9,114.2,440.4z"
			/>
		<path d="M110.4,414.7c-3.8-1.1-13.4-2.7-16.3-4.2c0.7-3.8,1.5-12.7,1.8-16.7c1.1-1.8,17.9,2.2,17.3,3.7
			C112.4,401,112.9,414,110.4,414.7z M94.5,410.6c4.2,0.7,11.6,2.8,15.9,3.7c1.7-0.6,1.7-12.8,2.3-15.7s-12.8-4.2-16.5-5
			C96,397.8,95.1,406.7,94.5,410.6z"/>
		<path d="M142.8,189.8c-6.1-0.7-13.3-2.5-19.8-0.8c-2.4,0.4-6.8,1.7-6.5-1.7s9.7-5.4,15.1-6s12.8-0.1,14.3,3.6
			S145.8,189.6,142.8,189.8z M129.1,187c5.7-0.7,11.6,3.1,16.1,0.6c0.4-4-3.8-5.8-9.1-6C125,181.5,105,191.6,129.1,187z"/>
		<path d="M216.2,212.4c-3.2-1-4.3-7.1-7.5-7.4l0.4-1.1c2.4,0.9,4.4,3.1,6.1,6.5c0.2,0.5,0.7,0.8,1.2,0.8c4-2.2,0-7.8-3.3-9l0.6-1.1
			C219.2,203.5,221.6,210.9,216.2,212.4z"/>
		<path d="M149.1,458.3c1.1-0.2,2-1,2.4-2l-1.1-0.4C150.5,457,146.9,459.1,149.1,458.3z"/>
		<path d="M146.4,458.5c2.2,0.3-2.2-2.1-2.5-2.8S145.2,458.7,146.4,458.5z"/>
		<path d="M62,313.7c-9.8-11.7,12.2-22.5,16.1-10.3l-3.4,1.6c-2.6-7.2-16.2-0.3-10,6L62,313.7z M70.1,298.4
			c-7.6-0.4-13.4,9.1-8,14.9l2.3-2.2c-6-6.3,7.5-13.5,10.5-6.4l2.9-1.4C78.2,302.1,73.9,297.8,70.1,298.4z"/>
		<path d="M70.5,325.2c-1-0.8-1.8-1.8-2.6-2.8c1.1-1.5,5.2-4.3,6-4.9l-3-4.2c-2.1,1.3-4,2.8-5.6,4.6h-0.1c-0.7-0.9-1.5-1.8-2.4-2.6
			c2-1.8,10.7-8.7,15.8-10.1l1.7,2.8c-2.1,0.8-4.1,1.9-5.9,3.2l2.3,3.9c1.8-1.2,3.8-2.3,5.8-3.2l2.2,2.7
			C84.3,314.2,70.1,324.7,70.5,325.2z M68.2,322.4c0.7,0.8,1.5,1.6,2.3,2.4c0.4-1.1,12.6-10,13.7-10.4l-1.9-2.3c-2,1-3.9,2-5.8,3.2
			l-2.6-4.4c1.8-1.3,3.8-2.4,5.9-3.3l-1.4-2.3c-4.7,1.4-13.2,8-15.2,9.8l2.1,2.3c1.7-1.8,3.6-3.3,5.7-4.6l3.3,4.6
			C74.1,317.7,69.6,320.7,68.2,322.4L68.2,322.4z"/>
		<path d="M76.6,330.4l-4.3-3.4c2.5-3.8,10.3-10,12.3-11.1c2.3,2.6,2.6,2.9,2.8,3S76.4,329.4,76.6,330.4z M72.7,326.9l3.8,3
			c0.5-1.7,9.4-10.3,10.5-11l-2.4-2.7C82.6,317.4,75.2,323.4,72.7,326.9z"/>
		<path d="M90.4,339.5h-0.3c0.5-1.5,0.5-3.2-0.2-4.7c3.6,1.8,7.5-2.6,5.5-6.7c-0.8-1.8-4.9-5.1-7.2-7.1c-2,1.3-8.4,7.7-9.9,12.2H78
			c1.6-4.7,8.2-11.3,10.2-12.5c2.4,2.1,6.6,5.5,7.4,7.4c2.1,3.6-1.6,8.8-5.2,7.3c0.5,1.4,0.5,2.9,0,4.3V339.5z"/>
		<path d="M86.1,337.8h-0.3c1.3-2.3,0.6-5.7-1.5-6.1c-0.9,1-1.7,2.2-2.2,3.5H82c0.5-1.4,1.3-2.6,2.3-3.6c2.2-0.1,3.3,4,1.8,6.4
			L86.1,337.8z"/>
		<path d="M81.9,337.2c-0.8-1-4.3-2.1-3.4-3.9h0.3c-0.9,1.5,2.4,2.6,3,3.4l0.5-1.1h0.3L81.9,337.2z"/>
		<path d="M90.1,341.5c-1.5-0.7-2.9-1.4-4.2-2.3c0-0.5,0.2-0.9,0.4-1.3h0.2c-0.2,0.3-0.3,0.6-0.3,1c1.1,0.8,2.3,1.4,3.6,2
			c0-0.6,0.4-1.1,0.9-1.4v0.2C90.7,339.9,89.8,340.8,90.1,341.5z"/>
		<path d="M90,331.3c-1,0-2.4-0.8-4-2.3c0-1.2,2.8-3.6,3.4-3.7C91.7,325.6,93.6,331,90,331.3z M86.2,328.9c2.7,3.4,7,2.2,5.1-1.6
			c-0.5-0.8-1.2-1.4-2-1.7C88.8,325.8,86.4,328,86.2,328.9L86.2,328.9z"/>
		<path d="M103.7,346.8c-11.5-0.4-10.3-18.8,0.8-19.3S114.5,347.8,103.7,346.8z M104.5,327.8c-12,0.6-11.3,20.9,1.2,18.5
			C115.8,343.5,114.5,328.1,104.5,327.8z"/>
		<path d="M103.8,342.7c-6.1,0-5.1-10.8,0.7-10.9S109.1,342.6,103.8,342.7z M104.5,332.1c-5.4,0.1-6.4,10.4-0.7,10.3
			S110.2,332.6,104.5,332.1z"/>
		<path d="M101.3,373.6c-9.9,4.9-8.9,19.2-17.5,25.6C90.7,391.7,90.3,376.8,101.3,373.6z"/>
		<path d="M107.4,376.8c4.8,3.9,6.1,10.7,7,16.5C112.4,387.8,111.3,381.3,107.4,376.8z"/>
		<path d="M162,373.6c5,7.2,6.5,17,5.6,25.6C166.5,390.6,165.2,381.7,162,373.6z"/>
		<path d="M150.9,303.9h-0.6c0.2-2.1-0.2-6.3-1.1-8.2l0.6-0.3c1,2.8,1.3,5.7,1.1,8.6V303.9z"/>
		<path d="M126.4,228.2c-0.2,7.4,10.4,7,10.7,0S126,221.1,126.4,228.2z"/>
		<path d="M171.1,243.3c-0.2,6.7,9.3,6.3,9.7,0S170.8,237,171.1,243.3z"/>
		
			<radialGradient id="SVGID_38_" cx="-1325.7944" cy="559.7361" r="0.99" gradientTransform="matrix(-3.21 0 0 3.21 -4125.0698 -1574.86)" gradientUnits="userSpaceOnUse">
			<stop  offset="0.75" style="stop-color:#FFFFFF"/>
			<stop  offset="1" style="stop-color:#FFFFFF;stop-opacity:0"/>
		</radialGradient>
		<path class="st53" d="M132.9,225.1c4.2,0.1,4.2-6.5,0-6.4S128.7,225.2,132.9,225.1z"/>
		
			<radialGradient id="SVGID_39_" cx="-1341.0349" cy="565.0192" r="0.99" gradientTransform="matrix(-1.9019 2.5859 2.5859 1.9019 -3833.3291 2631.9412)" gradientUnits="userSpaceOnUse">
			<stop  offset="0.75" style="stop-color:#FFFFFF"/>
			<stop  offset="1" style="stop-color:#FFFFFF;stop-opacity:0"/>
		</radialGradient>
		<path class="st54" d="M182.2,239c2.6-3.3-2.7-7.2-5.2-3.8S179.8,242.4,182.2,239z"/>
		<path class="st55" d="M104.1,400.8l0.5-3.7c1.3-0.1,1,2-0.2,1.4"/>
		<path class="st55" d="M107.6,407.2c-2.6,4.2-9.8,1.6-8.9-3.3s5.1-5.3,7.8-3"/>
		<path class="st56" d="M107.2,402.6l1.8-0.7"/>
		<path class="st56" d="M108.1,402.2c1.4,0.6-0.3,1.1-0.6,1.2"/>
		<path class="st56" d="M107.7,404l1.5-0.2"/>
		<path class="st56" d="M109.3,403.8h0.3"/>
		<path class="st56" d="M107.7,404.6h1.5"/>
		<path class="st56" d="M108.7,404.7c0.2,0.1,0.2,0.6,0.2,0.6"/>
		<path class="st56" d="M107.6,406.1c0.2-0.8,1.5-0.2,1,0.4S107.2,406.5,107.6,406.1z"/>
		<path class="st56" d="M107.7,401.5c0-1.7-2.2,0.4-0.4,0.4"/>
	</g>
</g>
</svg>
