<svg id="b5fec1ed-092a-4f07-950d-dc12061ce47c" data-name="Layer 1" xmlns="http://www.w3.org/2000/svg" xmlns:xlink="http://www.w3.org/1999/xlink" viewBox="0 0 285 550"><defs><clipPath id="f16eaec0-a498-4d2e-8f36-77f0f319c84d"><rect width="284.9" height="550" style="fill:none"/></clipPath><linearGradient id="adda98f1-3212-419f-8211-9ad719567b7a" x1="51.98" y1="432.85" x2="169.27" y2="432.85" gradientTransform="translate(0 -8)" gradientUnits="userSpaceOnUse"><stop offset="0.25" stop-color="#a2927f"/><stop offset="0.54" stop-color="#9b8c79"/><stop offset="0.95" stop-color="#897a6a"/></linearGradient><linearGradient id="b663bd40-9089-4d52-8252-8523bbd10435" x1="73.51" y1="473.62" x2="127.1" y2="476.95" gradientTransform="translate(0 -8)" gradientUnits="userSpaceOnUse"><stop offset="0.5" stop-color="#f2b58d"/><stop offset="0.63" stop-color="#efb189"/><stop offset="0.77" stop-color="#e5a67c"/><stop offset="0.83" stop-color="#de9e74"/></linearGradient><linearGradient id="adaadd12-276e-471f-aded-4d6d9ce37021" x1="124.25" y1="470.9" x2="150.77" y2="472.54" gradientTransform="translate(0 -8)" gradientUnits="userSpaceOnUse"><stop offset="0.07" stop-color="#de9e74"/><stop offset="0.37" stop-color="#f2b58d"/><stop offset="0.52" stop-color="#f0b28a"/><stop offset="0.73" stop-color="#de9e74"/></linearGradient><radialGradient id="a0e17c5a-68f8-4e45-a3f9-22aa4da9cfaf" cx="-697.06" cy="-0.35" r="1" gradientTransform="translate(-20298.8 498.6) rotate(180) scale(29.23 22.73)" gradientUnits="userSpaceOnUse"><stop offset="0" stop-color="#544438"/><stop offset="1" stop-color="#352920"/></radialGradient><linearGradient id="abdaf48e-a444-4ab0-9568-801f5067b2e9" x1="103.66" y1="499.15" x2="88.27" y2="495.26" gradientTransform="translate(0 -8)" gradientUnits="userSpaceOnUse"><stop offset="0" stop-color="#231c16"/><stop offset="0.37" stop-color="#352920"/><stop offset="0.77" stop-color="#33281f"/><stop offset="1" stop-color="#221b15"/></linearGradient><radialGradient id="bd1a381e-f4bc-4141-a97b-e31483099494" cx="-707.02" cy="-0.49" r="1" gradientTransform="translate(-14258 494.1) rotate(180) scale(20.41 16.53)" xlink:href="#a0e17c5a-68f8-4e45-a3f9-22aa4da9cfaf"/><linearGradient id="fe45aaa1-eed7-4875-a53b-a7ea27285e09" x1="134.88" y1="505.29" x2="123.07" y2="505.29" gradientTransform="translate(0 -8)" gradientUnits="userSpaceOnUse"><stop offset="0" stop-color="#352920"/><stop offset="1" stop-color="#221b15"/></linearGradient><linearGradient id="aeec167b-951e-44f5-abab-572c1a28298d" x1="144.36" y1="486.58" x2="140.52" y2="488.15" xlink:href="#fe45aaa1-eed7-4875-a53b-a7ea27285e09"/><linearGradient id="f50cf76a-d3f6-49fa-83c6-02444b1a6b0c" x1="80.89" y1="490.19" x2="125.02" y2="490.19" gradientTransform="translate(0 -8)" gradientUnits="userSpaceOnUse"><stop offset="0" stop-color="#293b60"/><stop offset="0.34" stop-color="#27395c"/><stop offset="0.64" stop-color="#233351"/><stop offset="0.94" stop-color="#1b283f"/><stop offset="1" stop-color="#19253a"/></linearGradient><linearGradient id="a3a362e1-7aa2-41ad-93c2-4c64b4fb6cf4" x1="125.04" y1="484.05" x2="146.69" y2="484.05" gradientTransform="translate(0 -8)" gradientUnits="userSpaceOnUse"><stop offset="0" stop-color="#1a273d"/><stop offset="0.35" stop-color="#293b60"/><stop offset="0.56" stop-color="#27395c"/><stop offset="0.77" stop-color="#223250"/><stop offset="0.98" stop-color="#1a273d"/><stop offset="1" stop-color="#19253a"/></linearGradient><linearGradient id="f148a73c-df0e-4bad-bbc5-8a79591cc267" x1="113.57" y1="380.19" x2="156.87" y2="375.34" gradientTransform="translate(0 -8)" gradientUnits="userSpaceOnUse"><stop offset="0" stop-color="#a91f18"/><stop offset="0.1" stop-color="#c31e12"/><stop offset="0.21" stop-color="#d81c0d"/><stop offset="0.28" stop-color="#e01c0b"/><stop offset="0.72" stop-color="#e01c0b"/><stop offset="0.87" stop-color="#bf1e13"/><stop offset="1" stop-color="#a91f18"/></linearGradient><linearGradient id="a64bfd7b-5095-4b09-b102-be32046b4f3a" x1="107.25" y1="308.86" x2="150.32" y2="304.04" xlink:href="#f148a73c-df0e-4bad-bbc5-8a79591cc267"/><linearGradient id="a34c202f-63fb-4a42-98a0-c4f7b436b861" x1="49.11" y1="191.49" x2="216.2" y2="250.38" gradientTransform="translate(0 -8)" gradientUnits="userSpaceOnUse"><stop offset="0.35" stop-color="#f2b58d"/><stop offset="0.57" stop-color="#efb189"/><stop offset="0.8" stop-color="#e5a67c"/><stop offset="0.91" stop-color="#de9e74"/></linearGradient><linearGradient id="e0751df9-5ac0-47e3-80a1-b56de762afde" x1="159.18" y1="313.63" x2="153.38" y2="323.07" gradientTransform="translate(0 -8)" gradientUnits="userSpaceOnUse"><stop offset="0.22" stop-color="#f2b58d"/><stop offset="0.79" stop-color="#de9e74"/></linearGradient><linearGradient id="e6af14fc-cb74-4a7c-acbb-3a895de1070f" x1="100.48" y1="317.65" x2="110.9" y2="325.09" gradientTransform="translate(0 -8)" gradientUnits="userSpaceOnUse"><stop offset="0.29" stop-color="#f2b58d"/><stop offset="0.74" stop-color="#de9e74"/></linearGradient><linearGradient id="b0bf13a1-4eff-4099-92f0-9fa2ee2d02e3" x1="92.99" y1="313.74" x2="101.95" y2="320.14" xlink:href="#e6af14fc-cb74-4a7c-acbb-3a895de1070f"/><linearGradient id="e65e3183-f34f-4e78-b17a-d68698113eff" x1="94.42" y1="305.78" x2="96.78" y2="314.86" xlink:href="#e6af14fc-cb74-4a7c-acbb-3a895de1070f"/><linearGradient id="fa92b8a2-a7d3-468d-a16f-db0909164cb0" x1="92.45" y1="302.47" x2="93.81" y2="307.7" xlink:href="#e6af14fc-cb74-4a7c-acbb-3a895de1070f"/><linearGradient id="fe40021b-8873-4237-a8f4-0a0f3af9e0e6" x1="86.74" y1="48.12" x2="138.28" y2="66.28" xlink:href="#f148a73c-df0e-4bad-bbc5-8a79591cc267"/><linearGradient id="be24ce25-32fc-4db1-8b9e-8447c687e1ab" x1="121.16" y1="406.29" x2="156.98" y2="406.29" xlink:href="#a3a362e1-7aa2-41ad-93c2-4c64b4fb6cf4"/><linearGradient id="fdbaf5a2-25e4-4021-ac5b-bd8f9e2ac13b" x1="106.9" y1="302.9" x2="146.63" y2="302.9" xlink:href="#a3a362e1-7aa2-41ad-93c2-4c64b4fb6cf4"/><linearGradient id="b7f318fc-1b95-4ada-91e3-6533df526a6e" x1="57.24" y1="397.46" x2="172.41" y2="362.52" gradientTransform="translate(0 -8)" gradientUnits="userSpaceOnUse"><stop offset="0" stop-color="#293b60"/><stop offset="1" stop-color="#19253a"/></linearGradient><linearGradient id="f851a66f-320b-4b75-b6a4-015e3d4f092f" x1="17.47" y1="161.96" x2="255.33" y2="161.96" gradientTransform="translate(0 -8)" gradientUnits="userSpaceOnUse"><stop offset="0.3" stop-color="#efbd50"/><stop offset="1" stop-color="#ddab47"/></linearGradient><linearGradient id="a9483799-b3be-45d6-86f7-350b38fa22bc" x1="66.01" y1="18.33" x2="84.96" y2="67.48" xlink:href="#f851a66f-320b-4b75-b6a4-015e3d4f092f"/><linearGradient id="b4fe3771-76ef-4cb6-909a-82c676312d37" x1="1.96" y1="236.39" x2="25.77" y2="222.26" xlink:href="#f851a66f-320b-4b75-b6a4-015e3d4f092f"/><linearGradient id="f2885898-6536-42d7-9320-e075fddcfe55" x1="118.38" y1="192.81" x2="145.74" y2="193.71" xlink:href="#f851a66f-320b-4b75-b6a4-015e3d4f092f"/><linearGradient id="b3faf5c5-f627-415b-b958-5f25a323340d" x1="210.17" y1="214.35" x2="218.51" y2="214.62" xlink:href="#f851a66f-320b-4b75-b6a4-015e3d4f092f"/><linearGradient id="b9524356-1ea5-46b3-b452-d90521fab0bd" x1="92.54" y1="283.93" x2="118.12" y2="359.05" xlink:href="#b7f318fc-1b95-4ada-91e3-6533df526a6e"/><linearGradient id="afe8f9c4-ab29-419b-a09a-339c44797957" x1="82.32" y1="413.66" x2="104.61" y2="354.89" gradientTransform="translate(0 -8)" gradientUnits="userSpaceOnUse"><stop offset="0" stop-color="#293b60" stop-opacity="0"/><stop offset="1" stop-color="#19253a"/></linearGradient><linearGradient id="b859e705-0672-426e-9b75-295a4174c080" x1="146.4" y1="307.4" x2="149.46" y2="307.4" xlink:href="#b7f318fc-1b95-4ada-91e3-6533df526a6e"/><linearGradient id="a4e287d8-5b43-4521-9262-8049ffb16b34" x1="143.28" y1="313.93" x2="168.58" y2="362.03" gradientTransform="translate(0 -8)" gradientUnits="userSpaceOnUse"><stop offset="0" stop-color="#bfad95"/><stop offset="0.27" stop-color="#ae9c85"/><stop offset="0.72" stop-color="#978570"/><stop offset="1" stop-color="#8e7c68"/></linearGradient><linearGradient id="e44fd976-c297-4aef-b619-5cd3ce1313e7" x1="66.16" y1="277.85" x2="101.05" y2="277.85" gradientTransform="translate(0 -8)" gradientUnits="userSpaceOnUse"><stop offset="0" stop-color="#bfad95"/><stop offset="1" stop-color="#8e7c68"/></linearGradient><linearGradient id="e11e6326-73b7-4a4a-8060-e7d0b9ac6ffc" x1="88.18" y1="327.7" x2="70.71" y2="354.05" xlink:href="#a4e287d8-5b43-4521-9262-8049ffb16b34"/><radialGradient id="e396f4ec-b49e-4308-900c-a37fb152fcb1" cx="-760.15" cy="-1.02" r="1.02" gradientTransform="translate(-5814.9 220.2) rotate(180) scale(7.82 7.82)" gradientUnits="userSpaceOnUse"><stop offset="0.74" stop-color="#4f6081"/><stop offset="1" stop-color="#324365"/></radialGradient><radialGradient id="ee27ecd0-79ff-4ac0-ae1f-48be21ba5bab" cx="-769.75" cy="-1.14" r="1.02" gradientTransform="translate(-5242.1 235.6) rotate(180) scale(7.04 7.04)" xlink:href="#e396f4ec-b49e-4308-900c-a37fb152fcb1"/><radialGradient id="aefaa87e-85d2-4462-ba7f-479d50abd27f" cx="-912.56" cy="-2.83" r="0.99" gradientTransform="translate(-2399.8 230.6) rotate(180) scale(2.83 2.83)" gradientUnits="userSpaceOnUse"><stop offset="0.75" stop-color="#fff"/><stop offset="1" stop-color="#fff" stop-opacity="0"/></radialGradient><radialGradient id="b654fd00-a114-4688-81e5-6b2b0155e3c4" cx="-883.81" cy="-2.49" r="0.99" gradientTransform="translate(-2706.3 213.9) rotate(180) scale(3.21)" xlink:href="#aefaa87e-85d2-4462-ba7f-479d50abd27f"/></defs><g style="clip-path:url(#f16eaec0-a498-4d2e-8f36-77f0f319c84d)"><path id="b5539b46-b010-4015-b2ed-b9e4852b7f98" data-name="shadow" d="M95,514.3c-1.4-11.7,1.1-23.5,14.2-23.8l2.8-1.7-1.4-5.5c-2.5-9.7-2.7-10.1-1-10.8a3.6,3.6,0,0,1,0-3.2,2.7,2.7,0,0,1,1.3-3.5c-1.5-3.1-9-25.6-9-25.6s-18.4-6.7-20.9-8.7-.2-8.2,1-13.2,5.9-29.9,5.9-29.9c-7.1-5.1-6.8-2.8-3.3-13.8,4.2-18,7-31.7,10.2-53.1-16.5-16.5-16-40,1.1-51.4-2.3-17.7-2.4-15.3,12.6-18.6l-2.6-3.1s-13-2.2-20-11.5c1.6,5.5,6.1,13,9.2,15.6-6.7-1.1-29.4-20.1-36-33.6-6.2,5.6-27.2,6.9-27.2,6.9s14.9-12.1,16.8-19.7c-4.1,4.2-11.3,4.3-11.3,4.3a37.5,37.5,0,0,0,12.2-17.6c-9.1-25.7-.7-84.6,12.2-104.4,0,0-3.1-18,.8-42.7,8.8-62.7,103-56.1,113.9-5.4,35.3,2.8,70.2,20.3,91.5,51.4,17.6,29.9,20.1,69.1,9.7,95.4.2-13-5.8-34.3-5.8-34.3-2.1,29.3-32.4,71.7-51.9,93.1,8.9,29.5-15.5,44-35.9,41.6,0,0,24.7,12.7,28.6,19.6,9.3,18.6,6.7,32.2-19,38.2,2.2,8.8,9,31.7,8.9,40s0,8.9-8.7,16.7c2.6,21.5,10.9,31.3-12.8,39.8-2.6,7.5-7.2,20-7.2,20s1.1.9.6,3.9c2.2,0,1.3,5.5.4,6.8,1.5-.5,2.1.2,2.1.2s7,.7,8.7,6.5,0,6.6,0,6.6c7.1-1.3,25,3.9,24.5,16.6,2.3-.1,3.3.6,3.2,3.2-.4,10.5,1.2,11.1-8.4,16.4-18.6,6.9-38.1,14.2-57.5,9.9-2.7,11.3-32.8,14.9-39.3,16Z" style="fill:#ededf2"/><path d="M53.6,440.1c-3-.9-1-10.7-.6-11.2,1.6-9,5.4-22.9,6.3-32,20.7,18.9,32.8,22.3,60,26.7,3.6-2.4,2.2-9.3,2.5-13a57.8,57.8,0,0,0-.5-8.3c1.4-.2,5.5.4,7,.6,8.4.1,21.9-2,28.8-6.6l.3,12.2c.3,1.4-1.5,7.1,1,7.3s5.7-3.9,7.5-5.8c.5,5.2,2,15.5,2.7,20.6s1.6,7.1-1.4,10.5C153.6,457,121.5,453,106,452.8c-10.8,1.3-31-3.5-41-7.5C62,443.9,56,442.6,53.6,440.1Z" style="fill:url(#adda98f1-3212-419f-8211-9ad719567b7a)"/><path d="M82.9,475.1A197.7,197.7,0,0,1,73.4,448c9.5,5.1,44.2,4.7,53.7,5.4-.6,2.4-2.4,11.5-2.9,14.1-.8,4.4.2,5.6-3.1,11.5-5.8,9-35.9,8.1-38.2-3.9Z" style="fill:url(#b663bd40-9089-4d52-8252-8523bbd10435)"/><path d="M128.2,477.9l-3-.5a7.7,7.7,0,0,0-2.3-2.1c1.3-6.5,2.8-15.6,4.3-22,7,1,19.3-.7,26-3.4-1.3,4.1-3.7,9.5-4.9,13.6a73.1,73.1,0,0,1-2.9,7.8c-1.8,4.3-12.8,7.3-17.2,6.6Z" style="fill:url(#adaadd12-276e-471f-aded-4d6d9ce37021)"/><path d="M87.2,495.2a32.3,32.3,0,0,0-4.4-.1l.6,2.3C84,497,86.8,495.8,87.2,495.2Z" style="fill:#352920"/><path d="M115.6,503.1l1.5-.7.7-1v-1.2c-2.6-4.9-9.9-5.6-14.9-6.1a16.2,16.2,0,0,0,3.2,3.2,20,20,0,0,1,2.7,4.4C110.5,503.1,113.5,503.2,115.6,503.1Z" style="fill:#352920"/><path d="M124.5,481.6a4.6,4.6,0,0,1,1.8,1.3c.2,2.1-1,5.1-1.6,7.1l-1.2,6.6.4,7c.4,2.6,1.7,5.7,1.7,8.3-2.7,6.7-8.5,13.4-13.5,18.5a16.2,16.2,0,0,1-8.2,4.5,39.1,39.1,0,0,1-9.6,2c-9.1-.2-20.3-2.4-26.2-10-3.4-7.1-3.3-17.1,1.7-23.4,3.6-3.4,9.7-4.3,14.5-4.4,2.6.4,8.2,1.3,10.6,2.2a30.6,30.6,0,0,0,4.9,2.2l.9-.2a7.7,7.7,0,0,0,2.6.7l.6-.7v-1.6l2.2,1.8c.7,3.4.7,7.5,1.3,11l.7.7-.8,6.8.4.7h1.4l.2-.3.7-7.1c1.8-1.6.3-7.2.1-9.5l3.2,1.1c2.9,0,7.4-.3,8.6-3.5s-3.9-7.2-7.1-8.9-8.5-2.6-12.7-2.4c.9-3.1,3.4-3.1,6-3.6,5.4-1,12.5-1.5,16.5-5.7v-1.2Z" style="fill:url(#a0e17c5a-68f8-4e45-a3f9-22aa4da9cfaf)"/><path d="M88.4,485.2c-1.9-1.4-4.9-2.9-6.9-4.2l-1.2.3-.5,1.3c.7,2.9,1.3,7.2,2.6,10a15.1,15.1,0,0,1,7.6-1.3C89.5,489.6,89.5,486.5,88.4,485.2Z" style="fill:#352920"/><path d="M90.2,484.9l-1.7.5.7,1.9a14,14,0,0,0,.7,4h2.3a3.4,3.4,0,0,1,2.2-.5l.6.5h2.5l.5.7,4.3-.4a10,10,0,0,1,2.1-2.5c-1.2-1.6-4.8-2.1-6.6-3S92,485,90.2,484.9Z" style="fill:url(#abdaf48e-a444-4ab0-9568-801f5067b2e9)"/><path d="M180.5,515.7a11.7,11.7,0,0,0,1.1-7.8l-1.1-4c-.9-1.6-2.9-4.4-4.5-5.3-4.8-3.5-12.2-4.9-18-4.1a29.8,29.8,0,0,0-12.8,2.8,26.5,26.5,0,0,1,0,12.2l-1.8.5-3.1,5.8c4.8,2.1,13.6,3.7,18.6,5.2C166.2,522.1,175.2,521.1,180.5,515.7Z" style="fill:url(#bd1a381e-f4bc-4141-a97b-e31483099494)"/><path d="M135.9,514.9l2.8.5v-.7c.6-.6,3-5,3.5-5.8s.7-4.7.7-5.1v-4.1l-1.1-3.7-2,2-2.4,1.1h-2.6l-2.1-1.1c-2.3-3.7-.1-7.3,1.5-10.7,1.5-1.6,4.3-3.7,6.5-4,.3-9.2-7.7,1-15.7-4a11.3,11.3,0,0,0-.3,1.8,2.8,2.8,0,0,0,1.4,1.2c1,1.8,0,4.2-.8,5.8l-.8,4.1c-2.3,5.2.6,15,1.4,19.2,1.4.2,2.1.3,2.3,1.9a6.5,6.5,0,0,0,2.8.3C130.8,513.7,135.9,514.9,135.9,514.9Z" style="fill:url(#fe45aaa1-eed7-4875-a53b-a7ea27285e09)"/><path d="M146.6,481.1c.1-1.7.8-4.6.2-6.3l-1.1-.5c-.7,0-2.5,1.4-3.1,1.9s-3.2,1.7-4.2,2.3v.6h1c.9,1,.9,2.8,1.3,4l2.1-.3c.2-.6,1.6-1.3,2.1-1.6l.9.5Z" style="fill:url(#aeec167b-951e-44f5-abab-572c1a28298d)"/><path d="M184,526c1.2-.4,1.3-9.3,1.2-9.2.1-1.6-.1-4.2-1.2-5.6l-2.1-.5c.3,8.8-14.2,11.1-20.1,10.7a96,96,0,0,1-11.7-3.1c-2.8-.7-7.2-1.3-9.8-2.5-.3.6-2-.2-2-.5-2.9-.5-7.1-1.7-10-1.9a15.1,15.1,0,0,0-1-1.7l-1.6-.4c-.3,1.8-2.7,5.5-3.8,7-4.4,5.4-6.1,9.7-13.5,14.8-12.6,6.9-36.9,4.2-42-10.4-4.2.7-3.5,10-3.3,11.7-.2,15.8,38.4,16.3,46,13.1v-1.8l2.9.5,2.7-1.4a13.8,13.8,0,0,0,.1-2.9l2.8.4c2.1-2,3.2-7.4,4.7-9.8a4.6,4.6,0,0,0,2.6.2l2.8-4.1.3-6.2h1.1l6.3,4.5a28.7,28.7,0,0,1,5.7,2.4c.5-.1,3.5-1.4,4-1.6l1.3.2a13.1,13.1,0,0,0,0,2.8c-.1.4,5.9,1.2,6.2,1.2l4.4-2.2h.3l.4,2.8C163.4,534.6,180,531.2,184,526Z" style="fill:#262626"/><path d="M184,511.3c-2,12.1-16.8,13.4-27.1,11.7s-18.4-6.1-28.8-7.4v-1.9c9.3.8,20.8,4.8,29.9,7l5.2,1.1,4.6-.2c5.7-1.9,13.5-2.9,14.2-10.4A4.5,4.5,0,0,1,184,511.3Z" style="fill:#303030"/><path d="M125.7,511.4l1.3.3c-1.8,6.5-12.7,23.8-19.5,25.9-13.2,4.3-40,2.7-42.5-13.8l1.4-.9c3.8,13.7,27.5,16.7,39.8,11.5a30.5,30.5,0,0,0,11.9-10.9C120.2,520.5,125.6,515.3,125.7,511.4Z" style="fill:#303030"/><path d="M157.5,494.4l-3.4.2c2.3-3.2-.9-10.5-4.5-11-.1,1.6,1.3,3.1,2.2,4.2a15.5,15.5,0,0,0,.3,3.1v2.5l.8,1.5a35,35,0,0,0-7.6,2.3c.4,1.5,1.5,10.4-.6,12.5a3.5,3.5,0,0,1-2.4-.8,18.4,18.4,0,0,1,.6-4,19.4,19.4,0,0,0-1.1-8.9c-.8,2.8-9.5,4.9-10-.4-1-3.5,2.7-9.4,4.8-11l4.1-1.5V486c-1.8,1.2-4.3,3.1-5,5.2a28,28,0,0,1-.9,3.1,5.8,5.8,0,0,0,.6,2.6A14.4,14.4,0,0,0,139,495c.3-.5,2-2.5,1.8-3.2a40.5,40.5,0,0,1-.4-5l-.7-.6v-3.1l3.4-.6,1.1-1.1h2l.5-.5c.4.1,2.2.1,2.6.5h1.8l2.4,1.1C156.8,485.8,159.5,489.6,157.5,494.4Z" style="fill:#262626"/><path d="M101.2,494v-2c7.5,0,17.6,1.8,20.5,9.8l-.4,3.2-2.6,1.5c-2.5.6-6,.7-8.4-.5-.2,2.3.8,6.9-.1,9l-2.3.4-.8-.9a59.7,59.7,0,0,0-.8-11.2l-2.3-1.7v1.6l-.9.7c-1.4,0-5-1.5-6.3-2-4.2-1.4-11-3-15.4-3,1.2-1.6,4.6-2.4,6-3.9a17.6,17.6,0,0,0-9.1,1,2.9,2.9,0,0,0,1.5,2.8L76.1,500l-1.2-1.7c.4-2.2,2.5-3.9,4.4-4.8a28.1,28.1,0,0,1,5.6-2.5,22.8,22.8,0,0,1,6.9,0,6.7,6.7,0,0,1,2.8-.6l.5.4a3.9,3.9,0,0,1,2.4.1l.9.8a16.3,16.3,0,0,0,4.4-.2l-.2,2.4H99.5l3.8.7c2.1,1.8,4.6,4.3,5.4,7l2.2.5s2.3,1.4,4,.9c7.3-1.3-.5-7.3-3.3-7.7C107.1,494.5,104.7,494.6,101.2,494Z" style="fill:#262626"/><path d="M140.5,485.9a13.7,13.7,0,0,0,.5,5.7c-.1,1.6-3.7,5.6-6,5.2l-.7-.6c-.1-1.7,1-4.9,1.7-6.4S139.2,486.7,140.5,485.9Z" style="fill:#352920"/><path d="M153.2,528.6a8.2,8.2,0,0,0-.3,3.4c3.8-1.9,3.9-2.1,3.9-2.1Z" style="fill:#161616"/><path d="M145.1,527.8c-.1.3-3.7,1.5-3.7,1.5C139.5,524.4,142.4,527.3,145.1,527.8Z" style="fill:#161616"/><path d="M124.5,533v-3.8a10,10,0,0,0-2.1,3.6C122.6,533.1,124.1,533,124.5,533Z" style="fill:#161616"/><path d="M117.6,542.5l-.3-3.7-2.5,1.8.4,1.8Z" style="fill:#161616"/><path d="M112.3,546.7v-3.5l-3.2,1.2v1.5Z" style="fill:#161616"/><path d="M109.3,522.4l.7-6.7-1.7-.2c0,.6-1.2,6.5-.8,6.9l.6.6Z" style="fill:#a8a8a8"/><path d="M140.1,515.8l3.4-6-1.5-1-3.4,6.1A1.6,1.6,0,0,0,140.1,515.8Z" style="fill:#a8a8a8"/><path d="M81.1,481.1a8.6,8.6,0,0,1,0-3.2c.1-.7.1-3.4,1.8-2.7,1.9,8.3,15.8,10.1,21.4,9.8s17-1.2,18.5-9.6c2.3.9,2.7,3.3,1.4,4.4l.4.7a19.3,19.3,0,0,0-.1,2.4c-3.8,4.7-15.1,5-19.9,6.4-1.2-1.4-4.5-2.1-6.2-2.7s-6.8-2.2-9.5-1.2C86.5,484.1,83.3,482.5,81.1,481.1Z" style="fill:url(#f50cf76a-d3f6-49fa-83c6-02444b1a6b0c)"/><path d="M126.6,480.1l-1.4-.6c-.3-.7.2-1.6-.1-2.3,5.7,2.9,17.1-.9,20.4-6l1.2.8c.3.6-.2,1.8-.4,2.4a4.5,4.5,0,0,0-3.5,1.9c-1.1.6-2.8,1.4-3.9,2.1l-.2.6a17.4,17.4,0,0,1-5.4,1.9C131.4,480.6,128.3,480.7,126.6,480.1Z" style="fill:url(#a3a362e1-7aa2-41ad-93c2-4c64b4fb6cf4)"/><path d="M121.2,398.7c5.5,1.4,12,.4,16.9.1a60.7,60.7,0,0,0,18.8-4.9,216,216,0,0,0-6.5-41.5c-7.7-2.4-16.8-7.3-24-11-3.5,2.6-8.9,6.2-13.1,7.6C115.8,365.2,119,382.4,121.2,398.7Z" style="fill:url(#f148a73c-df0e-4bad-bbc5-8a79591cc267)"/><path d="M108.5,291.1c1,4.4,2.5,10.7,3.3,15.1a16.5,16.5,0,0,1,1.6,3.6c5.9-3.9,16.4-4.9,23.2-6.5,3-.5,8.2-1.7,11-.1a25.5,25.5,0,0,0,0-7.8h-.7c-.9,2.3-1.4,5.1-3.4,6.8-4.7.5-14.5,2.2-18.9,3.8-7.5-3-12-8-16.1-14.8Z" style="fill:url(#a64bfd7b-5095-4b09-b102-be32046b4f3a)"/><path d="M108.1,283.4c5,9.4,13.8,23.5,26.9,19.7,6.9-2.5,8.3-3.1,10.6-8.1,29.4,3.1,54-6.3,45.9-40.6,22-25.7,47.6-56.6,51-91.5-2.8,4.4-5.4,11.8-8.1,16.4s-15.9,20-21.2,22.3a16.4,16.4,0,0,1,4.7,4c.1,1.8,1.6,3.8-.9,5.6s-1.8.6-3-1.4a26.5,26.5,0,0,0-4.3-5.2c-7.8,4.4-22.4,9.6-31.2,9.4l.4-.8c12-5.2,29-11.3,33.2-25.2-.4-.2-5.2,6.4-5.5,6.7l-7.9,6.8c-8.7,5.6-26.3,11.7-37.3,10.4,14.9-20,20.9-56.3,5.2-77,2.5,7.5-1.7,18.8-4.3,25.2-1.4,3.6-4,9.4-3.9,13.3-2.6-5.2-2.5-13.5-2.8-19.2l-.5.3a111.8,111.8,0,0,0-3.2,23c-10.1-12.9-12.2-37.6-7.8-52.9l-.9.3c-7,6.5-10.3,24.3-8.9,33.2-2.2-2.7-6.8-8.2-9.1-10.8-1.5-.9-12.7-20.7-12.6-22.6.2,38.6-5.1,47.7-23.6,80.5-3.1,7-9.3,16-7.5,24.1-7.5-7.3-7.7-30-6.9-39l-.6.2c-1.7,3.3-1.7,9-1.6,12.6a87.8,87.8,0,0,0,1.7,17.7c-4.2-5.8-6.6-16.3-8.2-23.2-.1-1.1-1-9.2-1.4-10.2-31.2-6.2-33.7,52,2.8,51.9,1.9,10.3,15.3,23.8,22.5,30.6a85.4,85.4,0,0,0,10.3,8.6A81.5,81.5,0,0,1,108.1,283.4Z" style="fill:url(#a34c202f-63fb-4a42-98a0-c4f7b436b861)"/><path d="M149.5,304.5c4.2,1,5.9,13.8,5.4,16,2.4-1.2,5.4-2.5,7.9-3.5.9-4.9-7.1-15.2-13.1-13.2Z" style="fill:url(#e0751df9-5ac0-47e3-80a1-b56de762afde)"/><path d="M98.5,315.7s.8-4.5,2.7-6.9c2.5-4.9,12-5.2,12.2.4a39.2,39.2,0,0,1-3.1,8.3,13.3,13.3,0,0,1-2.3,4.4,6.3,6.3,0,0,1-9.5-6.2Z" style="fill:url(#e6af14fc-cb74-4a7c-acbb-3a895de1070f)"/><path d="M105.3,303.3c-3.2-3.9-12,.5-13.5,4.3-2.6,6.4-.7,11.4,6.7,10l.3-3.8,1.8-4c1.2-2.2,3.6-4.5,6.2-4.6v-.7Z" style="fill:url(#b0bf13a1-4eff-4099-92f0-9fa2ee2d02e3)"/><path d="M88.2,307.4c-.8-3-.4-4.8,1.5-7.3s7.5-4.3,11.4-3.4l2,1.7c.4,1,1,3.1,1.3,4.2-2-1.1-5-.7-7,0s-4.3,2.4-4.7,3.6l-1.1,1.5-.4,1.5-1,1A8.4,8.4,0,0,1,88.2,307.4Z" style="fill:url(#e65e3183-f34f-4e78-b17a-d68698113eff)"/><path d="M88,303.4l-1.2-1.5-.4-2.2.8-2.2,2.5-2.1,3.1-1.3,3.5-.5a13.4,13.4,0,0,1,4,1.9v.9a12.5,12.5,0,0,0-8.2,2.1L90,299.9A12.2,12.2,0,0,0,88,303.4Z" style="fill:url(#fa92b8a2-a7d3-468d-a16f-db0909164cb0)"/><path d="M128,244.1c-11.2-2-10-20.8-6.6-28.9,1.7-7.5,12.1-14.4,19.7-10.3s6.3,23.7,3.2,29.9S134.7,246.1,128,244.1Z" style="fill:#fff"/><path d="M170.6,256.6c-7.8-9.5,2.3-32.9,16.4-32.7,12,.8,6.4,21.4,3.2,26.1S176.5,262.2,170.6,256.6Z" style="fill:#fff"/><path d="M81.8,53.5c6.4-18.6,49.6-20.4,60.5-5.4C123.7,46.6,99.6,45.9,81.8,53.5Z" style="fill:url(#fe40021b-8873-4237-a8f4-0a0f3af9e0e6)"/><path d="M121.6,402.2l-.5-3.3c11.5,1.3,25.2-.2,35.8-5a8,8,0,0,1-.2,2.7c-10.1,5.7-23.6,6.9-35.1,5.6Z" style="fill:url(#be24ce25-32fc-4db1-8b9e-8447c687e1ab)"/><path d="M108.5,291.3a38.5,38.5,0,0,1-1.6-7.5H109c-.1,2,3.2,6.6,4.3,8.2,4,4.9,7.6,10.6,15.3,11.7s10.2-.9,14.2-4.6a23.1,23.1,0,0,0,2-2.4c0-.2.5-1.8.5-1.8l1.2.3c.1,2.7-1.7,5.4-3.4,7.3-6.2.2-13,2.5-19.1,3.5l-.2-.4C118.4,304.3,111.1,295.7,108.5,291.3Z" style="fill:url(#fdbaf5a2-25e4-4021-ac5b-bd8f9e2ac13b)"/><path d="M157.5,415.6c0-20.5-1-43-7.5-63.3a135.3,135.3,0,0,1-15.7-6.8c-2.3-1-5.4-3.6-8.1-3.2-3.8,2.3-8.5,6-12.9,7,.1,10.3,15,69.2,5.4,74.1C86,417.9,78.4,414.3,54,392.2c4.3-20,9.6-41.8,12.1-62.2a60.6,60.6,0,0,1,8.9,7.9c14.9,11.3,35.5,18.1,51.1,3.5,7.5,5,28.2,13.9,39.1,12.4,3.8,11.7,9.6,33.1,9.1,46.1,0,0-.3,2.5-1.8,3.3s-6.7,6.6-6.7,6.6C163.9,412,160.8,415.6,157.5,415.6Z" style="fill:url(#b7f318fc-1b95-4ada-91e3-6533df526a6e)"/><path d="M83.9,215c18.9-36.5,29.8-47.4,28.5-91.1,4,12.1,13,24.9,21.8,34-1.6-7.3,2.1-27.1,9.9-33.1a5.5,5.5,0,0,0,0,1.9c-5.5,12.9-.4,39.4,7,50.7l.9-1.2c.6-7,1.2-15.5,3.6-22.1.5,5.9.2,13.5,2.7,19,2.4-12.2,11-24.5,8.8-37.7,15.1,19.6,8.7,58.4-5.6,76.6a61.9,61.9,0,0,0,50.3-23c-1,6-9,12-13.8,15.2-3.1,1.8-9.7,5.1-13,6.5-1.1.5-5.9,2.1-6.4,3.3,5.7-.2,14.3-2.2,19.7-3.9,2.8-1.5,9.6-5.1,12.5-6.3l13-10.3,8.5-10.1a140.6,140.6,0,0,0,8.4-17.5c1.2-.7,2.4-4.4,3-5.6a109.4,109.4,0,0,1,4.4,21.2l.8,12.7.4.9c11.9-33.8,6.3-77.3-17.9-106.1-36.2-39.2-105.3-52.8-155-33.5C29.7,76.5,14.3,131.8,18,178.6c2.4,32.2,16.4,69.5,48.6,82.5A28.5,28.5,0,0,1,58.9,251c-2.5-6.1-1.9-5.8-1.9-5.8,2.7,3.9,14.3,12.6,20.7,12.3-2.6-1.3-10.7-15.9-10.6-18.4-35.8.8-35.3-56.7-2.9-51.8.5,6.2,2.9,16.1,4.6,22.1,0,0,1.6,6.7,4.8,10.8-.7-6.9-3.1-24.5.8-32.2-.8,10.6-.1,34.8,7,41.3C79.6,224.9,82.9,219,83.9,215Z" style="fill:url(#f851a66f-320b-4b75-b6a4-015e3d4f092f)"/><path d="M32.6,98.9c-1.7-24.1-2.6-63.3,22.1-80,32.8-21,83.2-8.9,93.4,30l-6.3-.8c-10.5-15-52.9-13.4-59.9,5C63.4,59,40.3,80.5,32.6,98.9Z" style="fill:url(#a9483799-b3be-45d6-86f7-350b38fa22bc)"/><path d="M3.4,233.7c8.9.4,19.4-3.3,27.7-6.3-3-3.1-9.4-23.9-9.6-26.9a41.7,41.7,0,0,1-9.9,17.3,41.8,41.8,0,0,0,8.8-3.6c-3.1,8.1-9.8,15-17,19.5Z" style="fill:url(#b4fe3771-76ef-4cb6-909a-82c676312d37)"/><path d="M120.1,188.8a4.4,4.4,0,0,1-2.8-.5l-.2-.8c3.2-3.9,12.1-6,19-6.1,3.6.2,8.7,1.4,9.4,3.7.8,3.9-.1,2.9-1.9,4.3-5.7-1-13.1-2.2-18.9-1.6A27.2,27.2,0,0,1,120.1,188.8Z" style="fill:url(#f2885898-6536-42d7-9320-e075fddcfe55)"/><path d="M209.8,204.7l4.1-3.3c2.9,1.8,5.8,5.5,3.9,9.4a5.4,5.4,0,0,1-2.1.8l-1.1-1-.5-1.7C212.9,207.7,211.2,205.9,209.8,204.7Z" style="fill:url(#b3faf5c5-f627-415b-b958-5f25a323340d)"/><path d="M56.4,315.1c-4.5-13.4-2.2-27.7,10.1-36.1,2.6-2.3,17-1.2,18.7-1,6.1,1.1,16.7.5,21.7,4.7.7,7.7,4.4,16.3,5.2,24l-1.9-1.5H107a7.2,7.2,0,0,0-2.8-2.4,6.8,6.8,0,0,0-3.8-6.1v-.5c-1.8-2.7-5.5-2.6-8.3-1.9s-6.2,3.4-5.2,7.8l1.2,1.5a10.1,10.1,0,0,0,.9,5.6,15.6,15.6,0,0,1,2,1.6c-.6,5.7,1.9,8.2,7.6,7.1.1,4.7,9.1,8.1,11.2,1.2,1.8-4.5,3.2-6.6,3.6-9.1,6.4-3.7,16.8-4.8,24-6.6,13.7-3.5,18,5.7,17.7,17.5-14.2,5.9-24.9,19.7-38.4,26.9-8.5,4.9-25.8,2.1-34.3-5-13.6-10.9-20.5-14.4-26-27.6Z" style="fill:url(#b9524356-1ea5-46b3-b452-d90521fab0bd)"/><path d="M60,366.1c2.3-10.5,4.9-25.4,6.3-36.1,13.6,12.4,26.9,23.4,47.1,19.3,2.4,17,6.6,38.2,8.3,55.3l.8,9.1c-.4,1.9-1.4,6.5-1.7,8.4l-1.4,1.5c-33.6-6.3-38-7.8-64.1-30.1,0,0-1.7-.4-.6-4.4C56.6,381.4,59,370.1,60,366.1Z" style="fill:url(#afe8f9c4-ab29-419b-a09a-339c44797957)"/><path d="M94.9,410.9c-1.3,0,.3-5,0-5.1.4-3.1.9-8.9,1.2-12,.3-1,5.7.5,5.5.5,2.8.7,9.7.7,11.4,3.5-.8,5.8-.5,11.1-2,16.6-.8.6-3.6-.6-4.4-.7C103,412.8,98.5,411.5,94.9,410.9Z" style="fill:#f44040"/><path d="M147.6,295.5c.2,1.8.7,5.4,0,7.1,1.1,1.2,1.2,1.7,3,1.2,0,0,.3-5.6-1.1-7.9s-1.9-.4-1.9-.4Z" style="fill:url(#b859e705-0672-426e-9b75-295a4174c080)"/><path d="M150.6,303.8c.4-.1-.5-8.1-1.1-7.7h6.2c3.4,1.6,10.9,5.7,14.2,7.5,25.8,13.5,27.5,45.9-6.3,50.3-17.1-1-24.3-6.2-37.4-12.3,10.6-9.5,22.9-19.7,36.5-24.3l.2-.8c-.7-3.6-.6-4.2-3.7-8.4S154.6,304.3,150.6,303.8Z" style="fill:url(#a4e287d8-5b43-4521-9262-8049ffb16b34)"/><path d="M80,260.1c-14.6,2.4-15.2,2.5-12.6,18.6,6.5-3,29.1.8,33.7.9C94.1,273.8,85.9,266.9,80,260.1Z" style="fill:url(#e44fd976-c297-4aef-b619-5cd3ce1313e7)"/><path d="M62,313.5c-9.6-11.4,12.2-21.7,15.9-10.1l-3.1,1.5c-2.7-7.1-16.4-.4-10.3,6.2Zm3.3,4.2a26.1,26.1,0,0,1,5.6-4.6l3.1,4.4s-4.8,3.2-6,4.8a21.4,21.4,0,0,0,2.5,2.6c-.9-.1,14.1-11.2,13.9-10.5l-2-2.5a33.1,33.1,0,0,0-5.8,3.2L74.1,311a30.4,30.4,0,0,1,5.9-3.3l-1.5-2.6c-4.7,1.3-13.4,8.1-15.5,10Zm11.3,12.5c-.5-.6,10.8-11.7,10.6-11.2a30.9,30.9,0,0,1-2.6-2.8c-1.9,1-9.6,7.3-12.1,10.9Zm13.7,9.3a6.6,6.6,0,0,0-.1-4.6c3.7,1.8,7.4-3.6,5.3-7-.8-1.8-5.1-5.4-7.3-7.3-2,1.2-8.5,7.8-10,12.3l.5.3c-.9,1.7,2.4,2.8,3.2,3.7l.6-1.3-.3-.7a11,11,0,0,1,2.3-3.6c2.1.1,3.1,4.1,1.6,6.3l.4.2a2.7,2.7,0,0,0-.4,1.2,30,30,0,0,0,3.8,2.1,1.8,1.8,0,0,1,.8-1.5ZM86.1,329c0-1,2.7-3.3,3.1-3.5,4.3.9,3.3,9.7-3.1,3.5Zm19.6,17.4c8.3-1.6,10-15.6,1.1-18.5C93.4,324.8,91.2,348.5,105.7,346.4Zm-4.3-4.7c-4.4-2.9.9-13.5,5.8-8.4C110.5,337.2,106.3,345.1,101.4,341.7Z" style="fill:url(#e11e6326-73b7-4a4a-8060-e7d0b9ac6ffc)"/><path d="M217.7,205c4-2.6,11.3-8.9,15.2-15-.5,3.8-4.7,15.3-6.8,18.8,12.8-25,12.6-23.5,16.3-43.7l-.9.3c-5.4,14.2-14.9,28.3-28.1,36.3A22.4,22.4,0,0,1,217.7,205Z" style="fill:#d88b64"/><path d="M117.1,188c2.1,5.4,6.6,0,14.5,1.8,6.2.8,15,2.8,14.6-2.1-2.6,3.2-11.9-.4-15.7.1-6.9.2-7.3,1.3-12.1,1.2Z" style="fill:#d88b64"/><path d="M114.3,355.2c5.8-.9,13.2-7.5,13.2-7.5s5.6,6.5,24.5,10.3a27.8,27.8,0,0,0-2-5.8c-6.9-2.3-17.6-6.8-23.6-10.9-3.5,2.9-8.4,7-13.1,7.6v3.4Z" style="fill:#961a17"/><path d="M153.9,395.1c-.4-7.3-2.9-34.7-6.5-39.9l3.8.4a225.7,225.7,0,0,1,5.8,38.3Z" style="fill:#961a17"/><path d="M115.9,354c.6,1.9,7.1,44.7,6.8,45.1l-1.5-.2c-.6-11.6-6.5-34.6-7.1-46.1Z" style="fill:#961a17"/><path d="M110.8,294.4c1.2,3.1,3.7,12.5,3.7,12.5s7.4-1.9,10.4-1.1c-2.6.7-10.4,3.5-11.6,3.4a7.3,7.3,0,0,0-1.2-3,54.2,54.2,0,0,1-1.4-7c-.6-1.6-2-5.8-1.8-7.5C109.3,292.4,110.3,293.7,110.8,294.4Z" style="fill:#961a17"/><path d="M144.4,301.3a6.1,6.1,0,0,1,3.5.5l-.3,1.5c-.8-.6-3.1-.9-4.1-1Z" style="fill:#961a17"/><path d="M153.7,321.2c-4.1,1.4-22.7,18.3-18.8,21.1,5.4,4.2,24.5.7,8.4,4.2,13.3,7.7,42.7,4.6,46.1-14.7,2.9,14.9-22.7,23.6-31.3,21.9l-8.1-1.4-11.3-4.6c-2.6-1.2-10.2-4.3-12-6.7C134.8,334.2,144.3,326,153.7,321.2Z" style="fill:#7e6e5b"/><path d="M163.9,349.3c4.4.2,18-8,17.7-10.8a40.7,40.7,0,0,1-8.7,6.3C168.7,346.9,161.9,349.5,163.9,349.3Z" style="fill:#7e6e5b"/><path d="M172.3,318.5c4.3.8,11.1,5.3,9.6,10-.4,1.6,3.9-3.5-1.1-7.8S170.9,318.4,172.3,318.5Z" style="fill:#7e6e5b"/><path d="M157.5,306.2c3.1.9,6.6,7.6,6.6,7.6a11.1,11.1,0,0,1,3.3-1.3,2.5,2.5,0,0,0-1.5,2.7s4.4.2,2.5.4a36.7,36.7,0,0,0-5.5,1.4C162.9,313.1,160.3,308.8,157.5,306.2Z" style="fill:#7e6e5b"/><path d="M78.2,260.4c-4.9,1-11.6,2.3.5,8s12.9,6.2,14,6.8-2.9-.1-1.1,2.9a31.3,31.3,0,0,0,6.3,1.3l.8-.7c-1.3-2-5.2-5.5-7-7-3.6-3.3-8.5-8.1-11.7-11.7Z" style="fill:#7e6e5b"/><path d="M70.5,271.6c2.3,1.6,10,3.4,12.1,3.4s-1.4-.5-5.1-1.7S67.9,269.8,70.5,271.6Z" style="fill:#7e6e5b"/><path d="M59.1,399.3c12.2,13.7,35.6,28.4,59.2,27.8,4.1.1,7.1.4,7.2-1.7.5-6.8-.3-13.2-1.9-20.8,3.9,2.4,28.5-2.8,31-4.9,0,0,.3,8.1,0,13.3-1.6,11-.3,13.9,10,5.3,1.5,3.3,4.4,20.4.2,25.3,5.6-2.8,4.7-10.1,3.9-13.9-.8-5.6-1.9-13.5-2.5-19.2h-.5a25.7,25.7,0,0,1-3.9,3.5l-2,1.3h-1.5l-.6-.6c-.2-5.4.5-13.4-.3-18.7-7.5,4.7-25.9,7.8-35.7,5.9.4,6.5,1.6,14.1-.9,20.3l-1,.6c-11.8-.7-26.1-4-36.9-9.1-7.4-3.5-16.8-11.7-23.1-16.8Z" style="fill:#77695c"/><path d="M160,424.5c-.4,1.2-9,19.5-9.1,19.2,3.3-3.9,8.6-13.8,9.1-19.2Z" style="fill:#77695c"/><path d="M160.9,420.9c.7.6-.2,15,.6,9.7.9-7.2.8-6.2.7-11.1Z" style="fill:#77695c"/><path d="M128.5,427.4c4.7-10.2,1.9-4.2-4.6,2.5-4,4.1-15,12.8-11.2,10.8a61.5,61.5,0,0,0,7.2-4.7C122.9,434,126.2,430.3,128.5,427.4Z" style="fill:#77695c"/><path d="M142.3,403.5c-.7.2-2,13.3-2,11.6.2-4.2.5-8.2.6-11.9Z" style="fill:#77695c"/><path d="M139.2,404.1c-1.2.2-1.2,15.6-1.4,10.3s-.1-8.4.1-10.5c2.4.2,2.6,0,2.9,4.3s.2-4.6.2-4.6h-1.2" style="fill:#77695c"/><path d="M140.4,414.4c.2,1.6.3,2.3-.9,2.6C139.5,415.7,140.2,415.4,140.4,414.4Z" style="fill:#77695c"/><path d="M62.5,407.5c.3,1.4,7.8,20.1,8.1,21C67.3,425.1,62.2,411.7,62.5,407.5Z" style="fill:#77695c"/><path d="M68.8,435.2c-2.2-2.3-2.9-2.7,0-.6s10.8,9,4.5,4.5S68.8,435.2,68.8,435.2Z" style="fill:#77695c"/><path d="M90.5,456.3c1.4,7.2,10.3,7.7,6.5,5.7a6.5,6.5,0,0,1-3.4-2.5A13.4,13.4,0,0,1,90.5,456.3Z" style="fill:#d88b64"/><path d="M102.9,462.2c2.2,1,8.6-1.7,9.3-4.2A35.4,35.4,0,0,1,102.9,462.2Z" style="fill:#d88b64"/><path d="M143.5,455.4s.6,2.4,1.9,3.1,2.3.3,1.4-.2A9.6,9.6,0,0,1,143.5,455.4Z" style="fill:#d88b64"/><path d="M148.3,458.6c.7.2,2.1.3,1.6-1Z" style="fill:#d88b64"/><g style="opacity:0.6499999761581421"><path d="M170.3,195.7a98.5,98.5,0,0,1-8.4,16.1c13.5,1.2,33-5.3,42.5-15,1.4-1.6,6-7,7.8-8.1-2.1,7.3-13.6,16.3-20.8,19.1-4.2,1.6-10.5,5.6-15,5.8l4.8.4a45.1,45.1,0,0,0,7.2-1.2c6.3-1.8,15.6-4.5,21-8.2,2.9,1.7,4,5.1,6.6,7.1-.8.2-3.2-.3-3.9-1.6s-.6-.8-.6-.8c-9.4,11.2-36.8,12.9-48.8,9.9a28,28,0,0,0,7.2-1.5c-5.4,1-15.4-1.7-15.4-1.7,12-12,19.2-48.8,15.2-62.1,1.6,5.6-9.8,25-8,31.4-3.2-2-6.3-8.2-6.5-12.2-1.1,2.5-1.9,12.5-1.4,14.9-8.6-7.1-15.6-33-14.5-42.9,0,0-3.2,15.5-1.5,23.4-3.3-1.3-14-9.6-21.1-19.6,5,24.3-37.8,62.6-32.2,84.8-4.5-.9-7.6-6.6-7.6-6.6a19,19,0,0,0,2.1,4.2c-7.1-3.3-17.4-35.5-17.2-44.4l2.8.6c1.3,10.3,3.1,23.5,9.3,33.1-.8-9.2-3.1-21.2.2-30a5.4,5.4,0,0,0,.5,3.3c-.3,2.5.1,10.3.1,12.9.5,5.4,1.6,13.6,4.1,18.4.3.5,1.6,3.7,2.4,3.7,0-13.6,13-31.4,18.9-43.5,2.3-4.9,6.8-14.9,8.9-20,3.6-12.1,3.6-28.7,3.6-41.3.8,2.8,8.2,16.3,9.7,19.1,3.3,4.1,8.1,10.9,12.1,14.3-1.1-10,1.9-26.2,10.2-33.4-5.6,13.7-1.4,41.9,7.1,53.8.5-4,2-18.4,4-24.5.1,5.4.8,14.5,2.8,19.6,2.2-12.1,12.1-25.4,8.3-38.2C179,150.2,177.1,179.4,170.3,195.7Z" style="fill:#d88b64;opacity:0.6499999761581421;isolation:isolate"/><path d="M118.9,228.4c-.8-40.3,41.4-31.4,25.7,5.7C157.1,198.7,121.3,190.6,118.9,228.4Z" style="fill:#d88b64;opacity:0.6499999761581421;isolation:isolate"/><path d="M168.4,244c7.5-36.4,42.4-23.5,20,8.2,2.7-2.9,7.2-13.2,5.6-22.1s-13.5-7.8-19.9.9S168.4,244,168.4,244Z" style="fill:#d88b64;opacity:0.6499999761581421;isolation:isolate"/><path d="M136.3,279.7c2.4,6.9,12,7.1,16.2,3-4,2.1-13.1-.1-16.2-3Z" style="fill:#d88b64;opacity:0.6499999761581421;isolation:isolate"/><path d="M137.9,252.2c8.7-10.3,35.3-6.3,26.8,12.4,3.1-14.6-14.7-16.6-21.4-14.8Z" style="fill:#d88b64;opacity:0.6499999761581421;isolation:isolate"/><path d="M51.8,205.8s7.1,1.4,7.8,3.6a10.1,10.1,0,0,0-2.1,9.5c.6,1.5,2.1-5,6.2-4,1.8,2.8,2.6,9.9,2.6,9.9s-4.6,4.9-1.2,8.1c-2.6-7.6,5.4-4.4,4.7-8.9-.8-6.3-5.4-14-10.2-17.8l-3.1-.9C55.4,205,52.9,205.5,51.8,205.8Z" style="fill:#d88b64;opacity:0.6499999761581421;isolation:isolate"/><path d="M112.2,290.4a47.1,47.1,0,0,0,27.4,8.1A16.6,16.6,0,0,1,121,300c7.5,6.8,22.2,2.9,24.6-4.7l-1.2-1.1c-10.1-1.8-26.7-4.8-35.4-10.4C108.7,286,111.1,288.7,112.2,290.4Z" style="fill:#d88b64;opacity:0.6499999761581421;isolation:isolate"/><path d="M149.5,304.5c3.5,2.2,6.8,5.1,6.7,13.8,1.2-1.4,6.7-2.2,6.7-2.2v1.1c-2.3.9-5.9,2-7.9,3.5a25.8,25.8,0,0,0-2.6-13.4Z" style="fill:#d88b64;opacity:0.6499999761581421;isolation:isolate"/><path d="M127.2,453c-10.2-.5-21.7.1-31.9-.6l-10.5-1.2L73.1,448s-.6-1.2,1.1,2.9c14.1,6.2,37.4,6.7,50.2,5.9-.3,3.3-2.4,14.3-3.4,18.3s-1.6,6.2-7.4,7.6-24.8.7-28.8-3.9l1.8,1.9,2.9,1.4c4.4,2.8,12,2.8,17,2.6l7.3-.9,5.3-2.6c1.3-.9,3-4.3,3.7-5.7l1.4.6a3.2,3.2,0,0,0,1,1.3l4.6.6c2.6-.3,7.8-1.2,10.1-2.5l3.8-2.3,1.9-2.9c-1.7,4.1-15.6,8.5-19.3,6.4a4.1,4.1,0,0,0-.4-1.1c-.4-.8-1.9-.9-1.7-1.9s3.2-14.2,3.7-17.1c.4.9,21.1-.8,21.8-2.7,0,0-.6,3.9-1.1,4.2s0-.2-.6,1.6c-1.5,5.8-3.9,13.6-10.1,16.1-2,.9,1.9-.1,3.5-1.1,5.1-2.9,6.1-9.9,7.8-14.3.5-1.5,1.8-4.9,2.4-6.4s1.4-2.9,1.1-3.7-6.4,1.6-7.3,1.8C140.6,452.8,132,453.7,127.2,453Z" style="fill:#d88b64;opacity:0.6499999761581421;isolation:isolate"/><path d="M98.6,315.7c-.4,5.7,8.9,8.5,11.3,2.1-.9,5.7-7,6.1-10.5,3C98.6,319.9,98.6,316.8,98.6,315.7Z" style="fill:#d88b64;opacity:0.6499999761581421;isolation:isolate"/><path d="M90.8,313.3c.1.7,2.8,4.5,6.5,3.2a18.9,18.9,0,0,1,4.2-9.2c-.7,2.3-2.2,5-2.9,7.1a10.1,10.1,0,0,1-.2,3,8.3,8.3,0,0,1-5.6-.1C91.4,316.4,91,314.8,90.8,313.3Z" style="fill:#d88b64;opacity:0.6499999761581421;isolation:isolate"/><path d="M87.9,305.6a3.9,3.9,0,0,0,2.7,2.6,9.6,9.6,0,0,1,6-5.4c-4.7,4.2-4.3,3.4-5.7,7.5C89,309.7,88.3,307.2,87.9,305.6Z" style="fill:#d88b64;opacity:0.6499999761581421;isolation:isolate"/><path d="M86.8,299.5a3.4,3.4,0,0,0,1.1,1.5,14,14,0,0,1,6.2-3.6c-3.9,2.3-4.3,2.3-5.8,5.4l-.6.3A3.5,3.5,0,0,1,86.8,299.5Z" style="fill:#d88b64;opacity:0.6499999761581421;isolation:isolate"/></g><path d="M114,355.2c-13.2,5.5-36.6.7-43.1-10.8,0,0,7.1,18.2,7.4,20.7s-4.5-7.3-7.4-13.2-3.1-2.3-1.9,3c2,8.7,4.9,20.8,7,26.6-2-5-14.6-38.3-10.5-44.8l.7-6.8c11.7,11.4,29.4,24.1,47.1,19Z" style="fill:#162136"/><path d="M151.6,357.6c3.8.8,11.1,2.5,15.4.5l-1.4-3.5c-4.3-.5-11.3-1.3-15.6-2.3A19.1,19.1,0,0,1,151.6,357.6Z" style="fill:#162136"/><path d="M165,373.6s.3-12.8-2.8-15.6C167.4,354,166.8,372.3,165,373.6Z" style="fill:#162136"/><path d="M164.3,378.7c-2.2-5.3-2.3-5.9-1.2-1.3s2.7,17.4,3.1,20.9,2.2,2.9,1.2-5.6C165.8,380.9,165.4,383.5,164.3,378.7Z" style="fill:#162136"/><path d="M154,395.1l.4,3,2.6-1.9v-2.6A10.5,10.5,0,0,1,154,395.1Z" style="fill:#162136"/><path d="M122.5,399.1a23.4,23.4,0,0,0,.7,3.3l-1.5-.2-.5-3.2Z" style="fill:#162136"/><path d="M101.1,373.7c-8.3-.5-15.4,20.1-17.3,25.5C91.7,391.6,92.1,376.6,101.1,373.7Z" style="fill:#162136"/><path d="M57,316.6c13.3,17.1,43.3,44.3,67.9,21.3,11.3-8,23.1-17.5,30.2-19.2v2l-5.7,3c-9.7,6-19.7,15.8-29.2,22l-9.8,3.8c-7,2.3-30.9-4.1-34.7-11.6l-8.4-6.6C63.8,327.4,58.9,321.3,57,316.6Z" style="fill:#162136"/><path d="M147.9,301.8a14.3,14.3,0,0,0,2.7.8v1l-1.4.4-1.7-.7Z" style="fill:#162136"/><path d="M113.3,310.3c-.5,1.5-1.7,10.6-4.2,12.8s-8.8,5.5-11.7-3.1c-2.8,1.5-7.6-.1-7.7-7.5-1.9-.6-3.3-4.7-2.8-8-1.2-.6-1-3.5-.4-4a8.3,8.3,0,0,0,1.4,2.9c0,2.9.2,5.1,2.8,7-.4,5.1,2.6,9.3,8,7.1l.5,2.3,1.2,1.4,1.6,1.1,3,.6,1.5-.6a2.8,2.8,0,0,0,2.7-1.9Z" style="fill:#162136"/><path d="M115.1,314.1c.7-.5,1.7,20.1,2.4,11.4s-.1-6.6-1-10.2Z" style="fill:#162136"/><path d="M114.5,311.9c0-.1,13.5,5.4,8.8,2.3s-4.9-2.3-8.4-2.6Z" style="fill:#162136"/><path d="M65.5,321.8c5.2,7.6,18.7,20.4,30.7,19.7C84.4,338.6,73.5,330.8,65.5,321.8Z" style="fill:#162136"/><path d="M109.1,345.2a20.8,20.8,0,0,0,9.6-3.8c2.7-2.2,4.1-4.8,3.1-3.9-3.7,3.8-7.1,5.2-11.7,6.5l-1.1,1.1h.1Z" style="fill:#162136"/><path d="M109,345.1a33,33,0,0,1-5.1-.9c2.2,0,4.6.1,6-.4v.3A2.9,2.9,0,0,1,109,345.1Z" style="fill:#7e6e5b"/><path d="M86.3,338.2a2,2,0,0,0-.2,1.1c.6.4,1.3.8,4,1.3l.3-.5Z" style="fill:#7e6e5b"/><path d="M78.6,333.6a2.8,2.8,0,0,0-.1.9c0,.2,3.1,2.3,3.2,2.5l.5-.9Z" style="fill:#7e6e5b"/><path d="M86.6,299.1h.8a3.1,3.1,0,0,1,1.6,1.8l1.5-1.5c-.1-1.1-.6-2.8-2-2.9A7,7,0,0,0,86.6,299.1Z" style="fill:#fff;opacity:0.15000000596046448;isolation:isolate"/><path d="M87.8,305a5.5,5.5,0,0,1,3.2,1.2c.3.7.7-.1.9-.3s.8-3-.4-3.9a3,3,0,0,0-2.3-.1C88,302.3,88,304.1,87.8,305Z" style="fill:#fff;opacity:0.15000000596046448;isolation:isolate"/><path d="M90.6,312.9v-1.5c2.6-3.9,7.1-1.5,5.7,2.9H96a7.4,7.4,0,0,0-3.8-1.2C91.9,313.1,90.8,313.1,90.6,312.9Z" style="fill:#fff;opacity:0.15000000596046448;isolation:isolate"/><path d="M100.7,317.1c-.2-1,.3-1.6,1.1-2.8,2.8-3.3,7.7,2,5.2,4.8C105.2,317.8,102.7,317.6,100.7,317.1Z" style="fill:#fff;opacity:0.15000000596046448;isolation:isolate"/><path d="M138.9,230.7a7.8,7.8,0,0,0-12.9-8.3C118.9,231.2,132.4,243.9,138.9,230.7Z" style="fill:url(#e396f4ec-b49e-4308-900c-a37fb152fcb1)"/><path d="M182.4,245.8c2.5-7.2-6-13-11.6-7.4C164.4,246.3,176.6,257.7,182.4,245.8Z" style="fill:url(#ee27ecd0-79ff-4ac0-ae1f-48be21ba5bab)"/><path d="M109.6,87c-7.1,21.8,3.2,44.8,1.6,65.4,2.5-20.5,2-25.7-.9-37.4C109.4,107.2,108.9,94.7,109.6,87Z" style="fill:#db9e33"/><path d="M245.5,143.1c2.2,16.1,4.8,34.9,3.8,52.5l-.3-1.3c-.9-10.9-1.1-24.4-5.9-34.5C244.8,155.4,245.1,147.9,245.5,143.1Z" style="fill:#db9e33"/><path d="M212,206.8l-2.5-2.2c.2,0,4.4-2.2,4.7-2.4a32.9,32.9,0,0,1,3.5,2.8l-3.5,2.6c-.1-.1,2.9,5.5,3.5,3.4C214.6,213.6,213.8,207.9,212,206.8Z" style="fill:#db9e33"/><path d="M117.3,187.2c.2,1.2,2.7.3,6.4-.4a42,42,0,0,1,14.2,0c5.3.9,7.1,1.7,7.8.5-.8,4.5-14-.7-16.8.4-4.9.5-8.6,1.3-11.6,1.1l-.2-.6Z" style="fill:#db9e33"/><path d="M65.7,164.6a94.9,94.9,0,0,0-4.1,19.7c-22.7-5.5-30.2,32.2-15.9,47,9.4,12.8,20,25.5,32.1,26.2-4.5-4.6-8.8-11.4-10.4-17.6-39.6-3.1-31.4-58.9-3-52.4C63.9,185.6,64.9,166.7,65.7,164.6Z" style="fill:#db9e33"/><path d="M28.8,223.1c-3.7,2.7-23.1,9.6-24.2,9.8,4.7,1.2,8.7-.2,12.7-.3s9.4-3.6,13.4-4.9Z" style="fill:#db9e33"/><path d="M147.2,51.9c37.7,4.3,60.7,43.7,57.8,79.4,1.1-35.5-20.8-73.4-57.8-79.4Z" style="fill:#db9e33;opacity:0.75;isolation:isolate"/><path d="M116.7,57c-1.6,27-4.1,55.6,7.7,80.9-13.4-24.7-11-54-7.7-80.9Z" style="fill:#db9e33;opacity:0.75;isolation:isolate"/><path d="M80.5,59.8c-20.6,16.5-35.1,40-38.7,66.3C43.7,99.5,58.8,75.1,80.5,59.8Z" style="fill:#db9e33;opacity:0.75;isolation:isolate"/><path d="M38.1,121.9c-.6,19.1-2.6,38.8,2.5,57.5-6.8-18.3-4.8-38.5-2.5-57.5Z" style="fill:#db9e33;opacity:0.75;isolation:isolate"/><path d="M61.6,173.7c-.9-14.5,3.2-29,8.3-42.4-3.5,14-7.5,28-8.3,42.4Z" style="fill:#db9e33;opacity:0.75;isolation:isolate"/><path d="M132.1,54.3c12.1,15.4,17.5,35.7,18.2,55.1-2.4-19.2-7.6-38.8-18.2-55.1Z" style="fill:#db9e33;opacity:0.75;isolation:isolate"/><path d="M152,88.9c6,17.1,6.6,35.7,4.8,53.5.1-17.9-.4-36-4.8-53.5Z" style="fill:#db9e33;opacity:0.75;isolation:isolate"/><path d="M123.2,53.2c5.9,12.9,7.5,27.4,8.8,41.3C129.1,81,127.5,66.5,123.2,53.2Z" style="fill:#db9e33;opacity:0.75;isolation:isolate"/><path d="M88.5,57c-9.8,9.4-19.7,19.4-25.4,31.9C67.3,75.6,77.6,65.1,88.5,57Z" style="fill:#db9e33;opacity:0.75;isolation:isolate"/><path d="M65.7,65.2C59.9,71,55.5,77.9,50.4,84.3,54,77,58.8,69.8,65.7,65.2Z" style="fill:#db9e33;opacity:0.75;isolation:isolate"/><path d="M101.9,55.6A224.7,224.7,0,0,0,95.3,106a121.5,121.5,0,0,1,6.6-50.4Z" style="fill:#db9e33;opacity:0.75;isolation:isolate"/><path d="M93.6,57c-3.7,7.6-6.5,16-9.7,23.8C85.6,72.4,88.4,63.8,93.6,57Z" style="fill:#db9e33;opacity:0.75;isolation:isolate"/><path d="M111.4,57a76,76,0,0,1-2.1,17.8A53.4,53.4,0,0,1,111.4,57Z" style="fill:#db9e33;opacity:0.75;isolation:isolate"/><path d="M141.8,55.6c7.6,3.7,13,11.2,15.4,19.2-3.9-7.3-8.8-14.1-15.4-19.2Z" style="fill:#db9e33;opacity:0.75;isolation:isolate"/><path d="M211.5,117.9c2.7,26.9.8,59.8-20.5,79.2C210.9,176.7,212.5,144.9,211.5,117.9Z" style="fill:#db9e33;opacity:0.75;isolation:isolate"/><path d="M199.6,193.7c-5.2,7.6-14.8,11-23.5,12.8,8.2-3.5,17-6.5,23.5-12.8Z" style="fill:#db9e33;opacity:0.75;isolation:isolate"/><path d="M233.7,101.7a82.6,82.6,0,0,1,0,69.6,96.6,96.6,0,0,0,0-69.6Z" style="fill:#db9e33;opacity:0.75;isolation:isolate"/><path d="M233.7,157.5c-2.1,13.8-8.4,27-19.1,36.2,9.5-10.3,15.4-22.9,19.1-36.2Z" style="fill:#db9e33;opacity:0.75;isolation:isolate"/><path d="M98.5,96c1.4,23.2,5.8,47.4-1.8,70,5.9-23,1.6-46.7,1.8-70Z" style="fill:#db9e33;opacity:0.75;isolation:isolate"/><path d="M105,146.1c-.8,20.8-12.4,38.4-21.1,56.7,7.1-18.9,18.7-36.2,21.1-56.7Z" style="fill:#db9e33;opacity:0.75;isolation:isolate"/><path d="M150.3,55.6c11.9,3.8,23.1,13.1,27,25.2-5.5-11.4-15.8-19.8-27-25.2Z" style="fill:#db9e33;opacity:0.75;isolation:isolate"/><path d="M210.7,81.8c12.1,10.8,20.5,26.5,20.8,42.9C229.4,108.6,221.5,93.8,210.7,81.8Z" style="fill:#db9e33;opacity:0.75;isolation:isolate"/><path d="M34.1,216.2c-7.9-16-8.2-34.7-8-52.1C27.6,181.5,27.8,199.6,34.1,216.2Z" style="fill:#db9e33;opacity:0.75;isolation:isolate"/><path d="M34.1,185.7c-5-14.3-4.6-29.9-2.7-44.7C31.2,155.9,30.8,171,34.1,185.7Z" style="fill:#db9e33;opacity:0.75;isolation:isolate"/><path d="M114.7,33.1c-2.1-9.5-10.6-15.7-17.9-21.4,8.2,4.2,17.5,11.4,17.9,21.4Z" style="fill:#db9e33;opacity:0.75;isolation:isolate"/><path d="M98.5,35.6c-5.9-7.6-17-10.7-26.3-9.7,9.1-2.8,21.9,1,26.3,9.7Z" style="fill:#db9e33;opacity:0.75;isolation:isolate"/><path d="M127.6,35.6l4.4-8.5A9.4,9.4,0,0,1,127.6,35.6Z" style="fill:#db9e33;opacity:0.75;isolation:isolate"/><path d="M123.2,33.9a80.8,80.8,0,0,0,1.1-8.6,7.6,7.6,0,0,1-1.1,8.6Z" style="fill:#db9e33;opacity:0.75;isolation:isolate"/><path d="M105.7,33.9c-1.1-4.5-3.9-8.2-7.1-11.5,4.3,1.9,7.7,6.7,7.1,11.5Z" style="fill:#db9e33;opacity:0.75;isolation:isolate"/><path d="M80.5,47.1c-10.8-3.9-24.7-2.3-32.2,7.2C54.5,43.5,70.2,41.4,80.5,47.1Z" style="fill:#db9e33;opacity:0.75;isolation:isolate"/><path d="M88.5,41.6c-6-3.8-13-5.2-20-6,7-.9,15.1.8,20,6Z" style="fill:#db9e33;opacity:0.75;isolation:isolate"/><path d="M58.1,54.3c-9,7.6-14,18.9-17.5,30C42.3,72.8,47.9,60.6,58.1,54.3Z" style="fill:#db9e33;opacity:0.75;isolation:isolate"/><path d="M122.3,482.6c3.7-2.9,5.1-5.8.6-7.9l-.4,1.1c3.5,1.4,1.4,3.9-.5,6.6C121.7,482.8,122,482.8,122.3,482.6Z"/><path d="M83.1,480.2c3.6,2.5-4-3.2-.2-5.1l-.6-1C79.4,475.8,80.9,478.4,83.1,480.2Z"/><path d="M89.3,490.8l1.2-.3c-.6-7.2-3.4-6.6-8.3-9.5-.4-1.2-.8-2.9-.4-3.5l-1-.7c-1,1.5-.1,4.1.1,4.8s4.5,2.7,6.3,3.5,1.6,3.7,2.1,5.7Z"/><path d="M81.8,492.2l1.1-.5c-1.8-5.2-3.8-9.7-1.2-10.4l-.4-1.1c-4,1.5-1.6,5.7.5,12Z"/><path d="M146.7,474.8c.6-1.4.7-4.3-1.4-4l.2,1.2c.4.2.4,1.5,0,2.4Z"/><path d="M103,492.2c1.5-4.8,8.2-2.5,13.2-4.4,8.4-2.7,10-4.1,8.6-8.7l-.9.8c.7,3.9-1.1,4.5-7.9,6.8-5.2,1.7-13-.1-14.1,5.4Z"/><path d="M92.9,537.6c10-.3,17.5-2.9,22.5-9.6,2.3-2.3,11.3-13.4,11-16-6.4-19.9,5.1-28.3-1.5-30.9l-.4,1.2c3.9,1.6-2.8,11.1-1.5,17.6-.1,9.8,5.6,9.5-1.5,18.7-6.5,7.6-8.1,13.1-18.2,16.3-8.4,4.1-37.9.4-36.7-15.9-3.4-25.1,27.3-21.2,38.6-9.8-5.3-10.1-25-14.3-34.8-6.6-6.6,5.8-4.9,16.2-4.9,17.3C64.5,530.3,81,538,92.9,537.6Z"/><path d="M124,533.7c.7,0,1.2-.1,1.4-.4,3.3-3.3,3.1-6.9,3.3-12.7s1.9-9-2.9-9.8V512c3.5.5,1.5,3.8,1.8,8.6s.7,7.6-3,11.9a6.4,6.4,0,0,1-2.2-.2l-.2,1.2Z"/><path d="M117.2,543.2c3.6-1.4,4.1-8.9,6.7-12,1.4,3.1,1.3-5,1-3.9a45.2,45.2,0,0,0-5,9.7c-1.5,2.7-1,5.7-4.2,4.8l-.2,1.2Z"/><path d="M95.3,540.2c7.4.6,18.4-3.2,21.5-10.3,3.1-4.2,9.4-13.7,9.4-15.5-10.4,17.4-15.9,27.9-39.5,24.1-8.1-1-17.3-4.3-20.3-10.4C67.8,535.1,85.8,540.9,95.3,540.2Z"/><path d="M112,547c4-1,3.7-2.3,3.6-6l1.2-1a8.7,8.7,0,0,0,.3,1.4c.3.9,1.6-4.3.9-4a32.4,32.4,0,0,0-3.6,3.1c0,.4-.1,3,0,4.1-1.6,1.3-2.9,1.4-4.9.8l-.2,1.2C110.2,546.7,111.3,547,112,547Z"/><path d="M92,549.9a140.2,140.2,0,0,0,15.9-1.1c2.6.1,2.1-2.1,2.1-3.9l1.5-.7c1.1-.6-.2,2.6,1.2.6.2-.5.8-2.8,0-2.5l-3.9,1.8v3.3c-10.8,2-40.1,3.2-44.7-11.2-.3-3.6-1.7-11.5,2.7-12.7l-.4-1.1c-5.1,1.1-4,10-3.5,14.2C64.7,546.4,82.8,549.7,92,549.9Z"/><path d="M102.9,501.5c-1.5-1.5-6.1-4.1-6.3-3.8l-.5.6c-6.2-13.8,28.3-5.3,26.5,4.9S106.3,506.1,102.9,501.5Zm-5.2-8.4c-1.3.2-1.5,1.3-1,3.3,1.4.1,5.1,2.4,7,4.1,3.2,3.5,14.5,9.1,17.6,2.5-1.3-8.8-15.9-11.8-23.6-9.9Z"/><path d="M117,504c1.4-.7,1.9-1.3,1.8-2.4-1.2-8.2-19.3-9-23.3-7.2l.6,1.1C99.1,493.7,120.9,495.1,117,504Z"/><path d="M114.3,504c2.8-.1,4.4-1.3,4.2-3.5l-1.2.2C113,508,103.1,495,96.8,494l-.4,1.2C103.6,497.1,107.1,503.8,114.3,504Z"/><path d="M96.1,498.6a3.2,3.2,0,0,0,1.9-.7l-.8-.9c-5,2.5-3.6-9,.9-4.2l.9-.8C93.6,486.8,89.6,497.8,96.1,498.6Z"/><path d="M93,498a3.4,3.4,0,0,0,1.5-.4l-.6-1,.3.5-.3-.5c-4.1,1.5-3.2-7.2,1-4.6l.7-1C90.6,487.5,87.4,497.4,93,498Z"/><path d="M108.3,502.1l1.1-.4c-.8-2.5-4.1-7.4-8.2-8.1l-.2,1.2c3.3.6,6.4,4.7,7.3,7.3Z"/><path d="M108.8,516h1.4c2.6-1.7,1.1-6.4.4-10.7l-1.2.3c.7,3.7,1.7,7.4.4,9.1-3.1.9-1.7-7.6-2.8-11.5l-1.2.2C107.1,508.3,105.2,515,108.8,516Z"/><path d="M108.4,523.5c2.6.3,1.7-7.4,2.3-8.1h-1.2c-.3.2-.2,6.8-1.1,7.1s.7-7.2.5-7.2h-1.2C108,515.9,105.2,523.5,108.4,523.5Z"/><path d="M103.1,504.7c1.2-.3,2-1.8.7-4l-1,.7a1.7,1.7,0,0,1,.1,2.1c-2.4-.8-4.4-2-7.6-2.7L95,502C98.4,502.6,100.7,504.2,103.1,504.7Z"/><path d="M85.8,499.8a31,31,0,0,1,6-2.3v-1.2c-2,.2-6.3,2.3-6.5,2.4Z"/><path d="M77.5,498.6c1.4-5.1,9.7-2.3,13.4-2.3v-1.2c-3.7-.1-14.2-3-13.6,3.4.1.7.2.5.3.1Z"/><path d="M74.8,500.3l1.7-.4c-.8-2.1-1.4-3,3.6-5.9s12-2.2,12-2.2l.2-1.2c-1.3-1.3-21.6,2.4-17.5,9.7Z"/><path d="M79.7,499.9l.4-1.2a1.6,1.6,0,0,1-.9-2.4l-.7-1C76.9,496.6,77.8,499.5,79.7,499.9Z"/><path d="M81.7,499.5c1-.9,4.3-3.4,7.2-3.5l-1-.9a22.6,22.6,0,0,0-7.1,3.6Z"/><path d="M82.8,497.6H84a19.8,19.8,0,0,0-.4-2.8l-1.2.3a14,14,0,0,1,.4,2.5Z"/><path d="M100.7,499.8l.6-1a18.3,18.3,0,0,0-5-1.4l-.2,1.2a17.3,17.3,0,0,1,4.6,1.2Z"/><path d="M84.5,516.1c-2.1-1.9-7.7-3.4-11.1-1.9-.9.4-.3.2.1.1a17.4,17.4,0,0,1,5.1-.1,19.3,19.3,0,0,1,5.6,1.8C84.7,516.4,85.1,516.5,84.5,516.1Z"/><path d="M104,489.4l1.2-.4c-1.8-2.4-12-5.8-16.9-4.1l.8.9c1.1-1.5,15.6,2.8,14.9,3.6Z"/><path d="M88.3,491.3h.6c-.7-6.1-2.9-5.2-7-8.1-.2-.2-1-.8-.3,0,3.6,3.6,6.1,1.8,6.7,8.2Z"/><path d="M103.2,490.4l.4-.5c-1.9-1.4-10.7-4.5-14.6-3.6v.6c3.7-.8,12.3,2.1,14.1,3.5Z"/><path d="M104.5,492c.1-1.7,6.7-1.9,9.6-2.6,5.4-.8,11-3.9,10.1-4-2.2,3.2-19,3.3-20.3,6.4Z"/><path d="M163.7,533.9c8.2-.7,22-2.9,22.1-12.6,0-6.9,1.8-9.9-3.6-11v1.2c4.3.8,2.3,4.7,2.5,9.7.1,10-19.2,12.5-26.2,10.9a12.3,12.3,0,0,0-.1-2.6l-4.8-1.3c-.8-.2-.7,1.7-.7,2.3s.2.6.3.2c-.1-2.3,3.1-.2,4.1-.2v2.7A27.6,27.6,0,0,0,163.7,533.9Z"/><path d="M152.4,532.9c1.3,0,4.5-2.2,5-2.5l-.7-1c-3.4,2.7-5.8,2.5-9.9,1.2a7.3,7.3,0,0,1,.4-2.7c-.1-.1-5.3-1.4-5.6-1.7s-1.1,1.3-.7,2.2.6.2.5,0c-.8-1.9,3.6.4,4.4.4C144.5,532.7,149.2,532.2,152.4,532.9Z"/><path d="M141.4,530.1c1.1,0,2.9-1.1,4.2-1.6l-.5-1.1c-5.6,4.4-12.2-3.6-17.2-5.7l-.4,1.1C131.3,524.5,136.8,529.8,141.4,530.1Z"/><path d="M140.4,502.3a8.9,8.9,0,0,1,2.6-3l-.4-1.2C141.1,498.4,137.4,507.2,140.4,502.3Z"/><path d="M164,522.1c36.5-1.4,14.8-40.5-19.4-25.2l.6,1.1c39.5-16.5,53.7,33.3,7.2,20.5-6.3-1.3-18.8-5.3-24.2-5.4v1.2C136.9,514.6,153.9,521.2,164,522.1Z"/><path d="M131.8,497.9c-3.7-6.4,5.2-19.8,14.5-14.4,1.2,1-.5,4.8-1.3,6.8-1.4,4.4-3.8,9.7-9,9.3A4.5,4.5,0,0,1,131.8,497.9Zm11.9-14.4c-9.2-1.8-17.5,16.3-6,14.9,3.5-.6,5-4.9,6.3-8.4S147.3,483.7,143.7,483.5Z"/><path d="M136.4,497.9c.6.1,3.5-2,1.6-1.1-4.4,1.2-3-3.7-1.1-6.7s6.5-3.9,9.1-6.1l-1-.7c-2.8,1.8-6.5,2-9.2,6.2C134.2,491.8,132,498.2,136.4,497.9Z"/><path d="M135.3,497.3c5,.2,9-10.1,9.2-12.8h-1.2c0,2-4.5,12.6-8.3,11.5l-.2,1.2Z"/><path d="M145.6,488.4c6-1,1.5-11.2-3.5-5.9l.8.9c3.6-3.9,6.7,3.2,2.5,3.8v1.2Z"/><path d="M147.6,488.2c5-.5,2.6-10.8-2.4-7l.8.9c3.5-2.8,4.5,5.5,1.2,4.7l-.4,1.1A1.1,1.1,0,0,0,147.6,488.2Z"/><path d="M158,494.6c3.5-4.8-3.4-15.2-9.2-13.5l.3,1.2c4.8-1.4,10.8,7.8,7.9,11.7Z"/><path d="M154.9,494.9c2.2-4.1-.8-11-5.1-11.9l-.2,1.2a7.6,7.6,0,0,1,4.2,10.2Z"/><path d="M144.1,492.4c3.4-1.4,9.6-1.6,5.4-6.2l-.8.9c3.1,3.6-2.9,2.7-5.1,4.2Z"/><path d="M144.6,494.7a29.3,29.3,0,0,1,7.1-1.6c.5-1.3-.6-3-1.7-3.6l-.6,1a3.9,3.9,0,0,1,1.2,1.4,35,35,0,0,0-6.4,1.6Z"/><path d="M153,495.1c.3-1.7-.5-2.9-1.6-3.1l-.3,1.2a1.3,1.3,0,0,1,.7,1.7Z"/><path d="M152.8,493.4c.8-3.9-1.1-8.3-2.8-9.1l-.5,1.1c1.2.5,2.8,4.3,2.1,7.7Z"/><path d="M140.4,492.4l1.1-.4c-.6-1.6-.9-4.2,0-5.9l-1.1-.5C139.4,487.6,139.7,490.5,140.4,492.4Z"/><path d="M144.1,510.4c5.1-2,1.6-14.2.2-18.4l-1.2.2c.6,2.9,1.9,4.9,2.1,8.4s.7,10.3-2.4,7.9c.9-3.8.8-9.7-.5-12.7l-1.1.4a20.4,20.4,0,0,1,.6,10.8C141.2,509.3,142.4,510,144.1,510.4Z"/><path d="M139.9,516.6c1.7,0,4-6.3,4.6-6.7l-1.1-.6c-.4.1-2.9,6.1-3.8,6s3.5-6.3,3.2-6.4l-1-.6C141.7,509.4,135.4,516.2,139.9,516.6Z"/><path d="M140.1,483.2h1.2c.5-10-9.8.3-16.4-4.6l-.6,1c7.9,5.2,16.5-4.4,15.8,3.6Z"/><path d="M147.1,481.3c1-5.6,1.5-10.5-5.4-5.3-1.5.9-3.7,1.2-3.8,3.1h1.2c.3-1.3,4.8-2.5,5.5-3.6,3.2-2.2,1.4,3,1.3,5.6Z"/><path d="M130.8,482.9c4.1,0,7.3-1.8,7.6-2.2-1.2.6-6.1,2.7-13.1.9l-.2.6A25.2,25.2,0,0,0,130.8,482.9Z"/><path d="M141.5,479c.7-.6,4.7-3.3,4.9-2.2s.3.3.4-.4h.6c-.6-2.1-5.8,1.6-5.9,2.6Z"/><path d="M164.9,524.1c8.5,1.1,18-5.2,18.6-9.9.6-1.5-.2-.4-.3-.1-12.8,19.4-36.4,2.8-54.9,1.1v.6C146.3,518,147.6,522.9,164.9,524.1Z"/><path d="M168.8,504.9a22,22,0,0,1,7.3-2.7c.3,0,.9-.2,0-.2C173.2,501,166.1,506.2,168.8,504.9Z"/><path d="M119.4,424.4c-26.8-3-44.2-10.9-64.1-30.3-3.6-2.4-.6-4.9-.3-8.7,3.7-14.8,9.1-41.1,10.7-56.1h1.2c-1.6,15-7,41.4-10.7,56.2-1.4,7.1-3,5.4,3,10.1,14.9,15.6,37.3,24.1,57,26.1,14.1,4.6-4.1-65.4-3.6-73.3h1.2c.4,13.2,15.7,69.1,5.6,76Z"/><path d="M132.9,454c-22.3-1.8-37.3,2.2-60.2-5.5-6.4-2.3-17.8-5.4-19.9-8.1s-2-5.2-.8-10.5c2.6-11.4,5.6-27,6.8-33.2l1.2.2c-1.2,6.2-4.2,21.9-6.8,33.3-4.8,11.6,7.4,12.6,19.8,17.1,14.3,4.9,24.2,4.9,36.7,4.8,17.8,1,46.6,1.5,56.5-10.8,5.4-5.3-.5-19.6-.9-31.4l1.2-.2c.4,12.6,6.6,26.2.6,32.4s-19,11.9-34.2,11.9Z"/><path d="M171.7,214.6c16.5-4.7,32-11.2,39.3-23.9-11.4,15.6-31.4,22.8-50.9,22.2,18.1-25.9,18.5-55.7,7.7-76.1,3,14.6-9.5,27.3-8.3,40.1-4-4.4-4.2-13.8-4.1-20.2-1.6,6.8-3.2,24.3-3.2,24.3-9.9-15.3-13.8-37.5-8.8-55.1-7.3,8.8-9.4,22.7-7.8,34.6-20.3-17.5-31.5-48.2-26.1-72.2.2-2.5.7-2.4.6.2-1.9,21.5,4.9,50.1,23.2,66.6a41.6,41.6,0,0,1,13-34,63.9,63.9,0,0,0,5.1,54.4c-.3-8.3,4.8-27.4,5.1-28.1s-.9,16,1.7,22.8c2.5-11.8,12.4-24.1,7.4-37.5,15.5,16.6,15.3,52.8-2.3,78.9,22.8.1,43-12.1,52.5-30.2-1.4,14.6-19.1,27.1-35.8,32.1,33.4-1.5,64.2-36.6,64.6-67.7.1-.9,1.1-5.4,1.1-.3C247,181.1,208.4,219.9,171.7,214.6Z"/><path d="M82.4,231.3c-7.5-5.7-9.3-24.2-8.7-38.6-2.2,13.3.2,24.6,1.8,31.2-9.3-9.9-14.7-40.8-9.9-58.5-2.1,15.7,1.9,44.1,7.4,52.7-1.7-8.9-2.6-26.1,3.4-36.2-2.9,12.5-1.8,36.3,4.2,45.7-.5-7.6,4.8-17.2,11.4-29.2,18.7-26.9,23-66.5,18.2-85.3l1.2-.2C124,181.5,80.7,197.7,82.4,231.3Z"/><path d="M151.1,277.5c-12.2.6-23.8-11.4-25.4-17.2,6.4,9.8,22.4,20.1,40.5,11.9,5.2-1.1-13.1,6.6-15.1,5.3Z"/><path d="M122.4,259.1c-.8-3,3.4-4.2,4.9-2.9C126.7,256,122.4,256.9,122.4,259.1Z"/><path d="M147.8,284a18.4,18.4,0,0,1-10.6-3.5c-.5-.3-1.9-1.6.2-.4a20.7,20.7,0,0,0,12.9,2.6C155.8,281.9,149.1,284.2,147.8,284Z"/><path d="M164.5,262c.4-11.4-18.5-15-26.8-8.9-1.4.9-.7,0-.2-.5,9.4-10,34.4-1.9,26.8,12.3C164.1,264.6,164.6,263.8,164.5,262Z"/><path d="M162.7,355.2c-12.6.1-28.5-8.6-37.8-13.1l1.4-1.7c7.7,3.8,20.4,10.6,31.1,12.3,19.9,3,37.9-13.6,28.8-32.8-2.5-7.3-14.4-15-33.6-24l1.8-1.4c19.6,9.2,30.4,17.4,33,25.1s5.7,18.9-3.3,26.3c-6.7,5.3-13.2,9.3-21.4,9.3Z"/><path d="M164.5,317h-1.2a6.3,6.3,0,0,1,3.4-4.3c.8-.4.9-.2.2.1S165,314.9,164.5,317Z"/><path d="M144.8,345.2a23.3,23.3,0,0,1-11.8-2.9c-2.5-1.4-2.7-1.9-.7-1-.3,1.4,23.7,3.5,12.5,3.9Z"/><path d="M164.6,349.1c5.5-1.2,12.4-5,16-9.3.3-.3,1.7-2.1.4.1-3,5.2-10.3,9.3-16.5,9.6C164.2,349.5,163.2,349.3,164.6,349.1Z"/><path d="M164.9,373.2a25.2,25.2,0,0,0-.7-15.8c-.1-.3-1-2.3.3-.2,2.8,4.5,3.4,11.6.7,16.3-.1.3-.7.8-.3-.3Z"/><path d="M105.3,344.4c-3.2-.4-.3-.4.1-.4a23.1,23.1,0,0,0,7.7-1.6,33,33,0,0,0,7.4-4c.5-.3,2.5-2,.6.1-3.7,4.4-10.4,6.6-15.8,5.9Z"/><path d="M122.4,314.2a18.6,18.6,0,0,0-7.2-2c-1.3.1-1.3-.9.2-1.2s6,.8,7.6,2.1S123.9,315.2,122.4,314.2Z"/><path d="M118.2,324.4c-1.4,9.2-1.1-8.7-2.6-9-1.2-2.2-.4-1.8.9-.8S118.7,320.4,118.2,324.4Z"/><path d="M93.5,294.1c-1.4-3.8-5.7-7.6-9.9-9.1-.4-.1-.3-.5,0-.4,4.5,1.6,9.9,4.7,11.5,8.9Z"/><path d="M87.2,292.3c-1.4-1.6-10.6-.6-7.1-1.8,1.6-.3,5.6-.8,7.8,1.4S89.4,293.6,87.2,292.3Z"/><path d="M92.5,291.4a23.4,23.4,0,0,0-2.6-7.2c.1-1.8,3.6,4.8,3.8,6.9Z"/><path d="M104,351.2c-41.8-6-66-50.3-39-72,5.8-5.2,33.3-.9,39.1.6l-.3,1.7c-5.3-1-32.5-6.1-38.1-1.4C47,298.2,50,320.7,84.8,343.5s49.7-22.2,82-27.7c.8-.2,3.6-.4.4.5-13.7,3.8-26.9,13.9-36.2,22.2s-16.1,12.8-27,12.7Z"/><path d="M181.8,327c-.5-2.9-5.3-7.5-8.3-7.9s-2.1-.5.2-.7,2.7,0,5,1.9,3.7,4.5,3.7,6.4-.3,1.8-.6.3Z"/><path d="M130.7,304.5c-8.4,1.7-22.2-16.5-24.4-21.7l2-.5c1.9,4.6,12.3,22.9,24.2,20.9s12.5-8.6,12.5-8.9l1.8.2c.7.6-4.3,9.7-16.1,10Z"/><path d="M111.1,306.2c-.1-5.9-5.2-18.9-4.8-24.2h1.2c-.2,5.7,5.1,18.8,5.4,24.8Z"/><path d="M158.1,416.8c-3.1.4-.2-17.4-2.2-28.7s-4-30.7-6.8-36.3l1.1-.5c5,10.3,8.9,53,7.9,63.3,2.8.7,14.9-11.2,15.6-14.8,1.6-7.4-6.3-39.7-8.8-46l1.1-.4c2.5,6.5,10.5,39,8.8,46.5-1,4.7-12.3,15.4-16.7,16.9Z"/><path d="M117.8,422.8l-.6-.2c5.2-25.4-5-50.8-6.5-73.6h.6c1.6,22.9,11.8,48.2,6.5,73.8Z"/><path d="M160.4,414.9h-.6c1.5-9.4-3.7-53.1-7.7-62.5l.6-.2c4.3,11.3,9.1,52.9,7.7,62.7Z"/><path d="M160.3,412.3l-.3-.3c4.7-2.4,11.6-9.6,14.2-14.3l.5.3c-2.6,4.9-9.6,11.8-14.4,14.3Z"/><path d="M118.2,419.8c-35.8-5.3-43.4-11.9-63.7-29.8l.3-.5c20.3,18.1,27.5,24.6,63.5,29.7Z"/><path d="M157.2,297c-31.7-.5-58.8-13.1-78.1-37.2-6.8-7.9-12.3-14.7-12.8-19.6-35.6-.2-34.8-61.2-1-53.3l-.4,1.2c-31.4-5.7-32.6,52.6,3.7,50.1.2,9.5,16.9,31.1,39.6,43.7,30.5,17,95.9,23.2,82.8-27.7,16.3-15.8,53.3-70,51.6-93.5h2.2c1.5,23-33.7,76.9-51.9,93.9,5.6,23.3-6,43.4-35.7,42.4Z"/><path d="M64.9,232.6c-2.3-3.6.6-6.2,4-6.5,1.9-7.4-9.4-23.9-16.2-20.3-.7.2-2.1.4.2-.3,8-4.8,22,15.1,16.5,21.8-7.2.5-3.2,6.8-4.5,5.3Z"/><path d="M57,216.2c-.1-3.3,1.6-7.8,4.4-8.9l.8,1.4c-2.4,1-4.5,4.4-4.9,7.3-.1.4-.2,2.6-.3.2Z"/><path d="M70.5,262.9C4.4,244.2,1.6,118.2,50.2,72.9,81.7,39,141.5,42.4,181.6,56.2c62.1,18.4,89.4,87.2,66.5,144.9,1.6-17.4-5.1-43.1-5.2-41.8l1.2-1.8a142,142,0,0,1,5.4,36.1c11.4-36,3.9-78.3-18.8-104.3C182.4,34.8,48.2,22.6,24.4,119.8c-13.7,51.1-6.6,114.6,40.4,140.3A28,28,0,0,1,56.3,242c3.3,6.9,11.8,13.2,21.8,15.1l-.2,1.2a35.6,35.6,0,0,1-19.5-10.8A27.2,27.2,0,0,0,70.5,262.9Z"/><path d="M5,234.5l-4.6-.3c9.3-4,17.6-15.2,19-18.9a71.2,71.2,0,0,1-11.1,4.2A34.6,34.6,0,0,0,21,199l1.2.3a34.6,34.6,0,0,1-8.9,17.2c6.5-2.6,5.9-2.6,8.4-4.1-1.1,2.4-3.2,11.7-15.4,19.9,11.4.2,24.4-6.1,24.4-6.2l1.6,1.7c-.4.5-15.4,6.7-27.3,6.7Z"/><path d="M83.2,52.7l-2.6.8c5.9-18.2,49.9-22.1,63.2-5.3l-3.3-.2C133.1,34.4,88.3,35.6,83.2,52.7Z"/><path d="M31.5,100.7c-1.9-23.1-1.8-65.2,21.7-81.5,40.6-23.6,84.2-8.8,96.1,29.7h-2.6C136.7,13.2,93-3.7,54.1,20.2c-23,16-22.5,54.6-20.7,77.4Z"/><path d="M104.5,323.4c-12.3-1.1-5.4-20.2,3.7-19.1,7.5.7,5.9,7,3.1,12.2-1.4,3.4-2.4,7-6.8,6.9Zm3.7-17.9c-7.6-1-14.2,15.7-3.7,16.7,3.9,0,4.3-3.3,5.7-6.2,2.2-4.5,4.6-9.7-2-10.5Z"/><path d="M95.9,318.4c-15.3-2.6,2.6-26.2,11.5-13.8l-1,.7c-2.2-4.7-9.7-2.3-11.4-.5-5.4,3.5-5,14.9,3.4,12l.3,1.2a9.5,9.5,0,0,1-2.8.4Z"/><path d="M90.5,310.9c-12.6-9.6,14.3-23.5,14.4-8.3h-1.2c0-12.6-22.9-.6-12.7,7.3Z"/><path d="M107,319.3a17.1,17.1,0,0,0-6.1-1.7c-.3,0-.6-.2-.6-.8,1.4-7.3,10.6-2,6.7,2.5Zm-2.9-5.9c-1.5,0-3.3,2.3-3.2,3.6,1.8.1,5.2,1,6.1,1.7.9-1.5-.1-5.2-2.9-5.3Z"/><path d="M96.2,314.7a8.6,8.6,0,0,0-4.5-1.3,1.2,1.2,0,0,1-1-.4c-1-2,2-4.6,4.5-3.4S97.7,313.9,96.2,314.7Zm-4.4-1.9a8.4,8.4,0,0,1,4.4,1.2c.7-1.3-.2-4.6-2.5-4.5S90,312.7,91.8,312.8Z"/><path d="M91.3,306.9a5.4,5.4,0,0,0-3.5-1.6v-.6a5.4,5.4,0,0,1,3.5,1.4c2.4-2.1-.8-6.6-2.9-2.7l-.5-.3C90.6,298.6,95,304.5,91.3,306.9Z"/><path d="M87.6,303.8c-7.2-8,10.9-14.8,13.6-7.6l-1.1.5c-2-5.8-17.5,0-11.6,6.3Z"/><path d="M88.9,301c-.3-.5-1.3-2-2.1-1.4l-.4-.5c1.1-1.1,3,1.3,3,1.6Z"/><path d="M90.8,299.7h-.6c0-1.8-1-3.8-2.4-2.2l-.4-.4c1.7-1.7,3.6.4,3.4,2.6Z"/><path d="M155.5,320.5h-1.2c.7-17.1-8.7-19.9-22.1-15.4-6.3,1.4-15.5,3.1-19.3,5.8v-2c3.9-2.5,12.8-3.4,19-5,14.8-5.4,24.8.6,23.6,16.7Z"/><path d="M162.4,317.3c0-5-5.8-14.8-13.3-12.7v-1.2c8-2.5,15,9.1,15.2,13.6Z"/><path d="M78,364.8c-1.9-7.6-8.6-18.5-8.2-24.7,1.7,7.2,8.4,18.6,8.2,24.7Z"/><path d="M76.4,384.2c-3.3-7.9-8-28.5-9-36-.1-.5-.1-4.7.6-.1-.6,1,12.3,46,8.4,36.1Z"/><path d="M129.3,403.3a40.8,40.8,0,0,1-7.9-.6l.2-1.2c9.2,1.5,24.9.4,35.3-5.8l.6,1C149.3,401.7,137.6,403.3,129.3,403.3Z"/><path d="M82.7,351.1c-2.6-2.6-4.1-4.3-5.7-5.6s-1.1-1.4.7-.6c1.4-.8,11.3,12.2,5,6.2Z"/><path d="M148.1,303.4l-1.2-.2c.4-2,.8-6-.3-8.5l1.1-.5c1.5,3.4.6,8.6.4,9.2Z"/><path d="M143.7,302.6l-.7-.4c4.1-4.4,3.4-7.8,3.3-7.8l.6-.2C146.9,294.4,148,298,143.7,302.6Z"/><path d="M125.4,306.2c-8.7-1.6-16.5-12.5-17.9-17.9l.6-.2c1.4,5.3,9,15.9,17.4,17.5Z"/><path d="M152.9,321.6h-.6c1-5-3-19.9-12.7-18.5v-.6c9.4-1.3,14.6,13.8,13.4,19.1Z"/><path d="M128.2,399.7a60.8,60.8,0,0,1-7.1-.4v-.6c8,1.9,31.3-1.5,35.7-5.2l.3.5c-1.4,2-23.5,6.4-29,5.7Z"/><path d="M130.8,245c-19.5.3-14.9-39.8,3.1-41.5,21.6-2.1,15.8,42.1-3.1,41.5Zm4.8-40.9c-18.2,0-23.4,39.4-4.7,39.7,16.7,1.2,23.1-40,4.7-39.7Z"/><path d="M176.6,259.3c-18.7.3-5.3-37.2,9.4-35.7,18.7,1.2,5.2,37.2-9.4,35.7Zm9.4-35.1c-12-1.9-27.3,33.2-9.4,33.9,14.4,1.2,26.1-33.4,9.4-33.9Z"/><path d="M66.7,278.7c-2.8-16.4-.6-17.2,13.2-19.3l.2,1.2c-14.1,2.2-14.5,2.9-12.2,17.9Z"/><path d="M100.2,280.2c-5.5-3.8-21.8-10.6-26.9-15-2.1-1.6-.1-.5.8,0,7.2,4.2,21.2,9.8,27.6,13.8Z"/><path d="M80.4,275c-3.2-.4-7.2-1.2-9-2.5s-.6-1,1-.4a60,60,0,0,0,8.4,2.3C82.9,274.8,83.6,275.5,80.4,275Z"/><path d="M94.7,341.5c-9-2.1-22.1-10.3-28.1-18.1-2.1-3-.4-1,.2-.4,6.9,6.8,18.9,15.1,27.7,17.8,1.8.6,5.8,1.9.2.7Z"/><path d="M116.1,450.9c-17.9.6-36.6-2.3-51-8.6-8.9-2.8-13.7-7.3-13.2-9.4h.6c1.6,8.7,32.3,16,44.2,17.1,24.6.1,61.8,6.2,72.1-16.3h.6c.5,4-8.2,10.4-11.3,11.9-10.9,6.2-25.4,5.1-42,5.5Z"/><path d="M104.2,462a15.3,15.3,0,0,0,6.9-2.9c1.6-1.2,1.4-1.4-.2-.5a72.2,72.2,0,0,1-6.9,3.1C102.3,462.3,102.9,462.2,104.2,462Z"/><path d="M96.9,462.5c1.7.4,1.5.2-.3-.9a39.2,39.2,0,0,1-5.3-4.5c-1.1-1.1-1.1-1-.1.5S94.8,462,96.9,462.5Z"/><path d="M103.7,485.4c-14.8.2-20.9-4.1-24.4-17.7-2.2-6-5.2-13.8-6.6-19.5l1.2-.3c1.4,5.6,4.4,13.4,6.6,19.3,4.2,9.5,1.8,12.5,13.3,15.9,30.3,4.5,27.7-5,32.7-29.9l1.2.2c-4.4,17.3-.7,33.2-24,32Z"/><path d="M130.4,478.6a18.1,18.1,0,0,1-5.4-.7l.3-1.2c6.1,2.1,20-1,21.2-10.5,1.6-5.2,4.4-12,6.1-16.6l1.2.4c-5.8,12.8-5.2,28.5-23.4,28.6Z"/><path d="M79.8,450.2c-1-9.8.1-25.4.8-37.6h.6c-1.2,11.7-1.8,28.1-.8,37.2Z"/><path d="M139.1,453.5l-.6-.2c.7-8.1-.5-24.7.6-37.1h.6c-1.1,12.6.1,28.7-.6,37.3Z"/><path d="M138.5,416.1c3-1.1,1.4-11,2.1-14.4h.6c-.7,2.8.8,14.9-2.1,14.8S137.7,416.3,138.5,416.1Z"/><path d="M137.7,415a90.2,90.2,0,0,1,0-10.4c.5-3.5.6,9.5.3,9.8S137.7,416.5,137.7,415Z"/><path d="M151.7,442.4c2.6-3.8,7-11.8,7.9-17.1.1-.3.5-1.9.3-.1-.5,5.7-4.6,14.1-8.1,17.6-1.8,1.8-.5.2-.1-.4Z"/><path d="M161.3,430.8c.1-1.1.8-17.3,1.3-8.3a59.1,59.1,0,0,1-1,8.8C161,433.8,161.2,431.5,161.3,430.8Z"/><path d="M70.3,428.3c-4-4.8-8.6-16.3-7.7-20.5.3,5.8,5.5,16.1,7.7,20.5Z"/><path d="M74.2,440a21.6,21.6,0,0,1-6.3-5.4c-1.5-2-1.5-2.4.2-.5s4.8,4.3,6.4,5.6S76.3,441.1,74.2,440Z"/><path d="M114.2,440.4c-3,1.5-5.5,2.1-.3-.8s13.9-11.1,15.7-15.3,2.2-4.9.8.3c-1.9,7.1-13.1,14.3-16.2,15.8Z"/><path d="M110.4,414.7c-3.8-1.1-13.4-2.7-16.3-4.2.7-3.8,1.5-12.7,1.8-16.7,1.1-1.8,17.9,2.2,17.3,3.7-.8,3.5-.3,16.5-2.8,17.2Zm-15.9-4.1c4.2.7,11.6,2.8,15.9,3.7,1.7-.6,1.7-12.8,2.3-15.7s-12.8-4.2-16.5-5c-.2,4.2-1.1,13.1-1.7,17Z"/><path d="M142.8,189.8c-6.1-.7-13.3-2.5-19.8-.8-2.4.4-6.8,1.7-6.5-1.7s9.7-5.4,15.1-6,12.8-.1,14.3,3.6-.1,4.7-3.1,4.9ZM129.1,187c5.7-.7,11.6,3.1,16.1.6.4-4-3.8-5.8-9.1-6C125,181.5,105,191.6,129.1,187Z"/><path d="M216.2,212.4c-3.2-1-4.3-7.1-7.5-7.4l.4-1.1c2.4.9,4.4,3.1,6.1,6.5a1.2,1.2,0,0,0,1.2.8c4-2.2,0-7.8-3.3-9l.6-1.1C219.2,203.5,221.6,210.9,216.2,212.4Z"/><path d="M149.1,458.3a3.2,3.2,0,0,0,2.4-2l-1.1-.4C150.5,457,146.9,459.1,149.1,458.3Z"/><path d="M146.4,458.5c2.2.3-2.2-2.1-2.5-2.8S145.2,458.7,146.4,458.5Z"/><path d="M62,313.7c-9.8-11.7,12.2-22.5,16.1-10.3L74.7,305c-2.6-7.2-16.2-.3-10,6Zm8.1-15.3c-7.6-.4-13.4,9.1-8,14.9l2.3-2.2c-6-6.3,7.5-13.5,10.5-6.4l2.9-1.4c.4-1.2-3.9-5.5-7.7-4.9Z"/><path d="M70.5,325.2a18.1,18.1,0,0,1-2.6-2.8c1.1-1.5,5.2-4.3,6-4.9l-3-4.2a26.7,26.7,0,0,0-5.6,4.6h-.1a26.9,26.9,0,0,0-2.4-2.6c2-1.8,10.7-8.7,15.8-10.1l1.7,2.8a30.6,30.6,0,0,0-5.9,3.2l2.3,3.9a39.3,39.3,0,0,1,5.8-3.2l2.2,2.7C84.3,314.2,70.1,324.7,70.5,325.2Zm-2.3-2.8a26.6,26.6,0,0,0,2.3,2.4c.4-1.1,12.6-10,13.7-10.4l-1.9-2.3a60.4,60.4,0,0,0-5.8,3.2l-2.6-4.4a29.1,29.1,0,0,1,5.9-3.3l-1.4-2.3c-4.7,1.4-13.2,8-15.2,9.8l2.1,2.3a26.5,26.5,0,0,1,5.7-4.6l3.3,4.6c-.2.3-4.7,3.3-6.1,5Z"/><path d="M76.6,330.4,72.3,327c2.5-3.8,10.3-10,12.3-11.1,2.3,2.6,2.6,2.9,2.8,3S76.4,329.4,76.6,330.4Zm-3.9-3.5,3.8,3c.5-1.7,9.4-10.3,10.5-11l-2.4-2.7C82.6,317.4,75.2,323.4,72.7,326.9Z"/><path d="M90.4,339.5h-.3a6.3,6.3,0,0,0-.2-4.7c3.6,1.8,7.5-2.6,5.5-6.7-.8-1.8-4.9-5.1-7.2-7.1-2,1.3-8.4,7.7-9.9,12.2H78c1.6-4.7,8.2-11.3,10.2-12.5,2.4,2.1,6.6,5.5,7.4,7.4,2.1,3.6-1.6,8.8-5.2,7.3a7,7,0,0,1,0,4.3Z"/><path d="M86.1,337.8h-.3c1.3-2.3.6-5.7-1.5-6.1a11.6,11.6,0,0,0-2.2,3.5H82a9.5,9.5,0,0,1,2.3-3.6c2.2-.1,3.3,4,1.8,6.4Z"/><path d="M81.9,337.2c-.8-1-4.3-2.1-3.4-3.9h.3c-.9,1.5,2.4,2.6,3,3.4l.5-1.1h.3Z"/><path d="M90.1,341.5a32.5,32.5,0,0,1-4.2-2.3,2.6,2.6,0,0,1,.4-1.3h.2a1.9,1.9,0,0,0-.3,1,25.4,25.4,0,0,0,3.6,2,1.6,1.6,0,0,1,.9-1.4v.2C90.7,339.9,89.8,340.8,90.1,341.5Z"/><path d="M90,331.3c-1,0-2.4-.8-4-2.3,0-1.2,2.8-3.6,3.4-3.7,2.3.3,4.2,5.7.6,6Zm-3.8-2.4c2.7,3.4,7,2.2,5.1-1.6a4.3,4.3,0,0,0-2-1.7c-.5.2-2.9,2.4-3.1,3.3Z"/><path d="M103.7,346.8c-11.5-.4-10.3-18.8.8-19.3s10,20.3-.8,19.3Zm.8-19c-12,.6-11.3,20.9,1.2,18.5,10.1-2.8,8.8-18.2-1.2-18.5Z"/><path d="M103.8,342.7c-6.1,0-5.1-10.8.7-10.9s4.6,10.8-.7,10.9Zm.7-10.6c-5.4.1-6.4,10.4-.7,10.3s6.4-9.8.7-10.3Z"/><path d="M101.3,373.6c-9.9,4.9-8.9,19.2-17.5,25.6C90.7,391.7,90.3,376.8,101.3,373.6Z"/><path d="M107.4,376.8c4.8,3.9,6.1,10.7,7,16.5-2-5.5-3.1-12-7-16.5Z"/><path d="M162,373.6c5,7.2,6.5,17,5.6,25.6-1.1-8.6-2.4-17.5-5.6-25.6Z"/><path d="M150.9,303.9h-.6c.2-2.1-.2-6.3-1.1-8.2l.6-.3a20.8,20.8,0,0,1,1.1,8.6Z"/><path d="M126.4,228.2c-.2,7.4,10.4,7,10.7,0S126,221.1,126.4,228.2Z"/><path d="M171.1,243.3c-.2,6.7,9.3,6.3,9.7,0S170.8,237,171.1,243.3Z"/><path d="M178.4,241.4c3.7.1,3.7-5.7,0-5.7S174.8,241.5,178.4,241.4Z" style="fill:url(#aefaa87e-85d2-4462-ba7f-479d50abd27f)"/><path d="M132.9,225.1c4.2.1,4.2-6.5,0-6.4S128.7,225.2,132.9,225.1Z" style="fill:url(#b654fd00-a114-4688-81e5-6b2b0155e3c4)"/><path d="M104.1,400.8l.5-3.7c1.3-.1,1,2-.2,1.4" style="fill:none;stroke:#fff;stroke-miterlimit:10;stroke-width:2.3443000316619873px"/><path d="M107.6,407.2c-2.6,4.2-9.8,1.6-8.9-3.3s5.1-5.3,7.8-3" style="fill:none;stroke:#fff;stroke-miterlimit:10;stroke-width:2.3443000316619873px"/><path d="M107.2,402.6l1.8-.7" style="fill:none;stroke:#fff;stroke-miterlimit:10;stroke-width:1.8753999471664429px"/><path d="M108.1,402.2c1.4.6-.3,1.1-.6,1.2" style="fill:none;stroke:#fff;stroke-miterlimit:10;stroke-width:1.8753999471664429px"/><path d="M107.7,404l1.5-.2" style="fill:none;stroke:#fff;stroke-miterlimit:10;stroke-width:1.8753999471664429px"/><path d="M109.3,403.8h.3" style="fill:none;stroke:#fff;stroke-miterlimit:10;stroke-width:1.8753999471664429px"/><path d="M107.7,404.6h1.5" style="fill:none;stroke:#fff;stroke-miterlimit:10;stroke-width:1.8753999471664429px"/><path d="M108.7,404.7c.2.1.2.6.2.6" style="fill:none;stroke:#fff;stroke-miterlimit:10;stroke-width:1.8753999471664429px"/><path d="M107.6,406.1c.2-.8,1.5-.2,1,.4s-1.4,0-1-.4Z" style="fill:none;stroke:#fff;stroke-miterlimit:10;stroke-width:1.8753999471664429px"/><path d="M107.7,401.5c0-1.7-2.2.4-.4.4" style="fill:none;stroke:#fff;stroke-miterlimit:10;stroke-width:1.8753999471664429px"/></g></svg>