<svg id="a869ae1e-a2a4-4c83-8bc3-8fc35e7f51d1" data-name="Layer 1" xmlns="http://www.w3.org/2000/svg" xmlns:xlink="http://www.w3.org/1999/xlink" viewBox="0 0 84.1 147.7"><defs><clipPath id="a5b72974-5c36-4e01-9b17-9a2ffbfc99ff"><rect width="84" height="147.7" style="fill:none"/></clipPath><linearGradient id="f556b193-f36a-4bfe-8dd1-e3dce6cef628" x1="16.82" y1="522.88" x2="47.71" y2="522.88" gradientTransform="translate(0 -410.3)" gradientUnits="userSpaceOnUse"><stop offset="0.25" stop-color="#a2927f"/><stop offset="0.54" stop-color="#9b8c79"/><stop offset="0.95" stop-color="#897a6a"/></linearGradient><linearGradient id="a11ac152-8772-4d95-b6fc-35daf977f7b2" x1="22.89" y1="534.8" x2="36.26" y2="535.63" gradientTransform="translate(0 -410.3)" gradientUnits="userSpaceOnUse"><stop offset="0.5" stop-color="#f2b58d"/><stop offset="0.63" stop-color="#efb189"/><stop offset="0.77" stop-color="#e5a67c"/><stop offset="0.83" stop-color="#de9e74"/></linearGradient><linearGradient id="b63f882b-8998-476e-87d4-f764b804becf" x1="35.93" y1="533.95" x2="42.78" y2="534.38" gradientTransform="translate(0 -410.3)" gradientUnits="userSpaceOnUse"><stop offset="0.07" stop-color="#de9e74"/><stop offset="0.37" stop-color="#f2b58d"/><stop offset="0.52" stop-color="#f0b28a"/><stop offset="0.73" stop-color="#de9e74"/></linearGradient><radialGradient id="bede3a18-318b-4efa-b49e-5d0c7a7eb7c7" cx="-902.66" cy="-1.62" r="0.27" gradientTransform="translate(-25852.5 100.3) rotate(180) scale(28.67 22.28)" gradientUnits="userSpaceOnUse"><stop offset="0" stop-color="#544438"/><stop offset="1" stop-color="#352920"/></radialGradient><linearGradient id="e8a049ec-0ca2-4921-934e-72023d55ce98" x1="30.45" y1="542.46" x2="26.39" y2="541.44" gradientTransform="translate(0 -410.3)" gradientUnits="userSpaceOnUse"><stop offset="0" stop-color="#231c16"/><stop offset="0.37" stop-color="#352920"/><stop offset="0.77" stop-color="#33281f"/><stop offset="1" stop-color="#221b15"/></linearGradient><radialGradient id="f41fb2e5-952a-4dfa-8ce5-b791773d314d" cx="-911.42" cy="-2.47" r="0.27" gradientTransform="translate(-18195.5 95.1) rotate(180) scale(20.02 16.21)" xlink:href="#bede3a18-318b-4efa-b49e-5d0c7a7eb7c7"/><linearGradient id="b73260e9-078b-4689-98bd-2c7400f7fd2a" x1="38.66" y1="544.07" x2="35.55" y2="544.07" gradientTransform="translate(0 -410.3)" gradientUnits="userSpaceOnUse"><stop offset="0" stop-color="#352920"/><stop offset="1" stop-color="#221b15"/></linearGradient><linearGradient id="f7e718fd-7acd-4e54-9fa1-6435a082dc19" x1="41.19" y1="539.3" x2="40.19" y2="539.71" xlink:href="#b73260e9-078b-4689-98bd-2c7400f7fd2a"/><linearGradient id="ab5fdbde-a684-4b94-8fe8-78b5cb97fcfa" x1="24.44" y1="540.25" x2="36.06" y2="540.25" gradientTransform="translate(0 -410.3)" gradientUnits="userSpaceOnUse"><stop offset="0" stop-color="#293b60"/><stop offset="0.34" stop-color="#27395c"/><stop offset="0.64" stop-color="#233351"/><stop offset="0.94" stop-color="#1b283f"/><stop offset="1" stop-color="#19253a"/></linearGradient><linearGradient id="f0818d33-75ca-4cf8-8243-17bb0bd49225" x1="36.07" y1="538.44" x2="41.77" y2="538.44" gradientTransform="translate(0 -410.3)" gradientUnits="userSpaceOnUse"><stop offset="0" stop-color="#1a273d"/><stop offset="0.35" stop-color="#293b60"/><stop offset="0.56" stop-color="#27395c"/><stop offset="0.77" stop-color="#223250"/><stop offset="0.98" stop-color="#1a273d"/><stop offset="1" stop-color="#19253a"/></linearGradient><linearGradient id="b241bbf5-2c48-4c41-b6ac-ca299c0cbe6b" x1="32.21" y1="501.83" x2="42.59" y2="500.67" gradientTransform="translate(0 -410.3)" gradientUnits="userSpaceOnUse"><stop offset="0.07" stop-color="#a91f18"/><stop offset="0.15" stop-color="#c31e12"/><stop offset="0.23" stop-color="#d81c0d"/><stop offset="0.28" stop-color="#e01c0b"/><stop offset="0.72" stop-color="#e01c0b"/><stop offset="0.87" stop-color="#bf1e13"/><stop offset="1" stop-color="#a91f18"/></linearGradient><linearGradient id="aaf4a8f4-0b06-48b9-b2ee-da689edde4cb" x1="9.95" y1="510.39" x2="49.16" y2="498.49" gradientTransform="translate(0 -410.3)" gradientUnits="userSpaceOnUse"><stop offset="0" stop-color="#293b60"/><stop offset="1" stop-color="#19253a"/></linearGradient><linearGradient id="ffd12d84-bca2-4198-b6da-9fdfde721ee1" x1="35.15" y1="516.34" x2="44.52" y2="515.52" gradientTransform="translate(0 -410.3)" gradientUnits="userSpaceOnUse"><stop offset="0" stop-color="#1a263b"/><stop offset="0.34" stop-color="#293b60"/><stop offset="0.78" stop-color="#283a5e"/><stop offset="1" stop-color="#19253a"/></linearGradient><linearGradient id="ffafa00a-845b-4289-8715-4455259b14f3" x1="30.7" y1="488.12" x2="41.6" y2="488.12" gradientTransform="translate(0 -410.3)" gradientUnits="userSpaceOnUse"><stop offset="0" stop-color="#1a263b"/><stop offset="0.27" stop-color="#293a5f"/><stop offset="0.8" stop-color="#293b60"/><stop offset="1" stop-color="#19253a"/></linearGradient><linearGradient id="ba1f53aa-c9bc-48e8-92fb-6d760a8eedb8" x1="3.54" y1="514.17" x2="11.88" y2="522.98" gradientTransform="translate(0 -410.3)" gradientUnits="userSpaceOnUse"><stop offset="0.35" stop-color="#f2b58d"/><stop offset="0.55" stop-color="#efb189"/><stop offset="0.75" stop-color="#e5a67c"/><stop offset="0.85" stop-color="#de9e74"/></linearGradient><linearGradient id="f7c487bb-b27a-4ca8-96d5-5be15514961f" x1="60.91" y1="457.44" x2="70.45" y2="467.52" gradientTransform="translate(0 -410.3)" gradientUnits="userSpaceOnUse"><stop offset="0.35" stop-color="#f2b58d"/><stop offset="0.61" stop-color="#efb189"/><stop offset="0.88" stop-color="#e5a67c"/><stop offset="1" stop-color="#de9e74"/></linearGradient><linearGradient id="b40186f3-fa30-4548-b5a7-2e8529da12fa" x1="18.75" y1="460.22" x2="57.79" y2="470.06" xlink:href="#ba1f53aa-c9bc-48e8-92fb-6d760a8eedb8"/><linearGradient id="a0f45828-0bab-4baf-b695-3e620456542e" x1="45.18" y1="476.01" x2="54.66" y2="483.71" gradientTransform="translate(0 -410.3)" gradientUnits="userSpaceOnUse"><stop offset="0" stop-color="#bfad95"/><stop offset="0.85" stop-color="#8e7c68"/></linearGradient><linearGradient id="af124768-d42e-4be4-a8a1-4ed5d05f2194" x1="23.71" y1="487.64" x2="29.19" y2="482.08" gradientTransform="translate(0 -410.3)" gradientUnits="userSpaceOnUse"><stop offset="0" stop-color="#bfad95"/><stop offset="1" stop-color="#8e7c68"/></linearGradient><linearGradient id="ec717033-8a46-4a53-88e6-546b26336842" x1="32.05" y1="456.94" x2="39.52" y2="456.94" gradientTransform="translate(0 -410.3)" gradientUnits="userSpaceOnUse"><stop offset="0.3" stop-color="#efbd50"/><stop offset="1" stop-color="#ddab47"/></linearGradient><linearGradient id="b7a70798-aebc-46d6-820c-d5f959336a7b" x1="56.74" y1="458.67" x2="59.26" y2="458.67" xlink:href="#ec717033-8a46-4a53-88e6-546b26336842"/><linearGradient id="a8ef3641-4adb-4411-9615-ed8636b391b7" x1="5.79" y1="444.32" x2="66.88" y2="457.53" gradientTransform="translate(0 -410.3)" gradientUnits="userSpaceOnUse"><stop offset="0.3" stop-color="#efbd50"/><stop offset="0.83" stop-color="#ddab47"/></linearGradient><linearGradient id="fdc47f42-04f5-4fe4-8208-50ba096759ac" x1="5.23" y1="471.04" x2="9.56" y2="469.36" gradientTransform="translate(0 -410.3)" gradientUnits="userSpaceOnUse"><stop offset="0.3" stop-color="#efbd50"/><stop offset="0.92" stop-color="#ddab47"/></linearGradient><linearGradient id="bd014b65-29ab-41f8-b9c2-ee6dc719d637" x1="11.97" y1="414.99" x2="18.91" y2="428.14" xlink:href="#fdc47f42-04f5-4fe4-8208-50ba096759ac"/><linearGradient id="a5f884b4-3535-4463-ab31-4beeb8be2a58" x1="15.68" y1="422.58" x2="31.32" y2="420.82" xlink:href="#b241bbf5-2c48-4c41-b6ac-ca299c0cbe6b"/><linearGradient id="a5741a56-bc30-420c-9ea6-f39911766bae" x1="15.02" y1="494.55" x2="24.28" y2="502.04" xlink:href="#af124768-d42e-4be4-a8a1-4ed5d05f2194"/><radialGradient id="aa5ba693-a3e5-46e7-aee3-864de5741013" cx="-967.94" cy="-49.51" r="0.27" gradientTransform="matrix(-7.56, 1.3, -1.3, -7.56, -7344.33, 946.35)" gradientUnits="userSpaceOnUse"><stop offset="0.74" stop-color="#4f6081"/><stop offset="1" stop-color="#324365"/></radialGradient><radialGradient id="e678ac2a-6efb-405e-bdd2-72409c07eab5" cx="-973.76" cy="-53.44" r="0.27" gradientTransform="matrix(-6.8, 1.17, -1.17, -6.8, -6636.59, 839.41)" xlink:href="#aa5ba693-a3e5-46e7-aee3-864de5741013"/><radialGradient id="f7a549a1-e881-44e0-9969-b5fcf643090c" cx="-1121.34" cy="-134.62" r="0.27" gradientTransform="matrix(-2.73, 0.47, -0.47, -2.73, -3074.53, 219.16)" gradientUnits="userSpaceOnUse"><stop offset="0.75" stop-color="#fff"/><stop offset="1" stop-color="#fff" stop-opacity="0"/></radialGradient><radialGradient id="bcd21442-f6f7-4ab2-b386-6bee39fdbc13" cx="-1101.95" cy="-122.18" r="0.27" gradientTransform="matrix(-3.1, 0.54, -0.54, -3.1, -3448.58, 267.18)" xlink:href="#f7a549a1-e881-44e0-9969-b5fcf643090c"/></defs><g style="clip-path:url(#a5b72974-5c36-4e01-9b17-9a2ffbfc99ff)"><path id="a81630b8-cfa2-441e-ae76-5da14079fc8f" data-name="shadow" d="M32.3,125.6a.8.8,0,0,0-.4.9.9.9,0,0,0,0,.8c-.5.2-.4.3.3,2.8l.4,1.5c-.8.8-2.1.2-3.6,1.6a8.3,8.3,0,0,0-.9,5.1l3.6,8.9c1.7-.3,9.6-1.2,10.3-4.2,5.1,1.1,10.3-.8,15.1-2.6,2.5-1.4,2.1-1.6,2.2-4.3,0-.7-.2-.9-.8-.8.1-3.4-4.6-4.7-6.5-4.4,0,0,.4-.2,0-1.7s-2.3-1.7-2.3-1.7a.5.5,0,0,0-.5-.1c.2-.3.5-1.8-.1-1.8s-.2-1-.2-1,2-7.5,2-7.5,4.2-1.8,4.2-3.4-.9-6.9-.9-6.9c3.5-2.2,2.4-5.4,1.5-9.4-1.4-5.6-3.6-12.6-4.3-17.8C56.3,75.7,64.6,69.3,68.2,64c.1-.4,1.1-.6,1.2-1s.3-.7-.1-1A23.3,23.3,0,0,1,72,60.1c3.6,1.1,5.6-4.1,6.5-6.5a21.2,21.2,0,0,0,4.4-3.3c1.4-1.6,1.4-3.1-.1-3.2.4-.8,1.2-3.5-1.2-3.2.9-1.7-.1-3.5-2.7-2.7-.1-1.7-2.5-3-5,1.2a21.2,21.2,0,0,0-2.9,7,26.3,26.3,0,0,0-1.4-5.9A43.5,43.5,0,0,0,71,33.1c.7.4,2.8,5.4,3.1,8.4C77.1,20.4,61,6.7,41,8.1,38.7,2.2,30.7-1.7,22.8.7c-12.1,4-12.2,11.9-9.3,25.6C10.8,33.8,12,45.1,15.2,53a11.8,11.8,0,0,1-2,5.1,7.1,7.1,0,0,0,2.4-1.3c.1,1.5-1.2,4.1-3.1,5.4,2.3.1,6.4-2.4,6.4-2.4S24.2,66,29.7,67c-2.2-1-2.9-4-2.9-4s1.4,2.2,5.2,2.1a7.2,7.2,0,0,0,2.9,2.6s-5.1,1.3-5.4,1.7-.5,1.9.1,4.2c-3.1-.1-9.6,15.9-11.1,17.2-1.7,3-3.8,4.6-2.5,6.7-.9,1-3.8,2.2-4.3,3.3a27.9,27.9,0,0,1-2.9,4.8c-1.2,1.2-1.7,2.1-.5,2.9-.3,1-.4,2.3,1.6,2.3.3,1.1,1.1,2,3,1.3,3.1,2.6,6.1-5,5.7-6.1s1.5,3.7,3.7,2.9c4.5-1.8-1.9-3.5-2.1-4.9a11.2,11.2,0,0,1,.3-3.6,2.3,2.3,0,0,0,2.1-.8A27.3,27.3,0,0,1,26,96.2c.1,1-1.1,4.4-1.2,5s.4.9,1.3,1.8-1,5-1.5,7.5-.9,3.3.2,4a24.7,24.7,0,0,0,5.5,2C30.7,118,31.7,123.4,32.3,125.6Z" style="fill:#ededf2"/><path d="M17.3,116.6c-.8-.2-.3-2.8-.1-3,.4-2.4,1.4-6,1.7-8.4,5.4,5,8.7,5.9,15.8,7,.9-.6.6-2.5.7-3.4s-.1-1.6-.1-2.2l1.8.2c2.2,0,5.8-.5,7.6-1.7v3.2c.1.4-.4,1.8.3,1.9a5.3,5.3,0,0,0,2-1.5c.1,1.4.5,4.1.7,5.4s.4,1.9-.4,2.8c-3.6,4.2-12,3.1-16.1,3.1s-8.2-.9-10.8-2C19.5,117.6,17.9,117.2,17.3,116.6Z" style="fill:url(#f556b193-f36a-4bfe-8dd1-e3dce6cef628)"/><path d="M25,128c-.7-2.7-1.6-6.4-2-9.1a38.7,38.7,0,0,0,8.4,1c2.5.2,5.3-.2,5,.4s-.4,4.3-.5,5.7.1,1.5-.8,3S25.6,131.2,25,128Z" style="fill:url(#a11ac152-8772-4d95-b6fc-35daf977f7b2)"/><path d="M36.9,128.8h-.8l-.6-.6c.4-2.2.6-5.8.8-8.1,2.1.2,5.3.2,7.2-.9-.2.9-.8,3.6-.9,4.5a20.2,20.2,0,0,0-.7,2.3c-.5,2.2-3,2.9-5,2.9Z" style="fill:url(#b63f882b-8998-476e-87d4-f764b804becf)"/><path d="M26.1,133.3H24.9l.2.6C25.3,133.8,26,133.5,26.1,133.3Z" style="fill:#352920"/><path d="M33.6,135.4l.4-.2.2-.3v-.3c-.7-1.3-2.6-1.5-3.9-1.6l.8.8a6.7,6.7,0,0,1,.7,1.1C32.2,135.4,33,135.4,33.6,135.4Z" style="fill:#352920"/><path d="M35.9,129.7a.7.7,0,0,1,.5.4A6.5,6.5,0,0,1,36,132l-.3,1.7a9,9,0,0,0,.2,2.3,5.2,5.2,0,0,1,.3,1.8,3.7,3.7,0,0,1-.7,1.4,18.9,18.9,0,0,1-3.4,4,14.5,14.5,0,0,1-2.9,1.1,10.3,10.3,0,0,1-4.9-.5c-3.2-1.1-3.9-2.5-3.8-5.8s.9-2.8,3-3.4l1.9-.2,1.7.3a9.9,9.9,0,0,1,2.4.9h.2l.7.2.2-.2v-.4l.6.5a28.5,28.5,0,0,1,.3,2.9l.2.2-.2,1.8v.2h.5l.2-1.9c.5-.4.1-1.9,0-2.5l.9.3h.9c.5-.1,1.2-.4,1.3-.9a3.2,3.2,0,0,0-1.9-2.3,9.2,9.2,0,0,0-3.3-.6c.2-.8.9-.8,1.6-.9s3.3-.4,4.3-1.5v-.6Z" style="fill:url(#bede3a18-318b-4efa-b49e-5d0c7a7eb7c7)"/><path d="M26.4,130.7l-1.8-1.1h-.3v.3a19.7,19.7,0,0,0,.7,2.6,3.4,3.4,0,0,1,2-.3C26.7,131.8,26.7,131,26.4,130.7Z" style="fill:#352920"/><path d="M26.9,130.6h-.5l.2.5a4.3,4.3,0,0,0,.2,1.1h2.1v.2h1.1l.5-.7c-.1-.2-.6-.4-.8-.5l-1.6-.6Z" style="fill:url(#e8a049ec-0ca2-4921-934e-72023d55ce98)"/><path d="M50.7,138.7a3,3,0,0,0,.3-2.1l-.3-1.1a4.1,4.1,0,0,0-1.2-1.4,7.2,7.2,0,0,0-4.7-1.1,9.8,9.8,0,0,0-3.4.7,6.9,6.9,0,0,1,0,3.2h-.5l-.8,1.5a45,45,0,0,0,4.9,1.4A6.1,6.1,0,0,0,50.7,138.7Z" style="fill:url(#f41fb2e5-952a-4dfa-8ce5-b791773d314d)"/><path d="M38.9,138.5h.8v-.2a11.9,11.9,0,0,0,.9-1.5l.2-1.3v-1.1l-.3-1-.5.5-.6.3h-.7L38,134c-.6-1,0-1.9.4-2.8a3.9,3.9,0,0,1,1.7-1.1c.1-2.4-2,.3-4.1-1.1v.5c.1.1.2.3.4.3s0,1.1-.2,1.5l-.2,1.1c-.6,1.3.2,4,.4,5.1s.6.1.6.5h.7Z" style="fill:url(#b73260e9-078b-4689-98bd-2c7400f7fd2a)"/><path d="M41.7,129.6a8.6,8.6,0,0,0,.1-1.6h-.3a2.2,2.2,0,0,0-.8.5l-1.1.6v.2h.3a3.5,3.5,0,0,1,.3,1.1h.6c.1-.2.4-.3.6-.4h.2Z" style="fill:url(#f7e718fd-7acd-4e54-9fa1-6435a082dc19)"/><path d="M51.6,141.4c.3-.1.3-2.4.3-2.4a2.7,2.7,0,0,0-.3-1.5h-.5c.1,2.3-3.8,2.9-5.3,2.8l-3.1-.8a12.5,12.5,0,0,1-2.6-.7c-.1.1-.5,0-.5-.1l-2.6-.5c-.1-.1-.2-.4-.3-.4h-.4a6.9,6.9,0,0,1-1,1.9c-1.2,1.4-1.6,2.5-3.6,3.9s-9.7,1.1-11.1-2.7c-1.1.2-.9,2.6-.9,3.1,0,4.2,10.1,4.3,12.1,3.5v-.5h.8l.7-.4c.1-.1,0-.6,0-.8H34c.6-.5.8-2,1.2-2.6a.9.9,0,0,0,.7,0l.7-1.1v-1.6H37l1.7,1.2,1.5.6,1.1-.4h.3v.7l1.6.3,1.2-.6h.1v.7C46.1,143.7,50.6,142.8,51.6,141.4Z" style="fill:#262626"/><path d="M51.6,137.5c-.5,3.2-4.4,3.5-7.1,3.1a53.3,53.3,0,0,0-7.6-2v-.5c2.4.2,5.5,1.3,7.9,1.9l1.4.3h1.2c1.5-.5,3.6-.8,3.7-2.7Z" style="fill:#303030"/><path d="M36.2,137.6h.4c-.5,1.7-3.3,6.3-5.1,6.8-3.5,1.1-10.5.7-11.2-3.6l.4-.2c1,3.6,7.3,4.4,10.5,3a8,8,0,0,0,3.1-2.9C34.8,140,36.2,138.6,36.2,137.6Z" style="fill:#303030"/><path d="M44.6,133.1h-.9c.6-.8-.2-2.8-1.2-2.9a1.7,1.7,0,0,0,.6,1.1,2.2,2.2,0,0,0,.1.8v.7l.2.4a7.6,7.6,0,0,0-2,.6c.1.4.4,2.7-.2,3.3s-.5-.1-.6-.2.1-.8.1-1a4.5,4.5,0,0,0-.3-2.3c-.2.7-2.5,1.3-2.6-.1s.7-2.5,1.3-2.9l1.1-.4v.8a2.9,2.9,0,0,0-1.3,1.4c0,.2-.2.7-.2.8s.1.5.1.7l1-.5.5-.8a5.7,5.7,0,0,1-.1-1.3l-.2-.2v-.8h.9l.3-.3H43l.6.3A2.4,2.4,0,0,1,44.6,133.1Z" style="fill:#262626"/><path d="M29.8,133v-.5c2,0,4.6.5,5.4,2.6v.8a3,3,0,0,1-2.9.3,9.6,9.6,0,0,1,0,2.4h-.6l-.2-.2c0-.9-.1-2-.2-3l-.6-.4v.4l-.2.2a10.9,10.9,0,0,1-1.7-.5,14.2,14.2,0,0,0-4.1-.8c.3-.4,1.2-.6,1.6-1a5,5,0,0,0-2.4.3.7.7,0,0,0,.4.7l-1,.3-.3-.4c.1-.6.7-1,1.2-1.3l1.5-.7a5.4,5.4,0,0,1,1.8,0,.9.9,0,0,1,.7-.1h.7l.2.2a2.5,2.5,0,0,0,1.2-.1v.6h-.8l1,.2a4,4,0,0,1,1.4,1.8h.6a1.4,1.4,0,0,0,1.1.2c1.9-.3-.1-1.9-.9-2Z" style="fill:#262626"/><path d="M40.1,130.9a3.8,3.8,0,0,0,.1,1.5c0,.4-1,1.5-1.6,1.4l-.2-.2a5.5,5.5,0,0,1,.5-1.7A5.3,5.3,0,0,1,40.1,130.9Z" style="fill:#352920"/><path d="M43.5,142.1a1.7,1.7,0,0,0-.1.9l1-.6Z" style="fill:#161616"/><path d="M41.3,141.9l-1,.4C39.9,141,40.6,141.8,41.3,141.9Z" style="fill:#161616"/><path d="M35.9,143.3v-1l-.6.9Z" style="fill:#161616"/><path d="M34.1,145.8v-1l-.7.5v.5Z" style="fill:#161616"/><path d="M32.7,146.9V146l-.8.3v.4Z" style="fill:#161616"/><path d="M31.9,140.5l.2-1.8h-.4a12.4,12.4,0,0,0-.2,1.8l.2.2Z" style="fill:#a8a8a8"/><path d="M40,138.7l.9-1.6-.4-.3-.9,1.6C39.7,138.6,39.9,138.8,40,138.7Z" style="fill:#a8a8a8"/><path d="M24.5,129.6c0-.2-.1-.7,0-.8s0-.9.5-.7c.5,2.2,4.2,2.6,5.6,2.6s4.5-.3,4.9-2.5a.8.8,0,0,1,.4,1.2v.8c-1,1.2-4,1.3-5.2,1.7a3.3,3.3,0,0,0-1.6-.7,4.3,4.3,0,0,0-2.5-.3Z" style="fill:url(#ab5fdbde-a684-4b94-8fe8-78b5cb97fcfa)"/><path d="M36.5,129.3l-.4-.2c-.1-.2.1-.4,0-.6,1.5.8,4.5-.2,5.4-1.6l.3.2a.6.6,0,0,1-.1.6,1.2,1.2,0,0,0-.9.5l-1,.5h-.1l-1.4.5A2.8,2.8,0,0,1,36.5,129.3Z" style="fill:url(#f0818d33-75ca-4cf8-8243-17bb0bd49225)"/><path d="M33,92.6c.6,4.3,1.5,8.8,2.1,13.1a13.6,13.6,0,0,0,4.5,0,17.6,17.6,0,0,0,5-1.3c-.1-3.6-1.2-7.4-1.7-10.9h0c-.8-1.7-1.1-5.2-1.2-6.9a63.1,63.1,0,0,1,0-8.7c-2.6,4.6-8.1,2.7-10.3-1.2.3,1.6,1.3,3.7,1.3,5.5s.2,4.5.3,6.9A10.3,10.3,0,0,0,33,92.6Z" style="fill:url(#b241bbf5-2c48-4c41-b6ac-ca299c0cbe6b)"/><path d="M33,92.6c0,2.7,4,18.2,1.4,19.5-8.6-1.4-10.6-2.4-17-8.2-.1-.3.2-1,.3-1.3s.8-3.4.9-4.1a22,22,0,0,1-2.3,2c-.6.8-1.5,2.1-2.7,2.1a11.1,11.1,0,0,1-3.8-1.8c-.3-.3-1.2-.9-1.3-1.3a2.3,2.3,0,0,1-.2-1.6c.5-1.6,2.6-4.4,3.4-5.7s2.8-5.1,3.9-7.2l3.2-6c1.5-2.8,6-4.7,8.9-3.1h0c.3-.2,3.5,1.1,3.5,1.3A16.1,16.1,0,0,1,32.5,82C32.7,85.4,32.7,89.2,33,92.6Zm13.6.5a79.1,79.1,0,0,1-2.5-10.7c-.4-2.2.1-5.3-1.7-7h-.9l-.2.9h.2a81.9,81.9,0,0,0,.2,13.1c.3,1.1.6,3.3,1.2,4.3a32.2,32.2,0,0,0,.6,3.5A50.8,50.8,0,0,1,44.6,110c.9,0,1.7-.9,2.2-1.5a15.6,15.6,0,0,1,1.8-1.7c.4-.2.5-.9.5-.9C49.3,102.2,47.4,96.6,46.6,93.1Z" style="fill:url(#aaf4a8f4-0b06-48b9-b2ee-da689edde4cb)"/><path d="M28.1,108.9c-.4,0,.1-1.3,0-1.3s.2-2.4.3-3.2,1.5.1,1.5.1,2.5.2,3,.9a32.9,32.9,0,0,1-.5,4.4c-.2.2-.9-.1-1.2-.2A28.2,28.2,0,0,0,28.1,108.9Z" style="fill:#f44040"/><path d="M35.2,106.6v-.9a20.3,20.3,0,0,0,9.4-1.3v.6C42.3,106.5,37.8,106.9,35.2,106.6Z" style="fill:url(#ffd12d84-bca2-4198-b6da-9fdfde721ee1)"/><path d="M31,76.7a9.9,9.9,0,0,1-.3-1.5c.3,0,.9,1,1.1,1.1s1.9,1.8,2.5,2.2,6.7.8,7.1-2.1l.2.2c.2,1.4-.9,2.5-2,3.2C36.2,81.8,33.1,79.2,31,76.7Z" style="fill:url(#ffafa00a-845b-4289-8715-4455259b14f3)"/><path d="M1,110.9c-2-1,.5-3,1-3.7a30.7,30.7,0,0,0,1.7-3.1,3.6,3.6,0,0,1,2-2.2,10.3,10.3,0,0,0,2.9-2.1c.6,1,3.5,2.7,4.7,2.9a10.7,10.7,0,0,0-.6,3.2c-.4,1,2.6,2.6,2.9,2.9s-.1,3-1.7,2.6-2.1-1.3-2.8-2.7H11c-.4,2.4-2.3,7.8-5.7,5.7-.9,1-2.9-.1-2.9-1.3A1.4,1.4,0,0,1,1,110.9Z" style="fill:url(#ba1f53aa-c9bc-48e8-92fb-6d760a8eedb8)"/><path d="M57.6,59.4V59l.4-.4,1.7-1.5a6.4,6.4,0,0,1,.3-4.3c-.2-.1-.4-.8-.4-1a65,65,0,0,0,2.5-6.1,21.9,21.9,0,0,1,1.4,5.6c1.2-3,2.1-6.2,4.3-8.9.8-1.2,3.9-1.1,3.6.8l.7-.2H73c1.1.1,2.4,2,1.1,3h1.1a2.7,2.7,0,0,1,.1,3.1c1.4,0,1.3,1.7.8,2.4s-3.9,3.6-4.9,4c-1,2.2-2.8,7.9-6.3,6.7l-1.6.8c-.2.2-1.4,1.2-1.8,1.2S57.5,61.2,57.6,59.4Z" style="fill:url(#f7c487bb-b27a-4ca8-96d5-5be15514961f)"/><path d="M15.2,61.5c1.2,1.6,4.6,2.2,6.3,1.8,1.1,3,5.6,6.7,8.2,8.4.1,3.5,5.5,9.4,9.3,7.3,1.8-.9,2.5-2,2.5-3.7,8.3-.3,16.8-3.8,12.9-13.6,2.1-3.5,4.1-7.6,6-11.3s3.3-9.5,3.2-14.1h-.2A21.9,21.9,0,0,1,57.7,47c.5.3.9.3,1.4,1s.4,1.1-.3,1.5-.5-.1-.8-.7a3.3,3.3,0,0,0-1.3-.8l-2.2,1.6-2.3,1.1A8.1,8.1,0,0,1,49,51.8v-.2c3-1.7,7.7-4.6,7.8-8.5-1.5,4.8-7.4,8.4-12.1,9,.1-.5.9-2.7,1.1-3.2l.5-2.7a23.2,23.2,0,0,0-.6-8.3c-.5-1.5-1.5-4.9-3.1-5.7A9.5,9.5,0,0,1,43,34v1.9c-.3,1.9-1.2,4.1-1,6.1-.9-1.1-1.1-3.1-1.5-4.5-.2.2-.2.9-.2,1.2a35.4,35.4,0,0,0,.2,4.6l-.2.4c-1.7-1.7-2.9-4.8-3.8-7a17.9,17.9,0,0,1-.4-6.5,8.9,8.9,0,0,0-1.5,3.6c-.1.8-.2,2.4-.2,3.2l.4,2.1c-.7-.1-2.2-1.6-2.8-2.1s-3.5-4.2-4.5-5.7c2,8.3,1,13.4-2,21.1-.7,2.4-2,5.3-1.3,7.8-2-1.5-3.2-7.1-3.6-9.5h-.2a19.6,19.6,0,0,0,1.4,7.2h-.2a16.5,16.5,0,0,1-2-3.1,37.5,37.5,0,0,1-1.7-4.7c-5-.3-6.2,8.2-2.6,11.4Z" style="fill:url(#b40186f3-fa30-4548-b5a7-2e8529da12fa)"/><path d="M35.6,61.2c-1.6-1.7-1.9-5.7-.8-7.9s4.7-3.5,5.8-.5-.1,11.6-5,8.4Z" style="fill:#fff"/><path d="M47.8,60.7a23.2,23.2,0,0,1,.3-2.7c.3-1.9,3.4-5.2,5.2-3.3s.9,7.7-2.3,8.9C49.8,63.8,48,63.5,47.8,60.7Z" style="fill:#fff"/><path d="M42.4,67.8c.2.5,1.5.7,1.8.3a1,1,0,0,0,1.5-.3l-.8-.3A7.2,7.2,0,0,0,42.4,67.8Z" style="fill:#fff"/><path d="M42.5,75.5a7.1,7.1,0,0,1,1.4,4.3,10.9,10.9,0,0,0,.1,1.8,17.1,17.1,0,0,0,2.7-2l7.8-6.5c1.3-1.4,4.4-4.1,5.6-5.6a15.3,15.3,0,0,1,1.1-1.6,6.5,6.5,0,0,0,.9-.8v-.7h-.2c-2,.3-4.9-3.4-4.2-5.2h-.3c-.7.4-1.6,1.3-2.3,1.7L54.4,62c1.7,4.3,1.5,8.3-2.7,11a12.3,12.3,0,0,1-4.1,1.7,17.5,17.5,0,0,1-5.1.8Z" style="fill:url(#a0f45828-0bab-4baf-b695-3e620456542e)"/><path d="M23,75.6l-.9.4a17.1,17.1,0,0,1-.3-3.9c0-.9,5.4-1.7,5.7-1.9a8.7,8.7,0,0,1,2.1,1.7,23,23,0,0,1,1.2,4.5l.3.4v.4c-2-1.4-5.7-2.4-8.1-1.6Z" style="fill:url(#af124768-d42e-4be4-a8a1-4ed5d05f2194)"/><path d="M32.3,48.1h-.2v-.7a11.4,11.4,0,0,1,4-1.9c2.5-.8,4.8,1.2,2.2,1.7-1-.2-4.3.3-4.9.8A2.2,2.2,0,0,1,32.3,48.1Z" style="fill:url(#ec717033-8a46-4a53-88e6-546b26336842)"/><path d="M56.7,48.1a4.9,4.9,0,0,1,1.8,1.4h.4l.3-.2a1.7,1.7,0,0,0-.1-1.4,3.2,3.2,0,0,0-1.2-.8Z" style="fill:url(#b7a70798-aebc-46d6-820c-d5f959336a7b)"/><path d="M58,46.8c-2.4,2.3-5.7,4.6-9,5.1v-.3c3-1.5,6.1-3.8,7.5-7v-.4c-.6.7-1.2,1.9-1.8,2.5a20.2,20.2,0,0,1-4.6,3.7,26.3,26.3,0,0,1-5.4,1.8c1.8-4.4,2.5-9.8,1-14.3-.6-1.9-1.4-4.6-3-5.8.6,1.6.3,3.6.1,5.2a19.1,19.1,0,0,0-.7,4.7c-1-1.2-1.2-3.1-1.6-4.6a19.4,19.4,0,0,0-.2,3.4,12.2,12.2,0,0,1,.1,2.7c-1.1-.6-2-2.7-2.7-3.8a18.6,18.6,0,0,1-1.6-9.6h-.2c-1.3,2-1.5,4.8-1.4,7,.1.3.3,1.3.4,1.6h-.3a23.3,23.3,0,0,1-6.8-7.5c.2,2,.9,4.5.9,6.6a36.3,36.3,0,0,1-.3,5.7,71.5,71.5,0,0,1-2.3,7.9c-.9,2.6-2.3,5.8-1.6,8.6-1.3-1-2.2-3.7-2.6-5.3a20.1,20.1,0,0,1-.9-4.1l-.2-.2c-.3.7.1,2.3.1,3a31.7,31.7,0,0,0,1.2,4.4c-1.5-1.2-2.3-3.5-3-5.2a9.2,9.2,0,0,1-.8-2.7c-8-.1-6.5,15,3.1,13.2a13.9,13.9,0,0,0,3.1,4.1h-.2a9.9,9.9,0,0,1-5-1.9v.3a9.8,9.8,0,0,0,3.1,3.3c-2-.2-4.1-1.6-5.7-2.7a24.3,24.3,0,0,1-7.4-7.9C5.7,51.1,3.8,42.2,4.8,34c1.6-11.7,8.1-20.4,20.1-22.8s29.6-.9,37.3,11.2a29.9,29.9,0,0,1,4.7,13.3,32.4,32.4,0,0,1,.2,4.4,13.9,13.9,0,0,1-.4,3.5c-.7-2.9-1.5-6.3-3-8.9C62.6,40.2,61.6,42.6,58,46.8Z" style="fill:url(#a8ef3641-4adb-4411-9615-ed8636b391b7)"/><path d="M11.3,62l.2-.2c-.5-.6-1.5-2.1-2-2.8s-1.3-3.1-1.7-3.3a4.2,4.2,0,0,0-.3,1.2A11.4,11.4,0,0,1,6,60.3a8.8,8.8,0,0,0,2.1-1.2A9.9,9.9,0,0,1,5,64.5h.1a9,9,0,0,0,2.8-.8A15.9,15.9,0,0,0,11.3,62Z" style="fill:url(#fdc47f42-04f5-4fe4-8208-50ba096759ac)"/><path d="M6.7,26.7c-.1.4-.6,1.6-.7,2C4.4,23.3,3.5,15.3,6,9.9S18.1,1.2,25.1,2.8c3.6,1.2,7.2,4.3,8.4,7.6H31.8c-3.7-3.6-13.7-1.2-15.1,4C12.2,17,8.5,21.9,6.7,26.7Z" style="fill:url(#bd014b65-29ab-41f8-b9c2-ee6dc719d637)"/><path d="M31.1,10.6H32c-3.8-3.5-14-1.2-15.1,4C21.1,12.1,26.3,11,31.1,10.6Z" style="fill:url(#a5f884b4-3535-4463-ab31-4beeb8be2a58)"/><path d="M20.4,81.1l-.9-.4c.9-4.5,7.3-1,4.1,2.3l-.8-.7c1.9-1.7-1.5-4.3-2.4-1.2Zm-.1,2.2-.9,1.3-1.8-.7-.4.8,4.2,2.4.7-.9-1.6-1.1a9.4,9.4,0,0,1,.9-1.3l1.6,1,.5-1-4.3-2.4-.4.9,1.5,1Zm0,5.5c.7-1,.8-1,.6-1.1s-2.6-1.6-4-2.3l-.5,1.1S19.9,88.4,20.3,88.8Zm-4.5-1,1.3,1c-.6,1.1-1.6.6-2.2.2a4.5,4.5,0,0,0-.5,1s1.2.9,2.1.4c-.5,1.2,1.1,1.6,1.7,1.3A5.6,5.6,0,0,0,20,89.2a25.3,25.3,0,0,0-3.8-2.3C16.3,86.9,15.7,87.7,15.8,87.8ZM18,89a2.8,2.8,0,0,0,.9.5c.2.9-2,2.2-1.4,0C17.7,89,17.9,89,18,89Zm-5.2,4.9c.6,2.3,4.6,2.4,4.7-.2S11.5,90,12.8,93.9Zm1-1.5c.6-1.2,2.9-.3,2.7,1s-3.7.8-2.7-1Z" style="fill:url(#a5741a56-bc30-420c-9ea6-f39911766bae)"/><path d="M42,70.2c.3-.3,1.8-.4,2-.1s1.6-.1,1.7.2A3.3,3.3,0,0,1,42,70.2Z" style="fill:#f44040"/><path d="M58.9,47.8a17.6,17.6,0,0,0,3.3-4.6,23.6,23.6,0,0,1-.9,5.2c2.2-7.1,2.2-6.7,2.3-12.1h-.2c-.8,3.9-2.6,8-5.6,10.7Z" style="fill:#d88b64"/><path d="M41,77.4c0,.4-.1,1.3-.1,1.3a2.5,2.5,0,0,0,.6-2.2h-.1Z" style="fill:#162136"/><path d="M31.1,75.5c.2.6.4,1.3.7,2s-.6-.5-.8-1.2a5.3,5.3,0,0,1-.3-1.2h.2Z" style="fill:#162136"/><path d="M29.6,81.1a10.6,10.6,0,0,1,.1,1.5,3.7,3.7,0,0,0,1.1-1,5.4,5.4,0,0,1-1,2.2c.1.2,0,3.3-.2,2.7s-.5-1.2-.9-.2a42.3,42.3,0,0,1-3.3,5.3c-1.7,3.2-3,7.1-7.4,8.5l.4-1.6a50.9,50.9,0,0,0,6.3-7.6c2.1-2.6,4.9-6.3,4.9-9.8Z" style="fill:#162136"/><path d="M25.5,85.2a2.5,2.5,0,0,0,2.8-2.5A3.6,3.6,0,0,1,25.5,85.2Z" style="fill:#162136"/><path d="M24.5,88.5a27.7,27.7,0,0,1-1.7,3.7c-.8,1.3-3.7,4.6-3.3,3.9A55.1,55.1,0,0,0,24.5,88.5Z" style="fill:#162136"/><path d="M43.6,104.7a2.8,2.8,0,0,0,.1.8l.9-.5v-.6Z" style="fill:#162136"/><path d="M35.7,105.8a3.9,3.9,0,0,1,.1.9h-.6v-.9Z" style="fill:#162136"/><path d="M29.4,99.1a4.6,4.6,0,0,0-2.6,2.7c-.8,2.1-1.5,4.1-1.2,3.9S27.6,99.8,29.4,99.1Z" style="fill:#162136"/><path d="M15.3,100c.5.1,4-1.3,4.4-2.6s-1,.7-2.2,1.4L15.3,100Z" style="fill:#162136"/><path d="M41.5,76.3a4.4,4.4,0,0,0,.8-.9h-.8v.9Z" style="fill:#162136"/><path d="M44,86.2c-.1-1.1-.2-3.5,0-2.3s.8,9.1.3,5.8S44,86.2,44,86.2Z" style="fill:#162136"/><path d="M45.5,99.1c1.9.7,2.2,5.7,1.5,6.7C47.3,104.7,46.5,100,45.5,99.1Z" style="fill:#162136"/><path d="M23,96.4s1.1,2.4.7,1a7.4,7.4,0,0,1-.4-1.7l-.3.4Z" style="fill:#162136"/><path d="M21.5,97.8c.3,1,1.6,4,1.6,4s-1.3-4.4-1.2-4.5Z" style="fill:#162136"/><path d="M28.4,70.8a17.4,17.4,0,0,0-3.6.8c4.1-.4,5.8,3.1,1.8,1.8.8,1.1.4,1.9-2.6.6a24.4,24.4,0,0,0,3,1.6,11.7,11.7,0,0,1,2.4.5,5.5,5.5,0,0,1,1.8,1,5.4,5.4,0,0,1-.6-2.5,28.3,28.3,0,0,1-1.1-3.1Z" style="fill:#7e6e5b"/><path d="M44.5,76.3c.5.6,1.6,1.1,2.6-.5C45.5,76.9,45.7,76.3,44.5,76.3Z" style="fill:#7e6e5b"/><path d="M44,80c1.3-.4,4.5-4.2,4.1-3.4a17.3,17.3,0,0,1-1.2,1.9s.2.3,1.3-1.2,1.3-1.7.9-.9-.9,1.4-.5,1.1c3.9-3.2,8.8-7,12.2-11.4-1.5,2.6-3.8,4.4-5.8,6.4s-7.5,6.4-11,9.2A9.7,9.7,0,0,1,44,80Z" style="fill:#7e6e5b"/><path d="M54.8,71.5c-3.2,2.8.7-1.1,1.6-2.3s2.2-3.3,2.1-2.8a17.4,17.4,0,0,1-1.6,2.8A24,24,0,0,1,54.8,71.5Z" style="fill:#7e6e5b"/><path d="M61.1,64.1c.5.1,1.3,1.3-.6,1,.4.2.6.3.2.7a23.2,23.2,0,0,1-3.6,4.3l-.7,1a26.5,26.5,0,0,0,3.7-3.8,7.5,7.5,0,0,0,.7-1.2,10.6,10.6,0,0,0,1.2-1,1.9,1.9,0,0,1,.2-.7l-.2-.3A1.4,1.4,0,0,1,61.1,64.1Z" style="fill:#7e6e5b"/><path d="M18.7,105.7a18,18,0,0,0,6.6,5.1c3.6,1.5,9.1,3.5,10.2,2.4s.9-1.3.3-6.5h-.6c-.1,1.5.5,4.4-.5,5.5s-5.3-1-7.1-1.4-8.1-4.6-8.8-5.4Z" style="fill:#77695c"/><path d="M35.8,107c2.6.1,6.2-.1,8.8-1.6.1-.3,0-.3,0-.3-1.9,1.3-7.2,1.8-9.3,1.5Z" style="fill:#77695c"/><path d="M43.6,105.5a33.1,33.1,0,0,1-.1,4.3c-.9,4.2,3.1.8,3.6.4l-.2-1.5a3.7,3.7,0,0,0-1.3,1.2l-.6.2-.3-.2c-.1-1.4.1-3.4-.1-4.8Z" style="fill:#77695c"/><path d="M40.2,108.7s.1-1.9.5-2-.4-.1-.4-.1A7.4,7.4,0,0,0,40.2,108.7Z" style="fill:#77695c"/><path d="M39.4,107.7c0-.4.7-1.4.7-.3s0,1.1,0,1.1v-2h-.7Z" style="fill:#77695c"/><path d="M39.8,110.3c-.3.1-.4.2.3.1s.2-.8.2-1.5-.1,1-.1,1Z" style="fill:#77695c"/><path d="M45.4,112.7c.3.5-1.6,4.7-2.4,4.8a30.7,30.7,0,0,0,2.4-4.8Z" style="fill:#77695c"/><path d="M46.5,110.8c.2-.2.2,0,.3.9s1,4.1.3,5.4.6-.4.6-.9a4.5,4.5,0,0,0,.1-.8c-.2-1.6-.7-4.9-.9-6.5l-.5,1.6Z" style="fill:#77695c"/><path d="M45.9,111.5a3.8,3.8,0,0,1,.2,1.3c0,.8-.5,3.3-.3,1.2s.1-2.5.1-2.5Z" style="fill:#77695c"/><path d="M19.6,108c0,.1,2.3,5.7,2.2,5.6a11.4,11.4,0,0,1-2.2-5.6Z" style="fill:#77695c"/><path d="M21,115.5c-.2-.2-.1-.2.8.5s1.7,1.1.8.7A3.2,3.2,0,0,1,21,115.5Z" style="fill:#77695c"/><path d="M33.5,116.5c1.1-.1,4.1-2.3,3.9-4.1A7.8,7.8,0,0,1,33.5,116.5Z" style="fill:#77695c"/><path d="M40.9,78.7A50.6,50.6,0,0,0,41.5,92c.6,2.1,2.4,11.3,2.1,12.7l.9-.3c-.3-4.7-1.3-8-2.4-13.1-1-3.3-.9-10.6-.6-13.3Z" style="fill:#961a17"/><path d="M31.7,77.3c1.6,2.9,1.3,9.6,1.5,13.5s1.8,11.1,2.5,14.9c-.6,0-.5-.1-.5-.1-.8-4.1-1.7-9.4-2.3-13.6s.2-10.4-1.7-15v-.2Z" style="fill:#961a17"/><g style="opacity:0.6499999761581421"><path d="M41.2,72.2c.6,1.2,3.3,1.6,4,.2C44.4,73.1,42.1,72.9,41.2,72.2Z" style="fill:#d88b64;opacity:0.6499999761581421;isolation:isolate"/><path d="M59.3,57.4a3.2,3.2,0,0,0,2.2,2.3,4.3,4.3,0,0,1-1.9-2.8Z" style="fill:#d88b64;opacity:0.6499999761581421;isolation:isolate"/><path d="M62.9,60.3c1.6.4,3.2-2.1,2.6-3.2a4.2,4.2,0,0,1-.7,1.8A2.1,2.1,0,0,1,62.9,60.3Z" style="fill:#d88b64;opacity:0.6499999761581421;isolation:isolate"/><path d="M70.6,57c-.7,1.5-1.6,4-3.4,5a5.7,5.7,0,0,1-2,.2,2,2,0,0,0-1.1.2l-2.4,1.7c-1.7.2-4.5-3.4-4.2-5h.1c-.4,1.4,2.9,6.1,4.7,4.2a9.5,9.5,0,0,1,2.5-1.4c3.3,1,5.1-4.2,6-6.5,1.3-.8,5.2-2.7,5.5-5,.7,1.7-5.1,5-5.3,5.3Z" style="fill:#d88b64;opacity:0.6499999761581421;isolation:isolate"/><path d="M71.1,53c.8-.1,4.4-3,4.8-3.7h-.6A25.3,25.3,0,0,1,71.1,53Z" style="fill:#d88b64;opacity:0.6499999761581421;isolation:isolate"/><path d="M70.1,50.9,74.8,46h-.7C73.1,47.4,71.1,49.4,70.1,50.9Z" style="fill:#d88b64;opacity:0.6499999761581421;isolation:isolate"/><path d="M67.9,49c.3-.5,5.7-4.6,3.9-5.8h-.3c.4,1-1.1,2.9-1.5,3.3Z" style="fill:#d88b64;opacity:0.6499999761581421;isolation:isolate"/><path d="M66.3,49.4a16.5,16.5,0,0,1,2.5,2.5c1.3,1.4,3.1,3.8,1.9,1.6S67.6,50.1,66.3,49.4Z" style="fill:#d88b64;opacity:0.6499999761581421;isolation:isolate"/><path d="M30,73c1,2.3,8.9,4.2,10.6,3.6-2,4.8-6.9,1.5-8.8-.3,0,0,3.3,3.9,6.3,3.1s3.2-2.7,3.5-4a24.2,24.2,0,0,1-8.4-1.7l-3.5-1.8Z" style="fill:#d88b64;opacity:0.6499999761581421;isolation:isolate"/><path d="M23.1,119.6c.9,1.1,11.9,1.7,12.7,1.3a29.4,29.4,0,0,1-.9,7.7c-.8,2.7-8.7,1.5-9.4.6,1.4,1.6,9.4,2.3,10-1.2l.4.2.4.4c1.2.4,4.5-.4,5.2-1.7-.3.6-4.3,2.4-5.2,1s-.2-.5-.1-1.5.4-4.5.5-5.4,6.2-.1,6.2-.6a8.3,8.3,0,0,1-.6,2.1c.2.7-.5,2.4-.7,3.4s-.2,1.2-.9,1.7c1.7-.3,2.4-6.9,2.9-8.5-.8.3-4.6.8-5.5,1l-3.7-.3a40.4,40.4,0,0,1-11.5-1Z" style="fill:#d88b64;opacity:0.6499999761581421;isolation:isolate"/><path d="M46.2,47.5a26.9,26.9,0,0,1-1.4,4.6c3.6-.3,8.3-2.9,10.3-5.8a22,22,0,0,1,1.7-2.5c-.2,2-2.8,4.8-4.5,5.9s-2.5,1.9-3.6,2.2H50l1.8-.6a24,24,0,0,0,5.1-3.1c.8.3,1.3,1.2,2.1,1.5s-1,0-1.4-.4c-1.9,3.3-9,5-12.2,4.8a9.5,9.5,0,0,0,1.8-.7,12.2,12.2,0,0,1-4.1.2c2.6-3.7,2.8-13.5,1.1-16.8.7,1.4-1.4,6.9-.7,8.5a4.7,4.7,0,0,1-2.2-2.9c-.2.7.7,3.2.9,3.8-3.4-1.8-5.9-6.8-6.3-10.3,0,0-.1,4.2.7,6.1a19.9,19.9,0,0,1-6.4-4.1c2.4,6.1-7,17.9-4.5,23.5-1.2,0-2.3-1.4-2.3-1.4a6.3,6.3,0,0,0,.7,1c-2-.5-6.1-8.4-6.5-10.8h.8c.8,2.6,1.9,5.9,3.9,8.2-.6-2.3-1.8-5.4-1.3-7.8a1.1,1.1,0,0,0,.3.8,32.3,32.3,0,0,0,.6,3.3,15.4,15.4,0,0,0,1.9,4.6c.1.1.6.9.8.8-.6-3.5,2-8.7,2.9-12.1.4-1.4,1.1-4.2,1.4-5.6.4-3.3-.4-7.6-.9-10.9a48.3,48.3,0,0,0,3.4,4.5,29.2,29.2,0,0,0,3.8,3.2c-.7-2.5-.7-6.9,1.1-9.1-.8,3.8,1.5,10.9,4.3,13.6a45.7,45.7,0,0,1-.1-6.5,22.4,22.4,0,0,0,1.6,5c.1-3.3,2-7.2.4-10.4C46.3,35.4,47.2,42.9,46.2,47.5Z" style="fill:#d88b64;opacity:0.6499999761581421;isolation:isolate"/><path d="M40.2,64.2c1-3.6,8.5-4.1,7.6,1-.3-3.9-4.9-3.1-6.5-2.2A13.1,13.1,0,0,1,40.2,64.2Z" style="fill:#d88b64;opacity:0.6499999761581421;isolation:isolate"/><path d="M15.9,55.5s1.9,0,2.2.6a2.8,2.8,0,0,0-.1,2.6c.2.4.3-1.4,1.4-1.3a8.6,8.6,0,0,1,1.1,2.4s-1,1.5.1,2.2c-1-1.8,1.2-1.4.8-2.5A8.3,8.3,0,0,0,18,55.3h-.9A2.1,2.1,0,0,0,15.9,55.5Z" style="fill:#d88b64;opacity:0.6499999761581421;isolation:isolate"/><path d="M32.1,48c.5,1.2,3.1-.5,4.4-.2s3.7.1,3-1.4c-.5,1.5-3.9,0-6.8,1.7Z" style="fill:#d88b64;opacity:0.6499999761581421;isolation:isolate"/><path d="M34.3,58.4c-2.1-11.2,9.6-9.9,6.8.4C43.3,49,32.9,48.2,34.3,58.4Z" style="fill:#d88b64;opacity:0.6499999761581421;isolation:isolate"/><path d="M47.9,59.7c.2-8.1,9.5-8.4,5.8,1.2,2.7-9.8-5.4-8-5.8-1.2Z" style="fill:#d88b64;opacity:0.6499999761581421;isolation:isolate"/><path d="M8.3,100.1c1.3,3.6,4.7,1.6,4.4,5a5.9,5.9,0,0,1,.5-2.5s0,.2-1.6-.6a9.4,9.4,0,0,1-2.9-2.1Z" style="fill:#d88b64;opacity:0.6499999761581421;isolation:isolate"/><path d="M10.7,107.3c.4,2.2-1.9,9.4-5.8,6.3,1,2.3,3.9,1.3,4.9-1.1a11.5,11.5,0,0,0,1.3-4Z" style="fill:#d88b64;opacity:0.6499999761581421;isolation:isolate"/><path d="M10.8,107.5s1.4,2.9,2.5,3.3,2.7,0,2.8-1.1C14.4,113.8,11.3,110,10.8,107.5Z" style="fill:#d88b64;opacity:0.6499999761581421;isolation:isolate"/><path d="M9.1,107.1a17.1,17.1,0,0,1-3,3.8c-1.7,1.5-2,2.1-1.7,2.7s-1.8,1.2-1.9-.5a1.8,1.8,0,0,0,2.9,1.3,3.9,3.9,0,0,1-.6-1.1v-.5A20.1,20.1,0,0,0,9.1,107.1Z" style="fill:#d88b64;opacity:0.6499999761581421;isolation:isolate"/><path d="M7.8,105.4c-.2.1-6.6,10-7.1,6.3a1.4,1.4,0,0,0,1.8,1.5,5.2,5.2,0,0,1,1.2-1.7C4.9,109.5,6.9,107.5,7.8,105.4Z" style="fill:#d88b64;opacity:0.6499999761581421;isolation:isolate"/><path d="M5.8,105.1A15.3,15.3,0,0,1,3,108.4C1.5,109.6.9,111,.2,110c-.1.6.4.7.7.9C2.6,109.2,4.8,107.2,5.8,105.1Z" style="fill:#d88b64;opacity:0.6499999761581421;isolation:isolate"/><path d="M59.8,52c.2-.2,3.1-4.8,2.4-6.3a46,46,0,0,1-2.5,6.1Z" style="fill:#d88b64;opacity:0.6499999761581421;isolation:isolate"/><path d="M28.9,71.2c5.8,4.7,26.8,5.8,26.4-5.9,1.2,12.8-20.9,11.3-26.4,5.9Z" style="fill:#d88b64;opacity:0.6499999761581421;isolation:isolate"/><path d="M40.9,121.7c.1.3.4,1.1.9.9A7.6,7.6,0,0,1,40.9,121.7Z" style="fill:#d88b64;opacity:0.6499999761581421;isolation:isolate"/><path d="M30.2,123.7c.5.3,2.3-.5,2.4-1.1A6.6,6.6,0,0,1,30.2,123.7Z" style="fill:#d88b64;opacity:0.6499999761581421;isolation:isolate"/><path d="M27,122.2a1.9,1.9,0,0,0,2,1.6A3.2,3.2,0,0,1,27,122.2Z" style="fill:#d88b64;opacity:0.6499999761581421;isolation:isolate"/></g><path d="M.3,109.2c.2-.1.9.3,1.1.5s.4-.9.3-1.1a1.3,1.3,0,0,0-.7-.4Z" style="fill:#fff;opacity:0.15000000596046448;isolation:isolate"/><path d="M.8,111.2h.3l.4.2.3.2c.9-.1.7-1.9-.3-1.5S.8,110.9.8,111.2Z" style="fill:#fff;opacity:0.15000000596046448;isolation:isolate"/><path d="M2.6,112.8c.6-.2,1.5.9,1.7-.2s-.2-1.2-.9-1A2.5,2.5,0,0,0,2.6,112.8Z" style="fill:#fff;opacity:0.15000000596046448;isolation:isolate"/><path d="M4.8,113.1c.5-.2,1.4.4,1.8.1s.1-1.6-.8-1.4A3.1,3.1,0,0,0,4.8,113.1Z" style="fill:#fff;opacity:0.15000000596046448;isolation:isolate"/><path d="M14.1,109.7c-.5-.7-.2-1.7.8-1.5s1.4.7,1.3,1.1A1.8,1.8,0,0,0,14.1,109.7Z" style="fill:#fff;opacity:0.15000000596046448;isolation:isolate"/><path d="M39.6,58a2.1,2.1,0,0,0-3.7-1.6c-1.5,2.6,2.6,5.3,3.7,1.6Z" style="fill:url(#aa5ba693-a3e5-46e7-aee3-864de5741013)"/><path d="M51.6,60a1.8,1.8,0,0,0-3.3-1.4C46.9,60.9,50.6,63.3,51.6,60Z" style="fill:url(#e678ac2a-6efb-405e-bdd2-72409c07eab5)"/><path d="M33.8,11.2c10-.6,17.7,8.6,18.6,18C51,20,43.6,11.1,33.8,11.2Z" style="fill:#db9e33;opacity:0.6499999761581421;isolation:isolate"/><path d="M26.1,13.9c.8,7.1,1.4,14.6,5.6,20.6-4.6-5.8-5.3-13.5-5.6-20.6Z" style="fill:#db9e33;opacity:0.6499999761581421;isolation:isolate"/><path d="M16.8,16.3a27.7,27.7,0,0,0-7.1,19A23.6,23.6,0,0,1,16.8,16.3Z" style="fill:#db9e33;opacity:0.6499999761581421;isolation:isolate"/><path d="M8.6,34.3c.7,5,1.1,10.2,3.2,14.8-2.6-4.5-3-9.8-3.2-14.8Z" style="fill:#db9e33;opacity:0.6499999761581421;isolation:isolate"/><path d="M17,46.7c-.9-3.7-.5-7.7.2-11.4A72.3,72.3,0,0,0,17,46.7Z" style="fill:#db9e33;opacity:0.6499999761581421;isolation:isolate"/><path d="M29.9,12.5A24.5,24.5,0,0,1,37.1,26a33.4,33.4,0,0,0-7.2-13.5Z" style="fill:#db9e33;opacity:0.6499999761581421;isolation:isolate"/><path d="M36.7,20.6a34.5,34.5,0,0,1,3.7,13.7c-.9-4.7-1.8-9.4-3.7-13.7Z" style="fill:#db9e33;opacity:0.6499999761581421;isolation:isolate"/><path d="M27.6,12.6a32.7,32.7,0,0,1,4.1,10.3,110.3,110.3,0,0,0-4.1-10.3Z" style="fill:#db9e33;opacity:0.6499999761581421;isolation:isolate"/><path d="M18.8,15.2c-2.1,2.9-4.2,5.9-5.2,9.4C14.1,21,16.3,17.8,18.8,15.2Z" style="fill:#db9e33;opacity:0.6499999761581421;isolation:isolate"/><path d="M13.2,18.3a61.2,61.2,0,0,0-3.1,5.6,12.4,12.4,0,0,1,3.1-5.6Z" style="fill:#db9e33;opacity:0.6499999761581421;isolation:isolate"/><path d="M22.2,14.2a60,60,0,0,0,.6,13.4,30.4,30.4,0,0,1-.6-13.4Z" style="fill:#db9e33;opacity:0.6499999761581421;isolation:isolate"/><path d="M20.1,14.9c-.6,2.1-1,4.4-1.4,6.6a13.8,13.8,0,0,1,1.4-6.6Z" style="fill:#db9e33;opacity:0.6499999761581421;isolation:isolate"/><path d="M24.7,14.1a24.8,24.8,0,0,1,.3,4.7,12.3,12.3,0,0,1-.3-4.7Z" style="fill:#db9e33;opacity:0.6499999761581421;isolation:isolate"/><path d="M32.5,12.4a8.3,8.3,0,0,1,4.9,4.3,15.5,15.5,0,0,0-4.9-4.3Z" style="fill:#db9e33;opacity:0.6499999761581421;isolation:isolate"/><path d="M53.4,25.5C55.3,32.4,56.3,41,51.6,47c4.3-6.3,3.3-14.6,1.8-21.5Z" style="fill:#db9e33;opacity:0.6499999761581421;isolation:isolate"/><path d="M53.7,45.7c-1,2.2-3.3,3.5-5.5,4.4,2-1.3,4.1-2.5,5.5-4.4Z" style="fill:#db9e33;opacity:0.6499999761581421;isolation:isolate"/><path d="M58.4,20.3a21.9,21.9,0,0,1,3.1,18.1,24.9,24.9,0,0,0-3.1-18.1Z" style="fill:#db9e33;opacity:0.6499999761581421;isolation:isolate"/><path d="M60.9,34.7a15.4,15.4,0,0,1-3.3,10.2,21.2,21.2,0,0,0,3.3-10.2Z" style="fill:#db9e33;opacity:0.6499999761581421;isolation:isolate"/><path d="M23.1,24.8c1.4,6,3.6,12,2.7,18.3.5-6.2-1.7-12.2-2.7-18.3Z" style="fill:#db9e33;opacity:0.6499999761581421;isolation:isolate"/><path d="M27,37.6c.7,5.4-1.5,10.5-2.9,15.7C25.1,48,27.3,43,27,37.6Z" style="fill:#db9e33;opacity:0.6499999761581421;isolation:isolate"/><path d="M34.7,12c3.3.5,6.6,2.4,8.1,5.3A15,15,0,0,0,34.7,12Z" style="fill:#db9e33;opacity:0.6499999761581421;isolation:isolate"/><path d="M51.6,16.1a16.1,16.1,0,0,1,7.3,10.2,22.5,22.5,0,0,0-7.3-10.2Z" style="fill:#db9e33;opacity:0.6499999761581421;isolation:isolate"/><path d="M11.8,58.9C9,55.1,8.1,50.3,7.4,45.7c1.1,4.5,2,9.2,4.4,13.2Z" style="fill:#db9e33;opacity:0.6499999761581421;isolation:isolate"/><path d="M10.4,51c-1.9-3.5-2.5-7.6-2.7-11.5A50.6,50.6,0,0,0,10.4,51Z" style="fill:#db9e33;opacity:0.6499999761581421;isolation:isolate"/><path d="M24.5,7.8c-1-2.4-3.5-3.6-5.6-4.7,2.3.7,5,2.1,5.6,4.7Z" style="fill:#db9e33;opacity:0.6499999761581421;isolation:isolate"/><path d="M20.4,9.2a7.9,7.9,0,0,0-7.3-1.3c2.3-1.2,5.7-.8,7.3,1.3Z" style="fill:#db9e33;opacity:0.6499999761581421;isolation:isolate"/><path d="M27.9,7.9c.3-.8.5-1.6.8-2.4a2.5,2.5,0,0,1-.8,2.4Z" style="fill:#db9e33;opacity:0.6499999761581421;isolation:isolate"/><path d="M26.7,7.6a17.7,17.7,0,0,0-.1-2.3,2,2,0,0,1,.1,2.3Z" style="fill:#db9e33;opacity:0.6499999761581421;isolation:isolate"/><path d="M22.2,8.4a7.7,7.7,0,0,0-2.4-2.7A3.2,3.2,0,0,1,22.2,8.4Z" style="fill:#db9e33;opacity:0.6499999761581421;isolation:isolate"/><path d="M16.2,13c-3-.5-6.5.5-8,3.3C9.3,13.2,13.3,11.9,16.2,13Z" style="fill:#db9e33;opacity:0.6499999761581421;isolation:isolate"/><path d="M18.1,11.2a12.7,12.7,0,0,0-5.5-.7,6.3,6.3,0,0,1,5.5.7Z" style="fill:#db9e33;opacity:0.6499999761581421;isolation:isolate"/><path d="M10.7,15.8c-2,2.4-2.8,5.5-3.2,8.6,0-3.1.9-6.5,3.2-8.6Z" style="fill:#db9e33;opacity:0.6499999761581421;isolation:isolate"/><path d="M35.3,130c1-.8,1.3-1.5.2-2.1v.3c.9.4.4,1-.1,1.8Z"/><path d="M25,129.4c.9.7-1.1-.8,0-1.3l-.2-.3C24,128.2,24.4,128.9,25,129.4Z"/><path d="M26.7,132.2H27c-.2-1.9-.9-1.7-2.2-2.5s-.2-.8-.1-.9l-.3-.2c-.3.4,0,1.1,0,1.3l1.6.9c.5,0,.5.9.7,1.5Z"/><path d="M24.7,132.5H25c-.5-1.4-1-2.5-.3-2.7v-.3c-1.1.4-.5,1.5.1,3.1Z"/><path d="M41.8,127.9c.2-.4.2-1.1-.4-1.1v.3a.6.6,0,0,1,0,.6Z"/><path d="M30.3,132.5c.4-1.3,2.2-.7,3.5-1.2s2.6-1.1,2.3-2.3l-.2.2c.2,1-.3,1.2-2.1,1.8s-3.4,0-3.7,1.4Z"/><path d="M27.6,144.5c2.6-.1,4.6-.8,5.9-2.5s3-3.5,2.9-4.2c-1.7-5.2,1.3-7.5-.4-8.1v.3c1,.4-.7,2.9-.4,4.6s1.5,2.5-.4,4.9-2.1,3.4-4.8,4.3-10,.1-9.7-4.2c-.9-6.6,7.2-5.6,10.2-2.6-1.4-2.7-6.6-3.8-9.2-1.7s-1.3,4.3-1.3,4.6C20.1,142.5,24.5,144.6,27.6,144.5Z"/><path d="M35.8,143.5h.4c.9-.9.8-1.8.9-3.3s.5-2.4-.8-2.6v.3c.9.1.4,1,.5,2.3s.2,2-.8,3.1h-.6v.3Z"/><path d="M34,146c.9-.4,1.1-2.3,1.8-3.2.4.8.4-1.3.3-1l-.3.5a34.2,34.2,0,0,0-1.6,3.3h-.5v.3Z"/><path d="M28.2,145.2c2,.2,4.9-.8,5.7-2.7s2.5-3.6,2.5-4.1c-2.7,4.6-4.2,7.3-10.4,6.4-2.1-.3-4.6-1.1-5.4-2.7C21,143.8,25.7,145.4,28.2,145.2Z"/><path d="M32.6,147c1-.3,1-.6.9-1.6l.3-.3a1,1,0,0,0,.1.4c.1.2.4-1.1.2-1.1l-1,.8v1.1a1.2,1.2,0,0,1-1.3.2v.3Z"/><path d="M27.4,147.7a32,32,0,0,0,4.2-.3c.7,0,.5-.6.6-1l.4-.2c.3-.1,0,.7.3.2s.2-.7,0-.7l-1,.5v.9c-2.8.5-10.6.8-11.8-2.9-.1-.9-.5-3,.7-3.4v-.3c-1.4.3-1.1,2.6-.9,3.7C20.2,146.8,24.9,147.7,27.4,147.7Z"/><path d="M30.2,135a4.5,4.5,0,0,0-1.7-1v.2c-1.6-3.7,7.5-1.4,7,1.3S31.1,136.2,30.2,135Zm-1.3-2.2c-.3.1-.4.3-.3.9a4,4,0,0,1,1.8,1.1c.8.9,3.8,2.4,4.6.6s-4.1-3.1-6.1-2.6Z"/><path d="M34,135.6c.4-.2.5-.3.5-.6-.3-2.1-5.1-2.4-6.1-1.9v.3C29.2,132.9,35,133.3,34,135.6Z"/><path d="M33.2,135.6c.7,0,1.2-.3,1.1-.9H34c-1.1,1.9-3.7-1.5-5.4-1.8v.3C30.4,133.8,31.3,135.6,33.2,135.6Z"/><path d="M28.4,134.2l.5-.2-.2-.2c-1.3.6-1-2.4.2-1.1l.2-.2C27.8,131.1,26.7,134,28.4,134.2Z"/><path d="M27.6,134H28l-.2-.3h0c-1.1.4-.8-1.9.3-1.2l.2-.3C27,131.3,26.2,133.9,27.6,134Z"/><path d="M31.7,135.1H32a3.3,3.3,0,0,0-2.2-2.1v.3a3.4,3.4,0,0,1,2,1.9Z"/><path d="M31.8,138.8h.4c.7-.5.3-1.7.1-2.8H32c.2,1,.4,2,.1,2.4s-.4-2-.7-3h-.3C31.3,136.7,30.8,138.5,31.8,138.8Z"/><path d="M31.7,140.8c.7.1.5-1.9.6-2.1H32c-.1.1-.1,1.8-.3,1.9s.2-1.9.1-1.9h-.3C31.6,138.8,30.8,140.8,31.7,140.8Z"/><path d="M30.3,135.8c.3-.1.5-.5.2-1l-.3.2c.1.2.2.4,0,.5a15,15,0,0,0-2-.7v.3C29.1,135.3,29.7,135.7,30.3,135.8Z"/><path d="M25.7,134.5a4.4,4.4,0,0,1,1.6-.6v-.3l-1.7.6Z"/><path d="M23.5,134.2c.4-1.3,2.6-.6,3.5-.6v-.3c-.9-.1-3.7-.8-3.5.9Z"/><path d="M22.8,134.7h.4c-1-1.7,4-2.4,4.1-2.1v-.3c-.2-.4-5.5.5-4.5,2.5Z"/><path d="M24.1,134.5v-.3c-.3-.1-.4-.5-.2-.6l-.2-.3A.7.7,0,0,0,24.1,134.5Z"/><path d="M24.6,134.4a3.7,3.7,0,0,1,1.9-.9l-.3-.2a8.4,8.4,0,0,0-1.9.9Z"/><path d="M24.9,133.9h.3a3.5,3.5,0,0,0-.1-.7h-.3a3.5,3.5,0,0,1,.1.6Z"/><path d="M29.7,134.5l.2-.3a4.6,4.6,0,0,0-1.3-.4v.3l1.2.4Z"/><path d="M25.4,138.8a3.3,3.3,0,0,0-2.9-.5h0a2.8,2.8,0,0,1,1.3,0,10.3,10.3,0,0,1,1.6.5Z"/><path d="M30.5,131.8h.3a6.3,6.3,0,0,0-4.5-1.1l.2.2c.4-.4,4.2.8,4,1Z"/><path d="M26.4,132.3h.2c-.3-1.1-.1-1.2-.9-1.6l-1-.6c-.1,0-.3-.2-.1,0s1.6.5,1.8,2.2Z"/><path d="M30.3,132h.1a6.5,6.5,0,0,0-3.8-.9v.2c1-.3,3.2.5,3.7.8Z"/><path d="M30.7,132.5c0-.5,1.8-.5,2.5-.7s2.9-1,2.7-1.1-5,.9-5.3,1.7Z"/><path d="M46.3,143.5c2.2-.2,5.8-.8,5.8-3.3s.5-2.6-1-2.9v.3c1.1.2.6,1.2.7,2.5s-5,3.3-6.9,2.9v-.7l-1.3-.3c-.2,0-.2.5-.2.6s.1.2.1,0,.8,0,1.1-.1v.7A3.4,3.4,0,0,0,46.3,143.5Z"/><path d="M43.3,143.2a3.2,3.2,0,0,0,1.3-.7l-.2-.3a2.3,2.3,0,0,1-2.6.3,2,2,0,0,1,.1-.7l-1.5-.5c-.4-.3-.3.3-.2.6h.1c-.2-.5.9.1,1.2.1S42.4,143.1,43.3,143.2Z"/><path d="M40.4,142.5a4.9,4.9,0,0,0,1.1-.4v-.3c-1.5,1.2-3.2-1-4.5-1.5v.3C37.7,141,39.2,142.4,40.4,142.5Z"/><path d="M40.1,135.2l.7-.8v-.3C40.3,134.2,39.3,136.5,40.1,135.2Z"/><path d="M46.3,140.4c9.6-.4,3.9-10.7-5.1-6.6v.3c10.4-4.4,14.2,8.8,1.9,5.4-1.7-.3-5-1.4-6.4-1.4v.3C39.2,138.4,43.7,140.2,46.3,140.4Z"/><path d="M37.9,134c-1-1.7,1.4-5.2,3.8-3.8.3.3-.1,1.3-.3,1.8s-1,2.5-2.4,2.5a1.3,1.3,0,0,1-1.1-.5Zm3.1-3.8c-2.4-.5-4.6,4.3-1.6,3.9.9-.2,1.3-1.3,1.6-2.2S41.9,130.3,41,130.2Z"/><path d="M39.1,134l.5-.2c.3-.3,0-.1-.1-.1s-.8-1-.3-1.8,1.7-1,2.4-1.6l-.3-.2c-.7.5-1.7.5-2.4,1.6S37.9,134.1,39.1,134Z"/><path d="M38.8,133.9c1.3.1,2.4-2.7,2.4-3.4h-.4c0,.5-1.2,3.3-2.2,3v.3Z"/><path d="M41.5,131.5c1.6-.3.4-2.9-.9-1.6l.2.2c1-1,1.8.8.7,1v.4Z"/><path d="M42,131.5c1.3-.1.7-2.8-.6-1.8l.2.3c.9-.7,1.2,1.4.3,1.2v.3Z"/><path d="M44.7,133.2c.9-1.3-.9-4-2.4-3.6v.3c1.3-.4,2.9,2,2.1,3.1Z"/><path d="M43.9,133.2a2.3,2.3,0,0,0-1.3-3.1v.3a2,2,0,0,1,1.1,2.7Z"/><path d="M41.1,132.6c.9-.4,2.5-.4,1.4-1.6l-.2.2c.8.9-.8.7-1.4,1.1Z"/><path d="M41.2,133.2a5.4,5.4,0,0,1,1.9-.4,1,1,0,0,0-.4-.9l-.2.3.3.4-1.7.4Z"/><path d="M43.4,133.3c.1-.4-.1-.8-.4-.8v.3a.4.4,0,0,1,.2.5Z"/><path d="M43.4,132.8a2.7,2.7,0,0,0-.7-2.4v.3a2.1,2.1,0,0,1,.6,2Z"/><path d="M40.1,132.6h.3a2.2,2.2,0,0,1,0-1.6h-.3A2.3,2.3,0,0,0,40.1,132.6Z"/><path d="M41.1,137.3c1.3-.5.4-3.7.1-4.8h-.3a14.1,14.1,0,0,1,.6,2.2c0,1,.2,2.7-.6,2.1a7.7,7.7,0,0,0-.1-3.4h-.3a5.3,5.3,0,0,1,.2,2.8C40.3,137,40.6,137.2,41.1,137.3Z"/><path d="M40,138.9c.4,0,1-1.7,1.2-1.8l-.3-.2c-.1,0-.8,1.6-1,1.6s.9-1.7.9-1.7l-.3-.2C40.5,137,38.8,138.8,40,138.9Z"/><path d="M40,130.2h.3c.1-2.6-2.6.1-4.3-1.2l-.2.3c2.1,1.3,4.4-1.2,4.2.9Z"/><path d="M41.9,129.7c.3-1.5.4-2.8-1.4-1.4s-1,.3-1,.8h.3c.1-.3,1.3-.7,1.4-1s.4.8.3,1.5Z"/><path d="M37.6,130.1a3.5,3.5,0,0,0,2-.6,4.6,4.6,0,0,1-3.4.2v.2Z"/><path d="M40.4,129c.2-.2,1.2-.9,1.3-.6s.1.1.1-.1H42c-.2-.5-1.6.5-1.6.7Z"/><path d="M46.6,140.9c2.2.3,4.7-1.4,4.9-2.6s0-.1-.1,0c-3.4,5.1-9.6.7-14.5.3v.2C41.7,139.3,42,140.6,46.6,140.9Z"/><path d="M47.6,135.9a6.2,6.2,0,0,1,1.9-.7c.1,0,.2,0,0-.1S46.9,136.2,47.6,135.9Z"/><path d="M38.1,120.4c-6.8-.2-15.1.3-21.2-3.7-.6-.6-.4-1.4-.1-2.8.7-3,1.5-7.1,1.8-8.7h.3c-.3,1.6-1.1,5.8-1.8,8.8s1.9,3.3,5.2,4.5a26.3,26.3,0,0,0,9.7,1.3c4.7.3,12.3.4,14.9-2.9,1.4-1.4-.1-5.1-.2-8.3H47c.1,3.3,1.7,6.9.1,8.5a13.7,13.7,0,0,1-9,3.2Z"/><path d="M47.4,52.3c4.1-1.9,7.8-4.3,9.1-8-2.3,4.5-7.2,7.4-12.2,8.2C47.8,45,46.6,37.2,43,32.4c1.3,3.5-1.5,7.2-.5,10.4-1.2-1-1.7-3.2-1.9-4.9-.1,2.6-.2,5.6,1,7.2-3.8-3.6-6.4-9.4-5.5-14.7-1.5,2.6-1.4,6.2-.5,9.2-6.7-4-10.3-12.4-10.1-17.5.8,5.6,3.8,12.9,9.3,16.3A10.8,10.8,0,0,1,36.7,29a16.9,16.9,0,0,0,3.8,13.9c-.5-2.1.1-7.8.1-7.8s.4,4.5,1.4,6.1c.1-3.2,2.1-6.8.2-10.1,4.6,3.6,6.3,13.1,2.9,20.6,5.9-1,10.4-4.6,12.1-9.8.4,3.8-3.7,7.5-7.6,9.5,8-1.6,15.2-12.2,13.9-19.9-.1-.6-.1-.8.1.1C65.4,40.4,56.2,52.3,47.4,52.3Z"/><path d="M25,60.7c-2.2-1.1-3.5-5.9-4-9.6a18.3,18.3,0,0,0,1.9,8c-3.2-2.4-6-10.8-5.1-14.9A25.1,25.1,0,0,0,22,57.7c-.8-2.2-1.9-6.7-.7-9.5-.2,3.4,1.1,9.5,3.1,11.7-.5-1.9.5-4.7,1.7-8.1,3.6-7.7,3-18.4.9-22.9h.3C33.2,45.5,22.9,52.4,25,60.7Z"/><path d="M44,69.3c-2.7-.1-6-1.4-6.7-3.7a8.4,8.4,0,0,0,11.6,1.7C48.1,68.8,45.4,69.3,44,69.3Z"/><path d="M36.4,66.2c-.4-1.2,1.8-1.5,1.3-1.1S36.7,67,36.4,66.2Z"/><path d="M43.4,73a3.6,3.6,0,0,1-2-.6c-.5-.4,0-.1.1-.1a4.7,4.7,0,0,0,3.5.1c.1,0,.4-.2.1.1A3.4,3.4,0,0,1,43.4,73Z"/><path d="M47.6,65c-.2-2.8-5.7-3.3-7.3-.9-.1.1-.4.5-.1,0,2.1-3.7,8.1-1.8,7.4.9Z"/><path d="M34.7,112.3a25.6,25.6,0,0,1-17-7.8c-1.2-.5.6-4.3.7-5.9l.5-.3c-.4,1.9-.9,3.6-1.2,5.1s.4.6,1.1,1.4c3.9,4.1,9.8,6.4,15,6.9,1.4.4,1.2-.7,1.4-2.5.5,0-2.2-15.8-2.3-16.8-.3-3.2-.2-8.2-.6-11.2s-1.5-4.5-1.8-6.4h.3c.3,1.9,1.5,4.1,1.8,6.4s.3,8,.6,11.2,4.3,18.2,1.5,19.9Z"/><path d="M34.2,112H34c1.3-6.7-1.2-13.4-1.7-19.4-.6-4.2-.1-11.7-1-15.1h.2c1,3.5.5,11,1,15.2.5,5.9,3,12.7,1.7,19.4Z"/><path d="M45.4,109.9h-.2c.6-5.6-2.1-16.3-3.1-21.9a53.2,53.2,0,0,1-.3-6.6c0-1.7.4-4.7-.4-5.6h.1c.8.9.4,3.9.5,5.7a39,39,0,0,0,.3,6.6c.9,5.5,3.7,16.4,3.1,21.9Z"/><path d="M45.4,109.2h-.1a10.1,10.1,0,0,0,3.7-3.7h.1a10.1,10.1,0,0,1-3.7,3.7Z"/><path d="M34.3,111.2c-9.4-1.4-11.4-3.1-16.8-7.9h.1c5.3,4.7,7.3,6.4,16.7,7.8Z"/><path d="M41.5,75.6c-8.4.4-17-6.2-20.1-12C12.1,65.5,9.6,49.9,18.5,50v.6c-8.2-1.1-6.7,14.8,3.1,12.5.5,2.5,6.7,8.7,13.1,11,8.2,2.9,25-.2,19.4-12.3,3.5-4.8,10.7-20.6,9.2-26.6h.3c1.5,6-5.4,21.4-9.1,26.6,4,9.1-4.3,13.9-13.1,13.8Z"/><path d="M20.4,61.7a1.2,1.2,0,0,1,.7-1.9c.1-.2.2-.8-.6-2s-3.3-2.9-4.3-2.6c2.1-1,3.1.4,4.6,2.4s1.2,2,.7,2.5-1.3.9-.9,1.5-.1.2-.2.1Z"/><path d="M17.7,57.8a2.8,2.8,0,0,1,.8-2.5l.2.3a2.6,2.6,0,0,0-1,2.2c.1.1,0,.2,0,0Z"/><path d="M23.7,69.7C5.7,67.6-1.3,35.2,9.5,21,16.2,10.8,31.8,9,42.9,10.8c16.9,2,27.1,18.6,23.7,34.6-.4-4.6-3.3-10.9-3.2-10.6l.3-.2a31.9,31.9,0,0,1,3,8.7c1.3-9.8-2.5-20.5-9.5-26.2C42.2,5.1,6.9,8,5,34.3,3.7,48.2,8.3,64.4,21.7,69a7.6,7.6,0,0,1-3-4.3,7.7,7.7,0,0,0,6,2.8l.4.5a9.6,9.6,0,0,1-5.5-1.9A8.1,8.1,0,0,0,23.7,69.7Z"/><path d="M4.2,64.8a9.9,9.9,0,0,0,3.7-5.5,19.2,19.2,0,0,1-2.7,1.6A9.3,9.3,0,0,0,7.6,55h.3a9.8,9.8,0,0,1-1.5,5,10.8,10.8,0,0,0,2-1.4,9.5,9.5,0,0,1-3.1,5.8,17.6,17.6,0,0,0,6.1-2.7l.3.3C11.7,62.1,7.3,64.8,4.2,64.8Z"/><path d="M16.7,14.5c.2-4.5,11.8-8.1,15.4-4.1l-.2.2C29.1,7.2,17.7,9.7,17,14.5Z"/><path d="M5.9,28.8c-1.6-5.9-3.3-16.6,2-21.9C17.4-1,29,1,33.8,10.3h-.3C29.3,1.6,17.2-.8,8.2,7.2,3,12.4,4.7,23,6.2,28.8Z"/><path d="M23.6,97.2c-.2-.7-.6-2.3-1-3.3h.3c.2.2,1.4,5.6.7,3.4Z"/><path d="M22.9,101.4a59,59,0,0,1-1.6-5.9l.3-.2C21.8,96.6,23.4,102.8,22.9,101.4Z"/><path d="M46.7,97.2c.2-.5-.8-4.3-.1-2.5s.1,4.7.1,2.5Z"/><path d="M37.2,106.9l-2.1-.2v-.3a15.7,15.7,0,0,0,9.3-1.5l.2.3A17.4,17.4,0,0,1,37.2,106.9Z"/><path d="M25,92.8l-.8-1,.2-.2C24.9,92.2,25.4,93.4,25,92.8Z"/><path d="M36.8,80.6c-2.4.1-5.1-2.6-5.8-4.1h.1c.6,1.3,3.1,3.9,5.3,4s6-1.9,4.9-4h.1c1.3,2-2.8,4.7-4.6,4.3Z"/><path d="M36.9,105.9H35v-.2c2.1.5,8.2-.5,9.4-1.4h.1c-.3.6-6.2,1.8-7.6,1.6Z"/><path d="M37.6,62.1c-4.9.1-4.9-11.3.6-11.1s4.5,11.2-.6,11.1Zm.6-10.9c-5,0-5.1,9.5-1.3,10.6,5.6,1,5.6-10.5,1.3-10.6Z"/><path d="M50.2,63.8c-4.3.3-2.5-10,1.8-9.8s2.3,10-1.8,9.8ZM52,54.2c-3.7-.3-6,9.2-1.8,9.3S56,54.4,52,54.2Z"/><path d="M33.7,119.4a30.8,30.8,0,0,1-13.4-2.3c-2.3-.7-3.6-1.9-3.5-2.5H17c.4,2.2,8.6,4.2,11.6,4.4,6.6,0,16.2,1.9,19-4.2h.2c-2,5-8.7,4.5-14.1,4.6Z"/><path d="M30.6,123.7a3.8,3.8,0,0,0,1.8-.8c.4-.3.4-.4-.1-.1l-1.7.9Z"/><path d="M28.7,123.8c.4.1.4,0-.1-.2a8.1,8.1,0,0,1-1.4-1.2c-.3-.3-.3-.3,0,.1A2.8,2.8,0,0,0,28.7,123.8Z"/><path d="M30.5,130.7c-1.8.2-5.1-.7-5.4-2.1a100.1,100.1,0,0,1-2.3-9.8h.3c.5,2.2,1,5,1.6,7.2s.2,3.3,3.2,4.2c9.4,1.6,7.3-3.4,8.3-10.2h.3c-.1,1.1-.7,7.1-.8,7.7-.4,2.6-2.8,3-5.2,3Z"/><path d="M37.5,128.9l-1.4-.2v-.3c6.4,1.2,5.9-4.9,7.2-9.4h.3c-1.3,4.1-.8,9.9-6.2,9.8Z"/><path d="M24.2,119.2a67,67,0,0,1,.2-9.9h.2a82.9,82.9,0,0,0-.2,9.8Z"/><path d="M39.8,120.1h-.2c.2-2.1,0-6.5.1-9.8h.2c-.3,3.3.1,7.5-.1,9.8Z"/><path d="M39.5,110.4c-.1,0,0-.1.3-.2s.2-2.6.3-3.7h.2c-.3.8.4,3.9-.8,3.9Z"/><path d="M39.4,109.7c-.1-.2,0-3.3.1-2.4s0,3.4-.1,2.4Z"/><path d="M43.1,117.1a20.1,20.1,0,0,0,2.2-4.4c.1,1-1.5,3.8-2.2,4.4S43,117.3,43.1,117.1Z"/><path d="M45.7,114.2c0-.5.1-1.6.1-2.2s.1-1.1.2,0-.1,1.7-.1,2.2S45.6,115.6,45.7,114.2Z"/><path d="M21.7,113.5c-1.1-1.2-2.4-4.5-2.1-5.4A16.5,16.5,0,0,0,21.7,113.5Z"/><path d="M22.5,116.7a3.3,3.3,0,0,1-1.5-1.1c-.4-.4-.1-.3.2,0S23.9,117.3,22.5,116.7Z"/><path d="M33.5,116.4a8.5,8.5,0,0,0,3.7-3.8c0-.1.2-.5.1.1S34.7,116.3,33.5,116.4Z"/><path d="M32.2,109.9c-5.9-1.6-4,.5-3.8-5.5.3-.5,4.7.6,4.6,1s-.1,4.3-.8,4.5ZM28,108.8l4.2,1h.2c.1-.4.4-3.6.5-4.4s-3.4-.9-4.4-1-.3,3.5-.5,4.5Z"/><path d="M32.5,48.3c-3-1.2,7.8-5.4,7.2-1.5-.3.6-1.1.5-1.8.5a14.4,14.4,0,0,0-5.4,1Zm5.2-2.8c-1.2-.2-6.2,1.8-5.3,2.5a16,16,0,0,1,6.1-1c1.7-.2.4-1.7-.8-1.5Z"/><path d="M58.8,49.8c-.8-.3-1.4-1.6-2.2-1.6v-.3a3.1,3.1,0,0,1,1.9,1.4l.3.2c.9-.7-.4-2-1.3-2.2V47c1.6.3,2.5,2.3,1.1,2.8Z"/><path d="M42.4,122.5a.9.9,0,0,0,.6-.5h-.2C42.8,122.2,41.8,122.8,42.4,122.5Z"/><path d="M41.7,122.6c.6.1-.6-.6-.6-.7S41.4,122.6,41.7,122.6Z"/><path d="M43.9,71c-2.1,0-4-2.7-5.7-3.9l.2-.3c2.1,1.8,5.5,6,7.8,2.6.5-.5,1.2-1.5,2.2-1.4C46.6,68.9,46.3,70.9,43.9,71Z"/><path d="M47.1,68.6c-1.7-.5-2.8-1.3-4.9-.5s-3.3.1-4-1.5c2.8,2.6,5.4-.2,7.9,1.3a1.5,1.5,0,0,0,1.8.1l.2.3a1.9,1.9,0,0,1-1,.3Z"/><path d="M42.1,70.3l-.2-.3c.7-.5,2.2-.5,2.4,0s.3.6-.3.2a1.5,1.5,0,0,0-1.9.1Z"/><path d="M45.6,70.3A1.4,1.4,0,0,0,44,70l-.2-.3a1.7,1.7,0,0,1,2,.4Z"/><path d="M44.9,68.6l-.7-.2a1.4,1.4,0,0,1-1.9-.5l.3-.2a1.1,1.1,0,0,0,1.6.3,1,1,0,0,0,1.6-.2l.2.2A1.4,1.4,0,0,1,44.9,68.6Z"/><path d="M44.7,110.6c-.8,0,0-4.7-.5-7.7a83.1,83.1,0,0,0-1.8-9.6c-2-6.5-.9-11.3-1.2-17l.3-.2c.4.7.1,1.8.1,2.6a57.3,57.3,0,0,0,.1,9.2,27.5,27.5,0,0,0,1,5.4c1,3.2,2.5,13.8,2.1,16.7.8,0,3.9-2.9,4.1-3.9S47.3,96.2,46.7,94c-1.2-4.5-2.8-9.8-2.8-13s-.8-4.5-1.5-5.5l.3-.2c.8,1.1,1.5,2.3,1.6,5.7s1.6,8.5,2.8,12.9c.6,2.3,2.7,10,2.4,12.2a11.6,11.6,0,0,1-4.8,4.5Z"/><path d="M13.6,102.9c-1.1,0-3.5-1.3-4.8-2.6s1.9-5.9,3-8.6,5.4-9.8,6.5-12.1,3.9-4.5,6.9-4.3a5.1,5.1,0,0,1,2.6.7c1.4.9-2.1-.6-2.4-.4a7.4,7.4,0,0,0-6.8,4.1c-1.1,2.4-5.2,9.8-6.5,12.1S6.9,97.6,9,100s4.7,3.8,6.4,1.3S27.5,88.6,29,83.4a16,16,0,0,0,.5-2.1c0-.1,0-1.2.2-.1.5,5.4-12.5,20.5-16.1,21.7Z"/><path d="M29.3,83.7l-.2-.2a8,8,0,0,0,1.5-1.7c1.2-1.4-.7,1.7-1.3,1.9Z"/><path d="M29.9,86.7c-.4,1.8,0-2.8,0-2.6A4.5,4.5,0,0,1,29.9,86.7Z"/><path d="M15.5,99.8a15.9,15.9,0,0,0,4.3-2.7l.2.2a13.6,13.6,0,0,1-4.5,2.5C15.3,100,15.2,99.9,15.5,99.8Z"/><path d="M25.5,85.2a4.5,4.5,0,0,0,2.2-1.7c.7-1.2.8-1,.3.1s-2.5,1.6-2.5,1.6Z"/><path d="M31.3,77.3a10.7,10.7,0,0,0-4.4-1.7v-.2c1.1.3,3,.5,4.5,1.7Z"/><path d="M44.1,89.6a30,30,0,0,1-.4-5.3c0-.1.1-.9.1-.4s.9,8.5.3,5.7Z"/><path d="M21.9,76.1c-.3-1.7-.3-3.9,0-4.4s4.4-1.3,5.7-1.6v.3c-5.5,1.4-6.3.1-5.3,5.5Z"/><path d="M31.1,77.1c-.8-1.7-4.5-3.4-6.5-4.3s-2.5-1.1,0-.2,5.8,2.6,6.7,4.4Z"/><path d="M25.5,74.7a7.3,7.3,0,0,1-2.3-.9c-.4-.3-.1-.3.3-.1a11.6,11.6,0,0,0,2.1.9C26.6,74.9,26.4,74.9,25.5,74.7Z"/><path d="M25.1,71.5a13.9,13.9,0,0,1,3.4-.9v.3C27.9,70.8,24.2,71.9,25.1,71.5Z"/><path d="M37.2,79.7c-2,.4-6-3.5-6.7-4.6s-.7-2.3-1.3-3.5h.3c.9,3,3.9,8.6,8.6,7.8s2.7-2.6,3.2-4.1c.7,0,.2.4.1,1.2s-1.3,3.3-4.2,3.3Z"/><path d="M30.7,75.1a5.8,5.8,0,0,0-2.4-2.9c-.1-.1-.1-.2.1-.1A7.2,7.2,0,0,1,31,75Z"/><path d="M44.2,81.9l-.2-.4c3.3-2.7,16.7-13.2,18-17.2-1.7.5-5.2-3.6-4.4-5.3-.8.3-1.6,1.4-2.5,2v-.6c1.1-.7,1.9-2.1,3.1-1.7-.7.5-.9,1.1.7,3.5S62,64,62.1,64C65,65.3,45.3,81,44.2,81.9Z"/><path d="M44.1,81.6v-.5a12.4,12.4,0,0,0,3.7-4c.2-.4.3-.5.2-.1s-2,3.5-3.8,4.6Z"/><path d="M61.6,65.5a5.1,5.1,0,0,1-4.1-2.9c-.9-1.7-1.3-3-.4-3.6v.2c-.7.6-.3,1.9.5,3.4a5.2,5.2,0,0,0,4.1,2.8Z"/><path d="M53.9,72.2a20.1,20.1,0,0,0,4.3-5.4c0-.1.3-.7.1,0a13.3,13.3,0,0,1-4.4,5.6c-.9.5-.1-.1,0-.2Z"/><path d="M45.6,76.7a1.3,1.3,0,0,1-.8-.2c-1-.5,1.2.2,1.9-.5s.6-.3.3,0-.7.7-1.4.7Z"/><path d="M47.7,78c.4-.6,1.9-2.7,1.7-2.1S47.3,78.6,47.7,78Z"/><path d="M57.9,59l-.2-.3a11.4,11.4,0,0,0,1.9-1.9l.2.2A7.3,7.3,0,0,1,57.9,59Z"/><path d="M62.1,64.3l-.4-.3a13.8,13.8,0,0,1,3.2-2c2.9,1.3,5.4-4.5,6.1-6.5s3.8-2.4,4.8-3.8.8-2.5-.6-2.3v-.3c1.7-.2,1.8,1.6.9,2.8s-3.1,2.9-4.8,4-3.1,7.7-6.4,6.6a11,11,0,0,0-2.8,1.8Z"/><path d="M61.4,59.7c-2.5-.8-2.2-6-1.4-6.9a2.5,2.5,0,0,1-.4-1l.3-.3c.1.7.2,1,.4,1.2a6.7,6.7,0,0,0,1.1,7Z"/><path d="M63.6,60.3c-2,.4,1.2-.4,1.6-2.6s.4-.7.3.1-.9,2.3-1.9,2.5Z"/><path d="M70.5,53.6A15.4,15.4,0,0,0,67,49.9c-1.1-.6-.8-.6.1-.3a11.6,11.6,0,0,1,3.7,3.9C71.4,54.7,71.2,54.6,70.5,53.6Z"/><path d="M63.7,51.8c-.4,1.9-.3,0-.3,0a14.7,14.7,0,0,0-1.4-6l.2-.4a17.7,17.7,0,0,1,1.4,5.3,31.4,31.4,0,0,1,3.7-7.8c2.5-3.3,6.2-.3,3.3,3.2-.6.7-3,3.7-2.6,2.8s4.2-4.7,3.1-6.4-2.1-1.1-3.5.6a33.3,33.3,0,0,0-3.9,8.7Z"/><path d="M70.1,50.7c.9-2.1,5.9-5,3.8-7.1a1.9,1.9,0,0,0-2.4-.1l-.2-.2c1.8-1.5,4.4.6,3.2,2.5s-2.9,3.2-4.2,5c-.1.1-.3.1-.2-.1Z"/><path d="M71.2,52.8c1.2-1,4.8-3.7,4.4-5.3s-.5-1.7-1.5-1.4v-.3c2.9-.5,2.1,3.4-.1,4.9-.4.6-3.1,2.7-2.7,2.1Z"/><path d="M14.2,111.6c-2.6.4-4.4-6.3-3.1-3.7s3.6,5.3,4.9,1.8c.2-1-1.1-1.1-1.8-1.8s-1.5-1.1-1.6-1.8a11.1,11.1,0,0,1,.5-3.4h.3a7.4,7.4,0,0,0-.4,3.3c0,.6,0,.6,1.4,1.6s2.2.8,2,2.1a2.3,2.3,0,0,1-2.2,1.8Z"/><path d="M14,109.8c-.5-.8-.4-2.2,1-1.6h-.1c-.9-.5-1.3.4-.9,1.2a2,2,0,0,1,2.2-.3h-.1A2.1,2.1,0,0,0,14,109.8Z"/><path d="M6.9,115.2a2.2,2.2,0,0,1-2.3-1.8c.7-1.9,3.9-4.1,4.5-6.2.1-.1.2,0,.1.1a16.6,16.6,0,0,1-2.5,3.8c-.6.7-1.8,1.6-1.8,2.3a1.8,1.8,0,0,0,1.7,1.4c2.6.5,4.2-4.8,4.3-6.3h.3c0,1.5-1.6,6.8-4.3,6.7Z"/><path d="M4.3,115c-1.6-.1-2.9-1.9-1.3-3.2a56.4,56.4,0,0,0,4.6-6.3c.5-.3-1.1,2.4-1.7,3.1s-4.1,4-3.2,5.3a1.7,1.7,0,0,0,2.5.5l.3.3a1.9,1.9,0,0,1-1.2.3Z"/><path d="M2.4,113.4c-2.4,0-2.5-2.3-.6-3.6a19.5,19.5,0,0,0,4-4.7c.1-.2.1,0,.1.1A20.6,20.6,0,0,1,2,110c-1.6,1.2-1.7,2.8.5,3v.4Z"/><path d="M.9,111c-2.1-1.1.1-2.9,1.1-4.1s1.4-2.4,2-3.5,4.3-3,4.6-3.6l.2.2c-.3.6-4.2,2.4-4.6,3.5a32.4,32.4,0,0,1-2,3.6c-.8,1.1-3.1,2.7-1.2,3.6Z"/><path d="M6.3,113.5c-.4-.1-1.2-.4-1.5-.2H4.7a2.8,2.8,0,0,1,1.5.2c1-.2.4-2.1-.7-1.1H5.4c1.3-1.3,2,.9.9,1.3Z"/><path d="M3.9,113.2c-.3-.1-1.1-.5-1.3-.3H2.4c.2-.5,1.1,0,1.4.2s.4-2.2-.7-1H3c1.3-1.5,2.2.6.9,1.2Z"/><path d="M2,111.8c-.3-.1-.8-.7-1.2-.4H.7c.2-.4.9,0,1.2.2s.9-2.1-.4-1.1H1.4c1.1-1,1.6,1.2.6,1.5Z"/><path d="M1.3,109.8c-.3-.1-.7-.6-1-.4H.2c.4-.2.9.1,1.2.4s.3-1.7-.6-1H.7c1-1,1.5.8.6,1.2Z"/><path d="M25.5,105.5c1.1-1.6,1.9-6,3.8-6.4-1.7.9-2.5,5.8-3.8,6.4Z"/><path d="M33.4,103.1a24.6,24.6,0,0,0-2.7-3.4c-1.1-1,0-.2,0-.2s4,5.5,2.7,3.6Z"/><path d="M47,105.3a16.3,16.3,0,0,0-1.3-5.7c-.1-.1-.5-.9,0-.2a9.4,9.4,0,0,1,1.3,5.9Z"/><path d="M19.5,96c1.5-1.5,3.8-5.9,5-7.5a31.8,31.8,0,0,1-5,7.7c-.2.1-.2-.1,0-.2Z"/><path d="M23.7,83.1l-.8-.7c1.8-1.7-1.5-4.3-2.4-1.2l-.9-.5C20.5,76.1,26.9,79.7,23.7,83.1Zm-.8-.8.7.6c3-3.2-3.1-6.7-4.1-2.3l.8.4c1-2.9,4.4-.6,2.6,1.3Z"/><path d="M21.3,87.1l-4.2-2.4.5-.9,1.8.7a4.9,4.9,0,0,0,.8-1.2,15.3,15.3,0,0,0-1.7-1l.4-1a11.8,11.8,0,0,1,2.2,1.1,15.7,15.7,0,0,1,2.2,1.3l-.6,1-1.6-.9L20.3,85,22,86.1Zm-4.1-2.4L21.3,87l.7-.9L20.4,85a5.2,5.2,0,0,1,.9-1.3,7.6,7.6,0,0,1,1.5,1l.5-.9c-.1-.1-4.1-2.3-4.3-2.3l-.4.8a18.9,18.9,0,0,1,1.7,1l-.9,1.3-1.8-.7Z"/><path d="M20.4,88.8l-4-2.4a4.1,4.1,0,0,1,.6-1.1c1.3.6,3,1.7,4,2.3S20.6,88.4,20.4,88.8Zm-3.9-2.4c.4.2,3.4,1.9,3.9,2.3s.7-.8.6-1-2.7-1.7-4-2.3a3.1,3.1,0,0,0-.5,1Z"/><path d="M17.8,91.8c-.7,0-1.6-.5-1.3-1.4s-2-.4-2-.5a9.3,9.3,0,0,1,.5-1c.7.5,1.7.8,2.1-.2s-1.9-.6-.8-1.9a25.1,25.1,0,0,1,3.8,2.4c-.3.7-1.2,2.7-2.3,2.6Zm-1.2-1.5c-.5,1,.8,1.7,1.6,1.4A5.9,5.9,0,0,0,20,89.3,29.9,29.9,0,0,0,16.3,87l-.5.8,1.4,1c-.4,1-1.5.8-2.2.3l-.5.9C14.7,90.1,16,90.8,16.6,90.3Z"/><path d="M17.8,90.8c-.9.1-.4-2,.2-1.8s.9.4.9.7-.5,1.1-1.1,1.1Zm.1-1.8c-.4.1-.9,1.7-.1,1.7h0c.6,0,1-.8,1-1.1a7,7,0,0,0-.9-.6Z"/><path d="M15.4,95.7c-3.2.2-3.8-4.7-.7-4.7s3.9,4.5.7,4.7ZM14.7,91c-2.9,0-2.6,4.5.4,4.6s3-4.7-.4-4.6Z"/><path d="M15.3,94.7c-1.9.1-2.3-2.8-.4-2.8s2.2,2.7.4,2.8Zm-.4-2.8c-1.7,0-1.5,2.6.2,2.7s1.7-2.8-.2-2.7Z"/><path d="M43.1,69.7l.9.2.3-.2h.5c.1,0,.8.5.9.4S46.9,69,47,68.5l-1.2-.6a1.8,1.8,0,0,1-.7.5c-.3.1-.7-.1-1-.2a1.5,1.5,0,0,1-1.8-.3,6.7,6.7,0,0,1-2.8-.2c.4,1,1.5,1.7,2.3,2.4Z"/><path d="M36.3,57.9a1.4,1.4,0,1,0,2.8-.5c-.2-1.8-3.3-1.3-2.8.5Z"/><path d="M48.5,59.8c.2,1.7,2.7,1.2,2.5-.4s-2.8-1.2-2.5.4Z"/><path d="M50.2,59a.8.8,0,0,0,0-1.5A.8.8,0,0,0,50.2,59Z" style="fill:url(#f7a549a1-e881-44e0-9969-b5fcf643090c)"/><path d="M37.7,56.8a.9.9,0,0,0,0-1.7A.9.9,0,0,0,37.7,56.8Z" style="fill:url(#bcd21442-f6f7-4ab2-b386-6bee39fdbc13)"/><path d="M30.5,106.3v-1c.4,0,.3.5-.1.4" style="fill:none;stroke:#fff;stroke-miterlimit:10;stroke-width:0.6297000050544739px"/><path d="M31.4,107.9a1.3,1.3,0,0,1-2.3-.9,1.3,1.3,0,0,1,2.1-.8" style="fill:none;stroke:#fff;stroke-miterlimit:10;stroke-width:0.6297000050544739px"/><path d="M31.3,106.7l.5-.2" style="fill:none;stroke:#fff;stroke-miterlimit:10;stroke-width:0.5037000179290771px"/><path d="M31.5,106.7c.4.2-.1.3-.2.3" style="fill:none;stroke:#fff;stroke-miterlimit:10;stroke-width:0.5037000179290771px"/><path d="M31.4,107.1h.4" style="fill:none;stroke:#fff;stroke-miterlimit:10;stroke-width:0.5037000179290771px"/><path d="M31.4,107.3h.4" style="fill:none;stroke:#fff;stroke-miterlimit:10;stroke-width:0.5037000179290771px"/><path d="M31.7,107.3c.1,0,.1.2.1.2" style="fill:none;stroke:#fff;stroke-miterlimit:10;stroke-width:0.5037000179290771px"/><path d="M31.4,107.7c.1-.2.4-.1.3.1s-.4,0-.3-.1Z" style="fill:none;stroke:#fff;stroke-miterlimit:10;stroke-width:0.5037000179290771px"/><path d="M31.4,106.5c0-.4-.6.1-.1.1" style="fill:none;stroke:#fff;stroke-miterlimit:10;stroke-width:0.5037000179290771px"/></g></svg>