<svg xmlns="http://www.w3.org/2000/svg" xmlns:xlink="http://www.w3.org/1999/xlink" id="a2d24b00-6832-4d9b-80cc-0909f0f6d4bb" data-name="Layer 1" viewBox="0 0 313 550"><defs/><defs><linearGradient id="a9a2ee5f-dc5b-4815-9ea7-313dcf5a41a6" x1="62.5" x2="177.6" y1="133.1" y2="133.1" gradientTransform="matrix(1 0 0 -1 0 552)" gradientUnits="userSpaceOnUse"><stop offset=".3" stop-color="#a2927f"/><stop offset=".5" stop-color="#9b8c79"/><stop offset=".9" stop-color="#897a6a"/></linearGradient><linearGradient id="bbe28f6a-32f1-474d-9c33-7645539b3fb0" x1="85.1" x2="134.9" y1="88.4" y2="85.3" gradientTransform="matrix(1 0 0 -1 0 552)" gradientUnits="userSpaceOnUse"><stop offset=".5" stop-color="#f2b58d"/><stop offset=".6" stop-color="#efb189"/><stop offset=".8" stop-color="#e5a67c"/><stop offset=".8" stop-color="#de9e74"/></linearGradient><linearGradient id="b78effa5-3848-417f-b9c2-215039e4b342" x1="133.7" x2="159.2" y1="91.6" y2="90" gradientTransform="matrix(1 0 0 -1 0 552)" gradientUnits="userSpaceOnUse"><stop offset=".1" stop-color="#de9e74"/><stop offset=".4" stop-color="#f2b58d"/><stop offset=".5" stop-color="#f0b28a"/><stop offset=".7" stop-color="#de9e74"/></linearGradient><linearGradient id="b6c0b60e-4f72-4abe-b152-efac44396926" x1="113.2" x2="98.1" y1="59.7" y2="63.5" gradientTransform="matrix(1 0 0 -1 0 552)" gradientUnits="userSpaceOnUse"><stop offset="0" stop-color="#231c16"/><stop offset=".4" stop-color="#352920"/><stop offset=".8" stop-color="#33281f"/><stop offset="1" stop-color="#221b15"/></linearGradient><linearGradient id="bf4f6d6c-bf62-4448-853e-82f984538b77" x1="143.8" x2="132.3" y1="53.6" y2="53.6" gradientTransform="matrix(1 0 0 -1 0 552)" gradientUnits="userSpaceOnUse"><stop offset="0" stop-color="#352920"/><stop offset="1" stop-color="#221b15"/></linearGradient><linearGradient id="ef87b0ab-4723-4318-a4f0-dcd566167b10" x1="153.1" x2="149.4" y1="72" y2="70.4" xlink:href="#bf4f6d6c-bf62-4448-853e-82f984538b77"/><linearGradient id="ec137889-6309-4eab-abf2-040e2a541e0e" x1="90.9" x2="134.2" y1="68.5" y2="68.5" gradientTransform="matrix(1 0 0 -1 0 552)" gradientUnits="userSpaceOnUse"><stop offset="0" stop-color="#293b60"/><stop offset=".3" stop-color="#27395c"/><stop offset=".6" stop-color="#233351"/><stop offset=".9" stop-color="#1b283f"/><stop offset="1" stop-color="#19253a"/></linearGradient><linearGradient id="a3bc909b-037f-476d-ae1b-d09010ae6478" x1="134.2" x2="155.4" y1="74.6" y2="74.6" gradientTransform="matrix(1 0 0 -1 0 552)" gradientUnits="userSpaceOnUse"><stop offset="0" stop-color="#1a273d"/><stop offset=".3" stop-color="#293b60"/><stop offset=".6" stop-color="#27395c"/><stop offset=".8" stop-color="#223250"/><stop offset="1" stop-color="#1a273d"/><stop offset="1" stop-color="#19253a"/></linearGradient><linearGradient id="ef755d71-05e9-4a5b-834a-5d98b20514b1" x1="119.8" x2="158.4" y1="211.4" y2="215.7" gradientTransform="matrix(1 0 0 -1 0 552)" gradientUnits="userSpaceOnUse"><stop offset=".1" stop-color="#a91f18"/><stop offset=".1" stop-color="#c31e12"/><stop offset=".2" stop-color="#d81c0d"/><stop offset=".3" stop-color="#e01c0b"/><stop offset=".7" stop-color="#e01c0b"/><stop offset=".9" stop-color="#bf1e13"/><stop offset="1" stop-color="#a91f18"/></linearGradient><linearGradient id="bd37ed64-ad6a-49e3-af09-4d28fbbd3603" x1="37" x2="183" y1="179.1" y2="223.4" gradientTransform="matrix(1 0 0 -1 0 552)" gradientUnits="userSpaceOnUse"><stop offset="0" stop-color="#293b60"/><stop offset="1" stop-color="#19253a"/></linearGradient><linearGradient id="b35ac195-9128-469f-9575-34f557aa3db3" x1="130.8" x2="165.7" y1="157.2" y2="160.2" gradientTransform="matrix(1 0 0 -1 0 552)" gradientUnits="userSpaceOnUse"><stop offset="0" stop-color="#1a263b"/><stop offset=".3" stop-color="#293b60"/><stop offset=".8" stop-color="#283a5e"/><stop offset="1" stop-color="#19253a"/></linearGradient><linearGradient id="a0cb4221-fbf7-490a-9115-2979237a4fae" x1="114.2" x2="154.8" y1="262.2" y2="262.2" gradientTransform="matrix(1 0 0 -1 0 552)" gradientUnits="userSpaceOnUse"><stop offset="0" stop-color="#1a263b"/><stop offset=".3" stop-color="#293a5f"/><stop offset=".8" stop-color="#293b60"/><stop offset="1" stop-color="#19253a"/></linearGradient><linearGradient id="e6fa19d2-04fa-4c7b-bf8a-b9cb04e6258a" x1="13.2" x2="44.2" y1="165.3" y2="132.4" gradientTransform="matrix(1 0 0 -1 0 552)" gradientUnits="userSpaceOnUse"><stop offset=".3" stop-color="#f2b58d"/><stop offset=".6" stop-color="#efb189"/><stop offset=".8" stop-color="#e5a67c"/><stop offset=".8" stop-color="#de9e74"/></linearGradient><linearGradient id="bf244995-2206-47fe-ab52-488495df45b7" x1="226.7" x2="262.2" y1="376.4" y2="338.9" gradientTransform="matrix(1 0 0 -1 0 552)" gradientUnits="userSpaceOnUse"><stop offset=".3" stop-color="#f2b58d"/><stop offset=".6" stop-color="#efb189"/><stop offset=".9" stop-color="#e5a67c"/><stop offset="1" stop-color="#de9e74"/></linearGradient><linearGradient id="b50a7d9f-3176-4f86-89f0-7bd1a1d3a822" x1="69.6" x2="215" y1="365.6" y2="329.1" xlink:href="#e6fa19d2-04fa-4c7b-bf8a-b9cb04e6258a"/><linearGradient id="e98689f9-0e92-4c78-ba82-84ea150464b6" x1="168.3" x2="203.6" y1="307.5" y2="278.9" gradientTransform="matrix(1 0 0 -1 0 552)" gradientUnits="userSpaceOnUse"><stop offset="0" stop-color="#bfad95"/><stop offset=".8" stop-color="#8e7c68"/></linearGradient><linearGradient id="aff6e5da-08ed-4ca4-abd9-9617d4c3697e" x1="88.3" x2="108.7" y1="263.8" y2="284.5" gradientTransform="matrix(1 0 0 -1 0 552)" gradientUnits="userSpaceOnUse"><stop offset="0" stop-color="#bfad95"/><stop offset="1" stop-color="#8e7c68"/></linearGradient><linearGradient id="ff1c0149-4e18-4934-9207-3eb8cbfc6819" x1="119.2" x2="147.1" y1="378.1" y2="378.1" gradientTransform="matrix(1 0 0 -1 0 552)" gradientUnits="userSpaceOnUse"><stop offset=".3" stop-color="#efbd50"/><stop offset="1" stop-color="#ddab47"/></linearGradient><linearGradient id="a219197e-5340-4b7f-992b-865465a0edab" x1="211.2" x2="220.5" y1="371.9" y2="371.9" xlink:href="#ff1c0149-4e18-4934-9207-3eb8cbfc6819"/><linearGradient id="a2f50241-db68-4469-bd5e-fd36cb3d2c6c" x1="21.3" x2="248.7" y1="424.3" y2="375.1" gradientTransform="matrix(1 0 0 -1 0 552)" gradientUnits="userSpaceOnUse"><stop offset=".3" stop-color="#efbd50"/><stop offset=".8" stop-color="#ddab47"/></linearGradient><linearGradient id="eef9c579-aca5-4835-a30a-87d66e8e357c" x1="19.4" x2="35.5" y1="325.8" y2="332" gradientTransform="matrix(1 0 0 -1 0 552)" gradientUnits="userSpaceOnUse"><stop offset=".3" stop-color="#efbd50"/><stop offset=".9" stop-color="#ddab47"/></linearGradient><linearGradient id="ffc1cb4f-9d18-45be-8777-4db3d36e9017" x1="44.6" x2="70.5" y1="534.5" y2="485.6" xlink:href="#eef9c579-aca5-4835-a30a-87d66e8e357c"/><linearGradient id="fca5dd87-8d4d-4bb5-ae57-5a787343be8c" x1="58.3" x2="116.5" y1="506.2" y2="512.7" xlink:href="#ef755d71-05e9-4a5b-834a-5d98b20514b1"/><linearGradient id="a68d62ea-e321-4479-8509-04872134108f" x1="55.9" x2="90.4" y1="238.3" y2="210.4" xlink:href="#aff6e5da-08ed-4ca4-abd9-9617d4c3697e"/><radialGradient id="a4c737c2-6753-4117-83a6-3c25a4858639" cx="-334.3" cy="556.2" r="1" gradientTransform="matrix(-28.67 0 0 22.28 -9495 -11886.1)" gradientUnits="userSpaceOnUse"><stop offset="0" stop-color="#544438"/><stop offset="1" stop-color="#352920"/></radialGradient><radialGradient id="ff9f04c9-2efe-4cc9-aadf-1030c3ef3b66" cx="-339.1" cy="556.3" r="1" gradientTransform="matrix(-20.02 0 0 16.21 -6606.7 -8514.2)" xlink:href="#a4c737c2-6753-4117-83a6-3c25a4858639"/><radialGradient id="aede5fdd-95c0-486d-bdc7-5a8c2ed17476" cx="-364.4" cy="563.7" r="1" gradientTransform="matrix(-7.56 1.3 1.3 7.56 -3350 -3570.3)" gradientUnits="userSpaceOnUse"><stop offset=".7" stop-color="#4f6081"/><stop offset="1" stop-color="#324365"/></radialGradient><radialGradient id="bff23d2f-8f0a-401c-b95d-f2b977ec0625" cx="-369" cy="564.5" r="1" gradientTransform="scale(-6.9 6.9) rotate(9.8 2918 2304)" xlink:href="#aede5fdd-95c0-486d-bdc7-5a8c2ed17476"/><radialGradient id="e1769ede-cde8-4916-983b-8d55a9d47f15" cx="-437.6" cy="577.3" r="1" gradientTransform="matrix(-2.73 .47 .47 2.73 -1279.8 -1152.5)" gradientUnits="userSpaceOnUse"><stop offset=".8" stop-color="#fff"/><stop offset="1" stop-color="#fff" stop-opacity="0"/></radialGradient><radialGradient id="f99bc2ff-3e8f-4e1c-96c6-d2439f06245f" cx="-423.8" cy="574.7" r="1" gradientTransform="matrix(-3.1 .54 .54 3.1 -1483.4 -1348.2)" xlink:href="#e1769ede-cde8-4916-983b-8d55a9d47f15"/><clipPath id="a08d5b06-d397-4ba9-9890-249e2cea9246"><path fill="none" d="M0 0h312.9v550H0z"/></clipPath><style>.bf428db2-f1f4-413e-99e0-3527373f5035,.ea4a49f0-4a98-467d-a5e6-09bca651ef0e{fill:none}.a007c513-40cf-42a4-96c6-a9aa640835ff,.b4678572-f2a7-4878-b27f-48446b678151,.f24b98ef-b5ad-42a2-aaed-65e67f3b7760{isolation:isolate}.b68b51cf-1a7e-4d00-9ee3-2cbb3c69bc29{fill:#352920}.ae52b022-2dd7-4d23-9e36-1296b94dac60{fill:#262626}.a5874a6e-74f0-409c-9627-2a188836dad8{fill:#303030}.ad24ff3d-853b-456e-9da3-4ddcc3b37336{fill:#161616}.e0c32aaf-af4d-4560-8564-8d8697671cf0{fill:#a8a8a8}.b065b9c1-31f4-46a7-abf4-9af2a5357c4a{fill:#f44040}.a007c513-40cf-42a4-96c6-a9aa640835ff,.acbef1cb-cc43-4146-ad2d-7a8e3e67ffda{fill:#fff}.f24b98ef-b5ad-42a2-aaed-65e67f3b7760{fill:#d88b64}.f74a2ea4-6b91-487f-b820-0cdbbccff687{fill:#162136}.f59e8994-d6e9-4886-a4fe-189546c09fda{fill:#7e6e5b}.f2bfcd0c-e210-47a8-bc3c-a1095aaf853e{fill:#77695c}.bd0984e0-8f32-4327-90f5-99e3c3ad6cf7{fill:#961a17}.b4678572-f2a7-4878-b27f-48446b678151,.f24b98ef-b5ad-42a2-aaed-65e67f3b7760{opacity:.65}.a007c513-40cf-42a4-96c6-a9aa640835ff{opacity:.15}.b4678572-f2a7-4878-b27f-48446b678151{fill:#db9e33}.bf428db2-f1f4-413e-99e0-3527373f5035,.ea4a49f0-4a98-467d-a5e6-09bca651ef0e{stroke:#fff;stroke-miterlimit:10}.ea4a49f0-4a98-467d-a5e6-09bca651ef0e{stroke-width:2.34px}.bf428db2-f1f4-413e-99e0-3527373f5035{stroke-width:1.88px}</style></defs><g clip-path="url(#a08d5b06-d397-4ba9-9890-249e2cea9246)"><path id="abce7f05-b403-4d3d-bcd9-06f45cbd4cf9" fill="#ededf2" d="M120.3 467.5c-2.3 1.5-1.3 3.4-1.3 3.4a3.6 3.6 0 000 3.2c-1.7.7-1.4 1 1 10.5l1.3 5.4c-2.9 2.9-8 .8-13.4 6.1a31.6 31.6 0 00-3.2 19l13.3 33c6.3-1.1 35.9-4.6 38.5-15.7 18.9 4.2 38.2-2.9 56.3-9.7 9.5-5.3 7.9-5.9 8.3-16.1.1-2.6-.9-3.2-3.1-3.2.5-12.5-17.2-17.5-24.1-16.3 0 0 1.6-.7 0-6.4s-8.6-6.4-8.6-6.4-.6-.7-2-.2c.8-1.2 1.7-6.6-.4-6.7.5-2.9-.7-3.8-.7-3.8s7.6-27.9 7.5-28.1c3.4-1.7 15.5-6.6 15.7-12.8-.2-4.6-3.5-25.8-3.5-25.8 13-8 8.8-20.1 5.7-35-5-21-13.4-46.9-15.8-66.2 18.1-14.6 49.1-38.1 62.6-57.8.4-1.4 4.1-2.3 4.5-3.8s1.2-2.5-.3-3.7c2.2-1.7 8.9-6.6 9.9-7.2 13.6 4.3 20.9-15.2 24-24.3 0 0 11.2-6.3 16.3-12.1s5.1-11.7-.5-12.1c1.5-2.9 4.4-12.9-4.4-12 3.3-6.4-.3-13.2-9.8-10-.3-6.3-9.5-11.3-18.7 4.4S264.5 183 264.5 183s-1.7-15-5.3-21.9c2.4-8.4 5.4-27.1 5-38 2.6 1.3 10.5 20.1 11.5 31.1 11.1-78.3-48.7-129.1-123-123.9-8.6-22-38.4-36.5-67.8-27.4-45 15-45.5 44.3-34.4 95.4-10.3 27.5-5.9 69.7 6 99.2a45.6 45.6 0 01-7.4 18.9s6.1-1.8 8.9-4.9c.3 5.7-4.5 15.2-11.6 20.1 8.8.4 24-8.9 24-8.9s19.7 23 40.1 27c-8.4-3.7-10.9-14.8-10.9-14.8s5.3 8.1 19.5 8a26.5 26.5 0 0010.8 9.7s-18.9 4.7-20 6.2-1.9 7.1.4 15.8c-11.4-.3-35.7 59.2-41.4 64.2-6.3 11.1-14.1 17.2-9.3 24.8-3.3 3.6-13.9 8.2-16.1 12.3s-6.5 13.4-10.9 17.8-6.2 7.8-1.8 10.7c-1.2 3.9-1.4 8.7 6.2 8.7 1 4 4.2 7.6 11.2 4.6 11.5 9.5 22.6-18.4 21.1-22.6 0 0 5.4 13.7 13.8 11 16.9-6.9-7-13.1-7.6-18.4-.2-2.1.1-10.7 1-13.4 2.7.8 6.8-.9 7.8-3.1s10.4-10.9 12.7-12.5c.5 3.7-4.2 16.3-4.4 18.7s1.5 3.2 5 6.5c-1.5 5.2-3.8 18.8-5.5 27.9s-3.2 12.1.8 14.9 17.6 6.9 20.4 7.5c1 5.1 4.6 25.2 7 33.3z" data-name="shadow" style="isolation:isolate"/><path fill="url(#a9a2ee5f-dc5b-4815-9ea7-313dcf5a41a6)" d="M64.1 433.9c-2.9-.6-1-10.6-.5-11 1.5-8.9 5.2-22.5 6.2-31.4C90 410 102 413.4 128.6 417.7c3.5-2.4 2.2-9.2 2.5-12.8a55.1 55.1 0 00-.5-8.1 39.1 39.1 0 016.8.6 59 59 0 0028.3-6.5l.3 12c.3 1.4-1.5 6.8 1 7.1s5.6-3.8 7.4-5.7c.5 5 1.9 15.2 2.6 20.2s1.6 6.9-1.3 10.3c-13.3 15.6-44.8 11.7-60 11.5a106.4 106.4 0 01-40.2-7.3c-3.1-1.4-9-2.6-11.4-5.1z"/><path fill="url(#bbe28f6a-32f1-474d-9c33-7645539b3fb0)" d="M92.9 476.6c-2.6-9.8-6.1-23.8-7.5-34 6.4 1.9 21.2 3.9 31.3 3.8s19.8-1 18.4 1.5c-.4 5.3-1.4 16-2 21.3s.4 5.4-2.8 11.3c-5.7 8.7-35.2 7.9-37.4-3.9z"/><path fill="url(#b78effa5-3848-417f-b9c2-215039e4b342)" d="M137.3 479.4l-2.9-.6a7.2 7.2 0 00-2.3-2c1.4-8.4 2.3-21.6 3-30.1 7.7.9 19.8.8 26.7-3.3-.8 3.5-3.1 13.5-3.2 16.9l-2.8 8.5c-1.9 8.2-11 10.8-18.5 10.6z"/><path d="M97 496.3l-4.2-.2.6 2.3c.6-.3 3.3-1.5 3.6-2.1zM124.9 504.1l1.5-.7.6-1v-1.1c-2.5-4.8-9.7-5.5-14.5-6 .4.9 2.3 2.5 3.1 3.2a20.5 20.5 0 012.6 4.3c1.7 1.2 4.7 1.4 6.7 1.3z" class="b68b51cf-1a7e-4d00-9ee3-2cbb3c69bc29"/><path fill="url(#a4c737c2-6753-4117-83a6-3c25a4858639)" d="M133.7 482.9a4.5 4.5 0 011.7 1.3c.3 2.1-.9 5.1-1.5 7l-1.3 6.5c.2 2.4.2 6.1.8 8.4s1.4 4.6 1.3 6.6-2 4-2.7 5.1a67.8 67.8 0 01-12.7 15c-2.8 2.1-7.7 2.9-10.8 4a40.5 40.5 0 01-18.3-1.7c-11.8-4.1-14.5-9.3-14-21.5 1.8-7.4 3.3-10.6 11-12.7 1.6-.2 5.4-.8 7-.8l6.4 1.1c2.8.5 6.2 2.2 8.8 3.3l.8-.2a11.7 11.7 0 002.5.7l.7-.7v-1.6l2.2 1.7c.6 3.4.7 7.4 1.2 10.8l.7.7-.8 6.6.3.7a1.7 1.7 0 001.4 0l.2-.2.7-7c1.9-1.6.3-7 .2-9.3l3.2 1.1 3.5-.2c1.8-.4 4.3-1.3 4.9-3.3-.3-3.8-3.8-7.1-7-8.7s-8.4-2.6-12.5-2.4c.9-3 3.3-3 5.9-3.5 5.2-.9 12.2-1.5 16.1-5.6z"/><path d="M98.3 486.5c-1.9-1.4-4.9-2.9-6.8-4.1l-1.2.3-.5 1.3c.6 2.8 1.3 7 2.5 9.7a14.4 14.4 0 017.4-1.3c-.4-1.6-.4-4.6-1.4-5.9z" class="b68b51cf-1a7e-4d00-9ee3-2cbb3c69bc29"/><path fill="url(#b6c0b60e-4f72-4abe-b152-efac44396926)" d="M100 486.2l-1.7.5.7 1.8a12.8 12.8 0 00.7 3.9h2.3a3.4 3.4 0 012.2-.4l.6.4h2.4l.5.7 4.2-.3a9.6 9.6 0 012-2.5c-.5-.8-2.2-1.4-3.1-1.7l-6-2.1z"/><path fill="url(#ff9f04c9-2efe-4cc9-aadf-1030c3ef3b66)" d="M188.6 516.4c1.1-2.3 1.8-5.2 1-7.7l-1-3.9a18.9 18.9 0 00-4.4-5.3c-4.7-3.4-12-4.7-17.7-4a27.2 27.2 0 00-12.5 2.8 25.2 25.2 0 010 11.9l-1.7.4-3 5.8c4.7 2 13.3 3.6 18.2 5.1 7 1.2 15.9.2 21.1-5.1z"/><path fill="url(#bf4f6d6c-bf62-4448-853e-82f984538b77)" d="M144.8 515.7l2.8.5v-.7c.6-.6 2.9-4.9 3.4-5.7s.7-4.6.7-5v-4l-1.1-3.6-2 1.9-2.4 1.1h-2.5l-2.1-1.1c-2.2-3.6-.1-7.2 1.5-10.5 1.5-1.5 4.2-3.6 6.4-3.9.2-9-7.6 1-15.4-3.9l-.3 1.8a3.3 3.3 0 001.4 1.2c.9 1.6-.1 4.1-.9 5.6l-.7 4.1c-2.3 4.9.6 14.8 1.3 18.8 1.5.2 2.1.3 2.3 1.9a5 5 0 002.7.3z"/><path fill="url(#ef87b0ab-4723-4318-a4f0-dcd566167b10)" d="M155.3 482.5c.2-1.7.8-4.6.3-6.2l-1.1-.5c-.7 0-2.5 1.4-3 1.8l-4.2 2.2v.7h1c.9 1 .9 2.8 1.3 4l2.1-.4a8 8 0 012.1-1.5l.9.4z"/><path d="M192.1 526.5c1.2-.4 1.2-9.1 1.2-9 0-1.6-.2-4.2-1.2-5.4l-2.1-.5c.3 8.6-13.9 10.8-19.7 10.5a93 93 0 01-11.5-3.1c-2.7-.6-7-1.3-9.5-2.4-.3.6-2-.2-2-.5-2.9-.5-7-1.6-9.9-1.9a8.6 8.6 0 00-1-1.6l-1.6-.4c-.2 1.8-2.6 5.4-3.6 6.9-4.4 5.3-6.1 9.5-13.3 14.5-12.3 6.8-36.2 4.2-41.1-10.2-4.1.8-3.5 9.8-3.2 11.6-.2 15.5 37.6 15.9 45 12.8V546l2.9.5 2.6-1.3a13.1 13.1 0 00.1-2.8l2.7.3c2.1-1.9 3.2-7.3 4.7-9.6a4.2 4.2 0 002.5.2l2.8-4 .2-6.1h1.1l6.2 4.4a35 35 0 015.6 2.4l3.9-1.6 1.3.2a23.5 23.5 0 00-.1 2.7c0 .3 5.9 1.1 6.1 1.2l4.4-2.2h.3l.3 2.7c5.5 2 22-1.4 25.9-6.5z" class="ae52b022-2dd7-4d23-9e36-1296b94dac60"/><path d="M192.1 512.1c-2 11.8-16.5 13.1-26.6 11.4s-18.1-6-28.3-7.3v-1.9c9.1.8 20.4 4.7 29.3 6.9l5.1 1.1 4.5-.2c5.6-1.9 13.3-2.9 13.9-10.3zM134.8 512.2l1.4.3c-1.8 6.3-12.5 23.3-19.1 25.3-13 4.3-39.3 2.7-41.7-13.5l1.4-.9c3.7 13.4 27 16.5 39 11.3a29.1 29.1 0 0011.6-10.7c2.1-2.9 7.3-8 7.4-11.8z" class="a5874a6e-74f0-409c-9627-2a188836dad8"/><path d="M166 495.5l-3.3.2c2.2-3.1-.9-10.3-4.5-10.8-.1 1.6 1.3 3 2.2 4.2a10.2 10.2 0 00.3 3 20.9 20.9 0 010 2.5l.8 1.4a32.6 32.6 0 00-7.5 2.3c.4 1.5 1.5 10.2-.6 12.2a4 4 0 01-2.4-.7 16.7 16.7 0 01.6-3.9 19.7 19.7 0 00-1.1-8.7c-.7 2.7-9.4 4.8-9.8-.4-.9-3.4 2.6-9.2 4.7-10.7l4-1.5v2.9c-1.8 1.1-4.2 3-5 5a14 14 0 01-.9 3.1 5.1 5.1 0 00.6 2.5 12.2 12.2 0 003.6-1.8c.3-.6 2-2.5 1.8-3.2a26.3 26.3 0 01-.4-4.9l-.7-.6v-3l3.4-.6 1.1-1h2l.5-.5a6.6 6.6 0 012.5.4h1.8l2.3 1.1c3.4 3.1 5.9 6.8 4 11.5zM110.8 495.2v-2c7.3.1 17.3 1.8 20.1 9.6l-.4 3.2a11.3 11.3 0 01-10.7 1c-.2 2.2.8 6.7-.2 8.8l-2.2.4-.8-.9a81.4 81.4 0 00-.8-11l-2.3-1.6v1.6l-.9.7c-1.4.1-5-1.4-6.2-2a60.1 60.1 0 00-15.2-2.9c1.3-1.6 4.6-2.3 5.9-3.8a17 17 0 00-8.9 1 3.2 3.2 0 001.5 2.8l-3.7 1.2-1.1-1.7c.3-2.1 2.4-3.8 4.3-4.6a27.3 27.3 0 015.5-2.5 25.8 25.8 0 016.8 0 6.2 6.2 0 012.7-.5l.4.4a4.9 4.9 0 012.4 0l.9.8a12.6 12.6 0 004.3-.2l-.2 2.3h-3c.9.2 2.9.5 3.7.8s4.5 4.2 5.3 6.8l2.2.6s2.3 1.3 3.9.8c7.1-1.3-.4-7.2-3.2-7.5-4.3-1.1-6.7-1.1-10.1-1.6z" class="ae52b022-2dd7-4d23-9e36-1296b94dac60"/><path d="M149.4 487.2a15 15 0 00.4 5.6c.1 1.6-3.7 5.5-5.8 5.1l-.7-.6a15.6 15.6 0 011.7-6.3c.7-1.4 3.1-3 4.4-3.8z" class="b68b51cf-1a7e-4d00-9ee3-2cbb3c69bc29"/><path d="M161.8 529.1a8.2 8.2 0 00-.3 3.4 24.1 24.1 0 003.8-2.1zM153.8 528.3c0 .3-3.6 1.5-3.6 1.5-1.8-4.9 1-2 3.6-1.5zM133.6 533.3v-3.7a10.3 10.3 0 00-2 3.5c.2.4 1.6.2 2 .2zM126.9 542.7l-.2-3.6-2.5 1.8.4 1.8zM121.7 546.8v-3.4l-3.1 1.2v1.4z" class="ad24ff3d-853b-456e-9da3-4ddcc3b37336"/><path d="M118.7 523l.7-6.6-1.6-.2c-.1.6-1.2 6.4-.8 6.8l.6.6zM149 516.5l3.3-5.9-1.5-.9-3.3 5.9a1.6 1.6 0 001.5.9z" class="e0c32aaf-af4d-4560-8564-8d8697671cf0"/><path fill="url(#ec137889-6309-4eab-abf2-040e2a541e0e)" d="M91.1 482.5a6.9 6.9 0 010-3.2c0-.7.1-3.4 1.8-2.7 1.8 8.2 15.5 9.9 21 9.6s16.7-1.2 18.2-9.4c2.3.9 2.6 3.3 1.3 4.3l.4.6a19.3 19.3 0 00-.1 2.4c-3.7 4.6-14.8 4.8-19.5 6.3-1.2-1.4-4.5-2.1-6.1-2.7s-6.6-2.1-9.3-1.1c-2.4-1.2-5.5-2.7-7.7-4.1z"/><path fill="url(#a3bc909b-037f-476d-ae1b-d09010ae6478)" d="M135.7 481.5l-1.4-.6c-.2-.7.2-1.5-.1-2.3 5.5 2.9 16.7-.8 20-5.9l1.1.8a3.6 3.6 0 01-.3 2.3 4.7 4.7 0 00-3.5 1.8l-3.8 2-.2.6a20.2 20.2 0 01-5.4 1.8c-1.7 0-4.7.1-6.4-.5z"/><path fill="url(#ef755d71-05e9-4a5b-834a-5d98b20514b1)" d="M122.7 344.6c2.4 15.9 5.6 32.7 7.7 48.7 5.4 1.3 11.8.4 16.6.1a61.6 61.6 0 0018.5-4.8c-.2-13.4-4.5-27.6-6.4-40.7h-.2c-2.9-6.1-4-19.2-4.6-25.8-1.1-10.2-.5-22.1-.1-32.2-9.6 17-30.1 9.9-38.2-4.5 1.2 5.9 4.8 13.7 4.9 20.5.5 10 .6 16.9 1.1 25.9a79.7 79.7 0 00.7 12.8z"/><path fill="url(#bd37ed64-ad6a-49e3-af09-4d28fbbd3603)" d="M122.8 344.9c.1 10.1 14.7 67.8 5.3 72.7-32-5.4-39.5-9-63.4-30.6-.3-1.3.6-3.7 1-4.8s2.8-12.7 3.4-15.2a62.3 62.3 0 01-8.6 7.6c-2.3 3.2-5.5 7.8-9.9 7.8s-10.5-3.9-14.1-6.8c-1.1-1-4.6-3.4-5-5a7.7 7.7 0 01-.5-6.1c1.9-6.1 9.5-16.2 12.5-21.4 4.3-7.7 10.3-18.9 14.5-26.8l11.7-22.2c5.5-10.4 22.5-17.5 33.2-11.5v-.2c1.2-.8 13.1 4 12.9 4.8 2.7 4.4 4.1 13.2 5 18.1.8 12.7.7 26.9 2 39.6zm50.7 1.6c-3.3-12.6-7.7-27-9.4-39.9-1.4-8.2.6-19.7-6.2-25.9h-3.4l-.7 3.5.7.6c-.9 15.7-1.2 33 .7 48.8 1 4.1 2.4 12.1 4.3 15.8 1.1 5.6.4 6 2.3 13.1 4.1 17.8 4.1 30.5 4.2 47.3 3.3.1 6.3-3.4 8.4-5.5 0 0 5.1-5.7 6.5-6.4s1.8-3.3 1.8-3.3c.7-14.2-6.3-35-9.2-48.1z"/><path d="M104.6 405.3c-1.3 0 .3-5 0-5l1.2-11.8c.3-1 5.6.5 5.4.5 2.8.6 9.5.6 11.2 3.4-.8 5.7-.5 10.8-2 16.2-.7.7-3.5-.5-4.3-.6-3.5-.9-8-2.1-11.5-2.7z" class="b065b9c1-31f4-46a7-abf4-9af2a5357c4a"/><path fill="url(#b35ac195-9128-469f-9575-34f557aa3db3)" d="M131.1 396.9l-.5-3.4c9.9 1.5 25.8-.8 34.9-4.9a6.5 6.5 0 010 2.4c-8 5.4-24.8 7-34.4 5.9z"/><path fill="url(#a0cb4221-fbf7-490a-9115-2979237a4fae)" d="M115.4 285.6c-.2-1.8-1.1-4-1.2-5.8 1 0 3.4 3.6 4 4.2s7 6.6 9.3 8.3c7.6 6.8 24.8 3.1 26.5-8l.7 1c.7 5.2-3.2 9.3-7.5 11.8-12.6 7.5-24.2-2.1-31.8-11.5z"/><path fill="url(#e6fa19d2-04fa-4c7b-bf8a-b9cb04e6258a)" d="M3.5 412.8c-7.3-3.7 1.8-11.3 3.9-13.7s5-8.5 6.4-11.5 4.4-6.7 7.4-8.2 8.6-5 10.9-7.9c2.1 3.9 13.2 10.2 17.4 10.7-1.3 1.9-2.1 9.3-2.2 11.8s9.7 9.7 11 10.7c4.7 2.7-.5 11.3-6.3 9.8-7.8-2.4-7.6-4.8-10.4-10l-.5.3c-1.5 8.9-8.5 29.1-21.2 21.4-3.3 3.7-10.6-.4-10.9-4.7-4.9.6-8.5-4.2-5.5-8.7z"/><path fill="url(#bf244995-2206-47fe-ab52-488495df45b7)" d="M214.2 221.2l.6-1.5 1.5-1.4c1.5-1.5 4.7-4.4 6.3-5.7-2-4.8-.8-11.6 1.3-16.1-.6-.5-1.4-2.9-1.7-3.6 3.3-5.4 6.8-16.8 9.3-22.8a81.1 81.1 0 015.1 20.8c4.6-11.2 8-23 16.2-33 3.1-4.3 14.4-4.2 13.3 3.2a8.9 8.9 0 002.6-.9l3-.2c4.1.4 8.9 7.4 4.3 11.1a11.2 11.2 0 014.1.4c2.7 2.2 2.6 9.2.3 11.6 5.4-.1 4.9 6.4 3 8.9a59 59 0 01-18.3 14.9c-3.6 8.1-10.5 29.3-23.5 24.8l-5.9 3.1c-.9.6-5.3 4.6-6.5 4.3-6.7-.3-15.4-11.1-15-17.9z"/><path fill="url(#b50a7d9f-3176-4f86-89f0-7bd1a1d3a822)" d="M56.5 229.1c4.6 5.8 17 8.2 23.5 6.8 4.1 11.2 20.9 24.8 30.6 31.3.5 12.8 20.3 35.1 34.5 27.1 6.8-3.3 9.5-7.6 9.4-13.6 31-1.1 62.6-14 48-50.6a886 886 0 0022.2-42.1 137.6 137.6 0 0011.9-52.4h-.7a80.7 80.7 0 01-21.3 39.8c1.9 1.2 3.5 1 5.4 3.7s1.3 4.2-1 5.5-1.7-.4-3-2.4-4.8-3.2-4.8-3.2l-8.1 5.9-8.7 4.3a26.6 26.6 0 01-11.7 3.9v-.8c11.1-6.2 28.7-17.2 28.9-31.8-5.4 17.8-27.5 31.2-44.9 33.7.5-2 3.3-10 4-12.1l2-10.1a80.7 80.7 0 00-2.3-30.9c-2-5.6-5.7-18.3-11.4-21.3l1.6 6.8-.3 7.2c-1.2 7.2-4.3 15.3-3.7 22.7-3.4-4.3-4.3-11.6-5.6-16.8-.7.9-.8 3.4-.8 4.4a137.3 137.3 0 00.8 17l-.6 1.6a78 78 0 01-14-26.2 72.9 72.9 0 01-1.6-24.2c-3 3.2-4.5 9-5.4 13.2a77.8 77.8 0 00-.6 11.8l1.7 8c-2.8-.6-8.2-6.1-10.4-7.7a88.8 88.8 0 01-16.6-21.3c7.4 30.9 3.7 49.8-7.2 78.7-2.8 9-7.6 19.7-4.9 29.2-7.4-5.6-11.9-26.5-13.2-35.5l-.7.2a77.7 77.7 0 005 26.9h-.9c-2.7-2.3-5.5-8.4-7.3-11.5-2.7-4.9-4.5-12.3-6.2-17.6-20.4-1.1-24.9 30.3-11.6 42.5z"/><path d="M132.6 228c-6.1-6.4-7-21.1-3.2-29.3s17.4-12.9 21.8-1.7c7.7 14.2-.4 42.8-18.6 31zM178 225.9s.2-6.8 1.3-10.3c1-6.9 12.5-19.5 19.4-12.4 6.8 9.6 3.4 28.5-8.7 33-4.5 1.3-11.4.4-12-10.3zM157.9 252.5c.6 2 5.5 2.5 6.7 1.2 1.5 1.5 4.9 1.2 5.6-1.2a10.8 10.8 0 01-2.9-.9c-2.8-.2-6.8-.2-9.4.9z" class="acbef1cb-cc43-4146-ad2d-7a8e3e67ffda"/><path fill="url(#e98689f9-0e92-4c78-ba82-84ea150464b6)" d="M158.2 280.9c3.7 4.1 4.8 10.6 5.3 15.9a38.2 38.2 0 00.5 6.8c2.4-.7 8-5.8 10-7.5 9.1-7.5 20-16.6 29-24.3 4.8-5.1 16.5-15.3 20.9-20.9a51.3 51.3 0 014.1-5.9c.9-.9 2.7-2 3.3-3.2a20.9 20.9 0 00-.1-2.5l-.9-.5c-7.4 1.3-18.2-12.5-15.6-19.4h-1.2c-2.6 1.5-6 4.6-8.6 6.3l-2.6 4.5c6.4 15.9 5.7 31-10 40.8-4 3-10.4 5.2-15.2 6.4s-13.4 3.4-18.9 3z"/><path fill="url(#aff6e5da-08ed-4ca4-abd9-9617d4c3697e)" d="M85.5 281.6l-3.2 1.3c-1.1-4.4-1-10.1-.9-14.6s20.2-6.3 21.1-6.9c2.2 1.5 6.3 4 7.7 6.3 1.7 5.2 4.1 11.2 4.5 16.7l1.3 1.6v1.4c-7.9-5.2-21.5-8.9-30.6-5.8z"/><path fill="url(#ff1c0149-4e18-4934-9207-3eb8cbfc6819)" d="M120.3 179.2l-.8-.5-.3-.9.6-1.6c3.8-3.2 10-5.7 14.7-7 9.4-2.9 18.1 4.6 8.2 6.2a43.5 43.5 0 00-18.4 3 17.7 17.7 0 01-4 .8z"/><path fill="url(#a219197e-5340-4b7f-992b-865465a0edab)" d="M211.2 179c2.4.8 4.9 3.4 6.5 5.3l1.5.3 1-.6a7.2 7.2 0 00-.4-5.2c-.7-1.1-3.4-2.5-4.6-3.1z"/><path fill="url(#a2f50241-db68-4469-bd5e-fd36cb3d2c6c)" d="M216 174.3a68 68 0 01-33.5 19l.6-1.2a57.4 57.4 0 0027.8-26.1l-.3-1.6c-2.1 2.5-4.6 7.1-6.8 9.5a83 83 0 01-17.2 14 87.5 87.5 0 01-20.1 6.5 78.6 78.6 0 003.6-53.4c-2.1-6.9-5.1-17-11.2-21.4 2 5.8 1.3 13.2.4 19.2s-3 12.5-2.7 17.5c-3.6-4.5-4.3-11.7-5.8-17.1-1 3.3-.5 9.4-.6 12.8-.1.5 1.2 9.7.5 10-4.2-2.3-7.6-10.2-10-14.1a66.1 66.1 0 01-5.9-35.6l-.6.3a47.3 47.3 0 00-5.3 26.2 40.5 40.5 0 011.5 6h-1.2c-10.4-7-19-17.3-25.3-27.9.6 7.6 3.4 16.8 3.4 24.5s0 15-1.3 21.2c-1.9 9.5-5.5 20.4-8.6 29.4s-8.6 21.7-6 32.2c-5-3.9-8.3-13.9-9.7-19.6a74 74 0 01-3.2-15.4l-.7-.6c-1 2.7.3 8.4.5 11.2.7 5.2 2.9 11.5 4.3 16.6-5.4-4.6-8.6-13.1-11.3-19.5-.6-1.8-3.2-8.3-3.1-10.1-30-.4-24.1 56 11.6 49.1a61.1 61.1 0 0011.4 15.3l-.8.4a35.6 35.6 0 01-18.6-7.2v1.3A34 34 0 0083.3 258c-7.3-.6-15.2-6-21.4-9.8a95 95 0 01-27.4-29.4 168.3 168.3 0 01-16.7-91.2c6-43.7 30.3-75.9 74.8-84.7 48.2-10.7 110.1-3.4 138.9 41.5a114.8 114.8 0 0117.4 49.5 110.6 110.6 0 01.7 16.3c-.1 2.3-.4 10.9-1.6 12.9-2.8-10.8-5.7-23.3-11.2-33.1a81.9 81.9 0 01-20.8 44.3z"/><path fill="url(#eef9c579-aca5-4835-a30a-87d66e8e357c)" d="M41.9 230.9l.5-.6c-1.9-2.4-5.6-7.9-7.3-10.5s-4.7-11.5-6.2-12.4-1 3.9-1.2 4.5a40.3 40.3 0 01-5.4 12.4c2.5-.7 5.5-3 7.7-4.4-1.2 7.5-6 15-11.5 20.1l.4.4a66.5 66.5 0 0023-9.5z"/><path fill="url(#ffc1cb4f-9d18-45be-8777-4db3d36e9017)" d="M25 99.3c-.5 1.6-2.1 5.9-2.5 7.4-6.1-20.1-9.4-49.9-.3-69.8 13.4-24.6 45-32.5 71.1-26.4a53.8 53.8 0 0131.5 28.2l-6.3.4c-13.9-13.4-51.1-4.3-56.2 15A86.9 86.9 0 0025 99.3z"/><path fill="url(#fca5dd87-8d4d-4bb5-ae57-5a787343be8c)" d="M115.6 39.3l3.2-.2C105.1 26.2 67 34.5 62.7 53.9a134 134 0 0152.9-14.6z"/><path fill="url(#a68d62ea-e321-4479-8509-04872134108f)" d="M75.9 301.9l-3.1-1.6c3.4-16.6 27-3.7 15.2 8.8l-2.9-2.5c6.8-6.6-5.8-16.1-9.2-4.7zm-.5 8.1l-3.3 4.7-6.6-2.6-1.6 3.1 15.5 8.9 2.6-3.5-6.2-4a29.1 29.1 0 013.2-4.7 65.8 65.8 0 005.8 3.5l1.9-3.6c1.2.3-16.8-9.6-16.1-8.9l-1.5 3.4a43.2 43.2 0 016.3 3.7zm.3 20.5c2.4-3.6 3-3.7 2.3-4.1s-9.7-6.1-15-8.6l-2 4s13.1 7.3 14.7 8.7zm-17.1-3.6l5 3.6c-2.1 4.2-5.9 2.2-8.1.9-.6.9-1.8 3.5-1.8 3.5s4.5 3.3 7.7 1.6c-1.7 4.4 3.9 5.9 6.4 5s6-7.3 6.7-9.3-11.3-7.7-14-8.7c0 0-2.2 3-1.9 3.4zm8.3 4.5l3.2 2c.7 3.2-7.4 8-5 0 .8-2.1 1.4-2.2 1.8-2zm-19.4 18c2.1 8.6 17 8.9 17.5-.8 1.7-12.4-22.1-13.7-17.5.8zm3.9-5.2c2.3-4.4 11-1.3 9.9 3.7-1.2 8.6-13.8 2.8-9.9-3.7z"/><path d="M156.4 261.2c1.1-1.2 6.5-1.6 7.3-.5 1-1.8 5.8-.3 6.4.7-3.7 3.4-9.9 2.7-13.7-.2z" class="b065b9c1-31f4-46a7-abf4-9af2a5357c4a"/><path fill="#d88b64" d="M219.1 177.9a58.5 58.5 0 0012.1-17c.2 3.7-1.9 15.6-3.4 19.3 8.2-26.2 8.2-24.8 8.4-44.9l-.9.4a71 71 0 01-21 39.8 26.9 26.9 0 014.8 2.4z"/><path d="M152.7 288.2a28.9 28.9 0 01-.5 4.8c2-1 3-6.3 2.3-8.2l-.5.2a21.5 21.5 0 01-1.3 3.2zM115.7 281.2l2.5 7.3c-2.5-3.1-2.1-1.9-3-4.3s-1.2-3-1-4.4h.8zM110.2 302c.3 2 .4 5.5.4 5.5a19.6 19.6 0 004.3-3.7 21.7 21.7 0 01-3.6 8.3c.6.6 0 12.3-.6 10.2s-1.8-4.6-3.4-.7-9.9 16.5-12.1 19.7c-6.4 11.8-11.1 26.4-27.4 31.8l1.3-6.1a211 211 0 0023.4-28.2c7.1-10 17.4-23.7 17.7-36.8z" class="f74a2ea4-6b91-487f-b820-0cdbbccff687"/><path d="M94.8 317.2c5.2.8 10.8-3.8 10.6-9.2-1.4 5.1-5.8 7.9-10.6 9.2zM91.2 329.4a123.3 123.3 0 01-6.4 13.9 88.3 88.3 0 01-12.3 14.5c5.9-6.8 15.1-21.5 18.7-28.4zM162.3 389.8a17.9 17.9 0 00.2 2.9l3.2-1.8-.2-2.3zM132.9 393.8a13.5 13.5 0 01.4 3.3l-2.2-.2-.5-3.4zM109.2 368.9a17.5 17.5 0 00-9.8 10.1c-3.1 7.9-5.6 15.5-4.6 14.5 3.9-4.8 7.8-21.8 14.4-24.6zM56.9 372.1c2 .3 15.1-4.6 16.5-9.5 1.3-1.4-3.5 2.7-8.1 5.3a90.2 90.2 0 01-8.4 4.2zM154.5 284a15 15 0 003.1-3.3h-3.1l-.5 2.3.5 1.2zM163.6 320.8c-.5-4.3-.9-13.1 0-8.7s3 33.9 1 21.5-1-12.8-1-12.8zM169.5 369c6.9 2.7 8.3 21.2 5.6 25 .9-4.2-1.9-21.6-5.6-25zM85.5 358.9s4 8.8 2.6 3.8a46.3 46.3 0 01-1.4-6.4l-1.2 1.3zM79.8 364c1 3.9 6.1 15 6.1 15s-4.7-16.5-4.6-16.7z" class="f74a2ea4-6b91-487f-b820-0cdbbccff687"/><path d="M105.5 263.8a54 54 0 00-13.4 3.1c15.4-1.4 21.7 11.6 6.6 6.8 3 4.2 1.7 7.2-9.5 2.1a116 116 0 0011.3 6.1 32.3 32.3 0 019 2 23.1 23.1 0 016.7 3.6c-1-2.4-2.6-6.5-2.1-9.2a63.9 63.9 0 01-3.9-11.4zM165.4 284.2c1.7 2.2 6 4.2 9.8-1.9-5.9 4.2-5 1.9-9.8 1.9zM163.6 297.9c4.9-1.7 16.8-15.8 15.2-12.6a63.2 63.2 0 01-4.4 6.9s.8 1.1 5-4.5 4.9-6.3 3.3-3.3-3.3 5-1.8 4c14.7-12 32.9-26.1 45.6-42.4-5.6 9.5-14.3 16.5-21.6 23.9-12.5 11-28 23.9-41.1 34.2 0-1.1-.3-5-.2-6.2z" class="f59e8994-d6e9-4886-a4fe-189546c09fda"/><path d="M203.8 266.3c-12 10.5 2.6-4.2 6.1-8.6s8.3-12.2 7.7-10.3a91.8 91.8 0 01-5.9 10.5 89.3 89.3 0 01-7.9 8.4zM227.4 238.8c1.8.3 4.6 4.7-2.2 3.6 1.5.9 2.2 1.1.8 2.5s-4.1 7.6-13.3 16.1c-2.2 3-2.7 3.9-2.7 3.9 2.8-2.7 11.8-10.9 13.9-14a35.4 35.4 0 002.6-4.7c1.4-.9 3.1-2.7 4.4-3.7a26.8 26.8 0 00.7-2.7l-1-1a8.6 8.6 0 01-3.2 0z" class="f59e8994-d6e9-4886-a4fe-189546c09fda"/><path d="M69.6 393.5c3 3.4 11.3 13.5 24.6 19s33.8 12.9 37.9 8.7 3.3-4.8 1.2-24.1l-2.2-.2c-.2 5.5 1.9 16.3-1.7 20.7-7.1-.8-19.5-3.7-26.5-5.1-6.1.2-30.2-17.2-32.7-20.1z" class="f2bfcd0c-e210-47a8-bc3c-a1095aaf853e"/><path d="M133.1 398.5c9.7.5 22.9-.3 32.6-6 .3-1.1 0-1.3 0-1.3-7.1 4.8-26.9 6.8-34.6 5.7z" class="f2bfcd0c-e210-47a8-bc3c-a1095aaf853e"/><path d="M162.2 392.9c.3 1.7 0 11.4-.4 16.1-3.5 15.6 11.6 2.9 13.3 1.5l-.6-5.5a21.1 21.1 0 00-5 4.4l-2.4.7-1.2-.7c-.5-5.3.4-12.9-.4-18.1zM149.4 404.7s.6-7.1 1.9-7.3-1.6-.5-1.6-.5a66.9 66.9 0 00-.3 7.8z" class="f2bfcd0c-e210-47a8-bc3c-a1095aaf853e"/><path d="M146.8 401c-.1-1.4 2.7-5.1 2.5-1.1s0 4.1 0 4.1l.4-7.4-2.6.3zM147.9 410.7c-1 .3-1.5.7 1 .3.8-.1.8-2.9.7-5.7s-.5 3.9-.4 3.9a2.7 2.7 0 01-1.3 1.5zM168.8 419.4c1.2 2-5.8 17.4-9 17.7 1-.2 9.4-16.5 9-17.7zM172.9 412.3c.9-.7.5 0 1 3.2.1 5.6 3.7 15.1 1 20.1-1.8 2.5 2.1-1.3 2.4-3.3a22.8 22.8 0 00.3-3l-3.1-24.2-2 5.8zM170.7 415a17.2 17.2 0 01.7 4.7c.1 3.1-1.9 12.5-1.1 4.7s.4-9.4.4-9.4zM72.8 402.1c0 .5 8.6 21 8.3 20.6-3.7-4-8.2-15.2-8.3-20.6zM77.9 430c-.6-.5-.3-.8 3.1 1.8s6.3 4.2 2.8 2.6-4.3-2.9-5.9-4.4zM124.5 433.7c4-.2 15.2-8.5 14.4-15.2a28 28 0 01-14.4 15.2z" class="f2bfcd0c-e210-47a8-bc3c-a1095aaf853e"/><path d="M152.2 293c-1.4 8.9-.7 38.4 2.3 49.6 2.2 7.9 9.1 42.1 7.8 47.2l3.2-1.2c-1.1-17.6-4.8-29.8-9-48.6-3.4-12.4-3.1-39.6-2.2-49.7a27.8 27.8 0 00-2.1 2.7zM118 287.9c5.8 10.8 4.8 35.8 5.7 50.4 1.6 17 6.6 41.5 9.2 55.5-2.2.1-2-.2-2-.2a1063 1063 0 01-8.4-50.5c-1.7-17.7.9-38.7-6.2-55.7l.4-.7z" class="bd0984e0-8f32-4327-90f5-99e3c3ad6cf7"/><g opacity=".7"><path d="M153.4 268.7c2.4 4.5 12.3 6 15 .6-3.4 2.7-11.9 2.1-15-.6zM220.9 213.9c.3 2.6 3.5 7.9 8.3 8.7-5.7-4.1-5.5-6.3-7-10.3zM234.1 224.7c6 1.5 12-7.7 9.6-12-.7 3.8-1.1 4.3-2.7 6.7s-3.9 4.8-6.9 5.3z" class="f24b98ef-b5ad-42a2-aaed-65e67f3b7760"/><path d="M262.7 212.4c-2.6 5.7-5.8 14.8-12.5 18.7a24.6 24.6 0 01-7.3.8c-1.1-.4-3.1.4-4.2.9s-6.3 4.8-9 6.3c-6.5.8-16.9-12.6-15.6-18.7l.4-.5c-1.6 5.1 10.7 22.6 17.7 15.5 3.4-2.3 7.9-5.2 9.2-5.3 12.2 3.7 19.1-15.7 22.4-24 4.8-3.1 19.2-9.9 20.6-18.6 2.6 6.3-19 18.8-19.8 19.8z" class="f24b98ef-b5ad-42a2-aaed-65e67f3b7760"/><path d="M264.6 197.2a57.7 57.7 0 0017.9-13.8l-2.3-.2a94.6 94.6 0 01-15.6 14zM261 189.4c.6-.4 17.6-18.2 17.5-18.2H276c-4.1 5.2-11.4 12.6-15 18.2zM252.8 182.5c1.1-1.8 21.2-17.1 14.5-21.7l-1.2.3c1.4 3.6-4.2 10.6-5.7 12.2zM246.9 183.9a96.7 96.7 0 019.4 9.2c4.8 5.4 11.6 14 7 6.2-7.6-10.9-11.7-12.8-16.4-15.4zM111.5 271.8c3.8 8.4 33.2 15.8 39.4 13.5-7.5 17.7-25.9 5.6-32.7-1.3 0 0 12.3 14.5 23.3 11.7 13.6-4.5 12.1-10.1 13-15-9.6.3-22.4-3-31.3-6.3a319 319 0 00-13-6.7zM85.9 445.3c3.2 4.2 44.2 6.3 47.3 5 0 7.5-.9 20.8-3.4 28.5-2.9 10.2-32.2 5.4-34.8 2.3 5.3 6.1 35 8.4 37.1-4.3l1.3.8a3.1 3.1 0 001.6 1.4c4.4 1.7 16.7-1.5 19.2-6.3-1.3 2.2-16.2 9.1-19.5 3.6-1-1.5-.8-1.7-.5-5.4l1.9-20.1c-.3 1.3 23.1-.4 23.3-2.1.4-.2-2.1 8.4-2.4 7.7.6 2.4-2 9-2.8 12.6s-.9 4.4-3.4 6.3c6.2-.9 8.9-25.6 11-31.4-3 .9-17 3-20.4 3.5a122.6 122.6 0 00-13.6-.9c-13.5.5-29.9.1-42.9-3.9zM171.8 176.9a101.8 101.8 0 01-5.4 17 59.7 59.7 0 0038.5-21.6c1.1-1.8 4.7-7.8 6.2-9.1-.8 7.4-10.4 18-16.9 21.9-3.7 2.3-9.2 7.1-13.5 8.1l4.7-.4a33.6 33.6 0 006.7-2.4c5.8-2.8 14.4-6.9 19-11.5 3.1 1.2 4.8 4.5 7.9 5.7-1.5 1.1-3.5.2-5.1-1.5-7.2 12.4-33.4 18.6-45.5 17.8a26 26 0 006.7-2.7c-5.1 1.9-15.2.9-15.2.9 9.6-13.6 10.4-50.4 4.2-62.5 2.6 5.1-5.3 25.8-2.5 31.6-3.4-1.4-7.4-6.8-8.3-10.6a44.9 44.9 0 003.4 14c-12.5-6.7-22.1-25.4-23.5-38.4 0 0-.5 15.6 2.4 22.8a67.1 67.1 0 01-23.6-15.3c8.9 22.7-26 66.6-16.9 87.3-4.5-.1-8.5-5.1-8.5-5.1a23.8 23.8 0 002.7 3.8c-7.4-2-22.8-31.4-24.1-40a20.3 20.3 0 012.9.1c3 9.7 6.9 22.1 14.5 30.4-2.3-8.8-6.5-20-4.8-29a5 5 0 001 3.1c.1 2.4 1.8 9.9 2.3 12.4a58.2 58.2 0 007 17.1c.4.4 2.1 3.3 2.9 3.2-2.2-13.2 7.3-32.5 11-45.2 1.4-5.2 4.1-15.6 5.2-20.8 1.4-12.3-1.4-28.4-3.4-40.5 1.2 2.6 10.6 14.4 12.6 16.9 3.8 3.4 9.6 9.2 14 11.8-2.7-9.5-2.5-25.7 4.3-34.1-3.2 14.2 5.6 40.8 15.9 50.8-.2-3.9-1.1-18.1-.3-24.3a72.2 72.2 0 006 18.4c.2-12.1 7.4-26.7 1.6-38.6 14.3 13.3 17.8 41.4 13.9 58.5zM149.5 239.1c3.9-13.6 31.8-15.4 28.2 3.9-1-14.7-18.3-11.7-24.2-8.2zM59 206.6s7 .1 8.1 2.2a9.6 9.6 0 00-.5 9.5c.8 1.3 1.2-5.2 5.3-4.9 2.2 2.4 4.2 9.1 4.2 9.1s-3.6 5.5.2 8c-3.8-6.8 4.5-5.2 3.1-9.4-1.8-6-7.6-12.6-12.9-15.5l-3.2-.4a14.4 14.4 0 00-4.3 1.4z" class="f24b98ef-b5ad-42a2-aaed-65e67f3b7760"/><path d="M119.5 178.7c1.7 4.3 11.5-2 16.4-.9s13.6.6 11.3-5.1c-2 5.7-14.4.2-25.5 6.3z" class="f24b98ef-b5ad-42a2-aaed-65e67f3b7760"/><path d="M127.7 217.3c-7.8-41.6 35.9-36.8 25.3 1.7 8.2-36.6-30.5-39.4-25.3-1.7zM178.2 222.2c.6-30.3 35.5-31.2 21.6 4.4 10.3-36.2-20-29.5-21.6-4.4zM31 372.7c4.9 13.2 17.6 5.8 16.5 18.7.9-7 .5-5.3 2-9.2 0 0-.1.8-6.1-2.2-8.5-4.7-7.5-4.9-10.7-7.9zM39.6 399.3c1.3 8.1-7 35.1-21.5 23.6 3.7 8.6 14.4 4.9 18.3-3.9s3.8-11.3 5-15.1l-1.8-4.6z" class="f24b98ef-b5ad-42a2-aaed-65e67f3b7760"/><path d="M40.2 400.1s5.1 11 9.3 12.4 10-.2 10.5-4.2c-6.5 15.4-17.8 1.4-19.8-8.2zM33.8 398.8s-4.8 8.5-11.1 14.3-7.3 7.7-6.4 10.1-6.5 4.3-7.1-2c-.4 6.1 8.3 8 10.7 5a10.6 10.6 0 01-2.2-4.2l.4-1.8c5.7-6.4 12.3-13.4 15.7-21.4zM28.8 392.3c-.6.4-24.6 37.3-26.4 23.4.4 5.1 3.8 6.1 6.8 5.5.5-1.9 3-5.1 4.3-6.5 4.8-6.9 12-14.5 15.3-22.4zM21.6 391.3s-4.7 7.7-10.2 12.2-8 9.6-10.5 5.8c-.2 2.3 1.6 2.8 2.6 3.5 6.2-6.1 14.5-13.9 18.1-21.5zM222.6 193.8c.9-.8 11.7-17.9 8.9-23.7-2.8 7.1-5.8 16.1-9.3 22.8zM107.4 265c21.7 17.4 99.8 21.5 98.4-22.1 4.5 47.7-77.7 42.4-98.4 22.1zM152.3 453.2c.2 1.3 1.3 4 3.4 3.2a14.7 14.7 0 01-3.4-3.2zM112.5 460.6c2.1 1 8.6-2 9.1-4.1a27.7 27.7 0 01-9.1 4.1zM100.3 454.8c.7 3.3 3.8 6.3 7.4 6.1-3-.5-5.6-3.9-7.4-6.1z" class="f24b98ef-b5ad-42a2-aaed-65e67f3b7760"/></g><path d="M.9 406.6c.9-.3 3.5 1.2 4 1.8s1.6-3.2 1.2-4-1.6-1.1-2.7-1.4zM2.9 414.1h1.3l1.6.9s.8.9 1.2.9c3.3-.4 2.5-7.1-1.1-5.6-.7.7-2.8 2.8-3 3.8zM9.6 419.8c2.3-.6 5.7 3.5 6.5-.6s-.8-4.5-3.2-3.6a7.3 7.3 0 00-3.3 4.2zM17.7 421.2c1.9-.8 5.2 1.7 6.6.3s.5-6-2.8-5.1c-1.5 1.1-3.4 3-3.8 4.8zM52.3 408.3c-1.7-2.6-1-6.5 3-5.6.3.3 5.2 2.6 4.7 4-2.6-.7-5.6-.6-7.7 1.6z" class="a007c513-40cf-42a4-96c6-a9aa640835ff"/><path fill="url(#aede5fdd-95c0-486d-bdc7-5a8c2ed17476)" d="M147.4 215.9a7.6 7.6 0 00-13.8-5.8c-5.5 9.6 9.7 19.6 13.8 5.8z"/><path fill="url(#bff23d2f-8f0a-401c-b95d-f2b977ec0625)" d="M192 223.3c1.2-7.4-7.9-11.6-12.4-5.3-4.9 8.7 8.7 17.7 12.4 5.3z"/><path d="M125.6 41.7c37.1-2.1 65.9 32.1 69 67.1-4.8-34.4-32.3-67.4-69-67.1zM96.9 51.8c3 26.3 5.3 54.4 21 76.8-17.1-21.6-19.7-50.3-21-76.8zM62.5 60.5a102 102 0 00-26.4 70.6 88.5 88.5 0 0126.4-70.6zM31.8 127.6c2.7 18.6 4 37.9 12.1 55.1-9.6-16.5-11.1-36.4-12.1-55.1zM63.2 173.7c-3.2-13.8-1.8-28.5.9-42.3-1 14.1-2.5 28.2-.9 42.3zM111.4 46.6a94 94 0 0126.8 50.2 128.5 128.5 0 00-26.8-50.2zM136.4 76.7a123.3 123.3 0 0113.6 50.9 211.4 211.4 0 00-13.6-50.9zM102.6 47a124 124 0 0115.5 38.5c-5.1-12.6-9.2-26.4-15.5-38.5z" class="b4678572-f2a7-4878-b27f-48446b678151"/><path d="M69.7 56.4c-7.9 10.8-15.7 22-19.2 35.1a66.4 66.4 0 0119.2-35.1zM49.1 68.2c-4.6 6.6-7.8 14-11.6 21a46.4 46.4 0 0111.6-21zM82.4 52.8a218.4 218.4 0 002.1 49.8 119.5 119.5 0 01-2.1-49.8zM74.7 55.6c-2.4 7.9-3.6 16.5-5.4 24.6.1-8.4 1.4-17.1 5.4-24.6zM91.8 52.6a79.7 79.7 0 011 17.6 52.1 52.1 0 01-1-17.6zM121 46.2a30.7 30.7 0 0118.1 16 57.8 57.8 0 00-18.1-16zM198.7 94.8c7.2 25.6 10.8 57.7-6.6 79.9 15.8-23 12.1-54 6.6-79.9zM199.8 170c-3.8 8.2-12.4 13.1-20.5 16.3 7.3-4.7 15.3-9.1 20.5-16.3zM217.5 75.4a80.7 80.7 0 0111.6 67.3 94.9 94.9 0 00-11.6-67.3zM226.8 129.4a57.6 57.6 0 01-12.4 38.1 86.2 86.2 0 0012.4-38.1zM85.9 92.5c5.3 22.2 13.5 44.8 10 68 1.8-23.3-6.3-45.4-10-68zM100.5 139.8c2.8 20.2-5.6 39.2-10.9 58.3 3.7-19.5 12-38.1 10.9-58.3zM129.2 44.8a40.7 40.7 0 0130.3 19.8 55 55 0 00-30.3-19.8zM191.9 60.1a59 59 0 0127.2 38 77 77 0 00-27.2-38zM43.7 219.3c-10.3-14.1-13.7-32.1-16.4-49 4.3 16.6 7.6 34.1 16.4 49zM38.6 189.9a97.2 97.2 0 01-10.1-42.8c2.3 14.5 4.4 29.2 10.1 42.8zM91 29c-3.6-8.9-12.9-13.4-20.9-17.7C78.8 14 89 19.4 91 29zM75.8 34.1c-6.9-6.3-18.2-7.4-27-4.9 8.3-4.2 21.3-2.8 27 4.9zM104 29.3l2.8-9a9.7 9.7 0 01-2.8 9zM99.4 28.4a80.5 80.5 0 00-.3-8.5 7.5 7.5 0 01.3 8.5zM82.5 31.3a26.5 26.5 0 00-8.8-10c4.5 1.2 8.6 5.2 8.8 10zM60.3 48.2c-11.1-1.9-24.2 2-29.8 12.4 4.1-11.5 18.9-16.1 29.8-12.4zM67.2 41.6a46.6 46.6 0 00-20.3-2.5c6.5-2 14.6-1.7 20.3 2.5zM39.9 59A59.6 59.6 0 0028 90.9c-.3-11.5 3.1-24.2 11.9-31.9z" class="b4678572-f2a7-4878-b27f-48446b678151"/><path d="M131.5 483.9c3.6-2.8 4.9-5.6.6-7.7l-.4 1.2c3.4 1.3 1.4 3.8-.5 6.4-.3.3 0 .3.3.1zM93 481.6c3.5 2.5-3.9-3.1-.1-5l-.6-1c-2.9 1.6-1.4 4.2.7 6z"/><path d="M99.2 492l1.1-.3c-.6-7-3.4-6.4-8.1-9.3-.4-1.1-.8-2.9-.4-3.4l-.9-.7c-1 1.5-.2 4 .1 4.7s4.4 2.6 6.2 3.4 1.4 3.7 2 5.6zM91.8 493.4l1.1-.5c-1.8-5.1-3.8-9.4-1.2-10.1l-.4-1.2c-3.9 1.5-1.6 5.6.5 11.8zM155.4 476.3c.7-1.3.7-4.2-1.3-3.9l.2 1.1c.5.3.4 1.5 0 2.3zM112.6 493.4c1.5-4.8 8.1-2.5 13-4.4 8.2-2.6 9.8-4 8.4-8.6l-.9.8c.7 3.8-1.1 4.4-7.8 6.7-5.1 1.7-12.8-.2-13.9 5.2z"/><path d="M102.7 537.8c9.8-.3 17.1-2.8 22-9.4 2.3-2.3 11.1-13.1 10.7-15.7-6.2-19.4 5-27.8-1.4-30.3l-.4 1.1c3.9 1.6-2.7 10.9-1.4 17.2-.1 9.7 5.5 9.3-1.5 18.4-6.3 7.4-7.9 12.8-17.8 16-8.2 4-37.2.4-35.9-15.7-3.4-24.6 26.8-20.8 37.8-9.6-5.2-9.9-24.5-14-34.2-6.5-6.5 5.7-4.7 15.9-4.8 17-.9 10.4 15.2 18 26.9 17.5z"/><path d="M133.1 534.1a2.1 2.1 0 001.5-.5c3.2-3.2 2.9-6.8 3.2-12.4s1.8-8.8-2.9-9.7v1.2c3.4.5 1.5 3.8 1.8 8.4-.6 6.1.6 7.5-2.9 11.7a5.7 5.7 0 01-2.2-.1l-.2 1.2z"/><path d="M126.5 543.4c3.6-1.4 4.1-8.8 6.6-11.8 1.3 3 1.3-4.8.9-3.8a9.4 9.4 0 00-1.1 1.7c-1.2 1.2-4.6 10.2-5.9 12.4-.3.4-.3.4-2 0l-.2 1.2zM105 540.4c7.3.6 18.1-3.1 21.1-10.1 3-4 9.3-13.4 9.2-15.1-10.2 17-15.6 27.3-38.7 23.6-7.9-1-16.9-4.2-19.9-10.2 1.3 6.8 19 12.6 28.3 11.8z"/><path d="M121.4 547.1c3.9-1 3.7-2.3 3.6-5.9l1.2-1a6.6 6.6 0 00.3 1.3c.2 1 1.5-4.2.8-3.9a43.1 43.1 0 00-3.5 3v4.1a4.4 4.4 0 01-4.8.7l-.2 1.2a14.7 14.7 0 002.6.5z"/><path d="M101.8 550a137.4 137.4 0 0015.6-1.1c2.5.1 2-2.1 2.1-3.8l1.4-.7c1.1-.5-.1 2.5 1.2.6.2-.4.8-2.7 0-2.4l-3.8 1.7-.1 3.2c-10.5 1.9-39.3 3.2-43.8-10.9-.2-3.6-1.7-11.3 2.7-12.5l-.4-1.1c-5 1-3.9 9.8-3.4 13.9 1.7 9.6 19.5 12.9 28.5 13.1zM112.5 502.5a22 22 0 00-6.2-3.8l-.6.7c-6-13.6 27.8-5.1 26 4.7s-15.9 2.9-19.2-1.6zm-5.2-8.2c-1.2.2-1.4 1.3-.9 3.3 1.3.1 5 2.3 6.8 4 3.1 3.4 14.2 8.9 17.3 2.4-1.3-8.7-15.5-11.6-23.2-9.7z"/><path d="M126.3 505c1.4-.7 1.9-1.3 1.8-2.4-1.2-8-19-8.8-22.8-7.1l.5 1.1c3-1.8 24.4-.4 20.5 8.4z"/><path d="M123.7 505c2.7-.1 4.3-1.3 4.1-3.5l-1.2.2c-4.1 7.2-13.9-5.5-20-6.5l-.4 1.1c6.9 1.9 10.4 8.5 17.5 8.7z"/><path d="M105.8 499.6a2.6 2.6 0 001.9-.7l-.8-.9c-4.9 2.4-3.6-8.8.8-4.1l1-.8c-5.3-5.1-9.3 5.8-2.9 6.5z"/><path d="M102.8 499a2.7 2.7 0 001.5-.4l-.6-1 .3.5-.3-.5c-4 1.5-3.2-7.1 1-4.5l.6-1c-4.9-3.3-8 6.4-2.5 6.9zM117.8 503l1.1-.3c-.8-2.5-4-7.3-8.1-7.9l-.2 1.1c3.3.6 6.3 4.6 7.2 7.1zM118.3 516.7h1.3c2.5-1.7 1.1-6.2.4-10.4l-1.1.3c.6 3.6 1.6 7.3.3 9-3 .8-1.6-7.5-2.8-11.3l-1.1.2c1.3 4.6-.6 11.2 3 12.2z"/><path d="M117.9 524c2.5.3 1.7-7.2 2.2-7.9l-1.1-.2c-.3.3-.3 6.7-1.1 6.9s.6-7 .4-7h-1.2c.4.8-2.4 8.2.8 8.2zM112.7 505.7c1.2-.3 2-1.8.7-3.9l-.9.7a1.7 1.7 0 01.1 2c-2.3-.8-4.3-2-7.5-2.7l-.2 1.2c3.2.5 5.4 2.2 7.8 2.7zM95.7 500.9a27.8 27.8 0 015.9-2.3v-1.2c-2 .2-6.2 2.3-6.4 2.4zM87.6 499.6c1.3-4.9 9.5-2.2 13.1-2.2v-1.2c-3.6-.1-13.9-2.9-13.4 3.3.2.7.3.5.4.1z"/><path d="M84.9 501.3l1.7-.4c-3.8-6.3 15-8.9 15.4-7.9v-1.1c-1.3-1.4-21.2 2.3-17.2 9.4z"/><path d="M89.7 500.9l.3-1.1a1.6 1.6 0 01-.8-2.4l-.8-.9c-1.4 1.1-.5 4 1.3 4.4zM91.7 500.5c.9-.9 4.1-3.3 7.1-3.5l-1-.9c-1.8.3-5.9 2.6-7 3.5z"/><path d="M92.8 498.7H94a9.1 9.1 0 00-.5-2.7l-1.1.3a14 14 0 01.4 2.5zM110.3 500.8l.6-1c-1.1-.7-4.5-1.3-4.8-1.4l-.3 1.2a21.2 21.2 0 014.5 1.2zM94.5 516.8c-2.1-1.8-7.6-3.4-10.9-1.8-.9.3-.3.2 0 .1a17.5 17.5 0 015.1-.1 18.7 18.7 0 015.4 1.8c.5.3.9.4.4 0zM113.6 490.6l1.1-.4c-1.7-2.3-11.8-5.6-16.6-4l.7.9c1.2-1.5 15.5 2.7 14.8 3.5zM98.2 492.4h.6c-1-4-.6-4.6-3.4-5.9a16.2 16.2 0 01-3.6-2.1c-.1-.1-.9-.7-.2 0 3.5 3.7 6 1.9 6.6 8.1z"/><path d="M112.8 491.6l.3-.5c-1.8-1.4-10.5-4.4-14.2-3.5v.6c3.6-.8 12 2 13.8 3.4zM114.1 493.2c.1-1.7 6.6-1.9 9.4-2.5 5.3-.8 10.7-3.8 9.9-3.9-2.1 3.1-18.6 3.2-19.9 6.2zM172.1 534.2c8-.6 21.6-2.8 21.6-12.3 0-6.7 1.8-9.7-3.5-10.7v1.1c4.2.8 2.3 4.7 2.5 9.5.1 9.8-18.8 12.3-25.8 10.7a11.7 11.7 0 00-.1-2.5l-4.7-1.3c-.7-.2-.6 1.7-.6 2.3s.2.5.2.1c-.1-2.3 3.1-.1 4-.2v2.6a30.3 30.3 0 006.4.7z"/><path d="M161 533.2c1.4.1 4.5-2.1 5-2.4l-.7-1c-3.3 2.7-5.7 2.5-9.6 1.2a6.9 6.9 0 01.3-2.7c-.1-.1-5.1-1.3-5.5-1.7s-1.1 1.3-.7 2.2.5.2.5 0c-.8-1.9 3.5.4 4.3.3-1.3 4 3.2 3.5 6.4 4.1z"/><path d="M150.2 530.5c1.2 0 2.8-1.1 4.1-1.6l-.4-1.1c-5.5 4.3-12-3.5-16.9-5.5l-.4 1.1c3.7 1.7 9.1 6.8 13.6 7.1zM149.3 503.2a10.8 10.8 0 012.5-2.9l-.4-1.2c-1.4.4-5.1 9-2.1 4.1z"/><path d="M172.4 522.7c35.9-1.5 14.4-39.7-19-24.8l.5 1.1c38.6-16.2 52.9 32.6 7.1 20.1-6.2-1.3-18.4-5.2-23.7-5.3v1.2c8.6.4 25.2 6.8 35.1 7.7zM140.8 499c-3.6-6.3 5.2-19.4 14.2-14.1 1.2 1-.4 4.7-1.2 6.7-1.4 4.3-3.7 9.5-8.8 9.2a4.9 4.9 0 01-4.2-1.8zm11.7-14.2c-9-1.7-17.2 16-6 14.6 3.5-.6 5-4.8 6.2-8.2s3.3-6.2-.2-6.4z"/><path d="M145.4 498.9a4.4 4.4 0 001.7-.8c1.1-1 0-.3-.2-.2-4.4 1.2-3-3.6-1.1-6.6s6.4-3.9 9-6.1l-1-.6c-2.8 1.7-6.4 2-9 6-1.6 2.3-3.8 8.7.6 8.3z"/><path d="M144.2 498.4c4.9.2 8.8-9.9 9-12.5h-1.1c-.1 1.9-4.4 12.3-8.2 11.3l-.2 1.2z"/><path d="M154.4 489.7c5.9-1 1.4-11-3.5-5.8l.8.9c3.6-3.9 6.6 3.1 2.5 3.7v1.2z"/><path d="M156.3 489.4c4.9-.5 2.5-10.6-2.4-6.8l.8.9c3.4-2.7 4.4 5.4 1.1 4.6l-.4 1.1a1.5 1.5 0 00.9.2z"/><path d="M166.5 495.8c3.4-4.8-3.3-15-9-13.3l.2 1.1c4.7-1.3 10.7 7.6 7.8 11.5z"/><path d="M163.5 496c2.2-4-.8-10.8-5-11.7l-.2 1.2a7.6 7.6 0 014.1 10z"/><path d="M152.9 493.6c3.3-1.4 9.4-1.6 5.3-6.2l-.8 1c3.1 3.4-2.8 2.6-5 4.1z"/><path d="M153.4 495.8a27.7 27.7 0 017-1.6c.5-1.3-.6-2.9-1.7-3.5l-.6 1a2.9 2.9 0 011.1 1.4 31.6 31.6 0 00-6.2 1.6z"/><path d="M161.6 496.2c.3-1.7-.5-2.8-1.6-3.1l-.3 1.1c.4.1.9.6.7 1.8z"/><path d="M161.4 494.6c.8-3.9-1.1-8.2-2.8-8.9l-.5 1c1.2.6 2.8 4.3 2.1 7.6zM149.3 493.5l1.1-.4a7.3 7.3 0 010-5.8l-1.1-.5a9.1 9.1 0 000 6.7zM152.9 511.2c5-2 1.5-13.9.2-18l-1.1.2c.6 2.8 1.8 4.9 2.1 8.3s.6 10.1-2.4 7.7c.9-3.7.8-9.5-.5-12.5l-1.1.5a20.3 20.3 0 01.6 10.5c-.7 2.2.5 2.9 2.2 3.3z"/><path d="M148.7 517.3c1.7 0 3.9-6.2 4.5-6.6l-1-.6c-.3.1-2.8 6-3.7 5.9s3.4-6.2 3.1-6.3l-1-.6c-.1 1.1-6.2 7.8-1.9 8.2zM148.9 484.6h1.2c.5-9.8-9.7.2-16.1-4.6l-.6 1.1c7.7 5 16.2-4.4 15.5 3.5z"/><path d="M155.8 482.7c1-5.5 1.3-10.3-5.3-5.2-1.4.9-3.6 1.1-3.7 3h1.2c.3-1.3 4.7-2.5 5.4-3.6 3.1-2.2 1.4 2.9 1.2 5.5zM139.8 484.2c4.1 0 7.2-1.7 7.5-2.2s-6 2.7-12.8.9v.6a22.2 22.2 0 005.3.7z"/><path d="M150.3 480.4c.7-.6 4.6-3.3 4.9-2.2s.3.3.3-.3h.6c-.6-2-5.7 1.7-5.8 2.6zM173.3 524.6c8.3 1 17.6-5.1 18.2-9.7.5-1.5-.2-.4-.3-.1-12.6 19-35.7 2.7-53.8 1.1v.5c17.6 2.3 18.9 7 35.9 8.2zM177.2 505.8a18.9 18.9 0 017.1-2.6c.3-.1.9-.2 0-.2-2.9-1-9.9 4.1-7.1 2.8zM141.9 448.1c-25.4-.8-56.3 1.2-78.8-13.9-2.1-2.2-1.6-5-.4-10.2 2.5-11.2 5.5-26.5 6.6-32.6l1.2.2a787 787 0 01-6.7 32.6c-4.6 11.4 7.2 12.4 19.5 16.8a97.9 97.9 0 0036 4.8c17.4.9 45.6 1.4 55.4-10.6 5.3-5.4-.5-19.2-.9-30.8l1.2-.2c.4 12.3 6.5 25.7.5 31.8s-18.7 12.1-33.6 12.1zM176.4 194.9c15.2-7.3 29-16.1 33.9-29.7-8.4 16.9-26.6 27.5-45.5 30.4 12.9-27.8 8.5-56.8-4.9-74.7 4.8 13.2-5.6 26.9-1.7 38.8-4.5-3.6-6.3-11.8-7.3-18.1-.3 9.7-.5 20.9 3.9 27-14.3-13.5-23.8-34.9-20.6-54.7-5.6 9.6-5.3 23.1-1.8 34.4-25.1-15-38.4-46.1-37.7-65.3 3 20.8 14.1 47.9 34.6 60.8a40.8 40.8 0 016.9-35.1 62 62 0 0014 51.7c-1.7-7.9.4-29.1.4-29.1s1.6 16.7 5.2 22.8c.5-11.8 8-25.4.9-37.4 17 13.5 23.3 48.6 11 76.6a54.6 54.6 0 0044.8-36.4c1.5 14.1-13.7 27.9-28.4 35.4 29.7-5.9 56.5-45.5 51.6-73.9-.2-2.4-.2-3.1.5.5 7.3 31.5-27.2 75.8-59.8 76z"/><path d="M92.9 225.9c-8.2-4.2-13-21.8-14.9-35.9a77.2 77.2 0 006.9 29.9c-11.8-8.8-22.4-40.1-19-55.7a93.6 93.6 0 0015.6 50.4c-3.2-8.2-6.9-24.8-2.7-35.5-.7 12.6 4.2 35.3 11.6 43.5-1.7-7.2 1.8-17.5 6.2-30.1 13.6-28.8 11.1-68.5 3.3-85.4l1.1-.4c22.4 62.6-15.9 88.2-8.1 119.2zM163.9 258.1c-10.2-.4-22.2-5.4-25-13.6a31.3 31.3 0 0043.2 6.4c-3 5.3-13.2 7.1-18.2 7.2z"/><path d="M135.6 246.4c-1.7-4.3 6.8-5.4 4.8-4-5.4.7-3.8 7.2-4.8 4zM161.6 271.8a12.6 12.6 0 01-7.4-2.4c-1.8-1.4 0-.4.3-.2a18 18 0 0013.1.4c.3-.2 1.6-.6.3.2a13 13 0 01-6.3 2zM177.3 241.8c-.9-10.5-21.2-12.2-27-3.4-.3.4-1.5 1.8-.4 0 7.5-13.7 29.8-6.4 27.4 3.4zM129 418.2a96.7 96.7 0 01-63.2-28.9c-4.3-1.9 2.3-16 2.7-22l1.7-1.2c-1.6 7.2-3.4 13.4-4.6 19-.9 3.3 1.4 2.2 4 5.3a91.7 91.7 0 0055.9 25.6c5.4 1.6 4.6-2.5 5.2-9.2 1.8 0-8.2-58.9-8.6-62.6-1.3-11.9-.8-30.5-2.2-41.6-.9-8.3-5.5-16.7-6.6-23.7h1.1c1.3 7.1 5.8 15.2 6.7 23.7 1.3 11.1.9 29.7 2.1 41.6s16.3 67.7 5.8 74.1z"/><path d="M127.1 416.9h-.6c4.9-24.8-4.5-50-6.3-72.2-2.2-15.7-.2-43.4-3.9-56.4l.6-.2c3.7 13 1.7 40.9 3.9 56.5 1.9 22.3 11.3 47.5 6.3 72.4zM168.9 409.2h-.6c2.3-20.7-8-60.8-11.7-81.4a165 165 0 01-1-24.6c-.1-6.4 1.3-17.5-1.6-20.9l.5-.4c3 3.5 1.7 14.7 1.7 21.3s-.3 15.7 1 24.5c3.7 20.5 14 61.1 11.7 81.6z"/><path d="M168.8 406.7l-.3-.5a41.7 41.7 0 0013.9-13.8l.5.3a43.8 43.8 0 01-14.1 14zM127.5 414c-35.2-5.2-42.6-11.7-62.5-29.2l.3-.6c19.9 17.6 27.1 24 62.3 29.2zM154.3 281.4c-31.1 1.6-63.3-23.1-74.9-44.6-34.4 6.9-43.8-51.1-10.6-50.8l.4 2.3c-30.3-4-25 55.1 11.4 46.6 1.7 9.3 24.9 32.4 48.8 40.8 30.6 10.8 92.9-.7 72.1-45.7 13.2-18 39.9-76.5 34.2-99h1.2c5.5 22.3-20.1 79.5-33.8 99.1 15 33.8-15.7 51.9-48.8 51.3z"/><path d="M76 229.9c-2.2-2.7-.3-6.1 2.5-7.1.5-.9.5-3.1-2.4-7.4-5.7-9.6-12.4-10.8-16-9.5 7.9-3.7 11.5 1.6 17 8.9 1.8 2.6 4.6 7.3 2.5 9.3-2.7.4-5 3.4-3.2 5.8.2.2-.2.2-.4 0z"/><path d="M65.7 215.3c-.3-3.3.3-7.5 2.9-9.2l.6 1c-2.1 1.4-3.3 5-3.2 7.9 0 .6-.3.8-.3.3z"/><path d="M88 259.5c-66.9-8-92.9-128.3-52.7-181.2 24.8-38 83.2-44.8 124.3-38.1 63.1 7.4 100.9 69.3 88.4 128.9-1.4-17-12.1-40.7-12-39.5l1-.6a121.5 121.5 0 0111 32.6c5-36.7-9.3-76.4-35.5-97.7-55.7-44.6-187.4-33.9-194.2 64-4.8 51.6 12.7 111.8 62.4 128.8a27.6 27.6 0 01-11.2-16.1c4.3 6 12.3 10.1 22.2 10.3a22 22 0 011.4 1.8c-7.5.2-15.9-3.3-20.6-7.1 3 6 9.6 11.8 15.5 13.9z"/><path d="M15.6 241.3A36.1 36.1 0 0029.3 221a68.6 68.6 0 01-9.9 6 34.5 34.5 0 008.8-21.9h1.2a35.9 35.9 0 01-5.7 18.1c5.8-3.6 5.3-3.5 7.4-5.4-.6 2.6-1.2 11.9-11.5 21.8a59.2 59.2 0 0022.5-10.1l1.3 1.3c-.1.5-16.2 10.5-27.8 10.5zM62 54c.9-16.7 43.9-30 57.4-15.4l-.9.8c-10.2-12.5-52.8-3.2-55.3 14.5z"/><path d="M21.7 107.4c-5.6-22-12.2-61.9 7.8-81.6 35-29.6 78.5-22.2 96.1 12.6l-1.1.4C109 6.1 63.9-2.9 30.3 26.6c-19.5 19.3-13 58.7-7.4 80.5zM87.6 362a110.9 110.9 0 00-3.6-12.2l1.1-.4c.7.4 5.2 20.8 2.5 12.6zM85.3 377.7c-1.5-4.8-4.3-14.1-6.1-22.1l1.1-.8c.9 5 6.6 27.7 5 22.9zM173.8 361.7c.8-1.8-3-16.1-.4-9.4 2.2 2.9.4 17.7.4 9.4zM138.4 397.9a38.5 38.5 0 01-7.8-.7l.2-1.1c9.1 1.4 24.4.3 34.6-5.7l.6 1a56.8 56.8 0 01-27.6 6.5zM93 345.7a36.5 36.5 0 00-3.1-3.6l.9-.8c1.7 1.8 3.8 6.3 2.2 4.4zM137 300c-8.9.4-19.1-9.8-21.6-15.2l.6-.2c2.2 5 11.4 14.4 19.8 14.8 6 1.8 22.2-6.9 18.2-15.1l.5-.3c4.4 7.6-11 17.5-17.5 16z"/><path d="M137.3 394.3c-2.2 0-4.4-.2-6.9-.4v-.6c7.7 1.7 30.7-1.9 35-5.1l.3.5a84 84 0 01-28.4 5.6zM139.9 231.3c-18.3.2-18.2-42.1 2.2-41.4 17.2 1.2 17 41.7-2.2 41.4zm2.2-40.8c-18.7.1-18.8 35.3-4.7 39.4 20.7 4.1 20.6-39.1 4.7-39.4zM186.9 237.4c-16.2 1-9.3-37.3 6.6-36.4s8.5 37.4-6.6 36.4zm6.6-35.8c-13.6-1.2-22.3 34.1-6.6 34.6s21.3-33.6 6.6-34.6zM125.4 444.5c-17.6.6-35.9-2.3-50.1-8.4-8.7-2.8-13.4-7.2-12.9-9.2h.6c1.6 8.1 31.9 15.5 43.3 16.5 24.5-.1 60.4 7 70.7-15.8h.6c-7.1 18.3-32.3 16.7-52.2 17zM113.8 460.4a15.5 15.5 0 006.7-2.8c1.6-1.2 1.4-1.4-.2-.6a60.8 60.8 0 01-6.8 3.1c-1.6.6-1.1.5.3.3zM106.6 460.9c1.7.3 1.4.2-.2-.9a45.8 45.8 0 01-5.3-4.4c-1-1.1-1-1.1 0 .4s3.4 4.4 5.5 4.9z"/><path d="M113.3 486.7c-6.7.6-18.8-2.6-20.2-7.8-3.3-9.7-6.4-26-8.7-36.6l1.1-.2c1.8 8.2 3.8 18.5 6 26.9s.9 12.2 12.1 15.6c35.2 5.9 27.2-12.5 31-38.1l1.2.2c-.5 4.1-2.5 26.3-2.9 28.7-1.4 9.8-10.6 11.3-19.6 11.3z"/><path d="M139.4 480.1a20.3 20.3 0 01-5.2-.7l.3-1.1c23.7 4.5 21.9-18.3 26.8-35l1.2.3c-4.7 14.9-2.8 36.6-23.1 36.5zM89.9 443.8c-1-9.5 0-24.9.7-36.8h.6a307 307 0 00-.8 36.5zM148 447h-.6c.8-8-.1-24.3.5-36.4h.6c-1 12.4.2 28.1-.5 36.5z"/><path d="M147.1 411c-.5.1 0-.4 1.1-.8 1.7-3.2.6-9.8 1.3-13.9h.8c-1.5 3.3 1.1 14.6-2.9 14.7h-.3zM146.5 408.3c-.3-.6.2-12.2.6-8.8-.2.9-.1 12.5-.6 8.8zM160.4 436.1a76.1 76.1 0 008.2-16.4c.4 3.6-5.4 13.9-8 16.7s-.7.4-.2-.3zM170 425.2l.2-8.4c0-.3.5-4 .8 0a68.1 68.1 0 01-.5 8.2c0 .6-.8 5.2-.5.2zM80.8 422.7c-4.1-4.5-8.8-16.6-7.9-20.2.5 5.6 5.7 16.5 7.9 20.2zM83.8 434.6a17.3 17.3 0 01-5.7-4c-1.3-1.6-.4-1.1.8-.1s9.9 6.3 4.9 4.1zM124.8 433.4a32.4 32.4 0 0013.6-14.1c.1-.3.9-1.8.3.2-1.3 5.3-9.6 13.4-13.9 13.9zM119.8 409c-22-6.1-15 1.7-14.2-20.5 1-1.7 17.5 2.2 17 3.6-.8 3.5-.3 16.3-2.8 16.9zm-15.6-4c4.2.7 11.4 2.7 15.6 3.6.3.1.7-.1.6-.4s1.5-13.2 1.8-16.2c-1-1.4-12.9-3.5-16.3-3.7-.2 4.1-1.1 12.9-1.7 16.7zM120.8 179.8c-11.3-4.3 28.8-20.1 26.8-5.7-1.2 2.2-4.1 2-6.5 2-6.2-.7-14.4 2-20.3 3.7zm19.3-10.6c-4.3-.7-23.1 6.5-19.6 9.2 6.7-2.5 15.7-4.4 22.7-3.8s1.5-6.1-3.1-5.4zM218.7 185.4c-3-1.1-5.2-6.1-8.1-5.9l.2-1.2c2.5.5 4.8 2.2 6.9 5.2.3.4.7.8 1.3.6 3.5-2.7-1.3-7.5-4.7-8.2l.4-1.1c5.9 1.4 9.5 8.7 4 10.6zM157.8 456.2a2.9 2.9 0 002.1-2l-.9-.4c.2 1.1-3.4 3.2-1.2 2.4zM155.2 456.4c2.2.3-2.2-2.1-2.4-2.8s1.2 3 2.4 2.8zM163.4 264.3c-7.9.1-14.8-9.9-21-14.5l.7-1c7.8 6.8 20.4 22.2 29.2 9.5 1.7-2 4.5-5.6 8.1-5.2-7 3.6-8.1 11-17 11.2z"/><path d="M175.2 255.2c-6.2-1.9-10.5-4.9-18.3-1.8-4.4 1.6-12.3.5-14.8-5.5 10.3 9.6 20.2-.6 29.6 4.8a5.2 5.2 0 006.6.3l.7 1a7.1 7.1 0 01-3.8 1.2zM156.5 261.6l-.7-.9c2.8-1.9 8.2-1.7 9.1.1s1 2.3-1 .7-4.9-1.5-7.4.1z"/><path d="M169.6 261.8c-1.3-1.8-4.5-1.9-6-1l-.6-1c2.1-1.3 5.9-.9 7.6 1.3zM167.2 255.5a6.3 6.3 0 01-2.8-.8 5.3 5.3 0 01-7.2-1.9l1.1-.5c1 2 4.5 2.7 6.1.9 1.4 1 3.7 2.2 5.8-.7l1 .6a4.9 4.9 0 01-4 2.4zM166.4 411.6c-3.2 0 .1-17.4-1.9-28.7s-5-29.1-6.7-35.7c-7.2-24.2-3.5-42.3-4.3-63.5l1-.7c1.7 2.7.5 6.9.3 9.7-.5 8.8-1 22.2.4 34.1.6 7.3.7 7.9 3.8 20.1s9.2 51.3 7.7 62.1c3.1-.1 14.5-10.8 15.3-14.7 1.4-8.3-5.9-36.7-8.4-45.1-4.5-16.7-10.5-36.5-10.5-48.4s-2.9-16.6-5.7-20.4l.9-.7c3 3.9 5.7 8.5 6 21s6 31.7 10.5 48.2c2.4 8.5 9.9 37.3 8.9 45.6a37.7 37.7 0 01-17.3 17.1zM50.7 383c-4.2 0-13.2-4.7-18-9.8-8.6-9.6 6.9-21.9 11.2-32.1 4.8-8.6 20-36.4 24.2-45.1s14.4-16.9 25.8-16.2c2.7.1 7 .9 9.8 2.7 5.3 3.4-7.7-2.2-9.1-1.4-11.9-.8-21.8 7.8-25.5 15.4S49.7 333.1 45 341.7s-19.2 21.7-11.4 30.7c7.5 6.5 17.6 14.3 23.9 5 10.3-8.5 45.1-47.3 50.7-66.6a35.1 35.1 0 001.7-7.8c0-.5.1-4.4.6-.3 1.7 19.7-46.7 75.9-59.8 80.3z"/><path d="M109.1 311.8l-.8-.9a28.9 28.9 0 005.5-6.3c4.7-5.1-2.5 6.2-4.7 7.2zM111.2 322.7c-1.3 6.8.1-10.6-.1-9.9 1.4 2.1.9 6 .1 9.9zM57.6 371.5c5.2-2 13.5-7.5 16-10.1l.8.9a59.9 59.9 0 01-16.6 9.4c-1.1.5-1.2.2-.2-.2zM94.8 317.2c.1 0 5.6-1.8 8.3-6.2s2.9-3.7 1.1.6-9.4 5.6-9.4 5.6zM116.3 287.9c-5.5-4.4-12.3-5.2-16.5-6.2l.2-.5c4.2.9 11.1 1.7 16.7 6.3zM164.2 333.6a114.4 114.4 0 01-1.4-19.9c0-.4.2-3.4.4-1.4s3.2 31.6 1 21.3zM81.4 283.2c-1.1-6.3-1.3-14.4.1-16.4s16.5-5 21.1-6l.3 1.2c-20.5 5.3-23.4.5-19.6 20.5z"/><path d="M115.6 287.1c-3.1-6.5-16.7-12.8-24-16.1-4.9-2.3-9.4-4.3.1-.9s21.7 9.6 25 16.5zM94.7 278.1a24.6 24.6 0 01-8.5-3.5c-1.5-1.2-.5-1.1 1-.3a37.7 37.7 0 008 3.3c3.7 1.2 3 1.2-.5.5zM93.2 266.3c2.8-1 8.6-3.1 12.7-3.1v1.1c-2.1-.6-15.8 3.5-12.7 2zM138.5 296.8c-7.5 1.3-22.4-13-24.8-17.3s-2.5-8.8-4.7-12.9l1.1-.5c3.3 11.2 14.6 32 32 28.9 14.5-6.3 9.9-9.8 12-15.1 2.4.1.7 1.5.4 4.3 1.2 1.5-5.3 12.4-16 12.6z"/><path d="M114.2 279.4c-1.9-4-5.2-9.3-8.7-10.9-.5-.2-.4-.6.3-.3 4.2 2 7.9 7.3 9.5 10.7zM164.3 305l-.8-1.5c12.4-9.9 62.1-49.3 66.9-63.8-6.1 1.9-19.5-13.3-16.5-19.8-3.1 1.2-6.1 5.3-9.4 7.4l.4-2.2c3.9-2.6 7.1-7.8 11.6-6.3-2.5 1.9-3.3 4 2.6 12.9s11.1 6.8 11.6 6.7c11 4.6-62.3 63.1-66.4 66.6z"/><path d="M164.2 303.6l-.6-1.6c6-3.5 11.6-10.8 13.9-14.9.7-1.4 1.2-1.7.6-.4a45.8 45.8 0 01-13.9 16.9zM229.4 243.8c-7-1-11.4-4.1-15.3-10.9s-4.8-11.3-1.4-13.5v.6c-2.7 2.1-1.1 6.9 1.8 12.6s8.5 9.5 15.3 10.4zM200.7 268.7a75.5 75.5 0 0016.5-20.2 45.5 45.5 0 01-16.5 20.7c-3.3 2.3-.4-.1 0-.5zM169.5 285.4a5.9 5.9 0 01-3-.7c-3.7-1.8 4.4.6 7-1.7 1.6-.7 2.3-1.2 1.2-.2s-2.2 2.6-5.2 2.6zM177.4 290.3c1.3-2.3 7.1-10.1 6.3-7.7s-7.6 10-6.3 7.7zM215.4 219.7l-.6-1c2.4-1.4 5.3-4.9 7.1-7.1l.9.7c-1.9 2.4-4.8 6-7.4 7.4zM231 239.5l-1.5-1c.3-.3 7.5-5.9 12-7.5 10.8 4.8 20.2-16.7 22.8-24.3 6.5-4.1 14.3-8.8 18-14.2 2.8-3.9 2.9-9.2-2.2-8.7l-.2-1.2c6.2-.6 6.9 5.9 3.4 10.6s-11.5 10.8-18 14.8c-3 9.1-11.5 28.8-23.8 24.5a47 47 0 00-10.5 7z"/><path d="M228.4 222.4c-9.1-3-8.1-22.2-5.3-25.8a7.1 7.1 0 01-1.3-3.7l1.2-.9c.5 2.7 1 3.9 1.4 4.3a25.5 25.5 0 004 26.1zM236.7 224.5c-7.5 1.4 4.6-1.5 6-9.6.9-3.1 1.4-2.8 1.2.3s-3.3 8.4-7.2 9.3zM262.6 199.5c-2.6-3.7-9-11.5-13.1-13.8s-2.9-2.3.3-.9 11.9 10.1 13.9 14.4 1.4 4.1-1.1.3z"/><path d="M237.1 193c-1.4 7.1-1.2-.2-1.2-.2.4-7.1-3.3-19.8-5.1-22.5l.8-1.5a65 65 0 015.4 19.7c2.7-9.4 9.1-22.5 13.8-29.1 9.2-12.2 23.1-1.1 12.1 11.9-2.1 2.6-11.3 13.7-9.7 10.3 3.2-4.2 15.5-17.6 11.4-23.8-2.5-3.6-7.8-3.9-12.9 2.3s-13.2 25.7-14.6 32.9z"/><path d="M261 188.9c3.3-7.9 21.8-18.7 14.2-26.6a6.8 6.8 0 00-8.9-.2l-.8-.9c6.6-5.5 16.3 2.3 11.8 9.2s-10.8 11.7-15.7 18.8c-.3.4-.9.2-.6-.3z"/><path d="M265.1 196.6c4.3-3.7 17.7-14 16.5-19.7 0-3.7-1.8-6.3-5.4-5.1l-.4-1.1c10.9-1.9 8 12.7-.3 18.2-2.1 2.2-12 10.1-10.4 7.7zM52.8 415.7c-9.7 1.3-16.4-23.5-11.5-14 .7 6.8 13.3 19.7 18.2 6.8.8-3.7-4-4.2-6.7-6.8-5.5-4-5.7-4.2-5.8-6.8s-.1-7.6 1.7-12.7l1.1.4c-1.7 4.9-1.6 11-1.6 12.2s.1 2.1 5.3 6c3.2 2.9 8.2 3.1 7.5 7.9s-4.3 7.1-8.2 7z"/><path d="M52.1 408.9c-1.7-2.9-1.4-8.3 3.8-6.1l-.2.5c-3.3-1.6-4.9 1.6-3.4 4.6 2-1.7 5.5-2.6 8-1.2l-.3.5c-2.5-1.4-6.1-.3-7.9 1.7zM25.7 428.7c-5.4.5-9-5.2-8.6-6.8 2.5-7.1 14.3-15.4 16.7-23.1.2-.4.7-.1.5.4a61.7 61.7 0 01-9.4 14.3c-2.1 2.6-6.7 6-6.6 8.4s1.5 4.5 6.3 5c9.5 1.8 15.8-18 16.1-23.4l1.2.2c-.3 5.9-6.2 25.4-16.2 25z"/><path d="M16 428.3c-6.1-.3-10.8-7-4.7-12 4.6-5.1 13.9-17.4 17.3-23.6 1.8-1.2-4.3 9-6.2 11.4-3.2 6.3-15.2 14.8-11.9 19.6 2.2 2.9 6 4.4 9.5 1.8l1 1.2a8.3 8.3 0 01-5 1.6z"/><path d="M8.9 422.2c-9 0-9.2-8.7-2.3-13.4a78.2 78.2 0 0015-17.5c.3-.6.6-.1.3.5a82 82 0 01-14.5 17.9c-5.9 4.5-6.3 10.5 1.8 11v1.2l-.3.3z"/><path d="M3.2 413.4c-7.9-4.2.4-11 4-15.5s5.1-8.9 7.4-13.2 16.1-11.1 17.3-13.4l.8.8c-1 2.3-15.5 9.1-17 13.2s-4.3 8.8-7.5 13.3-11.4 10.2-4.3 13.4zM23.3 422.4c-1.7-.4-4.5-1.3-5.5-.8l-.3-.6c1.1-.5 3.9.1 5.5.8 3.7-.8 1.4-8-2.5-4.2l-.4-.4c4.6-4.4 7.5 3.7 3.2 5.2zM14.5 421.5c-1.2-.5-3.9-2.1-4.9-1.1l-.6-.2c.8-1.6 4.3 0 5.4.6 3.4-1.5 1.6-8.3-2.8-3.6l-.4-.4c4.6-5.3 8 2.3 3.3 4.7z"/><path d="M7.2 416.3c-1.1-.2-3.1-2.8-4.3-1.5l-.5-.2c.8-1.6 3.3-.2 4.3.8 2.6 1.5 3.4-7.7-1.5-4.2l-.4-.4c4.6-3.8 6.3 4.4 2.4 5.5zM4.9 408.7c-1-.5-2.6-2.3-3.9-1.5l-.4-.5c1.4-.8 3.2.3 4.3 1.4 1.7-.9 1.3-6.4-2-3.9l-.5-.4c3.8-3.3 5.6 3.6 2.5 4.9zM95 392.9c4.2-6.1 7.1-22.3 14-23.8-6.2 3.2-9.1 21.4-14 23.8zM124.1 383.9c0-.1-6.1-9.1-10.2-12.8s0-.7 0-.7c3.1.5 15.4 20.4 10.2 13.5zM175 392.1a67.5 67.5 0 00-4.7-21.4c-.2-.5-1.9-3.2.2-.6 3.9 4.5 5.9 16.5 5 22s-.5.8-.5 0zM72.5 357.3c5.5-5.7 14.2-22.1 18.7-27.9a121 121 0 01-18.7 28.5c-.6.5-.6 0 0-.6zM88 309.3l-3.1-2.7c6.8-6.5-5.6-16-8.9-4.5l-3.4-1.7c3.5-17.2 27.5-3.7 15.4 8.9zm-2.7-2.8l2.7 2.4c11.3-12.1-11.5-25-15.1-8.6l2.9 1.4c3.3-11.1 16.3-2.2 9.5 4.8zM79.4 324.2c-.4-.2-14-8.1-15.7-8.9l1.7-3.3 6.6 2.6 3.2-4.6a38.5 38.5 0 00-6.3-3.6l1.6-3.6a72.9 72.9 0 018.1 4c5 2.8 8 4.8 8.3 4.9l-2.1 3.9a109 109 0 01-5.8-3.5 29.8 29.8 0 00-3 4.5l6.2 4zm-15.3-9l15.2 8.7 2.5-3.3-6.1-3.9c-.1-.1.8-1.8 3.3-5 1.7 1.2 5 3.1 5.7 3.5l1.8-3.4c-.2-.5-15.1-8.7-15.9-8.7l-1.3 3.1a42.1 42.1 0 016.3 3.8c-.2.1-.9 1.2-3.5 4.9l-6.5-2.6zM75.7 330.8c-1.8-1.7-14.5-8.7-14.9-9s1.7-3.5 2.2-4.2c4.9 2.4 11.2 6.3 15 8.6 1.2 1-1.6 2.8-2.3 4.6zm-14.5-9.1c1.3.7 12.5 7 14.4 8.6.8-1.6 2.8-2.8 2.3-3.8-3.8-2.3-10-6.2-14.8-8.5-.5.7-1.6 3.1-1.9 3.7zM66.1 341.9c-2.7.1-6.1-2-5-5.1-2.3 1.3-7.4-1.4-7.6-1.8s1.3-2.9 1.9-3.8c2.6 1.7 6.3 2.9 8-.6-3.1-3.1-7.1-2.4-2.9-7.3 2.7 1.1 13.2 8 14.2 8.9-1.2 2.7-4.5 9.9-8.6 9.7zm-4.5-5.7c-2 3.8 3 6.3 6.1 5.1s5.9-7.1 6.7-9c-1.3-1-11.1-7.5-13.8-8.6a11 11 0 00-1.9 3.1c1.2 1 3.7 2.6 5.1 3.7-1.7 3.8-5.5 2.9-8.3 1.1l-1.7 3.3c-.3.5 5.7 3 7.8 1.3z"/><path d="M66.3 338c-3.4.3-1.4-7.4.7-6.7s3.4 1.5 3.3 2.6-1.9 4.1-4 4.1zm.3-6.5c-1.5.4-3.2 6.3-.3 6.2 2.1 0 3.7-3.1 3.8-4.2s-2.5-1.7-3.5-2zM57.2 356.2c-11.7.8-14.3-17.6-2.4-17.7s14.2 16.9 2.4 17.7zm-2.4-17.4c-10.8-.1-9.6 16.7 1.3 17s11.3-17.4-1.3-17z"/><path d="M56.8 352.4c-7 .5-8.5-10.4-1.5-10.5s8.4 10.2 1.5 10.5zm-1.5-10.2c-6.2 0-5.5 9.7.8 9.9s6.4-10.3-.8-9.9zM160.5 259.7a21.4 21.4 0 003.5.6l1.1-.6h1.9c.4.1 3 1.7 3.4 1.5s4.6-4 4.9-6l-4.6-2.4c-.3.7-2 1.6-2.6 2a6.8 6.8 0 01-3.7-.7 5.4 5.4 0 01-6.6-1.3 26 26 0 01-10.4-.5c1.4 3.7 5.8 6.5 8.7 8.8a10.3 10.3 0 014.4-1.4zM134.9 215.6c1 7.2 11.2 5 10.4-1.8s-12-5-10.4 1.8zM180.6 222.7c1 6.5 10.1 4.6 9.4-1.6s-10.8-4.5-9.4 1.6z"/><path fill="url(#e1769ede-cde8-4916-983b-8d55a9d47f15)" d="M186.9 219.7c3.6.1 3.6-5.6 0-5.5s-3.6 5.6 0 5.5z"/><path fill="url(#f99bc2ff-3e8f-4e1c-96c6-d2439f06245f)" d="M140.1 211.6c4.1 0 4.1-6.4 0-6.3s-4.1 6.3 0 6.3z"/><path d="M113.4 395.7l.6-3.6c1.3-.1.9 1.9-.2 1.3" class="ea4a49f0-4a98-467d-a5e6-09bca651ef0e"/><path d="M116.9 401.9c-2.6 4.1-9.7 1.6-8.8-3.3s5-5.2 7.7-3" class="ea4a49f0-4a98-467d-a5e6-09bca651ef0e"/><path d="M116.5 397.4l1.7-.7M117.3 397.1c1.4.5-.3 1-.5 1.1M116.9 398.8l1.4-.2M118.5 398.6h.3M116.9 399.4h1.4M117.9 399.5c.2.1.2.6.2.6M116.8 400.8c.2-.8 1.5-.2 1 .4s-1.3 0-1-.4zM116.9 396.4c0-1.7-2.2.3-.3.4" class="bf428db2-f1f4-413e-99e0-3527373f5035"/></g></svg>