<svg xmlns="http://www.w3.org/2000/svg" xmlns:xlink="http://www.w3.org/1999/xlink" id="e15a90fc-e56e-47d1-9a86-4e9822575161" data-name="Layer 1" viewBox="0 0 285 550"><defs/><defs><linearGradient id="aa9e0a40-9ac5-4fac-bc0a-28e9f2a956ef" x1="52" x2="169.3" y1="127.2" y2="127.2" gradientTransform="matrix(1 0 0 -1 0 552)" gradientUnits="userSpaceOnUse"><stop offset=".3" stop-color="#a2927f"/><stop offset=".5" stop-color="#9b8c79"/><stop offset=".9" stop-color="#897a6a"/></linearGradient><linearGradient id="a94fe871-c6f8-4149-a8fd-3cc95d2fd3fe" x1="73.5" x2="127.1" y1="86.4" y2="83" gradientTransform="matrix(1 0 0 -1 0 552)" gradientUnits="userSpaceOnUse"><stop offset=".5" stop-color="#f2b58d"/><stop offset=".6" stop-color="#efb189"/><stop offset=".8" stop-color="#e5a67c"/><stop offset=".8" stop-color="#de9e74"/></linearGradient><linearGradient id="f5a8270a-4edc-46df-a129-19088895693d" x1="124.3" x2="150.8" y1="89.1" y2="87.5" gradientTransform="matrix(1 0 0 -1 0 552)" gradientUnits="userSpaceOnUse"><stop offset=".1" stop-color="#de9e74"/><stop offset=".4" stop-color="#f2b58d"/><stop offset=".5" stop-color="#f0b28a"/><stop offset=".7" stop-color="#de9e74"/></linearGradient><linearGradient id="fe65b191-a355-4abf-b783-5cb44535d528" x1="103.7" x2="88.3" y1="60.9" y2="64.7" gradientTransform="matrix(1 0 0 -1 0 552)" gradientUnits="userSpaceOnUse"><stop offset="0" stop-color="#231c16"/><stop offset=".4" stop-color="#352920"/><stop offset=".8" stop-color="#33281f"/><stop offset="1" stop-color="#221b15"/></linearGradient><linearGradient id="aac4702e-4ccd-4505-80bd-a026c762ec8a" x1="134.9" x2="123.1" y1="54.6" y2="54.6" gradientTransform="matrix(1 0 0 -1 0 552)" gradientUnits="userSpaceOnUse"><stop offset="0" stop-color="#352920"/><stop offset="1" stop-color="#221b15"/></linearGradient><linearGradient id="ebfbe64b-64b0-4d25-b524-097b57be9df9" x1="144.4" x2="140.5" y1="73.4" y2="71.8" xlink:href="#aac4702e-4ccd-4505-80bd-a026c762ec8a"/><linearGradient id="ea9bb981-9079-45b5-bc2c-d92e7ac09c3a" x1="80.9" x2="125" y1="69.9" y2="69.9" gradientTransform="matrix(1 0 0 -1 0 552)" gradientUnits="userSpaceOnUse"><stop offset="0" stop-color="#293b60"/><stop offset=".3" stop-color="#27395c"/><stop offset=".6" stop-color="#233351"/><stop offset=".9" stop-color="#1b283f"/><stop offset="1" stop-color="#19253a"/></linearGradient><linearGradient id="b03fa697-4b85-4189-938c-a7a9e7d5cc6b" x1="125" x2="146.7" y1="76.1" y2="76.1" gradientTransform="matrix(1 0 0 -1 0 552)" gradientUnits="userSpaceOnUse"><stop offset="0" stop-color="#1a273d"/><stop offset=".3" stop-color="#293b60"/><stop offset=".6" stop-color="#27395c"/><stop offset=".8" stop-color="#223250"/><stop offset="1" stop-color="#1a273d"/><stop offset="1" stop-color="#19253a"/></linearGradient><linearGradient id="a111711f-b765-4916-95f2-a0d0237941f4" x1="113.6" x2="156.9" y1="179.8" y2="184.7" gradientTransform="matrix(1 0 0 -1 0 552)" gradientUnits="userSpaceOnUse"><stop offset="0" stop-color="#a91f18"/><stop offset=".1" stop-color="#c31e12"/><stop offset=".2" stop-color="#d81c0d"/><stop offset=".3" stop-color="#e01c0b"/><stop offset=".7" stop-color="#e01c0b"/><stop offset=".9" stop-color="#bf1e13"/><stop offset="1" stop-color="#a91f18"/></linearGradient><linearGradient id="be8d8101-a015-460d-b4af-09472ccd9ea6" x1="107.3" x2="150.3" y1="251.1" y2="255.9" xlink:href="#a111711f-b765-4916-95f2-a0d0237941f4"/><linearGradient id="e7fcfc58-e12e-4bd3-9772-c35e33bca064" x1="49.1" x2="216.2" y1="368.4" y2="309.5" gradientTransform="matrix(1 0 0 -1 0 552)" gradientUnits="userSpaceOnUse"><stop offset=".3" stop-color="#f2b58d"/><stop offset=".6" stop-color="#efb189"/><stop offset=".8" stop-color="#e5a67c"/><stop offset=".9" stop-color="#de9e74"/></linearGradient><linearGradient id="a298b772-ac2a-4f04-9807-07720ea80acb" x1="159.2" x2="153.4" y1="246.4" y2="236.9" gradientTransform="matrix(1 0 0 -1 0 552)" gradientUnits="userSpaceOnUse"><stop offset=".2" stop-color="#f2b58d"/><stop offset=".8" stop-color="#de9e74"/></linearGradient><linearGradient id="adbefaae-5ed8-4f7f-99cf-4c54340de11c" x1="100.5" x2="110.9" y1="242.3" y2="234.9" gradientTransform="matrix(1 0 0 -1 0 552)" gradientUnits="userSpaceOnUse"><stop offset=".3" stop-color="#f2b58d"/><stop offset=".7" stop-color="#de9e74"/></linearGradient><linearGradient id="aef92a31-dcef-4dd6-a933-69a8d94242c8" x1="93" x2="101.9" y1="246.2" y2="239.8" xlink:href="#adbefaae-5ed8-4f7f-99cf-4c54340de11c"/><linearGradient id="ff4db427-98fe-400d-8e44-d1b7d4357bd9" x1="94.4" x2="96.8" y1="254.2" y2="245.2" xlink:href="#adbefaae-5ed8-4f7f-99cf-4c54340de11c"/><linearGradient id="b2518edb-14a0-46b9-9bdc-762deb72a68d" x1="92.4" x2="93.8" y1="257.5" y2="252.3" xlink:href="#adbefaae-5ed8-4f7f-99cf-4c54340de11c"/><linearGradient id="e3a41553-5145-4297-a10e-46c918e0d24e" x1="86.7" x2="138.3" y1="511.9" y2="493.7" xlink:href="#a111711f-b765-4916-95f2-a0d0237941f4"/><linearGradient id="a122a80f-dea2-40e1-81f6-d13350898a96" x1="121.2" x2="157" y1="153.7" y2="153.7" xlink:href="#b03fa697-4b85-4189-938c-a7a9e7d5cc6b"/><linearGradient id="a6bd9bc4-ffc5-4074-a4ac-84d11ff5d9ca" x1="106.9" x2="146.6" y1="257.1" y2="257.1" xlink:href="#b03fa697-4b85-4189-938c-a7a9e7d5cc6b"/><linearGradient id="b5d05d94-dbed-4023-be58-21e4bcd0e5ca" x1="57.3" x2="172.4" y1="162.5" y2="197.5" gradientTransform="matrix(1 0 0 -1 0 552)" gradientUnits="userSpaceOnUse"><stop offset="0" stop-color="#293b60"/><stop offset="1" stop-color="#19253a"/></linearGradient><linearGradient id="b943ec90-8547-4781-b4cb-4ca807ffdb53" x1="17.5" x2="255.4" y1="398" y2="398" gradientTransform="matrix(1 0 0 -1 0 552)" gradientUnits="userSpaceOnUse"><stop offset=".3" stop-color="#efbd50"/><stop offset="1" stop-color="#ddab47"/></linearGradient><linearGradient id="ba1365b9-4f64-4d1e-9771-751ea108b418" x1="66" x2="85" y1="541.7" y2="492.5" xlink:href="#b943ec90-8547-4781-b4cb-4ca807ffdb53"/><linearGradient id="af238312-7cdb-4ee8-91da-8ab546e23f7d" x1="2" x2="25.8" y1="323.6" y2="337.7" xlink:href="#b943ec90-8547-4781-b4cb-4ca807ffdb53"/><linearGradient id="e43988f5-71d1-4861-8153-90d2a35c4e02" x1="118.4" x2="145.7" y1="367.2" y2="366.3" xlink:href="#b943ec90-8547-4781-b4cb-4ca807ffdb53"/><linearGradient id="a080c8fd-f744-429e-a18c-0e93193633bd" x1="210.2" x2="218.5" y1="345.6" y2="345.3" xlink:href="#b943ec90-8547-4781-b4cb-4ca807ffdb53"/><linearGradient id="fb3be520-1bb5-4506-9526-61994a019edb" x1="92.5" x2="118.1" y1="276.1" y2="200.9" xlink:href="#b5d05d94-dbed-4023-be58-21e4bcd0e5ca"/><linearGradient id="e198329b-2ffc-41e4-a2e1-683dfa06a9ee" x1="82.3" x2="104.6" y1="146.4" y2="205.1" gradientTransform="matrix(1 0 0 -1 0 552)" gradientUnits="userSpaceOnUse"><stop offset="0" stop-color="#293b60" stop-opacity="0"/><stop offset="1" stop-color="#19253a"/></linearGradient><linearGradient id="bc5a5a58-0897-44db-81a1-1a64568a935d" x1="146.4" x2="149.5" y1="252.6" y2="252.6" xlink:href="#b5d05d94-dbed-4023-be58-21e4bcd0e5ca"/><linearGradient id="aa2eedd4-26a5-4a2c-b72b-ec565a5670fe" x1="143.3" x2="168.6" y1="246.1" y2="198" gradientTransform="matrix(1 0 0 -1 0 552)" gradientUnits="userSpaceOnUse"><stop offset="0" stop-color="#bfad95"/><stop offset=".3" stop-color="#ae9c85"/><stop offset=".7" stop-color="#978570"/><stop offset="1" stop-color="#8e7c68"/></linearGradient><linearGradient id="a868bd53-4ea8-469d-92b7-3cf0106d8d0f" x1="66.2" x2="101" y1="282.2" y2="282.2" gradientTransform="matrix(1 0 0 -1 0 552)" gradientUnits="userSpaceOnUse"><stop offset="0" stop-color="#bfad95"/><stop offset="1" stop-color="#8e7c68"/></linearGradient><linearGradient id="bf120bb1-7025-402d-9338-bf2aeecb7636" x1="88.2" x2="70.7" y1="232.3" y2="205.9" xlink:href="#aa2eedd4-26a5-4a2c-b72b-ec565a5670fe"/><radialGradient id="f188f3b6-6f36-481e-bfdf-a6a4fdb5570b" cx="-348.5" cy="556.2" r="1" gradientTransform="matrix(-29.23 0 0 22.73 -10110.8 -12133.6)" gradientUnits="userSpaceOnUse"><stop offset="0" stop-color="#544438"/><stop offset="1" stop-color="#352920"/></radialGradient><radialGradient id="e0cc7347-1adc-467c-b727-64cff86433e5" cx="-353.5" cy="556.2" r="1" gradientTransform="matrix(-20.41 0 0 16.53 -7042.1 -8694.5)" xlink:href="#f188f3b6-6f36-481e-bfdf-a6a4fdb5570b"/><radialGradient id="b2eca87f-31ea-405c-aa9b-27f73e5e1cfe" cx="-380.1" cy="556.5" r="1" gradientTransform="matrix(-7.82 0 0 7.82 -2841.6 -4125.2)" gradientUnits="userSpaceOnUse"><stop offset=".7" stop-color="#4f6081"/><stop offset="1" stop-color="#324365"/></radialGradient><radialGradient id="afd13268-111d-4d96-a325-a52eb6de7abc" cx="-384.9" cy="556.6" r="1" gradientTransform="matrix(-7.04 0 0 7.04 -2533 -3673.9)" xlink:href="#b2eca87f-31ea-405c-aa9b-27f73e5e1cfe"/><radialGradient id="bf403657-2b65-46b5-bfd5-e342a935541e" cx="-456.3" cy="557.4" r="1" gradientTransform="matrix(-2.83 0 0 2.83 -1110.7 -1336.2)" gradientUnits="userSpaceOnUse"><stop offset=".8" stop-color="#fff"/><stop offset="1" stop-color="#fff" stop-opacity="0"/></radialGradient><radialGradient id="e8cdf68b-410d-446e-81e4-11e75a56170e" cx="-441.9" cy="557.3" r="1" gradientTransform="matrix(-3.21 0 0 3.21 -1286.7 -1568.2)" xlink:href="#bf403657-2b65-46b5-bfd5-e342a935541e"/><clipPath id="a0b6f251-1d27-4ae8-8cac-27d676b5235e"><path fill="none" d="M0 0h284.9v550H0z"/></clipPath><style>.e6b6e171-c2be-4610-b09e-fc1482959036,.ea0f9937-ff8b-4088-b516-aae16ed15df3{fill:none}.a51decc7-a1a7-46d6-ba90-9e80ae6a9284,.b1b74e7f-1fe7-4ee8-81d0-80449c201187,.e80dcd5f-e162-4a87-ad19-adcbd90acbfc{isolation:isolate}.f595b64e-c889-4965-982b-c031ce6898df{fill:#352920}.a1602ccd-3f22-4a76-b5d2-09b986ab787d{fill:#262626}.ffb0b6dc-a3cd-4431-bed6-4cbf4a989525{fill:#303030}.bb3c4420-7f74-40b5-a9fa-9fe0cde396df{fill:#161616}.a91d806c-87b7-4cb5-81e8-2e18e8f18970{fill:#a8a8a8}.e80dcd5f-e162-4a87-ad19-adcbd90acbfc,.ebf25e2a-2807-403e-b8f9-fbd1fc908fd5{fill:#fff}.a51decc7-a1a7-46d6-ba90-9e80ae6a9284,.eabd38ef-278d-4c03-9c12-e1dd868b704c{fill:#d88b64}.bb51876f-12cc-4b0a-8a65-c4bbcebe40c5{fill:#961a17}.fcab0f00-49e9-4845-bf71-1ff4e5a543b8{fill:#7e6e5b}.fabc823f-dc76-4d91-94b4-a119314aab73{fill:#77695c}.a51decc7-a1a7-46d6-ba90-9e80ae6a9284{opacity:.65}.a73e7148-b650-4256-b0b4-bcedadbb472d{fill:#162136}.e80dcd5f-e162-4a87-ad19-adcbd90acbfc{opacity:.15}.b1b74e7f-1fe7-4ee8-81d0-80449c201187,.bb583a7c-a2ce-46ed-a9ce-fd5367543cf0{fill:#db9e33}.b1b74e7f-1fe7-4ee8-81d0-80449c201187{opacity:.75}.e6b6e171-c2be-4610-b09e-fc1482959036,.ea0f9937-ff8b-4088-b516-aae16ed15df3{stroke:#fff;stroke-miterlimit:10}.ea0f9937-ff8b-4088-b516-aae16ed15df3{stroke-width:2.34px}.e6b6e171-c2be-4610-b09e-fc1482959036{stroke-width:1.88px}</style></defs><g clip-path="url(#a0b6f251-1d27-4ae8-8cac-27d676b5235e)"><path id="a1feaefc-2ad5-4d3c-9e8b-f4c79ec423df" fill="#ededf2" d="M95 514.3c-1.4-11.7 1.1-23.5 14.1-23.8l2.8-1.7-1.4-5.5c-2.4-9.7-2.7-10.1-1-10.7a4.3 4.3 0 010-3.3s-1-2 1.4-3.5c-1.5-3.1-9-25.6-9-25.6s-18.5-6.7-20.9-8.8-.2-8.1 1-13.2 5.9-29.9 5.9-29.9c-7.1-5.1-6.8-2.8-3.3-13.8 4.2-18 7-31.7 10.2-53.1-16.6-16.4-16-39.9 1-51.3-2.3-17.7-2.3-15.3 12.7-18.6l-2.6-3s-13.1-2.3-20-11.5a39.4 39.4 0 009.2 15.6c-6.7-1.1-29.4-20.1-36-33.6-6.2 5.6-27.2 6.9-27.2 6.9s14.9-12.1 16.8-19.7c-4.2 4.2-11.3 4.3-11.3 4.3a37.5 37.5 0 0012.2-17.6c-9-25.7-.6-84.6 12.2-104.4 0 0-3.1-18 .8-42.7 8.9-62.8 103.1-56.1 114-5.4a122.7 122.7 0 0191.5 51.3c17.6 29.9 20.1 69.2 9.7 95.4.2-12.9-5.8-34.3-5.8-34.3-2.1 29.3-32.4 71.7-51.9 93.1 8.9 29.5-15.5 44-35.9 41.6 0 0 24.7 12.7 28.7 19.6 9.3 18.6 6.7 32.2-19 38.3 2.2 8.8 9 31.6 8.9 39.9s0 8.9-8.8 16.7c2.7 21.5 11 31.3-12.8 39.8l-7.2 20s1.2 1 .7 3.9c2.2.1 1.3 5.6.4 6.8a1.9 1.9 0 012.1.3s7 .6 8.7 6.5 0 6.5 0 6.5c7.2-1.2 25 4 24.6 16.7 2.3-.1 3.3.6 3.2 3.2-.5 10.4 1.2 11-8.5 16.4-18.5 6.9-38.1 14.2-57.5 9.9-2.6 11.3-32.7 14.9-39.2 16z" data-name="shadow" style="isolation:isolate"/><path fill="url(#aa9e0a40-9ac5-4fac-bc0a-28e9f2a956ef)" d="M53.6 440.1c-3-.8-1-10.7-.6-11.2 1.6-9.1 5.4-23 6.4-32.1 20.7 19 32.8 22.4 60 26.7 3.6-2.4 2.2-9.3 2.5-13a58.7 58.7 0 00-.5-8.3 56.7 56.7 0 017 .6c8.4.1 21.9-2 28.8-6.6l.3 12.2c.3 1.5-1.5 7.1 1 7.3s5.7-3.8 7.5-5.8c.5 5.1 2 15.5 2.7 20.6s1.7 7.1-1.3 10.5c-13.6 15.9-45.8 11.9-61.3 11.8-10.7 1.3-31-3.5-41-7.6-3.1-1.3-9.1-2.6-11.5-5.1z"/><path fill="url(#a94fe871-c6f8-4149-a8fd-3cc95d2fd3fe)" d="M82.9 475.1c-3.3-7.6-7.5-19-9.4-27.1 9.5 5.2 44.1 4.8 53.7 5.4a292 292 0 00-3 14.1c-.7 4.4.2 5.6-3.1 11.5-5.8 9-35.9 8.1-38.2-3.9z"/><path fill="url(#f5a8270a-4edc-46df-a129-19088895693d)" d="M128.2 477.9l-3-.5a6.6 6.6 0 00-2.3-2.1c1.2-6.5 2.8-15.6 4.3-22.1a61 61 0 0026-3.4c-1.3 4.1-3.8 9.5-4.9 13.6a73.1 73.1 0 01-2.9 7.8c-1.8 4.4-12.8 7.4-17.2 6.7z"/><path d="M87.2 495.2l-4.4-.2.6 2.4c.6-.4 3.4-1.6 3.8-2.2zM115.6 503.1l1.5-.7.6-1v-1.1c-2.6-4.9-9.9-5.7-14.8-6.1a13.9 13.9 0 003.2 3.2 32.3 32.3 0 012.7 4.4c1.7 1.3 4.7 1.4 6.8 1.3z" class="f595b64e-c889-4965-982b-c031ce6898df"/><path fill="url(#f188f3b6-6f36-481e-bfdf-a6a4fdb5570b)" d="M124.5 481.6a3.4 3.4 0 011.8 1.3c.2 2.1-1 5.1-1.6 7.1l-1.2 6.6c0 1.8.3 5.3.4 7s1.7 5.7 1.7 8.4a64.6 64.6 0 01-13.6 18.5 15.8 15.8 0 01-8.2 4.5 44.7 44.7 0 01-9.5 2c-9.2-.2-20.3-2.5-26.2-10.1-3.4-7.1-3.3-17 1.7-23.4 3.6-3.4 9.7-4.3 14.4-4.4 2.6.4 8.2 1.3 10.6 2.2a35.2 35.2 0 004.9 2.2l.9-.2a7.7 7.7 0 002.6.7l.6-.7.2-1.6 2.2 1.8c.6 3.4.7 7.5 1.2 10.9l.7.8-.8 6.7.4.8h1.3l.3-.3.7-7.1c1.8-1.6.3-7.2.2-9.5l3.2 1.1c2.9 0 7.4-.3 8.5-3.5s-3.8-7.3-7.1-9-8.5-2.5-12.7-2.3c.9-3.1 3.4-3.1 6-3.6 5.4-1 12.5-1.5 16.4-5.8z"/><path d="M88.4 485.2c-1.9-1.5-4.9-2.9-6.9-4.2l-1.2.3-.6 1.3c.7 2.9 1.4 7.2 2.6 10a13.2 13.2 0 017.6-1.3c-.4-1.7-.4-4.8-1.5-6.1z" class="f595b64e-c889-4965-982b-c031ce6898df"/><path fill="url(#fe65b191-a355-4abf-b783-5cb44535d528)" d="M90.2 484.9l-1.7.5.7 1.9a14 14 0 00.7 4h2.3a2.9 2.9 0 012.2-.5l.6.5a10.3 10.3 0 012.5.1l.5.7 4.3-.4a10 10 0 012-2.5c-1.1-1.6-4.8-2.1-6.6-3s-5.7-1.2-7.5-1.3z"/><path fill="url(#e0cc7347-1adc-467c-b727-64cff86433e5)" d="M180.5 515.7c1.1-2.4 1.8-5.3 1.1-7.8l-1.1-4.1a17.7 17.7 0 00-4.5-5.3 26.6 26.6 0 00-18-4.1 27.2 27.2 0 00-12.8 2.8 25.2 25.2 0 010 12.2l-1.7.4-3.1 5.9c4.9 2.1 13.6 3.7 18.6 5.2 7.2 1.2 16.2.2 21.5-5.2z"/><path fill="url(#aac4702e-4ccd-4505-80bd-a026c762ec8a)" d="M135.9 514.9l2.8.6v-.8c.6-.6 3-5 3.5-5.8s.7-4.6.7-5v-4.1l-1.1-3.7-2.1 2-2.4 1.1h-2.6l-2.1-1.1c-2.3-3.8-.1-7.4 1.5-10.8 1.5-1.5 4.3-3.6 6.5-4 .3-9.1-7.7 1-15.6-3.9l-.4 1.8a3.2 3.2 0 001.4 1.2c1 1.8 0 4.2-.8 5.8l-.8 4.1c-2.3 5.2.6 15 1.4 19.2 1.4.2 2.1.3 2.3 2a8.6 8.6 0 002.8.3z"/><path fill="url(#ebfbe64b-64b0-4d25-b524-097b57be9df9)" d="M146.6 481.1c.1-1.7.8-4.6.2-6.3l-1.1-.5c-.7 0-2.5 1.4-3 1.8s-3.3 1.7-4.2 2.3v.6l1 .2c.9 1 .9 2.8 1.3 4l2.1-.3c.3-.6 1.6-1.3 2.1-1.6l.9.5z"/><path d="M184 526c1.3-.4 1.3-9.3 1.3-9.2.1-1.6-.1-4.2-1.3-5.5l-2-.6c.2 8.9-14.2 11.1-20.1 10.8a111.6 111.6 0 01-11.7-3.1c-2.8-.7-7.2-1.3-9.8-2.5-.3.6-2-.2-2-.5-2.9-.5-7.1-1.7-10.1-1.9a6.9 6.9 0 00-1-1.7l-1.6-.4c-.2 1.8-2.7 5.6-3.8 7.1-4.4 5.3-6.1 9.6-13.4 14.8-12.6 6.9-37 4.2-42-10.4-4.2.7-3.6 9.9-3.3 11.7-.2 15.8 38.4 16.3 46 13.2v-1.9l2.8.5 2.8-1.3a14.1 14.1 0 000-2.9l2.8.3c2.2-1.9 3.2-7.4 4.7-9.8a4.2 4.2 0 002.7.2l2.8-4.1.2-6.1h1.1l6.3 4.6a26.1 26.1 0 015.7 2.3l4.1-1.6 1.3.2a26.2 26.2 0 00-.1 2.8c-.1.3 5.9 1.1 6.2 1.2l4.5-2.2h.2l.4 2.8c5.7 1.8 22.3-1.6 26.3-6.8z" class="a1602ccd-3f22-4a76-b5d2-09b986ab787d"/><path d="M184 511.3c-2 12.1-16.7 13.4-27 11.6s-18.4-6.1-28.9-7.4v-2c9.3.9 20.8 4.9 29.9 7.1l5.2 1.1 4.6-.2c5.6-2 13.5-2.9 14.2-10.5zM125.7 511.4l1.3.3c-1.7 6.4-12.6 23.8-19.4 25.9-13.2 4.3-40 2.7-42.6-13.9l1.5-.8c3.8 13.6 27.5 16.7 39.8 11.5 6.7-3.7 9.1-7.1 11.9-10.9s7.4-8.2 7.5-12.1z" class="ffb0b6dc-a3cd-4431-bed6-4cbf4a989525"/><path d="M157.5 494.4l-3.4.2c2.3-3.2-.9-10.5-4.5-11-.1 1.6 1.3 3 2.1 4.2a11.7 11.7 0 00.4 3.2v2.4l.7 1.5a35 35 0 00-7.6 2.3c.4 1.5 1.5 10.4-.6 12.5a3.5 3.5 0 01-2.4-.8 14.1 14.1 0 01.5-4 18.8 18.8 0 00-1-8.8c-.9 2.7-9.5 4.9-10-.4-1-3.5 2.6-9.4 4.8-10.9l4-1.6v3c-1.8 1.2-4.3 3-5 5.2-.2.6-.6 2.5-.9 3.1a8 8 0 00.5 2.6 11.8 11.8 0 003.7-1.9c.3-.6 2-2.6 1.8-3.3a26.9 26.9 0 01-.3-4.9l-.7-.7v-3.1l3.4-.5 1.2-1.1h2l.5-.5c.4.1 2.3.1 2.6.5h1.7l2.5 1.1c3.3 3.1 6 6.9 4 11.7zM101.2 494v-1.9c7.5 0 17.6 1.8 20.5 9.8l-.4 3.1-2.6 1.6a14.2 14.2 0 01-8.4-.5c-.2 2.2.9 6.9-.1 9l-2.3.4-.8-.9a83.2 83.2 0 00-.8-11.2l-2.3-1.7-.2 1.6-.9.8c-1.4 0-5-1.5-6.3-2-4.2-1.4-11-3-15.5-3.1 1.3-1.6 4.7-2.3 6.1-3.8a17.5 17.5 0 00-9.1 1 2.8 2.8 0 001.5 2.8l-3.7 1.3-1.2-1.7c.4-2.2 2.5-4 4.5-4.8a27.8 27.8 0 015.6-2.4 20 20 0 016.9 0 5.1 5.1 0 012.7-.6l.5.4a3.9 3.9 0 012.4.1l.9.8a16.3 16.3 0 004.4-.3l-.2 2.4h-3.1l3.9.7c2.1 1.8 4.6 4.3 5.3 7.1l2.3.5s2.3 1.3 4 .9c7.2-1.4-.5-7.4-3.3-7.7-4.4-1.2-6.8-1.1-10.3-1.7z" class="a1602ccd-3f22-4a76-b5d2-09b986ab787d"/><path d="M140.5 485.9a13.7 13.7 0 00.5 5.7c-.1 1.6-3.7 5.6-6 5.2l-.7-.6c-.1-1.7 1-4.9 1.7-6.4s3.2-3.1 4.5-3.9z" class="f595b64e-c889-4965-982b-c031ce6898df"/><path d="M153.2 528.6a8.5 8.5 0 00-.3 3.5l3.9-2.1zM145.1 527.8c-.1.3-3.8 1.6-3.8 1.6-1.8-5 1.1-2.1 3.8-1.6zM124.5 533v-3.8a11.5 11.5 0 00-2.2 3.5c.3.4 1.8.3 2.2.3zM117.6 542.5l-.2-3.6-2.5 1.8.4 1.8zM112.3 546.7v-3.5l-3.1 1.2v1.5z" class="bb3c4420-7f74-40b5-a9fa-9fe0cde396df"/><path d="M109.3 522.4l.7-6.7-1.7-.2c0 .6-1.2 6.5-.8 6.9l.7.6zM140.1 515.8l3.4-6-1.5-1-3.4 6.1a1.6 1.6 0 001.5.9z" class="a91d806c-87b7-4cb5-81e8-2e18e8f18970"/><path fill="url(#ea9bb981-9079-45b5-bc2c-d92e7ac09c3a)" d="M81.1 481.1a5.8 5.8 0 010-3.2c0-.7.1-3.5 1.8-2.8 1.9 8.3 15.8 10.1 21.4 9.8s17.1-1.2 18.6-9.6c2.3.9 2.7 3.3 1.3 4.4l.5.6a19.4 19.4 0 00-.2 2.4c-3.7 4.7-15.1 5-19.9 6.5-1.2-1.5-4.5-2.2-6.2-2.8s-6.7-2.1-9.5-1.1a96.6 96.6 0 01-7.8-4.2z"/><path fill="url(#b03fa697-4b85-4189-938c-a7a9e7d5cc6b)" d="M126.6 480.1l-1.4-.6c-.3-.7.2-1.6-.2-2.3 5.7 2.9 17.1-.9 20.4-6l1.2.7c.3.6-.2 1.8-.4 2.4a4.4 4.4 0 00-3.5 1.8l-3.9 2.1-.2.6a20.9 20.9 0 01-5.5 1.8c-1.7 0-4.8.1-6.5-.5z"/><path fill="url(#a111711f-b765-4916-95f2-a0d0237941f4)" d="M121.2 398.7c5.5 1.4 12 .4 16.9.1a62 62 0 0018.9-4.9 215 215 0 00-6.6-41.5c-7.7-2.4-16.8-7.3-24-11a54.7 54.7 0 01-13 7.6c2.4 16.2 5.6 33.4 7.8 49.7z"/><path fill="url(#be8d8101-a015-460d-b4af-09472ccd9ea6)" d="M108.5 291.1c1 4.4 2.6 10.7 3.3 15.1a16.9 16.9 0 011.7 3.6c5.9-3.8 16.3-4.8 23.2-6.4 2.9-.5 8.2-1.7 10.9-.1a22.7 22.7 0 000-7.8h-.7c-.8 2.2-1.4 5.1-3.4 6.7-4.7.6-14.5 2.3-18.9 3.8-7.5-3.1-12-8.1-16.1-14.9z"/><path fill="url(#e7fcfc58-e12e-4bd3-9772-c35e33bca064)" d="M108.1 283.4c5 9.4 13.9 23.5 27 19.7 6.9-2.5 8.3-3.1 10.6-8.1 29.4 3.1 54-6.2 45.9-40.5 22-25.7 47.6-56.6 51-91.5-2.8 4.3-5.4 11.8-8 16.3s-15.9 20.1-21.3 22.4a13.9 13.9 0 014.7 4c.2 1.8 1.6 3.8-.8 5.6s-1.8.6-3-1.4a26.1 26.1 0 00-4.4-5.2 74 74 0 01-31.1 9.4l.3-.8c12-5.2 29.1-11.3 33.2-25.2-.4-.2-5.2 6.4-5.5 6.7l-7.9 6.8c-8.7 5.6-26.3 11.8-37.3 10.5 15-20 20.9-56.4 5.2-77 2.5 7.5-1.7 18.8-4.3 25.1-1.4 3.6-4 9.5-4 13.4-2.6-5.2-2.5-13.5-2.8-19.2l-.5.3a127.4 127.4 0 00-3.2 23c-10.1-12.9-12.2-37.6-7.8-52.9l-.9.3c-7 6.5-10.3 24.3-9 33.2l-9.1-10.9c-1.4-.8-12.7-20.7-12.5-22.6.2 38.6-5.1 47.7-23.7 80.5-3.1 7-9.3 16-7.5 24.1-7.5-7.4-7.7-30.1-6.9-39.1l-.6.3c-1.7 3.2-1.6 9-1.6 12.6a87.8 87.8 0 001.7 17.7c-4.2-5.9-6.6-16.4-8.2-23.3-.1-1-1-9.1-1.4-10.1-31.2-6.2-33.7 52 2.8 51.9 1.9 10.3 15.3 23.7 22.5 30.5a77.7 77.7 0 0010.3 8.7 59.5 59.5 0 018.1 4.8z"/><path fill="url(#a298b772-ac2a-4f04-9807-07720ea80acb)" d="M149.5 304.5c4.2 1 5.9 13.7 5.4 16 2.4-1.2 5.5-2.5 7.9-3.5.9-4.9-7.1-15.3-13.1-13.2z"/><path fill="url(#adbefaae-5ed8-4f7f-99cf-4c54340de11c)" d="M98.5 315.7s.8-4.4 2.6-6.9c2.5-4.9 12-5.2 12.2.4-.8 3.7-2.1 5.9-3.1 8.4a16.1 16.1 0 01-2.3 4.3 6.2 6.2 0 01-9.4-6.2z"/><path fill="url(#aef92a31-dcef-4dd6-a933-69a8d94242c8)" d="M105.3 303.3c-3.2-3.9-12 .5-13.5 4.3-2.7 6.4-.7 11.4 6.7 10l.2-3.8 1.8-4c1.2-2.2 3.6-4.5 6.2-4.7v-.6z"/><path fill="url(#ff4db427-98fe-400d-8e44-d1b7d4357bd9)" d="M88.2 307.4c-.8-3-.4-4.8 1.5-7.3s7.5-4.3 11.4-3.4l2.1 1.7a29 29 0 011.2 4.2c-2-1.1-4.9-.8-7 0s-4.2 2.4-4.7 3.6l-1 1.5-.5 1.5-1 1a8.4 8.4 0 01-2-2.8z"/><path fill="url(#b2518edb-14a0-46b9-9bdc-762deb72a68d)" d="M88 303.4l-1.2-1.5-.4-2.2.8-2.2 2.5-2.1 3-1.3 3.6-.5a16.2 16.2 0 014 1.9v.9a13.1 13.1 0 00-8.2 2.1l-2.1 1.4a12.2 12.2 0 00-2 3.5z"/><path d="M128 244.1c-11.2-2-10-20.9-6.6-28.9 1.7-7.5 12.1-14.4 19.7-10.3s6.3 23.7 3.2 29.9-9.6 11.3-16.3 9.3zM170.6 256.6c-7.7-9.5 2.4-32.9 16.4-32.7 12 .8 6.4 21.4 3.2 26s-13.7 12.3-19.6 6.7z" class="ebf25e2a-2807-403e-b8f9-fbd1fc908fd5"/><path fill="url(#e3a41553-5145-4297-a10e-46c918e0d24e)" d="M81.8 53.5c6.4-18.6 49.6-20.4 60.4-5.4-18.5-1.5-42.6-2.2-60.4 5.4z"/><path fill="url(#a122a80f-dea2-40e1-81f6-d13350898a96)" d="M121.6 402.2l-.4-3.3a73.3 73.3 0 0035.8-5 8.3 8.3 0 01-.3 2.7 60.4 60.4 0 01-35.1 5.6z"/><path fill="url(#a6bd9bc4-ffc5-4074-a4ac-84d11ff5d9ca)" d="M108.5 291.3a47.7 47.7 0 01-1.6-7.5h2.1c0 2 3.3 6.6 4.4 8.2 4 4.8 7.6 10.5 15.3 11.7s10.2-.9 14.2-4.6a25.7 25.7 0 002.1-2.4 8 8 0 01.4-1.8l1.2.3c.1 2.6-1.6 5.4-3.4 7.3-6.2.1-13 2.5-19.1 3.5l-.2-.4c-5.5-1.3-12.8-9.9-15.4-14.3z"/><path fill="url(#b5d05d94-dbed-4023-be58-21e4bcd0e5ca)" d="M157.5 415.6c0-20.5-1-43-7.5-63.4a152.6 152.6 0 01-15.6-6.7c-2.4-1-5.5-3.7-8.1-3.3-3.8 2.4-8.5 6.1-12.9 7.1.1 10.3 15 69.2 5.4 74.1-32.7-5.5-40.2-9-64.6-31.2 4.3-20 9.6-41.8 12.1-62.2a60.6 60.6 0 018.9 7.9c14.9 11.3 35.5 18.1 51.1 3.6 7.5 5 28.2 13.8 39.1 12.4 3.9 11.8 9.6 33.1 9.1 46.1 0 0-.3 2.6-1.8 3.3s-6.7 6.6-6.7 6.6c-2.1 2.1-5.2 5.7-8.5 5.7z"/><path fill="url(#b943ec90-8547-4781-b4cb-4ca807ffdb53)" d="M83.9 215c18.9-36.5 29.9-47.4 28.5-91.1a98.6 98.6 0 0021.8 34c-1.6-7.4 2.2-27.1 9.9-33.1a5.5 5.5 0 000 1.9c-5.6 12.9-.4 39.4 7 50.7l.9-1.2c.6-7 1.2-15.5 3.6-22.1.4 5.9.1 13.5 2.7 19 2.4-12.2 11-24.5 8.8-37.6 15.1 19.5 8.8 58.3-5.6 76.6a62.3 62.3 0 0050.4-23.1c-1.1 6-9 12-13.8 15.3-3.2 1.8-9.7 5.1-13.1 6.5-1 .5-5.8 2.1-6.3 3.3a82 82 0 0019.6-3.9c2.8-1.5 9.6-5.1 12.5-6.2l13-10.3 8.6-10.1a157.8 157.8 0 008.4-17.6c1.2-.7 2.4-4.4 2.9-5.6a117.6 117.6 0 014.5 21.2l.8 12.8.4.8c11.9-33.8 6.3-77.2-18-106.1-36.2-39.3-105.2-52.8-154.9-33.5-46.7 21-62.2 76.3-58.5 123 2.4 32.3 16.5 69.6 48.6 82.5A26.6 26.6 0 0159 251c-2.5-6-1.9-5.8-1.9-5.8 2.7 3.9 14.3 12.6 20.7 12.3a51.7 51.7 0 01-10.6-18.4c-35.8.8-35.3-56.7-2.9-51.8.5 6.2 2.9 16.1 4.5 22.1 0 0 1.7 6.8 4.8 10.8-.7-6.9-3-24.5.9-32.2-.8 10.7-.1 34.8 6.9 41.4-1.8-4.5 1.5-10.4 2.5-14.4z"/><path fill="url(#ba1365b9-4f64-4d1e-9771-751ea108b418)" d="M32.6 98.9c-1.7-24.1-2.6-63.3 22.1-80 32.8-21 83.2-8.9 93.4 30l-6.3-.8c-10.5-15-52.9-13.4-59.9 5a94.5 94.5 0 00-49.3 45.8z"/><path fill="url(#af238312-7cdb-4ee8-91da-8ab546e23f7d)" d="M3.4 233.7c9 .4 19.5-3.3 27.7-6.3-3-3.1-9.4-23.9-9.6-26.9a41 41 0 01-9.9 17.4 41.8 41.8 0 008.8-3.6c-3.1 8-9.8 14.9-17 19.4z"/><path fill="url(#e43988f5-71d1-4861-8153-90d2a35c4e02)" d="M120.1 188.8a4.4 4.4 0 01-2.8-.5l-.2-.9c3.1-3.9 12-6 18.9-6 3.7.2 8.7 1.3 9.4 3.7s-.1 2.8-1.9 4.3c-5.7-1-13.1-2.2-18.9-1.6a24.2 24.2 0 01-4.5 1z"/><path fill="url(#a080c8fd-f744-429e-a18c-0e93193633bd)" d="M209.8 204.7l4.2-3.2c2.9 1.7 5.8 5.4 3.8 9.3a4 4 0 01-2.1.9l-1.1-1-.4-1.7c-1.3-1.3-3-3.1-4.4-4.3z"/><path fill="url(#fb3be520-1bb5-4506-9526-61994a019edb)" d="M56.4 315.1c-4.5-13.4-2.2-27.7 10.1-36.1 2.6-2.3 16.9-1.2 18.7-1.1 6.1 1.1 16.7.5 21.7 4.7.7 7.7 4.4 16.3 5.2 24l-2-1.5h-3.2a8.4 8.4 0 00-2.8-2.5 6.9 6.9 0 00-3.8-6.1v-.5c-1.9-2.7-5.5-2.6-8.3-1.8s-6.3 3.3-5.2 7.8l1.2 1.5a9.5 9.5 0 00.8 5.5 16.3 16.3 0 012 1.7c-.6 5.7 1.9 8.2 7.7 7 .1 4.7 9 8.2 11.2 1.2 1.8-4.5 3.2-6.6 3.6-9 6.4-3.7 16.8-4.8 23.9-6.6 13.7-3.5 18.1 5.7 17.7 17.6-14.2 5.9-24.9 19.6-38.4 26.9-8.5 4.9-25.8 2.1-34.3-5-13.4-10.9-20.3-14.4-25.8-27.6z"/><path fill="url(#e198329b-2ffc-41e4-a2e1-683dfa06a9ee)" d="M60 366.1c2.3-10.5 4.8-25.4 6.3-36.1 13.5 12.4 26.8 23.4 47.1 19.3 2.4 17 6.6 38.1 8.3 55.2l.8 9.2-1.8 8.3-1.3 1.5c-33.7-6.3-38.1-7.8-64.1-30.1 0 0-1.8-.4-.6-4.4 1.9-7.6 4.3-18.9 5.3-22.9z"/><path fill="#f44040" d="M94.9 410.9c-1.4 0 .2-5 0-5.1l1.2-12c.3-1.1 5.7.5 5.5.4 2.8.7 9.7.7 11.4 3.5-.8 5.9-.5 11.1-2 16.6-.8.7-3.6-.5-4.4-.7-3.6-.8-8.1-2.1-11.7-2.7z"/><path fill="url(#bc5a5a58-0897-44db-81a1-1a64568a935d)" d="M147.6 295.5a17 17 0 010 7.1c1.1 1.2 1.2 1.8 3 1.2 0 0 .3-5.6-1.1-7.8s-1.9-.5-1.9-.5z"/><path fill="url(#aa2eedd4-26a5-4a2c-b72b-ec565a5670fe)" d="M150.6 303.8c.5-.1-.5-8.1-1-7.7h6.1c3.5 1.6 10.9 5.7 14.3 7.5 25.8 13.5 27.5 45.9-6.3 50.4-17.1-1.1-24.3-6.3-37.4-12.4 10.5-9.4 22.9-19.7 36.5-24.3l.3-.8c-.7-3.6-.6-4.2-3.7-8.4s-4.8-3.8-8.8-4.3z"/><path fill="url(#a868bd53-4ea8-469d-92b7-3cf0106d8d0f)" d="M80 260.1c-14.6 2.4-15.3 2.4-12.7 18.5 6.5-2.9 29.1.8 33.7 1a194 194 0 01-21-19.5z"/><path fill="url(#bf120bb1-7025-402d-9338-bf2aeecb7636)" d="M62 313.5c-9.6-11.4 12.2-21.8 16-10.1l-3.2 1.5c-2.7-7.1-16.3-.4-10.2 6.2zm3.3 4.2a26.1 26.1 0 015.6-4.6l3.2 4.4s-4.9 3.3-6.1 4.9l2.5 2.6c-.9-.1 14.2-11.2 13.9-10.6l-2.1-2.4a33.1 33.1 0 00-5.8 3.2l-2.4-4.2a34 34 0 015.9-3.2l-1.6-2.6a57 57 0 00-15.4 10 24.9 24.9 0 012.3 2.5zm11.3 12.5A71.2 71.2 0 0187.2 319l-2.6-2.9c-1.9 1-9.6 7.3-12.1 10.9zm13.7 9.3a7.2 7.2 0 00-.1-4.6c3.7 1.8 7.3-3.6 5.3-7-.8-1.8-5.2-5.4-7.3-7.3-2 1.2-8.6 7.8-10.1 12.3l.5.4c-.9 1.7 2.4 2.8 3.2 3.6l.6-1.2-.3-.7a11 11 0 012.3-3.6c2.1.2 3 4.2 1.6 6.4l.4.2a3 3 0 00-.3 1.2 23.4 23.4 0 003.8 2.1 1.8 1.8 0 01.8-1.5zM86.1 329c0-1 2.6-3.3 3.1-3.5 4.3.9 3.3 9.7-3.1 3.5zm19.6 17.4c8.3-1.6 10-15.5 1.2-18.4-13.5-3.2-15.7 20.5-1.2 18.4zm-4.3-4.7c-4.4-2.9.9-13.5 5.8-8.4 3.3 3.9-.9 11.8-5.8 8.4z"/><path d="M217.7 205a62.8 62.8 0 0015.2-15 79 79 0 01-6.9 18.8c12.8-25 12.6-23.5 16.3-43.7l-.9.3a72.8 72.8 0 01-28.1 36.3 20.3 20.3 0 014.4 3.3zM117.1 188c2 5.4 6.6 0 14.4 1.8s15 2.8 14.6-2.2c-2.6 3.3-11.9-.4-15.7.1-6.9.2-7.3 1.3-12 1.2z" class="eabd38ef-278d-4c03-9c12-e1dd868b704c"/><path d="M114.3 355.2c5.8-.9 13.2-7.5 13.2-7.5s5.6 6.5 24.5 10.3a27.8 27.8 0 00-2-5.8c-6.8-2.3-17.5-6.8-23.6-10.8-3.4 2.9-8.4 7-13 7.6v3.3z" class="bb51876f-12cc-4b0a-8a65-c4bbcebe40c5"/><path d="M153.9 395.1c-.5-7.3-2.9-34.7-6.5-39.9l3.7.3a227 227 0 015.9 38.4zM115.9 354c.6 1.9 7.1 44.7 6.8 45.1l-1.5-.2c-.6-11.6-6.5-34.6-7.1-46.1zM110.8 294.4c1.1 3.1 3.7 12.5 3.7 12.5s7.4-1.9 10.4-1.1c-2.7.7-10.4 3.5-11.6 3.4a7.2 7.2 0 00-1.3-3c-.5-1.5-1.1-5.4-1.4-7s-1.9-5.8-1.8-7.5zM144.4 301.3a6.1 6.1 0 013.5.5l-.3 1.5a11.3 11.3 0 00-4.1-1.1z" class="bb51876f-12cc-4b0a-8a65-c4bbcebe40c5"/><path d="M153.7 321.2c-4.1 1.4-22.7 18.3-18.8 21.1 5.4 4.1 24.5.6 8.3 4.1 13.3 7.8 42.8 4.6 46.2-14.7 2.9 14.9-22.7 23.6-31.3 21.9l-8.1-1.4-11.2-4.5c-2.7-1.2-10.2-4.4-12-6.7 8-6.8 17.5-15 26.9-19.8z" class="fcab0f00-49e9-4845-bf71-1ff4e5a543b8"/><path d="M163.9 349.3c4.4.1 18-8 17.6-10.8-1.3 1-4.6 4.2-8.7 6.3s-10.9 4.7-8.9 4.5zM172.3 318.5c4.2.8 11.1 5.3 9.5 10.1-.4 1.6 3.9-3.5-1.1-7.8s-9.8-2.4-8.4-2.3zM157.5 306.2c3.1.9 6.6 7.6 6.6 7.6a11.1 11.1 0 013.3-1.3 2.5 2.5 0 00-1.5 2.7s4.5.2 2.5.4a56.5 56.5 0 00-5.5 1.4c0-3.9-2.6-8.2-5.4-10.8zM78.2 260.4c-4.9 1-11.6 2.3.5 7.9s12.9 6.3 14.1 6.9-2.9-.1-1.1 2.9a40.3 40.3 0 006.2 1.3l.8-.7a50.8 50.8 0 00-7-6.9c-3.6-3.3-8.5-8.1-11.7-11.7zM70.5 271.6c2.3 1.6 10 3.4 12.1 3.4s-1.4-.6-5.1-1.7-9.6-3.5-7-1.7z" class="fcab0f00-49e9-4845-bf71-1ff4e5a543b8"/><path d="M59.1 399.3c12.1 13.8 35.6 28.4 59.2 27.8 4.1 0 7.1.4 7.2-1.7a73 73 0 00-1.9-20.9c3.9 2.4 28.5-2.8 31-4.8 0 0 .2 8.1 0 13.3-1.7 11-.4 13.9 9.9 5.3 1.5 3.4 4.4 20.4.2 25.3 5.6-2.8 4.7-10.1 3.9-13.9-.8-5.6-1.9-13.6-2.5-19.2h-.5a22.9 22.9 0 01-4 3.6l-2 1.2-1.5.2-.6-.6c-.2-5.4.5-13.4-.3-18.7a64.6 64.6 0 01-35.7 5.9c.4 6.5 1.6 14.1-.8 20.3l-1 .6a107 107 0 01-36.9-9.1c-7.4-3.5-16.8-11.6-23.1-16.8z" class="fabc823f-dc76-4d91-94b4-a119314aab73"/><path d="M160 424.5c-.4 1.1-9 19.5-9.1 19.1a47 47 0 009.1-19.1zM160.9 420.9c.7.6-.2 15 .6 9.8.8-7.3.7-6.2.7-11.1zM128.5 427.4c4.7-10.2 1.9-4.1-4.6 2.5-4 4.1-15 12.8-11.2 10.9a61.5 61.5 0 007.2-4.7 47.2 47.2 0 008.6-8.7zM142.3 403.5c-.8.1-2 13.3-2 11.6l.6-11.9z" class="fabc823f-dc76-4d91-94b4-a119314aab73"/><path d="M139.2 404.1c-1.2.2-1.2 15.6-1.5 10.3s-.1-8.3.1-10.5c2.4.2 2.6.1 2.9 4.3s.2-4.6.2-4.6h-1.3M140.4 414.4c.2 1.6.3 2.3-.8 2.6-.1-1.3.6-1.6.8-2.6zM62.5 407.5c.2 1.3 7.8 20.1 8.1 21a47 47 0 01-8.1-21zM68.8 435.2c-2.2-2.4-2.9-2.7 0-.6s10.9 9 4.6 4.5-4.6-3.9-4.6-3.9z" class="fabc823f-dc76-4d91-94b4-a119314aab73"/><path d="M90.5 456.3c1.4 7.2 10.3 7.7 6.5 5.7a6.5 6.5 0 01-3.4-2.5 13.4 13.4 0 01-3.1-3.2zM102.9 462.2c2.2.9 8.6-1.7 9.3-4.2a35.4 35.4 0 01-9.3 4.2zM143.5 455.4s.6 2.4 1.8 3.1 2.3.3 1.4-.2a10.2 10.2 0 01-3.2-2.9zM148.3 458.6c.7.2 2.1.3 1.6-1z" class="eabd38ef-278d-4c03-9c12-e1dd868b704c"/><g opacity=".7"><path d="M170.3 195.7a98 98 0 01-8.3 16.1 60.4 60.4 0 0042.4-15c1.4-1.6 6.1-6.9 7.8-8.1-2.1 7.3-13.6 16.3-20.7 19.1-4.2 1.7-10.6 5.6-15.1 5.8l4.9.4a83.3 83.3 0 0028.2-9.4c2.9 1.6 4 5 6.6 7.1-.8.2-3.2-.3-3.9-1.7s-.6-.7-.6-.7c-9.4 11.2-36.9 12.8-48.9 9.8a26 26 0 007.2-1.4c-5.4.9-15.3-1.8-15.3-1.8 11.9-12 19.2-48.8 15.1-62.1 1.6 5.6-9.8 25-8 31.4-3.2-2-6.3-8.2-6.6-12.2a51 51 0 00-1.4 15c-8.6-7.1-15.6-33-14.5-43 0 0-3.2 15.6-1.5 23.4-3.4-1.3-14-9.6-21.1-19.6 5 24.3-37.8 62.6-32.2 84.8-4.5-.9-7.7-6.6-7.7-6.6a21.3 21.3 0 002.1 4.3c-7.1-3.3-17.4-35.5-17.2-44.4a13.8 13.8 0 012.8.6c1.4 10.2 3.1 23.4 9.4 33.1-.9-9.2-3.1-21.3.1-30a5.4 5.4 0 00.5 3.3c-.3 2.5.1 10.3.1 12.9.6 5.3 1.7 13.5 4.1 18.4.3.5 1.6 3.7 2.4 3.7 0-13.6 12.9-31.4 18.9-43.5 2.3-4.9 6.8-15 8.9-20 3.6-12.1 3.5-28.7 3.6-41.3.8 2.9 8.2 16.3 9.7 19.2 3.3 4 8.1 10.9 12.1 14.3-1.1-10 1.9-26.3 10.2-33.5-5.7 13.7-1.4 42 7.1 53.8.5-3.9 2-18.4 4-24.5.1 5.4.8 14.6 2.8 19.6 2.2-12.1 12.1-25.4 8.3-38.2 12.4 15.4 10.5 44.6 3.7 60.9z" class="a51decc7-a1a7-46d6-ba90-9e80ae6a9284"/><path d="M118.9 228.4c-.8-40.3 41.4-31.4 25.6 5.7 12.6-35.4-23.2-43.5-25.6-5.7zM168.4 244c7.5-36.3 42.4-23.5 20 8.2 2.8-2.9 7.2-13.3 5.6-22.1s-13.5-7.8-19.9.9-5.7 13-5.7 13zM136.3 279.7c2.4 6.9 12 7 16.2 3-4 2.1-13.1-.1-16.2-3zM137.9 252.2c8.7-10.3 35.2-6.4 26.8 12.4 3.1-14.6-14.7-16.6-21.5-14.8zM51.8 205.8s7.1 1.4 7.8 3.6a9.8 9.8 0 00-2.1 9.5c.5 1.5 2-5 6.2-4 1.7 2.8 2.6 9.9 2.6 9.9s-4.7 4.8-1.2 8.1c-2.6-7.7 5.4-4.4 4.7-9-.8-6.3-5.5-14-10.2-17.8l-3.1-.9a15.2 15.2 0 00-4.7.6zM112.2 290.4c4.5 3.2 14 8.1 27.4 8.1A16.6 16.6 0 01121 300c7.5 6.8 22.2 2.9 24.6-4.7l-1.2-1c-10.1-1.9-26.7-4.8-35.4-10.5-.3 2.2 2.1 4.9 3.2 6.6zM149.5 304.5c3.5 2.1 6.8 5.1 6.7 13.8 1.2-1.3 6.6-2.1 6.6-2.1v1.1c-2.3.9-5.8 2-7.9 3.5a27.4 27.4 0 00-2.5-13.5zM127.2 453c-10.2-.5-21.7 0-31.9-.6l-10.5-1.2-11.7-3.3 1.1 3c14.1 6.1 37.5 6.7 50.2 5.9-.4 3.2-2.5 14.3-3.4 18.3s-1.6 6.2-7.4 7.6-24.9.8-28.8-3.9l1.8 1.9 2.9 1.4c4.4 2.8 12 2.8 17 2.7l7.3-1 5.3-2.6c1.3-.9 3-4.2 3.7-5.6l1.4.6a3.2 3.2 0 001 1.3l4.6.6c2.6-.2 7.8-1.2 10.1-2.5l3.7-2.4 2-2.8c-1.8 4.1-15.6 8.5-19.3 6.3a3.2 3.2 0 00-.4-1c-.5-.8-2-.9-1.7-1.9s3.2-14.2 3.7-17.1c.3.9 21.1-.8 21.8-2.7 0 0-.6 3.9-1.2 4.2s0-.2-.5 1.6c-1.5 5.8-3.9 13.6-10.1 16.1-2 .9 1.9-.1 3.5-1.1 5.2-2.8 6.2-9.9 7.8-14.3.5-1.6 1.8-4.9 2.5-6.4s1.3-2.9 1-3.7-6.4 1.6-7.2 1.8c-4.9.6-13.5 1.5-18.3.8zM98.6 315.7c-.4 5.8 8.9 8.6 11.3 2.1-.9 5.8-7.1 6.1-10.5 3-.8-.9-.8-4-.8-5.1z" class="a51decc7-a1a7-46d6-ba90-9e80ae6a9284"/><path d="M90.8 313.3c.1.7 2.8 4.5 6.6 3.1a19.7 19.7 0 014.2-9.2c-.7 2.3-2.2 5.1-2.9 7.1a9.9 9.9 0 01-.2 3 8.3 8.3 0 01-5.6-.1c-1.5-.8-1.9-2.4-2.1-3.9zM87.9 305.6a4.1 4.1 0 002.7 2.6c.5-1.2 2.4-4.6 6-5.5-4.7 4.3-4.3 3.4-5.7 7.5-1.9-.5-2.6-3-3-4.6zM86.8 299.5a3.4 3.4 0 001.1 1.5s2.8-3 6.1-3.7c-3.8 2.4-4.3 2.3-5.7 5.4l-.6.3a3.3 3.3 0 01-.9-3.5z" class="a51decc7-a1a7-46d6-ba90-9e80ae6a9284"/></g><path d="M114 355.2c-13.2 5.4-36.7.6-43.1-10.8 0 0 7.2 18.2 7.4 20.7s-4.5-7.3-7.4-13.2-3.1-2.3-1.8 3.1c2 8.7 4.8 20.7 6.9 26.6-2-5-14.6-38.3-10.5-44.8l.8-6.8c11.7 11.4 29.4 24.1 47.1 19zM151.6 357.6c3.8.8 11.1 2.5 15.4.4l-1.4-3.5c-4.4-.5-11.3-1.3-15.6-2.3a20.9 20.9 0 011.6 5.4z" class="a73e7148-b650-4256-b0b4-bcedadbb472d"/><path d="M165 373.6s.3-12.8-2.9-15.6c5.3-4 4.7 14.3 2.9 15.6zM164.3 378.7c-2.2-5.3-2.3-5.9-1.3-1.3s2.7 17.4 3.2 20.9 2.2 2.9 1.2-5.6c-1.6-11.8-2-9.2-3.1-14zM154 395.1l.4 2.9 2.6-1.8v-2.6a10.5 10.5 0 01-3 1.5zM122.5 399.1a23.4 23.4 0 00.7 3.3l-1.6-.2-.5-3.1zM101.1 373.7c-8.3-.6-15.4 20.1-17.3 25.5 7.9-7.6 8.3-22.6 17.3-25.5zM57 316.6c13.3 17.1 43.2 44.3 67.9 21.3 11.2-7.9 23.1-17.5 30.2-19.2l-.2 2.1-5.7 3c-9.7 6-19.7 15.8-29.2 21.9l-9.8 3.8c-7 2.4-30.9-4.1-34.7-11.6l-8.4-6.6c-3.3-3.9-8.2-10-10.1-14.7zM147.9 301.8a16.7 16.7 0 002.8.8v1.1l-1.4.4-1.7-.7zM113.3 310.3c-.5 1.5-1.8 10.6-4.3 12.8s-8.7 5.4-11.6-3.1c-2.8 1.4-7.6-.1-7.7-7.5-1.9-.6-3.3-4.7-2.9-8-1.2-.6-1-3.5-.4-4a9.4 9.4 0 001.4 2.9c0 2.9.2 5.1 2.8 6.9-.4 5.2 2.6 9.3 8 7.1l.5 2.4 1.2 1.3 1.5 1.1 3.1.6 1.5-.6s1.6.2 2.6-1.9l4.3-10z" class="a73e7148-b650-4256-b0b4-bcedadbb472d"/><path d="M115.1 314.1c.7-.5 1.7 20.1 2.4 11.5s-.2-6.7-1-10.2zM114.5 311.9c0-.1 13.5 5.4 8.8 2.2s-4.8-2.3-8.4-2.5zM65.5 321.8c5.3 7.6 18.7 20.4 30.8 19.7a62.9 62.9 0 01-30.8-19.7zM109.1 345.2c1.7-.1 7-1.6 9.7-3.8s4-4.8 3.1-4a23.3 23.3 0 01-11.7 6.5 5.7 5.7 0 01-1.1 1.1v.2z" class="a73e7148-b650-4256-b0b4-bcedadbb472d"/><path d="M109 345.1a30.5 30.5 0 01-5.1-.9c2.2 0 4.6.1 6-.4v.3a2.9 2.9 0 01-.9 1zM86.3 338.2a2 2 0 00-.2 1.1c.6.4 1.2.7 4 1.3l.3-.6zM78.6 333.6a1.3 1.3 0 00-.1.9l3.3 2.4.5-.9z" class="fcab0f00-49e9-4845-bf71-1ff4e5a543b8"/><path d="M86.6 299.1h.8A3 3 0 0189 301l1.5-1.6c-.1-1.1-.6-2.8-1.9-2.9a6.3 6.3 0 00-2 2.6zM87.8 305a6.3 6.3 0 013.2 1.2c.2.7.6-.1.8-.3a2.9 2.9 0 00-.4-3.9 3 3 0 00-2.3-.1c-1.1.4-1.1 2.2-1.3 3.1zM90.6 312.9v-1.5c2.6-3.9 7-1.4 5.7 2.9H96a7.4 7.4 0 00-3.8-1.2 4.1 4.1 0 01-1.6-.2zM100.7 317.1c-.2-1 .3-1.6 1.1-2.8 2.8-3.3 7.7 2 5.2 4.7-1.8-1.2-4.3-1.4-6.3-1.9z" class="e80dcd5f-e162-4a87-ad19-adcbd90acbfc"/><path fill="url(#b2eca87f-31ea-405c-aa9b-27f73e5e1cfe)" d="M138.9 230.7a7.8 7.8 0 00-12.9-8.2c-7.1 8.7 6.4 21.4 12.9 8.2z"/><path fill="url(#afd13268-111d-4d96-a325-a52eb6de7abc)" d="M182.4 245.8a7 7 0 00-11.5-7.4c-6.5 7.9 5.7 19.3 11.5 7.4z"/><path d="M109.6 87c-7.1 21.8 3.2 44.8 1.6 65.4 2.5-20.6 2.1-25.8-.9-37.5-.9-7.7-1.4-20.2-.7-27.9zM245.5 143.1c2.3 16.2 4.8 34.9 3.8 52.6l-.3-1.3c-1-11-1.2-24.5-5.9-34.5 1.7-4.5 2-12 2.4-16.8zM212 206.8l-2.5-2.2 4.7-2.4s2.2 1.6 3.5 2.8a37.9 37.9 0 01-3.5 2.5c-.2-.1 2.9 5.5 3.5 3.4-3.1 2.7-3.9-3-5.7-4.1zM117.3 187.2c.2 1.1 2.7.3 6.4-.4a36.9 36.9 0 0114.1 0c5.3.9 7.1 1.7 7.9.5-.8 4.4-14.1-.8-16.9.3-4.9.6-8.5 1.4-11.5 1.1l-.2-.5zM65.7 164.6a96.8 96.8 0 00-4.1 19.7c-22.7-5.5-30.2 32.3-15.9 47 9.4 12.8 20 25.5 32.1 26.2a43.1 43.1 0 01-10.4-17.6c-39.6-3.2-31.4-58.9-3-52.4-.5-1.9.5-20.8 1.3-22.9zM28.8 223.1c-3.7 2.7-23.1 9.6-24.2 9.8 4.7 1.2 8.7-.3 12.7-.4s9.4-3.6 13.4-4.9z" class="bb583a7c-a2ce-46ed-a9ce-fd5367543cf0"/><path d="M147.2 51.9c37.7 4.3 60.7 43.7 57.8 79.4 1.1-35.5-20.8-73.4-57.8-79.4zM116.7 57c-1.6 27-4.1 55.6 7.7 80.9-13.4-24.7-11-54-7.7-80.9zM80.5 59.8a104 104 0 00-38.7 66.4 90.5 90.5 0 0138.7-66.4zM38.1 121.9c-.6 19.2-2.6 38.8 2.5 57.5-6.8-18.3-4.8-38.5-2.5-57.5zM61.6 173.7c-.8-14.5 3.2-28.9 8.3-42.4-3.5 14-7.5 28-8.3 42.4zM132.1 54.3a95.2 95.2 0 0118.2 55.1 130.7 130.7 0 00-18.2-55.1zM152 88.9c6 17 6.6 35.6 4.8 53.5.1-17.9-.4-36-4.8-53.5zM123.2 53.2c5.9 12.9 7.6 27.4 8.9 41.4-3-13.6-4.6-28.1-8.9-41.4z" class="b1b74e7f-1fe7-4ee8-81d0-80449c201187"/><path d="M88.5 57a107.2 107.2 0 00-25.3 31.9A66.2 66.2 0 0188.5 57zM65.7 65.2C59.9 71 55.5 77.9 50.4 84.3a47.6 47.6 0 0115.3-19.1zM101.9 55.6a224.7 224.7 0 00-6.6 50.4 121.5 121.5 0 016.6-50.4zM93.6 57c-3.7 7.6-6.5 15.9-9.7 23.8A58 58 0 0193.6 57zM111.4 57a82.4 82.4 0 01-2.1 17.8 53.4 53.4 0 012.1-17.8zM141.8 55.6a30.6 30.6 0 0115.4 19.2 58.6 58.6 0 00-15.4-19.2zM211.5 117.9c2.7 26.9.8 59.9-20.5 79.2 19.9-20.4 21.5-52.2 20.5-79.2zM199.6 193.7c-5.3 7.5-14.8 11-23.5 12.8 8.2-3.5 17-6.5 23.5-12.8zM233.7 101.7a82.2 82.2 0 010 69.6 96.6 96.6 0 000-69.6zM233.7 157.5a59 59 0 01-19.1 36.2 86.7 86.7 0 0019.1-36.2zM98.5 96c1.5 23.2 5.8 47.4-1.7 70 5.8-23 1.5-46.7 1.7-70zM105 146.1c-.8 20.8-12.4 38.5-21.1 56.7 7.1-18.9 18.7-36.2 21.1-56.7zM150.3 55.6a41.4 41.4 0 0127 25.2 56.5 56.5 0 00-27-25.2zM210.7 81.8a60.6 60.6 0 0120.7 43c-2-16.2-9.9-31-20.7-43zM34.1 216.2c-7.9-16-8.2-34.7-8-52.2 1.5 17.5 1.7 35.6 8 52.2zM34.1 185.7a98 98 0 01-2.7-44.7c-.2 14.9-.6 30 2.7 44.7zM114.7 33.1c-2.1-9.6-10.7-15.7-17.9-21.4 8.2 4.2 17.5 11.4 17.9 21.4zM98.5 35.6c-5.8-7.5-17-10.6-26.2-9.7 9-2.8 21.8 1 26.2 9.7zM127.6 35.6c1.6-2.8 3-5.7 4.5-8.5a9.7 9.7 0 01-4.5 8.5zM123.2 33.9a80.9 80.9 0 001.2-8.6 7.8 7.8 0 01-1.2 8.6zM105.7 33.9a25.6 25.6 0 00-7.1-11.5c4.3 1.9 7.7 6.7 7.1 11.5zM80.5 47.1c-10.8-3.9-24.7-2.3-32.2 7.2 6.2-10.8 21.9-12.9 32.2-7.2zM88.5 41.6c-5.9-3.8-13-5.2-19.9-6 6.9-.9 15 .8 19.9 6zM58.1 54.3a61.8 61.8 0 00-17.5 30c1.7-11.5 7.3-23.7 17.5-30z" class="b1b74e7f-1fe7-4ee8-81d0-80449c201187"/><path d="M122.3 482.6c3.7-2.9 5-5.8.6-7.9l-.4 1.2c3.5 1.4 1.4 3.9-.5 6.6-.3.3 0 .3.3.1zM83.1 480.2c3.5 2.5-4-3.2-.2-5.1l-.6-1c-2.9 1.7-1.4 4.3.8 6.1z"/><path d="M89.3 490.8l1.2-.3c-.6-7.2-3.4-6.5-8.3-9.5-.4-1.1-.8-2.9-.4-3.5l-.9-.7c-1.1 1.5-.2 4.1.1 4.8s4.5 2.7 6.3 3.5 1.5 3.7 2 5.7zM81.8 492.2l1.1-.5c-1.8-5.2-3.8-9.6-1.2-10.3l-.4-1.2c-4 1.5-1.6 5.7.5 12zM146.7 474.8c.6-1.4.7-4.3-1.4-4l.3 1.2c.4.2.3 1.5 0 2.3zM103 492.2c1.6-4.8 8.3-2.5 13.2-4.4 8.4-2.7 10.1-4.1 8.6-8.8l-.9.8c.7 3.9-1 4.5-7.9 6.8-5.2 1.7-13.1-.2-14.2 5.4z"/><path d="M92.9 537.6c10-.4 17.5-3 22.4-9.7 2.4-2.3 11.4-13.4 11-16-6.4-19.9 5.1-28.3-1.5-30.9l-.3 1.1c3.9 1.6-2.8 11.1-1.5 17.6-.1 9.9 5.6 9.5-1.5 18.7-6.5 7.6-8.1 13.1-18.2 16.3-8.3 4.1-37.9.5-36.6-15.9-3.4-25.1 27.3-21.3 38.5-9.8-5.2-10.2-24.9-14.3-34.8-6.7-6.6 5.9-4.8 16.2-4.9 17.3-1 10.7 15.5 18.4 27.4 18z"/><path d="M124 533.7c.7 0 1.2-.1 1.4-.4 3.3-3.4 3.1-7 3.3-12.7s1.9-9-2.9-9.9v1.2c3.5.6 1.5 3.9 1.8 8.6-.6 6.2.7 7.6-3 12a6.4 6.4 0 01-2.2-.2l-.2 1.2z"/><path d="M117.2 543.2c3.6-1.4 4.1-8.9 6.7-12 1.4 3.1 1.3-5 1-3.9a42.9 42.9 0 00-5 9.7c-1.6 2.7-1 5.7-4.2 4.8l-.3 1.1zM95.3 540.2c7.4.6 18.5-3.2 21.5-10.3a76.2 76.2 0 009.4-15.4c-10.4 17.3-16 27.9-39.5 24.1-8.1-1-17.3-4.3-20.3-10.5 1.4 7 19.4 12.8 28.9 12.1z"/><path d="M112 547c4-1 3.7-2.3 3.6-6l1.3-1 .2 1.3c.3 1 1.6-4.3 1-4a35 35 0 00-3.7 3.1v4.1a4.4 4.4 0 01-4.9.8l-.2 1.2a15.7 15.7 0 002.7.5z"/><path d="M92 549.9a119.8 119.8 0 0015.9-1.1c2.6.1 2.1-2.1 2.1-3.9l1.5-.6c1.1-.6-.2 2.6 1.2.6.2-.5.8-2.8 0-2.5l-3.9 1.8v3.2c-10.8 2-40.1 3.2-44.7-11.2-.3-3.5-1.7-11.4 2.7-12.7l-.4-1.1c-5.1 1.1-4 10-3.5 14.2 1.8 9.8 19.9 13.1 29.1 13.3zM102.9 501.5a20 20 0 00-6.3-3.8l-.6.6c-6.2-13.8 28.3-5.3 26.5 4.9s-16.2 2.9-19.6-1.7zm-5.2-8.4c-1.3.3-1.6 1.3-1 3.4 1.3.1 5.1 2.4 7 4.1 3.1 3.5 14.4 9 17.6 2.4-1.3-8.8-15.9-11.8-23.6-9.9z"/><path d="M117 504c1.4-.6 1.9-1.3 1.8-2.4-1.2-8.1-19.3-9-23.3-7.2l.6 1.1c3-1.8 24.8-.4 20.9 8.5z"/><path d="M114.3 504c2.8-.1 4.4-1.3 4.2-3.5l-1.2.2c-4.2 7.3-14.1-5.6-20.4-6.7l-.4 1.2c7.1 1.9 10.6 8.6 17.8 8.8z"/><path d="M96.1 498.6a2.7 2.7 0 001.9-.8l-.8-.9c-5 2.5-3.6-8.9.9-4.2l.9-.8c-5.4-5.1-9.4 5.9-2.9 6.7zM93 498a3.4 3.4 0 001.5-.4l-.6-1.1.3.6-.3-.6c-4.1 1.6-3.2-7.2 1.1-4.6l.6-1c-5-3.4-8.2 6.5-2.6 7.1zM108.3 502.1l1.1-.4c-.8-2.5-4.1-7.4-8.2-8.1l-.2 1.2c3.3.6 6.4 4.7 7.3 7.3zM108.8 516h1.4c2.5-1.7 1.1-6.3.4-10.6l-1.2.3c.7 3.7 1.7 7.4.4 9.1-3.1.9-1.7-7.6-2.9-11.4h-1.2c1.4 4.9-.5 11.6 3.1 12.6z"/><path d="M108.4 523.5c2.6.3 1.8-7.4 2.3-8.2h-1.2c-.3.3-.2 6.8-1.1 7.1s.7-7.2.4-7.2l-1.2-.2c.4.9-2.4 8.5.8 8.5zM103.1 504.7c1.3-.3 2.1-1.8.8-3.9l-1 .7c.5.8.6 1.4.1 2-2.3-.8-4.3-2-7.6-2.7l-.2 1.2c3.2.6 5.5 2.2 7.9 2.7zM85.8 499.8a32.6 32.6 0 016-2.3v-1.2c-2 .2-6.3 2.4-6.5 2.5zM77.5 498.6c1.4-5.1 9.7-2.3 13.4-2.3v-1.2c-3.7-.2-14.2-3-13.6 3.3.1.8.2.6.3.2z"/><path d="M74.8 500.3l1.7-.4c-.8-2.1-1.5-3 3.6-5.9s12-2.1 12.1-2.1v-1.2c-1.3-1.4-21.6 2.3-17.5 9.6z"/><path d="M79.7 499.9l.3-1.2a1.5 1.5 0 01-.9-2.3l-.7-1c-1.5 1.2-.6 4.1 1.3 4.5zM81.7 499.5c.9-.9 4.2-3.4 7.2-3.6l-1-.9a22.6 22.6 0 00-7.1 3.6z"/><path d="M82.8 497.6H84a17.6 17.6 0 00-.4-2.8l-1.2.3a14 14 0 01.4 2.5zM100.7 499.8l.6-1a18.8 18.8 0 00-4.9-1.4l-.3 1.1a22.3 22.3 0 014.6 1.3zM84.5 516.1c-2.1-1.9-7.7-3.4-11.1-1.9-.9.4-.3.2.1.2a14.6 14.6 0 015.1-.1 19.3 19.3 0 015.6 1.8c.5.3.9.4.3 0zM104 489.4l1.2-.4c-1.8-2.4-12-5.8-17-4.1l.8 1c1.2-1.6 15.7 2.7 15 3.5zM88.3 491.3l.6-.2c-.7-6.1-2.9-5.2-7-8.1-.2-.1-1-.8-.3 0 3.6 3.7 6.1 1.9 6.7 8.3z"/><path d="M103.2 490.4l.4-.5a27.2 27.2 0 00-14.6-3.6v.6c3.7-.8 12.3 2.1 14.1 3.5zM104.5 492c.1-1.7 6.7-1.9 9.6-2.5 5.4-.8 11-3.9 10.1-4-2.2 3.1-19 3.3-20.3 6.4zM163.7 533.9c8.2-.7 22-2.9 22.1-12.6-.1-6.8 1.8-9.8-3.7-11v1.3c4.3.8 2.3 4.7 2.4 9.6.2 10-19.1 12.5-26.2 11a12.3 12.3 0 00-.1-2.6l-4.8-1.4c-.8-.1-.7 1.8-.6 2.3s.2.6.2.2c-.1-2.3 3.2-.1 4.1-.2v2.7a31.4 31.4 0 006.6.7z"/><path d="M152.4 532.9c1.4 0 4.5-2.2 5.1-2.5l-.7-1c-3.4 2.7-5.8 2.5-9.9 1.1a10.9 10.9 0 01.4-2.7c-.1-.1-5.2-1.3-5.6-1.7s-1.1 1.3-.7 2.2.5.2.4 0c-.8-1.9 3.6.5 4.5.4-1.4 4 3.3 3.5 6.5 4.2z"/><path d="M141.4 530.1a17.6 17.6 0 004.2-1.7l-.5-1.1c-5.6 4.5-12.2-3.6-17.2-5.6l-.4 1.1c3.8 1.7 9.3 7 13.9 7.3zM140.4 502.3a10.2 10.2 0 012.6-3l-.4-1.2c-1.5.3-5.2 9.1-2.2 4.2z"/><path d="M164 522.1c36.5-1.4 14.8-40.5-19.4-25.2l.6 1c39.5-16.5 53.7 33.4 7.2 20.5-6.3-1.3-18.8-5.3-24.2-5.4v1.2c8.7.4 25.7 7 35.8 7.9zM131.8 497.9c-3.7-6.4 5.2-19.8 14.5-14.3 1.2 1-.5 4.8-1.3 6.8-1.4 4.4-3.7 9.7-9 9.4a5.1 5.1 0 01-4.2-1.9zm11.9-14.4c-9.2-1.8-17.6 16.3-6.1 14.9 3.5-.6 5.1-4.9 6.3-8.4s3.4-6.3-.2-6.5z"/><path d="M136.4 497.9c.7.1 3.5-2 1.6-1.1-4.4 1.2-3-3.7-1.1-6.7s6.5-4 9.1-6.2l-1-.7c-2.8 1.8-6.5 2.1-9.1 6.2-1.7 2.4-3.9 8.8.5 8.5z"/><path d="M135.3 497.3c5 .3 8.9-10.1 9.2-12.7h-1.2c-.1 1.9-4.5 12.6-8.4 11.5l-.2 1.2z"/><path d="M145.6 488.4c6-.9 1.5-11.1-3.5-5.9l.8.9c3.7-3.9 6.7 3.2 2.5 3.8v1.2z"/><path d="M147.6 488.2c5-.5 2.6-10.8-2.4-7l.7 1c3.5-2.8 4.5 5.4 1.2 4.7l-.4 1.1z"/><path d="M158 494.6c3.5-4.8-3.4-15.2-9.2-13.5l.3 1.2c4.7-1.4 10.8 7.7 7.9 11.7z"/><path d="M154.9 494.9c2.2-4.1-.8-11.1-5.1-11.9l-.2 1.2a7.6 7.6 0 014.2 10.2z"/><path d="M144.1 492.4c3.4-1.4 9.6-1.5 5.4-6.2l-.8.9c3.1 3.5-2.8 2.7-5.1 4.2z"/><path d="M144.6 494.7a29.3 29.3 0 017.1-1.6c.6-1.3-.6-3-1.7-3.6l-.6 1a3.5 3.5 0 011.2 1.5 28.3 28.3 0 00-6.4 1.6z"/><path d="M153 495.1a2.7 2.7 0 00-1.6-3.2l-.3 1.2a1.4 1.4 0 01.7 1.7z"/><path d="M152.8 493.4c.8-3.9-1.2-8.3-2.9-9.1l-.5 1.1c1.2.6 2.9 4.4 2.2 7.8zM140.4 492.4l1.1-.5a8.5 8.5 0 010-5.9l-1.1-.5a9.6 9.6 0 000 6.9zM144.1 510.4c5.1-2 1.6-14.2.3-18.3l-1.2.2c.6 2.8 1.8 4.9 2.1 8.4s.7 10.3-2.4 7.9a25 25 0 00-.5-12.8l-1.1.5a21.2 21.2 0 01.6 10.7c-.7 2.3.5 3 2.2 3.4z"/><path d="M139.9 516.6c1.6 0 3.9-6.3 4.6-6.7l-1.1-.6c-.4.1-2.9 6.1-3.8 6s3.5-6.3 3.2-6.4l-1-.6c-.1 1.1-6.4 7.9-1.9 8.3zM140.1 483.2h1.2c.5-9.9-9.8.3-16.5-4.6l-.6 1.1c8 5.1 16.6-4.5 15.9 3.5z"/><path d="M147.1 481.3c1-5.6 1.5-10.5-5.4-5.3-1.5.9-3.7 1.2-3.8 3.1h1.2c.3-1.4 4.8-2.6 5.5-3.7 3.2-2.2 1.4 3 1.3 5.6zM130.8 482.9c4.1 0 7.3-1.8 7.6-2.3a18 18 0 01-13 1l-.2.5a19.9 19.9 0 005.6.8z"/><path d="M141.5 479c.7-.6 4.7-3.4 4.9-2.2s.3.2.4-.4h.6c-.6-2.1-5.8 1.6-5.9 2.6zM164.9 524.1c8.5 1 18-5.3 18.6-10 .5-1.5-.2-.3-.3-.1-12.8 19.5-36.5 2.8-54.9 1.1v.6c18 2.3 19.3 7.2 36.6 8.4zM168.8 504.9a18.8 18.8 0 017.4-2.7c.2 0 .8-.2 0-.2-3-1-10.1 4.2-7.4 2.9zM119.4 424.4a97.6 97.6 0 01-64.1-30.3c-3.6-2.4-.6-4.9-.3-8.8 3.7-14.7 9.1-41.1 10.7-56h1.2c-1.6 15-7 41.4-10.7 56.2-1.4 7.1-3 5.4 3 10.2a94.4 94.4 0 0057 26.1c14.2 4.6-4.1-65.4-3.5-73.3h1.2c.3 13.1 15.6 69 5.5 75.9z"/><path d="M132.9 454c-22.2-1.8-37.3 2.2-60.1-5.5-6.4-2.2-17.9-5.4-19.9-8.1s-2-5.1-.8-10.4c2.6-11.4 5.6-27 6.8-33.3l1.2.3c-1.2 6.2-4.2 21.9-6.8 33.2-4.8 11.7 7.4 12.7 19.8 17.2 14.4 4.9 24.2 4.8 36.7 4.8 17.8 1 46.6 1.5 56.5-10.8 5.5-5.3-.5-19.6-.9-31.4l1.2-.2c.4 12.6 6.7 26.2.6 32.4S148.1 454 132.9 454zM171.7 214.6c16.5-4.6 31.9-11.2 39.2-23.9-11.4 15.6-31.4 22.8-50.8 22.2 18-25.9 18.5-55.7 7.6-76.1 3 14.6-9.5 27.3-8.3 40.1-3.9-4.4-4.1-13.8-4.1-20.2-1.6 6.8-3.1 24.3-3.1 24.3a71.2 71.2 0 01-8.8-55.1c-7.3 8.7-9.4 22.7-7.8 34.6-20.3-17.5-31.5-48.2-26.1-72.2.2-2.5.6-2.4.5.2-1.8 21.4 4.9 50.1 23.2 66.5a41.9 41.9 0 0113-34 63.6 63.6 0 005.2 54.4c-.4-8.3 4.8-27.4 5-28.2s-.9 16.1 1.7 22.9c2.5-11.8 12.4-24.2 7.4-37.5 15.5 16.5 15.3 52.8-2.3 78.9 22.8.1 43-12.1 52.5-30.2-1.3 14.7-19.1 27.1-35.8 32.1 33.4-1.5 64.2-36.7 64.6-67.8.1-.9 1.2-5.4 1.2-.3 1.3 35.8-37.3 74.6-74 69.3z"/><path d="M82.4 231.3c-7.5-5.7-9.3-24.2-8.8-38.6a78.3 78.3 0 001.8 31.1c-9.3-9.8-14.7-40.7-9.9-58.5-2.1 15.7 1.9 44.1 7.4 52.7-1.7-8.9-2.7-26.1 3.4-36.2-2.9 12.6-1.8 36.3 4.2 45.8-.5-7.6 4.8-17.3 11.4-29.3 18.7-26.8 23-66.5 18.2-85.2l1.2-.2c12.7 68.6-30.6 84.8-28.9 118.4zM151.1 277.5c-12.1.6-23.7-11.4-25.4-17.2a32.5 32.5 0 0040.5 11.9c5.2-1.1-13.1 6.6-15.1 5.3zM122.4 259.1c-.7-3 3.4-4.2 4.9-2.9-.6-.2-4.9.7-4.9 2.9zM147.8 284a18.1 18.1 0 01-10.6-3.4c-.5-.4-1.9-1.6.2-.4a20.8 20.8 0 0012.9 2.7c5.5-1-1.2 1.3-2.5 1.1zM164.5 262c.4-11.4-18.5-15.1-26.8-9-1.4 1-.8 0-.2-.5 9.3-10 34.4-1.9 26.8 12.3-.2-.2.3-1 .2-2.8zM162.7 355.2c-12.7.1-28.6-8.6-37.8-13.1l1.3-1.7c7.8 3.8 20.4 10.7 31.2 12.3 19.9 3 37.9-13.6 28.8-32.8-2.5-7.3-14.4-15-33.7-24l1.8-1.5c19.6 9.3 30.4 17.5 33 25.1s5.7 18.9-3.3 26.3c-6.6 5.4-13.1 9.4-21.3 9.4z"/><path d="M164.5 317h-1.2a6.4 6.4 0 013.5-4.3c.8-.3.8-.2.1.2s-1.9 2-2.4 4.1zM144.8 345.2a23.7 23.7 0 01-11.7-2.8c-2.5-1.4-2.7-1.9-.7-1-.4 1.3 23.6 3.4 12.4 3.8zM164.6 349.1a32 32 0 0016-9.3c.3-.3 1.7-2.1.4.1-3 5.3-10.4 9.3-16.5 9.6-.3 0-1.3-.2.1-.4zM164.9 373.2a25.5 25.5 0 00-.6-15.7c-.2-.4-1-2.3.2-.3a17 17 0 01.7 16.3c-.1.3-.7.8-.3-.3zM105.3 344.4c-3.2-.4-.3-.4.1-.4a23.1 23.1 0 007.7-1.6 33 33 0 007.4-4c.4-.4 2.5-2 .6.1a18.7 18.7 0 01-15.8 5.9zM122.4 314.2c-1.6-1.1-6-2.1-7.2-2.1s-1.3-.8.1-1.2 6 .8 7.6 2.2 1 2.1-.5 1.1zM118.2 324.4c-1.4 9.2-1-8.7-2.5-9-1.2-2.2-.4-1.8.9-.8s2.1 5.8 1.6 9.8zM93.5 294.1a17.7 17.7 0 00-9.8-9.2c-.4-.1-.4-.5 0-.4 4.5 1.6 9.9 4.7 11.5 8.9zM87.2 292.3c-1.4-1.6-10.6-.5-7.1-1.7 1.6-.4 5.5-.8 7.8 1.4s1.5 1.6-.7.3z"/><path d="M92.5 291.4a22.2 22.2 0 00-2.7-7.2c.2-1.8 3.6 4.8 3.8 6.9z"/><path d="M104 351.2c-41.8-6-66-50.2-38.9-72 5.8-5.3 33.3-.9 39.1.6l-.3 1.7c-5.4-1-32.5-6.1-38.1-1.4-18.7 18.2-15.7 40.6 19.1 63.4s49.7-22.2 82-27.7c.8-.2 3.7-.4.5.4-13.7 3.8-26.9 14-36.2 22.3s-16.3 12.8-27.2 12.7zM181.8 327c-.6-2.9-5.3-7.5-8.3-7.9s-2.1-.5.2-.7 2.7-.1 5 1.9 3.7 4.5 3.7 6.3-.3 1.9-.6.4z"/><path d="M130.7 304.5c-8.4 1.6-22.2-16.5-24.3-21.8l1.9-.4c1.9 4.6 12.3 22.8 24.2 20.8s12.5-8.6 12.5-8.9l1.8.2c.7.7-4.3 9.8-16.1 10.1z"/><path d="M111.1 306.2c-.1-5.9-5.1-18.9-4.8-24.2h1.2c-.2 5.6 5.1 18.7 5.4 24.8zM158.1 416.8c-3.1.3-.2-17.5-2.2-28.7s-3.9-30.7-6.7-36.4l1.1-.5c5 10.3 8.9 53 7.9 63.4 2.8.7 14.9-11.3 15.5-14.8 1.7-7.5-6.3-39.7-8.7-46l1.1-.4c2.5 6.5 10.5 38.9 8.9 46.5a43 43 0 01-16.9 16.9zM117.8 422.8l-.6-.2c5.2-25.4-5-50.8-6.5-73.6h.6c1.6 22.9 11.8 48.2 6.5 73.8z"/><path d="M160.4 414.9h-.6c1.5-9.4-3.8-53.2-7.8-62.5l.6-.3a241 241 0 017.8 62.8z"/><path d="M160.3 412.3l-.3-.2a45.1 45.1 0 0014.2-14.3l.5.2a42.8 42.8 0 01-14.4 14.3zM118.2 419.8c-35.9-5.3-43.5-11.9-63.7-29.8l.3-.5c20.2 18.1 27.5 24.6 63.5 29.7zM157.2 297A99 99 0 0179 259.9c-6.7-7.9-12.3-14.8-12.8-19.6-35.6-.2-34.8-61.2-1-53.3l-.4 1.2c-31.4-5.7-32.6 52.5 3.7 50 .1 9.6 16.9 31.2 39.6 43.8 30.4 17 95.9 23.2 82.7-27.7 16.4-15.8 53.4-70 51.6-93.5h2.2c1.5 23-33.7 76.8-51.9 93.8 5.8 23.3-5.8 43.4-35.5 42.4z"/><path d="M64.9 232.6c-2.4-3.6.5-6.3 4-6.6 1.9-7.3-9.4-23.8-16.2-20.3-.7.2-2.1.4.2-.3 7.9-4.8 22 15.1 16.5 21.8-7.2.6-3.2 6.9-4.5 5.4z"/><path d="M57 216.2c-.2-3.4 1.6-7.8 4.4-9l.8 1.4c-2.4 1-4.5 4.4-4.9 7.3-.1.5-.2 2.7-.3.3z"/><path d="M70.5 262.9C4.4 244.2 1.6 118.2 50.2 72.9 81.7 39 141.5 42.4 181.6 56.2c62.2 18.4 89.5 87.2 66.5 145 1.6-17.4-5.1-43.1-5.2-41.9l1.2-1.8a147.4 147.4 0 015.4 36.1c11.3-36 3.8-78.4-18.8-104.3-48.3-54.5-182.5-66.7-206.3 30.5-13.7 51.1-6.6 114.6 40.4 140.4a28.2 28.2 0 01-8.5-18.2 31.1 31.1 0 0021.8 15.1l-.2 1.2a35.3 35.3 0 01-19.4-10.8 26.6 26.6 0 0012 15.4z"/><path d="M5 234.5l-4.6-.2a45.7 45.7 0 0019-18.9 75.4 75.4 0 01-11.1 4.2A34.7 34.7 0 0021 199.2l1.2.2a37.2 37.2 0 01-8.9 17.3c6.5-2.6 5.9-2.6 8.4-4.1-1.1 2.4-3.2 11.7-15.4 19.8 11.5.2 24.5-6.1 24.5-6.1l1.6 1.7c-.5.3-15.5 6.5-27.4 6.5zM83.2 52.7l-2.6.8c5.8-18.2 49.9-22.1 63.2-5.3l-3.3-.2c-7.4-13.6-52.2-12.4-57.3 4.7z"/><path d="M31.5 100.7c-1.9-23.1-1.9-65.2 21.6-81.5 40.6-23.6 84.2-8.8 96.1 29.6h-2.6C136.7 13.2 93-3.7 54.1 20.2c-23 15.9-22.5 54.5-20.7 77.4zM104.5 323.4c-12.3-1.1-5.4-20.2 3.7-19.1 7.6.7 6 7 3.1 12.2-1.4 3.4-2.4 7-6.8 6.9zm3.7-17.9c-7.6-1-14.1 15.7-3.7 16.7 3.9 0 4.3-3.3 5.7-6.2 2.2-4.5 4.6-9.7-2-10.5z"/><path d="M95.9 318.4c-15.4-2.5 2.6-26.2 11.5-13.7l-1 .6c-2.2-4.6-9.7-2.3-11.5-.4-5.3 3.4-5 14.9 3.4 12l.4 1.1a9.5 9.5 0 01-2.8.4z"/><path d="M90.5 310.9c-12.7-9.6 14.2-23.5 14.3-8.3h-1.2c0-12.6-22.9-.6-12.6 7.3zM107 319.3a17.1 17.1 0 00-6.1-1.7.7.7 0 01-.6-.9c1.4-7.2 10.6-1.9 6.7 2.6zm-2.9-5.9c-1.5-.1-3.3 2.3-3.2 3.6a18.6 18.6 0 016.1 1.6c.9-1.4-.1-5.1-2.9-5.2z"/><path d="M96.2 314.7a8.8 8.8 0 00-4.5-1.3 1.2 1.2 0 01-1-.4c-1-2 2-4.7 4.4-3.4s2.6 4.3 1.1 5.1zm-4.4-1.9a8.4 8.4 0 014.4 1.2c.6-1.3-.2-4.6-2.5-4.4s-3.7 3.1-1.9 3.2zM91.3 306.9a5.9 5.9 0 00-3.5-1.6v-.6a6.3 6.3 0 013.6 1.4c2.4-2.1-.8-6.6-3-2.7l-.5-.3c2.7-4.5 7.1 1.4 3.4 3.8z"/><path d="M87.6 303.8c-7.3-8 10.9-14.9 13.5-7.7l-1.1.6c-1.9-5.8-17.5 0-11.5 6.3z"/><path d="M88.9 301c-.3-.5-1.3-2-2.2-1.4l-.3-.5c1.1-1.1 3 1.3 3 1.6zM90.8 299.7h-.6c0-1.8-1-3.8-2.4-2.2l-.5-.4c1.8-1.6 3.7.5 3.5 2.7zM155.5 320.5h-1.2c.7-17.1-8.7-19.9-22.1-15.5-6.3 1.5-15.5 3.2-19.3 5.9v-2c3.9-2.5 12.8-3.4 19-5 14.8-5.5 24.8.5 23.6 16.6z"/><path d="M162.4 317.3c-.1-4.9-5.8-14.7-13.3-12.6l-.2-1.2c8.1-2.5 15.1 9.1 15.2 13.6zM78 364.8c-1.9-7.6-8.6-18.5-8.2-24.7 1.7 7.2 8.4 18.6 8.2 24.7zM76.4 384.2c-3.3-8-8.1-28.5-9-36-.1-.5-.1-4.7.6-.1-.6 1 12.3 46 8.4 36.1zM129.3 403.3a40.8 40.8 0 01-7.9-.6l.2-1.2c9.3 1.5 24.9.4 35.3-5.8l.6 1a58 58 0 01-28.2 6.6zM82.7 351.1a69.1 69.1 0 00-5.7-5.6c-1.6-1.3-1.1-1.4.7-.7s11.3 12.3 5 6.3zM148.1 303.4l-1.1-.2c.4-2 .7-6-.3-8.5l1.1-.5a18 18 0 01.3 9.2z"/><path d="M143.7 302.6l-.8-.4c4.1-4.3 3.4-7.7 3.4-7.8h.6s1.1 3.6-3.2 8.2zM125.4 306.2c-8.7-1.6-16.5-12.5-17.9-17.9l.6-.2c1.3 5.3 9 16 17.4 17.5z"/><path d="M152.9 321.6h-.6c1-5.1-3-20-12.7-18.5v-.6c9.3-1.3 14.5 13.8 13.3 19.1zM128.2 399.7c-2.2 0-4.5-.2-7.1-.4v-.6c7.9 1.9 31.3-1.5 35.7-5.2l.3.5c-1.4 2-23.5 6.4-29 5.7zM130.8 245c-19.4.3-14.9-39.7 3.1-41.5 21.6-2.1 15.8 42.1-3.1 41.5zm4.8-40.9c-18.3 0-23.5 39.4-4.8 39.7 16.8 1.2 23.2-40 4.8-39.7zM176.6 259.3c-18.7.3-5.3-37.1 9.4-35.7 18.7 1.2 5.2 37.2-9.4 35.7zm9.4-35.1c-12-1.9-27.4 33.2-9.4 33.9 14.4 1.2 26.1-33.4 9.4-33.9zM66.7 278.7c-2.8-16.4-.7-17.1 13.2-19.3l.2 1.2c-14.1 2.2-14.5 2.9-12.2 17.9z"/><path d="M100.2 280.2c-5.4-3.8-21.8-10.6-26.9-15-2.1-1.6-.1-.5.8 0 7.2 4.2 21.3 9.9 27.6 13.8zM80.4 275c-3.2-.4-7.2-1.2-9-2.5s-.6-1 1-.4a59.8 59.8 0 008.4 2.4c2.1.3 2.8 1-.4.5zM94.7 341.5a59.2 59.2 0 01-28.1-18.1c-2.1-3-.5-1.1.1-.4 7 6.7 19 15.1 27.8 17.8 1.8.6 5.8 1.9.2.7zM116.1 450.9c-18 .6-36.6-2.3-51.1-8.6-8.9-2.8-13.7-7.3-13.2-9.4h.6c1.7 8.7 32.3 16.1 44.2 17.1 24.6.1 61.9 6.2 72.1-16.3h.6c.5 4.1-8.2 10.5-11.3 11.9-10.8 6.2-25.3 5.1-41.9 5.5zM104.2 462a15.3 15.3 0 006.9-2.9c1.6-1.2 1.4-1.4-.2-.5s-5.1 2.4-6.9 3.1-1.1.5.2.3zM96.9 462.5c1.7.3 1.5.2-.2-.9a61.3 61.3 0 01-5.4-4.5c-1.1-1.2-1.1-1.1 0 .5s3.5 4.4 5.6 4.9z"/><path d="M103.7 485.4c-14.8.2-20.8-4.1-24.3-17.7-2.2-6-5.3-13.8-6.7-19.5l1.2-.3c1.4 5.6 4.5 13.4 6.6 19.4 4.2 9.5 1.8 12.5 13.3 15.9 30.3 4.5 27.7-5 32.8-29.9l1.2.2c-4.5 17.2-.8 33.1-24.1 31.9z"/><path d="M130.4 478.6a23 23 0 01-5.4-.6l.4-1.2c6.1 2.1 20-1 21.2-10.5 1.6-5.2 4.4-12.1 6.1-16.6l1.2.3c-5.9 12.8-5.3 28.5-23.5 28.6zM79.8 450.2c-.9-9.7.1-25.4.8-37.5h.6c-1.2 11.6-1.8 28-.8 37.2zM139.1 453.5l-.6-.2c.7-8.1-.5-24.7.5-37.1h.7c-1.1 12.6.1 28.7-.6 37.3z"/><path d="M138.5 416.1c3-1.1 1.4-11 2.1-14.4h.6c-.7 2.8.8 14.9-2.1 14.7s-1.4-.1-.6-.3z"/><path d="M137.7 415c-.1-1.9-.3-8.5-.1-10.4.5-3.6.6 9.5.3 9.8s-.2 2.1-.2.6zM151.7 442.4c2.6-3.8 7-11.8 7.9-17.2.1-.3.6-1.8.3-.1a35 35 0 01-8.1 17.6c-1.8 1.9-.5.3-.1-.3zM161.3 430.8c.1-1.1.8-17.3 1.2-8.4a59.1 59.1 0 01-1 8.8c-.5 2.6-.3.3-.2-.4zM70.3 428.3c-4.1-4.8-8.6-16.3-7.7-20.5.3 5.8 5.5 16.1 7.7 20.5zM74.2 440a20.2 20.2 0 01-6.3-5.4c-1.5-1.9-1.5-2.3.2-.5s4.8 4.3 6.4 5.6 1.8 1.4-.3.3zM114.2 440.4c-3 1.5-5.4 2-.2-.8s13.9-11.1 15.7-15.3 2.2-4.9.8.2c-2 7.2-13.2 14.4-16.3 15.9zM110.4 414.7c-3.8-1.1-13.4-2.7-16.3-4.2.6-3.8 1.5-12.7 1.7-16.7 1.1-1.8 17.9 2.2 17.4 3.7-.8 3.5-.3 16.5-2.8 17.2zm-15.9-4.1c4.2.7 11.6 2.8 15.9 3.7 1.7-.6 1.7-12.7 2.3-15.7s-12.8-4.2-16.5-5c-.2 4.2-1.1 13.1-1.7 17zM142.8 189.8c-6.1-.7-13.3-2.6-19.8-.8-2.4.4-6.8 1.7-6.5-1.7s9.7-5.4 15.2-6 12.8-.1 14.3 3.6-.2 4.7-3.2 4.9zm-13.7-2.8c5.7-.7 11.6 3.1 16.1.6.4-3.9-3.8-5.7-9.1-5.9-11.1-.2-31.1 9.9-7 5.3zM216.2 212.4c-3.2-1-4.4-7.1-7.5-7.4l.4-1.1c2.4.9 4.5 3.1 6.1 6.5a1.2 1.2 0 001.2.8c4-2.2 0-7.8-3.3-9l.6-1.1c5.5 2.4 7.9 9.8 2.5 11.3zM149.1 458.3a3.2 3.2 0 002.4-2l-1.1-.5c.1 1.2-3.5 3.3-1.3 2.5zM146.4 458.5c2.3.3-2.2-2.1-2.4-2.9s1.2 3.1 2.4 2.9zM62 313.7c-9.8-11.6 12.2-22.5 16.1-10.3l-3.4 1.7c-2.5-7.3-16.2-.4-9.9 5.9zm8.1-15.3c-7.6-.4-13.5 9-8.1 14.9l2.4-2.3c-6.1-6.3 7.5-13.5 10.5-6.3l2.9-1.4c.4-1.2-3.9-5.5-7.7-4.9zM70.5 325.2a24.9 24.9 0 01-2.6-2.8 30 30 0 016-4.9l-3-4.2a26.7 26.7 0 00-5.6 4.6h-.1a13.5 13.5 0 00-2.5-2.6 59 59 0 0115.8-10.2l1.7 2.8a33.5 33.5 0 00-5.9 3.3l2.3 3.9a26 26 0 015.8-3.2l2.2 2.7a91.2 91.2 0 00-14.1 10.6zm-2.3-2.8l2.3 2.4c.4-1.2 12.6-10 13.7-10.4l-1.9-2.3a35.3 35.3 0 00-5.8 3.3l-2.6-4.4a28.9 28.9 0 015.8-3.3l-1.3-2.3a55.4 55.4 0 00-15.2 9.8l2.1 2.3a26.5 26.5 0 015.7-4.6l3.3 4.7c-.2.1-4.7 3.1-6.1 4.8zM76.6 330.4l-4.2-3.4c2.5-3.8 10.2-10 12.2-11.1l2.8 3c.2.1-11 10.5-10.8 11.5zm-3.9-3.5l3.8 3c.6-1.6 9.4-10.2 10.5-10.9l-2.4-2.7c-2 1.1-9.4 7.1-11.9 10.6zM90.4 339.5h-.3a6.3 6.3 0 00-.2-4.7c3.6 1.8 7.5-2.6 5.4-6.8-.8-1.7-4.8-5.1-7.2-7.1a35.3 35.3 0 00-9.8 12.2H78a34.4 34.4 0 0110.2-12.5c2.3 2.1 6.5 5.5 7.4 7.4 2.1 3.7-1.6 8.8-5.2 7.3a7.3 7.3 0 010 4.4z"/><path d="M86.1 337.8h-.2c1.3-2.2.6-5.7-1.5-6.1a10.7 10.7 0 00-2.2 3.4H82a10.3 10.3 0 012.3-3.7c2.2 0 3.3 4.1 1.8 6.5zM81.9 337.2c-.9-1-4.3-2.1-3.4-4h.2c-.8 1.5 2.4 2.6 3 3.4l.6-1.1h.2zM90.1 341.5a19.8 19.8 0 01-4.2-2.3 2.9 2.9 0 01.4-1.3l.3.2a1.9 1.9 0 00-.4 1 25.4 25.4 0 003.6 2 1.8 1.8 0 01.8-1.4l.2.2c-.1 0-1 .9-.7 1.6zM90 331.3c-1 0-2.4-.8-4.1-2.3.1-1.2 2.8-3.5 3.4-3.7 2.4.3 4.3 5.7.7 6zm-3.8-2.4c2.8 3.4 7 2.2 5.1-1.6a4.3 4.3 0 00-2-1.7c-.5.2-2.9 2.4-3.1 3.3zM103.7 346.8c-11.5-.4-10.3-18.9.8-19.3s10 20.3-.8 19.3zm.8-19c-12 .6-11.2 20.9 1.2 18.5 10.1-2.8 8.8-18.2-1.2-18.5z"/><path d="M103.8 342.7c-6 0-5.1-10.8.7-10.9s4.6 10.8-.7 10.9zm.7-10.6c-5.4.1-6.4 10.4-.7 10.3s6.4-9.8.7-10.3zM101.3 373.6c-9.9 4.9-8.9 19.3-17.5 25.6 6.9-7.5 6.5-22.4 17.5-25.6zM107.4 376.8c4.8 3.8 6.1 10.7 7 16.5-2-5.5-3.1-12-7-16.5zM162 373.6c4.9 7.2 6.5 17 5.6 25.6-1.1-8.6-2.4-17.5-5.6-25.6zM150.9 303.9h-.6a19 19 0 00-1.1-8.2l.6-.3a20.8 20.8 0 011.1 8.6zM126.4 228.2c-.3 7.5 10.4 7 10.7 0s-11.1-7.1-10.7 0zM171.1 243.3c-.2 6.7 9.4 6.3 9.7 0s-10-6.3-9.7 0z"/><path fill="url(#bf403657-2b65-46b5-bfd5-e342a935541e)" d="M178.4 241.4c3.7.1 3.7-5.7 0-5.6s-3.6 5.7 0 5.6z"/><path fill="url(#e8cdf68b-410d-446e-81e4-11e75a56170e)" d="M132.9 225.1c4.1.1 4.1-6.4 0-6.4s-4.2 6.5 0 6.4z"/><path d="M104.1 400.8l.6-3.7c1.3-.1 1 2.1-.2 1.4" class="ea0f9937-ff8b-4088-b516-aae16ed15df3"/><path d="M107.6 407.2c-2.5 4.2-9.8 1.6-8.9-3.4a4.9 4.9 0 017.9-3" class="ea0f9937-ff8b-4088-b516-aae16ed15df3"/><path d="M107.2 402.6l1.8-.7M108.1 402.2c1.5.6-.3 1.1-.5 1.2M107.7 404l1.4-.2M109.3 403.8h.3M107.7 404.6h1.4M108.7 404.7c.2.1.2.6.2.6M107.6 406.1c.2-.8 1.5-.2 1 .4s-1.4 0-1-.4zM107.7 401.5c0-1.7-2.2.4-.4.4" class="e6b6e171-c2be-4610-b09e-fc1482959036"/></g></svg>