<svg xmlns="http://www.w3.org/2000/svg" id="bb6e02f0-66a1-4d0a-8cab-e7fcf9f68ea7" data-name="ad8a49cc-ca31-4931-b0cd-4c5e4fe9cf2a" viewBox="0 0 290 360"><defs/><defs><radialGradient id="aeec4334-85b0-448f-b4cc-9b6ff556b572" cx="-995.7" cy="459.1" r="1" gradientTransform="matrix(158.62 0 0 -158.85 158082.5 73115.4)" gradientUnits="userSpaceOnUse"><stop offset="0" stop-color="#fff" stop-opacity=".5"/><stop offset=".8" stop-color="#fff" stop-opacity=".1"/><stop offset="1" stop-color="#fff" stop-opacity="0"/></radialGradient><linearGradient id="a7499f20-6c52-4d6b-a226-d6eb85ab867f" x1="95.6" x2="95.6" y1="-95.1" y2="91.8" gradientTransform="matrix(1 0 0 -1 0 164)" gradientUnits="userSpaceOnUse"><stop offset="0" stop-color="#d3bb7f"/><stop offset="1" stop-color="#d3bb7f" stop-opacity="0"/></linearGradient><style>.acec9430-1437-45aa-beb4-c0cf084d0b7e{opacity:.25}.a77bcce0-185f-4291-a226-128916445525,.acec9430-1437-45aa-beb4-c0cf084d0b7e{isolation:isolate}.a77bcce0-185f-4291-a226-128916445525{opacity:.35}.b166557e-2392-4eb0-9fe0-342e14774731,.e0cb42d7-cb18-4054-a203-a4e05c1c631d,.f908cfd1-8548-49db-a742-cdb27051c2e3,.fcdc6566-4763-44d7-8604-fc69ad330ae7{fill:none}.b166557e-2392-4eb0-9fe0-342e14774731,.f908cfd1-8548-49db-a742-cdb27051c2e3{stroke:#000;stroke-miterlimit:10}.f908cfd1-8548-49db-a742-cdb27051c2e3{stroke-width:.65px}.b166557e-2392-4eb0-9fe0-342e14774731{stroke-width:.71px}.fcdc6566-4763-44d7-8604-fc69ad330ae7{stroke:#2d2d2d}.e0cb42d7-cb18-4054-a203-a4e05c1c631d,.fcdc6566-4763-44d7-8604-fc69ad330ae7{stroke-linecap:round;stroke-linejoin:round;stroke-width:.42px}.e0cb42d7-cb18-4054-a203-a4e05c1c631d{stroke:#f44040}</style></defs><path fill="#e3e3e8" d="M9.5 105.5L6.7 22.3c6.7-1.8 46.4-3.3 92.5-5.3 70-3 155.2-6.3 166.4-7.5l15.3 18.4c1.3 72.9 7.1 246.2 8.2 321.1-9.8 5.1-196 7-270.5 10.1z"/><path fill="url(#aeec4334-85b0-448f-b4cc-9b6ff556b572)" d="M18.6 359.1c0-1.8-12.2-334.7-11.9-336.5C24.4 18 93 18.7 125.8 16l-.4 5.8c.3.7 1.6 3.1 1.3 3.8l-1.2 1.2v2.1l1.9 1.6h1.6l1.4-.5c7.5 6.5 18.7 1.6 18.5-9.1 2.7 1.3 9.9-2.7 10.2-6.7l106.3-4.8c3.1 3.6 15.3 16.3 15.4 19.8.6 27.3 2.1 72.8 2.6 99.7 1.8 50.6 4.7 170.8 5.7 220.1-28.1 2-234.4 8.9-270.5 10.1"/><path d="M126.1 26.6c.9-1.2 2.4-1.3 4.1-.3 8.4-8.1 21.2 0 19.2 9.1 25.9 2.6-2.6 35.3-9.8 11.2-7.2 5.1-17.7-8.3-12.6-15.7-1.6-1.5-2.2-2.7-.9-4.3z" class="acec9430-1437-45aa-beb4-c0cf084d0b7e"/><path d="M38.1 46.1c.1.9-1.9 3.4-1.1 4.3-2.6 1.2.8-3.6 0-4.5a7.3 7.3 0 00-5.4 4.2h-.8a49.3 49.3 0 004.7-8c1.1.7-.2 1.4-1.4 4.7 1.4-.4 3.8-2.6 4-.5zM40.1 46.2c-.2.2-.5 3.3-1.7 3a6.3 6.3 0 011.3-3.5c.3.2.4.4.4.5zm1-3.2c-.7 1.3-1.4-.3-.9-1.1zM46.2 46.7c-3.8-2-2.4 2.4-4.9 3.2 0-.6 1.2-2.2 1.2-2.7s-.1-2.6.9-2.4c-.2 1.8 2.7.1 2.8 1.9zM53.6 46.9c0 2.4-6.8 3.3-6.9 1.1s6.5-4.6 6.9-1.1zm-.7 0c-.8-2.3-4.7-.4-5.5 1.2 1.3 1.3 5.2.5 5.5-1.2zM60.5 45.4c-.1 0-.4 3.3-1.7 3a6.3 6.3 0 011.3-3.5c.3.2.4.4.4.5zm1-3.2c-.7 1.3-1.4-.3-.9-1.1zM68.6 42.9c-.3 1.3-3 1-3.8 2 8.1.6-2.5 7.5-2.9 1.8a3 3 0 005.2-.1c0-1.1-2.9-.7-3.9-1.6 1.7-.9 3.5-2.1 5.4-2.1zM80.7 42.4c-.3 1.3-3.1 1-3.8 2.1 8.1.6-2.5 7.4-3 1.8a3.1 3.1 0 005.3-.2c0-1-3-.7-3.9-1.6 1.7-.9 3.5-2.1 5.4-2.1zM87.2 44.2c.2 2.6-4.8 3.1-6.1 4.8s-.8 2.4-1.6 2.6c-.8-1.7 3.6-4.9 3.5-6.9l-.6.3c-1-1.4 5.1-3.1 4.8-.8zm-.7 0c-1.3-1.9-4 1.9-4 3.2a6.8 6.8 0 004-3.2z"/><path d="M93 46.8c-2.4 2-8.7.3-3.5-2.7s3 3.4-.7 1.6c-2.4 2.2 3.6 1.1 4.2 1.1zm-1.2-2.1c-.7-.6-1.2-.4-2.1.2a1.3 1.3 0 002.1-.2zM97.6 39.8l-3.1 6.5c-.5 1-.5 1.7-1.2 1 .9-2.3 2.9-5.8 3.8-8a.5.5 0 01.5.5zM102.6 46.4c-2.4 2-8.7.3-3.5-2.6s3 3.3-.6 1.5c-2.4 2.2 3.5 1.2 4.1 1.1zm-1.2-2.2c-.8-.6-1.3-.3-2.1.2a1.2 1.2 0 002.1-.2zM108.8 44.1a4.3 4.3 0 01-1 2.3v.4c-.7 1-1.4-.3-.4-1.3 1.8-4.6-3.3 1.2-4.5 1.7s3.8-7 2.6-3.1c1.4-.8 3-1.8 3.3 0zM120.9 44.3c0 2.4-6.7 3.3-6.9 1.1s6.6-4.7 6.9-1.1zm-.6 0c-.8-2.3-4.8-.4-5.6 1.1 1.3 1.5 5.3.7 5.6-1.1zM130.5 42.4c-.3 1.5-1.4 3-1.7 4.5-1.6-.6 1-3.7.8-4.3s-3.9 3-5.3 3 2.1-1.8 1.1-2.8c-1.3.6-2.8 3.3-4.2 3.7.2-1.6 4.7-7 5.5-3 .6-.1 3.6-2.8 3.8-1.1zM143 42c0 1-1.9 3.5-1.1 4.4-2.7 1.1.8-3.6 0-4.5a8 8 0 00-5.5 4.1h-.7a64.8 64.8 0 004.6-8.1c1.1.7-.1 1.4-1.3 4.7 1.3-.4 3.7-2.6 3.9-.5zM30.6 49.3c-15.7 5.7-1.1-13.8-1-4.1-.5 0-.5 0-.8-.4-.5-6.4-11.4 9 1.7 4.2a.4.4 0 01.1.3z"/><path d="M148.7 44.7c-2.4 2-8.7.3-3.6-2.7s3.1 3.4-.6 1.6c-2.4 2.1 3.6 1.1 4.2 1.1zm-1.3-2.2c-.7-.6-1.2-.4-2.1.2a1.3 1.3 0 002.1-.2z"/><path d="M154 38.1c0 .8-.3.8-.9 1.7s1.1.5 1 1.1c-3.1-1.1-6.2 5.5-.9 4.1v.2c-4.6 1.5-5-1.6-1.9-4.3-.8-.3-2.3 1.1-2.6 0 1.7-1.1 4-.2 4.7-3.5.2 0 .5.4.5.6zM166.2 39.1c-.3 1.3-3.1.9-3.9 2.1 8.2.5-2.4 7.4-2.9 1.8a3.1 3.1 0 005.3-.2c0-1.1-3-.7-3.9-1.6 1.6-.9 3.5-2.1 5.4-2.1zM172.7 40.8c.1 2.5-4.8 3.2-6.2 4.8s-.7 2.5-1.6 2.6c-.8-1.6 3.7-4.7 3.6-6.8l-.7.4c-.9-1.4 5.1-3.1 4.9-1zm-.7 0c-1.4-1.9-4.1 2-4.1 3.3a6.8 6.8 0 004.1-3.3z"/><path d="M178.4 43.4c-2.4 2.1-8.7.4-3.5-2.6s3 3.4-.7 1.6c-2.3 2.3 3.6 1.1 4.2 1zm-1.3-2.1c-.7-.7-1.2-.4-2.1.1a1.2 1.2 0 002.1-.1zM183 36.5c-.3 1-2.7 5.5-3 6.4s-.6 1.8-1.3 1c1-2.3 2.9-5.8 3.9-8a.4.4 0 01.4.6zM185.6 43.2c0 .6-.8.7-1.1.9s.3-1.3 1.1-.9zM193.9 42.9c-15.8 5.7-1.1-13.8-1.1-4.1-.5 0-.5 0-.7-.4-.6-6.3-11.5 9.1 1.6 4.3v.2zM201.3 39.7c0 .9-1.9 3.4-1 4.3-2.7 1.2.7-3.6 0-4.5a7.8 7.8 0 00-5.5 4.3l-.6-.2a63.7 63.7 0 004.6-8c1.1.6-.2 1.3-1.3 4.6 1.3-.4 3.7-2.6 3.8-.5zM203.3 39.9c-.1.1-.4 3.2-1.6 3a6.2 6.2 0 011.2-3.5l.4.5zm1-3.3c-.7 1.3-1.4-.3-.8-1.1zM209.5 40.3c-3.9-2-2.4 2.5-5 3.2 0-.6 1.2-2.2 1.2-2.6s-.1-2.6.9-2.5c-.1 2 2.7.3 2.9 2zM216.8 40.5c0 2.5-6.7 3.4-6.9 1.1s6.6-4.6 6.9-1.1zm-.6 0c-.8-2.3-4.8-.4-5.6 1.2 1.3 1.4 5.3.6 5.6-1.2zM223.7 39.1c-.1 0-.4 3.2-1.6 3a5.9 5.9 0 011.3-3.6l.3.6zm1-3.3c-.7 1.3-1.3-.2-.8-1.1a4.4 4.4 0 01.8 1.1zM231.9 36.5c-.4 1.3-3.1 1-3.9 2.1 8.1.6-2.5 7.4-2.9 1.8a3 3 0 005.2-.2c0-1-2.9-.7-3.8-1.5 1.6-.9 3.5-2.3 5.4-2.2zM242.3 36.1c0 1.7-3 3-3.2 4.9s-2-2.3-2.1-3.4 1.2 2.2 1.4 2.8 2.6-3.2 3.7-4.3zM247.1 40.8c-2.4 2-8.7.3-3.5-2.7s3 3.4-.7 1.6c-2.4 2.2 3.6 1.2 4.2 1.1zm-1.3-2.2c-.7-.7-1.2-.4-2.1.2a1.3 1.3 0 002.1-.2zM252.2 38.7c-3.9-2.1-2.4 2.4-4.9 3.2 0-.6 1.1-2.3 1.2-2.7s-.2-2.6.9-2.6c-.1 2 2.7.2 2.8 2.1zM258.7 37.9c0 1.1-.9.5-1.3.4s-2.9.9-3.9.6 5.5-1.5 5.1-.7zM29.8 55.2c-.3 1.5-2.7 3.2-3 4.9 6.1.2-.5 6.2-3.7 4.1.3-1.4 2.7-3.4 3.4-4.7s1.2-4 3.3-4.3zm-.9 6.2c-1.1-2-4.6.3-4.3 2.2s4.4-1.2 4.3-2.2zM36.7 61.6c0 2.5-6.7 3.4-6.8 1.1s6.5-4.6 6.8-1.1zm-.6 0c-.8-2.3-4.8-.4-5.5 1.2 1.3 1.3 5.2.5 5.5-1.2zM43 60.7a6.4 6.4 0 01-1 2.4.4.4 0 00.1.3c-.7 1.1-1.4-.3-.4-1.2 1.8-4.7-3.3 1.2-4.5 1.6s3.7-6.8 2.6-2.9c1.4-.9 3-1.9 3.3 0z"/><path d="M49.4 56.1c-.3 1.3-1.7 4.5-2 5.7h.6c-.5 1.6-2.2 1.1-3.4 1.3-4.1 0 .7-5.3 2.7-3.2v-.3s1.4-5.2 2.1-3.5zm-2.6 5.1c-.3-2.8-5.8 1.8-1.6 1.4 1.1 0 1.6-.5 1.6-1.4zM54.4 62.3c-2.4 2-8.7.3-3.5-2.6s3 3.4-.7 1.6c-2.3 2.2 3.6 1.1 4.2 1zm-1.2-2.2c-.8-.6-1.3-.3-2.1.2a1.2 1.2 0 002.1-.2zM60.6 60a3.7 3.7 0 01-1 2.3l.1.4c0 .1-1.4-.3-.4-1.2 1.8-4.7-3.3 1.1-4.5 1.6s3.8-6.8 2.6-2.9c1.4-.9 3-1.9 3.3 0zM68 59c.1.9-1.9 3.4-1.1 4.3-2.7 1.2.8-3.6 0-4.5a7.6 7.6 0 00-5.4 4.3l-.8-.2a49.3 49.3 0 004.7-8c1.1.6-.2 1.4-1.3 4.6 1.3-.4 3.7-2.6 3.9-.5z"/><path d="M73.7 61.6c-2.5 2-8.7.3-3.6-2.7s3.1 3.4-.6 1.6c-2.4 2.2 3.6 1.1 4.2 1.1zm-1.3-2.2c-.7-.6-1.3-.4-2.1.2a1.3 1.3 0 002.1-.2zM75.7 58.9c-.2 0-.5 3.2-1.7 3a6.3 6.3 0 011.3-3.5 1 1 0 01.4.5zm1-3.3c-.7 1.3-1.4-.2-.9-1.1zM83.3 54.8c-.2 1.3-1.7 4.5-2 5.7h.7c-.6 1.6-2.2 1.1-3.5 1.3-4.1 0 .8-5.1 2.6-3.2-.2.1 1.4-5.5 2.2-3.8zm-2.6 5.1c-.2-2.8-5.7 1.8-1.6 1.4 1.1 0 1.7-.5 1.6-1.4zM85.9 61.1c0 .6-.8.8-1.1 1s.2-1.4 1.1-1zM99.1 60.7C83.3 66.4 98 46.9 98 56.6c-.5 0-.4 0-.7-.4-.6-6.4-11.4 9 1.6 4.2a.2.2 0 010 .3h.2zM106.5 57.4c.2 1-1.8 3.5-1 4.4-2.8 1.2.7-3.6 0-4.5a7.4 7.4 0 00-5.5 4.2h-.8a65.6 65.6 0 004.7-8.1c1.1.6-.2 1.4-1.4 4.7 1.4-.5 3.8-2.7 4-.6zM108.5 57.6c-.1 0-.4 3.3-1.6 3a5.6 5.6 0 011.3-3.5.5.5 0 01.3.5zm1-3.2c-.7 1.3-1.4-.3-.8-1.2zM114.7 58.1c-3.9-2.1-2.4 2.4-4.9 3.2 0-.6 1.1-2.3 1.2-2.7s-.2-2.6.9-2.6c-.2 2 2.7.2 2.8 2.1zM122 58.3c0 2.4-6.7 3.3-6.9 1.1s6.6-4.7 6.9-1.1zm-.6 0c-.8-2.3-4.8-.4-5.6 1.1 1.3 1.5 5.3.7 5.6-1.1zM129 56.8c-.2.1-.5 3.3-1.7 3a5.6 5.6 0 011.3-3.5 1 1 0 01.4.5zm.9-3.2c-.7 1.2-1.4-.3-.8-1.2zM137.1 54.3c-.3 1.3-3.1.9-3.9 2 8.2.6-2.4 7.4-2.9 1.9a3.1 3.1 0 005.3-.2c0-1.1-3-.7-3.9-1.6 1.6-.9 3.5-2.1 5.4-2.1zM147.8 58.7c-2.4 2-8.7.3-3.5-2.7s3 3.4-.7 1.6c-2.3 2.3 3.6 1.2 4.2 1.1zm-1.3-2.2c-.7-.6-1.2-.3-2.1.2a1.2 1.2 0 002.1-.2z"/><path d="M153.5 58.5c-2.4 2-8.7.3-3.5-2.7s3 3.4-.7 1.6c-2.4 2.2 3.6 1.1 4.2 1.1zm-1.3-2.2c-.7-.6-1.3-.4-2.1.1a1.2 1.2 0 002.1-.1zM159.7 56.2a5.2 5.2 0 01-1 2.3.4.4 0 00.1.3c-.7 1.1-1.4-.3-.4-1.2 1.8-4.7-3.3 1.2-4.5 1.6s3.7-6.8 2.6-2.9c1.3-1.1 2.9-2.1 3.2-.1zM171.1 51.4c.1.6-3.4 7.7-1.4 5.8-8.2 4.5-4.5-4.1-.7-1.9v-.4s1.4-5.2 2.1-3.5zm-2.6 5c-.3-2.7-5.8 1.9-1.6 1.5 1-.1 1.6-.6 1.6-1.5zM176.2 57.6c-2.5 2-8.8.3-3.6-2.7s3 3.4-.6 1.6c-2.4 2.2 3.5 1.2 4.2 1.1zm-1.3-2.2c-.8-.6-1.3-.3-2.1.2s1.7.6 2.1-.2z"/><path d="M181.9 57.4c-2.5 2-8.7.3-3.6-2.7s3 3.4-.6 1.6c-2.4 2.2 3.5 1.1 4.2 1.1zm-1.3-2.2c-.8-.6-1.3-.4-2.1.2a1.3 1.3 0 002.1-.2zM186.5 50.4l-3.1 6.5c-.4 1-.6 1.6-1.3.9 1-2.3 2.9-5.8 3.9-8a.6.6 0 01.5.6zM196.2 52c.1 1.3-2.4 2.6-2.8 3.8s-2.4 2.9-2 .1c0-.6-1.2-2.3-.2-2.6s.9 2.5 1.1 3.1c.8-1 2.6-3.6 3.9-4.4zM201.3 57.5c-.5 1.4-1.7-.2-2.1-.9-10.5 4.4 3.9-9.8 1.3-1.4-.6 1.5-.8 2.1.8 2.3zm-.5-4c-4.8-1.9-7 8.6 0 .7z"/><path d="M207 54.3c0 1.1-.9 1.8-1 2.7s-1.4-.3-.4-1.2c1.8-4.7-3.3 1.1-4.5 1.6s3.8-7 2.6-3c1.4-.9 3-1.9 3.3-.1zM214.7 53.8c-2.4 13.1-8.8 5.5-5.8 4.1.7 6.9 4.9.4 5.6-4.5zm1-3.4c0 .4-.9.3-1.3.2s1.6-1.6 1.3-.2zM221.6 55.8c-2.4 2-8.7.3-3.6-2.6s3.1 3.3-.6 1.5c-2.2 2.3 3.6 1.2 4.2 1.1zm-1.2-2.2c-.7-.6-1.2-.3-2.1.2a1.2 1.2 0 002.1-.2zM227.8 51.8c0 .4-1.3 1.7-3.9 3.8 1.1.4 3.3-.7 4.1.4a19.3 19.3 0 00-5.3 1.1c.2-.4-.3-.2-.5 0-.5-1.9 4.1-3.3 4.3-4.9s-2.6.8-2.9-.4 1.6 0 2.1-.2 2.1-.6 2.3.2z"/><path d="M233.7 55.3c-2.5 2.1-8.7.4-3.6-2.6s3.1 3.4-.6 1.6c-2.4 2.2 3.5 1.1 4.2 1zm-1.3-2.2c-.8-.6-1.3-.3-2.1.2a1.2 1.2 0 002.1-.2zM238.3 48.4l-3.1 6.4c-.5.9-.4 1.6-1.1 1.2.7-2.4 2.9-5.9 3.8-8.2a.7.7 0 01.4.6zM246 48.8a1.7 1.7 0 01-.7 1.5c.6-3.7-3.4-1.5-3.9 1.6 1 .3 1.3.2 1.4.9-2.8-1.2-2.1 2.7-4.4 3.3.2-1.2.4-1 1.4-2.9-2.4.5-3.1-.4-.2-.8s4.2-7.5 6.4-3.6zM247.1 54.8c0 .6-.8.8-1.1 1s.3-1.4 1.1-1zM31.7 77.4c-15.7 5.6-1.1-13.9-1-4.2-.5 0-.5 0-.8-.4-.5-6.3-11.4 9.1 1.7 4.3v.3zM39.1 74.1c.2 1-1.8 3.5-1 4.3-2.6 1.2.8-3.6 0-4.4a7.3 7.3 0 00-5.4 4.2l-.8-.2a58.4 58.4 0 004.8-8c1.1.6-.1 1.4-1.3 4.7 1.3-.5 3.7-2.7 3.9-.6zM41.2 74.3s-.5 3.2-1.7 3a6.3 6.3 0 011.3-3.5zm.9-3.4c-.6 1.3-1.3-.2-.8-1.1a4.4 4.4 0 01.8 1.1zM47.2 74.8c-3.9-2.1-2.4 2.4-4.9 3.1 0-.5 1.2-2.2 1.2-2.6s-.2-2.6.9-2.5c-.2 2 2.6.3 2.8 2zM54.7 75c0 2.4-6.8 3.3-6.9 1s6.5-4.6 6.9-1zm-.7 0c-.8-2.3-4.7-.4-5.5 1.1 1.3 1.4 5.2.6 5.5-1.1zM61.6 73.6c-.1 0-.5 3.2-1.7 3a6.3 6.3 0 011.3-3.5 1 1 0 01.4.5zm1-3.3c-.7 1.3-1.4-.2-.9-1.1zM69.7 70.9c-.3 1.3-3.1 1-3.8 2.1 8.1.6-2.5 7.4-3 1.8 1.1 1.9 4.3 2 5.3-.1s-3-.8-3.9-1.6a13.4 13.4 0 015.4-2.2zM80.2 70.6c0 1.7-3.1 2.9-3.2 4.8s-2.1-2.3-2.1-3.4 1.1 2.3 1.4 2.9a38.1 38.1 0 013.7-4.3zM86.6 73.7c0 2.5-6.7 3.4-6.9 1.1s6.6-4.6 6.9-1.1zm-.6 0c-.8-2.3-4.8-.4-5.6 1.2 1.3 1.4 5.3.6 5.6-1.2zM93.8 73.6c0 2.4-6.8 3.3-6.9 1s6.5-4.6 6.9-1zm-.7 0c-.8-2.4-4.8-.4-5.5 1.1 1.3 1.3 5.2.5 5.5-1.3zM98.8 72.7c-3.8-2-2.3 2.5-4.9 3.2 0-.5 1.2-2.2 1.2-2.6s-.1-2.6.9-2.5c-.2 2 2.7.3 2.8 1.9zM105.9 71.8c-.2 0-.5 3.2-1.7 3a5.6 5.6 0 011.3-3.5 1 1 0 01.4.5zm.9-3.3c-.7 1.3-1.3-.3-.8-1.1a4.4 4.4 0 01.8 1.1zM112.6 74.1c-2.4 2-8.7.3-3.5-2.6s3 3.3-.7 1.5c-2.3 2.3 3.6 1.2 4.2 1.1zm-1.2-2.2c-.8-.6-1.3-.3-2.1.2a1.2 1.2 0 002.1-.2z"/><path d="M119.2 67.5c-.2 1.3-1.7 4.4-2 5.7h.7c-.6 1.6-2.2 1.1-3.5 1.2-4.1 0 .8-5.2 2.6-3.2v-.4s1.5-5.1 2.2-3.3zm-2.6 5c-.3-2.7-5.7 1.8-1.6 1.4 1.1 0 1.6-.5 1.6-1.4zM124.3 73.6c-2.5 2-8.7.3-3.6-2.7s3.1 3.4-.6 1.6c-2.4 2.3 3.5 1.2 4.2 1.1zm-1.3-2.2c-.7-.6-1.2-.4-2.1.2a1.2 1.2 0 002.1-.2zM129.4 71.6c-3.9-2.1-2.4 2.4-5 3.1 0-.5 1.2-2.2 1.3-2.6s-.2-2.6.9-2.5c-.3 2 2.6.3 2.8 2zM135.2 73.2c-4.4 2.7-8.6-1.1-2.1-3.2 3.8.5-.4 3.5-2.1 2.1-2.4 2.3 3.5 1.2 4.2 1.1zm-1.4-2.3c-.7-.6-1.2-.3-2.1.3a1.2 1.2 0 002.1-.3z"/><path d="M140.9 73c-4.3 2.7-8.6-1.1-2.1-3.3 3.8.6-.4 3.6-2.1 2.2-2.4 2.3 3.5 1.2 4.2 1.1zm-1.3-2.2c-.8-.6-1.3-.3-2.1.2a1.2 1.2 0 002.1-.2zM146.9 70.7c.1 1-.9 1.8-1 2.7s-1.4-.3-.4-1.2c1.8-4.7-3.3 1.1-4.5 1.6s3.8-6.9 2.6-3c1.5-.8 3-1.8 3.3-.1zM150.1 72.7c0 .6-.8.7-1 .9s.2-1.4 1-.9zM163.3 72.2c-15.4 5.8-1.4-13.8-1-4.1-.5 0-.5 0-.8-.4-.5-6.3-11.4 9.1 1.7 4.3v.2zM170.7 69c.2.9-1.8 3.4-1 4.3-2.7 1.2.8-3.6 0-4.5a7.2 7.2 0 00-5.4 4.3l-.8-.2a56.2 56.2 0 004.6-7.9c1.1.6-.1 1.4-1.3 4.7 1.3-.5 3.7-2.7 3.9-.6zM172.8 69.2c-.2.1-.5 3.2-1.7 3a5.9 5.9 0 011.3-3.6l.4.6zm.9-3.3c-.7 1.3-1.3-.3-.8-1.1a4.4 4.4 0 01.8 1.1zM178.9 69.6c-3.9-2-2.4 2.5-4.9 3.2 0-.6 1.1-2.2 1.2-2.6s-.2-2.6.9-2.5c-.2 2 2.6.3 2.8 1.9zM186.3 69.8c0 2.5-6.7 3.4-6.9 1.1s6.6-4.6 6.9-1.1zm-.7 0c-.7-2.3-4.7-.4-5.5 1.2 1.3 1.4 5.3.6 5.5-1.2zM193.2 68.3c-.2 0-.5 3.3-1.7 3a6.3 6.3 0 011.3-3.5zm1-3.2c-.7 1.3-1.4-.2-.8-1.1a4.4 4.4 0 01.8 1.1zM201.3 65.8c-.3 1.3-3.1 1-3.9 2.1 8.2.6-2.4 7.4-2.9 1.8a3.1 3.1 0 005.3-.2c0-1-3-.7-3.9-1.5 1.7-.9 3.5-2.2 5.4-2.2zM211.8 65.4c0 1.7-3.1 3-3.2 4.9s-2.1-2.3-2.1-3.4 1.1 2.2 1.3 2.8l3.7-4.3zM218.1 68.6c0 2.5-6.7 3.3-6.9 1.1s6.6-4.7 6.9-1.1zm-.7 0c-.7-2.3-4.7-.4-5.5 1.2 1.3 1.4 5.3.6 5.5-1.2zM225.3 68.3c0 2.5-6.7 3.4-6.8 1.1s6.5-4.6 6.8-1.1zm-.6 0c-.8-2.3-4.8-.4-5.5 1.2 1.3 1.4 5.2.6 5.5-1.2zM230.4 67.6c-3.8-2-2.4 2.5-4.9 3.2 0-.6 1.2-2.2 1.2-2.6s-.1-2.7.9-2.5c-.2 1.9 2.6.2 2.8 1.9zM241.5 70c-.5 1.4-1.7-.2-2.1-.9-10.5 4.4 3.9-9.8 1.3-1.4-.7 1.5-.8 2.1.8 2.3zm-.5-4c-4.8-1.9-7 8.6 0 .6z"/><path d="M245.6 62.1c-.4 1.1-2.6 5.5-3.1 6.5s-.3 1.6-1.1 1.2c.8-2.5 2.9-5.9 3.9-8.3l.3.6zM250.2 62.5c0 .7-.2.7-.8 1.7s1.1.5.9 1c-3-1-6.2 5.6-.8 4.1v.3c-4.6 1.5-5-1.7-2-4.4-.8-.2-2.3 1.2-2.6 0 1.8-1 4.1-.1 4.7-3.4.3 0 .5.4.5.6zM252.5 66.1c-.2 0-.5 3.2-1.7 3a5.9 5.9 0 011.3-3.6c.2.3.4.4.4.6zm.9-3.3c-.7 1.3-1.3-.3-.8-1.1a4.4 4.4 0 01.8 1.1zM256.4 66.2c-2.4 13.1-8.8 5.5-5.8 4.1.7 6.9 4.9.4 5.6-4.5v.3zm1-3.4c0 .4-.9.3-1.4.2s1.3-1.1 1.4-.2zM264.2 61.8c-.3 1.3-1.8 4.5-2 5.7h.6c-.5 1.6-2.2 1.1-3.5 1.3-4 0 .8-5.3 2.8-3.2v-.3s1.3-5.2 2.1-3.5zm-2.7 5.1c-.2-2.8-5.7 1.8-1.6 1.4 1.1 0 1.7-.5 1.6-1.4zM266.7 68.1c0 .6-.8.7-1.1 1s.3-1.4 1.1-1zM32 105.5v.2l-.7.5c0 .1-7.9 1.8-5-1.5 3.9-8.9 5.1-8.3.7.6a20.1 20.1 0 004.9-.2z"/><path d="M37.6 105.1c-2.4 2-8.7.3-3.5-2.6s3 3.3-.7 1.5c-2.3 2.3 3.6 1.1 4.2 1.1zm-1.3-2.2c-.7-.6-1.2-.3-2.1.2a1.2 1.2 0 002.1-.2zM39.6 102.5c-.1 0-.4 3.2-1.6 3a5 5 0 011.4-3.5zm1-3.3c-.7 1.3-1.4-.2-.8-1.1zM47.2 98.4c-.2 1.3-1.7 4.4-2 5.7h.7c-.6 1.6-2.2 1-3.5 1.2-4.1 0 .8-5.2 2.8-3.2v-.3c.1-.3.9-5 2-3.4zm-2.6 5c0-2-3.1-.2-3.1.9s3.6.7 3.1-.9zM48.6 102.1c-.1 0-.4 3.2-1.6 3a5.6 5.6 0 011.3-3.5.5.5 0 01.3.5zm1-3.2c-.7 1.2-1.4-.3-.8-1.1a4.4 4.4 0 01.8 1.1zM55.9 102.5a5.2 5.2 0 01-1 2.3l.2.3c.1.1-1.4-.3-.4-1.2 1.8-4.7-3.3 1.2-4.6 1.6s3.8-6.8 2.7-2.9c1.4-.9 3-1.9 3.3 0z"/><path d="M61 101.7c-.6 3.1 0 8.4-4.1 8.3-.6 0-3-.4-2.4-1.5 2.6 2.6 6.1-.9 5.2-3.9-7.6 1.5-.9-6.9 1.3-2.9zm-.8 0c-.6-1.2-3.5.7-3.3 1.8s2.6 1 2.8 0l.5-1.8zM75.9 101.9c0 2.2-4.1 3.8-5.6 2.2v-.2c-.3-.4-1.9.9-2.7.8-3 .6.7-4.3 1.4-3.8s-1.5 2.4-1.8 3.1c1.7.7 2.8-.7 3.6-2.3h.3c-.9 4.7 6.1 1.5 3.9-1.4-.2 0-.4 0-.5-.2l.2-.2c.8 0 1.2 1.1 1.3 1.9zM83.1 102c0 2.4-6.7 3.3-6.8 1s6.5-4.6 6.8-1zm-.6 0c-.8-2.4-4.8-.4-5.5 1.1 1.2 1.4 5.2.6 5.5-1.1zM88.2 101.3c-3.9-2.1-2.4 2.4-4.9 3.2 0-.6 1.1-2.3 1.2-2.7s-.2-2.6.9-2.5c-.2 2 2.6.3 2.8 2zM94.9 96.5c-.3 1.3-1.7 4.5-2 5.7h.6c-.5 1.7-2.2 1.1-3.5 1.3-4 0 .8-5.2 2.7-3.2v-.2s1.4-5.3 2.2-3.6zm-2.7 5.1c-.2-2.8-5.7 1.8-1.5 1.4 1.1 0 1.6-.5 1.5-1.4zM99.9 102.7c-2.4 2-8.7.3-3.5-2.6s3 3.4-.7 1.5c-2.3 2.3 3.6 1.2 4.2 1.1zm-1.3-2.2c-.7-.6-1.2-.3-2.1.2a1.2 1.2 0 002.1-.2zM106.1 100.4a5.2 5.2 0 01-1 2.3l.1.4c.1.1-1.4-.3-.4-1.2 1.8-4.7-3.3 1.1-4.5 1.6s3.7-6.9 2.6-2.9c1.4-.9 3-1.9 3.3 0zM112.8 99.6c-.1 0-.4 3.2-1.6 3a5.6 5.6 0 011.3-3.5.5.5 0 01.3.5zm1-3.2c-.7 1.2-1.4-.3-.8-1.2zM121 97.1c-.3 1.3-3 .9-3.8 2 8.1.6-2.5 7.4-2.9 1.8a3 3 0 005.2-.2c0-1-2.9-.7-3.9-1.5 1.7-.9 3.5-2.2 5.4-2.1zM131.2 99c-.6 3.1 0 8.3-4 8.3-.7 0-3.1-.5-2.5-1.6 2.7 2.7 6.2-.8 5.1-3.8-7.6 1.4-.9-7 1.4-2.9zm-.8 0c-.6-1.2-3.4.7-3.3 1.8s2.6 1 2.9 0a10.1 10.1 0 00.4-1.8zM136.4 99.4c-3.8-2-2.4 2.4-4.9 3.2 0-.6 1.2-2.2 1.2-2.6s-.1-2.7.9-2.7c-.2 2 2.7.3 2.8 2.1zM143.8 99.6c0 2.5-6.8 3.3-6.9 1.1s6.6-4.7 6.9-1.1zm-.7 0c-.8-2.3-4.7-.4-5.5 1.2 1.3 1.4 5.2.6 5.5-1.2z"/><path d="M149.6 100.8c-4.3 2.6-8.6-1.1-2.1-3.3 3.8.5-.4 3.5-2.1 2.2-2.4 2.2 3.5 1.2 4.2 1.1zm-1.3-2.2c-.8-.6-1.3-.3-2.1.2a1.3 1.3 0 002.1-.2zM151.5 98.1c-.2 0-.5 3.3-1.7 3a5.6 5.6 0 011.3-3.5 1 1 0 01.4.5zm1-3.2c-.8 1.2-1.4-.3-.9-1.2zM158.3 100.4c-2.5 2.1-8.8.3-3.6-2.6s3 3.4-.6 1.6c-2.4 2.2 3.5 1.1 4.2 1zm-1.3-2.1c-.8-.7-1.3-.4-2.1.1a1.2 1.2 0 002.1-.1zM164.4 98.1c0 1.1-.9 1.8-1 2.7s-1.4-.3-.4-1.2c1.8-4.7-3.3 1.2-4.5 1.6s3.7-6.8 2.6-2.9c1.6-1.1 3-2.1 3.3-.2zM167.5 100.1c0 .6-.8.7-1.1.9s.2-1.3 1.1-.9zM179.8 99.7c.7.8-8.8 2.6-5.6-.8 3.9-9 5-8.3.6.6a27.9 27.9 0 005-.2z"/><path d="M185.5 99.4c-2.5 2-8.7.3-3.6-2.6s3.1 3.3-.6 1.5c-2.3 2.2 3.6 1.1 4.2 1.1zm-1.3-2.2c-.7-.6-1.2-.3-2.1.2a1.2 1.2 0 002.1-.2zM187.5 96.7c-.1 0-.4 3.2-1.7 3a6.3 6.3 0 011.3-3.5c.3.2.4.4.4.5zm1-3.3c-.7 1.3-1.4-.2-.9-1.1zM195.1 92.6c.2.7-3.5 7.8-1.3 5.8-8.3 4.5-4.7-4.2-.7-1.9v-.2s1.3-5.4 2-3.7zm-2.6 5.1c-.2-2.8-5.7 1.8-1.6 1.4 1.1 0 1.6-.5 1.6-1.4zM196.5 96.4c-.1 0-.4 3.2-1.7 3a6.6 6.6 0 011.3-3.6.7.7 0 01.4.6zm1-3.3c-.7 1.3-1.4-.3-.9-1.1zM203.8 96.6c0 1-1 1.8-1 2.7s-1.5-.3-.5-1.2c1.8-4.7-3.2 1.1-4.5 1.6s3.8-6.9 2.6-2.9c1.5-.9 3-1.9 3.4 0z"/><path d="M208.8 96c-.5 3 0 8.3-4 8.2-.7 0-3-.4-2.4-1.5 2.6 2.6 6.1-.8 5-3.8-7.6 1.4-.8-7 1.4-2.9zm-.7 0c-.7-1.2-3.5.7-3.4 1.8s2.7 1 2.9 0l.5-1.8zM220.1 94.3c0 .4-1.3 1.7-4 3.8 1.2.4 3.3-.7 4.1.4a22.8 22.8 0 00-5.2 1c0-.1 0-.2-.3-.2s-.1.2-.3.3c-.5-1.9 4.1-3.3 4.4-4.9s-2.7.7-2.9-.4 1.5 0 2-.2 2.1-.6 2.3.2zM222.2 95.4c-.1 0-.4 3.2-1.7 2.9a6.4 6.4 0 011.4-3.5.9.9 0 01.3.6zm1-3.3c-.7 1.3-1.4-.3-.8-1.1a4.4 4.4 0 01.8 1.1zM226.2 95.5c-2.7 13.3-8.9 5.2-5.8 4.1.7 6.9 4.9.4 5.5-4.5v.3zm1-3.4c0 .4-1 .3-1.4.2s1.3-1.1 1.4-.2zM233.5 95.5c.1 1-.9 1.7-1 2.6s-1.4-.3-.4-1.2c1.8-4.7-3.3 1.2-4.5 1.6s3.8-6.8 2.6-2.9c1.4-.9 3-1.9 3.3-.1zM240.4 94.6c-.2 0-.5 3.2-1.7 3a5.6 5.6 0 011.3-3.5zm1-3.2c-.7 1.3-1.4-.3-.8-1.1a4.4 4.4 0 01.8 1.1zM248.5 92.1c-.4 1.3-3.1.9-3.9 2.1 8.1.5-2.5 7.4-2.9 1.8a3 3 0 005.2-.2c0-1-2.9-.7-3.8-1.6 1.6-.9 3.5-2.1 5.4-2.1zM32.2 114.6c-.4 1.3-3.1.9-3.9 2 8.1.6-2.5 7.5-2.9 1.9a3 3 0 005.2-.2c0-1.1-2.9-.7-3.8-1.6 1.6-.9 3.5-2.1 5.4-2.1zM38.7 116.3c.1 2.5-4.9 3.2-6.2 4.8s-.8 2.5-1.6 2.6c-.9-1.6 3.6-4.7 3.5-6.8l-.6.4c-1-1.4 5.1-3.2 4.9-1zm-.7 0c-1.3-1.9-3.9 1.9-4.1 3.3a7.1 7.1 0 004.1-3.3z"/><path d="M44.4 118.9c-2.4 2.1-8.7.3-3.5-2.6s3 3.4-.6 1.6c-2.4 2.2 3.5 1.1 4.1 1zm-1.3-2.2c-.7-.6-1.2-.3-2.1.2a1.2 1.2 0 002.1-.2zM49 112l-3.1 6.4c-.4.9-.6 1.8-1.3 1 1-2.3 2.9-5.8 3.9-8a.6.6 0 01.5.6zM58.8 113.5c.1 1.4-2.4 2.7-2.9 3.9-1.6 4.6-2 0-2.6-2s1.4 1.7 1.4 2.5l3.7-4.4zM63.5 118.2c-2.4 2-8.7.4-3.5-2.6s3 3.4-.6 1.5c-2.4 2.3 3.6 1.1 4.1 1.1zm-1.3-2.2c-.7-.6-1.2-.3-2.1.2a1.2 1.2 0 002.1-.2zM68.6 116.1c-3.9-2-2.4 2.4-4.9 3.2 0-.6 1.1-2.2 1.2-2.7s-.2-2.6.9-2.6c-.2 2 2.7.3 2.8 2.1zM74.9 114c0 .4-1.3 1.7-3.9 3.8 1.1.4 3.3-.7 4.1.4a19.9 19.9 0 00-5.4 1.1c0-.5-.4-.2-.5 0-.5-1.9 4.1-3.3 4.3-4.9s-2.6.7-2.9-.4 1.6 0 2.1-.2 2.1-.6 2.2.2zM77.1 115.1c-.2 0-.5 3.2-1.7 3a5.9 5.9 0 011.3-3.6c.2.3.4.4.4.6zm.9-3.3c-.6 1.3-1.3-.3-.8-1.1a4.4 4.4 0 01.8 1.1zM84.3 115.3a3.7 3.7 0 01-1 2.3l.1.4c0 .1-1.4-.3-.4-1.2 1.8-4.7-3.3 1.1-4.5 1.6s3.8-6.9 2.6-2.9c1.4-.9 3-1.9 3.3 0zM90.4 115.1c0 1-.9 1.8-1 2.6s-1.4-.2-.4-1.2c1.8-4.6-3.3 1.2-4.6 1.6s3.8-6.8 2.7-2.9c1.4-1.1 3-2.1 3.3-.1z"/><path d="M96 116.9c-2.5 2-8.8.4-3.6-2.6s3 3.4-.6 1.6c-2.4 2.2 3.5 1.1 4.2 1zm-1.3-2.2c-.8-.6-1.3-.3-2.1.2a1.2 1.2 0 002.1-.2zM102.1 114.6c0 1.1-.9 1.8-1 2.7s-1.4-.3-.4-1.2c1.8-4.7-3.2 1.2-4.5 1.6s3.8-6.8 2.6-2.9c1.4-.9 3-1.9 3.3 0zM112.6 116.3c-2.4 2-8.7.3-3.5-2.6s3 3.3-.7 1.5c-2.3 2.2 3.6 1.1 4.2 1.1zm-1.2-2.2c-.8-.6-1.3-.4-2.1.2a1.3 1.3 0 002.1-.2zM118.8 114a4.3 4.3 0 01-1 2.3c.6.7-1.4.2-.3-.9 1.8-4.6-3.3 1.2-4.5 1.6s3.8-6.8 2.6-2.9c1.4-.8 3-1.9 3.3 0zM129.8 113.5c0 1.1-.9 1.8-1 2.7s-1.4-.3-.4-1.2c1.8-4.7-3.3 1.2-4.5 1.6s3.8-7 2.6-3c1.4-.9 3-1.9 3.3-.1zM131.7 113c-.2 0-.5 3.2-1.7 3a6.3 6.3 0 011.3-3.5c.3.2.4.4.4.5zm1-3.3c-.7 1.3-1.4-.3-.9-1.1zM138.5 115.3c-4.4 2.6-8.6-1.1-2.1-3.3 3.8.5-.4 3.5-2.1 2.1-2.4 2.3 3.5 1.2 4.2 1.2zm-1.3-2.3c-.8-.6-1.3-.3-2.1.2a1.3 1.3 0 002.1-.2z"/><path d="M143.7 108.8c0 .7-.2.8-.8 1.7s1.1.5.9 1.1c-3-1.2-6.2 5.5-.8 4v.2c-4.6 1.5-5-1.6-1.9-4.3-.9-.2-2.3 1.2-2.7 0 1.8-1 4.1-.1 4.8-3.4.1 0 .5.4.4.6zM156.2 113.2c0 2.4-6.8 3.3-6.9 1s6.5-4.6 6.9-1zm-.7 0c-.8-2.4-4.8-.4-5.5 1.1 1.3 1.4 5.2.6 5.5-1.1zM165.8 111.3c-.4 1.5-1.5 3-1.7 4.5-1.7-.6 1-3.7.7-4.3s-3.8 3-5.2 3 2.1-1.8 1.1-2.8c-1.3.5-2.9 3.3-4.3 3.6.2-1.5 4.8-6.9 5.5-2.9.7-.2 3.6-2.8 3.9-1.1zM176 107.5c0 .8-.2.8-.8 1.7s1.1.5.9 1.1c-3-1.1-6.2 5.6-.8 4.1v.2c-4.6 1.5-5-1.6-2-4.3-.8-.3-2.3 1.2-2.6 0 1.7-1 4.1 0 4.7-3.4.2 0 .5.4.5.5zM182 113.6c-2.5 2-8.8.3-3.6-2.7s3 3.4-.6 1.6c-2.4 2.2 3.5 1.1 4.2 1.1zm-1.3-2.2c-.8-.6-1.3-.4-2.1.2a1.3 1.3 0 002.1-.2zM196.8 111.3c0 2.1-4.1 3.7-5.6 2.1v-.2c-.3-.3-1.9.9-2.6.9-3 .5.7-4.3 1.3-3.8s-1.4 2.3-1.8 3c1.8.7 2.9-.6 3.7-2.3 0 0 0 .2.2 0-.8 4.8 6.2 1.6 3.9-1.3-.2 0-.3-.1-.4-.3s1.4 1.1 1.3 1.9zM198.8 110.4c-.1 0-.5 3.2-1.7 3a6.6 6.6 0 011.3-3.6zm1-3.3c-.7 1.3-1.4-.3-.9-1.1zM206.1 110.6c0 1-1 1.8-1.1 2.7s-1.4-.3-.4-1.3c1.8-4.6-3.3 1.2-4.5 1.6s3.8-6.8 2.6-2.9c1.4-.9 3-1.9 3.4-.1zM212.1 110.4c0 1-.9 1.7-1 2.6s-1.4-.2-.4-1.2c1.8-4.6-3.3 1.2-4.5 1.6s3.7-6.8 2.6-2.9c1.4-.9 3-1.9 3.3-.1z"/><path d="M217.8 112.2c-2.5 2-8.7.3-3.6-2.6s3.1 3.3-.6 1.5c-2.5 2.2 3.5 1.1 4.2 1.1zm-1.3-2.2c-.7-.6-1.3-.4-2.1.2a1.2 1.2 0 002.1-.2z"/><path d="M223.9 109.9c0 1-1 1.8-1 2.6s-1.5-.2-.5-1.2c1.8-4.6-3.2 1.2-4.5 1.6s3.8-6.8 2.6-2.9c1.4-.8 3-1.9 3.4-.1zM226.9 111.8c0 .6-.8.8-1 1s.2-1.4 1-1zM33 133.5v.3l-.6.4c-1.5-.8-7.9 1.9-5-1.4 3.9-9 5-8.4.6.6a21 21 0 005-.2z"/><path d="M38.7 133.2c-4.3 2.6-8.6-1.1-2.1-3.3 3.9.6-.4 3.5-2.1 2.2-2.3 2.3 3.6 1.2 4.2 1.1zm-1.3-2.2c-.7-.6-1.2-.3-2.1.2a1.2 1.2 0 002.1-.2zM40.7 130.5c-.1 0-.4 3.3-1.7 3a6.4 6.4 0 011.4-3.5.5.5 0 01.3.5zm1-3.2c-.7 1.2-1.4-.3-.8-1.1a4.4 4.4 0 01.8 1.1zM48.4 126.4c.1.8-3.4 7.5-1.4 5.9-8.4 4.3-4.5-4.3-.7-2v-.2s1.4-5.4 2.1-3.7zm-2.7 5.1c-.2-2.6-5.7 1.8-1.6 1.4 1.1 0 1.7-.5 1.6-1.4zM49.9 130.2c-.2 0-.5 3.2-1.7 3a5.6 5.6 0 011.3-3.5c.2.2.4.3.4.5zm.9-3.3c-.7 1.3-1.3-.2-.8-1.1a4.4 4.4 0 01.8 1.1zM57 130.4c0 1.1-.9 1.8-1 2.7s-1.4-.3-.5-1.2c1.9-4.7-3.2 1.2-4.5 1.6s3.8-6.8 2.7-2.9c1.4-.9 3-1.9 3.2 0z"/><path d="M62.1 129.8c-.6 3.1 0 8.3-4.1 8.3-.7 0-3-.5-2.4-1.5h.1c2.6 2.6 6.1-.9 5.1-3.9-7.6 1.4-.9-7 1.3-2.9zm-.8 0c-.6-1.2-3.5.7-3.3 1.8s2.6 1 2.8 0l.5-1.8zM73.3 128.1c0 .4-1.3 1.7-3.9 3.8 1.1.4 3.2-.7 4 .4a18.6 18.6 0 00-5.2 1.1c0-.5-.4-.1-.6 0-.5-1.9 4.1-3.3 4.4-4.9s-2.6.8-2.9-.4 1.5 0 2-.2 2.2-.6 2.3.2zM75.4 129.2c-.1 0-.4 3.2-1.6 3a5.6 5.6 0 011.3-3.5c.2.2.3.3.3.5zm1-3.3c-.7 1.3-1.4-.2-.8-1.1a4.4 4.4 0 01.8 1.1zM79.4 129.4c-2.4 12.9-8.9 5.8-5.8 4 .7 6.9 4.9.4 5.5-4.5h.2v.4zm1-3.5c0 .5-.9.3-1.4.2a.7.7 0 111.4-.2zM86.7 129.3c.1 1-.8 1.8-.9 2.6s-1.5-.2-.5-1.2c1.8-4.7-3.3 1.4-4.6 1.6s3.8-6.8 2.6-2.9c1.4-.9 3-1.8 3.3 0zM93.6 128.5c-.2 0-.5 3.2-1.7 3a5.9 5.9 0 011.3-3.6 2.1 2.1 0 01.4.6zm.9-3.3c-.7 1.3-1.4-.3-.9-1.1zM101.7 125.9c-.3 1.3-3.1 1-3.9 2.1 8.2.6-2.4 7.4-2.9 1.8a3.1 3.1 0 005.3-.2c0-1-3-.7-3.9-1.6 1.7-.9 3.5-2.1 5.4-2.1zM114.1 130.3c-6.8 4-10.7-2.2-1.8-4.5 1.9 1.2-2.4 4.2-.5 1.1-7.7 1.5-3.2 6.2 2.3 3.4zM119.2 128.2c-3.9-2-2.4 2.4-5 3.2 0-.6 1.2-2.2 1.3-2.7s-.2-2.6.8-2.4c-.2 1.8 2.7.1 2.9 1.9zM125 129.8c-2.5 2.1-8.8.4-3.6-2.6s3 3.4-.6 1.6c-2.4 2.2 3.5 1.1 4.2 1zm-1.3-2.1c-.8-.7-1.3-.4-2.1.1a1.2 1.2 0 002.1-.1z"/><path d="M131 130.5c-.5 1.4-1.7 0-2.1-.9-10.5 4.4 3.9-9.8 1.3-1.4-.7 1.5-.8 2.1.8 2.3zm-.5-3.9c-4.8-2-7 8.5 0 .6z"/><path d="M135.8 123.2c0 .7-.2.7-.9 1.6s1.1.6 1 1.1c-3.1-1.1-6.2 5.6-.8 4.1-.1.1-.1.2 0 .2-4.6 1.5-5.1-1.6-2-4.3-.8-.2-2.3 1.2-2.6 0 1.8-1.1 4.1-.1 4.7-3.4a1.1 1.1 0 01.6.7zM138 126.7c-.1 0-.4 3.3-1.7 3a5.7 5.7 0 011.4-3.5.5.5 0 01.3.5zm1.1-3.2c-.7 1.3-1.4-.3-.9-1.1zM144.8 129.1c-2.4 2-8.7.3-3.6-2.7s3.1 3.4-.6 1.6c-2.4 2.2 3.6 1.1 4.2 1.1zm-1.3-2.2c-.7-.6-1.3-.4-2.1.2a1.3 1.3 0 002.1-.2z"/><path d="M153.2 122.7a1.8 1.8 0 01-.8 1.5c.7-3.7-3.4-1.5-3.9 1.6 1.1.3 1.3.1 1.5.9-2.8-1.2-2.1 2.7-4.4 3.3.1-1.2.3-1.1 1.3-2.9-2.3.5-3-.4-.2-.8s4.3-7.5 6.5-3.6zM161.7 128.4c-2.5 2-8.7.3-3.6-2.6s3.1 3.4-.6 1.5c-2.3 2.3 3.6 1.2 4.2 1.1zm-1.3-2.3c-.7-.6-1.3-.3-2.1.2a1.2 1.2 0 002.1-.2zM167.9 126.1c.1 1-.9 1.8-1 2.7s-1.4-.3-.4-1.2c1.8-4.7-3.3 1.1-4.5 1.6s3.8-6.9 2.6-2.9c1.4-.9 3-1.9 3.3 0zM178.9 123.9q0 .8-3.9 3.9c1.1.4 3.2-.7 4.1.4a19.3 19.3 0 00-5.3 1.1c0-.2-.1-.3-.2-.3l-.3.3c-.5-1.9 4.1-3.3 4.3-4.9s-2.6.8-2.9-.4 1.6 0 2.1-.2 2.1-.6 2.2.1zM186.3 126.1c0 2.5-6.7 3.4-6.9 1.1s6.6-4.6 6.9-1.1zm-.7 0c-.7-2.3-4.7-.4-5.5 1.2 1.3 1.4 5.3.6 5.5-1.2z"/><path d="M191.5 120.9c0 .7-.2.7-.8 1.7s1.1.5.9 1.1c-3-1.1-6.2 5.5-.8 4v.2c-4.6 1.5-5-1.6-1.9-4.2-.9-.3-2.3 1.1-2.7 0 1.8-1.1 4.1-.2 4.8-3.5.2 0 .5.5.5.7zM194.7 127.5c0 .9-.8 3-1.9 2.6s1.8-2.1.6-3 1.4-1 1.3.4zM201.7 124.3c-.2 0-.4 3.2-1.7 3a6.6 6.6 0 011.3-3.6c.3.3.4.4.4.6zm1-3.3c-.7 1.3-1.4-.3-.9-1.1zM209.9 121.7c-.3 1.3-3.1 1-3.9 2.1 8.2.5-2.4 7.4-2.9 1.8a3.1 3.1 0 005.3-.2c0-1-3-.7-3.9-1.6 1.6-.9 3.5-2.1 5.4-2.1zM220.4 121.3c.2 1.3-2.3 2.6-2.8 3.8-1.7 4.6-2 .2-2.6-1.9s1.3 1.7 1.4 2.4a49.5 49.5 0 013.7-4.3zM224.5 124.1c-3.9-2.1-2.4 2.4-5 3.2 0-.6 1.2-2.3 1.2-2.7s-.1-2.6.9-2.6c-.2 2 2.7.3 2.9 2.1zM231.8 124.3c0 2.4-6.7 3.3-6.9 1s6.6-4.6 6.9-1zm-.7 0c-.7-2.3-4.7-.4-5.5 1.1 1.3 1.4 5.3.7 5.5-1.1zM236.4 118.7l-3.1 6.5c-.4 1-.3 1.5-1.1 1.2l-.2-.3c1-2.3 2.9-5.8 3.9-8a.6.6 0 01.5.6zM237.7 122.8c-.1 0-.4 3.3-1.6 3a5.6 5.6 0 011.3-3.5zm1.1-3.2c-.7 1.3-1.4-.3-.9-1.1zM241.7 123c-2.5 13.1-8.8 5.8-5.8 4.1.7 6.9 4.9.4 5.5-4.5v.3zm1-3.4c0 .4-1 .3-1.4.2s1.3-1.1 1.4-.2zM249.6 120.5c0 1.5-3 2-4 2.7s2.6 4 .9 4.6a10 10 0 00-2.1-3.6c-.3 1.1 0 1.6-1.2 1.7a52.4 52.4 0 014.2-9c1.4.4-1.9 3.5-2 5.6a12.9 12.9 0 004.2-2.6zM251.7 125.2c0 1-.8 3.1-1.9 2.7s1.8-2.1.6-3.1 1.5-.9 1.3.4zM31.9 147.5c-2.5 2-8.7.3-3.6-2.6s3.1 3.4-.6 1.5c-2.4 2.3 3.6 1.2 4.2 1.1zm-1.3-2.2c-.7-.6-1.2-.3-2.1.2a1.2 1.2 0 002.1-.2zM37 145.4c-3.9-2-2.4 2.5-5 3.2 0-.6 1.2-2.2 1.3-2.6s-.2-2.6.9-2.6c-.3 1.9 2.6.2 2.8 2zM43.2 145.1a3.7 3.7 0 01-1 2.2.5.5 0 00.2.4c-.8 1-1.5-.3-.5-1.2 1.8-4.7-3.2 1.2-4.5 1.6s3.8-6.8 2.6-2.9c1.4-1.1 2.9-2.1 3.2-.1zM50.2 141.9c-.4 1.3-3.1 1-3.9 2.1 8.1.6-2.5 7.4-2.9 1.8a3 3 0 005.2-.2c0-1-2.9-.7-3.8-1.6a13.3 13.3 0 015.4-2.1z"/><path d="M55.5 140.3c0 .8-.2.8-.8 1.7s1 .5.9 1.1c-3-1.1-6.2 5.6-.8 4.1v.2c-4.6 1.5-5-1.6-2-4.3-.8-.3-2.3 1.2-2.6 0 1.8-1.1 4.1-.2 4.7-3.4.3 0 .5.4.6.6zM57.7 143.9c-.1 0-.4 3.3-1.7 3a6.3 6.3 0 011.3-3.5.7.7 0 01.4.5zm1-3.2c-.7 1.3-1.4-.3-.8-1.1a4.4 4.4 0 01.8 1.1zM64 143.8c-.5 3 0 8.3-4 8.3-.7 0-3-.5-2.4-1.6 2.6 2.7 6.1-.9 5.1-3.8-7.6 1.4-.9-7 1.2-2.9zm-.7 0c-.7-1.2-3.5.7-3.4 1.8s2.7 1 2.9 0l.5-1.8zM74.7 145.9c-2.4 2-8.7.3-3.5-2.7s3 3.4-.6 1.6c-2.4 2.4 3.5 1.1 4.1 1.1zm-1.2-2.2c-.8-.6-1.3-.4-2.1.1a1.2 1.2 0 002.1-.1zM80.9 143.6a4.3 4.3 0 01-1 2.3c-.2 1.5-1.7.2-.4-.9 1.8-4.7-3.3 1.2-4.5 1.6s3.8-6.8 2.6-2.9c1.4-.9 3-1.9 3.3 0zM91 139c0 .7-.2.7-.8 1.6s1 .6.9 1.1c-3.1-1.1-6.2 5.6-.8 4.1v.2c-4.6 1.5-5-1.6-2-4.3-.8-.2-2.3 1.2-2.6 0 1.8-1 4.1-.1 4.7-3.4.2 0 .5.4.5.6zM98.5 143.5c0 2.5-6.7 3.4-6.9 1.1s6.6-4.6 6.9-1.1zm-.7 0c-.8-2.3-4.8-.4-5.5 1.2 1.3 1.4 5.2.6 5.5-1.2z"/><path d="M106.9 138.6a1.6 1.6 0 01-.8 1.4c.7-3.7-3.4-1.4-3.9 1.6 1 .4 1.3.2 1.5 1-2.8-1.3-2.2 2.6-4.4 3.3.1-1.3.3-1.1 1.3-3-2.6.5-2.9-.4-.2-.8s4.3-7.4 6.5-3.5zM107.9 144.5c0 .6-.8.8-1 1s.2-1.3 1-1zM120.3 144.2v.3l-.7.5c-1.5-.8-7.9 1.8-5-1.4 3.9-9 5.1-8.4.7.6a26.8 26.8 0 004.9-.2z"/><path d="M125.9 143.9c-2.4 2-8.7.3-3.5-2.7s3 3.4-.6 1.6c-2.4 2.2 3.5 1.1 4.1 1.1zm-1.2-2.2c-.8-.6-1.3-.4-2.1.1a1.2 1.2 0 002.1-.1zM127.9 141.2c-.1 0-.4 3.2-1.6 3a5.6 5.6 0 011.3-3.5.5.5 0 01.3.5zm1-3.3c-.7 1.3-1.4-.2-.8-1.1a4.4 4.4 0 01.8 1.1zM135.6 137.1c-.3 1.3-1.8 4.5-2 5.7h.6c-.5 1.6-2.2 1-3.4 1.3-4.1 0 .7-5.3 2.7-3.3v-.2s1.3-5.2 2.1-3.5zm-2.6 5.1c-.3-2.8-5.8 1.7-1.6 1.4 1.1-.1 1.6-.5 1.6-1.4zM136.9 140.8c-.1 0-.4 3.3-1.6 3a5.6 5.6 0 011.3-3.5c.2.2.3.3.3.5zm1-3.2c-.7 1.3-1.4-.3-.8-1.1a4.4 4.4 0 01.8 1.1zM144.3 141.1c0 1-.9 1.8-1 2.7s-1.4-.3-.5-1.2c1.9-4.7-3.2 1.1-4.4 1.6s3.7-6.9 2.6-3c1.4-.9 3-1.9 3.3 0z"/><path d="M149.3 140.5c-.6 3 0 8.3-4.1 8.2-.6 0-3-.4-2.4-1.5 2.6 2.6 6.1-.9 5.1-3.9-7.6 1.5-.9-6.9 1.2-2.8zm-.8 0c-.6-1.2-3.5.7-3.3 1.7s2.6 1.1 2.8 0l.5-1.9zM160.5 138.7q0 .8-3.9 3.9c1.1.4 3.2-.7 4.1.3a23.8 23.8 0 00-5.3 1.1.2.2 0 00-.2-.2l-.3.3c-.6-1.9 4.1-3.3 4.3-4.9s-2.6.7-2.9-.5 1.5 0 2-.1 2.2-.6 2.3.1zM162.7 139.8c-.2 0-.5 3.3-1.7 3a5.6 5.6 0 011.3-3.5 1 1 0 01.4.5zm.9-3.2c-.7 1.3-1.4-.2-.8-1.1zM166.6 140c-2.3 12.9-8.9 5.7-5.8 4.1.7 6.9 4.9.3 5.6-4.5h.1v.4zm1-3.4c0 .4-.9.3-1.3.2s1.2-1 1.3-.2zM174 140c0 1-1 1.7-1.1 2.6s-1.4-.3-.4-1.2c1.8-4.7-3.3 1.2-4.5 1.6s3.8-7 2.6-3c1.4-.9 3-1.9 3.4 0zM180.8 139.3c-.2 0-.5 3.2-1.7 2.9a5.6 5.6 0 011.3-3.5.7.7 0 01.4.6zm.9-3.3c-.6 1.3-1.3-.3-.8-1.1a4.4 4.4 0 01.8 1.1zM188.9 136.6c-.3 1.4-3 1-3.9 2.1 8.2.6-2.4 7.4-2.8 1.8a3 3 0 005.2-.2c0-1-3-.7-3.9-1.5a12.9 12.9 0 015.4-2.2zM199.2 134.8c0 .7-.3.7-.8 1.6s1 .5.9 1.1c-3.1-1.1-6.2 5.6-.9 4.1v.2c-4.5 1.5-4.9-1.6-1.9-4.3-.8-.3-2.3 1.2-2.6 0 1.8-1.1 4.1-.1 4.7-3.4.3.1.5.5.6.7zM205.5 141.6c-.5 1.5-1.7 0-2.1-.9-10.5 4.5 3.9-9.8 1.3-1.4-.7 1.5-.9 2.2.8 2.3zm-.6-3.9c-4.7-2-6.9 8.6 0 .6a.6.6 0 000-.6z"/><path d="M209.6 133.8c-.4 1.1-2.8 5.5-3.1 6.5s-.4 1.5-1.1 1.2c.7-2.5 2.9-5.9 3.8-8.3a.4.4 0 01.4.6zM214.6 140.4c-2.4 2-8.7.3-3.5-2.6s3 3.3-.7 1.5c-2.3 2.3 3.6 1.2 4.2 1.1zm-1.2-2.2c-.8-.6-1.3-.3-2.1.2a1.2 1.2 0 002.1-.2zM220.8 138.1c0 1-.9 1.8-1 2.7s-1.4-.3-.4-1.2c1.8-4.7-3.3 1.1-4.5 1.6s3.7-6.9 2.6-3c1.4-.8 3-1.8 3.3 0z"/><path d="M226 133.7c0 .7-.3.7-.9 1.7s1.1.5.9 1.1c-3-1.1-6.2 5.5-.8 4.1v.2c-4.6 1.5-5-1.7-1.9-4.3-.8-.3-1.9.7-2.5.4s3.9.3 4.6-3.8c.2 0 .5.4.6.6zM231.9 139.7c-2.5 2-8.7.4-3.6-2.6s3.1 3.4-.6 1.6c-2.4 2.2 3.5 1.1 4.2 1zm-1.3-2.2c-.7-.6-1.3-.3-2.1.2a1.2 1.2 0 002.1-.2zM238.1 137.5c0 1-1 1.7-1.1 2.6s-1.4-.3-.4-1.2c1.8-4.7-3.3 1.2-4.5 1.6s3.8-6.8 2.6-2.9c1.4-.9 3-1.9 3.3 0zM34.1 160.1c0 2.5-6.7 3.3-6.9 1.1s6.6-4.6 6.9-1.1zm-.6 0c-.8-2.3-4.8-.4-5.6 1.2 1.3 1.4 5.3.6 5.6-1.2zM40.2 159.2a4.9 4.9 0 01-1.1 2.3l.2.4c-.8 1-1.4-.3-.5-1.2 1.9-4.7-3.2 1.1-4.5 1.6s3.8-6.9 2.6-3c1.5-.8 3-1.8 3.4 0z"/><path d="M45.3 154.8c0 .7-.2.7-.8 1.7s1 .5.9 1.1c-3.1-1.1-6.2 5.5-.8 4.1v.2c-4.6 1.5-5-1.7-2-4.3-.8-.3-2.3 1.1-2.6 0 1.8-1.1 4.1-.2 4.7-3.5.4 0 .7.5.6.7zM52.1 154.4c-.3 1.3-1.7 4.5-2 5.7h.6c-.5 1.6-2.2 1.1-3.4 1.3-4.1 0 .8-5.3 2.7-3.2v-.2s1.4-5.3 2.1-3.6zm-2.6 5.1c-.3-2.7-5.8 1.8-1.6 1.4 1.1-.1 1.6-.6 1.6-1.4zM57.2 160.6c-2.5 2-8.8.3-3.6-2.6s3.1 3.4-.6 1.5c-2.4 2.3 3.5 1.2 4.2 1.1zm-1.3-2.2c-.8-.6-1.3-.3-2.1.2a1.2 1.2 0 002.1-.2zM63.9 155.8c0 1.5-3 2-4 2.8s2.6 3.9.8 4.5a13.1 13.1 0 00-2.1-3.6c-.3 1.2 0 1.7-1.2 1.8a50.1 50.1 0 014.2-9.1c1.4.5-2 3.5-2 5.6a10.2 10.2 0 004.2-2.6v.6zM69.8 155.6c0 1.7-3.4 1.9-4.1 3s2.5 3.8.9 4.3a9.8 9.8 0 00-2-3.6c-.3 1.1 0 1.6-1.3 1.7a49.6 49.6 0 014.3-9c1.4.5-2 3.6-2.1 5.6a12.9 12.9 0 004.2-2.6v.6z"/><path d="M74.7 159.9c-2.4 2-8.7.3-3.5-2.6s3 3.4-.7 1.5c-2.3 2.3 3.6 1.2 4.2 1.1zm-1.2-2.2c-.8-.6-1.3-.4-2.1.1a1.2 1.2 0 002.1-.1zM80.9 157.7a5.2 5.2 0 01-1 2.3.4.4 0 00.1.3c-.7 1.1-1.4-.2-.4-1.2 1.8-4.6-3.3 1.2-4.5 1.6s3.7-6.8 2.6-2.9c1.4-.8 3-1.8 3.3 0zM91.4 159.3c-2.4 2-8.7.3-3.5-2.7s3 3.4-.7 1.6c-2.3 2.2 3.6 1.1 4.2 1.1zm-1.2-2.2c-.8-.6-1.3-.4-2.1.1a1.2 1.2 0 002.1-.1zM97.6 157c0 1-.9 1.7-1 2.6s-1.4-.3-.4-1.2c1.7-4.5-3.2 1.1-4.5 1.6s3.8-6.8 2.6-2.9c1.4-.9 3-1.9 3.3 0zM110.4 154.6c0 1.1-4.3 4.6-.9 4.4-1.1.5-2.4.4-2-1.1-6.4 4.3-5.3-.7-1.3-3.4.8.8-2.4 3.1-2.6 4.3 3.5.2 4.4-3.8 6.5-4.6zM112.4 155.9c-.1 0-.4 3.2-1.6 2.9a5.6 5.6 0 011.3-3.5.9.9 0 01.3.6zm1-3.3c-.7 1.3-1.4-.3-.8-1.1a4.4 4.4 0 01.8 1.1zM118.8 151.9c0 .7-.2.8-.9 1.7s1.1.5 1 1.1c-3.1-1.1-6.2 5.5-.8 4.1-.1.1-.1.1 0 .2-4.6 1.5-5.1-1.6-2-4.3-.8-.3-2.3 1.2-2.6 0 1.7-1.1 4.1-.2 4.7-3.4a.5.5 0 01.5.5z"/><path d="M125.6 151.5c.1.8-3.4 7.5-1.4 5.9-8.3 4.3-4.5-4.3-.8-2v-.4s1.4-5.2 2.2-3.5zm-2.6 5.1c-.3-2.8-5.8 1.8-1.6 1.4 1.1 0 1.6-.5 1.6-1.4zM131 158.6c-.5 1.4-1.7-.1-2.1-.9-10.5 4.4 3.9-9.8 1.3-1.4-.7 1.5-.8 2.1.8 2.3zm-.6-4c-4.7-1.9-6.9 8.6-.1.7a.9.9 0 00.1-.7z"/><path d="M135.7 155c-.5 3.1 0 8.4-4 8.3-.7 0-3-.4-2.4-1.5 2.6 2.6 6.1-.9 5.2-3.9-7.6 1.4-.9-6.9 1.2-2.9zm-.8 0c-.6-1.1-3.4.7-3.3 1.8s2.6 1 2.9 0a10.1 10.1 0 00.4-1.8zM137.8 154.9c-.2 0-.5 3.2-1.7 2.9a6.3 6.3 0 011.3-3.5c.3.3.4.4.4.6zm1-3.3c-.8 1.3-1.4-.3-.9-1.1zM145 155c0 1-.9 1.8-1 2.7s-1.4-.3-.4-1.2c1.8-4.7-3.2 1.2-4.5 1.6s3.8-6.8 2.6-2.9c1.4-.9 3-1.9 3.3 0z"/><path d="M150.1 154.5c-.5 3.2.1 8.4-4 8.3-.7 0-3-.5-2.5-1.6 2.7 2.7 6.2-.9 5.1-3.8-7.6 1.4-.9-7 1.4-2.9zm-.7 0c-.7-1.2-3.5.7-3.4 1.7s2.6 1.1 2.9 0a13.2 13.2 0 00.5-1.8z"/><path d="M155.9 156.7c-2.5 2.1-8.7.4-3.6-2.6s3.1 3.4-.6 1.6c-2.4 2.2 3.6 1.1 4.2 1zm-1.3-2.1c-.7-.7-1.3-.4-2.1.1a1.2 1.2 0 002.1-.1zM162.1 154.5c0 1-.9 1.7-1 2.6s-1.5-.2-.5-1.2c1.8-4.7-3.2 1.2-4.5 1.6s3.8-6.8 2.6-2.9c1.4-.9 3-1.9 3.3 0zM173.2 152.4c0 .5-1.3 1.7-4 3.8 1.1.5 3.3-.7 4.1.4a19.9 19.9 0 00-5.4 1.1c0-.3-.4-.2-.5 0-.5-1.9 4.1-3.3 4.3-4.9s-2.6.8-2.9-.4 1.5 0 2.1-.2 2.1-.6 2.3.2zM180.5 154.4c0 2.4-6.7 3.3-6.9 1.1s6.6-4.7 6.9-1.1zm-.6 0c-.8-2.3-4.8-.4-5.6 1.1 1.3 1.5 5.3.7 5.6-1.1z"/><path d="M186.3 155.6c-2.5 2-8.7.3-3.6-2.7s3.1 3.4-.6 1.6c-2.4 2.2 3.6 1.2 4.2 1.1zm-1.3-2.2c-.7-.6-1.2-.4-2.1.2a1.2 1.2 0 002-.2zM192.9 150.8c0 1.5-3 2-3.9 2.8s2.5 3.9.8 4.5a10.7 10.7 0 00-2-3.6c-.3 1.2 0 1.6-1.2 1.7a43 43 0 014.1-9c1.4.3-2 3.5-2.1 5.6a12.9 12.9 0 004.2-2.6.5.5 0 00.2.4zM197.8 155c-4.3 2.7-8.5-1.1-2.1-3.2 3.9.5-.3 3.5-2 2.1-2.4 2.4 3.5 1.3 4.1 1.1zm-1.2-2.2c-.8-.6-1.3-.3-2.1.2a1.2 1.2 0 002.1-.2zM204 152.8c.1 1.1-.9 1.8-1 2.7s-1.4-.3-.4-1.2c1.8-4.7-3.3 1.1-4.5 1.6s3.8-6.9 2.6-2.9c1.4-.9 3-1.9 3.3 0zM207.1 154.7c0 .7-.8.8-1.1 1s.3-1.3 1.1-1zM219.4 154.4v.2l-.6.5c-1.5-.9-7.9 1.8-5-1.5 3.9-8.9 5.1-8.3.7.6a20.1 20.1 0 004.9-.1z"/><path d="M225.1 154.1c-2.4 2-8.7.3-3.6-2.7s3.1 3.4-.6 1.6c-2.4 2.2 3.6 1.1 4.2 1.1zm-1.3-2.2c-.7-.7-1.2-.4-2.1.1a1.2 1.2 0 002.1-.1zM227.1 151.4s-.4 3.2-1.7 3a6.3 6.3 0 011.3-3.5c.3.2.4.4.4.5zm1-3.3c-.7 1.3-1.4-.3-.9-1.1a3.1 3.1 0 01.9 1.1zM234.8 147.2c-.3 1.3-1.8 4.4-2 5.7h.6c-.5 1.6-2.2 1.1-3.5 1.3-4 0 .8-5.3 2.8-3.2v-.3s1.3-5.1 2.1-3.5zm-2.7 5c-.2-2.6-5.7 1.8-1.6 1.4 1.2.1 1.7-.5 1.6-1.4zM236.2 151s-.5 3.2-1.7 3a5.6 5.6 0 011.3-3.5zm1-3.2c-.8 1.2-1.4-.3-.9-1.1l.9 1.1zM243.4 151.3c0 1-1 1.8-1.1 2.7s-1.4-.3-.4-1.3c1.8-4.6-3.3 1.2-4.5 1.7s3.8-7 2.6-3.1c1.4-.9 3-1.9 3.4 0z"/><path d="M248.4 150.6c-.5 3.1 0 8.4-4 8.3-.7 0-3-.4-2.4-1.5 2.6 2.6 6.1-.9 5.1-3.9-7.6 1.5-.9-6.9 1.3-2.9zm-.7 0c-.7-1.1-3.5.8-3.4 1.8s2.7 1.1 2.9 0 .4-1.1.5-1.8zM33.5 171.8c0 .4-1.3 1.7-3.9 3.8 1.1.4 3.2-.7 4.1.4a19.3 19.3 0 00-5.3 1.1c-.1-.4-.4-.1-.5 0-.6-1.9 4.1-3.3 4.3-4.9s-2.6.8-2.9-.4 1.5 0 2.1-.2 2.1-.6 2.2.2zM35.7 172.9c-.2 0-.5 3.2-1.7 3a5.6 5.6 0 011.3-3.5zm1-3.3c-.7 1.3-1.3-.2-.8-1.1a4.4 4.4 0 01.8 1.1zM39.6 173.1c-2.5 13-8.8 5.5-5.8 4 .7 6.9 4.9.4 5.6-4.5h.1zm1-3.5c0 .5-.9.3-1.3.3s1.2-1.1 1.3-.3zM47 173c0 1-1 1.8-1 2.7s-1.4-.3-.4-1.2c1.8-4.7-3.3 1.1-4.6 1.6s3.8-6.9 2.7-2.9c1.4-.9 3-1.9 3.3 0zM53.8 172.2c-.2 0-.5 3.2-1.7 3a6.3 6.3 0 011.3-3.5 1 1 0 01.4.5zm1-3.3c-.7 1.3-1.4-.3-.9-1.1zM61.9 169.6c-.3 1.3-3.1 1-3.9 2.1 8.2.6-2.4 7.4-2.9 1.8 1.1 1.9 4.3 2 5.3-.1s-3-.7-3.9-1.5a13 13 0 015.4-2.3zM73.1 172c0 1-.9 1.7-1 2.6s-1.4-.2-.4-1.2c1.8-4.6-3.3 1.2-4.5 1.6s3.8-6.8 2.6-2.9c1.4-1.1 3-2.1 3.3-.1zM80.2 172.3c0 2.5-6.7 3.4-6.8 1.1s6.5-4.6 6.8-1.1zm-.6 0c-.8-2.3-4.8-.4-5.6 1.2 1.4 1.4 5.3.6 5.6-1.2zM87.5 172.1c0 2.4-6.7 3.3-6.9 1s6.6-4.6 6.9-1zm-.6 0c-.8-2.3-4.8-.4-5.6 1.1 1.3 1.4 5.3.6 5.6-1.1zM89.5 170.8c-.2 0-.5 3.2-1.7 3a6.4 6.4 0 011.4-3.5zm.9-3.3c-.6 1.3-1.3-.2-.8-1.1a4.4 4.4 0 01.8 1.1zM95.8 166.9c0 .7-.2.7-.8 1.7s1 .5.9 1c-3-1.1-6.2 5.6-.8 4.1v.2c-4.6 1.6-5-1.6-1.9-4.3-.9-.2-2.4 1.2-2.7 0 1.8-1 4.1-.1 4.7-3.4.2 0 .5.4.5.6zM108.2 171.3c0 2.4-6.7 3.3-6.8 1s6.5-4.6 6.8-1zm-.6 0c-.8-2.4-4.8-.4-5.5 1.1 1.3 1.4 5.2.6 5.5-1.1z"/><path d="M114.6 169.6c.2 2.6-4.8 3.1-6.1 4.8s-.8 2.4-1.6 2.6c-.9-1.6 3.6-4.8 3.5-6.9l-.6.4c-1-1.4 5.1-3.1 4.8-.9zm-.6 0c-1.4-1.9-4 1.9-4.1 3.2a7.3 7.3 0 004.1-3.2zM122.2 169.3c0 .9-1.9 3.4-1.1 4.3-2.6 1.2.8-3.6 0-4.5a7.6 7.6 0 00-5.4 4.3l-.7-.2a57.3 57.3 0 004.6-8c1.1.6-.2 1.4-1.4 4.7 1.4-.4 3.8-2.7 4-.5zM129.4 170.4c0 2.5-6.7 3.4-6.8 1.1s6.5-4.6 6.8-1.1zm-.6 0c-.8-2.3-4.8-.4-5.5 1.2 1.3 1.4 5.3.5 5.5-1.2zM137.4 167.6c.2 1-4.2 4.4-1.1 4.3l.2.2c-1 .5-2.3.4-2-1.1-6.3 4.3-5.3-.7-1.3-3.4.9.8-2.4 3.2-2.6 4.3 3.6.4 4.6-3.8 6.7-4.6zM144 164.9c-.2 1.3-1.7 4.5-2 5.7h.7c-.6 1.6-2.2 1-3.5 1.2-4.1 0 .8-5.2 2.8-3.2v-.2s1.3-5.2 2-3.5zm-2.6 5c-.3-2.7-5.7 1.8-1.6 1.5 1.1-.1 1.7-.6 1.6-1.5zM149.1 171.1c-2.4 2-8.7.3-3.6-2.7s3.1 3.4-.6 1.6c-2.4 2.2 3.6 1.1 4.2 1.1zm-1.3-2.2c-.7-.6-1.3-.4-2.1.2a1.3 1.3 0 002.1-.2zM155.3 168.8a5.2 5.2 0 01-1 2.3.4.4 0 00.1.3c-.8 1.1-1.4-.3-.5-1.2 1.9-4.7-3.2 1.2-4.4 1.6s3.7-6.8 2.6-2.9c1.4-.9 3-1.9 3.3 0zM169.7 167.4c-.3 1.5-1.4 3-1.7 4.5-1.6-.6 1-3.7.8-4.3s-3.9 2.9-5.3 3 2.1-1.8 1.1-2.8c-1.3.5-2.9 3.2-4.2 3.6.2-1.5 4.8-6.9 5.5-2.9.6-.2 3.6-2.8 3.8-1.1zM175.5 170c-2.5 2.1-8.7.4-3.6-2.6s3.1 3.4-.6 1.6c-2.4 2.2 3.5 1.1 4.2 1zm-1.3-2.2c-.8-.6-1.3-.3-2.1.2a1.2 1.2 0 002.1-.2z"/><path d="M180.8 163.6c0 .7-.3.7-.9 1.7s1.1.5.9 1c-3-1-6.2 5.6-.8 4.1v.2c-4.6 1.5-5-1.6-1.9-4.3-.8-.2-2.3 1.2-2.6 0 1.7-1 4.1-.1 4.7-3.4.3 0 .7.4.6.7zM190.5 162.7l-3.1 6.4c-.5.9-.3 1.6-1.1 1.2.8-2.4 2.9-5.9 3.8-8.2a.4.4 0 01.4.6zM195.6 169.3c-2.5 2-8.7.3-3.6-2.7s3 3.4-.6 1.6c-2.5 2.2 3.5 1.1 4.2 1.1zm-1.4-2.2c-.8-.7-1.3-.4-2.1.2a1.3 1.3 0 002.1-.2zM200.7 167.1c-3.9-2-2.4 2.5-5 3.2 0-.5 1.2-2.2 1.2-2.6s-.1-2.6.9-2.5c-.2 2 2.6.3 2.9 1.9zM206.4 168.8c-2.4 2.1-8.7.3-3.5-2.6s3 3.4-.7 1.6c-2.3 2.2 3.6 1.1 4.2 1.1zm-1.3-2.2c-.7-.6-1.2-.3-2.1.2a1.2 1.2 0 002.1-.2zM212.5 166.5c.1 1.1-.9 1.8-1 2.7s-1.4-.3-.4-1.2c1.8-4.7-3.3 1.1-4.5 1.6s3.8-6.8 2.6-2.9c1.4-.9 3-1.9 3.3 0zM222.9 163.4c0 1.7-3.1 2.9-3.2 4.8s-2.1-2.3-2.1-3.4 1.1 2.3 1.3 2.9a49.5 49.5 0 013.7-4.3zM228 168.9c-.5 1.4-1.7-.2-2.1-.9-10.5 4.4 3.9-9.8 1.3-1.4-.7 1.6-.9 2.1.8 2.3zm-.6-4c-4.7-2-7 8.5-.1.6a1.3 1.3 0 00.1-.6z"/><path d="M233.7 165.7c0 1.1-1 1.8-1 2.7s-1.5-.3-.5-1.2c1.9-4.7-3.2 1.1-4.5 1.6s3.8-6.9 2.6-2.9c1.4-.9 3-1.9 3.3 0zM243.1 160.6c-.4 1.1-2.6 5.5-3.1 6.5s-.4 1.6-1.2 1.1c1-2.3 2.9-5.8 3.8-8.1a.6.6 0 01.5.6zM248.1 167.2c-2.4 2-8.7.3-3.5-2.6s3 3.3-.7 1.5c-2.3 2.3 3.6 1.2 4.2 1.1zm-1.2-2.2c-.8-.6-1.3-.3-2.1.2a1.2 1.2 0 002.1-.2z"/><path d="M254.7 160.6c-.2 1.3-1.7 4.4-2 5.7h.7c-.6 1.5-2.2 1-3.5 1.2-4.1 0 .8-5.2 2.8-3.2v-.2h.1s1.2-5.3 1.9-3.5zm-2.6 5c-.3-2.8-5.7 1.8-1.6 1.4 1.1 0 1.6-.5 1.6-1.5zM259.8 166.8c-2.5 2-8.8.3-3.6-2.7s3 3.4-.6 1.6c-2.4 2.2 3.5 1.1 4.2 1.1zm-1.3-2.3c-.8-.6-1.3-.3-2.1.2a1.2 1.2 0 002.1-.2zM266 164.5c0 1-1 1.7-1 2.6s-1.5-.3-.5-1.2c1.9-4.7-3.2 1.2-4.5 1.6s3.8-6.8 2.7-2.9c1.4-.9 2.9-1.9 3.3 0zM33.5 189.6c-2.4 2-8.7.3-3.5-2.6s3 3.4-.7 1.5c-2.3 2.3 3.6 1.2 4.2 1.1zm-1.3-2.2c-.7-.6-1.2-.3-2.1.2a1.2 1.2 0 002.1-.2zM39.7 187.3a5.2 5.2 0 01-1 2.3l.1.4c.1.1-1.4-.3-.4-1.2 1.8-4.7-3.3 1.2-4.5 1.6s3.8-6.9 2.6-2.9c1.4-.9 3-1.9 3.3 0zM49.1 182.2c-.4 1.1-2.6 5.5-3.1 6.5s-.3 1.5-1.1 1.2c.8-2.4 2.9-5.9 3.8-8.3.2 0 .4.4.4.6zM54.2 188.8c-2.5 2-8.8.3-3.6-2.6s3.1 3.4-.6 1.5c-2.4 2.3 3.6 1.2 4.2 1.1zm-1.3-2.2c-.7-.6-1.3-.4-2.1.2a1.3 1.3 0 002.1-.2zM56.2 186.1c-.2 0-.5 3.3-1.7 3a6.3 6.3 0 011.3-3.5zm1-3.2c-.8 1.3-1.4-.3-.9-1.1zM63.8 182.1c-.2 1.3-1.7 4.4-2 5.7h.7c-.6 1.6-2.2 1-3.5 1.2-4.1 0 .8-5.2 2.8-3.2v-.2h.1s1.2-5.3 1.9-3.5zm-2.6 5c-.3-2.8-5.7 1.8-1.6 1.4 1.1 0 1.6-.5 1.6-1.4zM65.2 185.8c-.2 0-.5 3.2-1.7 3a6.3 6.3 0 011.3-3.5l.4.5zm1-3.3c-.8 1.3-1.4-.2-.9-1.1zM72.4 186.1c0 1-.9 1.7-1 2.6s-1.4-.3-.4-1.2c1.8-4.7-3.2 1.2-4.5 1.6s3.8-6.8 2.6-2.9c1.4-.9 3-1.9 3.3 0z"/><path d="M77.5 185.4c-.5 3.1 0 8.3-4 8.3-.7 0-3-.5-2.4-1.5 2.6 2.6 6.1-.9 5-3.9-7.6 1.4-.8-6.9 1.4-2.9zm-.7 0c-.7-1.2-3.5.7-3.4 1.8s2.6 1 2.9 0l.5-1.8zM80.5 188.1c0 1-.8 3-1.9 2.7.4-1.1 1.7-2.1.6-3s1.5-1 1.3.3zM90.9 182.5c0 1.8-3 3-3.2 4.9s-2-2.3-2.1-3.4 1.2 2.3 1.4 2.9a27.3 27.3 0 013.9-4.4zM96.1 188.1c-.6 1.4-1.8 0-2.2-1-10.5 4.5 4-9.7 1.3-1.3-.6 1.5-.7 2.1.9 2.3zm-.6-4c-4.7-1.9-7 8.6 0 .7z"/><path d="M101.7 184.9c0 1-.9 1.8-1 2.7s-1.4-.3-.4-1.2c1.8-4.7-3.2 1.1-4.5 1.6s3.8-6.9 2.6-3c1.4-.8 3-1.8 3.3 0zM112 181.7c0 1.7-3.1 3-3.2 4.9s-2.1-2.3-2.1-3.4 1.1 2.2 1.4 2.8 2.6-3.2 3.7-4.3zM117.1 187.2c-.5 1.5-1.7 0-2.1-.9-10.5 4.5 3.9-9.7 1.3-1.4-.6 1.7-.8 2.2.8 2.3zm-.5-3.9c-4.8-2-7 8.6-.2.6a1.4 1.4 0 00.2-.6z"/><path d="M121.2 179.4c-.4 1.1-2.7 5.5-3.1 6.5s-.3 1.5-1.1 1.2c.8-2.5 2.9-5.9 3.8-8.3.2 0 .4.4.4.6zM125.2 179.3c-.5 1-2.8 5.5-3.1 6.4s-.6 1.8-1.3 1c1-2.3 2.9-5.8 3.9-8 .2 0 .4.3.5.6zM130.2 185.9c-2.4 2-8.7.3-3.5-2.7s3 3.4-.7 1.6c-2.3 2.2 3.6 1.1 4.2 1.1zm-1.3-2.2c-.7-.7-1.2-.4-2.1.1a1.2 1.2 0 002.1-.1zM136.4 183.6c.1 1-.9 1.7-1 2.6s-1.4-.3-.4-1.2c1.8-4.7-3.3 1.2-4.5 1.6s3.7-6.8 2.6-2.9c1.4-.9 3-1.9 3.3 0zM146.9 185.2c-2.4 2-8.7.3-3.5-2.6s3 3.3-.7 1.5c-2.3 2.3 3.6 1.2 4.2 1.1zm-1.3-2.2c-.7-.6-1.2-.3-2.1.2a1.2 1.2 0 002.1-.2zM153.1 182.9c0 1-.9 1.8-1 2.7s-1.4-.3-.4-1.2c1.8-4.7-3.3 1.1-4.5 1.6s3.8-6.9 2.6-3c1.4-.8 3-1.8 3.3 0zM164.3 181.7c.2 2.5-4.8 3.1-6.2 4.8s-.7 2.4-1.5 2.6c-.9-1.6 3.6-4.8 3.5-6.8l-.6.3c-1-1.3 5-3.1 4.8-.9zm-.7 0c-1.3-1.9-3.9 2-4 3.3a6.6 6.6 0 004-3.3zM169.5 182.4c-3.9-2-2.4 2.5-5 3.2 0-.6 1.2-2.2 1.3-2.6s-.2-2.7.8-2.5c-.1 1.9 2.7.2 2.9 1.9zM176.8 182.6c0 2.5-6.7 3.4-6.9 1.1s6.6-4.6 6.9-1.1zm-.6 0c-.8-2.3-4.8-.3-5.6 1.2 1.3 1.3 5.2.6 5.6-1.2zM183.7 175.6c-.2 1.5-2.6 3.2-2.9 4.9 6 .2-.5 6.2-3.7 4.1.3-1.4 2.6-3.4 3.3-4.7s1.2-3.8 3.3-4.3zm-.9 6.2c-1.1-1.9-4.6.4-4.3 2.3s4.4-1.2 4.3-2.3z"/><path d="M189.1 183.6c-2.4 2-8.7.3-3.6-2.7s3.1 3.4-.6 1.6c-2.4 2.2 3.6 1.1 4.2 1.1zm-1.3-2.3c-.7-.6-1.2-.3-2.1.2a1.2 1.2 0 002.1-.2zM194.2 181.4c-3.9-2-2.4 2.5-5 3.3 0-.6 1.2-2.3 1.2-2.7s-.1-2.6.9-2.6c-.1 1.9 2.9.3 2.9 2zM200 183.1c-2.5 2-8.7.3-3.6-2.6s3.1 3.4-.6 1.6c-2.4 2.2 3.6 1.1 4.2 1zm-1.3-2.2c-.7-.6-1.2-.3-2.1.2a1.2 1.2 0 002.1-.2zM206.2 180.8c0 1.1-.9 1.8-1 2.7s-1.4-.3-.5-1.2c1.9-4.7-3.2 1.2-4.5 1.6s3.8-6.8 2.7-2.9c1.4-.9 3-1.9 3.3 0zM209.2 182.8c0 .6-.8.7-1 1s.2-1.4 1-1zM221.6 182.4v.2l-.7.5c-1.5-.8-7.9 1.8-5-1.4 3.9-9 5.1-8.4.7.6a26.8 26.8 0 004.9-.2z"/><path d="M227.2 182.1c-2.4 2-8.7.3-3.5-2.7s3 3.4-.7 1.6c-2.3 2.2 3.6 1.1 4.2 1.1zm-1.3-2.2c-.7-.6-1.2-.4-2 .2a1.2 1.2 0 002-.2zM229.3 179.4c-.2 0-.5 3.2-1.7 3a5.6 5.6 0 011.3-3.5zm.9-3.3c-.7 1.2-1.4-.3-.8-1.1a4.4 4.4 0 01.8 1.1zM236.9 175.3c-.2 1.3-1.7 4.5-2 5.7h.7c-.6 1.6-2.3 1.1-3.5 1.3-4.1 0 .8-5.3 2.6-3.2v-.3s1.5-5.2 2.2-3.5zm-2.6 5.1c-.3-2.7-5.8 1.8-1.6 1.4 1.1-.1 1.6-.5 1.6-1.4zM238.3 179.1c-.2 0-.5 3.2-1.7 3a5.9 5.9 0 011.3-3.6l.4.6zm.9-3.3c-.7 1.3-1.4-.3-.8-1.1a4.4 4.4 0 01.8 1.1zM245.5 179.3c0 1-.9 1.8-1 2.7s-1.4-.3-.5-1.2c1.9-4.7-3.2 1.1-4.5 1.6s3.8-6.9 2.7-3c1.4-.8 3-1.8 3.3 0z"/><path d="M250.6 178.7c-.6 3.1 0 8.3-4.1 8.3-.6 0-3-.5-2.4-1.6 2.6 2.7 6.1-.8 5.3-3.8-7.7 1.4-.9-7 1.2-2.9zm-.8 0c-.6-1.2-3.5.7-3.3 1.8s2.6 1 2.9 0a10.1 10.1 0 00.4-1.8zM34.6 199.9c0 .4-1.3 1.7-3.9 3.8 1.1.4 3.2-.7 4.1.4a23.6 23.6 0 00-5.3 1l-.2-.2-.3.3c-.6-1.9 4.1-3.3 4.3-4.9s-2.7.7-2.9-.4 1.5 0 2-.2 2.2-.6 2.3.2zM36.7 201c-.1 0-.4 3.2-1.6 2.9a5.6 5.6 0 011.3-3.5c.3.3.3.4.3.6zm1-3.3c-.7 1.3-1.4-.3-.8-1.1a4.4 4.4 0 01.8 1.1zM40.8 201.1c-2.7 13.1-9 5.5-5.9 4.1.7 6.9 4.9.4 5.6-4.5v.3zm.9-3.4c0 .4-.9.3-1.3.2a.7.7 0 011.3-.2zM48.1 201.1a7 7 0 01-1.1 2.3l.2.3c-.8 1.1-1.4-.3-.5-1.2 1.9-4.7-3.2 1.2-4.5 1.6s3.8-6.8 2.6-2.9c1.5-.9 3-1.9 3.3 0zM54.9 200.3c-.2 0-.5 3.2-1.7 3a5.9 5.9 0 011.3-3.6c.2.2.4.4.4.6zm.9-3.2c-.7 1.3-1.3-.3-.8-1.2a8.3 8.3 0 01.8 1.2zM63 197.7c-.4 1.3-3.1 1-3.9 2.1 8.2.5-2.4 7.4-2.9 1.8a3.1 3.1 0 005.3-.2c0-1-3-.7-3.9-1.6 1.6-.9 3.5-2.1 5.4-2.1zM74.6 195.7c-.2 1.3-1.7 4.5-2 5.7h.7c-.6 1.6-2.3 1.1-3.5 1.3-4.1 0 .8-5.3 2.7-3.2v-.3s1.4-5.2 2.1-3.5zm-2.6 5c-.3-2.6-5.7 1.8-1.6 1.5 1.1-.1 1.6-.5 1.6-1.5zM79.7 201.9c-2.5 2-8.7.3-3.6-2.6s3 3.3-.6 1.5c-2.4 2.2 3.5 1.1 4.2 1.1zm-1.3-2.2c-.8-.6-1.3-.3-2.1.2a1.2 1.2 0 002.1-.2zM94.5 199.7c0 2.2-4.1 3.8-5.6 2.2v-.2c-.3-.4-1.9.8-2.7.8-3 .6.7-4.3 1.4-3.8s-1.5 2.4-1.8 3.1c1.8.7 2.8-.7 3.7-2.3h.2c-1 5.3 7.1.6 3.4-1.6l.2-.2c.8 0 1.3 1.1 1.2 2z"/><path d="M100.2 201.1c-2.4 2-8.7.3-3.6-2.7s3.1 3.4-.6 1.6c-2.4 2.3 3.7 1.2 4.2 1.1zm-1.3-2.2c-.7-.6-1.2-.3-2.1.2a1.2 1.2 0 002.1-.2zM105.3 199c-3.9-2.1-2.4 2.4-4.9 3.2a12.3 12.3 0 011.2-2.6c0-.4-.2-2.7.9-2.7-.2 2 2.7.3 2.8 2.1zM111.1 200.7c-2.5 2-8.7.3-3.6-2.7s3.1 3.4-.6 1.6c-2.4 2.2 3.5 1.1 4.2 1.1zm-1.3-2.2c-.7-.7-1.2-.4-2.1.2a1.3 1.3 0 002.1-.2zM115.7 193.7c-.4 1-2.8 5.5-3.1 6.5s-.3 1.5-1.1 1.1c.7-2.4 2.8-5.9 3.8-8.2.1 0 .4.4.4.6zM121.6 193.8c-.2 1.4-1.7 4.5-2 5.8h.7c-.6 1.6-2.2 1-3.5 1.2-4.1 0 .8-5.2 2.7-3.2v-.2s1.4-5.3 2.1-3.6zm-2.6 5.1c-.3-2.8-5.7 1.8-1.6 1.4 1.1 0 1.6-.6 1.6-1.4zM127.9 197.4c-.1 0-.5 3.2-1.7 3a6.3 6.3 0 011.3-3.5 1 1 0 01.4.5zm1-3.3c-.7 1.3-1.4-.2-.9-1.1zM135.2 197.7a7 7 0 01-1.1 2.3l.2.3c-.8 1.1-1.4-.3-.5-1.2 1.9-4.6-3.2 1.2-4.5 1.6s3.8-6.8 2.7-2.9c1.4-.9 2.9-1.9 3.3 0zM146.8 191.1c-.2 1.5-2.5 3.2-2.9 4.9 6 .2-.5 6.2-3.7 4.1.3-1.5 2.6-3.5 3.4-4.7s1.2-3.9 3.2-4.3zm-.9 6.2c-1.1-1.9-4.6.4-4.3 2.3s4.5-1.2 4.3-2.3z"/><path d="M152.2 199.1c-2.5 2-8.7.3-3.6-2.7s3.1 3.4-.6 1.6c-2.3 2.2 3.6 1.1 4.2 1.1zm-1.3-2.3c-.7-.6-1.3-.3-2.1.3a1.2 1.2 0 002.1-.3zM162.2 197.1c0 2.2-4.1 3.7-5.6 2.1v-.2c-.4-.3-2 .9-2.7.9-3 .5.7-4.3 1.4-3.8s-1.5 2.3-1.8 3c1.8.8 2.8-.7 3.6-2.3h.3c-.9 5.2 7 .7 3.4-1.6l.2-.2c.8 0 1.5 1.4 1.2 2.1z"/><path d="M167.9 198.4c-2.4 2-8.7.4-3.5-2.6s3 3.4-.7 1.6c-2.4 2.3 3.6 1.1 4.2 1zm-1.3-2.2c-.7-.6-1.2-.3-2.1.2a1.2 1.2 0 002.1-.2z"/><path d="M173.2 195.7c-.6 3.1 0 8.4-4.1 8.3-.6 0-3-.4-2.4-1.5 2.6 2.6 6.1-.9 5.1-3.9-7.6 1.5-.9-6.9 1.4-2.9zm-.8 0c-.6-1.1-3.5.7-3.3 1.8s2.6 1.1 2.8 0 .4-1.2.5-1.8zM175.2 195.6c-.2 0-.5 3.2-1.7 3a5.9 5.9 0 011.3-3.6 2.1 2.1 0 01.4.6zm.9-3.3c-.7 1.3-1.3-.3-.8-1.1a4.4 4.4 0 01.8 1.1zM182.4 195.8a5.2 5.2 0 01-1 2.3l.1.4c0 .1-1.4-.3-.4-1.2 1.8-4.7-3.3 1.1-4.5 1.6s3.7-6.9 2.6-3c1.4-.8 3-1.8 3.3 0z"/><path d="M187.5 195.2c-.6 3.1 0 8.3-4 8.3-.7 0-3.1-.5-2.5-1.6 2.7 2.7 6.2-.9 5.3-3.8-7.7 1.4-.9-7 1.2-2.9zm-.8 0c-.6-1.2-3.4.7-3.3 1.7s2.6 1.1 2.9 0a10.1 10.1 0 00.4-1.8zM198.2 197.3c-2.5 2-8.7.3-3.6-2.7s3.1 3.4-.6 1.6c-2.5 2.2 3.6 1.1 4.2 1.1zm-1.3-2.2c-.7-.6-1.2-.4-2.1.1a1.2 1.2 0 002.1-.1zM204.4 195c0 1-.9 1.7-1 2.6s-1.4-.3-.4-1.2c1.8-4.7-3.3 1.2-4.6 1.6s3.8-6.8 2.7-2.9c1.4-1.1 3-2.1 3.3-.1zM214.6 191.8c0 1.7-3.1 3-3.2 4.9s-2-2.4-2.1-3.4 1.2 2.2 1.4 2.8 2.6-3.2 3.7-4.3zM219.4 196.4c-2.4 2-8.7.3-3.6-2.6s3.1 3.4-.6 1.5c-2.3 2.3 3.6 1.2 4.2 1.1zm-1.3-2.2c-.7-.6-1.2-.3-2.1.2a1.2 1.2 0 002.1-.2zM224.5 194.5c-3.9-2.1-2.4 2.4-4.9 3.2 0-.6 1.1-2.3 1.2-2.7s-.2-2.6.9-2.5c-.2 2 2.6.3 2.8 2.1zM230 191.2c0 1.7-3.1 2.9-3.2 4.9-1.6 3.2-2-2.4-2.1-3.4s1.2 2.2 1.4 2.8a38.1 38.1 0 013.7-4.3zM236.3 194.5c0 2.4-6.7 3.3-6.8 1s6.5-4.6 6.8-1zm-.6 0c-.8-2.4-4.8-.4-5.6 1.1 1.4 1.4 5.3.6 5.6-1.1z"/><path d="M242 195.6c-2.4 2-8.7.3-3.5-2.7s3 3.4-.7 1.6c-2.3 2.2 3.6 1.1 4.2 1.1zm-1.3-2.3c-.7-.6-1.2-.3-2.1.2a1.2 1.2 0 002.1-.2zM247.1 193.5c-3.9-2.1-2.4 2.4-4.9 3.1a12.3 12.3 0 011.2-2.6c.1-.4-.2-2.6.9-2.6-.2 1.9 2.7.2 2.8 2.1zM249.3 192.7c0 .1-.5 3.2-1.7 3a6.6 6.6 0 011.3-3.6zm.9-3.3c-.6 1.3-1.3-.3-.8-1.1a4.4 4.4 0 01.8 1.1zM256.5 192.9a3.8 3.8 0 01-1.1 2.3.5.5 0 00.2.4c-.8 1-1.5-.3-.5-1.2 1.9-4.7-3.2 1.2-4.5 1.6s3.8-6.8 2.6-2.9c1.5-.9 3-1.9 3.3 0z"/><path d="M261.5 192.3c-.5 3.1 0 8.3-4 8.3-.7 0-3-.5-2.4-1.5 2.6 2.6 6.1-.9 5.2-3.9-7.6 1.4-.9-7 1.3-2.9zm-.7-.1c-.7-1.2-3.5.7-3.4 1.8s2.7 1 2.9 0l.5-1.8zM35.7 209.5c-.2 1.5-2.5 3.2-2.8 4.9 6 .2-.6 6.2-3.7 4.1.2-1.5 2.6-3.5 3.3-4.7s1.2-3.9 3.2-4.3zm-.9 6.2c-1-1.9-4.5.3-4.3 2.2s4.5-1.2 4.3-2.2zM40.6 215.5c-3.9-2-2.4 2.4-4.9 3.2 0-.6 1.1-2.3 1.2-2.7s-.2-2.6.9-2.5c-.2 2 2.6.3 2.8 2.1zM46.4 217.2c-2.5 2.1-8.7.4-3.6-2.6s3.1 3.4-.6 1.6c-2.4 2.2 3.5 1.1 4.2 1zm-1.3-2.2c-.8-.6-1.3-.3-2.1.2a1.2 1.2 0 002.1-.2zM52.5 214.9c0 1.1-.9 1.8-1 2.7s-1.4-.3-.4-1.2c1.8-4.7-3.3 1.2-4.6 1.6s3.8-6.8 2.7-2.9c1.4-.9 3-1.9 3.3 0z"/><path d="M57.7 214.3c-.5 3.1 0 8.3-4 8.3-.7 0-3.1-.5-2.5-1.6h.2c2.6 2.7 6.1-.8 5.1-3.8-7.7 1.4-.9-7 1.2-2.9zm-.7 0c-.7-1.2-3.5.7-3.4 1.8s2.7 1 2.9 0l.5-1.8z"/><path d="M63.4 216.6c-2.4 2-8.7.3-3.5-2.7s3 3.4-.7 1.6c-2.3 2.2 3.6 1.1 4.2 1.1zm-1.3-2.2c-.7-.6-1.2-.4-2.1.2a1.3 1.3 0 002.1-.2zM69.6 214.3a5.2 5.2 0 01-1 2.3.4.4 0 00.1.3c-.7 1.1-1.4-.2-.4-1.2 1.8-4.6-3.3 1.2-4.5 1.6s3.7-6.8 2.6-2.9c1.4-.8 3-1.8 3.3 0zM72.4 216.6c0 .9-.8 3-1.9 2.6.4-1.1 1.7-2.1.6-3s1.5-1 1.3.4zM79.4 213.3c-.2 0-.5 3.3-1.7 3a5.6 5.6 0 011.3-3.5l.4.5zm.9-3.1c-.7 1.3-1.3-.2-.8-1.1a4.4 4.4 0 01.8 1.1zM87.5 210.8c-.3 1.3-3.1 1-3.9 2 8.2.7-2.4 7.5-2.9 1.9a3.1 3.1 0 005.3-.2c0-1-3-.7-3.9-1.6 1.6-.9 3.5-2.1 5.4-2.1zM98.2 215.2c-2.4 2-8.7.3-3.5-2.6s3 3.3-.7 1.5c-2.3 2.3 3.6 1.2 4.2 1.1zm-1.1-2.2c-.7-.6-1.3-.3-2.1.2a1.2 1.2 0 002.1-.2zM102.8 208.2c-.4 1.1-2.6 5.5-3.1 6.5s-.3 1.6-1.1 1.2c.8-2.5 2.9-5.9 3.8-8.3.2 0 .4.4.4.6zM108.9 210.2c0 1.5-3 2-3.9 2.8s2.5 4 .8 4.5a9.4 9.4 0 00-2-3.5c-.3 1.1 0 1.6-1.3 1.7a50.5 50.5 0 014.3-9.1c1.4.6-2 3.5-2.1 5.6a10.2 10.2 0 004.2-2.6v.6z"/><path d="M113.8 214.6c-2.4 2-8.7.3-3.5-2.6s3 3.3-.7 1.5c-2.3 2.3 3.6 1.2 4.2 1.1zm-1.3-2.2c-.7-.6-1.2-.3-2.1.2a1.2 1.2 0 002.1-.2zM125.3 207.7c-.2 1.4-1.7 4.5-1.9 5.8h.6c-.5 1.6-2.2 1-3.5 1.2-4 0 .8-5.2 2.6-3.2v-.2s1.5-5.3 2.2-3.6zm-2.6 5.1c-.2-2.6-5.7 1.8-1.6 1.4 1.1 0 1.7-.5 1.6-1.4zM130.8 214.8c-.6 1.4-1.8 0-2.1-.9-10.5 4.4 3.9-9.8 1.3-1.4-.7 1.5-.9 2.1.8 2.3zm-.6-3.9c-4.7-2-7 8.6 0 .6a.6.6 0 000-.6z"/><path d="M135.5 211.2c-.6 3.1 0 8.4-4.1 8.3-.6 0-3-.4-2.4-1.5 2.6 2.7 6.2-.9 5.1-3.8-7.5 1.3-.8-7 1.4-3zm-.8 0c-.6-1.1-3.4.8-3.3 1.8s2.6 1.1 2.9 0a12.5 12.5 0 00.4-1.8zM146.2 213.3c-2.5 2-8.7.4-3.6-2.6s3.1 3.4-.6 1.6c-2.4 2.2 3.6 1.1 4.2 1zm-1.3-2.2c-.7-.6-1.2-.3-2.1.2a1.2 1.2 0 002.1-.2z"/><path d="M151.9 213.1c-2.4 2-8.7.3-3.6-2.6s3.1 3.3-.6 1.5c-2.4 2.3 3.6 1.2 4.2 1.1zm-1.3-2.2c-.7-.6-1.2-.3-2.1.2a1.2 1.2 0 002.1-.2zM158.1 210.8c0 1-.9 1.8-1 2.7s-1.4-.3-.5-1.2c1.9-4.7-3.2 1.2-4.5 1.6s3.8-6.9 2.6-2.9c1.5-.9 3-1.9 3.3 0zM169.3 209.6c0 2.6-4.8 3.1-6.2 4.8s-.7 2.4-1.6 2.6c-.8-1.5 3.8-4.8 3.6-6.8l-.6.4c-1-1.4 5-3.1 4.8-.9zm-.7 0c-1.3-1.9-3.9 2-4.1 3.3a6.8 6.8 0 004.1-3.3zM176.6 210.7c0 2.5-6.7 3.4-6.9 1.1s6.6-4.6 6.9-1.1zm-.6 0c-.8-2.3-4.8-.3-5.5 1.2 1.2 1.4 5.3.6 5.5-1.2zM181.7 210.1c-3.9-2.1-2.4 2.4-4.9 3.1a12.3 12.3 0 011.2-2.6c0-.4-.2-2.6.9-2.6-.2 1.9 2.7.2 2.8 2.1z"/><path d="M187.1 205.5c0 .7-.3.7-.9 1.7s1.1.5.9 1c-3-1-6.2 5.6-.8 4.1v.3c-4.6 1.5-5-1.7-1.9-4.4-.9-.2-2.3 1.2-2.6 0 1.7-1 4-.1 4.7-3.4.2 0 .5.4.5.6zM189.3 209.1s-.4 3.2-1.7 3a6.6 6.6 0 011.3-3.6c.3.3.4.4.4.6zm.9-3.3c-.6 1.3-1.3-.3-.8-1.1a4.4 4.4 0 01.8 1.1zM196.1 211.4c-2.5 2-8.8.3-3.6-2.6s3 3.3-.6 1.5c-2.4 2.3 3.5 1.2 4.2 1.1zm-1.3-2.2c-.8-.6-1.3-.3-2.1.2a1.2 1.2 0 002.1-.2zM206.4 206.2c0 1.7-3 2.9-3.2 4.8s-2-2.3-2-3.4 1.1 2.3 1.3 2.9a49.5 49.5 0 013.7-4.3zM211.2 210.8c-2.4 2-8.7.3-3.5-2.6s3 3.3-.7 1.5c-2.3 2.3 3.6 1.2 4.2 1.1zm-1.3-2.2c-.7-.6-1.2-.3-2.1.2a1.2 1.2 0 002.1-.2zM216.3 208.7c-3.9-2-2.4 2.4-4.9 3.2 0-.6 1.1-2.2 1.2-2.6s-.2-2.7.9-2.5c-.2 1.9 2.6.3 2.8 1.9zM226.3 208.5c0 2.2-4.1 3.8-5.6 2.2v-.3c-.3-.3-1.9.9-2.6.9-3.1.6.6-4.3 1.3-3.8s-1.5 2.4-1.8 3.1c1.7.7 2.8-.7 3.7-2.3h.2c-1 5.3 7.1.6 3.4-1.6l.2-.2c.8 0 1.2 1.1 1.3 1.9zM233.5 208.5c0 2.5-6.7 3.4-6.8 1.1s6.5-4.6 6.8-1.1zm-.6 0c-.8-2.3-4.8-.4-5.5 1.2 1.3 1.4 5.2.6 5.5-1.2zM239.7 207.6a5.2 5.2 0 01-1 2.3.4.4 0 00.1.3c-.8 1.1-1.4-.2-.4-1.2 1.6-4.5-3.2 1.1-4.6 1.6s3.8-6.8 2.7-2.9c1.4-.9 2.9-1.9 3.3 0z"/><path d="M246.2 203c-.3 1.4-1.8 4.5-2 5.7h.6c-.5 1.7-2.2 1.1-3.5 1.3-4 0 .8-5.2 2.6-3.2v-.2s1.5-5.3 2.3-3.6zm-2.7 5.1c-.2-2.8-5.7 1.8-1.5 1.4 1 0 1.6-.5 1.5-1.4zM251.2 209.2c-2.4 2.1-8.7.4-3.6-2.6s3.1 3.4-.6 1.6c-2.3 2.2 3.6 1.1 4.2 1zm-1.3-2.2c-.7-.6-1.2-.3-2.1.2a1.2 1.2 0 002.1-.2zM256.3 207.1c-3.9-2-2.4 2.5-4.9 3.2 0-.6 1.1-2.2 1.2-2.6s-.2-2.6.9-2.6c-.2 1.9 2.7.2 2.8 2zM258.4 206.4c-.2 0-.5 3.2-1.7 3a6.3 6.3 0 011.3-3.5c.3.2.4.4.4.5zm1-3.3c-.8 1.3-1.4-.3-.9-1.1zM265.6 206.6c0 1.1-.9 1.8-1 2.7s-1.4-.3-.4-1.2c1.8-4.7-3.2 1.1-4.5 1.6s3.8-6.9 2.6-2.9c1.5-.9 3-1.9 3.3 0z"/><path d="M266.7 214.3c-.7 0-3.1-.5-2.5-1.6 3.2 3.2 3.3-2.3 2.7-3.8-2.5-.7-.3-3.3 1.2-3.8a41 41 0 01-1.4 9.2zm.9-8.1c-1.3 1-1.5 2.3.6 2.2.2 0 0-2.6-.6-2.2zM31.5 229.3c-.2 0-.5 3.2-1.7 3a6.9 6.9 0 011.3-3.6c.3.3.4.4.4.6zm.9-3.3c-.7 1.3-1.3-.3-.8-1.1a4.4 4.4 0 01.8 1.1zM39.6 226.7c-.3 1.3-3.1 1-3.9 2.1 8.2.6-2.4 7.4-2.9 1.8a3 3 0 005.2-.2c0-1-2.9-.7-3.8-1.5a14.8 14.8 0 015.3-2.3zM50.7 232c-.6 1.4-1.7 0-2.1-.9-10.5 4.4 3.9-9.8 1.3-1.4-.7 1.5-.9 2.1.8 2.3zm-.6-3.9c-4.7-2-6.9 8.5-.1.6a1.3 1.3 0 00.1-.6z"/><path d="M54.8 224.2c-.4 1-2.8 5.5-3.1 6.4s-.3 1.6-1.1 1.2c.7-2.4 2.8-5.9 3.8-8.2a.5.5 0 01.4.6zM59.4 224.5c0 .8-.2.8-.8 1.7s1 .5.9 1.1c-3.1-1.1-6.2 5.5-.8 4.1v.2c-4.6 1.5-5-1.6-2-4.3-.8-.3-2.3 1.1-2.6 0 1.8-1.1 4.1-.2 4.7-3.4q.5 0 .6.6zM61.6 228.1c-.1 0-.4 3.2-1.6 3a6.2 6.2 0 011.2-3.5.7.7 0 01.4.5zm1-3.3c-.7 1.3-1.4-.2-.8-1.1a4.4 4.4 0 01.8 1.1zM65.6 228.3c-2.8 13.4-8.9 5.2-5.8 4 .7 6.9 4.8.4 5.5-4.4l.3.4zm1-3.4c0 .4-1 .2-1.4.1s1.2-1 1.4-.1zM73.5 223.8c.1.7-3.4 7.4-1.4 5.9-8.3 4.3-4.5-4.1-.7-2v-.2s1.2-5.4 2.1-3.7zm-2.7 5.1c-.2-2.6-5.7 1.8-1.6 1.4 1 0 1.6-.5 1.6-1.4zM83.3 229.8c-2.4 2.1-8.7.4-3.5-2.6s3 3.4-.7 1.6c-2.3 2.2 3.6 1.1 4.2 1zm-1.2-2.2c-.8-.6-1.3-.3-2.1.2a1.2 1.2 0 002.1-.2z"/><path d="M89.1 229.6c-2.5 2-8.8.4-3.6-2.6s3 3.4-.6 1.6c-2.4 2.2 3.5 1.1 4.2 1zm-1.3-2.2c-.8-.6-1.3-.3-2.1.2a1.2 1.2 0 002.1-.2zM95.2 227.3c0 1-.9 1.8-1 2.7s-1.4-.3-.4-1.2c1.8-4.7-3.3 1.2-4.5 1.6s3.8-6.9 2.6-2.9c1.4-.9 3-1.9 3.3 0zM106.9 220.7c-.3 1.6-2.6 3.3-2.9 5 6 .2-.6 6.2-3.7 4 .3-1.4 2.6-3.4 3.3-4.7s1.4-3.8 3.3-4.3zm-.9 6.3c-4.9-3.4-6.2 7.9 0 0z"/><path d="M112.3 228.6c-2.4 2-8.7.3-3.5-2.6s3 3.3-.6 1.5c-2.4 2.3 3.5 1.2 4.1 1.1zm-1.3-2.2c-.7-.6-1.2-.3-2.1.2a1.2 1.2 0 002.1-.2z"/><path d="M118.1 228.6c-2.5 2-8.7.3-3.6-2.6s3.1 3.3-.6 1.5c-2.4 2.1 3.5 1.1 4.2 1.1zm-1.3-2.2c-.7-.6-1.3-.3-2.1.2a1.2 1.2 0 002.1-.2z"/><path d="M123.3 222c0 .8-.2.8-.8 1.7s1 .5.9 1.1c-3-1.1-6.2 5.5-.8 4.1v.2c-4.6 1.5-5-1.6-2-4.3-.4-.2-1.8.5-2 .5-2-1 2-.8 2.6-1.3a6.7 6.7 0 001.7-2.6c.2 0 .5.4.4.6z"/><path d="M126.5 226c-2.8 13.3-8.8 5.2-5.9 4 .8 6.9 4.9.4 5.6-4.4v.3zm.9-3.4c0 .4-.9.2-1.3.2s1.6-1.6 1.3-.2zM133.3 227.9c-2.4 2-8.7.3-3.5-2.6s3 3.3-.7 1.5c-2.3 2.3 3.6 1.2 4.2 1.1zm-1.3-2.2c-.7-.6-1.2-.3-2.1.2a1.2 1.2 0 002.1-.2zM145 222.9c0 1.5-3 2-4 2.8s2.6 3.9.9 4.5a15.8 15.8 0 00-2-3.6c-.4 1.2 0 1.7-1.3 1.8a50.1 50.1 0 014.2-9.1c1.4.5-1.9 3.5-2 5.7a13.8 13.8 0 004.2-2.5zM146.2 224.8c-.2 0-.5 3.2-1.7 3a6.3 6.3 0 011.3-3.5l.4.5zm1-3.3c-.8 1.3-1.4-.2-.9-1.1zM153.4 225.1c0 1-.9 1.7-1 2.6s-1.4-.3-.4-1.2c1.8-4.7-3.3 1.2-4.5 1.6s3.7-6.8 2.6-2.9c1.4-.9 3-1.9 3.3 0z"/><path d="M159.9 220.5c.1.6-3.4 7.8-1.4 5.8-8.2 4.5-4.6-4.3-.8-1.9v-.3s1.4-5.3 2.2-3.6zm-2.6 5c-.3-2.7-5.8 1.8-1.6 1.5 1.2-.1 1.7-.6 1.6-1.5zM171 218.2c-.2 1.6-2.6 3.3-2.9 5 6.1.2-.5 6.2-3.7 4 .3-1.4 2.6-3.4 3.4-4.7s1.2-3.8 3.2-4.3zm-.9 6.3c-1.1-1.9-4.6.3-4.3 2.2s4.5-1.2 4.3-2.2zM175.4 219.5l-3.1 6.4c-.4.9-.7 1.9-1.3 1 1-2.3 2.9-5.8 3.9-8 .2 0 .5.4.5.6zM176.7 223.6c-.1 0-.4 3.2-1.7 3a6.4 6.4 0 011.4-3.5zm1-3.3c-.7 1.3-1.4-.2-.8-1.1a4.4 4.4 0 00.8 1.1zM180.7 223.8c-2.8 13.3-8.8 5.2-5.8 4.1.7 6.8 4.9.3 5.5-4.5v.3zm1-3.4c0 .4-1 .3-1.4.2s1.3-1.1 1.4-.2zM187.3 221c0 1.7-3.1 2.9-3.2 4.8s-2-2.3-2.1-3.4 1.2 2.3 1.4 2.9a38.1 38.1 0 013.7-4.3zM192.1 225.6c-2.5 2-8.7.3-3.6-2.6s3 3.4-.6 1.5c-2.4 2.3 3.6 1.2 4.2 1.1zm-1.3-2.2c-.7-.6-1.3-.4-2.1.1a1.2 1.2 0 002.1-.1zM198.2 223.4c.1 1-.9 1.7-1 2.6s-1.4-.3-.4-1.2c1.8-4.7-3.3 1.2-4.5 1.6s3.8-6.8 2.6-2.9c1.4-.9 3-1.9 3.3 0zM201 225.6c0 .9-.7 3-1.9 2.6.5-1.1 1.8-2 .7-3s1.4-1 1.2.4zM208 222.4c-.1 0-.4 3.2-1.7 3a6.4 6.4 0 011.4-3.5.5.5 0 01.3.5zm1-3.3c-.7 1.3-1.4-.2-.8-1.1zM216.2 219.8c-.4 1.3-3.1 1-3.9 2.1 8.1.6-2.5 7.4-2.9 1.8a3 3 0 005.2-.2c0-1-3-.7-3.8-1.5 1.6-.9 3.5-2.3 5.4-2.2zM226.5 218.1c0 .7-.3.8-.9 1.7s1.1.5.9 1.1c-3-1.2-6.1 5.4-.8 4v.2c-4.6 1.5-5.1-1.7-2-4.3-.8-.3-2.3 1.1-2.6 0 1.8-1.1 4.1 0 4.7-3.4a.5.5 0 01.5.5zM234.1 221.1c0 1-1.8 3.5-1 4.3-2.6 1.2.7-3.6 0-4.4a7.4 7.4 0 00-5.5 4.2l-.7-.2a56.2 56.2 0 004.6-7.9c1.1.6-.2 1.4-1.4 4.7 1.4-.4 3.8-2.6 4-.5zM242.1 219.7c.2 1.1-4.2 4.4-1.1 4.4l.2.2c-1 .5-2.3.3-2-1.2-6.3 4.3-5.3-.6-1.3-3.3.9.8-2.4 3.1-2.6 4.2 3.6.3 4.4-3.8 6.6-4.6zM248.6 221c0 1.1-1 .5-1.3.4s-3 .9-3.9.6 5.5-1.5 5.1-.8zM32 243.3c-.1 0-.4 3.2-1.7 3a6.3 6.3 0 011.3-3.5c.3.2.4.4.4.5zm1-3.3c-.7 1.3-1.4-.2-.9-1.1zM40.1 240.8c-.3 1.2-3 .9-3.8 2 8.1.6-2.5 7.4-2.9 1.8a3 3 0 005.2-.1c0-1.1-3-.8-3.9-1.6a18.9 18.9 0 015-2.3zM47 240.8c0 1.5-3 2-4 2.8s2.5 3.9.8 4.5a10.7 10.7 0 00-2-3.6c-.3 1.2 0 1.6-1.2 1.7a51.5 51.5 0 014-9c1.4.5-2 3.6-2 5.6a14.1 14.1 0 004.2-2.6v.4zM53.4 243.6c0 2.5-6.7 3.4-6.9 1.1s6.6-4.6 6.9-1.1zm-.6 0c-.8-2.3-4.8-.3-5.6 1.2 1.3 1.4 5.3.6 5.6-1.2zM63 241.8c-.3 1.5-1.5 2.9-1.7 4.5-1.7-.6 1-3.8.8-4.3s-3.9 2.9-5.3 3 2.1-1.9 1.1-2.9c-1.3.6-2.8 3.3-4.2 3.7.1-1.5 4.7-6.9 5.5-2.9.6-.2 3.6-2.9 3.8-1.1zM68.8 244.4c-2.5 2-8.7.3-3.6-2.6s3.1 3.3-.6 1.5c-2.4 2.3 3.6 1.2 4.2 1.1zm-1.3-2.2c-.7-.6-1.2-.3-2.1.2a1.2 1.2 0 002.1-.2zM75 242.2c0 1-.9 1.7-1 2.6s-1.4-.2-.5-1.2c1.9-4.6-3.2 1.2-4.5 1.6s3.8-6.8 2.7-2.9c1.4-.9 3-1.9 3.2 0zM81.8 241.4c-.2 0-.5 3.2-1.7 3a6.6 6.6 0 011.3-3.6c.3.3.4.4.4.6zm1-3.3c-.7 1.3-1.4-.3-.9-1.1zM89 241.8c0 1-.9 1.7-1 2.6s-1.4-.3-.4-1.2c1.8-4.8-3.3 1.4-4.6 1.6s3.8-6.8 2.6-2.9c1.4-.9 3-1.9 3.3 0zM100.4 236.8c-.2 1.4-1.7 4.5-2 5.7h.7c-.6 1.6-2.2 1.1-3.5 1.3-4.1 0 .8-5.3 2.6-3.2v-.2s1-4.7 1.8-3.7zm-2.6 5.1c-.2-2.8-5.7 1.8-1.6 1.4 1.1 0 1.6-.5 1.6-1.4zM105.5 243c-2.5 2-8.7.4-3.6-2.6s3.1 3.4-.6 1.6c-2.4 2.2 3.6 1.1 4.2 1.1zm-1.3-2.2c-.7-.6-1.3-.3-2.1.2a1.2 1.2 0 002.1-.2zM116.8 239.8c.2 2.6-4.8 3.1-6.1 4.8s-.8 2.4-1.6 2.6c-.9-1.6 3.6-4.8 3.5-6.9l-.6.4c-1-1.4 5.1-3.1 4.8-.9zm-.6 0c-1.4-1.9-4 1.9-4.1 3.2a7.3 7.3 0 004.1-3.2zM121.5 235.6c-.4 1.1-2.6 5.5-3.1 6.5s-.3 1.5-1.1 1.2c.7-2.5 2.9-5.9 3.8-8.3.2 0 .4.4.4.6zM128.1 240.7c0 2.5-6.7 3.4-6.9 1.1s6.6-4.6 6.9-1.1zm-.6 0c-.8-2.3-4.8-.4-5.6 1.2 1.3 1.4 5.3.6 5.6-1.2z"/><path d="M133.8 241.9c-2.4 2-8.7.4-3.5-2.6s3 3.4-.7 1.6c-2.3 2.2 3.6 1.1 4.2 1zm-1.3-2.2c-.7-.6-1.2-.3-2.1.2a1.2 1.2 0 002.1-.2z"/><path d="M139.1 239.1c-.6 3.1 0 8.4-4.1 8.3-.6 0-3-.4-2.4-1.5 2.6 2.6 6.2-.9 5.1-3.9-7.6 1.5-.9-6.9 1.4-2.9zm-.8 0c-.6-1.2-3.5.7-3.3 1.8s2.6 1 2.9 0a10.1 10.1 0 00.4-1.8zM149.7 241.3c-4.3 2.6-8.5-1.1-2.1-3.3 3.9.6-.3 3.5-2 2.2-2.4 2.3 3.5 1.2 4.1 1.1zm-1.2-2.2c-.8-.6-1.3-.3-2.1.2a1.2 1.2 0 002.1-.2zM155.9 239.1c0 1-.9 1.8-1 2.7s-1.4-.3-.4-1.2c1.8-4.8-3.3 1.4-4.6 1.6s3.8-6.9 2.6-2.9c1.4-.9 3-1.9 3.3 0zM168.7 236.6c.2 1.1-4.2 4.5-1.1 4.4l.2.2c-1 .5-2.4.3-2-1.2-6.4 4.3-5.3-.6-1.3-3.3.8.8-2.4 3.1-2.6 4.2 3.6.3 4.4-3.7 6.5-4.6zM170.7 237.9s-.4 3.2-1.6 3a5.6 5.6 0 011.3-3.5.5.5 0 01.3.5zm1-3.3c-.7 1.3-1.4-.2-.8-1.1a4.4 4.4 0 01.8 1.1zM177.1 233.9c0 .7-.2.7-.8 1.7s1 .5.9 1.1c-3.1-1.1-6.2 5.5-.8 4v.2c-4.6 1.5-5.1-1.6-2-4.2-.8-.3-2.3 1.1-2.6 0 1.7-1.1 4.1 0 4.7-3.5.2 0 .5.4.5.6zM187.2 238.1c0 2.2-4 3.8-5.6 2.2v-.2c-.3-.4-1.9.9-2.6.9-3.1.5.6-4.4 1.3-3.9s-1.4 2.4-1.8 3.1c1.8.7 2.9-.7 3.7-2.3h.2c-.8 5.1 7 .8 3.5-1.6v-.2c.9 0 1.3 1.1 1.3 2z"/><path d="M193.3 240.5c-.5 1.4-1.8 0-2.1-.9-10.5 4.4 3.9-9.8 1.3-1.4-.7 1.5-1 2.1.8 2.3zm-.6-4c-4.7-2-6.9 8.6 0 .6a.6.6 0 000-.6z"/><path d="M198.9 240.3c-.6 1.4-1.8-.2-2.2-.9-10.5 4.4 4-9.8 1.3-1.4-.6 1.5-.8 2.1.9 2.3zm-.6-4c-4.8-1.9-7 8.6 0 .6z"/><path d="M200.3 236.7s-.4 3.3-1.6 3a5.6 5.6 0 011.3-3.5zm1-3.2c-.7 1.3-1.4-.3-.8-1.1a4.4 4.4 0 01.8 1.1zM207.1 239.1c-2.4 2-8.7.3-3.5-2.6s3 3.4-.7 1.5c-2.3 2.2 3.6 1.1 4.2 1.1zm-1.2-2.2c-.8-.6-1.3-.3-2.1.2a1.2 1.2 0 002.1-.2zM213.3 236.8c0 1-.9 1.7-1 2.6s-1.4-.3-.4-1.2c1.8-4.6-3.3 1.2-4.5 1.6s3.7-6.8 2.6-2.9c1.4-.8 3-1.9 3.3 0zM225.4 236.9c0 2.5-6.7 3.4-6.9 1.1s6.6-4.6 6.9-1.1zm-.7 0c-.7-2.3-4.7-.3-5.5 1.2 1.3 1.4 5.3.6 5.5-1.2z"/><path d="M231.8 235.3c0 2.5-4.8 3.1-6.2 4.8s-.7 2.4-1.6 2.6c-.9-1.6 3.7-4.8 3.6-6.8l-.7.3c-1-1.4 5.1-3.1 4.9-.9zm-.7 0c-1.3-1.9-4 1.9-4.1 3.2a6.9 6.9 0 004.1-3.2zM243.6 229.5c-.2 1.5-2.6 3.2-2.9 4.9 6.1.2-.5 6.2-3.7 4.1.3-1.5 2.6-3.5 3.4-4.7s1.2-3.9 3.2-4.3zm-.9 6.2c-1.1-1.9-4.6.3-4.3 2.2s4.5-1.2 4.3-2.2zM245.4 235c-.2 0-.5 3.2-1.7 3a6.3 6.3 0 011.3-3.5c.3.2.4.4.4.5zm1-3.3c-.7 1.3-1.4-.2-.9-1.1zM251.9 232.5c0 1.7-3 2.9-3.2 4.9s-2-2.3-2-3.5 1.1 2.2 1.3 2.8a49.5 49.5 0 013.7-4.3zM257.1 238c-.5 1.4-1.7 0-2.1-.9-10.5 4.4 4-9.8 1.3-1.4-.6 1.5-.8 2.1.8 2.3zm-.5-3.9c-4.8-2-7 8.5 0 .6l-.1-.6z"/><path d="M263.3 232.3c0 1.6-3 2.1-4 2.9s2.5 3.9.8 4.5a9.8 9.8 0 00-2-3.6c-.3 1.1 0 1.6-1.2 1.7a50.1 50.1 0 014.2-9.1c1.4.6-2 3.5-2 5.7a14.1 14.1 0 004.2-2.6zM32.6 257.3c-.2 0-.5 3.3-1.7 3a5.6 5.6 0 011.3-3.5 1 1 0 01.4.5zm.9-3.2c-.7 1.3-1.4-.3-.8-1.1a4.4 4.4 0 01.8 1.1zM40.7 254.9c-.3 1.3-3.1 1-3.9 2 8.1.6-2.5 7.5-2.9 1.9a3 3 0 005.2-.2c0-1.1-2.9-.7-3.8-1.6 1.6-.9 3.5-2.1 5.4-2.1zM50.8 257.3c-3.9-2-2.4 2.5-4.9 3.2 0-.6 1.1-2.2 1.2-2.6s-.2-2.6.9-2.5c-.2 2 2.6.3 2.8 2zM58.9 254.9c.1 1-4.3 4.5-1 4.4-1 .5-2.3.4-2-1.1-7.1 4.9-4.6-2.1-1-3.1-.2.9-2.4 2.9-2.8 4 3.6.2 4.4-3.8 6.6-4.6zM60.9 256.2c-.2 0-.5 3.3-1.7 3a6.3 6.3 0 011.3-3.5 1 1 0 01.4.5zm1-3.2c-.7 1.3-1.4-.3-.9-1.1zM71.6 255.5c-.3 1.5-1.5 3-1.7 4.5-1.7-.6 1-3.7.8-4.2s-3.9 2.9-5.3 3 2.1-1.9 1.1-2.9-2.9 3.3-4.3 3.6c.2-1.5 4.8-6.9 5.6-2.8.6-.2 3.6-2.9 3.8-1.2z"/><path d="M76.9 251.9c0 .8-.2.8-.8 1.7s1 .5.9 1.1c-3.1-1.1-6.2 5.4-.9 4.1v.2c-4.6 1.5-5-1.6-1.9-4.3-.9-.3-2.4 1.2-2.6 0 1.7-1.1 4-.2 4.7-3.4.2 0 .5.4.5.5zM82.8 258c-4.3 2.6-8.5-1.1-2.1-3.3 3.9.5-.4 3.5-2.1 2.2-2.3 2.2 3.6 1.1 4.2 1.1zm-1.2-2.2c-.8-.6-1.3-.4-2.1.2a1.3 1.3 0 002.1-.2zM93.2 252.7c0 1.7-3.1 3-3.2 4.9s-2-2.3-2.1-3.4 1.2 2.2 1.4 2.8 2.6-3.2 3.7-4.3zM99.6 255.9c0 2.5-6.8 3.4-6.9 1.1s6.5-4.6 6.9-1.1zm-.7 0c-.8-2.3-4.8-.4-5.5 1.2 1.2 1.3 5.2.5 5.5-1.2zM106.8 255.6c0 2.5-6.7 3.4-6.9 1.1s6.6-4.6 6.9-1.1zm-.7 0c-.7-2.3-4.7-.3-5.5 1.2 1.3 1.4 5.2.6 5.5-1.2zM111.9 254.9c-3.9-2-2.4 2.4-5 3.2 0-.6 1.2-2.2 1.3-2.7s-.2-2.6.9-2.6c-.3 2 2.7.3 2.8 2.1zM123 257.3c-.6 1.4-1.8 0-2.2-.9-10.5 4.4 4-9.8 1.3-1.4-.6 1.5-.8 2.1.9 2.3zm-.6-4c-4.7-1.9-7 8.6 0 .7z"/><path d="M127.1 249.5c-.5 1-2.8 5.5-3.1 6.4s-.4 1.6-1.1 1.2c.7-2.4 2.9-5.9 3.8-8.3a1.8 1.8 0 01.5.7zM131 249.3c-.4 1-2.8 5.5-3.1 6.5s-.6 1.8-1.2 1c.9-2.4 2.9-5.9 3.8-8.1.3 0 .5.4.5.6zM136.1 255.9c-2.5 2-8.8.3-3.6-2.6s3 3.3-.6 1.5c-2.4 2.2 3.5 1.2 4.2 1.1zm-1.3-2.2c-.8-.6-1.3-.3-2.1.2a1.2 1.2 0 002.1-.2zM147.7 250.9c0 1.5-3 2-3.9 2.8s2.5 4 .8 4.5a9.4 9.4 0 00-2-3.5c-.3 1.1 0 1.6-1.2 1.7a50.1 50.1 0 014.2-9.1c1.4.6-2 3.5-2 5.6a11.4 11.4 0 004.2-2.6 1.3 1.3 0 01-.1.6zM148.9 252.8c-.1 0-.4 3.2-1.6 3a5.6 5.6 0 011.3-3.5.5.5 0 01.3.5zm1-3.2c-.7 1.3-1.4-.2-.8-1.1a4.4 4.4 0 00.8 1.1zM156.2 253.1c0 1-.9 1.7-1 2.6s-1.4-.3-.4-1.2c1.8-4.7-3.3 1.2-4.6 1.6s3.9-7 2.7-3c1.4-.9 3-1.9 3.3 0z"/><path d="M162.7 248.5c-.3 1.3-1.7 4.4-2 5.7h.6c-.5 1.6-2.2 1-3.4 1.2-4.1 0 .7-5.2 2.6-3.2v-.3s1.4-5.2 2.2-3.4zm-2.6 5c-.3-2.6-5.8 1.8-1.6 1.4 1 0 1.6-.5 1.6-1.4zM167.7 254.7c-2.4 2-8.7.3-3.6-2.7s3.1 3.4-.6 1.6c-2.4 2.2 3.6 1.1 4.2 1.1zm-1.3-2.2c-.7-.7-1.2-.4-2.1.2a1.3 1.3 0 002.1-.2zM172.8 252.6c-3.9-2-2.4 2.4-4.9 3.2 0-.6 1.1-2.3 1.2-2.7s-.2-2.6.9-2.6c-.2 2 2.6.3 2.8 2.1zM178.6 254.2c-2.5 2.1-8.8.3-3.6-2.6s3 3.4-.6 1.6c-2.4 2.2 3.5 1.1 4.2 1zm-1.3-2.1c-.8-.7-1.3-.4-2.1.1a1.2 1.2 0 002.1-.1zM184.8 251.9c0 1.1-1 1.8-1.1 2.7s-1.4-.3-.4-1.2c1.8-4.7-3.3 1.2-4.5 1.6s3.7-6.8 2.6-2.9c1.4-.9 3-1.9 3.3 0zM187.5 254.2c0 1-.8 3-1.9 2.7.4-1.1 1.8-2.1.6-3.1s1.5-.9 1.3.4zM194.5 251c-.1 0-.4 3.3-1.6 3a5.6 5.6 0 011.3-3.5.5.5 0 01.3.5zm1-3.2c-.7 1.3-1.4-.3-.9-1.2zM202.6 248.5c-.3 1.3-3 .9-3.8 2 8.1.6-2.5 7.4-2.9 1.8a3 3 0 005.2-.1c0-1.1-2.9-.7-3.8-1.6 1.6-.9 3.5-2.1 5.3-2.1zM213.4 252.9c-2.5 2-8.7.3-3.6-2.6s3.1 3.4-.6 1.5c-2.4 2.3 3.6 1.1 4.2 1.1zm-1.3-2.2c-.7-.6-1.3-.4-2.1.2a1.3 1.3 0 002.1-.2zM218.5 250.8c-3.9-2-2.4 2.4-5 3.2 0-.6 1.2-2.2 1.2-2.7s-.1-2.6.9-2.6c-.2 2 2.7.3 2.9 2.1zM228.9 247.5c.1 1.3-2.4 2.6-2.8 3.8s-2.4 2.9-2 .1c0-.7-1.2-2.4 0-2.6s.9 2.4 1 3l3.8-4.3zM235.2 250.6c0 2.5-6.7 3.4-6.8 1.1s6.5-4.6 6.8-1.1zm-.6 0c-.8-2.3-4.8-.4-5.5 1.2 1.3 1.4 5.2.5 5.5-1.2zM242.5 250.3c0 2.5-6.7 3.4-6.9 1.1s6.6-4.6 6.9-1.1zm-.6 0c-.8-2.3-4.8-.4-5.6 1.2 1.3 1.4 5.3.6 5.6-1.2zM247.6 249.6c-3.9-2-2.4 2.5-5 3.2 0-.5 1.2-2.2 1.3-2.6s-.2-2.6.9-2.6c-.3 2 2.6.3 2.8 2zM37.3 270c0 .5-1.2 1.7-3.9 3.9 1.1.4 3.3-.7 4.1.3a23.8 23.8 0 00-5.3 1.1c.1-.1 0-.2-.2-.2s-.1.2-.3.2c-.5-1.8 4.1-3.3 4.3-4.8s-2.6.7-2.8-.5 1.5 0 2-.1 2.1-.6 2.3.1zM44.7 272.1c0 2.4-6.7 3.3-6.9 1.1s6.6-4.6 6.9-1.1zm-.6 0c-.8-2.3-4.8-.4-5.6 1.2 1.3 1.4 5.3.6 5.6-1.2zM49.9 271.4c-3.9-2-2.4 2.5-5 3.2 0-.6 1.2-2.2 1.2-2.6s-.1-2.7.9-2.7c-.2 2 2.7.4 2.9 2.1z"/><path d="M55.1 270.7c-.5 3 0 8.3-4 8.2-.7 0-3.1-.4-2.5-1.5 2.6 2.6 6.1-.9 5.1-3.9-7.6 1.5-.9-6.9 1.3-2.8zm-.8 0c-.6-1.2-3.4.7-3.3 1.7s2.6 1.1 2.9 0a16.5 16.5 0 00.4-1.7z"/><path d="M60.9 272.9c-2.5 2-8.8.3-3.6-2.6s3.1 3.3-.6 1.5c-2.4 2.2 3.7 1.1 4.2 1.1zm-1.3-2.2c-.7-.6-1.3-.4-2.1.2a1.3 1.3 0 002.1-.2zM67 270.7c.1 1-.9 1.7-1 2.6s-1.4-.3-.4-1.2c1.8-4.7-3.2 1.2-4.5 1.6s3.8-6.8 2.6-2.9c1.5-1.2 3.1-2.2 3.3-.1zM78.4 265.8c-.2 1.3-1.7 4.5-2 5.7h.7c-.6 1.6-2.2 1.1-3.5 1.3-4.1 0 .8-5.3 2.8-3.2v-.3s1.3-5.2 2-3.5zm-2.6 5.1c-.3-2.7-5.7 1.8-1.6 1.4 1.1 0 1.6-.5 1.6-1.4zM84 272.9c-.6 1.4-1.8 0-2.2-1-10.5 4.5 4-9.7 1.3-1.3-.6 1.4-.8 2.1.9 2.3zm-.6-4c-4.8-1.9-7 8.6-.1.7l.1-.7z"/><path d="M88.6 265.5c0 .8-.2.8-.8 1.7s1 .5.9 1.1c-3-1.1-6.2 5.6-.8 4.1v.2c-4.6 1.5-5-1.6-1.9-4.3-.9-.3-2.3 1.2-2.7 0 1.8-1 4.1-.1 4.8-3.4a1 1 0 01.5.6zM95.8 268.9c-.2 0-.5 3.3-1.7 3a6.3 6.3 0 011.3-3.5 1 1 0 01.4.5zm1-3.2c-.7 1.3-1.4-.3-.9-1.1zM102.6 271.3c-2.5 2-8.7.3-3.6-2.7s3 3.4-.6 1.6c-2.4 2.2 3.5 1.1 4.2 1.1zm-1.3-2.2c-.7-.6-1.3-.4-2.1.1a1.2 1.2 0 002.1-.1z"/><path d="M109.1 264.6c-.2 1.3-1.7 4.5-1.9 5.7h.6c-.5 1.6-2.2 1.1-3.5 1.3-4 0 .8-5.2 2.8-3.2v-.2s1.3-5.4 2-3.6zm-2.6 5.1c-.3-2.8-5.7 1.8-1.6 1.4 1.1 0 1.7-.4 1.6-1.4zM114.2 270.8c-2.4 2-8.7.3-3.5-2.6s3 3.4-.7 1.5c-2.4 2.3 3.6 1.2 4.2 1.1zm-1.3-2.2c-.7-.6-1.2-.3-2.1.2a1.2 1.2 0 002.1-.2zM119.3 268.7c-3.9-2-2.4 2.5-4.9 3.2 0-.6 1.1-2.2 1.2-2.6s-.2-2.7.9-2.5c-.2 1.9 2.6.3 2.8 2zM125.1 270.4c-4.3 2.6-8.6-1.1-2.1-3.3 3.8.5-.4 3.5-2.1 2.2-2.4 2.2 3.6 1.1 4.2 1.1zm-1.3-2.2c-.7-.6-1.3-.4-2.1.2a1.3 1.3 0 002.1-.2z"/><path d="M130.8 270.2c-2.5 2-8.7.3-3.6-2.7s3.1 3.4-.6 1.6c-2.4 2.2 3.5 1.1 4.2 1.1zm-1.3-2.2c-.7-.7-1.2-.4-2.1.2a1.3 1.3 0 002.1-.2zM137 267.9c0 1-.9 1.7-1 2.6s-1.4-.3-.4-1.2c1.8-4.7-3.3 1.2-4.6 1.6s3.8-6.8 2.7-2.9c1.4-.9 3-1.9 3.3 0zM151.4 266.5c-.3 1.5-1.4 2.9-1.7 4.5-1.7-.6 1-3.7.8-4.3s-3.9 2.9-5.3 3 2.1-1.9 1.1-2.9c-1.3.6-2.8 3.3-4.2 3.7.1-1.5 4.7-6.9 5.5-2.9.6-.2 3.6-2.9 3.8-1.1zM157.4 270c-.5 1.4-1.7 0-2.1-.9-10.5 4.4 3.9-9.8 1.3-1.4-.5 1.5-.7 2.1.8 2.3zm-.5-3.9c-4.8-2-7 8.5 0 .6a1.3 1.3 0 00.1-.6z"/><path d="M162.2 266.4c-.5 3.1 0 8.4-4 8.3-.7 0-3-.4-2.4-1.5 2.6 2.6 6.1-.9 5.1-3.9-7.6 1.5-.9-6.9 1.3-2.9zm-.7 0c-.7-1.2-3.5.7-3.4 1.8s2.7 1 2.9 0l.5-1.9zM176.9 265.4c-.4 1.5-1.5 3-1.8 4.5-1.6-.6 1.1-3.7.8-4.3s-3.8 2.9-5.2 3 2.1-1.8 1.1-2.8c-1.3.5-2.9 3.3-4.3 3.6.2-1.5 4.8-6.9 5.5-2.9.7-.2 3.6-2.8 3.9-1.1zM182.6 268c-2.4 2.1-8.7.3-3.5-2.6s3 3.4-.6 1.6c-2.4 2.3 3.5 1.2 4.1 1zm-1.3-2.2c-.7-.6-1.2-.3-2.1.2s2 .8 2.1-.2z"/><path d="M188.3 268c-2.4 2-8.7.3-3.5-2.6s3 3.4-.7 1.6c-2.3 2.1 3.6 1 4.2 1zm-1.2-2.2c-.8-.6-1.3-.3-2.1.2a1.2 1.2 0 002.1-.2z"/><path d="M194.9 261.3c-.2 1.3-1.7 4.4-2 5.7h.7c-.6 1.6-2.2 1-3.5 1.2-4.1 0 .8-5.2 2.6-3.2v-.2s1.5-5.3 2.2-3.5zm-2.6 5c-.3-2.6-5.7 1.8-1.6 1.4 1.1 0 1.6-.5 1.6-1.4zM201.5 266c0 2.5-6.7 3.3-6.9 1.1s6.6-4.6 6.9-1.1zm-.6 0c-.8-2.3-4.8-.4-5.5 1.2 1.2 1.4 5.2.6 5.5-1.2z"/><path d="M207.3 267.2c-2.4 2-8.7.3-3.6-2.6s3.1 3.4-.6 1.5c-2.4 2.2 3.5 1.1 4.2 1.1zM206 265c-.7-.6-1.3-.4-2.1.2a1.3 1.3 0 002.1-.2zM213.4 264.9c0 1-.9 1.8-1 2.7s-1.4-.3-.4-1.3c1.8-4.6-3.3 1.2-4.6 1.7s3.9-7 2.7-3.1c1.4-.9 3-1.9 3.3 0zM223.9 266.5c-2.4 2-8.7.3-3.5-2.6s3 3.4-.6 1.6c-2.4 2.2 3.5 1.1 4.1 1zm-1.3-2.2c-.7-.6-1.2-.3-2.1.2a1.2 1.2 0 002.1-.2zM230.1 264.2c0 1.1-.9 1.8-1 2.7s-1.4-.3-.4-1.2c1.8-4.7-3.3 1.1-4.5 1.6s3.8-7 2.6-3c1.4-.9 3-1.9 3.3 0zM241.4 259.4c-.2 1.4-1.7 4.5-2 5.7h.7c-.6 1.6-2.3 1.1-3.5 1.3-4.1 0 .8-5.3 2.6-3.2v-.2s1.6-5.3 2.2-3.6zm-2.6 5.1c-.3-2.6-5.7 1.8-1.6 1.4 1.2 0 1.7-.5 1.6-1.4zM246.9 266.5c-.5 1.4-1.7 0-2.1-.9-10.5 4.4 3.9-9.8 1.3-1.4-.6 1.5-.8 2.1.8 2.3zm-.5-3.9c-4.8-2-7 8.6 0 .6z"/><path d="M252.5 266.3c-.5 1.4-1.7 0-2.1-.9-10.5 4.4 3.9-9.8 1.3-1.4-.7 1.4-.8 2.1.8 2.3zm-.6-3.9c-4.7-2-7 8.5 0 .6z"/><path d="M257.1 263.3c-3.8-2-2.4 2.5-4.9 3.2 0-.5 1.2-2.2 1.2-2.6s-.1-2.6.9-2.6c-.2 1.9 2.7.2 2.8 2zM37.1 283c0 1.7-3.1 3-3.3 4.9s-2-2.3-2-3.4 1.1 2.2 1.3 2.8l3.7-4.3zM43.4 286.2c0 2.5-6.7 3.3-6.9 1.1s6.6-4.6 6.9-1.1zm-.6 0c-.8-2.3-4.8-.4-5.6 1.2 1.3 1.4 5.3.6 5.6-1.2zM48 280.6c-.4 1.1-2.8 5.6-3.1 6.5s-.3 1.6-1.1 1.2c.7-2.4 2.9-5.9 3.8-8.3a.7.7 0 01.4.6zM55.3 283.2c.2 1.1-4.1 4.4-1.1 4.4l.2.2c-1 .4-2.3.3-2-1.2-6.3 4.3-5.3-.6-1.3-3.4.9.9-2.3 3.2-2.6 4.3 3.6.3 4.5-3.8 6.6-4.6zM57.4 284.5c-.2 0-.5 3.2-1.7 3A5.6 5.6 0 0157 284c.3.2.4.3.4.5zm1-3.3c-.8 1.3-1.4-.2-.9-1.1zM63.7 280.6c0 .7-.2.7-.8 1.6s1 .6.9 1.1c-3.1-1.1-6.2 5.6-.8 4.1v.2c-4.6 1.5-5-1.6-2-4.3-.8-.2-2.3 1.2-2.6 0 1.8-1.1 4.1-.1 4.7-3.4.2 0 .5.4.6.7zM74.3 281.6c0 1.7-3.1 2.9-3.2 4.8s-2-2.3-2.1-3.3 1.2 2.2 1.4 2.8a38.1 38.1 0 013.7-4.3zM80.6 284.7c0 2.5-6.7 3.4-6.8 1.1s6.5-4.6 6.8-1.1zm-.6 0c-.8-2.3-4.8-.4-5.6 1.2 1.4 1.4 5.3.6 5.6-1.2zM87.9 284.5c0 2.4-6.7 3.3-6.9 1.1s6.6-4.7 6.9-1.1zm-.7 0c-.7-2.3-4.7-.4-5.5 1.1 1.3 1.5 5.3.7 5.5-1.1zM93 283.8c-3.9-2-2.4 2.5-5 3.2 0-.6 1.2-2.2 1.2-2.6s-.1-2.7.9-2.7c-.2 2.1 2.7.3 2.9 2.1zM103.2 282.8c-.6 3.1 0 8.3-4 8.3-.7 0-3.1-.5-2.5-1.6 2.6 2.7 6.1-.8 5.1-3.8-7.6 1.4-.9-7 1.2-2.9zm-.8 0c-.6-1.2-3.5.7-3.3 1.8s2.6 1 2.9 0a5.2 5.2 0 00.3-1.9z"/><path d="M109.3 285.9c-.5 1.4-1.7 0-2.1-.9-10.5 4.4 3.9-9.8 1.3-1.4-.7 1.5-.9 2.1.8 2.3zm-.5-3.9c-4.8-2-7 8.6-.2.6a1.4 1.4 0 00.2-.6z"/><path d="M114.9 285.7c-.5 1.4-1.7 0-2.1-.9-10.5 4.4 3.9-9.8 1.3-1.4-.7 1.5-.8 2.1.8 2.3zm-.6-3.9c-4.7-2-6.9 8.5 0 .6a.6.6 0 000-.6z"/><path d="M120.7 282.6c0 1-.9 1.7-1 2.6s-1.4-.2-.4-1.2c1.7-4.5-3.2 1.1-4.5 1.6s3.8-6.8 2.6-2.9c1.4-.9 3-1.9 3.3 0zM123.6 284.5c0 .6-.8.7-1 1s.2-1.4 1-1zM41 315.9c-15.4 5.8-1.5-13.8-1.1-4.1-.5 0-.4 0-.7-.4-.5-6.3-11.4 9 1.7 4.2v.3zM48.4 312.7c.2.9-1.8 3.5-1 4.3-2.6 1.2.7-3.6 0-4.5a7.5 7.5 0 00-5.4 4.2h-.8a54.3 54.3 0 004.6-8.1c1.1.7-.1 1.4-1.3 4.7 1.3-.4 3.8-2.6 3.9-.5zM50.5 312.9c-.2 0-.5 3.2-1.7 3a5.9 5.9 0 011.3-3.6c.2.2.4.4.4.6zm.9-3.3c-.7 1.3-1.3-.3-.8-1.1a4.4 4.4 0 01.8 1.1zM56.6 313.3c-3.9-2-2.4 2.4-4.9 3.2 0-.6 1.1-2.2 1.2-2.6s-.2-2.7.9-2.7c-.2 2 2.7.3 2.8 2.1zM63.9 313.5c0 2.5-6.7 3.4-6.9 1.1s6.6-4.5 6.9-1.1zm-.6 0c-.8-2.3-4.8-.4-5.5 1.2 1.2 1.4 5.2.6 5.5-1.2zM70.8 312.1c-.1 0-.4 3.2-1.6 2.9a5.6 5.6 0 011.3-3.5l.3.6zm1-3.3c-.7 1.3-1.3-.3-.8-1.1a4.4 4.4 0 01.8 1.1zM79 309.5c-.3 1.3-3.1 1-3.9 2.1 8.2.5-2.4 7.4-2.9 1.8a3.1 3.1 0 005.3-.2c0-1.1-3-.7-3.9-1.6 1.6-.9 3.5-2.1 5.4-2.1zM91.1 309c-.3 1.3-3.1 1-3.9 2.1 8.2.6-2.4 7.4-2.9 1.8a3.1 3.1 0 005.3-.2c0-1-3-.7-3.9-1.6 1.7-.9 3.5-2.1 5.4-2.1z"/><path d="M96.5 307.4c0 .8-.3.8-.9 1.7s1.1.6.9 1.1c-3-1.1-6.2 5.5-.8 4.1v.2c-4.6 1.5-5-1.6-1.9-4.3-.9-.3-2.3 1.2-2.6 0 1.7-1 4.1-.2 4.7-3.4.3 0 .7.4.6.6zM98.7 311c-.2 0-.5 3.2-1.7 3a5.9 5.9 0 011.3-3.6l.4.6zm1-3.3c-.7 1.3-1.4-.3-.8-1.1a4.4 4.4 0 01.8 1.1zM104.3 306.6l-3.1 6.4c-.5.9-.3 1.6-1.1 1.2.8-2.5 3-5.9 3.9-8.3a1.8 1.8 0 01.5.7zM114.3 313c-2.4 2-8.7.3-3.5-2.7s3 3.4-.7 1.6c-2.3 2.2 3.6 1.1 4.2 1.1zm-1.3-2.2c-.7-.6-1.2-.4-2.1.1a1.2 1.2 0 002.1-.1zM120.5 310.7a5.2 5.2 0 01-1 2.3.4.4 0 00.1.3c-.7 1.1-1.4-.3-.4-1.2 1.7-4.5-3.2 1.1-4.5 1.6s3.7-6.8 2.6-2.9c1.4-.9 3-1.9 3.2-.1zM129.9 305.6l-3.1 6.4c-.5.9-.3 1.6-1.1 1.2.8-2.4 2.9-5.9 3.8-8.3a.8.8 0 01.4.7zM137.2 308.1c.2 1.1-4.1 4.4-1 4.4l.2.2c-1 .5-2.3.3-2-1.2-6.3 4.3-5.2-.6-1.2-3.3.8.8-2.4 3.1-2.7 4.3 3.7.3 4.6-3.8 6.7-4.7zM139.3 309.4s-.5 3.2-1.7 3a6.3 6.3 0 011.3-3.5zm1-3.3c-.7 1.3-1.4-.2-.9-1.1zM146.9 305.3c-.2 1.3-1.7 4.5-2 5.7h.7c-.5 1.6-2.2 1.1-3.5 1.3-4.1 0 .8-5.3 2.8-3.2v-.3s1.3-5.2 2-3.5zm-2.6 5.1c-.2-2.8-5.7 1.7-1.6 1.4 1.1 0 1.6-.5 1.6-1.4zM149.2 311.9c0 1-.8 3-1.9 2.7s1.7-2.1.6-3.1 1.4-.9 1.3.4zM156.2 308.7c-.2 0-.4 3.3-1.7 3a6.3 6.3 0 011.3-3.5c.3.2.4.4.4.5zm1-3.2c-.7 1.3-1.4-.3-.9-1.2zM163.4 309a4.3 4.3 0 01-1 2.3l.2.3c.1 0-1.5-.2-.5-1.2 1.7-4.5-3.2 1.1-4.5 1.6s3.8-6.8 2.6-2.9c1.5-.8 3-1.9 3.4 0zM173.7 305.8c0 1.7-3.1 3-3.2 4.9s-2-2.3-2.1-3.4 1.1 2.2 1.4 2.8c.7-.9 2.6-3.3 3.6-4.3zM177.9 308.6c-3.9-2-2.4 2.4-5 3.2 0-.6 1.2-2.3 1.2-2.6s-.1-2.7.9-2.7c-.2 2 2.7.3 2.9 2.1zM183.7 310.3c-2.5 2-8.7.3-3.6-2.7s3.1 3.4-.6 1.6c-2.4 2.2 3.5 1.1 4.2 1.1zm-1.3-2.2c-.7-.7-1.3-.4-2.1.2a1.3 1.3 0 002.1-.2z"/><path d="M191.5 306c.2 1.1-4.2 4.5-.9 4.4-1 .5-2.3.4-2-1.1-6.3 4.3-5.2-.6-1.2-3.3.8.8-2.4 3.1-2.7 4.2 3.6.2 4.5-3.8 6.6-4.6z"/><path d="M196.8 307.2c-.5 3.1 0 8.4-4 8.3-.7 0-3.1-.4-2.5-1.5 2.7 2.6 6.2-.9 5.1-3.8-7.6 1.4-.9-7 1.3-2.9zm-.7 0c-.7-1.1-3.5.7-3.4 1.8s2.7 1 2.9 0l.5-1.9z"/><path d="M203.5 303.1c-.2 1.3-1.7 4.5-2 5.7h.6c-.5 1.6-2.2 1.1-3.4 1.2-4.1 0 .8-5.2 2.6-3.2v-.2s1.5-5.2 2.2-3.5zm-2.6 5.1c-.3-2.7-5.7 1.8-1.6 1.4 1.1-.1 1.6-.6 1.6-1.4zM208.6 309.3c-2.5 2-8.8.3-3.6-2.6s3.1 3.3-.6 1.5c-2.4 2.2 3.5 1.1 4.2 1.1zm-1.3-2.2c-.7-.6-1.3-.4-2.1.2a1.2 1.2 0 002.1-.2zM219.2 308.9c-2.4 2-8.7.3-3.5-2.7s3 3.4-.7 1.6c-2.3 2.3 3.6 1.1 4.2 1.1zm-1.3-2.2c-.7-.6-1.2-.4-2.1.2a1.3 1.3 0 002.1-.2zM225.4 306.6c0 1-.9 1.7-1 2.6s-1.4-.2-.4-1.2c1.8-4.6-3.3 1.2-4.5 1.6s3.7-6.8 2.6-2.9c1.4-.9 3-1.9 3.3 0zM235.6 303.4c0 1.7-3 2.9-3.2 4.9s-2-2.4-2-3.4 1.1 2.2 1.3 2.8a49.5 49.5 0 013.7-4.3zM240.4 308c-2.4 2-8.7.4-3.5-2.6s3 3.4-.7 1.6c-2.3 2.2 3.6 1.1 4.2 1zm-1.3-2.2c-.7-.6-1.2-.3-2.1.2a1.2 1.2 0 002.1-.2zM245.5 305.9c-3.9-2-2.4 2.5-4.9 3.2 0-.6 1.1-2.2 1.2-2.6s-.2-2.6.9-2.6c-.2 1.9 2.7.2 2.8 2zM248.9 308.1c-4.9 1.5-3-3.9.4-3.3zm-.2-2.7c-.7 0-2.4 1-2.3 1.7s3.7-.7 2.3-1.7zM39.4 330.8c-.6 1.4-1.8 0-2.2-.9-10.5 4.5 3.9-9.8 1.3-1.4-.6 1.5-.8 2.1.9 2.3zm-.6-3.9c-4.7-2-7 8.6 0 .6z"/><path d="M45 327.7c0 1-.9 1.7-1 2.6s-1.4-.3-.4-1.2c1.8-4.7-3.3 1.2-4.5 1.6s3.8-6.8 2.6-2.9c1.4-.9 3-1.9 3.3 0z"/><path d="M51.5 323.1c-.3 1.3-1.7 4.4-2 5.7h.6c-.5 1.6-2.2 1-3.4 1.2-4.1 0 .7-5.2 2.6-3.2v-.2s1.4-5.3 2.2-3.5zm-2.6 5c-.3-2.7-5.8 1.8-1.6 1.4 1.1 0 1.6-.5 1.6-1.4zM56.5 329.3c-2.4 2-8.7.3-3.5-2.6s3 3.3-.7 1.5c-2.3 2.2 3.6 1.1 4.2 1.1zm-1.2-2.2c-.8-.7-1.3-.4-2.1.2a1.3 1.3 0 002.1-.2zM61.6 327.2c-3.8-2-2.4 2.4-4.9 3.2 0-.6 1.2-2.3 1.2-2.7s-.1-2.6.9-2.6c-.2 2 2.7.3 2.8 2.1zM68.8 323.9c-.4 1.3-3.1 1-3.9 2.1 8.1.6-2.5 7.4-2.9 1.8a3 3 0 005.2-.1c0-1.1-2.9-.8-3.8-1.6a12.9 12.9 0 015.4-2.2zM79.5 328.5c-2.5 2-8.7.3-3.6-2.7s3.1 3.4-.6 1.6c-2.4 2.1 3.5 1.1 4.2 1.1zm-1.3-2.2c-.7-.6-1.2-.4-2.1.2a1.3 1.3 0 002.1-.2z"/><path d="M85.7 326.1c0 1-.9 1.7-1 2.6s-1.4-.2-.4-1.2c1.7-4.7-3.4 1.4-4.7 1.6s3.8-6.8 2.6-2.9c1.5-.9 3-1.9 3.3 0zM95.7 325.2c-.6 3.1 0 8.4-4 8.3-.7 0-3.1-.4-2.5-1.5 2.7 2.6 6.2-.9 5.1-3.9-7.6 1.5-.9-6.9 1.4-2.9zm-.8 0c-.6-1.1-3.4.7-3.3 1.8s2.6 1 2.9 0a10.1 10.1 0 00.4-1.8z"/><path d="M101.5 327.5c-2.5 2-8.7.3-3.6-2.6s3 3.4-.6 1.5c-2.4 2.3 3.5 1.2 4.2 1.1zm-1.3-2.2c-.8-.6-1.3-.3-2.1.2a1.2 1.2 0 002.1-.2zM106.1 320.6c-.5 1-2.8 5.5-3.1 6.4s-.4 1.6-1.1 1.2c.7-2.4 2.9-5.9 3.8-8.2a.6.6 0 01.5.6zM107.4 324.7c-.1 0-.4 3.2-1.7 3a6.4 6.4 0 011.4-3.5.5.5 0 01.3.5zm1-3.3c-.7 1.3-1.4-.2-.8-1.1zM111.4 324.9c-2.8 13.4-8.8 5.1-5.8 4 .7 6.9 4.9.4 5.5-4.5v.4zm1-3.4c0 .4-1 .2-1.4.1s1.3-1 1.4-.1zM119.3 322.3c0 1.5-3 2-4 2.8s2.7 3.9.8 4.5c0-.5-1.6-3.5-2.1-3.6s0 1.7-1.2 1.8a50.1 50.1 0 014.2-9.1c1.4.5-2 3.5-2 5.6a10.2 10.2 0 004.2-2.6v.6zM121.7 326.7c0 .6-.8.8-1.1 1s.3-1.4 1.1-1zM134.9 326.3c-15.8 5.7-1.1-13.8-1.1-4.1-.5 0-.4 0-.7-.4-.6-6.3-11.5 9 1.6 4.2zM142.3 323.2c0 .9-1.8 3.5-1 4.3-2.8 1.2.7-3.6 0-4.4a7.4 7.4 0 00-5.5 4.2l-.7-.2a79 79 0 004.6-8c1.1.6-.2 1.4-1.4 4.6 1.4-.4 3.8-2.6 4-.5zM144.3 323.2c-.1 0-.5 3.2-1.7 3a6.3 6.3 0 011.3-3.5 1 1 0 01.4.5zm1-3.2c-.7 1.2-1.4-.3-.9-1.1a3.1 3.1 0 01.9 1.1zM150.5 323.7c-3.9-2-2.4 2.5-4.9 3.2 0-.6 1.1-2.2 1.2-2.6s-.2-2.7.8-2.7c-.1 2 2.8.3 2.9 2.1zM157.8 323.9c0 2.5-6.7 3.4-6.9 1.1s6.6-4.6 6.9-1.1zm-.6 0c-.8-2.3-4.8-.4-5.6 1.2 1.3 1.4 5.3.6 5.6-1.2zM164.8 322.5c-.2 0-.5 3.2-1.7 2.9a5.6 5.6 0 011.3-3.5c.2.3.4.4.4.6zm.9-3.3c-.7 1.3-1.3-.3-.8-1.1a4.4 4.4 0 01.8 1.1zM172.9 319.9c-.3 1.3-3.1 1-3.9 2.1 8.1.6-2.5 7.4-2.9 1.8a3 3 0 005.2-.2c0-1-2.9-.7-3.8-1.6 1.6-.9 3.5-2.1 5.4-2.1zM183.3 319.5c0 1.7-3 3-3.2 4.9s-2-2.4-2-3.4 1.1 2.2 1.3 2.8a49.5 49.5 0 013.7-4.3zM187.5 322.3c-3.9-2.1-2.4 2.4-4.9 3.1a12.3 12.3 0 011.2-2.6c0-.4-.2-2.6.9-2.5-.2 2 2.6.3 2.8 2zM189.6 321.5c-.2 0-.5 3.2-1.7 3a6.3 6.3 0 011.3-3.5c.2.2.4.3.4.5zm1-3.3c-.8 1.3-1.4-.2-.9-1.1zM196.4 323.8c-.9.8-5.5 1.7-5.6-.2 1.7-6.4 9.8-.2 1.4-.9-2.4 2.3 3.5 1.2 4.2 1.1zm-1.3-2.2c-.8-.6-1.3-.3-2.1.2a1.2 1.2 0 002.1-.2zM202.5 321.5c.1 1-.9 1.8-1 2.7s-1.4-.3-.4-1.2c1.7-4.5-3.2 1.1-4.5 1.6s3.7-6.9 2.6-2.9c1.4-.9 3-1.9 3.3 0z"/><path d="M209 316.9c.1.7-3.4 7.5-1.4 5.9-8.4 4.3-4.5-4.3-.7-2v-.2s1.4-5.3 2.1-3.7zm-2.7 5.1c-.2-2.7-5.7 1.8-1.6 1.4 1.2 0 1.7-.5 1.6-1.4zM215.4 318.2c-.3 1.3-3.1 1-3.9 2.1 8.2.6-2.4 7.4-2.9 1.8a3.1 3.1 0 005.3-.2c0-1-3-.7-3.9-1.5 1.6-.9 3.5-2.3 5.4-2.2z"/><path d="M222.9 322.8c-6.8 4.1-10.7-2.2-1.9-4.4 2 1.1-2.3 4.1-.4 1-7.7 1.6-3.3 6.2 2.3 3.4zM230.3 319.6c0 1-1.8 3.5-1 4.4-2.6 1.2.7-3.6 0-4.5a7.4 7.4 0 00-5.5 4.2h-.8a65.6 65.6 0 004.7-8.1c1.1.6-.2 1.4-1.4 4.7 1.4-.6 3.8-2.7 4-.7z"/><path d="M236.4 323.2c-.5 1.4-1.7 0-2.1-.9-10.5 4.4 3.9-9.8 1.3-1.4-.7 1.4-.9 2 .8 2.3zm-.6-3.9c-4.7-2-6.9 8.6 0 .6a.9.9 0 000-.7z"/><path d="M242.3 319.2c.2 2.6-4.8 3.1-6.2 4.8s-.7 2.4-1.6 2.6c-.8-1.6 3.7-4.8 3.6-6.8l-.6.4c-1-1.4 5-3.2 4.8-.9zm-.7 0c-1.3-1.9-3.9 1.9-4.1 3.2a6.3 6.3 0 004.1-3.2zM253 321.6c-2.4 2-8.7.3-3.5-2.6s3 3.3-.7 1.5c-2.3 2.3 3.6 1.2 4.2 1.1zm-1.3-2.2c-.7-.6-1.2-.3-2.1.2a1.2 1.2 0 002.1-.2zM259.2 319.3c0 1-.9 1.8-1 2.7s-1.4-.3-.4-1.2c1.8-4.7-3.3 1.1-4.5 1.6s3.7-6.9 2.6-2.9c1.4-.9 3-1.9 3.3 0zM39.4 339.2c0 1.7-3.1 2.9-3.2 4.8-1.6 3.3-2.1-2.3-2.1-3.4s1.1 2.3 1.3 2.9a49.5 49.5 0 013.7-4.3zM44 343.8c-2.4 2-8.7.3-3.5-2.6s3 3.3-.6 1.5c-2.4 2.3 3.5 1.2 4.1 1.1zm-1.3-2.2c-.7-.6-1.2-.3-2.1.2a1.2 1.2 0 002.1-.2zM49.1 341.6c-3.9-2-2.4 2.4-4.9 3.2 0-.6 1.1-2.2 1.2-2.6s-.2-2.7.9-2.5c-.2 1.9 2.7.3 2.8 1.9z"/><path d="M54.5 337.1c0 .8-.3.8-.9 1.7s1.1.5 1 1.1c-3.1-1.1-6.2 5.5-.9 4.1v.2c-4.6 1.5-5-1.6-1.9-4.3-.8-.3-2.3 1.2-2.6 0 1.7-1.1 4-.2 4.7-3.4.2 0 .5.4.5.5zM59.8 341.3c-3.9-2-2.4 2.4-5 3.2 0-.6 1.2-2.2 1.2-2.7s-.1-2.6.9-2.5c-.1 2 2.7.3 2.9 2.1zM67.1 341.6c0 2.4-6.7 3.3-6.9 1.1s6.6-4.6 6.9-1.1zm-.6 0c-.8-2.3-4.8-.4-5.6 1.2 1.3 1.4 5.3.6 5.6-1.2z"/><path d="M75.1 338.7c.1 1-4.2 4.4-1.1 4.3l.2.2c-1.1.5-2.4.3-2.1-1.2-6.3 4.3-5.2-.6-1.2-3.3.8.8-2.4 3.1-2.7 4.3 3.6.2 4.5-3.8 6.6-4.7zM85 340.5c0 2.2-4 3.8-5.6 2.2v-.3c-.3-.3-1.9.9-2.6.9-3 .6.7-4.3 1.3-3.8s-1.4 2.3-1.8 3.1c1.8.7 2.9-.7 3.7-2.3h.2c-.8 5.1 7 .8 3.5-1.6v-.2c.9.1 1.3 1.2 1.3 2z"/><path d="M90.7 342c-2.4 2-8.7.3-3.5-2.6s3 3.3-.7 1.5c-2.3 2.2 3.6 1.2 4.2 1.1zm-1.2-2.2c-.8-.6-1.3-.3-2.1.2a1.3 1.3 0 002.1-.2zM96.9 339.7a4.3 4.3 0 01-1 2.3c.6.9-1.4.2-.3-.9 1.8-4.6-3.3 1.2-4.5 1.7s3.8-7 2.6-3.1c1.4-.9 3-1.9 3.2 0zM100 341.6c0 .6-.8.7-1.1 1s.3-1.4 1.1-1zM113.2 341.2c-15.5 5.8-1.5-13.8-1.1-4.1-.5 0-.4 0-.7-.4-.6-6.3-11.5 9 1.6 4.2zM120.7 338c.1.9-1.8 3.4-1 4.3-2.7 1.2.7-3.6 0-4.5a7.3 7.3 0 00-5.5 4.3l-.8-.2a63.2 63.2 0 004.7-7.9c1.1.6-.2 1.4-1.4 4.6 1.4-.4 3.8-2.6 3.9-.5zM122.6 338.1c-.1 0-.4 3.3-1.6 3a5.6 5.6 0 011.3-3.5.5.5 0 01.3.5zm1-3.2c-.7 1.3-1.4-.3-.8-1.1a4.4 4.4 0 01.8 1.1zM128.8 338.6c-3.9-2-2.4 2.5-4.9 3.2 0-.6 1.1-2.2 1.2-2.6s-.2-2.7.8-2.5c-.1 1.9 2.7.2 2.9 2zM136.1 338.8c0 2.5-6.7 3.4-6.9 1.1s6.6-4.6 6.9-1.1zm-.6 0c-.8-2.3-4.8-.4-5.6 1.2 1.3 1.3 5.3.5 5.6-1.2zM147.3 336c0 .5-1.3 1.7-4 3.8 1.2.5 3.3-.7 4.1.4a18.6 18.6 0 00-5.2 1.1.2.2 0 00-.2-.2c-.3 0-.2.2-.4.2-.5-1.8 4.1-3.3 4.4-4.8s-4 .5-2.7-1c1.1.7 3.3-.3 4 .5zM149.6 337.1c-.2 0-.5 3.2-1.7 3a5.6 5.6 0 011.3-3.5l.4.5zm.9-3.2c-.7 1.2-1.3-.3-.8-1.2a7.5 7.5 0 01.7 1.2zM155.8 333.2c0 .7-.3.7-.9 1.7s1.1.5 1 1.1c-3.1-1.1-6.3 5.5-.9 4.1-4.6 1.6-5-1.6-1.9-4.2-.8-.3-2.3 1.1-2.6 0 1.7-1.1 4.1-.2 4.7-3.5.3 0 .5.6.6.8zM166.3 334.2c0 1.7-3 3-3.2 4.9s-2-2.4-2-3.4 1.1 2.2 1.3 2.8 2.6-3.3 3.7-4.3zM171.5 339.7c-.5 1.4-1.7-.1-2.1-.9-10.5 4.4 3.9-9.8 1.3-1.4-.7 1.6-.9 2.1.8 2.3zm-.5-3.9c-4.8-2-7 8.6-.2.6l.2-.6z"/><path d="M177.2 336.6c0 1-.9 1.7-1 2.6s-1.5-.2-.5-1.2c1.8-4.6-3.2 1.2-4.5 1.6s3.8-6.8 2.6-2.9c1.5-.9 3-1.9 3.3 0zM183.9 330.1c-.2 1.6-2.6 3.3-2.9 5 6 .2-.6 6.2-3.7 4.1.3-1.5 2.6-3.5 3.3-4.7s1.3-3.9 3.3-4.4zm-.9 6.3c-4.9-3.5-6.2 7.8 0 0zM185.6 335.7c-.1 0-.4 3.2-1.6 3a5.6 5.6 0 011.3-3.5.5.5 0 01.3.5zm1-3.3c-.7 1.3-1.3-.2-.8-1.1a4.4 4.4 0 01.8 1.1zM192.9 336a5.2 5.2 0 01-1 2.3.4.4 0 00.1.3c-.7 1.1-1.4-.3-.4-1.2 1.8-4.7-3.3 1.2-4.5 1.6s3.7-6.8 2.6-2.9c1.4-.9 3-1.9 3.3 0zM198.9 335.7c.1 1-.8 1.8-.9 2.7s-1.5-.3-.5-1.2c1.8-4.7-3.2 1.1-4.5 1.6s3.8-6.9 2.6-2.9c1.5-.9 3-1.9 3.3 0z"/><path d="M204.7 337.6c-2.5 2-8.8.3-3.6-2.7s3 3.4-.6 1.6c-2.5 2.2 3.4 1.1 4.2 1.1zm-1.3-2.2c-.8-.7-1.3-.4-2.1.1a1.2 1.2 0 002.1-.1z"/><path d="M210.7 335.3c0 1-.9 1.7-1 2.6s-1.4-.3-.4-1.2c1.8-4.7-3.3 1.2-4.5 1.6s3.8-7 2.6-3c1.4-.9 3-1.9 3.3 0zM213.6 336.9c.3.8-1.2 1.4-1.3.3s.9-.5 1.3-.3zm2.4-7.3c-1.6 1.6-.2 5-2.3 5.2.2-1.2.5-6 2.3-5.4z"/><path fill="#f44040" d="M125.5 19.5c.6-8.6 5.9-12.5 14.4-11.2 2.3-9.1 13.6-10 18-2 3.5 6.2-.7 16.3-8.8 14.5-.2 17.1-23.7 14-23.6-1.3z"/><path d="M133.2 20.3a46.7 46.7 0 002.7 9l-6.5-1.5c7.4 9 17.8 5.8 19.9-5.9l5.5-1.7 3.5-3.9c-6.6 5.3-15.4-4.8-16.4 0 1 2.5 2.3 1.5-1.3 4.6s-7.5-.6-7.5-.6zM265.9 11.4c1.5 21-10.8 28 15.3 20.4l-.2-3.2c-4.1 1.2-8.3 3-11.8.6-.9-5.9-1.6-12-3.3-17.8z" class="a77bcce0-185f-4291-a226-128916445525"/><path d="M18.6 359.1C17.1 311.7 6.4 23.1 6.7 22.6c7.9-3.8 91.3-4.7 119.1-6.6" class="f908cfd1-8548-49db-a742-cdb27051c2e3"/><path d="M288.4 318.3c.5 18.7.8 30.4.7 30.7-15.7 5.3-201.1 6.7-270.8 10.1" class="f908cfd1-8548-49db-a742-cdb27051c2e3"/><path d="M159.3 14.3c15.2-.5 112.8-5.2 105.8-4.8.6.7 15.8 17.3 15.8 19l7.6 291M265.5 9.5c5.7 17.4-2.1 24.8 15.4 19" class="f908cfd1-8548-49db-a742-cdb27051c2e3"/><path d="M149.1 20.6c1.1 11.7-14.4 16.3-21 6.4s1-22.1 11.8-18.4" class="b166557e-2392-4eb0-9fe0-342e14774731"/><path d="M155.7 19.2c-9.6 7.2-21.9-9.7-12.1-16.6s21.9 9.7 12.1 16.6zM148.9 21c-11.1 10.5-23.6-2.6-8.8-11.8" class="b166557e-2392-4eb0-9fe0-342e14774731"/><path d="M142.7 7.3a13.7 13.7 0 009.8 10.9c-5.8.4-10.9-5.2-9.8-10.9zM128.4 14.5c-2.5 9.5 7.9 19.2 16.6 12.8-8.2 8.8-21.5-2.9-16.6-12.8z"/><path d="M126.9 25.5c-3.2 2.1.5 7 3.5 4.5" class="b166557e-2392-4eb0-9fe0-342e14774731"/><path d="M155.4 258.3l2.6-2.1L14.4 72.7c-18.6 127.4-44.8 175 141 185.6z" class="acec9430-1437-45aa-beb4-c0cf084d0b7e"/><path fill="#ede2a2" d="M4.9 180.8c-.2-14.7 6.4-92.6 9-108.6 53.7 5.1 118.8 11.1 172.4 16-6.7 18.4-5 48-6.9 66.1-1.9 33.3-6.1 71.7-10.5 104.8-70.2-6.8-127.9-6.2-164-78.3z"/><path fill="url(#a7499f20-6c52-4d6b-a226-d6eb85ab867f)" d="M4.9 180.7c-.1-14.7 6.4-92.5 9-108.5 53.7 5.1 118.8 11.1 172.4 16-6.7 18.4-5 48-6.9 66.1-1.9 33.3-6.1 71.7-10.5 104.8-60-5.1-132.7-3.8-164-78.4z"/><path d="M44.4 200.8l3.1-1.8c0 .1-2.5 3.5-2.4 3.6s6.4-3.9 6.4-3.8-7.6 6.2-7.5 6.5 6.9-4.4 7.1-4.1M48.5 181.4l1.9-1M38.3 186.6c.2.2 8.3-5.1 8.4-4.9s-4.6 4.5-4.5 4.7c1.8-.5 6.1-5.3 3.3 0 .1.2 9-5.5 9.1-5.3s-10.8 8.1-10.5 8.4 9.2-5.6 9.3-5.3-7.8 6.3-7.8 6.5 7.6-4.7 7.8-4.5-7.7 6.3-7.6 6.5 7.9-4.9 8.1-4.7-7.4 6-7.3 6.2 6.3-3.9 6.4-3.7a42.4 42.4 0 01-3.1 4s4-2.5 4.1-2.4" class="fcdc6566-4763-44d7-8604-fc69ad330ae7"/><path d="M31 181.5c5.9-3.9-3 3.4-3.1 4.1s10.5-6.5 10.8-6.2-13.1 9-12.8 9.4 16.2-10 16.5-9.5-18.8 12.5-18.5 12.9 19.3-11.9 19.6-11.4-18.8 12.2-18.4 12.8 19.2-11.8 19.5-11.3-20.3 13.4-20 13.9 10.5-6.4 10.5-6.1-10.7 8.1-10.5 8.4 10-6.2 10.2-5.9-9.4 7.1-9.2 7.4 8.9-5.5 9.1-5.3-9 7.2-8.9 7.6 6.9-4.2 7-4-7.2 6.2-7.1 6.4 7.1-4.3 7.2-4.2-6.7 5.8-6.7 6 5.7-3.5 5.8-3.3-4.8 4.7-4.8 4.9 5.4-3.3 5.5-3.2-3.6 4-3.5 4.1 5.2-3.3 5.4-3.1-6.4 5.5-6.3 5.7 8.1-4.9 8.2-4.7-3.6 3.9-3.5 4 7.4-4.6 7.5-4.4-7.8 6.3-7.8 6.6 18.9-11.7 19.3-11.2-16.9 11.4-16.6 11.9 15.2-9.3 15.4-8.9-12.8 8.9-12.6 9.3 15.3-9.2 15.5-8.8-11.7 8.7-11.7 8.9 8.3-4.9 8.4-4.8M53.6 209.9c4.5-3.2-1.8 2.6-1.9 3.2s16.2-9.8 16.3-9.5-15.3 10.5-15.1 10.8 11.7-7.1 11.8-6.8-7.8 6.2-7.8 6.5 8.5-5.3 8.6-5.1-6.8 6-6.7 6.2 9.2-5.6 9.3-5.2-5.3 5.2-5.3 5.2 6.6-4 6.7-3.8-7.3 6.8-2.4 3.4M69.6 197.8c0 .3 9.3-5.7 9.5-5.5s-6.5 5.5-6.4 5.7 6.4-3.9 6.5-3.7-4.1 4.2-4 4.3 7-4.1 7.1-4.1-9.8 7.5-9.6 7.8 8.4-5.2 8.5-4.9-7.3 5.9-7.2 6.1 7.6-4.6 7.7-4.4-7.8 6.3-7.6 6.5 8.3-5.1 8.4-4.9-8.8 6.9-8.7 7 7.5-4.6 7.5-4.4-10.1 7.7-9.9 7.9 10.6-6.4 10.7-6.2-11.9 8.5-11.7 8.8 11.8-7.2 11.9-6.9-12 8.6-11.8 9 10.8-6.5 10.8-6.3-9.9 7.7-9.7 7.9 11.1-6.6 11.2-6.5-7.5 6.2-7.3 6.4 9.9-6.1 10-5.8-5 4.9-4.9 5 4.7-2.9 4.8-2.8-4.7 4.6-4.7 4.7 3.3-2 3.4-1.9" class="fcdc6566-4763-44d7-8604-fc69ad330ae7"/><path d="M56.7 182.9l2.1-1.2-1.7 3.3c-.5 1.1 4-2.6 4.1-2.4S57 186.9 57 187s7.9-4.8 8-4.6-6.3 5.6-6.2 5.8 8.3-5.1 8.5-4.9-6.5 5.6-6.3 5.9 6-3.7 6.1-3.6-6.7 5.9-6.6 6.1 7.9-4.9 8.1-4.7-8.5 6.9-8.2 7.1 8.4-5.2 8.5-4.9-8.1 6.4-7.8 6.6 7.8-4.8 8-4.6-8.7 7-8.7 7.2 11.8-7.3 12-6.9-13.1 9.5-13.1 9.8 16.5-10 16.8-9.5S58.7 203.6 59 204s7.3-4.5 7.4-4.3-7.8 6.4-7.7 6.6 6.4-4 6.5-4-6.2 5.5-6.1 5.7 6.5-4 6.5-3.8M86.3 213.4c4.5-3.1-1.8 2.7-1.9 3.2s16.1-9.7 16.3-9.4-15.3 10.5-15.1 10.9 11.7-7.2 11.8-6.9-8 6.2-7.8 6.5 8.5-5.3 8.7-5.1-7 6.1-6.9 6.3 9.4-5.7 9.5-5.5-5.2 5.3-5.2 5.3 7.8-4.8 7.8-4.6-5.4 5-5.2 5.3 3.4-2.1 3.5-2.1" class="fcdc6566-4763-44d7-8604-fc69ad330ae7"/><path d="M87.7 195.3l3-1.7-3.1 3.7 4.5-2.6c.1 0-2.6 3.4-2.5 3.5s7.3-4.4 7.4-4.3-7.1 6.1-7 6.3 9-5.4 9.1-5.2-6.9 5.7-6.8 5.9 7.9-4.7 7.9-4.6-7.9 6.4-7.9 6.6 8.3-5.1 8.4-4.8-8.8 6.7-8.7 6.9 7.7-4.5 7.7-4.3-6.9 5.9-6.8 6.1 7.6-4.5 7.7-4.5-8.6 6.7-8.5 6.9 8.6-5.2 8.7-5-10 7.5-9.8 7.9 8.6-5.2 8.7-5.1M94.5 184.5c1.5-1.3-1 2.7-.8 2.8s4.9-3 4.9-2.8-5.5 5-5.4 5.2 7.6-4.7 7.8-4.5-7.8 6.5-7.8 6.8 7.4-4.6 7.5-4.4-4.1 4.2-4 4.2 3.1-2 3.2-1.8M103.4 215.8l2.3-1.4c-6.5 9 11.5-5.8 12.4-4.9s-13.9 9.7-13.7 10 11.4-7 11.6-6.7-8.9 6.9-8.8 7.1 8.9-5.5 9-5.3-7.5 6.2-7.4 6.5 7.5-4.7 7.7-4.4-3.2 3.8-3.1 3.8l8.8-5.2c.1 0-6.3 5.5-6.2 5.7s6.9-4.2 7-4.1-6.5 5.5-6.4 5.6 5.6-3.3 5.7-3.2M122.6 201.8c0 .1 4.1-2.6 4.2-2.5s-5.6 5.3-5.5 5.3l9.9-5.7c0 .2-9.3 7.2-9.2 7.4s6.6-4 6.7-4c-4 4.8-3.8 4.1 1.1 1.3l-3.5 4c.1.1 3.7-2.2 3.8-2.2M117.3 199.2l4.3-2.6c.1 0-5.6 4.9-5.5 5.2s7.6-4.6 7.7-4.4" class="fcdc6566-4763-44d7-8604-fc69ad330ae7"/><path d="M106.3 196.7l2-1.1-1.7 3.3c.1.1 3.8-2.3 3.9-2.2s-4.1 4.2-4 4.3 8.2-5 8.3-4.8-6.6 5.7-6.5 5.9 7.3-4.4 7.4-4.2-5.3 4.9-5.3 5.2 4.5-2.6 4.5-2.6c-7.2 7.3-5.5 5.8 1.5 1.5.1.1-6.7 6-6.6 6.2s18.3-11.3 18.6-10.8-18.4 12-18 12.5 8.9-5.5 9-5.2-9.7 7.6-9.5 7.9 6.8-4.2 6.9-4M141.9 205.3c0 .2 8.1-5 8.2-4.8s-5.3 4.8-5 4.9 5.2-3.2 5.2-3-2.6 3.4-2.5 3.5 5.9-3.6 6-3.6-8 6.6-7.9 6.9 7.4-4.5 7.5-4.3-5.8 5.1-5.7 5.2 6.7-4 6.8-3.9-6.7 5.8-6.6 5.9 7.9-4.8 8-4.6-8.5 6.6-8.4 6.8 7.7-4.7 7.9-4.5-8.2 6.6-8.1 6.8 9-5.5 9.1-5.3" class="fcdc6566-4763-44d7-8604-fc69ad330ae7"/><path d="M135.1 201.1c4.9-3.4-2.6 3.2-2.6 3.8s9.7-6 9.9-5.7-11.8 8.4-11.6 8.7 15.1-9.3 15.4-8.9-17.4 11.7-17.1 12.1 18.3-11.2 18.5-10.7-17.3 11.4-17 11.9 7-4.2 7.1-4.1-7.3 6.3-7.2 6.5 7.9-4.8 7.9-4.6-7.4 6.5-7.2 6.7 7.7-4.7 7.9-4.5-6.6 5.5-6.5 5.8 6.5-4.1 6.7-3.9-6 5.6-5.9 5.7 4.7-2.9 4.8-2.7c-5.6 6.5-5.2 5.1 1.4 1.5.1.1-4 4.5-3.9 4.6s5.4-3.3 5.5-3.2-3.6 4-3.5 4.2 15.7-9.7 16-9.3-13.1 9.1-12.8 9.5 12.9-7.9 13.1-7.6-12.6 8.7-12.3 9.1 11.3-6.9 11.4-6.6M29.8 152.1l4.3-2.6-3.7 4.1c.1.1 5-3.1 5.3-2.9s-5.7 5.1-5.6 5.3 7.9-4.9 7.9-4.6-9 6.8-8.8 7.1 30.1-18.2 30.5-17.6-31.9 19.4-31.3 20.3 31.1-19.1 31.6-18.4-28.2 17.8-27.8 18.4 25.2-15.4 25.6-14.8-26.3 16.5-25.9 17.1 26-15.8 26.3-15.2-22.6 14.3-22.3 14.9 24.5-14.8 24.7-14.2-22.9 14.5-22.5 15.2 20-12.2 20.3-11.8-15.5 10.8-15.3 11.2 17.8-11 18.1-10.6-15.8 10.9-15.5 11.3 19-11.5 19.2-11.1-15.7 10.5-15.4 11 16.7-10.1 16.9-9.7-12.8 9.1-12.6 9.5 15.1-9.3 15.3-8.9-11.6 8.8-11.4 9.1 12-7.4 12.2-7.1-11.3 8.3-11.1 8.6 10.4-6.3 10.5-6.1-7.1 5.9-7 6.1 8.8-5.2 8.9-5.1-7.9 6.4-7.8 6.6 5.7-3.4 5.8-3.3M66.1 114.1c.2.3 8.8-5.5 8.9-5.3s-8 6.3-7.8 6.6 8-4.9 8.1-4.7-5.1 4.8-5 4.9 2.8-1.8 2.9-1.7" class="fcdc6566-4763-44d7-8604-fc69ad330ae7"/><path d="M35.3 101.7l4.9-2.9c0 .1-5.3 5.1-5.1 5.3s7.9-4.9 8.1-4.7-10 7.4-9.9 7.7 13.1-7.9 13.1-7.7-11.2 8.5-11.1 8.8 12.1-7.5 12.3-7.1-13.1 9-12.8 9.4 17.1-10.5 17.3-10-14.6 10.2-14.4 10.5 17-10.5 17.2-9.9-16.4 11.2-16.2 11.7 19.6-11.9 19.8-11.5-14.8 10.5-14.6 10.8 15.7-9.7 16.1-9.3-15.8 10.5-15.5 10.9 18.4-11.1 18.6-10.7-17.3 11.6-17 12.1 20.4-12.8 20.8-12.1-23.4 15-23.1 15.8 28-17.2 28.4-16.5-29.2 18.3-28.8 18.9 29.7-18 30.1-17.4-29.4 18.4-28.9 19.1 30.8-18.8 31.2-18.1-30.6 19-30.2 19.7 28.8-17.7 29.3-16.9-30.1 18.3-29.6 19.3 18.5-11.3 18.7-10.8-19.9 13-19.7 13.5S63 118.4 63 118.7s-20.8 13.6-20.5 14.1 18.8-11.4 19-11-19.3 12.5-19 13.1 18.8-11.6 19.1-11-18.3 12.2-18.3 12.6 18.3-11.4 18.8-10.9-21 13.5-20.9 14 19.7-11.9 20-11.5-18.5 12.5-18.4 12.9 19.2-11.8 19.5-11.3-21 13.7-20.7 14.3 18.1-11 18.4-10.5-18.4 12.2-18 12.6 17.4-10.5 17.6-10.2-18.4 12-18.1 12.6 18.9-11.6 19-11.1" class="fcdc6566-4763-44d7-8604-fc69ad330ae7"/><path d="M131 115.2c0 .2 4.9-3 5-2.9M95.7 111.9s7.7-4.6 7.8-4.4-11.7 8.6-11.4 8.9 16.3-10.1 16.6-9.6-20.5 13.1-20.2 13.6 23.8-14.4 24-13.9-24.1 15.5-23.7 16.1 24.3-15.1 24.7-14.3-27.4 16.7-26.9 17.6 30.5-18.4 30.8-17.8-30.3 18.8-29.9 19.5 31.1-19.1 31.5-18.4-34.4 21.1-33.9 21.9 35.3-21.4 35.8-20.7-35.3 21.6-34.8 22.5 33.7-20.5 34.2-19.7-35.3 21-34.7 22 35.1-21.2 35.6-20.4-34.7 21-34.1 21.9 35-21.7 35.7-20.6-38 22.8-37.3 23.9 40.1-24.6 40.7-23.6-41 24.7-40.5 25.6 40.2-24.4 40.7-23.7-39.2 23.9-38.7 24.8 56.5-34.5 57.3-33.2-56.2 33-55.4 34.2 55.9-34.1 56.8-32.6-57.1 33-56.1 34.7 59.5-36.1 60.3-34.9-61 35.5-60.2 36.8 61.1-36.9 61.8-35.6-63.3 36.8-62.5 38.3 62.3-37.8 63.1-36.5-63 36-61.9 37.8 62.8-38.6 63.9-36.8-62.6 36.4-61.9 37.7 62.8-38.7 63.9-36.8-65.6 37.7-64.7 39.4 64.4-39.3 65.3-37.9-62.9 36.8-62.1 38.3 63.9-39.2 64.9-37.5-65.7 37.7-64.7 39.6 62.8-38.1 63.6-36.8-62.6 36.6-61.8 38 61.9-37.5 62.6-36.2-62.6 36-61.6 37.7 62.4-38.2 63.3-36.6-61.9 35.4-60.9 37.1 58.8-36.3 59.8-34.6-60.6 34.9-59.6 36.6 60.6-37.2 61.5-35.6-60.6 35.2-59.6 36.8 60.8-37 61.6-35.6-61 35.2-60.1 36.8 58.7-35.9 59.5-34.3-60.9 35.4-60.2 36.8 57.7-35.2 58.5-33.8-55.8 32.3-55 33.8 57.3-35.3 58.2-33.7-58.2 33.9-57.3 35.4 55.7-34 56.4-32.7-54.2 31.7-53.4 33.2 53.1-32.3 53.8-31.1-55 31.9-54.2 33.3 51.6-31.7 52.5-30.3-50.3 29.3-49.6 30.7 47.8-29.2 48.5-28.1-50.4 29.3-49.5 30.8 49.2-29.7 49.8-28.7-46.9 27.5-46.2 28.9 42.9-26.5 43.6-25.3-43.7 25.6-43 26.8 39.2-23.9 39.7-22.9-36.4 22.1-35.9 23 31.9-19.5 32.4-18.7-28.6 17.6-28.1 18.4 22.3-13.4 22.5-13.1" class="e0cb42d7-cb18-4054-a203-a4e05c1c631d"/><path fill="#c4ae70" d="M5.3 181.3c7.1 24.2 39.1 5.5 38.6 22.1 1.5 10.6 1.1 23.1 8.1 31.9h-1.4a124.6 124.6 0 01-45.3-54z"/><path d="M14 72.1l172.8 16.2c-9.5 25.2-5.5 82.8-12 122.6-3.6 27.4-5.7 48.2-5.7 48.2-66.5-5.9-132.1-3.5-164.4-80-.2-9.5 8.2-106.8 9.3-107z" class="f908cfd1-8548-49db-a742-cdb27051c2e3"/><path d="M4.7 179.1c6.2 22.1 26.3 14 37.8 18.1 2.3 5.6 2.7 38.7 14 41" class="f908cfd1-8548-49db-a742-cdb27051c2e3"/></svg>