<svg xmlns="http://www.w3.org/2000/svg" fill="none" viewBox="0 0 52 48"><g><path fill="#E41535" d="M51.33 40.68l.2-.08-.57-.2.37.28zM50.07 39.32c-.1.04-.27.02-.38.06l1.62.8c.92-.33-1.86-.64-1.24-.86M50.24 39.1c.39-.3-.38-.44-.64-.51.6.11-.19.56.64.5zm0-26.74c0 .03.03.07.05.1.02-.06 0-.08-.05-.1zm-1.93 7.44l.02-.05c-.05-.06-.05-.06-.02 0"/><path fill="#E41535" d="M50.39 30.16c.52-3.8-.28-7.71-.17-11.62-1.71-1.89.4-4.03-.16-6.23.07-.06.13 0 .18 0a3.67 3.67 0 01-.38-2.62l-.73-.74c.37-1.3.63-2.56.73-3.82v-.41l-1.67-1.9h-.05l-.47-.07-.94-.11-1.83-.16c-2.45-.15-4.9-.17-7.3-.66-5.53-.78-10.27-2.4-15.8-.31 0-.18-.05-.28.1-.35-1.56.31-2.97-.47-4.48-.16l.05-.16c-2.2.79-4.44.42-6.68.32.26-.16.73-.16.94-.42-.63-.21-1.36.57-1.93 0-.1-.1-.1-.16-.1-.21 0-.05.05-.1.15-.16.1-.05.16-.1.16-.16V0c-.26-.08-.47.21-.73.21-.31-.13-.78.2-.78-.25-1 .2-2.04-.15-2.82.74-.63-.1-.83.71-1.15 1-.26.34-.36.73-.36 1.1-.05.69.15 1.42.26 2.08 0 .1.1.1.1.15-.05 1.1-.07 2.15-.1 3.25 0 1.84.05 3.72.1 5.56.02-.21.07-.42-.08-.53-.18.84-.68 1.42-1.04 2.15-.42.05-.42.52-.81.52.05.42-.19.95.15 1.37.16.15.26.42.5.42h.12c.16.05.32.1.42.1.21 0 .37-.16.55-.26-.13 3.2-1.35 6.18-1.04 9.38-.68 2.67.33 5.55.63 8.33l-.16 3.35-.1.42c-.84 1.1-.47 2.51-.06 3.93v.94l.04.05-.01.42h.4c.1.13.17.19.02 0l2.24.01c.05.06 7.4 1.36 11.06.1l17.37.14c.99.53 2.03 1.1 3.08.95l-.06-.47c.53.89 1.05-.16 1.52-.48h.36c.1.1.21.27.26.58l-.05.1c.2.53.47-.1.68-.68h2.38c.13.1.21.37.23 1-.26 0 .4.89-.2 1.36.17.21.98.1.92-.89.05-.58.15-1.05.15-1.57h3.7l.42-27.98c.16.93.32 1.86.42 2.82-.05-.06-.23-.06-.31-.1.2.15.6.36.55.57-.16.05-.28-.05-.34-.1-1.03.67.6 2.09-.2 2.56.11.2.53.3.84.18.21 2.73.37 5.6 1.12 8.39-.14.12-.41.15-.76.1 1.56 2.39.88 4.85.57 7.26.42.1.46-.23.89 0 .55-.76-1.02-1.43-.24-2.13l.42.1c.26-.5-1.04-.1-.5-.62.33-.2.52.05.54-.05-.15-1.08.26-2.2-.73-3.25.89-.2.05-1.15.94-1.52-.31-.31-.26-.58-.83-.68l-.11.03zM6.19 1.53l-.08-.06.03-.03.06.09zm1.43-.4l-.16.04.07-.05h.09zM8.88.87h.1l-.2.03.1-.03zm.19-.22l-.1.02L9 .65h.07M5.27 47.55c-.16.14-.02.2.1.2.04 0 .08 0 .1-.02-.07.05-.12.1-.18.1-.04 0-.07-.02-.1-.1h-.04c-.06 0-.08-.1-.03-.15v.04l.15-.07zm-.09-.08v-.1h.05v.15l-.05-.05zm.34-.58c-.23 0-.39.16-.58.32-.14.2-.17.42-.17.58.08.15.21.26.37.26h.1c.2-.06.25-.16.4-.32.16-.2.1-.52-.05-.73h-.06"/><path fill="#E41535" d="M5.27 47.55l-.16.07v-.05c-.04.05-.02.15.04.15h.03c.04.05.07.1.11.1.06 0 .1-.05.18-.1h-.1c-.12 0-.26-.1-.1-.2M5.18 47.47h.05v-.15h-.05v.15zm-3.73-2.7c-.03-.05-.09-.1-.09-.15.1 0 .1-.03.1-.03l-.01.18zM1.27 44c-.54.26-1.12.76-1.06 1.46.07.4.38.42.73.42h.25c.23-.07.55-.31.64-.57-.06-.43-.18-.99-.56-1.31z"/><path fill="#E41535" d="M1.45 44.6c-.03 0-.03.02-.09.02 0 .05.1.09.1.15v-.18h-.01zm-.3-6.71c-.26 0-.52.16-.73.31-.1.27-.52.58-.31 1.02.1.33.42.5.78.5.26 0 .52-.1.68-.3.31-.23.42-.7.37-1.01-.06-.16-.16-.37-.37-.42-.1-.05-.2-.05-.31-.05"/><path fill="#fff" d="M35.56 17.45l-.83-.47c.06-.16.1-.3.06-.47a.69.69 0 00-.26-.36.78.78 0 00-.63-.18c-.2 0-.47.16-.68.48-.26.31-.42.57-.42.83 0 .21.1.42.26.53.1.1.27.15.42.15.16 0 .31-.1.47-.26l.63.68c-.37.27-.68.37-1.05.37-.36 0-.73-.16-1.04-.47a1.79 1.79 0 01-.68-1.2c-.05-.48.1-.9.47-1.37.37-.47.78-.73 1.2-.78.42-.06.89.05 1.3.42.32.26.53.57.63.83.05.32.05.63-.1 1l.25.27zm2.52-.69l.47.8-1.52.99c.45.07.79.29 1 .65.1.15.19.36.2.54.06.2 0 .36-.05.52a.94.94 0 01-.26.37c-.1.1-.31.23-.57.42l-1.78 1.1-.47-.79 1.6-1c.32-.2.52-.35.58-.41.05-.1.1-.2.1-.3a.5.5 0 00-.1-.32.61.61 0 00-.31-.32c-.13-.1-.27-.1-.44-.05-.15 0-.36.1-.62.26l-1.48 1-.51-.82 4.19-2.59-.03-.05zm-2.06 6.97l-.26-.9 3.44-1.04.26.89-3.44 1.05zm3.86-1.16l-.24-.88.84-.21.26.9-.84.25-.02-.05zM37.4 25.3l-1.1.1-.1-.93 3.55-.34.08.9-.5.04c.25.14.46.27.52.37.1.14.15.26.15.42a.9.9 0 01-.1.63l-.84-.21c.06-.16.1-.32.1-.45-.04-.12-.04-.23-.15-.32-.1-.07-.2-.15-.42-.17-.2-.06-.57-.04-1.2.02v-.06zm-.16 1.8c-.32.1-.58.25-.79.57-.2.26-.3.57-.41.89-.1.52-.05 1 .26 1.41.26.42.68.68 1.2.79.52.1.99 0 1.4-.26.42-.27.68-.68.79-1.2a2.1 2.1 0 00-.05-1c-.1-.32-.32-.58-.52-.79a2.76 2.76 0 00-.9-.42 2.3 2.3 0 00-1.03.05l.05-.05zm1.56 1.3c.16.21.21.42.16.68-.05.26-.21.42-.42.58-.2.1-.47.16-.83.1-.37-.05-.63-.2-.73-.36a.95.95 0 01-.16-.68c.05-.21.16-.42.37-.53.2-.1.46-.16.83-.05.31.05.57.2.73.4"/><path fill="#fff" d="M26.68 8.08h.7s.59.05.59.97c0 .93-.49.97-.49.97h-.83l.03-1.94zm9.03 24.85a11.6 11.6 0 01-21.26-6.47c0-6.18 4.8-11.2 10.85-11.63v2.15h1.41v-2.2c1.25.1 2.45.37 3.55.79l.52-1.31c-1.25-.48-2.6-.79-4.02-.84l-.05-1.89h1.1s1.72-.1 1.72-2.4c0-2.31-1.88-2.42-1.88-2.42H25.3l-.05 6.76A13.08 13.08 0 0013.1 26.5c0 7.18 5.79 13.05 12.99 13.05 4.48 0 8.45-2.25 10.8-5.76l-1.16-.8"/></g></svg>