<svg xmlns="http://www.w3.org/2000/svg" fill="none" viewBox="0 0 36 36"><defs/><circle cx="18" cy="18" r="18" fill="#3B3B3D"/><path fill="#F9F9FC" d="M15.4 10.83a7.36 7.36 0 009.77 9.77 8.18 8.18 0 11-9.77-9.77zm6.83.04l.68.18v.81l-.68.17a1.64 1.64 0 00-1.2 1.2l-.17.68h-.81l-.18-.68a1.64 1.64 0 00-1.19-1.2l-.68-.17v-.81l.68-.18a1.64 1.64 0 001.2-1.19l.17-.68h.81l.17.68a1.64 1.64 0 001.2 1.2zm4.09 4.1l.68.17v.81l-.68.18a1.64 1.64 0 00-1.2 1.19l-.17.68h-.81l-.17-.68a1.64 1.64 0 00-1.2-1.2l-.68-.17v-.81l.68-.17a1.64 1.64 0 001.2-1.2l.17-.68h.81l.18.68a1.64 1.64 0 001.19 1.2z"/></svg>