<svg xmlns="http://www.w3.org/2000/svg" fill="none" viewBox="0 0 36 36"><defs/><circle cx="18" cy="18" r="18" fill="#3B3B3D"/><path fill="#F9F9FC" d="M19.5 20.14v2.36h1.13c.3 0 .56.11.79.33.22.23.33.5.33.8 0 .31-.11.58-.33.8a1.1 1.1 0 01-.8.32H19.5v1.13c0 .31-.11.58-.33.8a1.1 1.1 0 01-.8.32c-.31 0-.58-.1-.8-.33a1.09 1.09 0 01-.32-.8v-1.12h-1.13c-.31 0-.58-.1-.8-.33a1.08 1.08 0 01-.32-.79c0-.3.1-.57.33-.8.21-.22.48-.33.8-.33h1.12v-2.36a5.52 5.52 0 01-3.23-1.95 5.45 5.45 0 01-1.27-3.57 5.63 5.63 0 116.75 5.52zm-1.13-8.89c-.94 0-1.73.33-2.39 1a3.27 3.27 0 00-.98 2.38c0 .94.33 1.73.98 2.39.66.65 1.45.98 2.39.98.93 0 1.72-.33 2.39-.98.66-.66.99-1.45.99-2.39 0-.93-.33-1.72-1-2.39-.66-.66-1.45-.99-2.38-.99z"/></svg>