<svg xmlns="http://www.w3.org/2000/svg" fill="none" viewBox="0 0 36 36"><defs/><circle cx="18" cy="18" r="18" fill="#3B3B3D"/><path fill="#F9F9FC" d="M21 18c0-.83-.3-1.54-.88-2.12A2.9 2.9 0 0018 15c-.83 0-1.54.3-2.12.88A2.9 2.9 0 0015 18c0 .83.3 1.54.88 2.12.58.59 1.3.88 2.12.88.83 0 1.54-.3 2.12-.88.59-.58.88-1.3.88-2.12zm1.62 0c0 1.28-.45 2.37-1.35 3.27-.9.9-1.99 1.35-3.27 1.35a4.45 4.45 0 01-3.27-1.35A4.45 4.45 0 0113.38 18c0-1.28.45-2.37 1.35-3.27.9-.9 1.99-1.35 3.27-1.35s2.37.45 3.27 1.35c.9.9 1.35 1.99 1.35 3.27zm1.26-4.8c0 .3-.1.55-.31.76-.21.2-.47.31-.77.31-.3 0-.55-.1-.76-.31a1.04 1.04 0 01-.31-.76c0-.3.1-.56.31-.77.21-.2.47-.31.76-.31.3 0 .56.1.77.31.2.21.31.47.31.77zM18 10.62a325.18 325.18 0 01-2.13 0c-.28 0-.66 0-1.13.03-.48.02-.88.06-1.21.11a4.7 4.7 0 00-.84.22 3.04 3.04 0 00-1.71 1.71c-.09.23-.16.5-.22.84-.05.33-.1.73-.11 1.2a43.56 43.56 0 00-.03 3.27 325.18 325.18 0 010 2.13c0 .28 0 .66.03 1.13.02.48.06.88.11 1.21.06.33.13.61.22.84a3.04 3.04 0 001.71 1.71c.23.09.5.16.84.22.33.05.73.1 1.2.11a43.56 43.56 0 003.27.03 325.18 325.18 0 012.13 0c.28 0 .66 0 1.13-.03.48-.02.88-.06 1.21-.11.33-.06.61-.13.84-.22a3.04 3.04 0 001.71-1.71c.09-.23.16-.5.22-.84.05-.33.1-.73.11-1.2a43.56 43.56 0 00.03-3.27 325.18 325.18 0 010-2.13c0-.28 0-.66-.03-1.13a9.28 9.28 0 00-.11-1.21 4.7 4.7 0 00-.22-.84 3.04 3.04 0 00-1.71-1.71 4.7 4.7 0 00-.84-.22c-.33-.05-.73-.1-1.2-.11a43.56 43.56 0 00-3.27-.03zM27 18c0 1.79-.02 3.03-.06 3.71a5.5 5.5 0 01-1.45 3.78 5.5 5.5 0 01-3.78 1.45c-.68.04-1.92.06-3.71.06s-3.03-.02-3.71-.06a5.5 5.5 0 01-3.78-1.45 5.5 5.5 0 01-1.45-3.78C9.02 21.03 9 19.8 9 18s.02-3.03.06-3.71a5.5 5.5 0 011.45-3.78 5.5 5.5 0 013.78-1.45C14.97 9.02 16.2 9 18 9s3.03.02 3.71.06a5.5 5.5 0 013.78 1.45 5.5 5.5 0 011.45 3.78c.04.68.06 1.92.06 3.71z"/></svg>