<svg xmlns="http://www.w3.org/2000/svg" fill="none" viewBox="0 0 36 36"><defs/><circle cx="18" cy="18" r="18" fill="#3B3B3D"/><path fill="#F9F9FC" fill-rule="evenodd" d="M18 9a1.13 1.13 0 011.13 1.13v1.12a1.12 1.12 0 11-2.25 0v-1.13A1.12 1.12 0 0118 9zm4.5 9a4.5 4.5 0 11-9 0 4.5 4.5 0 019 0zm-.52 5.57l.8.8a1.12 1.12 0 001.58-1.6l-.8-.8a1.13 1.13 0 00-1.58 1.6zm2.38-11.93a1.12 1.12 0 010 1.59l-.8.8a1.12 1.12 0 11-1.58-1.6l.8-.8a1.12 1.12 0 011.58 0zm1.52 7.48a1.12 1.12 0 100-2.25h-1.13a1.12 1.12 0 100 2.25h1.13zM18 23.63a1.12 1.12 0 011.13 1.13v1.13a1.12 1.12 0 11-2.25 0v-1.13A1.12 1.12 0 0118 23.62zm-5.57-9.6a1.12 1.12 0 101.6-1.59l-.8-.8a1.12 1.12 0 00-1.6 1.6l.8.8zm1.6 9.55l-.8.8a1.12 1.12 0 01-1.6-1.6l.8-.8a1.13 1.13 0 011.6 1.6zm-2.78-4.45a1.12 1.12 0 100-2.25h-1.13a1.12 1.12 0 100 2.25h1.13z" clip-rule="evenodd"/></svg>