<svg xmlns="http://www.w3.org/2000/svg" fill="none" viewBox="0 0 36 36"><defs/><circle cx="18" cy="18" r="18" fill="#3B3B3D"/><path fill="#F9F9FC" d="M15.6 23.28l-.92.9a2.04 2.04 0 01-3.3-.64 1.98 1.98 0 01.44-2.17l3.35-3.33c.7-.69 2-1.7 2.95-.76a1.12 1.12 0 101.58-1.58c-1.62-1.6-4.02-1.3-6.1.76l-3.35 3.33a4.18 4.18 0 000 5.98 4.25 4.25 0 006 0l.91-.9a1.11 1.11 0 00-.78-1.91c-.3 0-.58.11-.79.32zm10.15-12.92c-1.74-1.73-4.17-1.82-5.78-.22l-1.13 1.13a1.11 1.11 0 001.57 1.58l1.13-1.13c.84-.83 1.93-.48 2.64.22a1.98 1.98 0 010 2.82L20.6 18.3c-1.63 1.62-2.4.86-2.73.53a1.12 1.12 0 00-1.57 1.59c.76.74 1.61 1.1 2.51 1.1 1.1 0 2.26-.54 3.37-1.64l3.57-3.55a4.2 4.2 0 000-5.98z"/></svg>