<svg xmlns="http://www.w3.org/2000/svg" fill="none" viewBox="0 0 36 36"><defs/><circle cx="18" cy="18" r="18" fill="#3B3B3D"/><path fill="#F9F9FC" d="M26 17.4c-.33 0-.62-.12-.86-.36a1.15 1.15 0 01-.35-.84v-3.28l-4.72 4.67A5.82 5.82 0 0121.16 21a6 6 0 01-6.08 6 6.06 6.06 0 01-5.27-2.98A5.86 5.86 0 019 21a5.86 5.86 0 013.03-5.2c.93-.53 1.95-.8 3.04-.8a6 6 0 013.45 1.06l4.74-4.67h-3.33c-.33 0-.62-.11-.86-.35a1.15 1.15 0 01-.35-.84c0-.33.12-.61.35-.85.24-.23.53-.35.86-.35H26c.34 0 .62.12.86.35.24.24.36.52.36.85v6c0 .32-.12.6-.36.84s-.53.35-.86.35zm-10.92 0c-1 0-1.86.34-2.57 1.05A3.46 3.46 0 0011.44 21c0 1 .35 1.85 1.07 2.55.7.7 1.57 1.06 2.57 1.06 1 0 1.86-.35 2.57-1.06A3.46 3.46 0 0018.72 21c0-1-.36-1.85-1.07-2.55a3.53 3.53 0 00-2.57-1.06z"/></svg>