<svg xmlns="http://www.w3.org/2000/svg" xmlns:xlink="http://www.w3.org/1999/xlink" id="Layer_1" x="0" y="0" version="1.1" viewBox="0 0 1440 360" xml:space="preserve"><defs/><style>.st3,.st4{opacity:.4}.st4{fill:#c31b62;fill-opacity:.33;enable-background:new}.st5,.st6{opacity:.6}.st6{fill:#c31b62;fill-opacity:.33;enable-background:new}.st7,.st8,.st9{opacity:.8}.st8,.st9{fill:#c31b62;fill-opacity:.33;enable-background:new}.st9{opacity:.5}.st10{opacity:.2}.st11{fill:#c31b62;fill-opacity:.33}.st11,.st12{opacity:.2;enable-background:new}.st13{fill:#d2dbd3}.st14{fill:#ede2a2}.st18{fill:#f44040}.st19{fill:#d3d8dd}.st20,.st21{opacity:.25;enable-background:new}.st21{opacity:.15}.st34{fill:#fff}.st35{fill:#323233}.st36{fill:#a0a3a3}.st49{fill:#db9e33}.st50,.st59{enable-background:new}.st50{fill:#d88b64;opacity:.65}.st59{opacity:.4}.st60,.st63,.st64,.st65,.st67,.st68,.st69,.st70{fill:none;stroke:#000;stroke-width:.6225;stroke-miterlimit:10}.st63,.st64,.st65,.st67,.st68,.st69,.st70{stroke-width:.1464}.st64,.st65,.st67,.st68,.st69,.st70{stroke-width:.575}.st65,.st67,.st68,.st69,.st70{stroke-width:.2875}.st67,.st68,.st69,.st70{stroke-width:.2963}.st68,.st69,.st70{stroke-width:.2966}.st69,.st70{stroke-width:1.3592}.st70{stroke-width:.415}</style><defs><path id="SVGID_1_" d="M0 0h1440v360H0z"/></defs><clipPath id="SVGID_2_"><use overflow="visible" xlink:href="#SVGID_1_"/></clipPath><g clip-path="url(#SVGID_2_)"><path fill="#f793cd" d="M-10.3-43h1457.4v432.4H-10.3V-43z"/><g opacity=".5"><g class="st3"><path d="M1254-14.5h27.5V410H1254V-14.5zM1244.7-12.9h4.6v424.5h-4.6V-12.9zM1286.1-13.5h4.6V411h-4.6V-13.5z" class="st4"/></g><g class="st5"><path d="M1190.4-14.5h27.5V410h-27.5V-14.5zM1181.2-12.9h4.6v424.5h-4.6V-12.9zM1222.6-13.5h4.6V411h-4.6V-13.5z" class="st6"/></g><g class="st7"><path d="M1127-14.5h27.5V410H1127V-14.5zM1117.8-12.9h4.6v424.5h-4.6V-12.9zM1159.2-13.5h4.6V411h-4.6V-13.5z" class="st8"/></g><path d="M1063.5-14.5h27.5V410h-27.5V-14.5zM1054.2-12.9h4.6v424.5h-4.6V-12.9zM1095.6-13.5h4.6V411h-4.6V-13.5z" class="st9"/><g class="st10"><path d="M1317.7-14.5h27.5V410h-27.5V-14.5zM1308.5-12.9h4.6v424.5h-4.6V-12.9zM1349.9-13.5h4.6V411h-4.6V-13.5z" class="st11"/></g><path d="M745.6-14.5h27.5V410h-27.5V-14.5zM736.4-12.9h4.6v424.5h-4.6V-12.9zM777.8-13.5h4.6V411h-4.6V-13.5zM682.1-14.5h27.5V410h-27.5V-14.5zM672.8-12.9h4.6v424.5h-4.6V-12.9zM714.2-13.5h4.6V411h-4.6V-13.5zM618.7-14.5h27.5V410h-27.5V-14.5zM609.4-12.9h4.6v424.5h-4.6V-12.9zM650.8-13.5h4.6V411h-4.6V-13.5zM555.1-14.5h27.5V410h-27.5V-14.5zM545.9-12.9h4.6v424.5h-4.6V-12.9zM587.3-13.5h4.6V411h-4.6V-13.5zM999.9-14.5h27.5V410h-27.5V-14.5zM990.6-12.9h4.6v424.5h-4.6V-12.9zM1032.1-13.5h4.6V411h-4.6V-13.5zM936.4-14.5h27.5V410h-27.5V-14.5zM927.1-12.9h4.6v424.5h-4.6V-12.9zM968.5-13.5h4.6V411h-4.6V-13.5zM873-14.5h27.5V410H873V-14.5zM863.7-12.9h4.6v424.5h-4.6V-12.9zM905.1-13.5h4.6V411h-4.6V-13.5zM809.4-14.5h27.5V410h-27.5V-14.5zM800.1-12.9h4.6v424.5h-4.6V-12.9zM841.6-13.5h4.6V411h-4.6V-13.5zM300.8-14.5h27.5V410h-27.5V-14.5zM291.5-12.9h4.6v424.5h-4.6V-12.9zM332.9-13.5h4.6V411h-4.6V-13.5z" class="st9"/><g class="st7"><path d="M237.2-14.5h27.5V410h-27.5V-14.5zM227.9-12.9h4.6v424.5h-4.6V-12.9zM269.3-13.5h4.6V411h-4.6V-13.5z" class="st8"/></g><g class="st5"><path d="M173.8-14.5h27.5V410h-27.5V-14.5zM164.5-12.9h4.6v424.5h-4.6V-12.9zM206-13.5h4.6V411H206V-13.5z" class="st6"/></g><g class="st3"><path d="M110.3-14.5h27.5V410h-27.5V-14.5zM101-12.9h4.6v424.5H101V-12.9zM142.4-13.5h4.6V411h-4.6V-13.5z" class="st4"/></g><path d="M491.5-14.5H519V410h-27.5V-14.5zM482.2-12.9h4.6v424.5h-4.6V-12.9zM523.6-13.5h4.6V411h-4.6V-13.5zM428.1-14.5h27.5V410h-27.5V-14.5zM418.8-12.9h4.6v424.5h-4.6V-12.9zM460.2-13.5h4.6V411h-4.6V-13.5zM364.5-14.5H392V410h-27.5V-14.5zM355.3-12.9h4.6v424.5h-4.6V-12.9zM396.7-13.5h4.6V411h-4.6V-13.5z" class="st9"/><g class="st10"><path d="M46.7-14.5h27.5V410H46.7V-14.5zM37.4-12.9H42v424.5h-4.6V-12.9zM78.8-13.5h4.6V411h-4.6V-13.5z" class="st11"/></g></g><path d="M386.9 209.7s-4.3 31.3-5.3 37c-4 14.1 12.7 26.1 28 26.9-.2 9.7-2.7 44.5-2.9 49.9 1.1-.3 1.9 0 2.3 0 .5-14.1 1.6-36.9 2-51 0 0-3-.7-7.5-2.7-7.8-4-15.6-13.5-19.2-20.3-1.1-2.9-.3-5.7-.3-5.7.7-8.6 2.2-25.7 2.9-34.1zM406.6 335c-1.8 7.3-2.1 10.5 12 10.5 42.9-1.6 169-2.5 212.8-1.7 65.6.2 206.8 2.3 271 1.5 13.5-1.2 21.1-3.4 21.4-24.5.8-20.1-1.4-77.4-1.7-90.4 0 0 1.8 4.6 2.9 5.3 1.2.7 11.1 1.5 30.3-8.2 19.1-9.7 28.9-15.7 28-19.1-.9-3.4-27.8-51-27.8-51l-34.8 17.1.3-74.9-.8.1L406.6 335zM413.4 208.5l-.1 2.4-2.1-.2 2.3-41.8.9.8-1 38.8zM642.8 89.4l.1-.8c74.6-1.3 193.7-.7 269.5 1l-.4 1.3s-98.2 4-177.9 3.4c-79.6-.7-91.3-4.9-91.3-4.9z" class="st12"/><path d="M416.1 171.4l-1.8-1.9c0 13.1-.6 28.3-.9 41.4 7.7.7 28.5 2.7 36.5 3.5.1 0-1 3.3-1 3.4l-.5 2.4c-.5 3.5-.5 9.1-.7 12.6-.8 13.6-2 30-4.2 43.5-10.1-.8-22.5-2-32.4-4-.5 15.8-1.3 35.1-2 50.9.7.1 1.5.6 2.1.9l1.1-1.6 1.7-1.4 1.4-.7 1.9-.2 1.2.1 1.3.5c.9.5 2.1 1.5 2.8 2.2.4.7.9 1.7 1.2 2.4h.7l.7.2.4.4.2.7-.1.7-.5.8-1.1.4c-.2.9-.8 2.6-1.2 3.4l-1.4 1.6-1.6.9-2 .5-1.9-.2c-.7-.3-2.2-.9-2.9-1.4l-.7-.8-.8 1.2a12 12 0 01-3.1 1.3c0 .5-.1 2.5-.1 3.1l.2.8.5.8 2.3 1.1 3.2.7c3.1.1 9.5.4 12.5.3 26.6-1.2 59.1-.3 85.8-.7.4-5.6 1.3-14.3 2.2-19.9.8-4.2 3-16.8 4.3-20.7-1.1-1.5-2.2-3.9-2.9-5.6-.5-1.6-.7-4-.5-5.7 1.2-5.5 2.4-13.2 5.2-18.2l-.5-.1c-.6-1.5-1.4-6.2-1.7-7.9l-.4-4.7.3-3.1.8-2.4 1.9-2.5c1.6-1.4 5.2-4.3 7-5.3 1.7-1 5.5-3.1 7.3-3.9 1.6-.6 4.5-1.5 6.1-1.8-7.5-2.8-16.3-6.4-23.3-10.3-2.8 2.1-7.8 4.7-11.1 6l-3.7.6-3.6.1c-5.6-.1-12-2.9-17-5.2-2.5-1.8-5.8-4.3-7.6-6.7-1.5-2.4-3.7-5.8-4.3-8.6-2.3-.5-5.9-3.1-7.9-4.5-3.4-2.6-10.4-7.9-13.9-10.5-10.9-8.9-23.5-18.5-33.5-28.9zM642.9 89.4c6.7-.1 27.1-.2 33.4-.5-.7 2.2-1.3 7.8-1.5 10.2-.4 2.4-1.2 8.1-1.2 10.4l-.7 7.3c0 3.3.2 8.3.6 11.5-1.7-1.9-5.1-6.1-6.5-8.2-1-1.4-3.1-4.2-4.1-5.6l-3-2.8-3.1-2-2.8-.9-2.7-.3-2.8.3-2.3.9-2.1 1.6-1.2 2-.3 1.9v1.7c.1.8.5 2.2.9 2.8.5.9 2.1 2.3 2.8 2.9 1.3 1.3 3.7 4 4.9 5.5l2.9 5.1c.5 1.1 1.3 3.4 1.8 4.5.4 3 2.4 6.4 3.5 9.2.8 3.5 1.8 8 3.8 11.1.9 1.2 2.7 3.4 3.7 4.5-1.2.1-3.7.3-4.9.7l-2.8 1.1-.2-1.5-.5-1.2-.9-.8-2-.6c-2.7.3-6.4.4-8.8 1.7-.4.2-1 1.5-1.2 1.9-.2 1.1.1 7.3.1 8.5-.3.3-2 1-2.4 1.2h-.9l-11 .3-2.1 1.3c-1.2-1.4-2.8-3.4-4.3-4.5 2-3.8 3.9-11.2 5-15.3l2-9.6c.8-6.5 2.1-17.3 2-23.8l2-3.6 2.2-6c2-6.9 3.9-15.6 4.7-22.9z" class="st13"/><path d="M647.6 171.8c0-.5-.4-7.2-.1-7.4l.8-.8c.4-.3 6.4-.9 7.1-1l.8.1.5.7.1 1.7c-.8.4-3.6 1.8-4.3 2.3l-.2.4c0 .4.3 2 .6 2.3l2 .7c-1.9.3-5.4.4-7.3 1zM630.7 292.6c-.7-3-1.1-7.6-.8-10.7l.4 1.1.6.2.2.6.7.5-.3 1.1c0 .4.1 1.4.3 1.7.2.4.8 1.1 1.2 1.4 0 1 .2 2 .9 2.8l.6.3.3 1.7-4.1-.7zM624.6 228.7c.9-1.6 2.7-4.8 3.4-6.4l1.2 3.8c-1.1.7-3.4 2-4.6 2.6zM627 340.3l.1 1.9c12.3.1 31.8-.1 44.1-.7v-1.1s-1.1 1.1-2 .5-2-1.2-2-2.3c0-1.1.6-3 .6-3l-1.1.9c-4.3 7.8-17.7 4.3-25.2 3.9-5.3-.1-14.5-.1-14.5-.1zM672.2 326.1c2.2-.5 4.5.4 4.3 2.1 1.4-.3 2.7.7 2.8 2.2 1.5-.5 3 .6 3.3 2.1 1.1-1 2.7-.4 3.5.4.8-1.3 3-.9 3.9-.2.1-1.1 2.6-1 3.1-.9 0 0 .7-.9 1.6-1.2s2.1-.2 2.1-.2c.4-1.9 2-2 3.4-2.1-.3-1.6 1.2-2.5 2.4-2.9l-.1-.7c-1.7.5-13.5.4-15.6-1.7l-1.7-.8c-3 .9-10.1 3-13 3.9zM687.1 341.3l.4-3.2 1-3c0 1.5-.1 4.6-.2 6.2h-1.2zM692.5 341.3c-.1-1.7.2-5.2.4-7 .2 2 1 5 1.2 7h-1.6zM698.5 341.4l-1.5-4.7c0-.8-.2-3.4 0-4.2 1 2.4 2.2 6.4 3.4 8.7l-1.9.2z" class="st13"/><path d="M707.2 341.4h-2.6c.1-1.8-3.7-6.5-3.8-8.8-.3-1.7-.5-3.3-.5-3.3 0 .9 5.5 9.9 7.5 9.7 2.5 0 2.9-1.5 1.3-3.4-1.3-.6-5.6-7.5-5.7-8.5 0 0 2.6 3.7 4.8 5.2 2.3 1.6 3.6 2.4 4.2 2.3.6-.1 1.8-.6 1.8-1.2.1-.6.3-1.6-1-2.5-2.1-1.1-5.1-3.7-5.9-5.3 2.2 1.4 3.2 2.1 6.7 3.7 1.8.7 2.1-.4 2.6-.7.4-.4 1.2-1.8-.6-2.7-2.2-1.1-4.8-2.4-5.3-2.8l1.7-.3 2.8.9 2.2.3c1.5.2 1.9-1.2 1.8-2.2l3.6 7.1 2.3 5.3s2.2 4.7 4.1 5.7c5.1 2 16-5.8 19.2-10.3 2.1-3.5 3.7-7.1 3.9-8.2.2-1.1.3-3.1-1.4-4.5-2.2-1.8-4-3.6-5-5 1.7-.8 6-6.4 5.8-9.1 0-2.4-.4-5.9-.9-7-1-2.1-1.7-2.1-3.1-3.3 3.3-.6 6.5-8 5.9-11.1.1-4.2-4.4-6.1-6.6-7.3l.9-1.2c2-1.7 4.8-9.6 4-12.8-.6-2-4.6-5.2-6.1-5.7 0 0 .3-2.2-.7-4a34.1 34.1 0 00-4.3-5.8c17.2-.4 42.4 7.5 56.2 17.6 1.7 5.3 12.9 25 19.2 29.9 10.5 11.3 32 20.9 48.8 15 18.3-6.7 22.3-15.3 31.7-28.9 10.7-17.6 16.4-46 17-65.5 1.2 2.4 5.7 10.6 7.1 13l-.2.9c.3 11.5 1.2 34.9 1.6 46.2l.6 16c-.2 6 1.3 13.5-.1 20.2-1.4 8.1-6.2 18.5-12.9 25.7-4.5 4.8-8.2 6.7-13.4 6.7h-31.6c-27 .3-83.9-.5-110.7-.1-11.1.2-35.8.6-46.9.1zM650.5 253.8c1.2-1.3 4.4-5.1 5.5-6.4 1.8 0 5.4.1 7.2.2 1.7-.1 5.3-.4 7-.5 3.9 7.6 8.4 16.4 15 22-1.5 2.6-4.6 6.9-6.2 9.4-6 5.1-13.6 10.4-19.7 15.4l-1.2-1.2-1.6-.7-1.9-.1-2.4.5-1-1c.7-.9-2.2-3.1-2.6-2.9.4-.8-1-2.3-1.6-2.4 0 0-.1-1.6-.5-2.2-.7-.9-1.1-1.2-1.6-1.6.8-1.4-.7-2.6-1.4-3.3.6-2.5-.3-4.6-2.7-5.8.1-.4.1-1.1 0-1.5l-1-1.1c.4-1.5 3.3-7.2 4.1-8.7.9-1.7 5.3-6.6 6.6-8.1zM709.5 165.7l-4.3.4c5.1-1.7 12.7-6.9 14.5-15.5 1.3-5.1 3.1-24.1 3.7-27.6l1.3-7 3-10c.7-2.4 2-6.4 1.9-8.9l-.8-2.7-1-1.5-1.8-1.4-1.9-.7-1.1-.2c-.5.1-2.5.2-2.9.5.1-.2 1-2.9 1.2-2.9 62.7.2 128 .3 190.7 2.5-.1.7.1 2 .2 2.6.2.4.6 1.6.8 2l-.8 1.5.4.9.9.6h.4l1.1-.4c.6.2 1.8.8 2.3 1 .7.2 2 .5 2.7.5-.4 22.4-1.1 53.3-.8 75.7l-7.4 3.5s-.4-6.8-4.5-20.5-13.2-32.6-13.2-32.6-7.8-13.8-17.8-22.9c-12.7-11.3-28.6-14.1-38.4-11.8l-5.6 1.8-7.3 3.9-4.1 2.7c-5 3.6-10.1 8.8-13.8 13.7-2.1 2.5-6 9.1-7.6 12l-3.2 6c-1.3 2.6-3.4 8.3-4.3 11.1-17.9 16.2-40.2 23.9-63.2 24.4 0 0-.2-1.4-6.5-1.8-6.3 0-12.8 1.1-12.8 1.1z" class="st13"/><path d="M910.2 179.8c14.2-7.3 31.2-15.4 45.4-22.5 7.6 15.9 17.6 35.7 25.4 51.5-7.1 3.9-21.4 11.1-28.5 14.7-2.8 1.5-8.6 4.3-11.5 5.5-4.5 1.7-10.3 3.3-15 4.2-4.6-6-8.8-13.8-12.2-20.6.3-7.9.2-17.7-.9-25.6.1 0-2.7-7.2-2.7-7.2zM384.3 239.6c.8-8.8 1.7-22.2 2.9-31 19.4 1.8 43.3 4 62.6 5.9 0 0-1.6 4.5-1.8 9-.2 4.5-.7 13.6-.7 13.6-.6 12.3-2 27.2-3.9 39.3l-28.3-2.9c-3.8-.4-11.6-3.3-15.6-6.2-4-2.9-10-10-10-10-1.8-2.5-5.4-6.6-5.8-9.8.1-.1.6-7.9.6-7.9z" class="st14"/><linearGradient id="SVGID_3_" x1="938.78" x2="951.03" y1="128.82" y2="198.62" gradientTransform="matrix(1 0 0 -1 0 362)" gradientUnits="userSpaceOnUse"><stop offset="0" stop-color="#d3bb7f"/><stop offset="1" stop-color="#d3bb7f" stop-opacity="0"/></linearGradient><path fill="url(#SVGID_3_)" d="M910.2 179.8c14.2-7.3 31.2-15.4 45.4-22.5 7.6 15.9 17.6 35.7 25.4 51.5-7.1 3.9-21.4 11.1-28.5 14.7-2.8 1.5-8.6 4.3-11.5 5.5-4.5 1.7-10.3 3.3-15 4.2-4.6-6-8.8-13.8-12.2-20.6.3-7.9.2-17.7-.9-25.6.1 0-2.7-7.2-2.7-7.2z"/><linearGradient id="SVGID_4_" x1="402.91" x2="433.5" y1="95.85" y2="154.34" gradientTransform="matrix(1 0 0 -1 0 362)" gradientUnits="userSpaceOnUse"><stop offset="0" stop-color="#d3bb7f"/><stop offset="1" stop-color="#d3bb7f" stop-opacity="0"/></linearGradient><path fill="url(#SVGID_4_)" d="M384.3 239.6c.8-8.8 1.7-22.2 2.9-31 19.4 1.8 43.3 4 62.6 5.9 0 0-1.6 4.5-1.8 9-.2 4.5-.7 13.6-.7 13.6-.6 12.3-2 27.2-3.9 39.3l-28.3-2.9c-3.8-.4-11.6-3.3-15.6-6.2-4-2.9-10-10-10-10-1.8-2.5-5.4-6.6-5.8-9.8.1-.1.6-7.9.6-7.9z"/><path fill="#c4ae70" d="M384.9 250.5c3.6 4.5 8.4 2.2 12.3 3.2l.6.5c.6 2.5.6 5.7 1 8.2.4 2.1 1.5 4.5 2.9 6.1-3.4-2-7.3-6.2-10-9l-3-3.5-3.8-5.5z"/><path d="M913.6 87.5c-2.8 2.3-1.3 9.8 3.4 11.5 3.2 1.5 5.7 0 7-.8 2-1.7 2-4 2.4-5.5 11.6-.6 4-17.6-4.5-9.9-.5 1-.8 1.8-.9 2.6-.6-.2-2.9-.3-3.6-.3l-1.6.6c-.6.4-1.8 1.3-2.2 1.8zM403.2 326.6s1-2.7 3.4-3.3c3.2-.4 3.8.2 4.6 1 3.2-6.5 12.1-5.1 12.8 3.6-.1 7.7-7.9 9.4-11.4 5.2-4.3 5.6-12.2-.4-9.4-6.5z" class="st18"/><path d="M913.1 95.4c-2.2 1.3.6 4.5 2.3 2.6l-1.6-1.5-.7-1.1zM423.7 325.6l1 .1.8.6c.1.4.2 1.1.2 1.4l-.4.7-1.2.5.1-1.4c-.1-.4-.3-1.5-.5-1.9z" class="st19"/><path d="M402.8 328.4c-.2 3.4 5.7 8.4 8 3.9.8-1.6 0 .8.7.6.6-.2 2-1.8 2-2 .2-1 .1-2.1.1-2.9.3 5.1 4.1 2.2 5.6.5.2-.8 1.3 4.4-1 5.2 2-.5 3.4-2.3 3.4-2.3-1.2 2.3.7 2 1.4.8-2.1 3.4-7.4 4.2-10.2.8-3.1 4.2-8.4 1.9-9.9-2l-.2-1.1.1-1.8v.3zM921.1 88s-4.7 4.1-3.5 5.7c1.6 2.3 5.2 4.5 2 6 2.7-.1 7.1-1.9 5.2-6l1.4-1.2 1.7.1 1.6-.5 1.7-1.3c.2-.5 1.2-2.4 1.2-2.9-2.9 4.5-8.6 3.4-9.9-2 0 0-.2-.8-.9-.4-1 .9-.6 1.7-.5 2.5zM912.3 96.9c.4.8 1.8 0 1.8 0l1.2 1.1c-1.3.8-2.7.7-3-1.1zM424 327.3s1.5.3 1.6-.1c.1-.4.4.4-.2 1-.6.6-1.2.6-1.2.6 0-.4-.1-1.1-.2-1.5z" class="st20"/><path d="M900 325.5s-1.8.3-1.3 1.3c.5.9 9.8 10.3 3 13.4 6.7-3.2-.9-12.3-1.7-14.7zM920.8 227.8s-5.7-10.5-7.1-13.6c.2-1.3.2-1.6.8-.4 2.1 4 4.3 8.5 6.2 11.6l.1 2.4zM920.1 100.3c-.2 2.3-2.5 3.4-4.9 1.7-2.3-1.7-2.9-4.9-2.9-4.9s0 1.5 1.3 1.4c1.4-.1 1.4-.6 1.4-.6s1 1 2 1.2c1.9.4 1.8.5 3.1.5v.7zM408.8 336.2c1.9 0 3.8-1.9 3.8-1.9 1.1 2.7 10.6 2.7 12-.8 1.4-2.1 1.3-6.4 1.3-6.4s0 .9-.8 1.5l-.8.5c-1.7 5.3-6.4 8.4-11.7 4-.7.8-1.9 1.8-2.9 2.1h-.5c-.2.1-.4.9-.4 1zM411 273.5c2.2.8 31.7 4.5 33.9 4 1.6-.5 1.4-11.8 2.1-23.3 1.2-16.5 1.5-28.1 2.4-38.5.3-1.4-1.4 4.1-1.4 6.5-.7 13.8-.6 21.9-2.3 35.2-1.2 7.1-1.4 13.4-2.1 18.7-8.2-.6-24.3-2.1-32.6-3.8v1.2z" class="st21"/><path d="M642.4 15.9c1 .2 7.9 16.7 8.5 17.8 0 0 4.1 11.2 6.1 25 1.9 13.9.2 21.4.2 21.4s-1.4-3.6-4.5-11.1c-3.1-7.4-6.9-12.9-6.9-12.9 2.5 16-2.1 40.3-9.5 54.5 0 0-.3 12.8-1.6 21.5s-4.8 24.3-7.9 28.9c2 1.1 4.5 4.7 4.5 4.7s1.3-.9 2-1.1c.8-.3 12.5-.6 12.5-.6l2.8-1.2s-.1-1-.4-5c-.3-4 .6-5.3 1.7-6 1.1-.7 5.9-1.7 9.1-1.5 3.2.2 3.4 4.1 3.4 4.1s2.3-1.2 3.7-1.4c1.3-.2 5.3-.2 4.7-.5-.6-.4-5.7-6.8-6.7-10.8-1-4-1.6-7.1-3.1-9.4s-1.2-2.7-2.4-7.6c-1.2-5-5.1-10.2-8.1-12.7-5.9-3.9-7.5-12.3-.3-15.1 3.3-1.1 11.5-.2 14.2 3.1 2.8 3.3 11.5 14.7 12.5 15.8 1 1.1.5.2.5-7.3s2.2-24.9 3.4-33.3c1.4-13.1 7.2-21.2 17.3-17 0 0 5.5-5.9 10.7-5 5.2.8 7.3 6.3 7.3 8.6 0 2.2.4 1.1.4 1.1 13.4-6.7 14.6 8 9.9 15.4 2.9-1.1 9.1-1.4 9.7 5.2.5 4.7-2.1 10.2-4.6 19.7-5.1 18.1.4 47.2-20.4 52.9 1.4-.5 21.3-3.2 24.5.8 21.6-.1 50.4-10.6 66-25.5 4.5-16.7 21.5-46 44.2-52.8 47.8-13.5 75.3 54.3 80.4 88.2 5.8 37.8 4.7 86.2-26 121.7-21.1 22.6-44.7 17.7-59.2 10.4-20.1-12.3-28.9-30.5-34.4-42.6-11.7-7.8-29.7-15.3-44.7-17.2-4.5-.7-12.9-1.1-13.7-1-.8.1 1 .5 3.2 4.1 2.1 3.6 1.8 5.2 1.8 5.9 0 .7.5.6 1.2.8.7.2 4.4 3.8 5.1 5.1.8 1.3.8 3.3-.7 7.4-1.5 4.2-3.7 6.8-4.3 7.3-.6.5 3.4 1.9 5.5 3.9 2.1 1.9 1.6 5.7.2 9.8-1.5 4.1-4.2 5.5-4.7 5.7-.6.1.5.6 1.3 1.4.9.8 1.4.9 1.9 3.3 1.9 5.7-.7 11.7-4.6 15.1-.9 1.1-.4 1.1.2 2.1 2.9 3.4 7.9 4 4.7 10.9-2.2 7.5-15.7 19.4-23.5 16.6-2.2-1.2-3.4-4.4-5.2-8.4-1.8-4-5-10.4-5-10.4.9 5.5-8.5.3-10.1-.5-1.2-.6-1.4-.4-.3.8 1.1 1.2 4 2.8 6.1 3.9 2.1 1.1 2.8 1.9 1.8 3.5-1.4 3.5-10.7-4.7-8.7-1.8 1.3 1.8 4.4 3.1 5.5 4.4 1.1 1.3.1 3.3-1.5 3.3s-4.8-2.4-6.3-4.1c-3.6-4.5-3.2-2.8-.4 1.5 1.5 2.2 4.4 4.3 4.4 5.3s-1 2.3-2.2 2.1c-1.2-.2-4-3.4-5.6-5.7-1.6-2.3-1.9-3.4-2-2.7 0 .7 1.2 4.1 2.3 6.5 1.1 2.3 2.3 2.9 2 4.4-.4 1.5-2.1 1.7-2.9 1.4-1.6-.1-4.5-9.6-5.1-10.3-.4 0-.2 2.8.4 5.3.6 2.5 1.8 4.8 1.8 5.9 0 1.1-1.4 1.8-2.6 1.8-3.2-.4-3.2-9.3-3.8-10.9-.9-.6-.4 9.9-.5 10.7 0 1.6-1.6 1.6-2.8 1.4-2.5-.4-1.4-10-1.3-11 0-.8-.9 1.3-1.2 2.9-.7 2.9.5 4.8-1.1 7.3-.8 1.1-2 1.6-2.9 1-1.3-.6-1-4.8-1.3-5.7 0 0-1.1 2.8-2 3.8-2.6 2.6-4.6-.4-4-2.9.1-.9 0-.5-.4 0-1.2 1.8-3.7 2.6-5-.1-.8-1.5-.2-1.8-.2-1.8-4.1 2.2-5.8-2.4-3.6-5.8.6-1.2-.5.4-1.9 2.4s-2.4 2-6.1 3.7c-3.7 1.6-6.2 1.6-12.7 0-6.5-1.6-21.7-.5-21.7-.5s-.6 10.9-1.6 28.2c-1 17.3-2.1 15.4-2.1 15.4l-103.3 3.9-6.9-9.2c-10.6-15.5-4.1-62 1.9-78.8-3.5-4.5-4.1-7.5-4.1-9.7 0-2.1 1.5-15.6 5.3-21.5-.8-4.2-4.1-14-2-18.4 2-4.4 9-10.2 23.8-15.1-8.9-1.9-23.8-10.7-23.8-10.7-14 12.5-41.2 7.7-49.7-14.1-47.9-32.6-115.2-83-80.6-153.9-8.9 6.7-17.2 19-17.2 19s-.5-6.8 12.1-26.3 27.7-30.9 27.7-30.9-11.6.6-25.2 6.7c11.9-10.6 32.2-21 32.2-21l226.5 14.1zm-10.9 203.2s-1-4.3-1.8-2.9-2.8 5.4-2.8 5.4l4.6-2.5zm22.7 28.3l-6.5 7.2s-3.3 5.9-5.3 11c1.2.7 1.1 2.7 1.1 2.7 2.9.6 3.3 4.6 3 6.3 0 0 2.3 1.3 1.4 3.4 1.1.4 2.6 2 2 4 .8.3 2.4.6 1.9 2.4 1 .3 3.1 1.8 2.5 3 .5.2 1.1.9 1.1.9 2.5-1.1 6-.3 7.6 1.6 0 0 12.9-10.4 16.9-13.2 3.9-2.8 3.9-3.2 5.3-5.2 1.3-2 4.7-7.4 4.7-7.4s-3.9-3.7-8.6-10.6c-4.6-6.9-7-12.4-7-12.4s-.9.2-6.4.5-8.5-.2-8.5-.2l-5.2 6zm-16.8 41.9c-.4-.1-.4-1.6-.4-1.6s-1.5-.5-1.5-3.3c-2.4-1-1.3-4.4-1.3-4.4s-.9-.1-.9-1.3c-.5 0-.9-.5-.9-.5s-.2.8-.1 3.9c.1 3.1.8 6.7.8 6.7l4.3.5zm39.5 34c.9 0 4.3.4 3.9 2.5 1.2-.9 3.2 1.1 3.1 2.1.9-.3 3.6.7 3.3 2.2.8-.3 2.9-.7 3.5.5.7-.7 3.2-1.4 4.1-.3.1-.5 3.2-1.7 3.6-.7.1-1.1 2.9-2.1 3.7-1.5.3-1.6 2-2.3 3.4-2.2-.2-1.4 1.1-3 2.7-3l-.2-.7c-2.2.7-14.3-.2-16.8-2.1l-1-.6c-3.3 1-10 2.8-13.3 3.8z" class="st21"/><linearGradient id="SVGID_5_" x1="574.02" x2="603.24" y1="85.45" y2="81.6" gradientTransform="matrix(1 0 0 -1 0 362)" gradientUnits="userSpaceOnUse"><stop offset="0" stop-color="#a91f18"/><stop offset=".08" stop-color="#b01f16"/><stop offset=".19" stop-color="#c21e12"/><stop offset=".31" stop-color="#e01c0b"/><stop offset=".68" stop-color="#e01c0b"/><stop offset="1" stop-color="#a91f18"/></linearGradient><path fill="url(#SVGID_5_)" d="M575.6 283.2l-.2-1.4c3 .5 6.1.9 8.9.4l1.9-.4c1-.3 2.3-1 3.2-1.4 4.1-2.7 5.6-8.1 5.4-12.8 2.3 5.9 3.6 13.8 4.3 20.1-.7-.3-2.1-.8-2.9-.9-.6 0-2 0-2.6.1-.3.4-1 1.1-1.3 1.4-2.3-.6-5.7-1.4-8-1.5-.9 0-2.5 0-3.2.6l-.4 1.5-1.7.1-.3-.7c-.4-.3-1.5-1.5-2-1.6-.1-.7-.9-2.9-1.1-3.5z"/><linearGradient id="SVGID_6_" x1="574.87" x2="607.11" y1="8.03" y2="3.78" gradientTransform="matrix(1 0 0 -1 0 362)" gradientUnits="userSpaceOnUse"><stop offset="0" stop-color="#a91f18"/><stop offset=".08" stop-color="#b01f16"/><stop offset=".19" stop-color="#c21e12"/><stop offset=".31" stop-color="#e01c0b"/><stop offset=".68" stop-color="#e01c0b"/><stop offset="1" stop-color="#a91f18"/></linearGradient><path fill="url(#SVGID_6_)" d="M577.8 371.7c.5-9.4 1.6-22.9 1.2-32.2 6.3.6 16.9.8 23.3.8.4.6-.1 10-.1 10.9l-.3 20.1-24.1.4z"/><linearGradient id="SVGID_7_" x1="550.94" x2="600.78" y1="87.3" y2="8.39" gradientTransform="matrix(1 0 0 -1 0 362)" gradientUnits="userSpaceOnUse"><stop offset="0" stop-color="#293b60"/><stop offset="1" stop-color="#19253a"/></linearGradient><path fill="url(#SVGID_7_)" d="M537.4 255.8c4.7-2.4 12.2-4.8 16.3-2.8 4.1 2 3.9 5 5.5 6.8 1.6 1.9 4.1 4.8 4.1 4.8 2.6 2.7 6.3 5.8 8.4 8.9 1.5 2 2.7 5.5 3.4 7.9.4 1.2 1.3 3.8 1.6 5 .7.7 1.8 1.6 2.3 2.5l.5-.3 1.1.2.1-1.1.8-.7 1-.4c.8-.2 5.1.6 6 .7.8.2 2.9.7 3.6 1l.5-.8c1.4-1 3.6-.8 5.2-.7.3.3.9.7 1.3.8l.4.7c4.4 0 10.3.8 14.6 1.2.6.1 2.8.1 3.2.6l.2.5c1.4-.4 3.2-1 4.6-.6.6.1 1.9.7 2.4 1l1.9.6c3.8 1 11.4 2.2 15.3 2.7.8 0 3 .1 3.8.3 2.8-1.4 6.6-2.7 9.7-2.9.7.1 2.3.5 3 .9l1.2 1.2c-1.3 1.1-3.1 2.2-4.6 3.2-.7 1.1-1.5 4.6-1.8 5.8-.2 2.6-.2 6.3 0 8.9.3 5.5 1.4 12.5 2.8 17.8 2 .1 5.1-1 7-1.4 1.1-.3 6.8-1.4 7.7-1.9.3 1.7-.6 4-1.2 5.5-.6 1.7-1.9 3.8-3.1 5.1-.4.5-1.2 1.4-1.6 1.9-.6.4-1.9 1.2-2.5 1.6-.9.4-2.7.9-3.7 1l-3.9.4c-1.4-.3-5-.8-6.5-1-2.3-.2-7.9-.5-10.3-.6-11.6-.1-28.7.1-40.3-.1-3.5-.1-15 .1-18.4-.7.5 9.8-.7 21.9-1.4 31.8l-63.2-1.9c-.9-4.5-1.6-10.8-1.8-15.4.2-2.5.5-8.9.6-11.6 1.1-13.4 2.7-28.5 6.5-41.4-1.2-1.5-2.5-3.7-3.4-7.6-1.1-6.6 4.3-21.8 6.8-26.2 2.9-4.9 9.3-8.4 14.3-11.2z"/><linearGradient id="SVGID_8_" x1="595.43" x2="622.23" y1="50.03" y2="54.36" gradientTransform="matrix(1 0 0 -1 0 362)" gradientUnits="userSpaceOnUse"><stop offset="0" stop-color="#293b60"/><stop offset="1" stop-color="#19253a"/></linearGradient><path fill="url(#SVGID_8_)" d="M602.6 247.8c2.1 1 3.4 3.8 3.4 3.8s1.4 2.9 2.8 6 20.4 15.7 20.9 24 0 6.4.5 8.3c.5 1.9.6 2.6.6 2.6-1-.2-3.3-.7-4.4-.9-1.6-.5-3.8-1.6-5.4-1.8l-1.1.1c-.4.1-1.8.7-2.1.7-.2-.4-.6-.8-1-1-.9-.2-2.5-.4-3.5-.3l-13-1.1h-.7l-.2-.5-.5-.3c-.5-4.8-1.4-10.4-2.5-15.1-.7-2.3-2.4-7.5-3.4-9.6-.6-1.4-2-4.6-2.9-5.9-.2-.2-1.2-1.3-1.4-1.6.1-.3 3.9-5.9 3.7-6.1 2.1-.6 6.4-1.8 8.5-2.3l1.7 1zm22.7 123.5c.5-8.2 1.6-22.7 1.7-31-7.3.1-17.3.1-24.6-.1.1 4.2-.1 13.5-.3 17.7.1 3.4-.1 10.1-.4 13.5l23.6-.1z"/><linearGradient id="SVGID_9_" x1="571.85" x2="594.87" y1="90.95" y2="90.95" gradientTransform="matrix(1 0 0 -1 0 362)" gradientUnits="userSpaceOnUse"><stop offset="0" stop-color="#293b60"/><stop offset="1" stop-color="#19253a"/></linearGradient><path fill="url(#SVGID_9_)" d="M573.5 274.2l-1.1-.5h-.6c.5.6 1.4 2.8 1.7 3.5 0 0 1 2.1 1 2.4.1.7.4 1.7.7 2.1 10.7 2.7 19.9-1.7 19.6-13.9l-2.3-6.4-1.1-1.8c-.1.7.4 2.1.2 4-.2 1.3-.5 5.9-3.2 8.9s-4.3 3.4-7 3.2c-4.3-.5-5.7-.8-7.9-1.5z"/><linearGradient id="SVGID_10_" x1="529.9" x2="553.6" y1="97.01" y2="122.23" gradientTransform="matrix(1 0 0 -1 0 362)" gradientUnits="userSpaceOnUse"><stop offset="0" stop-color="#bfad95"/><stop offset=".23" stop-color="#b9a790"/><stop offset=".51" stop-color="#aa9881"/><stop offset=".83" stop-color="#907e6a"/><stop offset=".85" stop-color="#8e7c68"/></linearGradient><path fill="url(#SVGID_10_)" d="M519 258.3c-.2 4.4 1.2 9.6 2 13.8.4-1.1 1.7-3.7 2.2-4.8l2.5-3.3 3-2.5c3-2.6 7.7-5.1 11.3-6.8 4.4-1.9 11.8-4.2 16.3 0 .4.8 1.4 2.4 2 3.1-.2-2.5-.9-5.4-1.8-7.8-1.9-.5-6.1-1.4-8.1-1.8-1.8-.6-6.5-2-8.3-2.4l-7.2-2.6c-1.3.4-4.5 2.5-5.7 3.3-1.2.7-3.4 2.4-4.4 3.4-.8.8-2.3 2.6-2.9 3.5-.2.6-.7 2.2-.9 2.9v2z"/><linearGradient id="SVGID_11_" x1="621.76" x2="646.86" y1="104.62" y2="131.33" gradientTransform="matrix(1 0 0 -1 0 362)" gradientUnits="userSpaceOnUse"><stop offset="0" stop-color="#bfad95"/><stop offset=".23" stop-color="#b9a790"/><stop offset=".51" stop-color="#aa9881"/><stop offset=".83" stop-color="#907e6a"/><stop offset=".85" stop-color="#8e7c68"/></linearGradient><path fill="url(#SVGID_11_)" d="M600.9 246.9l6.3-2.3 5-2.4c6.7-2.7 13.6-7.3 18.8-12.3 2.2 4.3 6.1 8.9 9.7 12 1.4 1 4.5 2.7 6.1 3.4l-.7 3.7-2.4 6.5c-1.9 4-5.6 10.8-7.2 14.9l-1 .5-2.2 2.1c-1 1.2-2.6 3.6-3.2 5l-.2 2.4s.1 2.1-.2.7c-1.5-6.3-9.6-12.7-14.3-17-3.2-3-6.3-4.6-7.3-8.1l-.5-1.5c-1.1-1.7-2.4-4.4-3.8-5.9-.6-.7-2.1-1.4-2.9-1.7zm46.5 6.7c-.5 1.4-1.7 5.2-2.3 6.4 2.8-3.3 8.1-9.3 11-12.5-1.9-.3-4.9-.6-6.7-1.2-.5 1.9-1.3 5.4-2 7.3z"/><linearGradient id="SVGID_12_" x1="571.85" x2="585.62" y1="39.99" y2="54.65" gradientTransform="matrix(1 0 0 -1 0 362)" gradientUnits="userSpaceOnUse"><stop offset="0" stop-color="#8e7c68"/><stop offset=".02" stop-color="#907e6a"/><stop offset=".4" stop-color="#aa9881"/><stop offset=".73" stop-color="#b9a790"/><stop offset="1" stop-color="#bfad95"/></linearGradient><path fill="url(#SVGID_12_)" d="M572.6 304c-.1-1 5.1.8 5.1.7.2.2.9.2.8.6-1.6 6.5-1.7 13.1-1.6 19.7 0 1.7.5 5.1 1.1 6.8 0 .3.3.7.1 1-.7.2-1.2 0-3-.2-1.2-.1-2.2-.4-2.4-.7-.2-.3-.9-3.3-1.2-4.8-.5-4.5-.2-6.7-.1-10.7.2-3.8.5-8.7 1.2-12.4z"/><linearGradient id="SVGID_13_" x1="587.16" x2="605.73" y1="36.64" y2="56.4" gradientTransform="matrix(1 0 0 -1 0 362)" gradientUnits="userSpaceOnUse"><stop offset="0" stop-color="#8e7c68"/><stop offset=".02" stop-color="#907e6a"/><stop offset=".4" stop-color="#aa9881"/><stop offset=".73" stop-color="#b9a790"/><stop offset="1" stop-color="#bfad95"/></linearGradient><path fill="url(#SVGID_13_)" d="M582.9 307.9s.3-1 .4-1.1c.7-.7 4.1-.2 4.7-.1 1 .4 0 1.8.1 2.7-.2 3-.6 5.8-.7 8.5.7.6 3.7.8 4.7.9.7 0 1.3.1 1.4-.1 0-1.4.8-8.2 1.1-9.4 0 0 .3-1.9.4-2 .1-.1 1-.3 1.7-.3.8-.1 3.7-.1 3.9-.1.2 0 .7.3.6.9-.9 7-1.9 13.9-1.9 20.8a60.27 60.27 0 00.5 5.5s.2.5-.3.5c-.8.1-4.8-.1-5.3-.3-.3-.9-.6-4.2-.8-5.2-.1-.5-.2-3.3-.4-3.7l-.2-.1c-1.5-.4-3.6-.7-5.2-.7 0 0-.3 0-.3.9-.1 2.3.7 6.5 1.2 8.6-.5.7-5.7-.3-6-.9-.1-.3-.5-3.2-.6-4.4-.5-7.2-.1-14 1-20.9z"/><linearGradient id="SVGID_14_" x1="604.66" x2="622.38" y1="37.77" y2="56.63" gradientTransform="matrix(1 0 0 -1 0 362)" gradientUnits="userSpaceOnUse"><stop offset="0" stop-color="#8e7c68"/><stop offset=".02" stop-color="#907e6a"/><stop offset=".4" stop-color="#aa9881"/><stop offset=".73" stop-color="#b9a790"/><stop offset="1" stop-color="#bfad95"/></linearGradient><path fill="url(#SVGID_14_)" d="M604.6 306.7s-.2 0-.2.5c0 .8 0 3.5.7 4 .2 0 1.9-.4 2.9-.5 9.7-.7 7 21.7-4.3 19.6l-.1.2s-.3 1.1-.4 2.3c-.1 1.2 0 1.7 0 1.7 11 1.7 17.1-8.2 17.7-18.1 1.3-11.2-8.1-13.3-16.3-9.7z"/><linearGradient id="SVGID_15_" x1="558.37" x2="573.13" y1="45.82" y2="61.52" gradientTransform="matrix(1 0 0 -1 0 362)" gradientUnits="userSpaceOnUse"><stop offset="0" stop-color="#8e7c68"/><stop offset=".02" stop-color="#907e6a"/><stop offset=".4" stop-color="#aa9881"/><stop offset=".73" stop-color="#b9a790"/><stop offset="1" stop-color="#bfad95"/></linearGradient><path fill="url(#SVGID_15_)" d="M555.5 296c.4.1 2.1.9 2.5 1.1.5.4 1.6.6 1.6 1.5-.2 2-.4 3.6-.3 5.5l-.8 1.6c0 .3 0 1 .1 1.3 0 0 .1.8.5.8s.5-.3.5-.3c.6-.8 1.1-.3 1.2.4.1 0 .9 3.4 1.6 2.2.3-.6 1.5-6.5 1.5-7.1.2-.2 1.9-2.2 2.1-2.5.5.1.7.4 1.6.6.6.1 1.3.3 1.4.3.5.4-.6 4.8-.5 5-.7 5.4-1.9 12.6-1.2 18.3.3 2.8 2.6 6.2-2.2 4.3-3.5-1-10.7-4.9-11.6-9.6-1.5-4.5-.2-7.3 2.9-9.3v-.1s-.9-1.2-1-2.8c-.2-4.2-.2-8-.1-11l.2-.2zm2.1 21.8c-.4 2.6 1.4 6.6 4.4 6.8l.1-.1c.1-1.5.3-6.7.1-8.4l-.1-.4c-1.8-.8-4.2-.5-4.5 2.1z"/><linearGradient id="SVGID_16_" x1="543.13" x2="555.88" y1="55.49" y2="69.06" gradientTransform="matrix(1 0 0 -1 0 362)" gradientUnits="userSpaceOnUse"><stop offset="0" stop-color="#8e7c68"/><stop offset=".02" stop-color="#907e6a"/><stop offset=".4" stop-color="#aa9881"/><stop offset=".73" stop-color="#b9a790"/><stop offset="1" stop-color="#bfad95"/></linearGradient><path fill="url(#SVGID_16_)" d="M541.6 292.4c12.3-9.7 11.5 12.6 9.4 19.5-1.7 8.3-7.7 3.8-10.8-.1-4.3-5.4-4.2-14.9 1.4-19.4zm.6 18.1c4.1 5.1 5.2-6.5 5.7-8.5 0-1.1 1.5-8.9-2-7.3-3.7 3.6-6.7 11.2-3.7 15.8z"/><path d="M626.4 215.5c.4 1.9 1.5 6.3 2 8.2l1.8 4.5 2.2 4.2 3.4 4.4 3.9 4 3 2.2 3.3 1.8c1.3.6 4.1 1.5 5.5 1.9 0 0 3.7 1 7.7.9 6.1-.1 8.4-.2 11.2-.5l-.8-1.6c-.9-2.3 3.6-2 4-1.9 0 0-1.8-2.6-2.6-2.8-.9-.1-.7.2-.7.2s1.5 1.8.4 1.8c-3-.5-8.6-2.2-10.6-2.8l-.6-.5-.4-.7-.7-.3-.3-.4c-2 .8-3.1-1.9-3.5-2.9 0 0-.3-.6.6-.8l.9-.1v-.8c-.9-1.8.6-2.3 2-2.2v-.9c-.4-2.1 2.4-1.9 3.4-.4.6.7 1.3 2 1.3 2 .7.1 1.7-.2 2.7.3.5.4 1.5 2.2 1.5 2.4v1.8c1.6 0 1.9.4 5.4 1.7 4 2.1 4.1 3.6 5.7 5.7h2.6c1.4-1.8 4.1-5.4 5.5-7.2l1.3-.5 1 .2.4.9c0 .6 0 1.3-.2 1.9-.6 1.2-2 3.7-2.7 4.8h2.2c.7-.3 2.7-1.3 3.5-1.4l.7.1.5.7.1.6.4-.1h13.3c.9.5 7.2 2.5 8.3 2.9 1.2.4 4.4.7 5.7.7 2.4 0 5.7-.5 8.1-1 1.1-.1 2.2-.6 3.1-1.2v-.5c-21.2 1.8-32-12.9-35.1-33.6-1.9-22.7 7.4-45.4 32.5-44.2-1.7-1.1-.7-1.9-10.4-1.7-8.4.4-30.9 2.6-30.9 2.6-2.5.3-6.5.6-8.9 1-.8.1-2.6.6-3.5.8-.6 0-3 .2-3.6-.1v-.3c-3.6.5-13.7 1.5-16.6 1.8-3.6.7-6.7 0-10.6 2-10.7 5.3-17.9 19.3-18.8 30.6l-.2 4.4c-.1 1.5.3 5.6.6 7.4z" class="st18"/><path d="M677.8 243.6h2.5c-.3.4-1 1.2-1.4 1.6-.3-.3-.9-1.1-1.1-1.6zM670.8 243.6h2.7c1.4 1.9 3.1 4.5 5.6 5 0 0 .8-.2.5.1-.3.4-.8.7-.8.7l-.3.4c0 .6.1 1.4.4 1.9l.6.7c.4.2 1.3.3 1.7.3-.1.2-.3.8-.3 1.1.2.4.6 1.1.8 1.5l.7.3c.4 0 1.1.1 1.5 0-.1.4-.5 1.2-.6 1.6.1.5.5 1.3.7 1.7.3.2 1 .7 1.3.8l-.5.6-.3.9c.1.4.5 1 .8 1.3l.2.5c.3.2.9.4 1.3.5-.2.3-.6.8-.6 1.1l.1.7.4.8c.3.3.9.8 1.2 1v.3l-.2.4c-.1.2 0 .7 0 1 .2.3.5.9.5 1.3-1.4 0-1.3.7-7.2-5.7-6.7-8.2-9.7-16.4-11.5-19.4v-.9c.2 0 1-.4 1.3-.5zM685.9 243.5l2.2.2-4.1 2.5c.5-.6 1.5-2 1.9-2.7zM692.9 243.7l13.1.1 1 .1c.2.2 8 2.7 8.5 2.9-.6.4-1.6 1.7-7.2 4.2-5.1 2.2-6.2 2.9-7.2 3.9s-2 3.3-2 3.3l-.3-.5-.9-.1.3-.7c0-1.4-.1-3.2-2.2-3.2 0 0 1-1.3.1-2.2-1.5-1.4-1.3-1-2.4-1l1.1-.9c1.1-1.3-.7-2.7-1.7-2.8-.5.1-1.4.4-1.9.6.8-.6 1.6-1.6 2-2.5l-.3-1.2zM719 320.8s4.1 8.5 5.6 12.1c1.5 3.5 3.6 7.4 6.2 7.4 6.6-.4 19.8-9.9 21-17.6 2.7-8.8-5.5-4-9.2-18.6-.3.1-.8.5-1.1.7-3.2 5.3-17 14.3-22.5 16zM627.5 194.2l-.7 2.6-.2-1.4-1.8-17.1.4-.7 5.9-3.8 11.7-.3c-7.2 4.6-13.2 13.7-15.3 20.7zM698.5 189.7c12.6-41 47.6-6.1 93.6-47.4 5.6-19.8 27.4-51.8 53.4-52 23.6.5 39.2 17.7 50.3 38.8 25.3 47 26.4 126.9-12.4 166.8-15.3 16.6-42.5 16.3-60.2 2.4-8.9-7.5-14.2-14.6-14.2-14.6s-6.5-9.8-9.4-15.6c-2.9-5.8-2.8-6.1-2.8-6.1-13.1-9.7-40.6-18.9-58.6-17.4-7 0-12 .3-16.3-.5-23.2-4-29.4-36.6-23.4-54.4z" class="st34"/><path d="M637.6 267.6c-.3.7-.8 2.1-1.1 2.8-.8.1-2.2 1.4-2.9 1.9l-1.7 2.3c-.9 1.8-2.2 4.5-2.2 6.5.1.7.3 1.4.8 1.9l.5.2.2.7.4.4c.1.4.1 1.2.1 1.6l.2 1.2c.2.5.6 1.1 1 1.5l.1 1 .4 1c.2.3.8 1 1.1 1.2l.2 1.5 10.4 1.3.8-.1c1.5-.7 4.7-1.7 6.3-2.1-.2-.3-.7-.8-1-1l-.1-.7-.7-1.1-.8-.7-1-.4.2-.5-.4-.9-1.4-.9c.1-.4-.1-1.5-.2-1.9l-.9-1.1c-.2-.2-.8-.7-1-.9.1-.4 0-1.3 0-1.7-.3-.4-1-1.2-1.4-1.6l.3-1.2c0-2-.8-4-3-4.7.2-.6.1-2-.7-2.6l-.2-.3c1-2.7 3.8-8 5.1-10.5 1.8-3.8 3.5-9.5 4.2-13.6l-2.6-1c-.1 2.3-1.1 5.3-1.6 7.4-1.6 4.4-5.4 11.1-7.4 15.1zM666.8 236.3c1.4-.1 3.6.9 4.9 1.4.9.5 2.6 1.7 3.4 2.3 1.4 1.3 2.8 3.5 3.9 5.1 2.5-2.2 4.7-6.2 6.9-8.7l.9-.4 1 .1.7.4.4 1.1c-.5 2.5-3.8 6.7-5.1 8.8l5.5-3.4 2-.6.7.1.5.7c.2.5.2 1.2.2 1.7-.4.8-1.2 1.8-1.8 2.4l1.3-.4 1.4.1.7.5.3.7v.8l-.3.6-1.1 1 1.1-.1 1 .6c.4.6.7 1.4.7 2.1l-.6.6 1.2.1.7.6.5 1.2v.8l-.3 1 .9.1c.3.3.9 1.8 1 2.2l-.2 1-.5.7 1.3.5s.8 1 .9 1.7c.1.7-.3 1.8-.3 1.8 1.2-.3 2.5 2.9 1.5 3.7 1.4-.1 3.2 2.8 1.4 3.7 0 0 1.6-.1 2.2 1 .7 1.5.6 1.7.4 2.3l1 .1 1 .8.5.9v.7c-.2.3-.6 1-.7 1.4 2-1.1 4.3 2.7 2.2 3.8 2.7 0 4.3 1.6 3 4.3 1.4-.2 2.3.8 2.2 2.1l-.6 1.3-.9.8-1.4.6c2.5 0 4.6-1.2 4.8 2.3 0 0-.5 1.4-.9 1.6-.4.3-1.2.4-1.2.4l.3.3c1 .1 2.5-.4 3.2 1.2.2 1 .4 2.5-2.6 3.2l-2 .5c.7.2 2.5.3 3.3.4 0 0 2.2.3 2.3 1.1.1.9.2 2.4-1.9 2.8-3.8.7-4.3.4-6.7.6 1.2.3 3.7.7 4.9.8l2.6.1 1.3.4.6.8.1 1.5-.5 1.1-1.2.4c-2.2.1-6.2-.1-8.3-.5l4 1.4 4 .9s1.9.9 1.9 1.6c0 .7.1 2.2-2 2.4-2.1.2-4-.6-4-.6l-3.7-1.2 2.9 1.9c1.1.4 4.1 1.4 5 2.2l.5.8v1.4l-.8.7c-.8 0-2.6 0-3.4-.1-1.8-.7-5.3-2.4-7-3.4l.3.9 2.5 2 2.6 1.6c.7.4 2.8 1.4 3.5 1.8.8 1.3 0 3.7-2.8 2.9-4-1.3-4.2-2.3-6.9-3.8l1.7 2.2 2.7 2.2c.5.4 2.3 1.5 2.6 2v1.1l-.2.8c-1.4 2-4.9-.9-5.6-1.4-1.3-1.1-3.3-3-4.3-4.4v.8c.6 1.3 2.2 3.7 3.1 4.9.5.5 2.3 2.4 2.7 3l.2 1-.7.9-1.1.6-1.1-.5-1.4-1.2c-1.2-1.6-4.3-5.1-5.2-6.8l.2 1.9c1 2.5 2.7 5.8 4 8.1v1l-.4.6-1.7.7-.9-.1-.8-.6-2.3-4.6c-.5-1.2-1.3-3.8-1.6-5.1l-.2 1.4.2 2c.3 2.2 1.3 5.2 2 7.4l-.1 1.1-.4.7-1 .4-1 .1-.8-.3-.7-.7c-.6-2.3-1.5-7-1.8-9.3l-.3.2c-.6 2.6-.2 7.6-.3 10.2l-.4.9-.8.4-1.1-.1c-2 .1-1.8-4.8-1.8-5.2-.1-1.5 0-4.4.2-5.8-.4.6-.9 1.9-1.1 2.6l-.3 2.7c.1 1.5 0 3.6-.7 5-5.3 4.2-3.7-5.7-3.5-7-.5 1.8-1.1 4.5-2.2 6l-.7.7s-1.2 1-2.2.4c-2-.8-.8-5.2-.3-5.9-.4.8-1.6 2.9-2.2 3.6l-1.2.5-1.5-.7-1.1-1.3c-.2-.5-.4-1.3-.3-1.8l-.7.5-1.1.1-1-.4-1.1-1.1-.3-1.1c.3-1.6 1.2-3.9 2.1-5.3.5-1.8 1.4-4.3 1.5-6.1l1.6-.8c.7 0 2.5 0 3.1.2.3.2.8.5 1 .7.1.3.2.9.3 1.2.5.1 1.4.2 1.8.5.2.2.7.7.9 1l.1.8 1.1-.1 1 .4.7.5c.1.1.5.9.5 1l1-.3h.9l.8.3.7.6 1-.7c.5 0 1.6-.1 2.1-.1l.8.4.8-.7 1.1-.3h1l.6.3.6-.9 1.1-.7 1-.1 1.1.1.1-.9.6-.7c.7-.3 1.7-.5 2.5-.5v-1.1l.6-.9.8-.6 1-.3.2-.4v-.9l.6-.9.8-.6.8.1-.5-.7v-1.5l.4-.9.6-.5.7-.1.6.3c-.3-.5-.7-1.5-.9-2l.3-1.2.9-1c-.4-.4-.7-1.2-.9-1.7l.3-1.1c.2-.3.8-1 1.1-1.2l-.8-.5-.3-.8c0-.5.2-1.5.4-1.9l.6-.6-.7-.3-.6-.7-.2-1 .2-1.2.5-.9c-.3-.2-.8-.9-1.1-1.2l-.3-1v-1l.3-.8.5-.5-1.2-.1-1.1-.6-.5-1.1.2-1.5-.9-.3-.9-.8-.5-1.2c.1-.2.2-.8.3-1l-.8-.2-.7-.7-.3-1.2v-.9l.3-.7-.8.2-.7-.3-.6-.5c-.4-.8-.7-1.7-.6-2.6l-.8-.2-1-.7-.3-.7c-.1-.5 0-1.5 0-2-.5-.1-1.2-.3-1.6-.6l-.5-.6c-.1-.4-.3-1.4-.3-1.8l.3-.5h-.9l-.9-.5-.5-1c.1-.4.3-1.3.3-1.7l-1-.3c-.3-.4-.8-1.4-1-1.9l.1-.9.4-.7-.6-.1-1.1-1c-.1-.5-.4-1.4-.3-1.9l.5-.6-.8-.4-1.1-1.5-.1-.9.5-1.1H686l-.8-.7c-.2-.3-.6-.9-.7-1.3v-.7c.2-.2.7-1 .9-1.2l-.7-.1-.9-1-.5-1v-.8l.3-.6.5-.5-1.2.3-1-.4-.8-1v-.8l.3-1c-.4 0-1.2-.1-1.6-.2l-.8-.8-.4-1c0-.3 0-1 .1-1.2l1.3-.9c-.5 0-1.6-.2-2.1-.3-.7-.5-2-1.8-2.6-2.4l-2.5-3.1-2-1.9c-.9-.7-2.5-1.2-3.4-1.8l-.5-.8-.1-2.3zM834.6 92.2c12.3-4.6 39.7-2.9 59.4 33.6 32.2 52.3 28.5 173.6-39 182.9-88.9-4.1-92.5-193.1-20.4-216.5zM801 237.4c9 35.7 28.1 58.9 54.9 58.4 24.2-.4 42.4-28.8 48.1-61.3 5.7-32.5.2-66.1-16.5-98.6s-40.1-35.8-50.5-31.6c-39 15.6-48.7 82.6-36 133.1z" class="st35"/><path d="M654.5 235c-.4-.8 1.4-.7 1.6-1-.9-2.4-.6-2.8 1.9-2.7 0 0-.8-2.4.4-2.5 1.3-.1 1.8 0 2.6.7s1.3 2 1.3 2l.5.4s1.9-.2 2.4.2c.6.5 1.6 2 1.6 2.8 0 .8 0 3.2.2 3.8.3.6 1 .7 1 .7l1.1.5 2 2.1-.1.5-.5.3c-1.9-.4-9.1-2.3-10.9-3.2-.1-.2-.4-.7-.5-1-.4-.2-.9-.6-1.2-1-.2.1-.9.2-1.1.2-.7-.2-1.7-1.7-2.2-2.3l-.1-.5zM645.6 172.4c.3-.1 1.5-.7 1.8-.8v-.3l-.1-6.6s.3-1.4 2.6-1.7c2.3-.3 6-.5 6.3-.3.6.6.5 1.6.6 2.3l2.1-.8c-.1-.6-.3-1.9-.5-2.5l-1.3-.8-1.8-.5c-2.7.3-10.7-.3-10.2 5.3l.5 6.7z" class="st36"/><path d="M652.5 167.5s5.3-2.7 6.8-3.3c2.3-.9 2.9-.8 4.1-1.2 1.4-.2 5.7-.9 7-.7l.4.6 3-.4 7 .2.1.6c-.2.4-.5 1.4-.5 1.8l-.6.7-.3.2.2 1.7 1.8-.2.4.1c0 .2-.1.5-.2.7 0 0-1.7.2-1.8.4-1.2.4-3.1.6-4.2.8l-1.4.3-2-.1-.4-.3c-1.1 0-13 1.5-15 1.6l-3.3-.4-.8-.5-.5-1.4v-.6l.2-.6z" class="st36"/><linearGradient id="SVGID_17_" x1="471.81" x2="643.27" y1="199.81" y2="206.76" gradientTransform="matrix(1 0 0 -1 0 362)" gradientUnits="userSpaceOnUse"><stop offset=".35" stop-color="#f2b58d"/><stop offset=".55" stop-color="#efb189"/><stop offset=".75" stop-color="#e5a67c"/><stop offset=".85" stop-color="#de9e74"/></linearGradient><path fill="url(#SVGID_17_)" d="M633.2 171.9c4.4-15.5 6.7-32.9 9.8-48.6.8-8 1.8-18.7 1.1-27.7-.2-2.1-.5-11.4-.5-11.4l-1-8.6c-.7-3.1-2.5-10.8-3.5-13.7l-.7.2.3 7.1-.4 8.2-.8 7.1-1.7 8.1-3.2 10.3-4.7 9.8 2.8.5s3.1.4 4.3 1.8c1.7 2.3 2.7 4.8.8 6.3-1.2.5-2 .1-4.2-1.7s-6.3-1.9-6.3-1.9c-1.6 2.1-5.3 6.9-7 9.1l-8.1 7.5-3.9 3.9-4.1 2.6-3.6 1.6-.3-.9 3.6-3c4.5-5 6.9-7.4 11.5-15 3.3-5.9 7.3-14 7.3-20-.3-2.1-1-6.3-1-6.3-1.2 23.2-18.8 41.7-38.4 51.6.5-2.4.7-11.9.8-14.5l-1.1-11.7c-1.4-7.2-4.7-17.1-7.5-23.8l-5.4-9.4-4.5-6.3s-2-3.3-5-6.2c-4.7-4.4-5.5-5.4-8.3-6.9l-1.7-.3c.9 1.3 3.2 5.5 4 6.9l2 8c.4 3.5.9 10.7.9 14.3l.5 5.1c.4 1.6 1.3 5.2 1.8 6.7l-1.5-1c-3.7-4-7.4-10.8-10-15.5l-.2 1.7c1.1 5.3 3.7 13 5.6 18.1.3.8 1.9 4.1 1.9 4.9l-6.2-3.9-4.7-3.9-10.2-11.3c-1.7-2.5-5.1-8.2-6.6-10.8l-3.1-7.7c-1.2-3.4-2.4-8.4-3.1-11.9l-.8 1.5-.7 3.8-.5 4.8.4 6.2 1.1 6.1 2.1 7c1.1 2 3.3 6.2 4.4 8.2-3.2.3-10.9-4-13.9-5.1 0 0-5.9-2.7-8.5-4.4-7.2-5.2-11.4-9-16.6-13.5 2 3.4 7.7 15.1 9.5 19 2 4.8 5.2 14.7 6.5 19.7 3 13.5 2.6 36.9 1.5 50.1-.3 7.2-.6 17.6.5 24.7l1.2 4c.4.9 1.8 4 2.4 4.9-5.1-1.4-10.5-9.3-13.3-12.9l-5.5-7.9c-2.1-3.9-5.3-9.8-7.2-13.9l-.7.4c1.1 5.1 4.6 12 6.9 16.7 2.3 3.2 5 8.1 7.4 11.2l-1 .2c-3.8-1.6-8.8-7.4-11.8-10.2-4.5-4.6-8.9-12.1-12.5-17.3l-2.9.9-5.1 2.9c-4.9 3.2-8 13.7-7 20.6 1.1 14.9 12.1 29.7 30.6 29.4 7-.7 13.4-3.5 13.4-3.5 3.2 5.6 17 13.3 23.9 16.3 4.7 2.5 15.8 7 19.8 7.5 19.9 7.3 42.5 5.6 58.9-.2l11.6-4.8 10.1-6.1c1.1-.9 6-4.6 6.9-5.7l-2.6-6.2-1.8-7.9s-.9-3.2-.9-7.6l.1-4.2c.1-1.8.7-5.4 1.1-7.2-.4-4.3-1.7-14.5-1.9-18.8 1.6-1.4 4.2-3.1 6.1-4.2l1.8-.1.5-1.9z"/><path d="M554.9 197.1c-8.8-5-14.4-20.9-12.9-31.1.6-3.3 2.1-8.8 8.7-11.8s9.5-1.8 14.3 2.9c2.9 2.8 8.4 15.1 9 18.5 2.7 11.8-5.4 27.4-19.1 21.5zM625.2 182.5c-4.5 7.8-15.7 11.9-21.1-2.4-1.9-6.4-3.4-20.2 3.5-27.8 8.4-8.2 15.2-3.5 18.3 5.8 1.9 6 3.7 12.6 1.9 18.1l-1.5.9-1.3 1.2.2 4.2zM590.6 215.9c1.8 2 6.4 1 7.8-.9 0 0 2.2.8 3.5.1 2.2-1.4 1.9-1.7 2.3-3.2-.9.1-2.6 0-3.5-.1l-4.2 1.1-3.7 1.6-2.2 1.4z" class="st34"/><linearGradient id="SVGID_18_" x1="522.69" x2="553.09" y1="219.98" y2="228.96" gradientTransform="matrix(1 0 0 -1 0 362)" gradientUnits="userSpaceOnUse"><stop offset=".3" stop-color="#efbd50"/><stop offset="1" stop-color="#ddab47"/></linearGradient><path fill="url(#SVGID_18_)" d="M525.6 147.5l-1-.3-.6-.9.1-1.9 3.7-4.6 5.2-4.4 5-3.4s3.3-1.7 5.9-2.4c2.6-.7 7.8-.7 8.7 1.7.8 2.3-.7 4.1-3.5 5-2.9.9-7.5 2-11.2 3.8-3.7 1.8-8.1 5.5-8.1 5.5l-2.9 1.7-1.3.2z"/><linearGradient id="SVGID_19_" x1="625.27" x2="636.03" y1="242.77" y2="245.94" gradientTransform="matrix(1 0 0 -1 0 362)" gradientUnits="userSpaceOnUse"><stop offset=".3" stop-color="#efbd50"/><stop offset="1" stop-color="#ddab47"/></linearGradient><path fill="url(#SVGID_19_)" d="M624.9 117.8l3.8.5 3.7 2 2.2 1.7 1.4-.3 1-1.4-.1-2.1-.7-1.6-1.3-1.9-2-1.1-5.1-.9-2.9 5.1z"/><linearGradient id="SVGID_20_" x1="400.04" x2="666.16" y1="238.74" y2="258.52" gradientTransform="matrix(1 0 0 -1 0 362)" gradientUnits="userSpaceOnUse"><stop offset=".3" stop-color="#efbd50"/><stop offset=".83" stop-color="#ddab47"/></linearGradient><path fill="url(#SVGID_20_)" d="M629 111.1l-6.3 10.1-8.8 10.6c-4.2 3.5-10.4 8.9-15.4 11l.2-1.5c5.2-5 11.2-11.5 14.7-17.9l2.5-4.4 2.8-6.3c.7-2.3 1.7-6.9 2.1-9.2l-.9-1.6c-.7 1-1.9 6.1-2.3 7.3-1 3-3.6 9-5 11.8l-4.8 7-6.6 7.3-6.3 5.4a239 239 0 01-13.7 8.4l.6-6.4-.2-11.1-1-9.9-1.8-8.3-3.3-9.9-3-6.8-4.6-7.3-4.6-7-4.5-5.5-3.3-3.1-2.5-2.2-2.7-1.6-1.5-.5 2.2 3.7 2.3 5.6c.6 2.7 1.7 8.9 2.2 11.7.1 2.3.5 10.8.9 13l1.8 7.2-2.6-2.2-3.2-3.9c-1.5-2.7-4.6-8.2-6.1-10.8-.3 1.2 1.1 5.7 1.3 6.9l2.2 7.3 3.9 10-.1.8-2.1-.5-6.3-4.8-7.1-6.9-7.3-9.1-5.4-10.1-3.8-10.4-1.8-7.7-.6.5-1.2 5.8.1 7.6 1.1 7.5 2.8 9.5c.9 1 2.9 4.8 3.6 6.1l-1.3.4c-3.4-1.1-10.1-3.9-13.3-5.5l-6.7-3.8c-5.5-3.5-11.9-8.8-16.8-13.1.4 2.1 4.5 9.4 5.5 11.4l3.6 7.5 2.6 6.9c1 3.7 3.1 11.2 4.2 14.9l1.2 8.8c1 11 .6 24.1.1 35.1-.5 8-.8 19.2.1 27.1l1.6 5.7 1.5 3.1.7 1.3c-3.4-1.6-4.5-2.3-8.2-6.4-1.7-2.1-5.1-6-5.1-6l-3.8-6.1c-2.9-4.4-6.7-10.8-8.5-15.8l-1-.5c-.2 3.3 3 9.1 4.2 12.2 2.5 5.5 6.9 11.7 10.1 16.8l-3.9-2s-3.8-3.3-3.5-3l-5.4-5.3-6-7.4-5.5-7.4-1.3-2.7c-8.3 1.9-14 8.3-15 16.4l-.1 7.3c-.3 6.9 6.4 20.4 13.7 25.3 9.1 6.2 21.8 5.8 30.1 1.2 2.4 2.4 7.6 6.8 10.3 8.9l7.2 4.2-.7.7-5.3.7-6 .1c-1.6-.2-4.9-.7-6.5-.9-1.2-.5-3.8-1.4-5-1.8l.4 1.4 3 3 5.6 3.4c1.9 1 6.1 2.7 8.2 3.4l-3.9.6s-6.5-.7-6.3-.5c-4-.6-12.5-2.7-16.4-4l-9-3.3-12.3-6.1s-8.7-5.8-8.5-5.6c.2.2-9.8-8.3-9.8-8.3l-10.4-12c-3.7-5.4-11.1-16.1-14.4-21.7l-8-14.5-6.5-15.1-6.7-20.9c-1-5.4-2.7-16.3-3.3-21.7-.2-6.8-.1-20.6.5-27.3l1.9-10.9 3.2-11.7 3.5-8.9 4.6-8.4 5.2-8.1 5.5-6.8 8.5-8.2 7.3-6.1c3.8-2.7 11.7-7.6 15.9-9.8 11-6.5 27-12.7 39-16.9l13.1-3.5c6.4-1.3 19.4-3.5 25.9-4.1l13-.8 11.8.8 11.6 1.5 10.1 2.1 10.7 3.3c3.9 1.7 11.7 5.5 15.4 7.7l7.4 4.8 7.6 6.1 6.9 6.2c2.9 3.2 8.7 9.8 11.4 13.2l4.8 6.6 6.9 11.6c2.2 4.6 6.8 14.7 8.5 19.4 2.3 7.5 5.3 18.5 5.9 26.3-2.8-5.5-6.9-13.3-10.5-18.3-3.2-4.8-8.9-12.7-13.2-16.6-.2 1.4.5 7 .7 8.6l.4 8c-.2 3.9-.8 12-1.5 15.9-1.9 6.6-5.2 16.3-8.1 22.7z"/><linearGradient id="SVGID_21_" x1="430.06" x2="445.71" y1="130.13" y2="142.22" gradientTransform="matrix(1 0 0 -1 0 362)" gradientUnits="userSpaceOnUse"><stop offset=".3" stop-color="#efbd50"/><stop offset=".92" stop-color="#ddab47"/></linearGradient><path fill="url(#SVGID_21_)" d="M456.3 229.8l.4-.9c-2.9-1.9-8.8-6.8-11.4-9.2l-8.6-10-2.3-1.6c-.3.6.1 4.6.2 5.3.1 4.9-.4 10.7-1.9 15.4 2.5-1.7 5-5.2 7-7.3.9 5.3-.4 11.6-2 16.6l-2.1 5.6-2.1 3.5.5.3 4.5-2.1 6.1-4.5 7.8-6.6 3.9-4.5z"/><linearGradient id="SVGID_22_" x1="390.22" x2="434.36" y1="367.4" y2="322.13" gradientTransform="matrix(1 0 0 -1 0 362)" gradientUnits="userSpaceOnUse"><stop offset=".3" stop-color="#efbd50"/><stop offset=".92" stop-color="#ddab47"/></linearGradient><path fill="url(#SVGID_22_)" d="M395.1 90.7c-.1 1.9-.4 7.1-.3 8.9-5.5-7.3-10.2-18.3-14-26.6l-5-13.2-3.7-15.4c-1.6-9.4-1.7-23.6 3.7-33.7 12.4-23.5 39-38.4 65.6-39.7 16.3.7 34.5 8.9 43.6 20.8l-6.7 2.5c-7.6-5.6-23.6-1.5-32.6 3.2-12.2 6-24.4 18.1-24.4 30.9l.2.5s-4.5 5.2-7.3 8.5c-5.8 7.1-10.1 17.3-12.9 23.7L398 71.8c-1 4.6-2.6 14.3-2.9 18.9z"/><linearGradient id="SVGID_23_" x1="414.26" x2="476.08" y1="340.85" y2="366.89" gradientTransform="matrix(1 0 0 -1 0 362)" gradientUnits="userSpaceOnUse"><stop offset=".07" stop-color="#a91f18"/><stop offset=".15" stop-color="#c31e12"/><stop offset=".23" stop-color="#d81c0d"/><stop offset=".28" stop-color="#e01c0b"/><stop offset=".72" stop-color="#e01c0b"/><stop offset=".87" stop-color="#bf1e13"/><stop offset="1" stop-color="#a91f18"/></linearGradient><path fill="url(#SVGID_23_)" d="M475.1-4.6l3.4-1.3c-.3-.5-3.6-1.4-4.1-1.6 0 0-7.9-1.3-12.6-.5-4.7.7-10.8 3-15.4 5.1-8.8 3.3-19.8 14.4-23.2 21.8-1.5 4.3-1.4 5.3-1.9 8.3l.4 1.4c2.3-2.3 7.5-7.1 10-9.2l11.7-8.2 11.3-6.3 10.4-5.3 10-4.2z"/><path d="M591.8 225.8s.6-.8 1.9-1.6c1.4-.8 4.6-1.6 4.6-1.6l1.3.3c0-1.8 5.3-1.9 5.6-1.9l1.7.7-1.4 1.9-2.6 1.7-2.8 1.1-3.1.4-2.5-.2-2.7-.8z" class="st18"/><linearGradient id="SVGID_24_" x1="681.68" x2="715.57" y1="116.8" y2="41.1" gradientTransform="matrix(1 0 0 -1 0 362)" gradientUnits="userSpaceOnUse"><stop offset=".22" stop-color="#f2b58d"/><stop offset=".47" stop-color="#efb189"/><stop offset=".73" stop-color="#e5a67c"/><stop offset=".85" stop-color="#de9e74"/></linearGradient><path fill="url(#SVGID_24_)" d="M652.9 302.6l.7-3.3 1.1-2.2 1.6-.8 3-2.5c3.3-2.8 10.8-8.4 14.4-10.9 1-.8 6.2-5 6.7-6.1 1.1-1.9 3.6-5.8 4.8-7.7.5.5 1.8 1 2.5 1.3h.2c.4.2 1.2.6 1.5.9l-.5.8v1.1l.5.9.8.6.9.2-.4 1.1.1.9.4.7c.5.3 1.3.5 1.8.5-1.4 1.2.7 3.6 1.8 3.6.1.3.1 1.1 0 1.5l.6 1.5c.3.1 1.4.7 1.6.9l.2 1.4.4 1 .6.5.7.3.8-.2-.3.9v1.1l.5 1c.3.2 1 .6 1.4.7l-.3.4v.7l.8 1.6c.3.1 1 .4 1.4.4-.1.4-.2 1.3-.1 1.8.1.3.6.8.8 1.1.4.3 1.1.5 1.6.5-.3.3-.7 1.3-.8 1.7l.4 1.5 1.1 1.2c-1 1.2-.6 3.1.6 3.9-1 1.1-.9 3.1.2 4-1.3 1.3-1.4 2.4-.3 3.9-.8 1-1.8 1.9-.7 3.3l.2.9c-1.8-1.1-2.2 1.9-2.1 2.5l.3.8c-.3.2-1.3.7-1.7.9l-.4.6v.9c-3.7.6-14 .4-17.4-2.9.4.5-28.5 7.6-29.4 7.9-.8-3.4-1.4-4.5-2.7-12.9-.4-5.9.1-14.4.1-14.4zm54.3-51.2c-1.2.6-4.4 2.2-5.5 2.9l-1.2 1.3-1.5 2.6.6 1.9-.1 1.1-.3.5.8.1c.4.5 1.1 1.5 1.2 2v1l-.3.8.8.2.7.7.5 1.4-.3 1.2c1.8.6 2.2 2.2 1.6 3.8 1.8-.1 2.5 2 2.5 3.4 1.6-.6 3 2.6 1.4 3.7-.9.7 1.1-.4 2.1.2 1 .6 1.1 2.3 1.1 2.3l-.6 1.4 1.3.2 1.4 1 .4 1.5c-.1.3-.2 1.3-.3 1.5 2.3.1 2.4 2.7 1.1 3.9l-2 1.2s3.1-.6 4-.2c.8.4 1.3 2.5.7 3.3s-1.6 1.4-1.6 1.4c1.3.3 2.3-.3 3.3 1.3 1.7 2.9-4.6 3.6-5.5 3.9.3 0 7.2-.4 6.4 2.3 0 .6-.3 1.6-2 2-1.7.4-6.6.4-6.6.4l3.6.8s2.5-.1 3.5.1c2.8.2 3.7 4-.1 4.3-2.1 0-7.1-.4-7.1-.4 1.9.7 5.8 1.9 7.8 2.3 0 0 1.2.7 1.5 1.2.3.4.1 2.4-1.8 2.7-1.9.3-4.6-.8-4.6-.8l-3.3-.8 3.7 2.2 2.9.9 1.4.9c6.6-1.4 19.6-11.1 23.3-16.5l.8-.4s.8 3.3 1.9 5.4c1.1 2.2 1.4 2.3 1.4 2.3s2.7-1.9 4.6-5.7c2-3.7.1-10.8-.4-11.4-.5-.5-2.5-2.1-2.5-2.1s1.6.6 4-3.3 2.2-7.9 1.9-9.3c.1-2.9-5.4-5.3-6.6-6 2-1.5 6-10.6 5.1-13.4-.9-2.5-4.7-6-6.4-6.1.8-3-2.9-8.3-4.6-9.8H732s-.9 1.9-6.9 2.3c-6 .4-6.6.4-6.6.4l-3.2-.6c-2.2 1.6-5.5 3.7-8.1 4.6z"/><linearGradient id="SVGID_25_" x1="664.7" x2="709.24" y1="302.88" y2="203.41" gradientTransform="matrix(1 0 0 -1 0 362)" gradientUnits="userSpaceOnUse"><stop offset=".22" stop-color="#f2b58d"/><stop offset=".47" stop-color="#efb189"/><stop offset=".73" stop-color="#e5a67c"/><stop offset=".85" stop-color="#de9e74"/></linearGradient><path fill="url(#SVGID_25_)" d="M644.1 111.2l-.7 8.5s1.4 1.9 3 3.1c1.7 1.2 3.5 3.9 3.5 3.9s2.6 3.1 4.2 6.9c1.6 3.8 2.1 7.1 3 8.6 1.8 3 2.8 8.3 3.9 11.5.2 1.3 4.6 8.3 5.9 8.8l3.2-.3.4.1.5.6 2.5-.5h7.2s.1 1.5-.5 2.5c-.6 1.1-.7.8-.7.8l.2 1.7 2-.3v.8c5.8-.5 17.6-1.4 23.4-2 3.9-1.5 10.2-4.6 13.1-11.2 2.7-5.4 3.4-15.5 3.4-15.5s.7-9.1 1-11.7c-.1-5.1 5.3-22.5 6.7-27.4 2.3-6.2-4-11.2-9.2-9.2 0 0 2.5-4.9 2.7-8 .2-3-.7-5.7-4-7.7-3.2-2-8.7 1.3-8.7 1.3s.6-6.9-5.6-9.2c-6.2-2.3-11.9 4.9-11.9 4.9s-1.7-2-6.3-1.2c-4.6.7-6.8 6.2-6.8 6.2l-2.1 6.1-2 10.2c-1.1 8.4-3 24.7-1.9 34.2 0 0-4.4-5.3-7.1-8.8-2.6-3.5-4.8-7.8-10.8-10-7.1-1.7-10.2 1.5-11.5 2.3z"/><linearGradient id="SVGID_26_" x1="567.87" x2="584.26" y1="125.19" y2="88.59" gradientTransform="matrix(1 0 0 -1 0 362)" gradientUnits="userSpaceOnUse"><stop offset=".22" stop-color="#f2b58d"/><stop offset=".47" stop-color="#efb189"/><stop offset=".73" stop-color="#e5a67c"/><stop offset=".85" stop-color="#de9e74"/></linearGradient><path fill="url(#SVGID_26_)" d="M556.3 250s1 2.7 1.4 4.5c.4 1.9.4 3.6.4 3.6s1.1 2 3.7 4.9c2.6 3 7.7 7.6 7.7 7.6.5.6 1.7 2 2 2.7 5 2.4 16 5.4 19.1-4.4 2.3-5.8 1-10.7-1.9-13.7.8-1.3 3.2-5.1 4-6.3-8.5 3.6-28.7 2.9-36.4 1.1z"/><radialGradient id="SVGID_27_" cx="269.5" cy="459.03" r="1" gradientTransform="scale(-8.7819 8.7819) rotate(26.24 1043.5 -474.73)" gradientUnits="userSpaceOnUse"><stop offset=".74" stop-color="#4f6081"/><stop offset="1" stop-color="#324365"/></radialGradient><path fill="url(#SVGID_27_)" d="M567.3 179c-.4-3.8-4.3-8.1-7.5-8.2-3.3-.1-8.4 1.7-9.5 6.2-1.1 4.5 1.9 9.8 5.8 11.6 3.8 1.9 12-.9 11.2-9.6z"/><radialGradient id="SVGID_28_" cx="272.78" cy="458.81" r="1" gradientTransform="scale(-7.9018 7.9018) rotate(26.25 1034.66 -510.52)" gradientUnits="userSpaceOnUse"><stop offset=".74" stop-color="#4f6081"/><stop offset="1" stop-color="#324365"/></radialGradient><path fill="url(#SVGID_28_)" d="M618.6 172.7c-.3-3.4-3.8-7.2-6.8-7.3-2.9-.1-7.6 1.5-8.6 5.6s1.7 8.8 5.2 10.4c3.6 1.6 11-1 10.2-8.7z"/><path d="M486.8-5.2c41-14.1 82.1 13.4 97.6 51.3-17.5-36.9-56.1-63.2-97.6-51.3zM458.6 15.1c11.8 28 23.5 58 47.9 77.6-25.7-18.2-37.8-48.8-47.9-77.6zM423.6 36c-12.5 26.9-15.5 57.7-6.1 86-11.3-27.8-8.2-59.9 6.1-86zM411.7 119.5c8.9 19.6 16.7 40.4 31.1 56.7-15.9-15.1-23.9-36.5-31.1-56.7zM461.1 160c-8.1-14.2-11.2-30.7-12.7-46.8 3.4 15.8 6.4 31.9 12.7 46.8zM472.8 4.8c19.8 9.5 35.4 27.3 45.7 46.4-12-18.1-26.9-35.2-45.7-46.4zM510 29.7c14.5 14.2 24.4 32.6 31.5 51.5-8.8-18.1-18.4-36-31.5-51.5zM463.4 8.1c12.3 10.1 21.2 23.8 29.4 37.2-9.9-12.3-18.4-25.8-29.4-37.2z" class="st49"/><path d="M430.3 29.1c-5.2 14.4-10.2 29.3-9.7 44.7-2.4-15.4 2.7-31.1 9.7-44.7zM411.4 48.7c-2.9 8.7-4.1 17.8-5.9 26.8 0-9.1 1.2-18.8 5.9-26.8zM443 21c4.1 18.6 10.3 36.8 18.4 54-9.8-16.3-16.2-35-18.4-54zM435.4 26.6c0 9.6 1.4 19.1 2.1 28.7-2.6-9.2-4-19.2-2.1-28.7zM453.3 17.8c2.9 6.1 5.3 12.4 6.8 18.9-3.3-5.9-5.7-12.3-6.8-18.9zM483.2 1.2c9.5-.1 18.7 4.8 25.1 11.7-7.6-5.4-15.9-9.8-25.1-11.7zM584.4 29.4C600 53.5 615 91.3 603 119.3c10.1-28.8-4.6-64.5-18.6-89.9zM609.9 111.6c-1.5 10.2-9.4 18.4-17.3 24.6 6.6-7.6 14-15 17.3-24.6zM598.7 2c21 16.6 34.2 43.3 34.5 70.1C630.9 45.6 618.3 20 598.7 2z" class="st49"/><path d="M626.4 58.2c4.7 14.9 5 31.4-1.3 45.9 4.4-15 4.1-30.6 1.3-45.9zM459.7 63.4c13 22.7 29.3 44.8 33 71.4-5.5-26-21.6-47.8-33-71.4zM491.1 110.7c9.6 21.3 6.6 44.9 6.9 67.5-1.6-11.3-.7-22.7-1.2-34.1-.3-11.4-2.4-22.6-5.7-33.4zM491.7-3c13.9-2.1 29.8 1.7 39.7 12C520.3.2 505.7-3.1 491.7-3zM565.6-6.5c17.6 4.8 33.8 16.5 42.2 32.9-10-15.2-25.4-26.2-42.2-32.9zM454.5 216.4c-15.8-12.2-25.5-30.8-33.9-48.5 10.1 16.8 19.4 35 33.9 48.5zM439.4 185.7c-12.1-11.9-19.5-27.8-25-43.7 7.2 15.2 14.3 30.6 25 43.7zM429.7 2.6c-9.4-4.7-22.7-2.2-31.3 3.3 7.3-7.2 23-9.9 31.3-3.3zM417.3 23.1c-12.9 1.5-26 10-28.8 23.2.8-13.9 15.6-23.8 28.8-23.2zM422.6 13.6c-7.9-.9-15.7 1.3-23.1 3.9 6.6-4.4 15.6-6.7 23.1-3.9zM398.3 41.5c-5.3 12.2-4.8 26-2.7 38.9-4-12.4-4.4-27.5 2.7-38.9z" class="st49"/><path d="M633.6 114.1c2.7-4.6 6.9-14.6 7.8-22.7 1.4 4.1 2.9 17.8 2.5 22.4.7-28.2.4-24.5-2.1-41.7l-3.2-10.4-.8.7c.5 6 .4 14.4.2 20.3l-2.5 11.5-2.4 7.6-2.8 6.4-2.8 4.7 2.7.3 3.4.9z" class="st50"/><path d="M629.5 119c-1.9-.8-2.8-1-4.6-1-5.8 8.7-19.7 22.8-28.5 26 3.1-3 5.8-5.9 13-14.4 6.2-6.8 13.9-25.2 10.7-31.8-1.6 22-18.9 42.5-38.7 51.2 2.5-17.7-.7-37.8-9.8-53.9-5.5-9.8-15-22.8-24.3-26.7 7.2 7.3 8.3 23 8.6 33.1.6 6.5 1 6.4 2.1 9-2.4-1.2-3.1-2-7.1-8.1-4.2-7.3-3.9-8.5-5.9-12 .2 3.6 6.2 26.6 9.3 28.6 0 0-.7.1-2.9-1.6-2.1-1.7-6.4-4.5-11.3-9.1-10.3-10.1-18.9-27.2-20.2-39.8 0 0-2.4 5.8-2 16.2 1.3 13.4 5.6 18.5 7.4 22.1-2.4-.3-8.9-3.1-14.2-5.6-3.5-1.9-9.2-4.9-15.7-10.3C489 85.6 485 80.8 485 80.8l-.5-.1s3.8 7 5.6 9.7c4.4 6.7 10.6 23.6 12.4 31.6 1 4 2.5 14.3 2.5 21.7v15.2c-.1 8.8-3.5 39.1 3.5 47.5-6.5-1.9-12.5-11.8-15.9-16 0 0-5.4-9.4-7.7-13.7-2.3-4.3-3.8-9.5-3.8-9.5 0 10.1 9.4 26.5 16.3 34.7-8.5-3.8-21.8-22.4-26.3-29.3 4.2 9.5 19 31 32.2 36.6 0 0-1.4-2.3-1.8-5.1 2.9 3.5 9.4 6.1 9.4 6.1-11.7-22.1 9.2-87-11.7-110.4 0 0 19.5 13.2 31.4 12.9-5.7-7.9-8.5-24-8.5-24 5.2 12.3 19.5 32.8 38.1 33.8 0 0-8.7-8.4-8.6-14.9 4.3 6.2 12.8 8.1 12.8 8.1-6.7-8.8-7.5-22.3-6.2-31.5 11.5 12.3 25.6 47 16.4 68 0 0 12.4-2.4 18-7-.7 1.4-3.3 3.6-3.3 3.6 10.2-3.2 30.6-16.3 39.5-27.2 1.9-1 4.6 5.4 7.3.4-1.4.5-2.5-.1-3.4-1-1.1-1.2-3.2-2-3.2-2zM593.3 236.2c4.4 1.6 10.5.3 13.5-3.8-2.1 2.3-10.8 4.5-13.5 3.8zM577.6 201.5c2.9-18.4 37.9-17.5 31.6-.1 0 0 2.1-7.1-7.3-9.7-11.9-2.8-21.4 3.8-24.3 9.8z" class="st50"/><path d="M523.9 146.9s.4 2.9 4 1c3.6-1.8 10-7.4 17.3-8.9 7.4-1.5 9.2-4.2 7.7-6.6.5 1.5-.9 3-6.2 4.4-5.3 1.4-10.7 3.5-14.4 6.2-4.9 3.1-5.5 5.2-8.4 3.9zM476.2 194s-4.1-1.8-10.3 4c3.2-2.4 9.1-2.3 10.8-1-1 2.1-.4 7.3 1 9.5-1.1-3.3 2.3-7.7 2.9-7.9.6-.1 9.2 4.1 10.8 8.3 1.6 4.1-2.6 2.9-2.5 6.8.1 3.9 6 4 6 4-4.4-.8-2.9-7.1.1-7.8 1-4-5.3-7.9-9.2-11-5.9-4.2-5.9-3.8-9.6-4.9z" class="st50"/><path d="M455.7 196.4c3.1 22.1 22.6 34.1 44.2 23.8 1.7-.9-1.6.7 14.3 11.7 34.5 23.9 86.9 25.9 115.9-3.8l.9 1.6c-11.1 12.9-48.2 25.1-67.2 21.3-10.3-1.2-26.7-6.3-26.7-6.3-6.9-2.1-33-14.2-37.4-22-12.5 7-30.9 3.6-38.8-10.1-1.3-1.3-6.3-13.8-5.2-16.2zM544.1 182c-2.9-6.3-6.4-27.9 8.1-31.1 5.5-1.5 12.2.1 17.3 10.8 5.1 10.6 5.3 16.9 4.9 20.3 1.1-8.8-9.2-33.6-21.2-28.9-13.9 4.1-12.2 19.5-9.1 28.9zM602.4 170.8s-1.1-6.7 1.3-13.8c4.2-12.1 17.8-14.6 22.4-1.3 2.8 7.3 2.4 16.1 2.1 17.6-.2 1.5 1-3-.7-9.8s-5.2-14.7-10.2-15.4c-5-.7-9.8 3.1-11.8 7-3 6.4-3.1 10.9-3.1 15.7z" class="st50"/><path d="M553.4 182.7c3.6 7.6 13.8 2 10.8-5.3-2.9-7.2-14.7-1.6-10.8 5.3zM606 175.8c3.3 6.8 12.4 1.8 9.7-4.8-2.6-6.5-13.3-1.5-9.7 4.8z"/><radialGradient id="SVGID_29_" cx="321.68" cy="455.53" r=".99" gradientTransform="scale(-3.1716 3.1716) rotate(26.25 928.37 -848.97)" gradientUnits="userSpaceOnUse"><stop offset=".75" stop-color="#fff"/><stop offset="1" stop-color="#fff" stop-opacity="0"/></radialGradient><path fill="url(#SVGID_29_)" d="M608.1 168.8c1.9 3.7 7.5.9 5.7-2.8-1.8-3.8-7.5-1-5.7 2.8z"/><radialGradient id="SVGID_30_" cx="311.81" cy="456.19" r="1" gradientTransform="scale(-3.6073 3.6073) rotate(26.25 954.18 -747.73)" gradientUnits="userSpaceOnUse"><stop offset=".75" stop-color="#fff"/><stop offset="1" stop-color="#fff" stop-opacity="0"/></radialGradient><path fill="url(#SVGID_30_)" d="M556.8 176.8c4.7 0 4.7-7.2 0-7.2s-4.7 7.2 0 7.2z"/><path fill="#162136" d="M519.5 301.5s2.6 6.3 8 10.5c12.6 12.2 30.8 31.6 51.6 37.8.1-7.2.1-8.6-.1-10.4-17.2-2.5-43.2-24.2-53.6-32l-2.6-2.6c-.5-.7-2.5-3.2-3-3.9l-.3.6z"/><linearGradient id="SVGID_31_" x1="746.61" x2="746.61" y1="100.14" y2="220.09" gradientTransform="matrix(1 0 0 -1 0 362)" gradientUnits="userSpaceOnUse"><stop offset="0" stop-opacity=".3"/><stop offset=".05" stop-color="#252525" stop-opacity=".31"/><stop offset=".12" stop-color="#585858" stop-opacity=".33"/><stop offset=".2" stop-color="#848484" stop-opacity=".35"/><stop offset=".28" stop-color="#aaa" stop-opacity=".37"/><stop offset=".36" stop-color="#c9c9c9" stop-opacity=".4"/><stop offset=".44" stop-color="#e1e1e1" stop-opacity=".42"/><stop offset=".53" stop-color="#f2f2f2" stop-opacity=".44"/><stop offset=".63" stop-color="#fcfcfc" stop-opacity=".47"/><stop offset=".75" stop-color="#fff" stop-opacity=".5"/></linearGradient><path fill="url(#SVGID_31_)" d="M727.4 244.4c8 .4 9.9-.1 21.4.5 16 1.3 32.8 6.8 45.2 15.3.6.4 2.2 1.3 2.8 1.6-15-35.2-17.2-83.9-4.5-120-3.7 5.2-27.1 19.4-36.7 20.7-12.9 3.2-21.8 3.6-32.6 4.5-11.9 1.1-20.5 9-24.3 22.1-4.6 16.9-2.3 32.4 8.3 46.4 4.8 7.1 14.4 8.9 20.4 8.9z"/><linearGradient id="SVGID_32_" x1="796.5" x2="905.26" y1="162.6" y2="162.6" gradientTransform="matrix(1 0 0 -1 0 362)" gradientUnits="userSpaceOnUse"><stop offset="0" stop-opacity=".3"/><stop offset=".11" stop-opacity=".27"/><stop offset="1" stop-opacity="0"/></linearGradient><path fill="url(#SVGID_32_)" d="M796.7 175.5c2.6-22.6 9.1-48.4 28.8-64.5 8.1-5.5 12.6-8.3 19.5-8.2 13.7 0 24.5 8.7 32.6 17.5 3 3.5 8.1 11.9 10.7 17.1 8.3 16.7 13.3 32.7 16.2 50.8 2.7 18.7 1.9 39.7-3.2 58-8.3 30.2-31 62.9-67 44.3-13.2-6.8-24.4-25.9-28.5-38-5.7-14.7-8.2-30.8-9.6-44.6-.7-7.7-.6-18.3 0-26 0-1.5.2-4.8.5-6.4z"/><radialGradient id="SVGID_33_" cx="237.25" cy="460.02" r="1" gradientTransform="matrix(87.2983 0 0 -100.637 -19909.5 46493.98)" gradientUnits="userSpaceOnUse"><stop offset="0" stop-opacity=".5"/><stop offset=".11" stop-opacity=".45"/><stop offset="1" stop-opacity="0"/></radialGradient><path fill="url(#SVGID_33_)" d="M796.4 177.6c2.6-23.3 8.7-50 29.1-66.6 8.1-5.5 12.6-8.3 19.5-8.2 13.7 0 24.5 8.7 32.6 17.5 6.9 7.9 15.3 26.3 18.6 35.4 12.3 35 14.7 73.1-1.8 108.3-11.8 25.4-33.3 40.4-60.2 26.4-22.1-13.4-31.3-40.9-35.5-63.8l.7-.4 39.7-4.8c.5-.2 1.5-.7 1.9-1v-.2c1.8.3 4.7-.9 6-1.5 1.4.1 3.8-.2 5.2-.4.7-.1 1.9-.4 2.5-.8l.8-.8.5-1.1s.1-1.1-1-2c-1.1-.9-2.1-1.9-2.1-1.9l.4-.7s1.9-3.6 2.3-9.4c.4-5.8-.7-7-.7-7 .9-.7 2.7-2.1 3.4-3l.2-1-.2-1-.6-.9-1.4-.4h-3.5c-.7-1.3-2.2-3.4-3.2-4.5-1.2-.9-3.3-2.5-4.9-2.7.1-.7.5-3.4.2-4.1l-.5-1-1.4-.6h-2.6l-44 2.2z"/><path fill="#515151" d="M836.5 197.8c.5-14.7 12-17 16.1-3.7 1.5 3.2 1.2 19.1-5.7 20.1-8.4 1.3-10.6-12.1-10.4-16.4z"/><path d="M641.2 173.7c-3.1.2-8.2 3.4-10 6.2l.4 4.2s-3.3 2.3-5.3 8.7l.5 3.8c2-8.6 8.4-18.5 16-22.9h-1.6zM657.1 165.2c.1-1.1.2-3.7-1.4-3.7s-7.6.5-8.8 1.8c-1.1 1.2.2 8.5.2 8.5l.2-.1-.2-5.7s0-2.2 1.3-2.5c2.6-.5 6-1 7.5-.9l.6.5.2 2 .4.1zM686.5 242.7c6.1-1.5 18.4-.4 19-2.2.5-1.8-1.2-3.8-1.2-3.8-3.7-4-6.9-11.7-8.2-16.2-5-15.7-3.2-43.6 15-51.9 6.9-3.1 15.8-4.6 18.3-1.9-11.6-.3-22.7 4.1-28.1 16.3-9.8 17.9-4.3 55.5 19.3 60.7 4.6.9 11.5.7 11.5.7l-.2.5c-3.3 3-17.7 2.8-21.7 0-2.9-1.4-2.6-1.2-5.3-1.2-2.7 0-11.8-.1-11.8-.1-.4-2.4-4.3-.7-4.9 0l-2.1-.1.4-.8z" class="st20"/><path d="M792.3 259.1l1.9 1.1 2.6 1.7c-13.1-29.5-15.4-71.8-9.7-100.9-4.3 12.9-8.3 62 .1 85.4 1.8 5.9-10.7-1.3-33.7-3.2-23-1.9-31 2.9-41.6-4.7-10.5-7.6-14.5-22.1-15-26.3 1.1 11.2 9.3 29.4 24.2 31.4 8.3 1.6 13.3.4 19.1.6 19.3.9 37.2 5.4 52.1 14.9zM801.3 226.3c.5 6.8 1.3 13.7 2.5 20.8-4.9-16.4-3.3-10.3-5.1-20.5l2.6-.3zM801.2 197.9c-.5 7.7-.6 15.8-.1 24.1l-3 .4c-1.8-11.5-2.1-14-2.1-24.3l5.2-.2zM795.9 196.1c-1-18.6 4.5-49.6 12.3-63.3 8.5-15.8 28.7-40.5 54.6-24.8 13.8 7.6 22.5 22 27.4 33.5-29.9-56.8-77.4-23.3-86.4 35.7-6 0-2 2-.4 2-.9 5.2-1.6 10.7-2 16.4l-5.5.5zM836.5 196.4c-.9 17.6 17.5 25.5 16.7.7.2 1 1.2 10.2-2.5 14.2-4.3 5.4-8.4 3.1-11-.8-.7-1.2-1.9-3.8-2.3-5.2l-.7-3.5-.2-5.4zM851.9 213.6c7.3 4.6-2.1 5.4-4.7 5.2l1.5-.9 1.2-1.2c.5-.7 1.5-2.3 2-3.1z" class="st20"/><path d="M795.8 197.7c.1.2.5.4.5.4 1.7.1 36.1-1.4 36.8-.4 1.2.3 2.1.6 1.7 0-.4-.6-.8-1.3-3.4-1.7-2.6-.3-7.1-.2-8.9 0-9.4.5-14.4.5-23.8 1.3 0 0 .1-1.3 1-1.4.9-.1-4 .1-4 .1l.1 1.7z" class="st20"/><path d="M784.3 207.9c.2 25.1 20.5 97.2 71.4 96.8 51.5 2.3 63.9-91.4 56.4-125.6 0 0 1.8 13.5 1.9 19 .1 5.5-.1 16.6-.1 16.6-.1 8.1-3.4 27.8-6.1 37.1-9.1 32.4-34.8 70.8-74.9 51.8-34.8-17.3-44.9-61.7-48.6-95.7zM743 305.5c-.2-.7-1.3 1.1-2.6 2.9-1.3 1.8-5.2 7.5-11 10.8s-8.9 4.8-8.6 5.6c.3.9-.7-1.6-.7-1.6l-1.2-2.3s6.8-2.7 11.1-5.6c6.8-4.9 8-7 11.1-9.7.2-.3.9-1.2 1.1-1.5h.5l.3 1.4zM752.5 320.5c.1-1.1-.4-2.6-2.1-2.3-1.8.3-2.5 2.2-3 3.4-1 2.8-9.3 14.7-12.4 16.3-5.1 3.5-1.7 2.1.3 1.1l3.7-1.7 3.7-2.4s3.8-3.6 5.6-5.4c3-3.6 3.4-6.1 4.2-9z" class="st20"/><path d="M800 222.3c-1 .2-.6 3.4 3.6 2.8 4.2-.5 10.2-1.4 10.2-1.4l9.8-1.2s14.6-1.7 15.5-2c.9-.2 1.5-.4 1.6-1.7.1-1.2 0-2.6 0-2.9s.5-.3.8 1.1c.3 1.4.1 4-1.4 4.3-1.5.3-4.7.7-4.7.7l-36.7 4.3-.6-3.9 1.9-.1zM667.5 236.4c-.6.3-.1 1.5 2.1 2.5s4.7 3.6 6.5 6c1.8 2.4 2.8 2.8 5.2 1.7 3.1-1.3 6.2-5.7 7.2-7.6l-3.5 5.8s-.6 1.3-2.3 2.2c-1.6.8-3 1.8-3 1.8-2.9.7-5.5-4.7-7.9-6.7-2-1.8-3.9-2.5-3.9-2.5l-1.1-.7c-.1-.6-.2-1.9-.3-2.6l1 .1z" class="st20"/><path d="M658.2 238.2c2.4 1.1 8.7 1.2 10.9 1.6.5.4 1.3 1.2 1.6 1.7 0 0-3.6-.3-6.7-1.1-3.1-.7-4.9-1.4-4.9-1.4l-.1-.4-.8-.4zM678.6 250.1c0 .8 1.1 1.7 3.7.6s9.8-3.8 10.6-6.4c-.2 1-.8 2.4-3.1 3.6-2.3 1.1-5.9 3.1-5.9 3.1-.7.4-2.1 1.2-2.7 1.6h-1l-1.1-.5-.3-.5-.2-1.5zM645.7 250.2c1-.9 1.7.4.5 4.6a72.8 72.8 0 01-6.8 14.7c-.4 0-1.4-.7-2.4 0-.5.7-.3.9 0 .8.3-.1 1.1-.1 1.1-.1.5.1 1.4.3 1.8.5.7-2.2 3.9-8.6 5-10.8 1.5-3.2 3.9-9.8 4.3-13.7-.7-.2-2-.7-2.6-.9-.1 1.1-.6 3.7-.9 4.9z" class="st20"/><path d="M634 234.8c4.9 6 16.3 11.4 23.7 11-9.2-2.8-18.8-19.1-20.3-29.1-2.4-11.8 1.5-24.6 5.9-32.7-5 8.2-8.7 27.6-3.6 38.7 4.1 12 14.6 24.7 27.5 24.4-2.8.7-4.1 1.2-13.1.2-8.2-.7-17.5-8-20.1-12.5z" class="st20"/><path d="M673.2 243.2s-2.5-.6-4.1 0c-1.6.6-.2 2.2-1 2.6-2.6 1.9-14-2.7-14.9-3.6 0 0 4.9 3 8.8 4.1 3.9 1.1 5 1.1 5 1.1l3.3-.2s-1.4-2.3-.8-2.8c1.3-1 2.6-.7 3.9-.8l-.2-.4zM681.2 242.6l-3.9.1.5 1h2.6l.8-1.1zM681.1 253.4c.1 3.8 13.3-3.6 13.5-5 0-.6.5.6-.1 1.2-.6.7-3.8 2.5-3.8 2.5-1.3.7-5.6 3.2-6.9 3.6h-1.1l-1.2-.5-.5-1 .1-.8zM683.3 257.1c.7 3.1 12.5-3.3 12.7-4.9-.1-.4.4.5.3 1-.1.5-1.5 1.1-1.5 1.1l-9.2 5.3h-.7l-1.2-.7-.6-1.2v-.8l.2.2zM684.7 260.8c2 2.8 7.3-1.8 10.2-2.8 2.3-1 3.1-1.4 3-2.1 0-.7.1 1 .1 1l-.2.6c-2.6.9-6.3 3-8.7 4.4-.5.3-2 1.5-2.6 1.5l-1-.2-.6-.6-.5-1 .3-.8zM686 265c1.3 1.9 8.4-1.7 9.9-2.5 1.6-.8 3.6-1.7 3.6-2.6 0-.8.8.8-.8 1.7-3.2 1.6-8.9 5-10.8 5.5l-.7-.3c-.3-.4-1-1.3-1.2-1.8zM687.4 268.3c1.7 2.3 9.7-1.6 11.3-2.5 1.5-.7 2.5-1.1 2.5-1.6s.2.5.1 1c-.1.4-1 .9-1.4 1-1.8.7-8.7 4.2-10.2 4.6l-.8-.1c-.3-.2-.9-.8-1.2-1.1l-.3-1.3zM689.2 271.7c1.9 2.8 7.2-.6 10.4-2 2.6-1.2 3.3-1.6 3.3-2 0-.4.1.7.1 1.1 0 .3-1.2 1-1.2 1-2.4 1.1-8.1 3.7-10.3 4.9h-1l-.7-.5-.7-1.2.1-1.3zM691 275.4s1 1.8 5 .2c5.2-2.2 6.6-2.3 8.6-4.1 0 0 .4 1.3-1.4 1.9-3.2 1.2-9.1 4.4-10.8 4.4l-1.1-.4-.6-1.2.3-.8zM692.9 278.7c-.1 1 .6 1.7 5.1.3s7.2-2.6 7.6-3c.4-.4.6-1.1.6-1.1l.5.8v.6l-.7.7s-3.3.9-6.4 2.4c-3.1 1.5-4 2.5-5.4 2-1.5-.5-1.3-2.7-1.3-2.7zM695.2 282.4s2 1.8 5.1.1c3.9-2.2 7.3-2.1 8.4-4.6l.2 1.1-.5.8c-2.1 1.2-5.6 2.6-8.9 4.3-2.5 2-4.7.8-4.3-1.7zM697.4 285.7s1.2 1.9 4.5.6c3.3-1.2 6.9-2.3 7.8-2.7.9-.4 1.5-.9 1.4-1.3 0-.4.5 1.5-1.6 2.1-2.2.6-8.7 3.9-9.7 4.1-1.6.5-2.9-1.8-2.4-2.8zM699.7 289.1c-.2.7.9 1.9 5.4.3 4.5-1.7 8.6-1.8 8.6-2.8.3 0-.2 1.7-.2 1.7s-2.8.1-5.6.9-6.5 2.9-6.5 2.9l-1.3-.4-.5-1.4.1-1.2zM701.2 292.8s2 1.7 6.1.5 7.2-1.4 7.8-2.4c.5-1 .5 1.3-2.8 2.3-3.3 1-9 2.2-9 2.2l-1.6-.8-.5-.7v-1.1zM703.3 295.8s.3 1.6 6.1 1.3c5.8-.4 7.4-.3 7.7-.8.3-.4.1 1.2-3.1 1.6-4 .4-11.3 2.2-10.7-2.1zM705.5 299.6c-.5.5.2 2.3 5.7 2.1 5.6-.3 7.4-.7 7.5-1.1.1-.4.9 1.5-4.9 2-6.8.8-9.7 1-8.3-3zM706.1 303.8s.7 2.5 6.1 2.5 7 .1 7.4-.4c.4-.5.6 1.5-6.4 1.5-8.1-.1-7.8-.6-7.1-3.6zM707 307.4c-2.1 4.1 13.3 5.3 13.4 4.1.5-.7.4 1.2-2.8 1.2-4.1-.1-13.9-.6-10.6-5.3z" class="st20"/><path d="M706.9 311.4c-1.3 3.7 11.7 7.4 13.3 5.9-1.1 3.4-12.1-1.5-13.1-2.1-1.5-1-1-3.2-.2-3.8zM710.6 320.4c3.8 1.9 7.9 3.4 8.4 2.8.5-.6-.1 1.2-2.9.6-3.8-.9-9.2-3.4-10.2-6.2l.1-1.2c.1 0 .8 2.1 4.6 4zM704.3 321s1.7 3.5 6 5.4c4.2 1.9 6.2 2.1 6.7 1.3.5-.9.2 2.2-2.3 1.7-2.6-.5-6.9-3.4-7.8-4-1.4-1.3-1.7-2.4-2.4-3.2l-.2-1.2zM702.8 323.9c0 1 3.1 5.8 6.3 7.8 3.1 1.9 4.9 1.4 4.5-.2.5.2 1.1 2 .1 2.5-3.4 2.6-10.6-6.3-11.1-8.9l.2-1.2zM700.6 326.7s.3 3.5 3.4 7.1c3.1 3.9 5.3 3.5 3.9.5 0 0 2.4 2.4 2.2 3.2-.1.8-.9 2.2-2.7 1.4-3-1.8-7.4-8.4-7.2-11.5l.4-.7zM697 329.5c-.1.8 1.7 6.8 3.6 9.9 1 1.5 2 .9 2.1-.3 0-1.3-.8-4-.8-4 .7 1.5 2.6 4.5 2.9 6.1 0 0-.6 1.5-1.6 1.6-1.1.1-1.8.2-2.4-.7-.6-.9-2.6-5.9-2.6-5.9-.5-1.7-1.7-4.8-1.2-6.7zM693.1 333.3c.1 1.5 1.3 8.6 2.4 9.4 2.7 2.1 2.1-3.3 2.1-3.8.5 1.4 1.6 3.6 1.4 5.2.1 1.2-3.2 2.2-3.7.5-1.5-4-2.2-7.5-2.2-11.3zM688.6 336c-.1 3 0 7.5 1.7 7.7 1.8.1 2.2-3.5 2.2-3.5 0 .9.2 4.5.1 5.3l-.3.7c-3.1 2-4.1-1.3-4.1-3.4l-.1-3.8.5-3zM678.8 336.9c-1.9 3.4-1.3 9.5 2.2 4.3.3-1 1.2-3.5 1.8-4.3l1-.7c.2.3-1.1 6.7.8 7.4 1.6.3 2.6-2.5 2.6-2.5-.1.9-.3 3-.4 3.8l-.5 1.1-1.1.8-1.4.1-.8-.7c-.6-1.5-.3-3.6-.3-5.1h-.3c-.2 1.1-1.9 5.8-4.5 4.6-1.6-.6-1.3-3.4-1.3-3.4.4-1.2 1.7-4.2 2.2-5.4z" class="st20"/><path d="M675.7 326.7c-1.4-.4-1.9.7-1.3.9 1.4.5 2.2.5 3.3.7 0 0-2 0-5.1 2.7-3.1 2.7-.2 5.6 1.7 3.4-1 1.1-2.1 4.3-.9 5.8 1.2 1.5 2.4.4 2.4.4l1.5-2.6 1.6-1.7.2.4c-.7 1-1.8 3.3-2.2 4.5-1.2 2.5-3.4 3.9-5.5 1l-.3-1.1v-.7s-.5 1.1-2.2.4c-3.6-1.1-.8-6.4-.2-7.6 1-2 1.6-4.5 2-6.7 0 0 1.5-.6 2.8-.7 1.4 0 1.8.2 1.8.2M635.1 271.2c-.7 0-4.4 7.4-1.5 5.6l1-1.1s-1.8 3.2-1.9 4.2c.2 2.4 9.3-7 10.6-1-1.1-.5-4-1.4-6.7.3-3.8 2.8-3.9 3-4.8 5l-.5-.5-.2-.5c-3.6-.5.9-8.7 1.1-8.9l1.6-2.1 1.3-1z" class="st20"/><path d="M636.3 279.2c-1.9 1.1-2.9 3.5-2.7 4.8.1 1.3 1.4-.5 4.4-1.8 3-1.3 6-1 6.9 0-3.9-2-12.3 1.8-10.8 6.7.5.9 1-1.5 5.1-3s6.6-.7 8 .4c-1.6-.5-6.1-1.4-9 .8-3.8 3.1-3 2.9-3.7 4.7l-.8-.6-.5-1.1-.2-1.5c-1.8-1.7-1.8-4.3-.4-6.2l1.7-1.7 2-1.5z" class="st20"/><path d="M637 288.1c-1.6 1.1-1.6 3.9-.5 4.1 1.1.2 1.7-2.4 5.4-3.7 3.7-1.3 6.7-.5 6.9-.1-4.5-.5-9.4 1.3-11.5 5.4l-2.5-.4-.2-1.1s.2-1.4.3-1.6c.1-.3 2.1-2.6 2.1-2.6z" class="st20"/><path d="M642 289.4c-1.7 1-3.4 3.4-2.9 4.6-1.6-.1-1.8-.1-1.8-.1l1-1.5c.7-1 2.7-2.4 3.7-3zM640.1 294c1.8-3.1 8.4-4.2 10.8-2.9-2-.6-8.1.2-9.6 3.1l-1.2-.2z" class="st20"/><path d="M643 292.4c-.8.4-1 2-.1 2s-1.9-.2-1.9-.2l.5-.9 1.5-.9zM674.6 255.3c-1.9-3.1-4-9.6-2.9-9.9 1.1-.3 2.8-.5 2.8-.5l-1.1-1.4c-.7 0-5.3-.6-3.8 2.1 1.5 3.1 3.5 7 5 9.7zM677.8 243.5l1.1 1.6.9-.6.7-.9-2.7-.1zM685.1 244.7c.8-.1 1.4-.1 1.4-.1l1.6-1h-2.2l-.8 1.1zM692.9 243.6l.1 1.3c.8-.2 25.4.4 14.2 6.6-2.2 1 3.6-1.7 3.6-1.7-.2.2 4.6-2.9 4.5-2.9-1.3-.5-2.2-.9-5.2-1.8-2.1-.6-2.5-1.2-3.9-1.3-4.7-.1-9.5-.1-13.3-.2z" class="st20"/><path d="M706.1 248.7c-.7-.4-.4-1.4 1.1-1.2 1.5.2 2.7.9 2.7.9s.3-.8-1.3-1.3c-1.6-.4-3.1-.7-3.3-.5-.2.2-.2 1.2-.2 1.2l1 .9zM671.2 167.4c.7.3.7 1 .7 1l7.9-.8-.3-1.8-5.2.2-.6-.3.5-1.9-.4-.4-2.6 4zM667 235c.7.1.8 1.2.8 1.2h-1.1l.3-1.2z" class="st20"/><g opacity=".65"><path d="M702.4 324.7c-4.3.6-9.5.4-13.7-.8-.8-.4-2.6-1.3-3.4-1.8-5.8 1.6-24 6.7-29.6 7.7l-1.5-5.9-1.1-8.7c-.5-3.6-.9-8.9-.2-12.5l.3-2.1c.3-.9 1-2.8 1.5-3.6-2.2 3.4-2.5 29.3 5.4 29.6 4.6-.1 23.8-6.9 25.1-6.4 2.9 1.1 10.4 1.9 19 1.2l.4 1.4-1-.1-.6.5c0 .4-.4 1.2-.6 1.5zM718.7 321c4.9-1.8 10.3-5.2 14.5-8.2l3.9-3.1 2.9-3c.5-.5 1.8-1.8 2-2.4l-.9.2s.3 2.6-14.3 10.7c-3.4 1.9-7.2 3.3-11 4.2.5.4 2.4 1.3 2.9 1.6zM712.4 322.8c-.6.1-1.6 0-2.3.2l-2-2c.3 0 .6-.1 1-.1l3.3 1.9zM556.3 250l1.1 3.4s1.6 1.5 13.5 3.3c11.9 1.8 17.5-1.1 17.5-1.1l1.5-2.6c.8-.9 2.3-2.8 2.8-3.9-10.4 3.1-28.1 3.3-36.4.9zM734.6 284.8c2.4-.4 7-1.1 9.7.7 3.3 2.5 8.5 4.9 4.6 6.3l-1 .8-4.2-3.4-2.2-2-2.4-1.5c-1.2-.3-3.4-.8-4.5-.9zM731.3 272c2-.5 3.1-2.7 7.7-3.1 9-.9 14.3-2.1 8.1 4.9l-3.1-1.4s-2.8-1.3-4.7-1.1c-2 .3-8 .7-8 .7zM720.6 258.9c3.7-1.2 10-4.8 16.3-6.1 7.3-1.3 9.4-1.8 9.1 1.5l-.4.2s-5.6-.7-8-.2c-7.2 1.8-10.7 3.7-17 4.6z" class="st50"/><path d="M585.7 260.8c5-8.9 5.8 7.8 2.5 10.8-3.1 5.7-14.7 2.3-17.3.7l1 1.3c5.5 2.4 16.7 4.9 19.3-6.4 1.4-5.3 0-8.7 0-8.7-.6-.9-1.9-2.6-2.6-3.4-.8 1.3-2.2 4.3-2.9 5.7zM695.9 150.2c-1.3 7.4-1.6 16.6-11.2 16.1 6.5-2.4 10.3-10.7 11.2-16.1zM693 72.6c6.6 3 8.1 6.5 5.6 16.8-3.4 13-8.6 24-9.6 31-.9-10.4 6.7-29.6 6.1-39.7.2-2.5-.4-5.5-.4-5.5l-.8-1.7-.9-.9zM710.5 76.8c.8 3.6 1.1 10.1-2.3 19.1-3.4 9-8.6 22.5-8.9 25.3-.2-12.9 9.3-33 10.9-44l.3-.4zM721.3 91c.9 6-2.9 11.8-5.7 19.5-2.8 7.7-4.2 12.6-4.2 12.6.7-6.9 6.8-26.2 8.8-31.8l1.1-.3zM722.3 131.9s-1.2 8.9-3.4 16c-2.1 7.1-5.9 10.2-11.6 14.2-5.7 4-7.7 4.2-7.7 4.2l5.9-.4s3.6-1.4 6.3-3.4c9.3-6.7 9.9-21.3 10.5-30.6zM642.7 117.9c.3 1.5 4.5 4 7.5 7.7s7.1 11.6 7.9 14.5 4.5 10.6 6 14.4c1.5 3.8 6.2 7.7 6.2 7.7l-3.5.4c-2.3-2.9-3.8-2.5-6.4-10.8-2.5-9.7-3.7-8.9-4.6-14.4-.2-2.1-6-12.4-8.5-14-2.6-2.1-3-2.5-3.9-3.8l-.7-1.7zM684.2 121.6s8.6.1 14.7 1.7c6.1 1.5 12.2 4.6 12.2 4.6s-5.2-2.1-12.8-4c-7.7-1.9-14.1-2.3-14.1-2.3z" class="st50"/></g><g class="st3"><path d="M727.9 140.7c4.9 2.9 9.6-3.2 3-4.4-1.2 0-2.2 1.1-3.4.9-1.1-5.1-.1-6.4 5.1-5.8l.2.7c-1.4.1-3.2-.1-4.5.5v3.5c4.3-2.2 9.9 3 4.4 5.9-1.5.5-4.2.7-5.1-.9l.3-.4zM793.1 140.1c-2-.3-2.8 1.7-2.8 3.4.2 0-.6.8-.7.8-4.3-1.9-2.1-8.2-.2-11.1l.8.7c-1.6 1.5-3.7 8-1.2 9 .6-1.9 1.9-4 4.2-3.5l-.1.7zM443.3 279.4c-1 .5-3.3.9-3.5-.6 1-.8 3-.4 4.1-1.5 1.6-1.3 1.8-4.1 1-6-.2-.4-.4-.6-.7-.9-.3-.2-.2-1 .3-.7 3.3 2.1 2.1 6.6-.3 9 1.3 1 3.1 1.1 4.7 1.2-.2 1.8-4.5 0-5.6-.5zm-1.1-.4c0-.3-.5-.2-.7-.1-.4.2.6.4.7.1zM454.3 273.9c-1 1.2-3.4 1.9-4.6.5-.6-1.9 1-4.2 3-4.1 3.8-.1 2.6 2.5 3 5.2.1 1.7.1 3.3.1 5-2 .3 0-5.3-1.5-6.6zm-3.9-.1c.5 1.4 2.8.2 3.5-.6.5-3.4-3.7-2-3.5.6zM495.9 280.5c7.4 2.5 8.3-6.3 2.1-4.8-.4.2-.9.3-1-.2 1-1.1 2.5-2.2 3.1-3.5-.7-2.5-3.5.4-4.8.9.9-4.3 8.4-3.6 4.4 1.5 5.7 1.7 2.7 8.7-2.6 7.3-.7-.2-1.4-.3-1.2-1.2z" class="st59"/><path d="M504 276.7c-.5-8.3 8.2-5.4 7.1 1.2-1 6.1-7.6 4.3-7.1-1.2zm.8-.4c-.9 5.4 5.6 6 5.5.6.1-4.8-6.1-6.3-5.5-.6z" class="st59"/></g><path d="M626.9 197.2s-2-18.2-2-18.9c0-.7 5.3-4 6.1-4.3.8-.3 12.2-.4 12.2-.4M631.8 184.9c-.3-2.7-.7-9.2-.7-9.2" class="st60"/><path d="M585.9 260.5c.6-2.4 3.2-7.2 6.4-11.5l.8.2c-3.1 4.1-5.9 8.7-6.9 11.4-.3.8-.8 1.8-.3-.1zM644.1 112c2.7-3.3 7.5-3.7 11.7-2.2 5.7 2.3 7.7 6 10 9.1 3.8 4.9 6.4 8.6 9.3 11.1 2.7 2.2 2.5 1.2.5-.4-2.9-2.4-5.6-6.1-9.3-11-2.3-3.2-4.4-7-10.2-9.3-4.2-1.5-8.9-1.1-11.9 1.8l-.1.9zM643.2 120c5.9 5.5 11.4 12.6 12.5 19.1.3 1.5.8 2.5 1.4 3.8 3 6.4 3.3 14.3 9.4 19.9l.5-.4c-6-5.4-6.3-13.5-9.3-19.8-2.5-5.7-2.3-9.9-8.2-16.9-2.1-2.7-4.3-3.8-5.9-6.1l-.4.4zM684.4 166.4c6.9-3.1 9.9-10.5 12-17.3-1.3 7-4.7 15-12 17.3z"/><path d="M519.7 301c-3.8 13-11.8 57.9-2.6 75.7" class="st60"/><path d="M521.3 315.4c1.8 14.5 5.2 29.5 12.9 42-8.5-12-11.9-27.4-12.9-42zM525.9 314.6c5.6 5.2 9.4 12.1 12.7 18.9-4.1-6.4-7.8-13.1-12.7-18.9z"/><path d="M792.2 142.3c-18.9 18-43.8 24.1-70.7 25-26.9 2.9-31.6 47.3-16.2 66.2 16.7 23.4 47.1-2.3 91.9 28.7" class="st60"/><path d="M729.2 166.7c-2.8-2.1-7.4-2-15.9-1.3s-31.5 2.9-31.5 2.9M656.2 170.8c-7.6.7-12.7 0-21.3 10-13.1 14.1-11.8 44.1 2.4 57.8 7.3 7.3 14.5 10.2 33.2 8.6" class="st60"/><path d="M721.2 246.1c-36.1-5.3-39.1-77.9.3-80.4-38.5 3.1-35.6 74.5-.3 80.4z"/><path d="M837 104.3c10.4-4.1 33.8-.9 50.5 31.6 16.7 32.5 22.2 66.1 16.5 98.6-5.7 32.5-23.9 60.9-48.1 61.3C780 292.5 778 124.2 837 104.3z" class="st60"/><path d="M834.6 92.2c12.3-4.6 39.7-2.9 59.4 33.6 32.2 52.3 28.5 173.6-39 182.9-88.9-4.1-92.5-193.1-20.4-216.5z" class="st60"/><path d="M845.9 214.5c11.1-1.1 9.4-29.6-1.8-29.3-11 1-9.3 29.5 1.8 29.3zM796.6 177.6s41.5-1.9 45-1.9 3.9.9 3.5 3.5c-.4 2.6-.6 3.7-.6 3.7M835.3 195.8c-1.5-.9-2.8-1.6-6.1-1.6s-33.5 2-33.5 2M795.8 198.1c6.6.3 33.9-2 39 .1" class="st60"/><path d="M834 196.8c-4.8-1.6-12.3-.1-17.3-.2-5.6.3-11.8.5-17.4.7 5.7-.5 11.7-.8 17.4-1.1 5.7.1 11.8-1.4 17.3.6z"/><path d="M841.5 215.4c-.1 1.8 1.5 5.8-2.6 6.2-6 .7-40.1 4.9-40.1 4.9" class="st60"/><path d="M839.3 214.2c-.6 1.5-1.3 3-4.3 3.4l-36.9 4.8" class="st60"/><path d="M840.7 216.6c0 1.2.4 2.9-.6 3.7-1.8.9-4.3.8-6.3 1.2-10.1 1.3-20.3 2.6-30.4 3.6 10-1.5 20.3-2.8 30.3-4 1.9-.3 4.4-.2 6.2-1 1.1-.7.7-2.3.8-3.5z"/><path d="M659.4 170.6c-16.8 5-25.9 30-20.9 48 5.1 17.9 15.5 29.2 31.8 28.5M647.6 171.8s-.4-5.6-.3-6.6c.1-1 .6-1.5 2.1-1.9 1.5-.4 5.7-.9 6.5-.7.8.2.9.9 1.1 2.8" class="st60"/><path d="M658.9 164.5s.2-2.2-.9-3.1c-1.3-1.9-11-.5-11.7 1-1.8 1.2-.7 9.4-.7 10.1" class="st60"/><path d="M670.9 162.8s-.2-.5-.7-.5c-.5 0-6.7.7-7.9 1-1.3.3-4.4 1.6-6.5 2.5-2 .9-3.6 1.8-3.6 2.3 0 .6.2 2.1 1.2 2.4 1.1 1.1 13.3-.4 13.8-2.2 1.4-1.8.3-4.9-2.2-4.4-1.4.3-2.6.6-2.6.6" class="st60"/><path d="M666.5 163.8c.3-.3.6-.5 3.1-.8 4.3-.7 7.8-.7 11.3-.5 0 1-.2 3.6-2.4 3.4-3.6.2-4.1.2-4.5 0-.5-.2.8-2.5.2-2.5-.6 0-3.1 3.8-3.3 4.1M679.4 167.6s2.2-.3 2.4-.2c.2.1 0 .9 0 .9s-3.3.3-5 .8c-1.7.5-4.9.5-5 .2s-.1-1 .1-1" class="st60"/><path fill="none" stroke="#000" stroke-miterlimit="10" stroke-width=".1" d="M652.9 198.4c.5-5.1 4.2-8.7 8.8-8.8 2.1-.2 12.3-1 14.8-1.2 2.4-.1 4.4.1 4.7 3.1.9 5.1-1.5 13.5-8.2 12.7-3 .1-13.1.7-15.1.7-1.9.1-5.3-1.4-5-6.5z"/><path d="M657.8 235.2c-.5.9-.3 3.2 1.2 3.5.2 1.9 8.6 3.3 10.2 4 3.9.8 1-1.5-.3-2.7-.7-.6-1.5-.5-1.9-1.1-.4-.6-.3-2.7-.3-3.8 0-1.1-.9-2.3-1.5-2.9-.6-.6-2.2-.3-2.5-.3-1.1-.6-1.9-3.8-4.3-3.1-1.2.2-.8 1.7-.7 2.2.1.5-.2.3-1 .3s-1.3.5-1.3 1.1c0 .6.4 1.4.5 1.7.1.1-1.4-.1-1.6.3-.7 1 1.8 4.5 3.4 3.6" class="st60"/><path d="M668.8 240c-3-.1-5.9-.8-8.8-1.3 2.9.3 5.8.7 8.7.6l.1.7zM665.7 234.6c-2.3.3-4.7.5-7 .4 2.3-.4 4.7-.6 7-.4z"/><path d="M692.8 243.7c7 0 13.2.1 13.9.2 1.6.2 7.9 3.7 14.2 3.5 6.2-.2 11.1-1.7 11.2-2.7M686 243.6h2M677.7 243.6h2.9M688.4 270.2c-5.9.7-17-20.2-19-25-.6-1.6 1.9-1.8 3.9-1.7M740.9 244.5c2.6 2.5 5.4 6.2 5 9.8M699 258.2c2.1-6.2 11.7-7.3 16.3-11.4" class="st60"/><path d="M747.3 274.2l-.5-.4c4.8-6 5-10.5 5.1-12.7.1-2-3-4.6-4.8-5.9-3.8-1.7-10.6-.8-14.9.8-3.6 1.2-10 3.1-12.7 3.5-2.7.4-2.8-.2-.1-.6 2.7-.4 9-2.4 12.7-3.5 4.4-1.7 11.3-2.7 15.5-.7.5.4 5.2 3.7 5 6.4-.2 2.1-.3 7-5.3 13.1z"/><path d="M748.4 292.9l-.6-.7c3.9-.4 8.1-12.2 3.9-15-6.4-4.8-12.1-6.5-21-4.5-3.7.5-3.1 0-.1-.6 8.6-2.2 15.1-.1 21.5 4.7 4.4 2.7.7 15.5-3.7 16.1z"/><path d="M746.2 312l-.6-.9c3.8-2.9 7.8-7.5 4.6-16-.2-.5-2.8-2.6-4.7-4.2-3.7-2.9-7.2-6.8-11.9-5.4-2.6.5-3.2.1-.1-.6 4.4-1.4 8.7 2.5 12.4 5.6 2.9 2.3 4.8 3.8 5 4.5 3.3 8.7-1.1 13.8-4.7 17z"/><path d="M738.5 305.1c2.8-.7 5.4-2.2 7.9-3.5-2 2.1-4.9 3.7-7.9 3.5z"/><path d="M718.7 320.9c5.6-.7 21.5-12.8 23.4-16.7M718.9 320.9c1.5 2.7 5.1 10.4 6.3 13.4 1.2 3 3 5.5 5 5.9 5.8 1 18.6-8.5 20.6-14.6 5.7-11.5-4.4-6.4-8.1-21.6" class="st60"/><path d="M751.2 318.3c-2.7-.2-3.2 2.8-4.2 4.7-3.2 6.1-7.3 12.2-13.2 15.9 4.6-3.5 8-8.3 11.1-13.2 2-2.3 2.3-7.7 6.3-7.4zM594 290.2c5.2-3.4 9.9-1.6 17.4-1.2 3.4.6 6-.4 6.6 1.9l-.6.1c-.3-1.5-3-.8-6.1-1.3-4.2-.4-9.9-.9-11.7-.9a13 13 0 00-5.5 1.6c-.7.3-.7.1-.1-.2z"/><path d="M585.3 299.9c2.2-3.4 5-10.2 7.4-12.6 1.2-1.1 3.6-1 5.4-.3.6.2 1.7.7 1.8 1.4l-.6.1c-.9-1.4-5.1-1.9-6.2-.7-2.2 2.4-5.1 9-7.5 12.2-.3.3-.9.8-.3-.1z"/><path d="M579.9 295.6c.1-2.6.2-7.1.9-8.3 1.1-2.1 9.9.2 11.4.7l-.2.6c-1.3-.7-10.5-2.4-10.7-1-.5 1-1.2 5.2-1.3 8.1 0 .7-.1 1-.1-.1z"/><path d="M557.4 310.1c-2-1 4.2-11.2 5.3-12.9.4-.6.6-.5.2.1-3.2 4.9-5.3 10.9-5.4 12.1 3.5-3.9 18.9-22.4 23.2-20.8l-.1.6c-1.5-.2-1.8-.3-5.3 2.6-3.8 3.1-13.1 12.7-16.5 17.1-.5.7-1 1.2-1.4 1.2z"/><path d="M578.9 289.1c-1.6-2.5-13.3-11.2-25.4-15.2-.5-.2-.3-.5.2-.3 11.7 3.8 24.3 12.2 26.3 15.1l-1.1.4z"/><path d="M576.4 286.4c-2.5-5.7-3.4-12.3-8-16.3-4.5-4.2-9.9-10.1-10.5-11.8-.8-2.1-2.6-4.7-4.9-5.2l.1-.6c3.3.7 5 4.8 5.3 5.6 7 10.4 14.6 11.1 18.5 28.1l-.5.2z"/><path d="M588.7 255.3c4.2 4.6 9.2 18.7 10.3 32.6" class="st60"/><path d="M581.7 276c-3.8 0-7.7-1-9.9-2.1l-.1-.8c3.6 1.7 9.5 2.9 13.3 1.9 5.5-1.9 7.9-11 5.9-16.3l.6-.2c2.3 6.7-1.6 18.2-9.8 17.5z"/><path fill="none" stroke="#000" stroke-miterlimit="10" stroke-width=".21" d="M575.2 281.8c12.1 3 21.3-3.6 19.3-15.3"/><path d="M591.7 250.4c2.6 1.1 4 3.9 5 6.4-1.1-2.3-2.6-4.9-5.1-5.8l.1-.6z"/><path d="M600.8 246.9c4 .5 7.6 9.7 7.6 9.7M639.9 270.6c3.2-7.9 8.4-15.9 9.4-24.5M646.8 245.1c-.2 7.1-8.5 20.2-10.2 25.3" class="st60"/><path d="M631 283.2c-3-1.3.1-7.5 2.1-10.2 2.7-3.8 8.3-4 7.7.4" class="st60"/><path d="M634.7 300.4c4.6-3.3 20-12.7 24.9-6.7l-.4.4c-4.1-5.5-20 3.6-24.3 6.6-.7.4-.7.1-.2-.3z"/><path d="M645.4 294.8c-5.5 0-12.4-1.5-17.6-2.5-3.6-.5-5.1-2.9-8.7-1.7-2.7.9-7.6 2.4-9.8 3-.7.2-.8 0-.2-.2 2.1-.6 7-2.5 9.8-3.4 3.9-1.3 5.4 1.1 9 1.7 5.3 1 12.7 2.6 18.1 2.5v.6h-.6zM657 333.6c-3.4-6.6-4.2-20-4.5-24.6-.2-7.8.9-11.6 4.2-15.4.5-.1-.6 1.7-1.1 2.5-1.6 2.6-2.8 6.4-2.5 12.9.6 11.4 2.6 23.5 6.7 27.3 1.8 1.7-.2 2.5-2.8-2.7z"/><path d="M654.7 297.5v-.7c4.6-3 9.7-7.5 14.7-11.1 4-3 9.6-7.1 10.5-8.6 1.3-2.2 5.1-8.1 5.1-8.1l.5.3c0 .1-3.8 6-5.1 8.1-1 1.6-6.3 5.6-10.6 8.8-5.2 3.7-10.4 8.3-15.1 11.3zM655 342.5c-22.8-3.6-55.9-.3-77.8-3.2-5.9-1.6-19.3-6.6-28.2-14-3.6-2.9-7.8-6-12-8.9-10.6-7.5-20.7-14.5-21-25.2 0-4 3.4-19.1 7.8-25.4 4.2-6 16.7-13 22.6-13.6l.1.6c-5.9.5-19 8.3-22.1 13.3-4.3 6.1-7.7 21.1-7.7 25 0 4.1 1.3 6.9 5.6 12.4 5.1 6.1 19.8 14.9 27.2 21.2 8.8 7.3 22.2 12.2 28 13.8 5 1.4 23.8 1 32 1.3 8.5.3 25.5-.3 33.9.2 7.4.2 9.7 2.5 17 .4 5.7-1.9 9.1-6.6 10-14.2h.6c-1 10.9-7 16-16 16.3z"/><path d="M579 339.4c.6 6.1-1.2 30.9-1.2 30.9" class="st60"/><path d="M575.1 338.2c0 5.3-.6 10.6-1.4 15.9.6-5.3 1-10.6.8-15.9h.6z"/><path d="M602.3 340.3c.2 5.8-.4 30.2-.4 30.2M627 340.4c0 4.4-1.6 30.3-1.6 30.3" class="st60"/><path d="M587.6 290.8c-2 2.1-3.2 4.7-4.5 7.2.4-2.8 1.9-5.8 4.5-7.2zM602.7 294.7c-.7 3.2-.7 6.4-.8 9.6-.7-3.1-.7-6.7.8-9.6zM628.7 298.3c-5.4 4.8-9.5 11.1-10.9 18.3.5-7.4 4.9-14.1 10.9-18.3z"/><path d="M547.2 305.5c-.6 3-1.6 6.7-3.5 6.3-1.9-.4-3.3-4-2.6-7.9 2.1-9 9.6-16.7 6.1 1.6z" class="st63"/><path d="M537.5 299c.9-4.5 7.2-10.7 11-8.5 3.8 2.2 3.9 7.6 3.6 13.8-.3 6.2-1.7 14.1-6 12.3-4.8-2-10.4-8.2-8.6-17.6zM558.7 305.1c-.3 1.4-.1 3.1.8 2.5M560.2 306.9c.6.1 1.1 3.3 1.9 3.4.8.1 1.2-4.4 2-7.7" class="st63"/><path d="M566 300.5c1.4.7 3.2.7 3.2 1.2 0 .4-.9 6.1-1.7 12.8-.8 6.8-.2 10.4.2 12.2.5 1.8.7 2.9-.3 2.9s-5.7-1.5-9.4-4.1c-5.6-3.5-7-12.8-1.7-15.1.6-.3-.6-.7-.8-3.4-.2-2.7-.3-11 0-10.9 6 2.4 3.5 1.9 3.8 7.9" class="st63"/><path d="M562.1 315.7c.5.2 0 8.5 0 8.8 0 .2-3.8-.5-4.4-4.3-.7-3.8.9-5.8 4.4-4.5zM572.7 303.7c.1-.5 5.8 1 5.8 1.4 0 .3-.9 2.7-1.4 9.7-.7 8.7-.3 13.1 1.1 17.9-.1.3-4.8-.2-5.3-.7-3-4.7-1.3-22.6-.2-28.3z" class="st63"/><path d="M681.8 252.4c-.6.4-1.1 1.6-.5 2.4.6.8 1.8 1.4 3.5.5 1.7-.8 7.7-4 8.9-4.9 2.5-1.6.5-4.5-1.9-3.4-1.2.4-6.6 3-10 5.4z" class="st60"/><path d="M684.8 255.3c-2.8 1.1-1.2 4.6 1 4.1 1.5-.7 9-4.9 10.3-6 .8-.7-.7-3.9-2.8-2.7" class="st60"/><path d="M685.8 259.5c-2.5 1-.7 5.2 1.6 3.6.9-.8 8.1-4.8 10.3-5.5 1-2-.5-4.7-2.6-3.5" class="st60"/><path d="M687.3 263.2c-.9.6-1.5 1.5-1.1 2.3.4.8 1.2 1.9 2 1.7.8-.2 4.6-2.4 7-3.6 2.3-1.2 3.3-1.7 3.7-1.9 1.6-.5.3-4.8-1.1-4.1" class="st60"/><path d="M688.5 267.1c-2.2.8-.5 4.3 1.6 3.6 1.3-.4 9.2-4.2 10.3-4.7 2.2-.7 0-4.9-1.5-4.2" class="st60"/><path d="M690.1 270.6c-2.1.9-.3 5.2 2 3.7 1.1-.5 9.1-4.3 10.1-4.8 1.8-.7 0-4.6-1.8-3.6" class="st60"/><path d="M691.8 274.5c-1.9 1.3-.4 4.3 2 3.2 1.8-.5 8.8-3.9 10-4.5 2-.9.3-4.4-1.5-3.7M704.6 322.6c.7.1 1.8 2.3 4.3 5 2.6 3.1 7.1 3.5 4.5 6.6-2.5 2.5-15.6-10.3-8.8-11.6z" class="st60"/><path d="M705 322.9c-1.3-1.3-.4-4.7 1.5-3.7.5.4 2.3 2.9 5 4.5s4.6 2.1 5.3 2.9c.7.7.3 2.2-.6 2.7-2.5 1.1-8.1-2.9-9.8-4.6M690.3 247.7c2.7-1.5 3.2-3.4 2.2-4.9-.8-1.1-3.2.1-6.6 2.3-3.3 2.2-6.9 3.6-7.3 4.8-.3 1.2.9 3.6 3.2 2.5" class="st60"/><path d="M683.3 246.7c1.7-1.4 6.5-8.2 5.3-10-.5-.8-2-1-3.1.2s-6.1 9.4-7.9 8.9" class="st60"/><path d="M679.2 245.1c-.8-.1-2.1-3.2-4.1-5-2-1.8-5-3.7-8.3-3.9M668.1 239.5c1.7.2 3.8 1.9 6.4 5.3 2.7 3.4 3.8 4 5.6 3.7" class="st60"/><path d="M655.9 330.3l-.1-.9c5.1-.6 28-6.9 29.2-7.4.4-.2.8 0 1.3.4 1.4.9 4.8 3.1 16.2 2.1l.1.6c-11.6 1-15.1-1.2-16.6-2.2-.4-.3-.6-.4-.7-.3-1.3.5-24.3 7.1-29.4 7.7z"/><path d="M679.3 330.4c-.3-3.3-4-2.6-7.7-.1-2.8 2-5 7.1-4.6 8.6.3 1.2 2.1 3.2 4.2 1.6" class="st60"/><path d="M677.5 339.8c-.5 1.3-2 4.5-4 4a2.9 2.9 0 01-2.2-3.5c.6-3.1 5.8-11.6 9.9-9.9 1.6.8 1.4 1.9 1.4 1.9" class="st60"/><path d="M683.2 336.6c0 4.1-2 9.4-4.6 9.3-1.8-.1-2.1-2-1.9-3.8.3-2.4 5.6-14 9.3-9.1" class="st60"/><path d="M675.4 341.6c1.1-3.2 3.4-6 5.9-8.3-1.8 2.9-4.1 5.5-5.9 8.3z"/><path d="M690 332.7c-5.6-4.7-10.2 14.9-5.3 14.2 1.9-.3 2.5-1.8 2.5-5.2 0-3.4 1.2-7 1.8-7.4" class="st60"/><path d="M684.2 336.2c-2.2 1.3-2.8 4.4-3.6 6.7.7-2.5 1-6.1 3.6-7.3v.6z"/><path d="M697.1 330.5c-.9-.7-3.7 0-4 1.9-.2 1.9.5 6.3 1.2 9.1s1.1 4.1 2.7 4c2.3-.2 2.3-1.7 1.9-3-.4-1.3-2.8-7.2-1.8-10.6" class="st60"/><path d="M693.3 331.8c-5.3-1.9-5.1 7.4-4.9 10.6.2 2.6.3 3.9 1.3 4.2 1.1.3 2.7.3 2.9-1.1.2-1.5-.5-9.4.4-11.7M630 279.7c.3-4.1 1-8.6 2.4-13M630.7 292.5c-.5-2.9-.9-6.6-.8-10.6M644.8 260.4c4-5.1 11.8-13.4 11.4-13M629.9 283.8l.3-.9M641.1 294.2c1.9-2.7 8.9-4.6 11.2-1.9M651.2 291.4c-1.3-6-12.2-2.4-13.8 2.5" class="st60"/><path d="M634.9 293.4c-.8-1.3-.1-4.1 3.8-6.6s10.9-.6 10 1.8" class="st60"/><path d="M647 286.2c0-7-11-4.5-13.3.4-1.5 2.7-.1 5 1 5.4" class="st60"/><path d="M633.2 288.7c-4.7-3.6 2.1-10.4 6.7-10.5 2.6-.1 5.9 1.8 5.1 4.2" class="st60"/><path d="M631.9 284.4c-2.5-2.4 1.5-8 4.4-10.1 4.4-3.6 8.4 1.1 7.3 4.7" class="st60"/><path d="M636.9 278.8c1.4-1.3 4.5-3.2 5.9-1-1.5-2-4.3.1-5.5 1.4l-.4-.4z"/><path d="M676.5 328.2c0-2-2.5-3.1-6-1.3M702.1 291.7c-1.8.9-.2 4 2.2 3.6 2.4-.4 8.3-1.8 10-2.9 1.8-1.2 1.8-4-.4-4.1-3.5-.2-8.5 1.6-11.8 3.4z" class="st60"/><path d="M703.4 295.3c-.4 1.5-.1 3.4 3.3 3.3 4.7-.4 12.9.2 10.2-5.3-.4-.6-2.1-.6-6.2.4" class="st60"/><path d="M681 121.6c11 0 22.4 2.6 32.3 7.5-10.2-4.1-21.3-6.6-32.3-7.5z"/><path d="M705.3 166.1c18.6-5.9 15.2-27.4 18.4-44.9 2.3-13 7.5-21.4 5.4-26.1-2.1-4.7-7-4.8-9.2-3.7" class="st60"/><path d="M711.3 122.1c1.7-9.8 7.8-29.5 9.6-33.5 5-10.9-3.7-15.9-10.6-11.3l-.3-.5c7.4-5 16.8.6 11.5 12.1-1.8 4-7.8 23.4-9.6 33.3-1 5.3-1.2 3.4-.6-.1z"/><path d="M699.1 118.2c1.3-8.9 4.6-20.3 7.1-28.2 1.8-6.8 6-14.7 1.6-19.5-3.9-4.9-11.1-2.7-14.6 2.2l-.5-.4c3.8-5.2 11.5-7.4 15.6-2.2 4.6 5.1.5 13-1.5 20-2.5 7.9-5.9 19.3-7.1 28.1-1.1 8.4-.8 1.1-.6 0z"/><path d="M673.2 128.1c-1.2-14.8 1.2-50.9 10.6-56 17.2-6.1 11.3 15.9 8 30.2-1.8 7.1-2.4 11.9-2.5 14.7-.3 8.2-.8 2.1-.6-1.1.2-2.9.9-7.4 2.5-13.8 2.7-11.7 6.4-25.7.7-29.8-7.5-2.7-11.4 1.6-13.9 10.4-3.2 13.1-5.4 30.2-4.2 45.2l-.6.2z"/><path d="M703.7 273.2c1.6-.4 2.2.4 2.5 1.2.3.8.7 1.8-.1 2.2-.8.4-4.4 1.6-7.2 3s-3.3 2.2-4.5 1.8c-1.2-.4-2.5-2.3-1-3.6" class="st60"/><path d="M695.4 281.5c-.7 1.7 0 2.6.6 3.2.6.6 1.8.5 2.6 0s4.4-2.5 7-3.5 3.4-1.7 3.3-2.8c-.1-1.1-1-2.3-2.3-2.2" class="st60"/><path d="M697.5 285.1c-.4 1.1.3 4.2 2.3 3.4s8.2-3.6 9.9-4.1c1.7-.5 1.6-2.1 1.1-3.1-.9-2.6-5.7.3-6.4.5M700.1 288.4c-1 1-.4 3.7 1.5 3.6M710.6 283.9c3.1-.2 3.7 2.8 2.9 4.2M706.1 298.7c-.8.5-1.2 1.7-.9 2.7 1.1 3.6 8.3 1 11.3.7 2.4-.5 2.8-1.8 2.5-3-.4-1.2-1.2-1.5-4.4-1.2" class="st60"/><path d="M706.5 303.1c-.7.8-1.5 3.5 1.1 4.1 2.8.3 14.6 1.3 12-3.4-.6-1.2-6.3-1-9.5-.8" class="st60"/><path d="M707.2 307.2c-2.8 3.7 1.9 4.9 6.4 5.3 3.3.2 5.4.4 6.4-.2 1-.6 1-2.8-.2-3.5-1.2-.7-2.4-.4-5.7-.7-3.3-.3-5.4-.8-5.4-.8" class="st60"/><path d="M707.5 311c-1.3.8-2.1 3.1.3 4.4 3.1 1.4 10.8 4.9 12.5 1.9.5-.9.3-2.3-2.1-2.9s-8.5-1.9-10.1-3.1M708.9 316c2.1 1.4 5.1 3 7.5 3.9s2.9 1.5 2.8 2.6c-1 4.2-10.3-1.5-12-2.9-1.3-1.3-2.2-2.8-.2-4.5M702.6 325.5c-4.9 1.1-1.5 6.6 1.3 10 2.3 2.8 3.7 4.4 5.1 3.4 1.3-1 1.2-1.9.5-2.6-.7-.8-3-3.1-4.5-5.6-1.5-2.5-1.8-4-1.8-4" class="st60"/><path d="M700.2 328.3c-7-.3-.5 11.3.9 14 1.6 1.9 5-.3 3.1-2.7-1.4-1.7-4.3-9-4-10.8M705.2 247.4c-.3-1.8 5.3-.1 4.8 1-.5 1.7-5 1.1-4.8-1zM532.8 243.2c-12.7 7.7-16.7 8-11.8 28.8M556.3 250c1.7 4.7 2 8.7 2 8.7" class="st60"/><path d="M526.2 249.3c-5.5 4.3-6.8 6.2 1.2 3.1 6.9-2.3 14.5-2.9 21.6-1.2-5.7-.8-11.6-.6-17.2.7-3.4.5-6.7 2.5-10.1 2.5-1.5-1.5 3.4-4.4 4.5-5.1z"/><path d="M534.1 250.8c2.1-2.1 4.8-3.6 7.4-4.8-2.5 1.4-5.1 3-6.9 5.3l-.5-.5z"/><path d="M582.5 333.2c.3.4 5.6 1.3 5.9 1 .3-.3-.3-1-.8-4.3-.4-3.3-.4-5.2-.1-5.3.3-.1 5.2.4 5.5.9.2.4 0 1.2.5 4.5.4 3.3.4 4.2.8 4.4.3.1 5.2.5 5.5.2.3-.3-.6-2.6-.5-8.1.1-5.5 1.5-16.3 1.8-17.7.2-1.4.1-1.9-.5-1.9s-5.4 0-5.6.5c-.1.5-.8 4.3-1.1 6.9-.3 2.6-.3 4.1-.4 4.4-.1.3-6-.3-6-.8s.6-8.5.9-9.7c.2-1.2.2-1.4-.5-1.6-.7-.2-3.9-.3-4.4.1-1.8 1.1-2.3 25.9-1 26.5zM605 311.2c-.5-.1-.8-4-.6-4.3.2-.4 3.3-1.8 7.6-1.7 12.8-.9 9.3 18.2 4.4 24.1-2.9 3.7-7.9 6-13.2 5.2-.4 0 .2-4.1.5-4.2.3 0 2.4.6 5.3-1 6.1-3 8.1-22.1-4-18.1z" class="st63"/><path d="M581.3 313c-1.8 5-1.5 10.4-2.1 15.6-.2-5.2-.5-10.9 2.1-15.6z"/><path d="M844.8 181.4c2.5.1 7.5 3.2 9.2 10.5l3.1-2.1" class="st60"/><path d="M853 188.5c2.8 0 5.1-.2 5.4 1.3.3 1.5.5 2-3.4 5 1.3 3.1 1.2 11.1-2 17.3 3.2 2.3 3.6 3.4 2.7 4.8-.9 1.4-1.3 1.6-8.8 2.1" class="st60"/><path d="M841.4 220.4c2.2.2 5.1-1.1 6.9-2.1 1.9-1.1 3.6-4.7 3.6-4.7s3.2 2 2.7 3.1" class="st60"/><path d="M843.3 182.3c-.3-4-7.5-2.4-10.4-2.8l-11.9.1c-7.8 0-16 0-23.7-.2 7.8-.3 15.9-.4 23.7-.4 3.5 0 8.4 0 11.9.1 3 .4 10.3-1.1 10.4 3.2z"/><path d="M839.8 180.8c-4.3 2.2-6.1 7.3-7.2 11.7.5-4.5 2.5-10 7.2-11.7zM835.8 215.2c-3.6-4.5-4.7-10.8-4.2-16.5.1 5.6 1.1 11.6 4.2 16.5z"/><path d="M710.5 323l2.2-.4" class="st60"/><path d="M411.1 272.7c-.8 20-1.5 38.4-2 50.8" class="st64"/><path d="M413.6 211.2h-.6c.7-20 1-27.5 1-35.2l.6.6c0 7.7-.3 14.6-1 34.6z"/><path d="M912.1 90.9c-54-2-126-2.3-190.7-2.5M671.1 341.5c-18.7 1.2-37.5.7-44.1.7M688.3 341.3h-1.2M694.1 341.3h-1.6M700.4 341.3h-2.1M704.6 341.3c45.2.3 145-.5 191.5-.1 17-.1 3-15.5 3.3-17.4.3-1.9 24.3-11.9 24.1-20.6-.5-15.6-1.7-48.2-2.7-78.1M920.2 99.7c-.1 14.5-1.1 50.4-.8 75.7M408.7 335.4c-.6 6.5.1 7.5 27.5 6.5 6-.3 51.7-.1 77-.2M896 341.3c15.4.3 26.9-24.2 27.3-38" class="st64"/><path d="M926.2 92.5c.7 7-8.5 9.7-12.5 3.8-4.2-5.3.6-13.1 7-10.9" class="st64"/><path d="M930.1 91.7c-5.8 4.2-13-5.6-7.2-9.8 5.9-4.2 13 5.5 7.2 9.8zM926.1 92.7c-6.8 6.2-14-1.2-5.2-7" class="st64"/><path d="M922.4 84.7c.3 3.1 2.7 5.8 5.8 6.4-3.3.2-6.4-3.2-5.8-6.4zM914 88.9c-1.6 5.7 4.7 11.6 9.8 7.6-5 5-12.5-1.7-9.8-7.6z"/><path d="M913.1 95.4c-1.9 1.5.1 4.1 2 2.7M412.5 333c4.6 5.3 12.9.5 11.4-6.3-.9-6.7-9.9-8.6-12.7-2.5" class="st64"/><path d="M409.2 335.3c7.1-1.4 5-13.1-2.1-12-7.1 1.4-5 13.1 2.1 12zM412.8 333.1c9.2-.7 8.8-10.9-1.4-8.6" class="st64"/><path d="M409.5 324.9c2.8 1.8 3.1 6.4.6 8.6 1.7-2.7 1.4-6.3-.6-8.6zM418.4 321.7c6.1 2.2 5.8 12.2-1.3 12.4 6.4-1 6.5-9.7 1.3-12.4z"/><path d="M423.7 325.6c2.4-.3 2.8 2.9.5 3.3" class="st64"/><path d="M899.6 325.2c-16.7 1-45.5-.8-73.8-.6-20.6.1-57.8.3-74.9.2M904.4 262.2c.9 25.9 2 47.5 2.3 56.9M878.6 105c15.3.5 24.3.9 24.6 1.1.5.3 0 16-.3 38.8M729.1 102.2c30.3.2 61.8.7 87.3 1.2M514.8 325.2c-31 0-79.9-.2-80.8-.5-.7-.3 0-20.4 1.2-48.9M786 147.3c-15.7-.1-41.7-.2-65.4-.2M644.5 101.5c10.9.2 18.7.3 29.7.4M658.6 146.5h-19.7M477.2 240.1c-13.5 0-24.4.1-30.2.1M525.3 240H498M517.5 283.4c-19.9.1-63.4.1-82.6.3M672.7 283.6c-8.6.1-17.1.1-25.8.1M809.5 283.4c-18.6.2-37.2.1-55.8.1M905.1 283h-11" class="st65"/><path fill="none" stroke="#000" stroke-miterlimit="10" stroke-width=".3" d="M847 308.2c.3 7 .5 12.6.6 16.2"/><path d="M783.8 102.5c0 6.2-.2 32.4-.4 46.8M783.1 254c0 6.2-.2 56.3-.4 70.7M492.5 244.8c-.1 21.3-.2 68.7-.4 80.2" class="st67"/><path d="M724 120c-.1 9.1-.1 28.1-.1 45.1M657.5 142.8c0 6.2.3 12.3.1 18.4M657.1 101.6c-.2 2.9-.2 5.5 0 8.3" class="st68"/><path d="M643.9 89.3c10.6-.2 22.5-.3 32.4-.4" class="st64"/><path d="M911.9 178.9c16.5-8.1 43.7-21.5 43.7-21.5 2.1 4.8 22.7 45.9 25.4 51.5-.1.3-26.8 13.9-35.6 18.3s-19.4 6.1-19.4 6.1c-2.2-2.3-9.6-15.2-12.2-20.7M447.3 238.9c-.3 9.8-3.4 33.4-3.8 37.5-7.1-.8-38.5-1.7-46.1-10.9-7.3-6.8-13.6-14.7-13.7-18.1-.1-3.4 3-38.7 3.4-38.8 0 0 28.8 2.7 47.4 4.4" class="st60"/><path d="M383.8 247.9c3.1 8.6 8.9 4.2 13.7 6 1.3 3.1.2 12.8 5.2 15.4M631.3 39.2c18.2 30.7 1.1 89-35.6 105.2 23.6-21.6 26.5-38.7 24.3-47.1-1.9 24.5-19 42.4-38.7 51.6 6.6-44.9-24.5-77.7-34-80.4 11.7 13.2 5.7 33.8 10.8 42.2-7.2-4-13.3-21.2-13.3-21.2s4.6 24.8 9.8 30.1c-21.5-12.2-32.5-34.1-34.8-51.3-4.2 13.2-1.9 27.1 5.6 38.8C492.7 98 473 68 465 46.3" class="st60"/><path d="M480.4 74.7c43.5 60.6 12.7 98 28.4 131.9-9.4-2.7-24-26.9-27.9-40.2.5 13.5 12.9 31.2 16.5 35.4-9.4-4.6-31.1-29.8-36.6-55.4M566.7 213.9c10 7.2 33.8 14 50-7.1" class="st60"/><path d="M564.1 216.1c-1.3-2.7 1.4-5.4 3.8-6.2-1.9 1.6-4.2 3.5-3.8 6.2zM590.9 235.9c6.1.8 12.4-.9 17.3-4.5-4.4 4.3-11.4 6.2-17.3 4.5zM576.5 204.4c2.3-10 14.5-16 24.1-13.7 5.2 1.2 11.8 6.9 7.8 12.4 3.2-5.5-3.1-10.4-8.1-11.4-9.2-2.1-20.6 3.4-23.8 12.7z"/><path d="M632.8 173.8c8.6-31 18.1-86.1 4.5-116.6M471.4 172.5c-34.2 8.3-9 70.5 28.4 50.2 4.9 9 38.2 26.5 67 28.7 21.3 1.6 48.1-6.6 64.1-21.4" class="st60"/><path d="M465.8 198.1c5.4-7.5 15.1-4.1 21.1.8 3 2.6 9.4 6.5 8.3 11.1-3.2 1.4-4.3 6.6-.2 7.7-4.4-.8-3.4-6.5-.1-8.2l-.1.1c.2-4.4-5.3-7.4-8.3-10.1-5.9-4.7-15-8.2-20.7-1.4z"/><path d="M478.3 194.7c-2.6 3.3-2.3 8.3-.5 11.9-2-3.7-2.5-8.8.1-12.3l.4.4z"/><path d="M518.7 236.8c-9.6 2.7-21.4.6-26.5-2.8 4 6 12.2 10.9 18.8 11.8-53 6.5-106.2-63.1-114.7-121.3-4.8-36.5-1.4-84.8 50.3-115C498.3-20.6 553-24.8 589.8-9.4c36.8 15.4 66.5 56 71.6 100.5-9.8-21.2-24.4-35.8-24.4-35.8" class="st60"/><path d="M433.5 205.8c1.7 7.1 2.2 15.6-1.4 24.3 5.5-5.4 7.7-9 7.7-9s1.9 14.7-7.1 27.2c13.3-5.3 24-19.5 24-19.5" class="st60"/><path d="M421.6 28.9c-2-22.3 40.1-44.9 57-34.7M394.7 100.4c-9.8-16.3-34.4-61.6-17.9-91.5C404-34.9 457.9-39.4 485.2-8.2" class="st69"/><path d="M560.8 198.4c-14.9 1.3-27.5-34-11.8-43.6 11.7-7 17.7 2.8 22.9 14.5 5.3 11.7 2.3 27.8-11.1 29.1zM625.2 182.5c-2.1 3.7-5.3 6.7-9.4 7.2-17.3 2.2-18.1-41.8.1-41.6 9.7 0 14.3 19.7 11.9 27.9" class="st70"/><path d="M524.6 147.4c-5.1-3.1 20-23.4 26.6-17.2 3.3 2.4 1.1 4.7-1.7 5.7s-8.7 2.4-13.6 4.8c-4.8 2.4-9.2 7.4-11.3 6.7zM624.7 118c3.3-.3 6.5 1.5 8.8 3.4 4.8 3 5.8-8.4-5.8-8.5M572.9 217.4c7.2 2.5 18.7 11.7 27.4 9.2 8.7-2.6 7.2-9.2 12.7-15.5" class="st60"/><path d="M574.2 217.9c6 2 10.6 2.1 15.2-1.1s11.6-6 16.2-4.4c4 1.5 6.6-.1 8.2-2M591.5 226c2.3-2.8 6.8-4.3 9-2.7M599.1 222.8c1.6-1.7 5.5-2.7 7.8-.9" class="st60"/><path d="M590.5 216.1c2.2 2.2 6.3 1.7 7.8-.6 2.4.7 5.3.4 6.5-3.3" class="st60"/><path d="M577.3 218.8c3.6 1 9.6.4 13.1-2.9 1.4 2.3 6.7 1.6 7.8-.4 2.8.8 5.6-.3 6.5-3.3 0 0 1.5.5 2.7.8s4.5-.9 4.5-.9c-.6.4-5 9.8-5 9.8-1.2-1.9-6.9-1-7.8.7-2.3-.6-6.3 1.4-7.6 3.4-3.1-1.3-9.5-4.2-12.4-5.8 0 .1-4.5-1.6-1.8-1.4z"/></g></svg>