<svg xmlns="http://www.w3.org/2000/svg" xmlns:xlink="http://www.w3.org/1999/xlink" viewBox="0 0 1440 360"><defs/><defs><linearGradient id="a" x1="938.78" x2="951.03" y1="128.82" y2="198.62" gradientTransform="matrix(1 0 0 -1 0 362)" gradientUnits="userSpaceOnUse"><stop offset="0" stop-color="#d3bb7f"/><stop offset="1" stop-color="#d3bb7f" stop-opacity="0"/></linearGradient><linearGradient id="l" x1="402.93" x2="433.5" y1="95.89" y2="154.34" xlink:href="#a"/><linearGradient id="b" x1="574.02" x2="603.24" y1="85.45" y2="81.6" gradientTransform="matrix(1 0 0 -1 0 362)" gradientUnits="userSpaceOnUse"><stop offset="0" stop-color="#a91f18"/><stop offset=".08" stop-color="#b01f16"/><stop offset=".19" stop-color="#c21e12"/><stop offset=".31" stop-color="#e01c0b"/><stop offset=".68" stop-color="#e01c0b"/><stop offset="1" stop-color="#a91f18"/></linearGradient><linearGradient id="m" x1="574.87" x2="607.11" y1="8.03" y2="3.78" xlink:href="#b"/><linearGradient id="c" x1="550.94" x2="600.78" y1="87.3" y2="8.39" gradientTransform="matrix(1 0 0 -1 0 362)" gradientUnits="userSpaceOnUse"><stop offset="0" stop-color="#293b60"/><stop offset="1" stop-color="#19253a"/></linearGradient><linearGradient id="n" x1="595.43" x2="622.23" y1="50.03" y2="54.36" xlink:href="#c"/><linearGradient id="o" x1="571.85" x2="594.87" y1="90.95" y2="90.95" xlink:href="#c"/><linearGradient id="d" x1="529.9" x2="553.6" y1="97.01" y2="122.23" gradientTransform="matrix(1 0 0 -1 0 362)" gradientUnits="userSpaceOnUse"><stop offset="0" stop-color="#bfad95"/><stop offset=".23" stop-color="#b9a790"/><stop offset=".51" stop-color="#aa9881"/><stop offset=".83" stop-color="#907e6a"/><stop offset=".85" stop-color="#8e7c68"/></linearGradient><linearGradient id="p" x1="621.76" x2="646.86" y1="104.62" y2="131.33" xlink:href="#d"/><linearGradient id="e" x1="571.85" x2="585.63" y1="39.99" y2="54.65" gradientTransform="matrix(1 0 0 -1 0 362)" gradientUnits="userSpaceOnUse"><stop offset="0" stop-color="#8e7c68"/><stop offset=".02" stop-color="#907e6a"/><stop offset=".4" stop-color="#aa9881"/><stop offset=".73" stop-color="#b9a790"/><stop offset="1" stop-color="#bfad95"/></linearGradient><linearGradient id="q" x1="587.17" x2="605.73" y1="36.64" y2="56.4" xlink:href="#e"/><linearGradient id="r" x1="604.66" x2="622.37" y1="37.76" y2="56.6" xlink:href="#e"/><linearGradient id="s" x1="558.36" x2="573.17" y1="45.75" y2="61.51" xlink:href="#e"/><linearGradient id="t" x1="543.12" x2="555.86" y1="55.48" y2="69.04" xlink:href="#e"/><linearGradient id="u" x1="471.87" x2="643.27" y1="199.82" y2="206.77" gradientTransform="matrix(1 0 0 -1 0 362)" gradientUnits="userSpaceOnUse"><stop offset=".35" stop-color="#f2b58d"/><stop offset=".55" stop-color="#efb189"/><stop offset=".75" stop-color="#e5a67c"/><stop offset=".85" stop-color="#de9e74"/></linearGradient><linearGradient id="f" x1="522.71" x2="553.1" y1="219.92" y2="228.89" gradientTransform="matrix(1 0 0 -1 0 362)" gradientUnits="userSpaceOnUse"><stop offset=".3" stop-color="#efbd50"/><stop offset="1" stop-color="#ddab47"/></linearGradient><linearGradient id="v" x1="625.27" x2="636.03" y1="242.77" y2="245.94" xlink:href="#f"/><linearGradient id="w" x1="400.04" x2="666.16" y1="238.74" y2="258.52" gradientTransform="matrix(1 0 0 -1 0 362)" gradientUnits="userSpaceOnUse"><stop offset=".3" stop-color="#efbd50"/><stop offset=".83" stop-color="#ddab47"/></linearGradient><linearGradient id="g" x1="430.06" x2="445.71" y1="130.13" y2="142.22" gradientTransform="matrix(1 0 0 -1 0 362)" gradientUnits="userSpaceOnUse"><stop offset=".3" stop-color="#efbd50"/><stop offset=".92" stop-color="#ddab47"/></linearGradient><linearGradient id="x" x1="390.13" x2="434.34" y1="367.49" y2="322.15" xlink:href="#g"/><linearGradient id="y" x1="414.26" x2="476.08" y1="340.85" y2="366.89" gradientTransform="matrix(1 0 0 -1 0 362)" gradientUnits="userSpaceOnUse"><stop offset=".07" stop-color="#a91f18"/><stop offset=".15" stop-color="#c31e12"/><stop offset=".23" stop-color="#d81c0d"/><stop offset=".28" stop-color="#e01c0b"/><stop offset=".72" stop-color="#e01c0b"/><stop offset=".87" stop-color="#bf1e13"/><stop offset="1" stop-color="#a91f18"/></linearGradient><linearGradient id="h" x1="681.68" x2="715.57" y1="116.79" y2="41.1" gradientTransform="matrix(1 0 0 -1 0 362)" gradientUnits="userSpaceOnUse"><stop offset=".22" stop-color="#f2b58d"/><stop offset=".47" stop-color="#efb189"/><stop offset=".73" stop-color="#e5a67c"/><stop offset=".85" stop-color="#de9e74"/></linearGradient><linearGradient id="z" x1="664.75" x2="709.24" y1="302.75" y2="203.41" xlink:href="#h"/><linearGradient id="A" x1="567.85" x2="584.24" y1="125.18" y2="88.59" xlink:href="#h"/><linearGradient id="D" x1="746.61" x2="746.61" y1="100.14" y2="220.09" gradientTransform="matrix(1 0 0 -1 0 362)" gradientUnits="userSpaceOnUse"><stop offset="0" stop-opacity=".3"/><stop offset=".05" stop-color="#252525" stop-opacity=".31"/><stop offset=".12" stop-color="#585858" stop-opacity=".33"/><stop offset=".2" stop-color="#848484" stop-opacity=".35"/><stop offset=".28" stop-color="#aaa" stop-opacity=".37"/><stop offset=".36" stop-color="#c9c9c9" stop-opacity=".4"/><stop offset=".44" stop-color="#e1e1e1" stop-opacity=".42"/><stop offset=".53" stop-color="#f2f2f2" stop-opacity=".44"/><stop offset=".63" stop-color="#fcfcfc" stop-opacity=".47"/><stop offset=".75" stop-color="#fff" stop-opacity=".5"/></linearGradient><linearGradient id="E" x1="796.5" x2="905.26" y1="162.59" y2="162.59" gradientTransform="matrix(1 0 0 -1 0 362)" gradientUnits="userSpaceOnUse"><stop offset="0" stop-opacity=".3"/><stop offset=".11" stop-opacity=".27"/><stop offset="1" stop-opacity="0"/></linearGradient><radialGradient id="i" cx="269.5" cy="459.03" r="1" gradientTransform="matrix(-7.88 3.88 3.88 7.88 898.9 -4482.08)" gradientUnits="userSpaceOnUse"><stop offset=".74" stop-color="#4f6081"/><stop offset="1" stop-color="#324365"/></radialGradient><radialGradient id="B" cx="272.78" cy="458.81" r="1" gradientTransform="scale(-7.9 7.9) rotate(26.2 1036.17 -510.85)" xlink:href="#i"/><radialGradient id="j" cx="321.68" cy="455.53" r=".99" gradientTransform="matrix(-2.84 1.4 1.4 2.84 887.14 -1579.61)" gradientUnits="userSpaceOnUse"><stop offset=".75" stop-color="#fff"/><stop offset="1" stop-color="#fff" stop-opacity="0"/></radialGradient><radialGradient id="C" cx="311.81" cy="456.19" r="1" gradientTransform="matrix(-3.24 1.6 1.6 3.24 837.93 -1800.17)" xlink:href="#j"/><radialGradient id="F" cx="237.25" cy="460.02" r="1" gradientTransform="matrix(87.3 0 0 -100.64 -19909.51 46493.98)" gradientUnits="userSpaceOnUse"><stop offset="0" stop-opacity=".5"/><stop offset=".11" stop-opacity=".45"/><stop offset="1" stop-opacity="0"/></radialGradient><clipPath id="k"><path fill="none" d="M0 0h1440v360H0z"/></clipPath></defs><g clip-path="url(#k)"><path fill="#f793cd" d="M-10.33-43h1457.38v432.41H-10.33z"/><g fill="#c31b62" fill-opacity=".33" opacity=".5"><g opacity=".4"><path d="M1254-14.46h27.45V410H1254zM1244.7-12.85h4.63V411.6h-4.63zM1286.11-13.49h4.64V411h-4.64z" opacity=".4" style="isolation:isolate"/></g><g opacity=".6"><path d="M1190.42-14.46h27.46V410h-27.46zM1181.15-12.85h4.64V411.6h-4.64zM1222.57-13.49h4.63V411h-4.63z" opacity=".6" style="isolation:isolate"/></g><g opacity=".8"><path d="M1127-14.46h27.46V410H1127zM1117.76-12.85h4.63V411.6h-4.63zM1159.17-13.49h4.64V411h-4.64z" opacity=".8" style="isolation:isolate"/></g><path d="M1063.48-14.46h27.45V410h-27.45zM1054.21-12.85h4.63V411.6h-4.63zM1095.62-13.49h4.64V411h-4.64z" opacity=".5" style="isolation:isolate"/><g opacity=".2"><path d="M1317.74-14.46h27.46V410h-27.46zM1308.47-12.85h4.64V411.6h-4.64zM1349.89-13.49h4.63V411h-4.63z" opacity=".2" style="isolation:isolate"/></g><path d="M745.64-14.46h27.46V410h-27.46zM736.37-12.85H741V411.6h-4.64zM777.79-13.49h4.63V411h-4.63zM682.09-14.46h27.46V410h-27.46zM672.82-12.85h4.64V411.6h-4.64zM714.24-13.49h4.63V411h-4.63zM618.7-14.46h27.45V410H618.7zM609.43-12.85h4.63V411.6h-4.63zM650.84-13.49h4.64V411h-4.64zM555.15-14.46h27.45V410h-27.45zM545.88-12.85h4.63V411.6h-4.63zM587.29-13.49h4.64V411h-4.64zM999.9-14.46h27.46V410H999.9zM990.64-12.85h4.63V411.6h-4.63zM1032.05-13.49h4.63V411h-4.63zM936.36-14.46h27.45V410h-27.45zM927.09-12.85h4.63V411.6h-4.63zM968.5-13.49h4.64V411h-4.64zM873-14.46h27.46V410H873zM863.69-12.85h4.64V411.6h-4.64zM905.11-13.49h4.63V411h-4.63zM809.41-14.46h27.46V410h-27.46zM800.14-12.85h4.64V411.6h-4.64zM841.56-13.49h4.63V411h-4.63zM300.75-14.46h27.46V410h-27.46zM291.48-12.85h4.64V411.6h-4.64zM332.9-13.49h4.63V411h-4.63z" opacity=".5" style="isolation:isolate"/><g opacity=".8"><path d="M237.2-14.46h27.46V410H237.2zM227.93-12.85h4.64V411.6h-4.64zM269.35-13.49H274V411h-4.63z" opacity=".8" style="isolation:isolate"/></g><g opacity=".6"><path d="M173.81-14.46h27.45V410h-27.45zM164.54-12.85h4.63V411.6h-4.63zM206-13.49h4.64V411H206z" opacity=".6" style="isolation:isolate"/></g><g opacity=".4"><path d="M110.26-14.46h27.45V410h-27.45zM101-12.85h4.64V411.6H101zM142.4-13.49h4.6V411h-4.6z" opacity=".4" style="isolation:isolate"/></g><path d="M491.47-14.46h27.45V410h-27.45zM482.2-12.85h4.63V411.6h-4.63zM523.61-13.49h4.64V411h-4.64zM428.07-14.46h27.46V410h-27.46zM418.8-12.85h4.64V411.6h-4.64zM460.22-13.49h4.63V411h-4.63zM364.52-14.46H392V410h-27.48zM355.25-12.85h4.64V411.6h-4.64zM396.67-13.49h4.63V411h-4.63z" opacity=".5" style="isolation:isolate"/><g opacity=".2"><path d="M46.69-14.46h27.45V410H46.69zM37.42-12.85h4.63V411.6h-4.63zM78.83-13.49h4.64V411h-4.64z" opacity=".2" style="isolation:isolate"/></g></g><path d="M386.92 209.67s-4.32 31.33-5.27 37c-3.8 14.24 12.46 26.05 28 26.86-.22 9.67-2.67 44.47-2.92 49.85a8.38 8.38 0 012.3 0c.45-14.15 1.62-36.9 2-51a45.32 45.32 0 01-7.51-2.71c-7.75-4-15.59-13.51-19.18-20.35a10.24 10.24 0 01-.32-5.71l2.9-33.94zM406.61 335c-1.74 7.23-2.14 10.6 12 10.47 42.89-1.61 169-2.46 212.8-1.66 65.57.16 206.78 2.3 271.05 1.47 13.47-1.17 21.08-3.42 21.37-24.5.84-20.07-1.42-77.37-1.66-90.38 0 0 1.76 4.58 2.93 5.27s11.13 1.46 30.26-8.2 28.89-15.72 28-19.13-27.81-51.05-27.81-51.05l-34.85 17.08.3-74.87c-.63-.58-513.77 235.5-514.39 235.5zM413.42 208.5l-.08 2.41-2.12-.21 2.34-41.8.88.8zM642.83 89.4l.08-.81c74.56-1.33 193.66-.73 269.53 1l-.37 1.32s-98.23 4-177.88 3.37-91.36-4.88-91.36-4.88z" opacity=".2" style="isolation:isolate"/><path fill="#d2dbd3" d="M416.05 171.43l-1.75-1.85c0 13.08-.65 28.26-.93 41.38l36.45 3.52c.13 0-1 3.27-1 3.36l-.49 2.4c-.46 3.52-.46 9.07-.68 12.64-.8 13.61-2.05 30-4.2 43.48-10.11-.78-22.49-1.95-32.41-4-.53 15.8-1.25 35.13-2 51a6.43 6.43 0 012.05.88l1.13-1.61 1.66-1.36 1.41-.69 1.9-.24a7.65 7.65 0 015.27 2.88 15.42 15.42 0 011.23 2.39 3.31 3.31 0 011.46.24l.44.44.24.68-.1.74-.53.83-1.08.39a17.33 17.33 0 01-1.22 3.41l-1.36 1.56-1.56.93-2 .54-1.85-.2c-1.15-.47-2.9-1.06-3.56-2.19l-.78 1.17a12.51 12.51 0 01-3.08 1.27c0 .54-.11 2.54-.15 3.12a3.72 3.72 0 00.69 1.56c.31.23 1.91.92 2.29 1.12l3.17.69c3.1.15 9.5.37 12.55.34 26.57-1.25 59.13-.3 85.79-.68a227.19 227.19 0 016.56-40.57 31.16 31.16 0 01-2.88-5.56 17.69 17.69 0 01-.54-5.71c1.19-5.57 2.34-13.13 5.18-18.15l-.49-.1a58.3 58.3 0 01-2.15-12.59l.29-3.13.83-2.44 1.91-2.53c5.66-5 13-9.48 20.44-10.89a174.3 174.3 0 01-23.27-10.29 57.37 57.37 0 01-11.08 5.95 35 35 0 01-7.27.73c-5.59-.1-12-2.89-17-5.22a37.1 37.1 0 01-7.62-6.74c-1.5-2.43-3.68-5.81-4.34-8.63-2.3-.53-5.93-3.16-7.86-4.49a2640.8 2640.8 0 00-13.86-10.5c-11.16-9.26-23.77-18.87-33.85-29.28zM642.88 89.4c6.68-.07 27.09-.24 33.43-.49a68.7 68.7 0 00-1.51 10.2 92.79 92.79 0 00-1.17 10.39l-.69 7.28a107.7 107.7 0 00.64 11.51 129.88 129.88 0 01-8.44-10.78l-2.25-3-3-2.78-3.12-2-2.78-.93-2.68-.29-2.79.34-2.34.88-2.1 1.56-1.22 2-.34 1.9a9.13 9.13 0 00.88 4.49 16.33 16.33 0 002.83 2.93 72.42 72.42 0 014.88 5.47c1.89 3.19 4.47 7.72 5 11.42.72 2.18 2.3 5.21 3.12 7.36.85 3.55 1.84 8 3.81 11.08a76.48 76.48 0 003.71 4.54 28.25 28.25 0 00-4.88.68l-2.87 1.25-.2-1.47-.49-1.17-.93-.78-2-.63a59.27 59.27 0 00-6.25.78 9.78 9.78 0 00-2.59.88 7.16 7.16 0 00-1.22 1.85c-.2 1.06.12 7.34.15 8.54a22.32 22.32 0 01-2.39 1.22c0-.14-11.49.25-11.91.24l-2.17 1.27a28.81 28.81 0 00-4.34-4.49c2-3.8 3.89-11.16 5-15.32a166 166 0 004-33.38l2.05-3.61 2.24-6a118.83 118.83 0 004.93-22.94z"/><path fill="#d2dbd3" d="M647.55 171.79c0-.46-.42-7.16-.07-7.4l.81-.76c.45-.35 6.42-.86 7.1-1l.84.15.55.7.07 1.68c-.84.42-3.57 1.78-4.32 2.27l-.22.37a5.56 5.56 0 00.63 2.3l2 .7c-1.94.35-5.44.38-7.39.99zM630.73 292.58a40.14 40.14 0 01-.81-10.66l.42 1.07.61.2.24.56.66.54-.29 1.14.1 1.1a4.2 4.2 0 001.39 2 4.55 4.55 0 00.85 2.83l.64.34.29 1.71zM624.61 228.7c.92-1.56 2.68-4.78 3.44-6.41l1.22 3.78a88.5 88.5 0 01-4.66 2.63zM627 340.31l.07 1.93a839.6 839.6 0 0044.05-.72v-1.09s-1.12 1.13-2 .54-2.05-1.23-2-2.34a15.56 15.56 0 01.57-3c-2 1.09-2 4.78-10.1 5.86-6.52.48-11-1-16.13-1.12s-14.46-.06-14.46-.06zM672.22 326.06c2.16-.48 4.5.35 4.29 2.12a2.34 2.34 0 012.78 2.2 2.6 2.6 0 013.27 2.1c1-1 2.72-.36 3.5.43.75-1.24 3.08-.87 3.92-.24.06-1.09 2.71-1.06 3.11-.91.54-1.08 2.8-1.58 3.73-1.37.34-1.88 2-2 3.36-2.13-.33-1.53 1.26-2.55 2.35-2.86l-.12-.67c-4.94.64-12.64.43-17.26-2.47-3 .86-10.03 2.9-12.93 3.8zM687.1 341.35l.42-3.17 1-3c0 1.5-.13 4.65-.22 6.16zM692.47 341.31a54.34 54.34 0 01.39-7c.25 2 1 5 1.22 7zM698.47 341.43l-1.53-4.66a27.51 27.51 0 010-4.16c1 2.37 2.23 6.41 3.43 8.69z"/><path fill="#d2dbd3" d="M707.2 341.37h-2.63c.14-1.8-3.71-6.53-3.8-8.79-.28-1.68-.51-3.3-.51-3.3 0 .95 5.47 9.89 7.5 9.73 2.48 0 2.85-1.54 1.28-3.37-1.21-.47-5.71-7.63-5.68-8.52a26.24 26.24 0 004.83 5.23c2.26 1.56 3.59 2.45 4.2 2.3 1.92-.33 2.79-2.09.82-3.65-2.12-1.14-5.11-3.71-6-5.27a40.16 40.16 0 006.73 3.67c1.75.68 2.13-.37 2.56-.74a1.54 1.54 0 00-.5-2.66 54.18 54.18 0 01-5.25-2.84l1.66-.33a20.49 20.49 0 005 1.14c1.47.2 1.89-1.18 1.76-2.23l3.63 7.1 2.33 5.26s2.18 4.72 4.12 5.71c5.41 1.9 15.71-5.61 19.23-10.32a33.47 33.47 0 003.88-8.15 4.62 4.62 0 00-1.42-4.49 26.88 26.88 0 01-5-5c1.67-.84 6-6.41 5.77-9.13-.1-4.74-.41-8.19-4-10.28 3.21-.47 6.58-8.17 5.91-11.06.22-4-4.52-6.27-6.57-7.31l.93-1.22c1.89-1.34 4.92-10 4-12.8-.57-2-4.56-5.23-6.08-5.68a7.36 7.36 0 00-.65-4 35 35 0 00-4.3-5.79c16.58-.59 43 7.7 56.19 17.64 9.66 25.4 36.32 54 68.07 44.87 35.43-12.38 47.23-62.1 48.66-94.47 1.17 2.37 5.75 10.6 7.1 13.05-.58.78.21 10.09.26 16.15.67 17.81 1 30.57 1.62 46.89-.23 6 1.35 13.46-.09 20.24a55.12 55.12 0 01-12.88 25.69c-4.49 4.78-8.2 6.72-13.42 6.71-16.27-.08-34.36 0-46.8.08-18.81-.12-77.58-.52-95.51-.25-11.22.29-35.82.82-46.95.19zM650.55 253.84c1.15-1.34 4.39-5.11 5.53-6.36 1.77 0 5.42.1 7.2.18 1.73-.13 5.26-.41 7-.53 3.93 7.56 8.43 16.38 15 22-1.52 2.63-4.55 6.89-6.24 9.4-6 5.1-13.65 10.42-19.72 15.37l-1.17-1.17-1.61-.74-1.9-.08-2.37.47a8.68 8.68 0 00-1-1c.71-.85-2.22-3.13-2.59-2.86.45-.73-1-2.37-1.61-2.36a5.77 5.77 0 00-.48-2.17 8 8 0 00-1.59-1.59c.79-1.29-.73-2.64-1.42-3.3a4.85 4.85 0 00-2.73-5.83 5.87 5.87 0 000-1.51l-.95-1.12c.43-1.54 3.31-7.21 4-8.73.86-1.73 5.32-6.58 6.65-8.07zM709.55 165.73l-4.3.38c5.14-1.77 12.72-6.85 14.47-15.46 1.32-5 3.09-24.09 3.67-27.58l1.34-7c1.22-4.47 4.11-12.64 4.83-17.14l.07-1.77-.79-2.67-1-1.46L726 91.7l-1.82-.7a8.33 8.33 0 00-4 .29 23.91 23.91 0 011.23-2.89c62.7.19 128 .34 190.67 2.46a10.93 10.93 0 00.23 2.61c.17.41.62 1.56.78 2l-.78 1.53.41 1 .93.6a4.71 4.71 0 001.48-.39c.57.2 1.78.76 2.33 1a16.39 16.39 0 002.69.52c-.37 22.43-1.13 53.34-.81 75.68l-7.43 3.47s-.43-6.75-4.49-20.47-13.21-32.6-13.21-32.6-7.79-13.81-17.77-22.86c-12.66-11.27-28.58-14.14-38.38-11.77l-5.63 1.76c-2.78 1.4-9 4.74-11.39 6.63a72.07 72.07 0 00-13.83 13.7c-2.1 2.51-6 9.16-7.64 12a99.87 99.87 0 00-7.48 17c-17.6 16.11-40.49 24-63.24 24.38-1.5-3-18.8-1.37-19.3-1z"/><path fill="#ede2a2" d="M910.17 179.8c14.16-7.27 31.18-15.35 45.42-22.46 7.63 15.93 17.64 35.66 25.41 51.46-7.12 3.89-21.37 11.08-28.5 14.72a204.66 204.66 0 01-11.49 5.5 91.94 91.94 0 01-15 4.16c-4.65-6-8.78-13.81-12.18-20.62A158.42 158.42 0 00913 187zM384.28 239.56c.75-8.84 1.69-22.25 2.9-31 19.37 1.85 43.26 4 62.64 5.94a34.39 34.39 0 00-1.8 9c-.17 4.47-.66 13.63-.66 13.63a381.42 381.42 0 01-3.93 39.3s-24.45-2.49-28.26-2.93c-11.43-1.61-19.89-9-25.56-16.23-1.83-2.51-5.41-6.63-5.79-9.84z"/><path fill="url(#a)" d="M910.17 179.8c14.16-7.27 31.18-15.35 45.42-22.46 7.63 15.93 17.64 35.66 25.41 51.46-7.12 3.89-21.37 11.08-28.5 14.72a204.66 204.66 0 01-11.49 5.5 91.94 91.94 0 01-15 4.16c-4.65-6-8.78-13.81-12.18-20.62A158.42 158.42 0 00913 187z"/><path fill="url(#l)" d="M384.28 239.56c.75-8.84 1.69-22.25 2.9-31 19.37 1.85 43.26 4 62.64 5.94a34.39 34.39 0 00-1.8 9c-.17 4.47-.66 13.63-.66 13.63a381.42 381.42 0 01-3.93 39.3s-24.45-2.49-28.26-2.93c-11.43-1.61-19.89-9-25.56-16.23-1.83-2.51-5.41-6.63-5.79-9.84z"/><path fill="#c4ae70" d="M384.89 250.53c3.4 4.46 8.48 2.19 12.28 3.21l.59.53c.65 2.51.58 5.67 1 8.22a14.06 14.06 0 002.89 6.13c-3.36-2-7.29-6.22-10-9.05a74.67 74.67 0 01-6.76-9.04z"/><path fill="#f44040" d="M913.57 87.53c-2.79 2.16-1.24 9.86 3.37 11.46 3.22 1.5 5.67 0 7-.77 2.07-1.81 2-3.93 2.38-5.45 11.62-.57 3.9-17.69-4.5-9.92a9.41 9.41 0 00-.92 2.56 21.8 21.8 0 00-3.55-.29 7.92 7.92 0 00-3.78 2.41zM403.17 326.62c.85-3.11 5.61-4.71 8.05-2.29 3.06-6.49 12.16-5.05 12.84 3.61 0 7.62-8 9.4-11.38 5.17-4.33 5.56-12.34-.49-9.51-6.49z"/><path fill="#d3d8dd" d="M913.06 95.36c-2.16 1.21.61 4.53 2.27 2.6l-1.61-1.5zM423.74 325.59l1 .14.84.63a4.27 4.27 0 01.18 1.42l-.44.7-1.17.51a7.7 7.7 0 00-.41-3.4z"/><path d="M402.83 328.43c-.24 3.38 5.81 8.43 8 3.9.78-1.56.05.83.68.64a6.33 6.33 0 002.05-2.05 20.73 20.73 0 00.1-2.88c.3 5.12 4.15 2.2 5.56.54.25-.83 1.32 4.39-1 5.17a7.19 7.19 0 003.37-2.3c-1.25 2.3.66 2 1.36.79-2.07 3.34-7.49 4.19-10.2.83-3.63 5.08-11.07.76-10-4.84zM921.05 88s-4.68 4.1-3.51 5.71c1.6 2.35 5.17 4.5 2 6 2.69-.08 7.08-1.94 5.17-6l1.42-1.22 1.66.1 1.61-.49 1.66-1.27a23 23 0 001.22-2.93c-2.85 4.54-8.63 3.33-9.86-2 0 0-.25-.83-.88-.44-.89.91-.54 1.78-.49 2.54zM912.27 96.86c.44.78 1.76 0 1.76 0L915.2 98c-1.2.8-2.66.65-2.93-1.14zM424 327.31s1.54.29 1.65-.11.4.4-.22 1a2 2 0 01-1.25.59 7.22 7.22 0 00-.18-1.48z" opacity=".25" style="isolation:isolate"/><path d="M900 325.55s-1.81.34-1.27 1.27 9.81 10.3 3 13.42c6.61-2.99-.91-12.58-1.73-14.69zM920.76 227.75s-5.71-10.49-7.08-13.62c.2-1.31.2-1.56.83-.39 2.09 4 4.3 8.54 6.2 11.62zM920.13 100.28c-.25 2.29-2.54 3.42-4.89 1.71a8.47 8.47 0 01-2.87-4.93c-.16 1.75 2.23 1.62 2.73.73.53 1 4.12 1.87 5.07 1.71zM408.78 336.19c1.9 0 3.76-1.86 3.76-1.86.95 2.68 10.68 2.68 11.95-.78 1.42-2.14 1.32-6.44 1.32-6.44a2.07 2.07 0 01-.83 1.47l-.78.53c-1.63 5.3-6.43 8.42-11.66 4-.83.92-2.13 2.18-3.47 2.09-.07.11-.26.86-.29.99zM411 273.53c2.19.81 31.69 4.49 33.91 4 1.57-.49 1.37-11.76 2.15-23.28 1.24-16.47 1.48-28.11 2.39-38.5a27.57 27.57 0 00-1.41 6.54c-.72 13.78-.59 21.87-2.35 35.23-1.17 7.13-1.39 13.39-2.09 18.74-8.24-.64-24.35-2.1-32.56-3.81z" opacity=".15" style="isolation:isolate"/><path d="M642.36 15.91c1 .17 7.9 16.68 8.51 17.84a134.13 134.13 0 016.07 25c1.93 13.87.15 21.36.15 21.36s-1.43-3.62-4.49-11.06a72.28 72.28 0 00-6.93-12.9c2.54 15.33-2.22 41-9.48 54.55.69 7.55-3.82 42.57-9.48 50.42 2 1.12 4.53 4.74 4.53 4.74a12.27 12.27 0 012-1.12c.77-.25 12.49-.56 12.49-.56l2.81-1.17s-.05-1-.36-5 .56-5.3 1.68-6 5.92-1.69 9.13-1.48 3.41 4.13 3.41 4.13a16.63 16.63 0 013.67-1.43c1.33-.2 5.3-.15 4.69-.54s-5.65-6.8-6.65-10.78-1.61-7.11-3.06-9.4-1.22-2.68-2.44-7.65-5.13-10.17-8.11-12.7c-5.86-3.92-7.47-12.27-.31-15.14 3.29-1.07 11.47-.15 14.23 3.14s11.47 14.68 12.46 15.83.46.15.46-7.34 2.22-24.86 3.44-33.27c1.3-13 7.42-21.29 17.28-17 5.42-6.15 15.94-8.37 18 3.51 0 2.22.38 1.15.38 1.15 13.32-6.77 14.59 8.06 9.94 15.37 2.81-1 9.25-1.41 9.71 5.2.54 4.67-2.14 10.25-4.58 19.65-5.11 18.09.44 47.18-20.42 52.92 1.21-.45 21.51-3.12 24.55.84 20.89.14 51.08-10.93 66-25.54 4.26-16.37 21.86-46.39 44.2-52.76 47.54-13.72 75.55 54.6 80.52 88.28 5.64 38.51 4.95 85.37-26 121.73-40.17 40.49-82-.71-93.6-32.19-11.08-7.51-30.42-15.51-44.7-17.24a107.75 107.75 0 00-13.69-1c-.8.12 1 .5 3.18 4.1s1.79 5.23 1.76 5.92.53.58 1.18.77 4.36 3.78 5.12 5.08.85 3.25-.69 7.42a20 20 0 01-4.28 7.3c4.21 4.15 9.55 2.71 5.7 13.65-1.49 4.09-4.17 5.55-4.74 5.66s.46.61 1.34 1.42 1.41.88 1.91 3.32c2 5.47-.75 11.88-4.59 15.1-.88 1.08-.42 1.15.23 2.11 2.79 3.31 8 4.23 4.74 10.93-2.44 7.7-15.33 19.19-23.51 16.6-2.22-1.19-3.37-4.4-5.16-8.42s-5-10.39-5-10.39c.9 5.45-8.52.3-10.14-.54-1.22-.65-1.37-.42-.3.77s4 2.79 6.11 3.9 2.76 1.91 1.76 3.47-2.67.85-5.12-.38-4.89-3.21-3.55-1.41 4.39 3.09 5.54 4.43a2 2 0 01-1.53 3.33c-1.61 0-4.78-2.37-6.35-4.05-3.6-4.48-3.15-2.78-.38 1.49 1.45 2.18 4.36 4.28 4.36 5.27s-1 2.34-2.22 2.11-4-3.41-5.62-5.7-2-3.4-2-2.68 1.19 4.13 2.26 6.47 2.33 2.94 2 4.39a2.35 2.35 0 01-2.94 1.42c-1.55-.07-4.49-9.66-5.09-10.29-.38 0-.19 2.83.42 5.32.82 3.78 3.93 7.11-.73 7.68-3.21-.39-3.16-9.28-3.78-10.93-.27-.81-.54 1.6-.57 4.43-.47 3.65 1.88 8.47-2.72 7.65-2.54-.44-1.44-10-1.34-11s-.92 1.3-1.22 2.9c-.68 2.94.5 4.78-1.11 7.31-.8 1.14-2 1.6-2.87 1-1.25-.63-1-4.82-1.3-5.7a18.2 18.2 0 01-2 3.82c-2.49 2.58-4.64-.44-4-2.9.11-.88 0-.54-.42 0-1.16 1.8-3.66 2.59-5-.08-.76-1.49-.19-1.83-.19-1.83-4 2.24-5.85-2.56-3.56-5.85.62-1.23-.46.38-1.88 2.42s-2.45 2-6.12 3.67-6.22 1.63-12.74 0-21.72-.51-21.72-.51-.61 10.91-1.63 28.23-2.23 15.5-2.23 15.5l-103.29 3.87-6.93-9.18c-10.65-16.27-4.11-61.35 1.93-78.81-3.46-4.49-4.07-7.55-4.07-9.69s1.52-15.6 5.3-21.51c-.82-4.18-4.08-14-2-18.35s9-10.2 23.75-15.09c-8.87-1.94-23.75-10.71-23.75-10.71-13.74 12.53-41.39 7.64-49.66-14.07-47.62-32.15-115.36-83.65-80.65-153.86-8.87 6.73-17.23 19-17.23 19s-.51-6.83 12.14-26.31a133.1 133.1 0 0127.73-30.89 77.83 77.83 0 00-25.19 6.73C395.61 12.44 415.9 2 415.9 2zM631.5 219.12s-1-4.34-1.79-2.91-2.8 5.4-2.8 5.4zm22.73 28.29l-6.47 7.19a110.42 110.42 0 00-5.25 11c1.17.66 1.07 2.65 1.07 2.65 2.8.47 3.32 4.73 3 6.32 0 0 2.34 1.28 1.37 3.37a3.47 3.47 0 012 4c.77.31 2.45.62 1.94 2.45 1 .26 3.06 1.78 2.5 3a2.88 2.88 0 011.07.92c2.3-1.07 6.19-.24 7.65 1.63 0 0 12.94-10.4 16.87-13.21s3.93-3.16 5.25-5.2 4.69-7.44 4.69-7.44a66.79 66.79 0 01-8.56-10.55 82.87 82.87 0 01-7-12.39 60.36 60.36 0 01-6.42.46 53.49 53.49 0 01-8.52-.15zm-16.82 41.93c-.36 0-.36-1.61-.36-1.61s-1.47-.53-1.5-3.34c-2.4-1-1.33-4.43-1.33-4.43s-.91 0-.94-1.3c-.48 0-.92-.51-.92-.51-.47.65.49 10.73.77 10.55 0 0 3.46.54 4.28.64zM677 323.27c.89-.06 4.32.42 3.92 2.5 1.14-.93 3.25 1.15 3.06 2.14.84-.34 3.67.7 3.26 2.19.69-.27 3-.7 3.52.53.64-.69 3.23-1.36 4.11-.28 0-.52 3.2-1.67 3.59-.74 0-1 3-2.08 3.69-1.53.25-1.51 2-2.35 3.4-2.21a2.74 2.74 0 012.65-3l-.16-.71c-1.81.79-14.84-.28-16.79-2.07l-1-.58z" opacity=".15" style="isolation:isolate"/><path fill="url(#b)" d="M575.59 283.19l-.25-1.42c3 .5 6.14.94 8.93.42a31.5 31.5 0 011.93-.41 28.76 28.76 0 003.2-1.45c4.09-2.72 5.59-8.06 5.39-12.76 2.28 5.92 3.58 13.85 4.34 20.13a15.1 15.1 0 00-2.88-.92c-.62 0-2 0-2.63.07-.31.36-1 1.08-1.32 1.42a49.92 49.92 0 00-8-1.54c-.84 0-2.52 0-3.19.58l-.42 1.54-1.66.07-.32-.7a12.61 12.61 0 00-2-1.64c-.13-.58-.92-2.79-1.12-3.39z"/><path fill="url(#m)" d="M577.76 371.67c.46-9.41 1.59-22.86 1.24-32.21 6.28.59 16.88.79 23.28.8.41.63-.08 10-.07 10.91l-.3 20.13z"/><path fill="url(#c)" d="M537.37 255.81c4.69-2.44 12.2-4.83 16.35-2.83s3.91 5 5.47 6.83 4.15 4.79 4.15 4.79c2.58 2.74 6.28 5.8 8.39 8.93a29.66 29.66 0 013.41 7.9 67.34 67.34 0 011.57 5 11.37 11.37 0 012.29 2.51l.54-.26 1.12.19.1-1.12a4.43 4.43 0 011.71-1.12 32.68 32.68 0 019.56 1.75l.54-.78c1.42-1 3.57-.83 5.22-.68a3.83 3.83 0 001.34.8l.37.66c4.36 0 10.27.81 14.64 1.17.6.12 2.79.09 3.22.64l.19.49c1.32-.35 3.23-1 4.59-.64a12.15 12.15 0 012.44 1l1.86.63a150.63 150.63 0 0015.27 2.69 19.63 19.63 0 013.76.34 27.44 27.44 0 019.71-2.88 16 16 0 013 .88l1.17 1.17a40.25 40.25 0 01-4.59 3.17c-2.23 4.36-2.11 10-1.8 14.74a101 101 0 002.78 17.81c2 .1 5.06-1 7-1.41 1.07-.26 6.8-1.37 7.66-1.91.33 1.67-.64 4-1.18 5.52a18.4 18.4 0 01-3.07 5.12l-1.56 1.86a59.5 59.5 0 01-2.54 1.56 20.29 20.29 0 01-3.66 1l-3.85.44c-1.43-.26-5-.78-6.5-1-2.34-.17-7.94-.47-10.34-.59-11.58-.09-28.65.13-40.26-.1-3.55-.08-15 .05-18.45-.68.48 9.84-.69 21.93-1.39 31.77l-63.17-1.9a110.34 110.34 0 01-1.82-15.27c.22-2.54.51-8.94.61-11.56 1.07-13.39 2.66-28.49 6.49-41.39a18.24 18.24 0 01-3.37-7.56c-1.1-6.59 4.32-21.85 6.78-26.16 2.88-5.21 9.28-8.68 14.25-11.52z"/><path fill="url(#n)" d="M602.62 247.81c2.1 1 3.42 3.81 3.42 3.81s1.36 2.87 2.78 6 20.4 15.66 20.91 24 0 6.44.51 8.34a18.8 18.8 0 01.59 2.64l-4.39-.93c-1.05-.23-3.17-1.16-4.1-1.52l-1.34-.25-1.13.15a16 16 0 01-2.13.69 3.21 3.21 0 00-1-1 14.46 14.46 0 00-3.47-.3l-13-1.06h-.69l-.18-.55-.48-.25c-.88-8.21-2.52-17.14-6-24.71a37.59 37.59 0 00-2.93-5.89 21.09 21.09 0 01-1.39-1.61c.15-.27 3.88-5.93 3.72-6.08 2.1-.62 6.37-1.79 8.49-2.34zm22.65 123.49c.5-8.21 1.58-22.74 1.7-31-7.28.11-17.34.08-24.62-.14.08 4.17-.14 13.49-.29 17.74.09 3.35-.12 10.11-.37 13.46z"/><path fill="url(#o)" d="M573.53 274.21a3.91 3.91 0 00-1.68-.51 43.46 43.46 0 012.69 5.9 5.77 5.77 0 00.7 2.1c10.63 2.76 20-1.77 19.62-13.93-.53-1.42-2.36-7.08-3.39-8.15.27 3.76.76 7.94-3 12.91-2.74 3.05-4.27 3.39-7 3.17-4.36-.5-5.77-.76-7.94-1.49z"/><path fill="url(#d)" d="M519 258.28c-.16 4.37 1.2 9.55 2 13.83.44-1.11 1.65-3.71 2.16-4.83l2.53-3.33 3-2.53c6.18-4.82 20.19-13.27 27.56-6.8a33.87 33.87 0 002 3.14 30.14 30.14 0 00-1.83-7.76c-1.91-.48-6.1-1.41-8-1.83-4.4-1.31-11.18-3.29-15.48-5a33.59 33.59 0 00-5.68 3.26 31 31 0 00-4.35 3.37c-.76.81-2.26 2.57-2.9 3.47-.18.62-.7 2.26-.87 2.86v2.16z"/><path fill="url(#p)" d="M600.91 246.93a84.94 84.94 0 0011.32-4.78 63 63 0 0018.77-12.3c3.41 6.36 8.94 12.69 15.79 15.37-1.09 8.57-7.12 17.21-10.22 25.09l-1.05.46-2.22 2.12a33 33 0 00-3.22 5l-.22 2.37s.09 2.05-.17.69c-1.49-6.29-9.65-12.74-14.3-17-3.8-3.36-6.82-5.18-7.86-9.51-1.1-1.69-2.38-4.41-3.76-5.91a12.14 12.14 0 00-2.86-1.6zm46.54 6.66c-.47 1.37-1.75 5.16-2.35 6.41 2.8-3.3 8.08-9.27 11-12.52a43.81 43.81 0 01-6.73-1.24c-.49 1.97-1.25 5.44-1.92 7.35z"/><path fill="url(#e)" d="M572.6 304c0-1 5 .82 5.06.7.19.16.9.17.79.58-1.59 6.55-1.75 13.13-1.63 19.66a29.79 29.79 0 001.12 6.82c0 .26.29.67.13 1-.73.17-1.2 0-3-.17a4.26 4.26 0 01-2.41-.73 31.74 31.74 0 01-1.18-4.84 59.89 59.89 0 01-.15-10.65A120.84 120.84 0 01572.6 304z"/><path fill="url(#q)" d="M582.88 308c.23-.91.48-1.56 2-1.5 1.23.2 3.63-.24 3.59 1a95.09 95.09 0 00-1.06 10.49c.71.64 3.68.84 4.68.9.68 0 1.32.11 1.35-.12s.21-3.41.38-4.61.74-4.78.74-4.78a12 12 0 01.41-2c.87-.47 4.81-.41 5.55-.46 1.37.1 0 4.24.14 4.49l-.42 3.3c-.36 3.33-.82 8.06-1 11.38a53.08 53.08 0 00.58 8.12c.49 1.19-5.36.24-5.63.21-.68-2.41-.74-6.51-1.18-8.93a19.19 19.19 0 00-5.4-.88c-1 2 .51 7.31.9 9.43-.55.67-5.58-.28-6-.9-.07-.28-.5-3.24-.62-4.4a95.37 95.37 0 01.99-20.74z"/><path fill="url(#r)" d="M604.61 306.71c-.52.59-.14 4 .46 4.5.16 0 1.88-.44 2.9-.5 9.93-.52 6.69 21.85-4.26 19.57l-.09.2c-.13-.21-.66 4-.4 4 11 1.7 17.17-8.28 17.65-18.13 1.42-11.06-8.22-13.29-16.26-9.64z"/><path fill="url(#s)" d="M555.47 296c.4.12 2.1.94 2.52 1.12.5.45 1.57.55 1.56 1.48a29.7 29.7 0 00-.26 5.51l-.77 1.56c0 .31 0 1 .06 1.26 0 0 0 .79.47.79s.48-.3.48-.3c.56-.76 1.12-.3 1.24.39.1 0 .87 3.41 1.6 2.21a66.78 66.78 0 001.52-7.1c.15-.21 1.86-2.19 2.08-2.45a7.33 7.33 0 001.63.6c1 .33 1.71-.06 1.56 1-.79 5.15-1.32 9-1.89 14.38a42.43 42.43 0 00.06 8.22 26 26 0 00.62 2.86c.09.23.38 1.57 0 1.86-2.83.18-6.32-1.68-9.83-4-5.34-3.34-7.47-12.4-1.61-15.32V310a6.5 6.5 0 01-1-2.82c-.22-4.16-.24-8-.1-11zm2.12 21.82c-.47 2.5 1.48 6.86 4.57 6.71.05-1.74.48-6.9 0-8.74-1.82-.88-4.36-.49-4.57 2.02z"/><path fill="url(#t)" d="M541.61 292.42c12.27-9.69 11.5 12.63 9.43 19.55-1.62 8.24-7.78 3.77-10.78-.09-4.38-5.28-4.17-15.15 1.35-19.46zm.55 18.1c4.13 5.14 5.23-6.46 5.66-8.5 0-1.07 1.53-8.95-2-7.34-3.58 3.58-6.59 11.17-3.66 15.84z"/><path fill="#f44040" d="M626.39 215.5a59.57 59.57 0 003.76 12.74l2.24 4.2 3.37 4.44 3.9 4a42.69 42.69 0 006.3 4c6.66 3.52 17.52 3 24.3 2.3-2.43-3.84 1-3.68 3.22-3.52.1 0-2.69-3.94-3.32-2.58 0 0 1.47 1.75.44 1.75s-8.2-2.05-8.2-2.05L660 240l-.63-.54-.39-.73-.68-.34-.35-.44c-1.94.82-3.14-1.93-3.51-2.88 0 0-.29-.63.63-.78l.93-.14v-.78c-.93-1.84.65-2.31 1.95-2.2v-.88c-.4-2 2.48-1.87 3.37-.44a19.4 19.4 0 011.32 2 6 6 0 012.73.34 8.18 8.18 0 011.46 2.4l.05 1.75c1.56 0 1.86.37 5.42 1.66 4 2.15 4.11 3.61 5.66 5.66h2.59c1.36-1.79 4.14-5.42 5.51-7.17l1.32-.54 1 .2.44.87c.19 2.25-2 4.81-3 6.69H688a15.28 15.28 0 013.47-1.37l.73.15a2.6 2.6 0 01.64 1.32l.44-.15 13.32.05c.9.54 7.21 2.54 8.34 2.93a31.31 31.31 0 005.67.73 36.39 36.39 0 008.1-1 7.7 7.7 0 003.12-1.21l.05-.54c-20.91 1.92-32.24-13.13-35.14-33.58-2-22.46 7.59-45.54 32.5-44.21-3.37-4.55-41.22 1.48-41.33.88-2.45.27-6.53.59-8.93 1-.83.12-2.65.57-3.47.78a14 14 0 01-3.61-.1v-.29c-3.56.5-13.74 1.49-16.64 1.76-3.6.67-6.69 0-10.64 2-10.48 5-18.08 19.61-18.84 30.55l-.24 4.39c.19 1.75.57 5.92.85 7.7z"/><path fill="#fff" d="M677.78 243.61h2.53a12.67 12.67 0 01-1.36 1.56 8.08 8.08 0 01-1.17-1.56zM670.85 243.56l2.73-.05c1.4 1.85 3.12 4.53 5.56 5 1.55-.42-.66 1-.63 1.27a5.33 5.33 0 00.39 1.9l.58.69a6.65 6.65 0 001.71.34 3.53 3.53 0 00-.29 1.07l.78 1.51a3.79 3.79 0 002.2.39c-.14.4-.46 1.23-.64 1.62a6.57 6.57 0 00.76 1.7 5.22 5.22 0 001.32.78l-.53.64-.3.93.25.58a3.54 3.54 0 01.73 1.22 5.14 5.14 0 001.27.49 3.14 3.14 0 00-.64 1.12 3.23 3.23 0 001.71 2.49v.29a1.56 1.56 0 00-.19 1.42 3.28 3.28 0 01.48 1.27c-1.53-.08-1.2.74-7.22-5.66-6.73-8.2-9.7-16.43-11.47-19.38v-.93a7.46 7.46 0 011.44-.7zM685.88 243.51l2.24.25-4 2.49c.39-.65 1.36-2.08 1.76-2.74zM692.85 243.66l13.08.1 1 .1c.16.16 8 2.72 8.49 2.88-.59.43-1.63 1.73-7.22 4.24-5.13 2.25-6.2 2.88-7.22 3.9a14.09 14.09 0 00-2 3.32l-.3-.48-.92-.1a3.54 3.54 0 00-.3-3.32 3.17 3.17 0 00-1.66-.59c1.4-1.62-.46-3.59-2.29-3.22 2.26-1.52 1.57-3.16-.64-3.76-.46.12-1.4.42-1.85.59a6.67 6.67 0 002-2.54zM719 320.82s4.1 8.54 5.62 12.05 3.56 7.37 6.24 7.37c6.6-.43 19.76-9.87 21-17.57 2.69-8.63-5.76-4.34-9.18-18.64a3.39 3.39 0 00-1.07.73c-3.01 5.06-17.42 14.56-22.61 16.06zM627.5 194.19l-.66 2.63-.18-1.35-1.76-17.06.37-.66 5.85-3.84 11.71-.26c-7.02 4.12-13.4 13.85-15.33 20.54zM698.54 189.69c12.41-40.9 48.22-6.31 93.55-47.37 19.37-56.25 71.24-75.4 103.73-13.25 25.33 47.76 26.59 126.12-12.37 166.76-15 16.59-42.77 16.23-60.17 2.41a95.52 95.52 0 01-14.2-14.56s-6.52-9.81-9.37-15.59-2.79-6.15-2.79-6.15c-12.56-9.46-41.2-19.07-58.63-17.43-7 0-12 .3-16.32-.51-22.97-3.52-29.57-36.95-23.43-54.31z"/><path fill="#323233" d="M637.64 267.62l-1.08 2.81c-.69.08-2.31 1.43-2.85 1.85L632 274.6c-1 2.32-3.39 6-1.42 8.42l.49.19a2.32 2.32 0 00.61 1.13 4.93 4.93 0 01.07 1.58l.18 1.17a4.26 4.26 0 001.05 1.47 4.23 4.23 0 001.56 3.27l.24 1.49 10.37 1.29.78-.12a53.17 53.17 0 016.35-2.13 4.88 4.88 0 00-1-1l-.1-.66-.7-1.09-.83-.69-1-.39.2-.46-.37-.88a12.92 12.92 0 00-1.42-.88 6.82 6.82 0 00-.19-1.9 7.39 7.39 0 00-1.9-2 5.57 5.57 0 00-.05-1.73c-.31-.38-1-1.24-1.37-1.57.76-2.16-.34-5.13-2.73-5.83a2.74 2.74 0 00-.73-2.56l-.2-.34c1-2.74 3.78-8 5.12-10.54a57.37 57.37 0 004.23-13.64l-2.59-.95c-.11 2.25-1.09 5.25-1.59 7.44-1.69 4.19-5.47 10.88-7.42 14.93zM666.84 236.29c1.44-.06 3.58.91 4.91 1.42.88.53 2.6 1.7 3.4 2.34a36.28 36.28 0 013.92 5c2.51-2.21 4.74-6.25 6.92-8.75l.87-.44 1 .08.7.44.44 1.09c-.54 2.51-3.79 6.66-5.13 8.82 1.38-.81 6-3.86 7.54-4l.73.15.49.68a4.92 4.92 0 01.21 1.75 9.89 9.89 0 01-1.8 2.38l1.32-.44 1.39.11.7.55.33.65v.77l-.25.63-1.06 1 1.06-.11 1 .59a3.26 3.26 0 01.66 2.12l-.62.62 1.17.11.7.59.51 1.24a4.06 4.06 0 01-.26 1.83l.92.15a10.75 10.75 0 011 2.23l-.18 1-.48.73 1.32.55a3.1 3.1 0 01.59 3.52c1.21-.36 2.46 3 1.53 3.66 1.38-.12 3.16 2.87 1.43 3.69a2.51 2.51 0 012.53 3.3l1 .07 1 .84.48.88v.73a8.51 8.51 0 00-.73 1.36c2-1.11 4.32 2.7 2.23 3.77 2.63 0 4.28 1.61 3 4.28a1.8 1.8 0 012.16 2.12l-.59 1.32-.91.77-1.43.58c2.45 0 4.69-1.16 4.83 2.35-.28 1-.83 2-2.12 2l.33.33c1 .12 2.38-.42 3.19 1.17.21 1 .43 2.52-2.6 3.22l-2 .48a24.23 24.23 0 003.33.36s2.16.26 2.27 1.14a2.22 2.22 0 01-1.94 2.82 38 38 0 01-6.66.58 27.45 27.45 0 004.94.77l2.59.07 1.29.44.58.81.07 1.5-.47 1.13-1.24.41a52.91 52.91 0 01-8.35-.52 45.41 45.41 0 008 2.31s1.86.91 1.86 1.61a2 2 0 01-2 2.41 8.86 8.86 0 01-4-.62l-3.74-1.17 2.93 1.94c1.07.39 4.16 1.46 5 2.23l.55.85v1.35l-.81.7a21.4 21.4 0 01-3.4-.11 73.47 73.47 0 01-7-3.41l.26.88a32.69 32.69 0 005.09 3.59c.71.35 2.81 1.37 3.47 1.75.85 1.26 0 3.71-2.81 2.9-4-1.35-4.22-2.31-6.88-3.81l1.68 2.19 2.74 2.16a16.54 16.54 0 012.6 2.05 4.37 4.37 0 01-.18 1.87c-2.42 2.92-8.46-4.07-9.85-5.75v.77a37 37 0 003.08 4.87 35.67 35.67 0 012.7 3l.22 1-.66.91-1.13.63-1.13-.51-1.43-1.25c-1.22-1.55-4.3-5.1-5.2-6.81l.18 1.87a77.6 77.6 0 004 8.09v.95l-.44.59-1.69.69-.91-.15-.77-.62a43.41 43.41 0 01-3.88-9.7c-.49 1.78.22 4.43.55 6.19.33 1 1.11 3.55 1.43 4.57l-.08 1.14-.4.66a5.35 5.35 0 01-2 .44l-.84-.33-.66-.7c-.56-2.29-1.52-7-1.83-9.33l-.33.22c-.63 2.62-.19 7.59-.25 10.25l-.44.88-.85.4-1.06-.15c-2 .16-1.85-4.8-1.79-5.2a47.16 47.16 0 01.18-5.82 10.66 10.66 0 00-1.1 2.57l-.25 2.71a16.6 16.6 0 01-.33 4l-.4 1c-5.25 4.24-3.76-5.7-3.55-7-.46 1.8-1.07 4.48-2.24 6-.69.52-1.26 1.68-2.89 1.06-2-.73-.82-5.24-.33-5.93a21.58 21.58 0 01-2.23 3.59l-1.25.55-1.5-.66-1.06-1.28a4.3 4.3 0 01-.25-1.84l-.73.52-1.1.11-.95-.37-1.14-1.13-.33-1.14a17.73 17.73 0 012-5.3 40.39 40.39 0 001.54-6.15l1.64-.81a13.69 13.69 0 013.08.18 6.54 6.54 0 011 .74l.29 1.17a4.89 4.89 0 011.79.47 9.55 9.55 0 01.92 1l.11.77 1.06-.07 1 .36.7.55a5.62 5.62 0 01.48 1 4.36 4.36 0 011.86-.22l.84.29.7.62 1-.65c.51 0 1.62-.1 2.12-.08l.81.37.76-.66a4.63 4.63 0 012-.26l.58.33.63-.87 1.06-.66a4.7 4.7 0 012 0l.15-.92.58-.69a6.68 6.68 0 012.45-.52v-1.14l.59-.88a4.23 4.23 0 011.72-.92l.18-.44v-.91l.62-.92.84-.62.77.11-.48-.7v-1.5l.41-.87.58-.52.73-.11.59.26a21.8 21.8 0 01-.88-2.05l.26-1.21.87-.92a5.5 5.5 0 01-.88-1.72l.3-1.06a7.89 7.89 0 011.06-1.24l-.84-.55-.33-.81a8.14 8.14 0 01.4-1.9l.59-.59a3.22 3.22 0 01-1.29-1l-.21-.95.2-1.18.47-.88a7.94 7.94 0 01-1.06-1.17l-.29-.95v-1l.32-.84.55-.51-1.2-.15-1.06-.58-.48-1.1.18-1.5-.91-.33-.88-.81-.51-1.21c.05-.2.21-.75.25-1l-.77-.22-.65-.66a3.36 3.36 0 010-2.74l-.77.22a2.89 2.89 0 01-1.28-.81 4.74 4.74 0 01-.59-2.63l-.8-.19-.95-.65a4.37 4.37 0 01-.3-2.79 4.28 4.28 0 01-1.61-.62l-.47-.62a5.71 5.71 0 01-.26-1.83l.29-.55h-.91l-.92-.51-.51-1a10.74 10.74 0 00.29-1.68l-1-.33a10.54 10.54 0 01-1-1.94l.1-.88.41-.73-.62-.11-1.14-1a6.89 6.89 0 01-.33-1.9l.48-.59-.77-.4-1.1-1.47-.07-.91.55-1.06H686a3.14 3.14 0 01-1.46-2.67 10 10 0 01.91-1.18l-.69-.07a6.77 6.77 0 01-1.43-2v-.85l.26-.58.51-.48-1.17.26-1-.44-.84-1a3.69 3.69 0 01.26-1.83 7.3 7.3 0 01-1.61-.19l-.77-.76a2.79 2.79 0 01-.22-2.24l1.28-.88a11.86 11.86 0 01-2.13-.29c-.65-.54-2-1.81-2.63-2.41a34.25 34.25 0 00-4.43-4.94c-.92-.7-2.46-1.24-3.44-1.84l-.51-.8zM834.61 92.17c12.28-4.64 39.65-2.89 59.44 33.57 32 53.26 29.05 172.52-39 182.88-88.94-4.04-92.56-193.02-20.44-216.45zM801 237.42c9 35.71 28.11 58.85 54.9 58.41 60-9.36 59.53-113.07 31.62-159.86-16.69-32.51-40.14-35.76-50.51-31.63-39.08 15.59-48.75 82.57-36 133.08z"/><path fill="#a0a3a3" d="M654.5 235c-.46-.82 1.45-.73 1.61-1-.92-2.36-.57-2.85 1.85-2.74 0 0-.83-2.39.44-2.48a3 3 0 012.59.68 5.79 5.79 0 011.32 1.95l.48.44s1.86-.24 2.44.24a5.13 5.13 0 011.56 2.79c.05 1.28-.36 4.43 1.27 4.53l1.13.54 1.95 2.15-.15.53-.49.3a98.92 98.92 0 01-10.93-3.17 4.68 4.68 0 01-.48-1 4 4 0 01-1.18-1 9.64 9.64 0 01-1.12.25c-.75-.21-1.74-1.73-2.2-2.3zM645.61 172.45a64.8 64.8 0 011.8-.77v-.3l-.11-6.55s.32-1.39 2.59-1.72 6-.55 6.3-.25c.6.62.46 1.62.62 2.3l2.12-.84a14.73 14.73 0 00-.51-2.53l-1.28-.8-1.83-.55a65 65 0 00-6.92.77c-2.07.32-3.65 3.13-3.29 4.5z"/><path fill="#a0a3a3" d="M652.5 167.47s5.34-2.75 6.77-3.33a34.93 34.93 0 0111.16-1.94l.44.58c2-.6 7.89-.3 10-.22l.08.59a9.78 9.78 0 00-.52 1.83c-.17.21-.63.82-.91.88l.22 1.68a7.37 7.37 0 012.19-.07 3.79 3.79 0 01-.18.66c-1.74.28-4.31 1-6.08 1.17l-1.42.33-2-.11-.44-.26c-1.1 0-13 1.48-15 1.65-.8-.08-2.51-.29-3.3-.44l-.76-.55a5.37 5.37 0 01-.48-2z"/><path fill="url(#u)" d="M633.25 171.92c4.38-15.54 6.65-32.88 9.81-48.58.76-8 1.82-18.7 1.08-27.67-.43-7.27-.61-14-1.52-20-.71-3.07-2.46-10.82-3.5-13.75l-.73.22a100 100 0 01-2.58 30.54L632.63 103l-4.73 9.78 2.77.52s3.12.41 4.32 1.84c1.73 2.51 2.76 4.59.76 6.33-1.19.51-2 .13-4.16-1.67s-6.29-1.91-6.29-1.91c-1.62 2.13-5.32 6.9-7 9.06l-8.12 7.51-3.91 3.87-4 2.64-3.63 1.63-.26-.87c6.69-5.63 9.54-9.16 15.14-18 4.84-8.4 9-17.5 6.32-26.31-1 22.84-19 42-38.43 51.57.46-2.37.74-12 .83-14.55l-1.08-11.74a142.71 142.71 0 00-7.49-23.81l-5.38-9.36c-3.82-4.9-4-6.51-9.52-12.52-3-2.9-6.31-5.75-6.31-5.75l-1.95-1.14-1.7-.28c.87 1.25 3.19 5.48 4 6.88l2 8c.39 3.55.9 10.73.94 14.28a45.12 45.12 0 002.34 11.86l-1.53-1c-3.7-4-7.42-10.78-10-15.54l-.22 1.68c.38 2.17 2.16 8.13 2.83 10.33l2.73 7.75c.32.76 1.93 4.07 1.88 4.89l-6.22-3.97-4.67-3.93-10.24-11.25a255.8 255.8 0 01-6.59-10.83l-3.12-7.75a100.75 100.75 0 01-3.08-11.92l-.78 1.5-.7 3.82-.54 4.77.39 6.22 1.1 6.15 2.06 7c1.07 2 3.33 6.22 4.42 8.2-3.21.29-10.95-4-13.9-5.12a88.45 88.45 0 01-8.53-4.43c-7.15-5.23-11.42-9-16.59-13.48 2 3.43 7.7 15.14 9.54 19 2 4.76 5.18 14.74 6.52 19.74 3 13.29 2.56 37.12 1.48 50.06-.3 7.19-.64 17.6.52 24.73a36.21 36.21 0 003.57 8.89c-5.15-1.43-10.48-9.26-13.29-12.85l-5.51-7.93c-2.12-3.94-5.34-9.84-7.21-13.87l-.72.38c1.09 5.06 4.6 12 6.93 16.67 2.26 3.22 5 8.06 7.36 11.22l-1 .18c-3.79-1.58-8.81-7.45-11.8-10.22-4.5-4.57-8.89-12.08-12.5-17.32-11.32 3.05-15.82 12.05-14.95 24.41 1.84 22.54 22.85 36 44 25.87 7.14 10 31.79 21 43.73 23.84 28.55 10.67 66 3.07 87.48-16.68l-2.59-6.25-1.81-7.91c-.37-.08-1.19-8.92-.78-11.81a70.47 70.47 0 011.09-7.21c-.36-4.29-1.69-14.49-1.87-18.75a40.73 40.73 0 016.15-4.16l1.76-.13z"/><path fill="#fff" d="M554.87 197.08c-8.71-5-14.49-20.92-12.92-31.12.78-9.37 14.45-19.27 23.09-8.87 2.88 2.83 8.36 15.09 9 18.49 2.71 11.71-5.61 27.47-19.17 21.5zM625.2 182.46c-4.54 7.78-15.7 11.93-21.14-2.4-1.92-6.09-3.27-20.63 3.49-27.8 8.43-8.2 15.23-3.54 18.25 5.75 1.87 6 3.73 12.6 1.9 18.14l-1.52.87-1.28 1.21zM590.62 215.87c1.73 2 6.53 1 7.78-.88 2.39 1 5.51 0 5.79-3.12a13.61 13.61 0 01-3.49-.11c-3.16.7-7.53 2.04-10.08 4.11z"/><path fill="url(#f)" d="M525.59 147.46l-1-.28-.6-.91.08-1.9 3.67-4.58a90.53 90.53 0 0110.26-7.86c2.17-1.49 12.24-5.22 14.56-.8.81 2.34-.67 4.07-3.54 5-6.21 1.29-15.48 5.41-19.22 9.26-.8.42-3.3 2.01-4.21 2.07z"/><path fill="url(#v)" d="M624.86 117.85l3.8.52 3.66 2 2.21 1.73 1.35-.33 1-1.39-.15-2.08a14 14 0 00-2-3.46l-2-1.08-5.06-.86z"/><path fill="url(#w)" d="M629 111.08l-6.3 10.11-8.81 10.6c-4.19 3.5-10.37 8.87-15.42 11l.2-1.46c5.24-5 11.18-11.46 14.72-17.86a81.45 81.45 0 005.29-10.62c.65-2.26 1.69-6.9 2.06-9.23l-.85-1.61c-.66 1-1.94 6.12-2.28 7.32-1 3-3.64 9-5 11.83l-4.8 7-6.62 7.33-6.29 5.35c-3.3 2.2-10.22 6.51-13.69 8.38.64-3.85.55-13.5.41-17.5l-1-9.87-1.83-8.34a140.93 140.93 0 00-6.38-16.77l-4.58-7.32c-3.1-5-8-11.92-12.5-15.65l-2.54-2.25-2.66-1.52-1.51-.47 2.2 3.69 2.29 5.61a242.5 242.5 0 012.2 11.66c.13 2.32.55 10.82.86 13l1.83 7.17-2.56-2.2-3.19-3.9a432.68 432.68 0 00-6.15-10.8c-.27 1.11 1.07 5.75 1.34 6.89a162.7 162.7 0 006 17.31l-.09.81-2.13-.5-6.22-4.84-7.11-6.88-7.27-9.11-5.39-10.07L521.64 77l-1.78-7.68-.65.52-1.21 5.82.08 7.64 1.07 7.53 2.81 9.53a55.15 55.15 0 013.56 6.07l-1.35.41a103.57 103.57 0 01-20-9.31 147.09 147.09 0 01-16.79-13.08c.34 2 4.49 9.43 5.5 11.37a120.43 120.43 0 016.16 14.39c1 3.75 3.14 11.22 4.22 14.94l1.25 8.82c1 11 .56 24.1.07 35.08-.31 4.68-.62 14.45-.48 19.11l.59 8 1.56 5.75c.32.56 1.74 3.81 2.16 4.38-3.4-1.57-4.52-2.3-8.17-6.37-1.72-2.07-5.05-6-5.05-6l-3.76-6.1a86.35 86.35 0 01-8.43-15.73l-1-.46c-.2 3.3 3 9.13 4.22 12.15 2.48 5.49 6.87 11.69 10.06 16.75l-3.87-2s-3.8-3.31-3.52-3l-5.35-5.31-6-7.43c-1.25-1.72-6.25-8-6.74-10.07-12.49 3.44-15.67 12.25-15.1 23.74 1.86 22.06 22.53 37.34 43.81 26.49a128.62 128.62 0 0010.29 8.89L517 236l-.72.68a78 78 0 01-11.33.83l-6.47-.88a256.1 256.1 0 00-5-1.81l.37 1.39 3 3 5.59 3.43a68 68 0 008.22 3.41l-3.94.62s-6.46-.68-6.33-.54a127.23 127.23 0 01-16.43-4l-9-3.29-12.35-6.11s-8.67-5.81-8.49-5.61-9.79-8.32-9.79-8.32c-12.74-13.31-24.39-31.93-32.93-48.17l-6.47-15.15-6.7-20.86-1.83-10.56-1.46-11.17c-.2-6.8-.08-20.59.47-27.31l1.94-10.94L400.48 63l3.52-8.89 4.57-8.35 5.24-8.09 5.51-6.75a194.84 194.84 0 0115.73-14.31c3.8-2.69 11.73-7.63 15.85-9.81 10.9-6.44 27.09-12.74 39-16.89a229.3 229.3 0 0138.93-7.57l13-.84L554-18c5.42.58 16.43 2.3 21.72 3.59l10.71 3.25a223.38 223.38 0 0115.43 7.65l7.37 4.79 7.64 6.07c6.21 5 13.38 13.15 18.32 19.34 3.24 3.87 9.11 13.76 11.66 18.18 2.22 4.61 6.82 14.67 8.53 19.44 2.24 7.47 5.4 18.47 5.87 26.29-2.77-5.52-6.9-13.26-10.55-18.28-3.24-4.8-8.93-12.67-13.23-16.59-.24 1.42.49 7 .65 8.55l.43 8c-.18 3.92-.85 12-1.53 15.86a173.58 173.58 0 01-8.02 22.94z"/><path fill="url(#g)" d="M456.27 229.75l.4-.92c-2.89-1.93-8.77-6.82-11.41-9.16l-8.55-10-2.31-1.6c-.27.65.15 4.59.19 5.34a49.37 49.37 0 01-1.9 15.39c2.48-1.67 5-5.15 7-7.34.9 5.25-.39 11.62-2 16.63l-2.11 5.63-2.08 3.5.54.34 4.49-2.1 6.07-4.46 7.77-6.63z"/><path fill="url(#x)" d="M395.07 90.7c-.1 1.87-.38 7.08-.34 8.87-5.5-7.31-10.24-18.3-14-26.61l-5-13.19c-2.94-12.64-6.08-22.29-4-36.71 6.06-30.65 39.6-50.67 69.54-52.06 16.26.72 34.45 8.87 43.65 20.77l-6.73 2.49C459.75-16.58 419.78 7 421.39 28.93c0 0-4.53 5.19-7.29 8.45-5.8 7.08-10.06 17.31-12.87 23.74l-3.34 10.71c-.89 4.57-2.45 14.29-2.82 18.87z"/><path fill="url(#y)" d="M475.12-4.59l3.42-1.31c-.3-.47-3.58-1.42-4.12-1.62 0 0-7.86-1.25-12.56-.53s-10.77 3-15.43 5.12c-11.51 5-24.79 18.2-25.07 30.12l.41 1.37c2.25-2.33 7.47-7.06 10-9.21l11.73-8.25 11.3-6.33 10.31-5.34z"/><path fill="#f44040" d="M591.77 225.83a6.55 6.55 0 011.93-1.65 22.16 22.16 0 014.62-1.58l1.3.33c-.1-1.79 5.35-1.92 5.63-2l1.73.68-1.41 1.92-2.57 1.77-2.82 1.13-3.14.38a21.42 21.42 0 01-5.27-.98z"/><path fill="url(#h)" d="M652.94 302.56l.73-3.27 1.07-2.24c1.15-.36 3.71-2.53 4.64-3.32a325.58 325.58 0 0114.39-10.93c1-.85 6.21-5 6.74-6.1 1.1-1.9 3.6-5.82 4.83-7.66a9.75 9.75 0 002.49 1.27l.24-.05a5.47 5.47 0 011.47.88l-.49.78.05 1.12.54.88.78.58.92.25-.39 1.07.09.94.36.66a5.32 5.32 0 001.83.51c-1.44 1.18.75 3.64 1.82 3.6a5.09 5.09 0 01.05 1.51l.59 1.52a9.36 9.36 0 011.61.92l.18 1.38.44.95a2.89 2.89 0 001.28.81l.77-.22-.33.89.05 1.12.53 1a7.21 7.21 0 001.37.73l-.29.44v.68a9.42 9.42 0 00.83 1.61 9.56 9.56 0 001.35.42 6.25 6.25 0 00-.08 1.78 4.06 4.06 0 00.83 1.07 4.26 4.26 0 001.61.54 5 5 0 00-.78 1.71l.36 1.52 1.06 1.17a2.78 2.78 0 00.58 3.9 3 3 0 00.24 4 2.55 2.55 0 00-.3 4.02c-.77.9-1.81 1.92-.73 3.3l.17.93c-2-1.11-2.51 2.43-1.75 3.32-.31.22-1.32.71-1.67.88l-.37.65v.91c-3.38.7-14.3.28-17.37-2.92.35.48-28.55 7.63-29.38 7.9a102.22 102.22 0 01-2.62-12.97 91.43 91.43 0 01-.34-14.44zm54.24-51.2a54.51 54.51 0 00-5.45 2.93l-1.25 1.31-1.48 2.6.61 1.87a3.83 3.83 0 01-.37 1.65l.84.14a8.67 8.67 0 011.25 2.05v1l-.33.77.84.22.66.73.51 1.42-.33 1.18a2.6 2.6 0 011.57 3.77c1.78-.13 2.54 2 2.46 3.4 1.58-.63 3 2.62 1.35 3.7-.91.91 3-1.68 3.22 2.45l-.58 1.39 1.31.22 1.43.95.4 1.47a12.58 12.58 0 01-.33 1.53c2.33.14 2.44 2.72 1.1 3.92l-2 1.17s3.15-.59 4-.22 1.28 2.45.66 3.26a5.94 5.94 0 01-1.65 1.35c1.31.32 2.28-.3 3.34 1.32 1.73 2.88-4.7 3.66-5.46 3.88.26 0 7.22-.38 6.41 2.31 0 .58-.3 1.61-2 2a54.8 54.8 0 01-6.58.44l3.58.77a33.54 33.54 0 013.55.07c2.83.21 3.65 4-.14 4.29-2.13 0-7.07-.41-7.07-.41a77.31 77.31 0 007.8 2.31 6.91 6.91 0 011.5 1.17 2.05 2.05 0 01-1.79 2.67 11.7 11.7 0 01-4.62-.77l-3.33-.76 3.66 2.19 2.89.92 1.36.87c6.62-1.43 19.62-11.08 23.31-16.54l.81-.44c-.12.48 2.34 7.09 3.33 7.76a17.86 17.86 0 004.53-5.64c2-3.74.07-10.84-.41-11.39a30.44 30.44 0 00-2.48-2.08c4.12.28 6.91-10.22 5.85-12.56.21-2.75-5.48-5.41-6.59-6 1.9-1.38 6.12-10.77 5.09-13.43s-4.71-6-6.4-6.11c.87-2.8-3-8.5-4.65-9.77H732s-.91 1.9-6.91 2.34-6.63.4-6.63.4l-3.18-.58a32.31 32.31 0 01-8.1 4.54z"/><path fill="url(#z)" d="M644.1 111.21l-.68 8.54a16.7 16.7 0 003 3.08 20.61 20.61 0 013.51 3.9 29.87 29.87 0 014.2 6.93c1.56 3.81 2.14 7.13 3 8.64 1.79 3 2.85 8.32 3.86 11.47.22 1.34 4.65 8.32 5.9 8.83.23 0 3.47-.4 3.57-.19l.48.58c1.68-.65 7.92-.48 9.76-.49a4.79 4.79 0 01-.48 2.54c-.64 1.07-.71.82-.71.82l.22 1.68 2-.25v.84c5.81-.54 17.62-1.45 23.37-2a26.63 26.63 0 004-1.85c13.46-6.46 12.12-24.89 13.51-36.46-.08-5.06 5.29-22.54 6.69-27.37 2.35-6.06-4.11-11.25-9.22-9.18 0 0 2.49-4.93 2.68-8 .14-9-7.63-9.68-12.64-6.35-.18-11.88-11.92-11.8-17.47-4.29-5-3.8-11.64.4-13.18 5l-2.14 6.06-2 10.15c-1.13 8.38-3 24.69-1.86 34.21 0 0-4.44-5.32-7.07-8.84s-4.79-7.8-10.79-10c-7.16-2.03-10.17 1.17-11.51 2z"/><path fill="url(#A)" d="M556.31 250a43.41 43.41 0 011.36 4.54 19.38 19.38 0 01.4 3.61c-.05 1.32 11.3 12.82 11.42 12.55a14.67 14.67 0 012 2.73c5 2.37 16.07 5.3 19.14-4.39 2.25-5.8 1-10.71-1.92-13.69l4-6.32c-7.97 3.42-29.19 2.76-36.4.97z"/><path fill="url(#i)" d="M567.25 179c-.37-3.78-4.26-8-7.53-8.16s-8.42 1.71-9.52 6.24 1.86 9.77 5.78 11.58 12.13-1.01 11.27-9.66z"/><path fill="url(#B)" d="M618.6 172.65c-.34-3.41-3.84-7.24-6.77-7.34s-7.58 1.54-8.57 5.61 1.67 8.8 5.2 10.43 10.91-.95 10.14-8.7z"/><path fill="#db9e33" d="M486.8-5.18c40.64-14.21 82.4 13.6 97.6 51.32-17.12-36.64-56.62-63.36-97.6-51.32zM458.62 15.13c11.81 28 23.45 58 47.89 77.61-25.75-18.19-37.85-48.88-47.89-77.61zM423.62 36c-12.5 26.87-15.52 57.73-6.05 86-11.37-27.83-8.25-59.89 6.05-86zM411.72 119.52c8.92 19.56 16.66 40.38 31.11 56.66-15.9-15.04-23.96-36.43-31.11-56.66zM461.14 160c-8.07-14.18-11.2-30.74-12.74-46.82 3.42 15.82 6.39 31.89 12.74 46.82zM472.78 4.81c19.82 9.5 35.39 27.25 45.69 46.39-11.94-18.14-26.84-35.2-45.69-46.39zM510 29.71c14.5 14.2 24.39 32.63 31.45 51.5-8.8-18.12-18.37-36.05-31.45-51.5zM463.36 8.11c12.3 10.06 21.15 23.82 29.41 37.23-9.84-12.34-18.42-25.82-29.41-37.23z"/><path fill="#db9e33" d="M430.27 29.11c-5.2 14.36-10.18 29.26-9.72 44.71-2.39-15.38 2.78-31.13 9.72-44.71zM411.43 48.74c-2.95 8.72-4.08 17.82-5.94 26.81-.04-9.14 1.24-18.82 5.94-26.81zM443 21.05a255.75 255.75 0 0018.43 54 137.25 137.25 0 01-18.43-54zM435.4 26.58c0 9.64 1.39 19.14 2.05 28.75-2.52-9.26-3.93-19.24-2.05-28.75zM453.28 17.76a91.77 91.77 0 016.77 18.94 59.56 59.56 0 01-6.77-18.94zM483.22 1.22c9.47-.05 18.71 4.83 25 11.71-7.53-5.39-15.82-9.85-25-11.71zM584.35 29.41C600.15 54 615 90.67 603 119.3c10-29.61-4.42-63.86-18.65-89.89zM609.92 111.61c-1.52 10.22-9.42 18.44-17.27 24.56 6.55-7.56 13.91-14.94 17.27-24.56zM598.66 2c21 16.6 34.21 43.28 34.55 70.07A108.76 108.76 0 00598.66 2zM626.37 58.24c4.71 14.89 5 31.39-1.26 45.88 4.39-15.01 4.09-30.61 1.26-45.88zM459.71 63.43c13 22.7 29.32 44.84 33 71.41-5.51-26.08-21.66-47.84-33-71.41zM491.12 110.67c9.56 21.32 6.58 44.87 6.91 67.52-2.22-22.56.83-45.7-6.91-67.52zM491.75-3c13.87-2 29.78 1.66 39.7 12-11.14-8.75-25.76-12.08-39.7-12zM565.58-6.49c17.56 4.84 33.8 16.55 42.24 32.89C597.76 11.16 582.44.16 565.58-6.49zM454.51 216.42c-15.84-12.16-25.51-30.82-33.91-48.53 10.15 16.86 19.4 34.98 33.91 48.53zM439.38 185.72c-12.08-11.88-19.51-27.81-25-43.65 7.26 15.14 14.36 30.55 25 43.65zM429.74 2.64c-9.66-4.71-22.42-2.29-31.25 3.29C406-1.34 421.1-4 429.74 2.64zM417.31 23.14c-12.86 1.47-26 10-28.82 23.24.81-13.94 15.6-23.84 28.82-23.24zM422.64 13.63c-7.88-.87-15.72 1.25-23.07 3.89 6.49-4.4 15.51-6.69 23.07-3.89zM398.3 41.54c-5.31 12.17-4.77 26-2.68 38.87-4-12.41-4.43-27.41 2.68-38.87z"/><path fill="#d88b64" d="M633.64 114.09c2.67-4.62 6.92-14.57 7.8-22.66 1.41 4.06 2.91 17.77 2.5 22.38.72-28.18.38-24.52-2.15-41.7l-3.2-10.4-.79.74a191.67 191.67 0 01.2 20.34c-.9 4.67-3.19 14.66-4.84 19l-2.78 6.41-2.76 4.68a27.61 27.61 0 016.02 1.21z" opacity=".65" style="isolation:isolate"/><path fill="#d88b64" d="M629.5 119a8.94 8.94 0 00-4.62-1c-5.81 8.73-19.77 22.83-28.55 26 9.28-8.64 28.23-30.64 23.71-46.17-1.34 21.59-19.17 42.85-38.75 51.16 2.49-17.7-.66-37.75-9.76-53.89-5.53-9.76-15-22.81-24.25-26.7C558.64 81.2 553 98.69 558 110.48c-2.39-1.16-3-2-7.13-8-4.19-7.29-4-8.48-5.85-12 .15 3.64 6.2 26.65 9.27 28.65-16.86-8.42-32.52-31.95-34.36-50.46 0 0-2.39 5.81-1.95 16.2 1.26 13.45 5.55 18.46 7.42 22.11-12.75-2.81-32.22-15.78-40.4-26.22l-.54-.1c16.17 26.18 21.9 47.34 20.54 78.14-.07 8.77-3.52 39.11 3.45 47.5-9.87-2.88-24.56-29.15-27.41-39.21.13 10.5 9.23 26.15 16.29 34.68-8.47-3.79-21.8-22.35-26.3-29.31 3.87 9.12 19.42 31.4 32.16 36.55a15.86 15.86 0 01-1.75-5.07c2.92 3.51 9.37 6.15 9.37 6.15-11.54-21.33 9-88.14-11.72-110.39 0 0 19.52 13.17 31.43 12.88-5.66-7.91-8.49-24-8.49-24 5 12.11 19.8 33 38.07 33.77 0 0-8.69-8.39-8.59-14.93 4.29 6.24 12.78 8.1 12.78 8.1-6.6-8.39-7.6-22.7-6.24-31.53 11.26 11.54 25.77 47.84 16.39 68 0 0 12.4-2.44 18-7a18.07 18.07 0 01-3.32 3.62c9.6-2.81 31.14-16.72 39.49-27.22 1.93-1 4.62 5.35 7.34.37a2.94 2.94 0 01-3.39-1 9.87 9.87 0 00-3.06-1.76zM593.3 236.24c4.23 1.59 10.67.27 13.47-3.8-1.77 2.12-11.09 4.56-13.47 3.8zM577.59 201.54c2.72-18.13 37.79-17.77 31.62-.14 0 0 2.15-7.08-7.27-9.71-12.05-2.8-21.3 3.79-24.35 9.85z" opacity=".65" style="isolation:isolate"/><path fill="#d88b64" d="M523.88 146.86s.36 2.86 4 1 10-7.4 17.35-8.93 9.15-4.18 7.69-6.59c.51 1.46-.88 3-6.22 4.39s-10.7 3.54-14.48 6.27c-4.79 3.12-5.41 5.17-8.34 3.86zM476.18 194s-4.05-1.8-10.35 4c3.17-2.44 9.08-2.34 10.83-1-1 2.15-.44 7.32 1 9.52-1.07-3.32 2.29-7.72 2.88-7.86s9.22 4.14 10.83 8.29-2.63 2.93-2.53 6.79 6 3.95 6 3.95c-4.37-.76-2.89-7.08.14-7.81 1-4-5.27-7.94-9.22-11-5.83-4.19-5.85-3.8-9.58-4.88z" opacity=".65" style="isolation:isolate"/><path fill="#d88b64" d="M455.69 196.45c2.95 22 22.81 34.16 44.18 23.83 32.32 32.42 94.6 43.62 130.28 8l.87 1.61c-10.58 12.67-48.74 25.23-67.17 21.32-10.32-1.24-26.72-6.29-26.72-6.29-7-2.08-33-14.18-37.41-22-20.44 10.52-42.54-3.21-44.03-26.47zM544.08 182c-2.93-6.23-6.38-28 8.06-31.11 5.49-1.54 12.22.15 17.27 10.76s5.35 16.91 4.91 20.28c1-9-8.94-33.35-21.23-28.89C539.34 157 541 172.68 544.08 182zM602.38 170.75A31.83 31.83 0 01603.7 157c4.26-12.16 17.67-14.61 22.39-1.32a42.13 42.13 0 012.15 17.62c-.24 1.51 1-3-.73-9.81-3.33-15-13-21.84-22.06-8.4-2.99 6.42-3.05 10.96-3.07 15.66z" opacity=".65" style="isolation:isolate"/><path d="M553.4 182.74c3.63 7.62 13.82 2 10.82-5.33s-14.76-1.59-10.82 5.33zM606 175.75c3.26 6.85 12.42 1.8 9.72-4.8s-13.29-1.42-9.72 4.8z"/><path fill="url(#j)" d="M608.14 168.76c1.77 3.72 7.57.86 5.69-2.81s-7.56-.85-5.69 2.81z"/><path fill="url(#C)" d="M556.81 176.79c4.72 0 4.72-7.19 0-7.21s-4.71 7.19 0 7.21z"/><path fill="#162136" d="M519.49 301.54a28.88 28.88 0 008 10.54c12.61 12.23 30.75 31.64 51.6 37.77a103.24 103.24 0 00-.07-10.39c-16.54-2.2-43.71-24.5-53.58-32a39.7 39.7 0 01-5.64-6.44z"/><path fill="url(#D)" d="M727.41 244.44c8 .41 9.89-.07 21.37.54 17.45 1.19 34.41 7.81 48.07 16.88-14.93-35.19-17.22-84-4.54-120-3.69 5.25-27 19.39-36.74 20.74-12.86 3.23-21.84 3.56-32.65 4.49-11.72 1-20.64 9.19-24.31 22.11-4.53 17.32-2.46 32 8.35 46.41 4.88 6.96 14.44 8.8 20.45 8.83z"/><path fill="url(#E)" d="M796.71 175.53c2.75-23.05 8.79-47.88 28.84-64.46 8.05-5.47 12.59-8.3 19.47-8.2 37.56 1.4 54.43 54.74 59.54 85.35 2.71 18.65 1.94 39.74-3.22 58-8.11 30.05-31.31 63-67 44.31-13.19-6.82-24.38-25.86-28.5-38-5.69-14.71-8.15-30.8-9.61-44.55a171.86 171.86 0 010-26 39.32 39.32 0 01.48-6.45z"/><path fill="url(#F)" d="M796.43 177.62c2.81-23.9 8.41-49.38 29.12-66.55 8.05-5.47 12.59-8.3 19.47-8.2 28.23.89 42.91 30.67 51.29 52.95 12.25 35.12 14.71 73.05-1.76 108.34-11.49 25.24-33.69 40.48-60.22 26.35-22.1-13.44-31.26-40.89-35.49-63.82 1.14-1.16 42-4.27 42.32-6.16v-.2c.43.34 4.28-.69 4.25-.78a5.74 5.74 0 012.49-.68 31 31 0 004.39-.39 7.87 7.87 0 002.49-.78l.78-.83c1.66-2.37-1.66-3.8-2.64-4.93l.4-.73a26.86 26.86 0 002.29-9.42c.44-5.81-.73-7-.73-7a22.81 22.81 0 003.41-3l.2-1-.2-1-.58-.87-1.37-.44h-3.46a27 27 0 00-3.18-4.49c-1.22-.93-3.3-2.51-4.88-2.69l.39-3.12-.14-.93-.54-1-1.37-.64h-2.63z"/><path fill="#515151" d="M836.53 197.77c.42-14.56 12.17-17 16.07-3.66 1.47 3.15 1.23 19.21-5.75 20.13-8.17 1.42-10.67-12.24-10.32-16.47z"/><path d="M641.22 173.65c-3.14.22-8.2 3.45-10 6.23.29 3.07.36 4.24.36 4.24s-3.29 2.27-5.27 8.71l.52 3.81c1.8-8.34 8.6-18.77 16-22.91zM657.13 165.19c.15-1.08.25-3.66-1.36-3.71s-7.62.49-8.79 1.8.25 8.54.25 8.54l.24-.09c.22-1.69-1.26-7.42 1-8.2a43.89 43.89 0 017.52-.88l.59.54.19 2.05zM686.46 242.68c6.15-1.53 18.45-.44 19-2.19.35-3.21-2-4.27-3.1-6.15-12.17-18.5-14.2-53.53 8.59-65.74 7.12-3.15 15.58-4.61 18.25-1.85-20.74-.75-31.61 14.07-32.74 36C696 226 708.07 246.91 732 244.49l-.2.49c-3 3-18 2.82-21.72.05-2.87-1.42-2.63-1.18-5.31-1.22s-11.81-.1-11.81-.1c-.41-2.34-4.35-.73-4.88 0l-2.15-.15z" opacity=".25" style="isolation:isolate"/><path d="M792.29 259.12l1.93 1.13 2.63 1.66c-13-28.87-15.43-72.4-9.66-100.92-4.21 11.75-8.21 63.26.06 85.45 1.84 5.91-10.75-1.27-33.73-3.17s-31 2.93-41.58-4.68-14.55-22.06-15-26.26c1 11 9.52 29.61 24.2 31.43 8.3 1.56 13.28.39 19.13.58 18.66.66 37.73 5.51 52.02 14.78zM801.34 226.28c.5 6.75 1.33 13.69 2.53 20.79-4.86-16.42-3.26-10.28-5.14-20.54zM801.19 197.94a201.72 201.72 0 00-.12 24.14l-3 .4c-1.82-11.5-2.14-14-2.15-24.33zM795.92 196.05c-1-18.64 4.53-49.57 12.25-63.27 8.28-15.71 29-40.53 54.56-24.79 14.13 8 22.24 21.69 27.38 33.53-29.62-56.7-77.63-23.24-86.37 35.73-6 0-2 2-.36 2.05-.9 5.23-1.59 10.71-2 16.39zM836.48 196.42c-1 17.52 17.55 25.47 16.69.73.24 1 1.17 10.25-2.54 14.15-4.25 5.35-8.46 3.11-11-.78a33.32 33.32 0 01-2.34-5.17l-.68-3.51zM851.92 213.62c7.3 4.51-2.09 5.43-4.7 5.2l1.51-.88 1.17-1.19c.48-.75 1.51-2.37 2.02-3.13z" opacity=".25" style="isolation:isolate"/><path d="M795.8 197.71c.08.17.49.37.49.37 1.66.14 36.14-1.39 36.85-.37 1.17.3 2.09.61 1.73 0-1.4-2.72-10-1.7-12.32-1.71-9.44.54-14.45.54-23.84 1.28 0 0 .09-1.28 1-1.4s-4 .1-4 .1zM784.33 207.91c0 24.78 20.82 97.56 71.37 96.85 51.52 2.25 63.92-91.37 56.37-125.57 0 0 1.81 13.47 1.91 19s-.15 16.64-.15 16.64c-.15 8.12-3.37 27.77-6.05 37.14-9 32.28-35 70.86-74.91 51.82-34.98-17.72-44.77-61.68-48.54-95.88zM743.05 305.49c-.22-.73-1.32 1.1-2.64 2.86s-5.19 7.46-11 10.83-8.85 4.76-8.56 5.64-.73-1.65-.73-1.65l-1.25-2.31a69.57 69.57 0 0011.13-5.63c6.75-4.93 8-7 11.09-9.7.19-.27.92-1.2 1.1-1.46h.51zM752.46 320.54c.07-1.07-.37-2.57-2.13-2.27s-2.45 2.23-3 3.4c-1 2.81-9.27 14.65-12.44 16.32-5.09 3.47-1.71 2.08.33 1.14 5.59-2.28 7.95-4.33 13-9.44 3.08-3.82 3.46-6.27 4.24-9.15z" opacity=".25" style="isolation:isolate"/><path d="M800 222.26c-1 .25-.61 3.37 3.64 2.83s10.17-1.36 10.17-1.36l9.79-1.2s14.59-1.73 15.47-2 1.51-.41 1.58-1.66 0-2.61 0-2.85.53-.34.8 1.07.07 4-1.41 4.27c-.16.22-39.39 4.69-41.44 5l-.55-3.86zM667.54 236.39c-.59.29-.11 1.54 2.12 2.49s4.69 3.58 6.52 6 2.82 2.82 5.2 1.68c3.14-1.26 6.2-5.67 7.24-7.65l-3.47 5.79a5.35 5.35 0 01-2.27 2.16c-3.4 1.52-2.74 3-6 .69-1.46-1.93-6.69-8-8.86-8.09l-1.06-.69a22.18 22.18 0 01-.25-2.56z" opacity=".25" style="isolation:isolate"/><path d="M658.17 238.18c2.42 1.1 8.68 1.21 10.91 1.65a10.39 10.39 0 011.57 1.68 58.57 58.57 0 01-6.7-1.06 40 40 0 01-4.86-1.39l-.12-.44zM678.63 250.12c.1 3.72 14.36-3.89 14.31-5.83-.18 1-.77 2.42-3.11 3.56a92.29 92.29 0 00-8.6 4.75h-1l-1.06-.52a4.36 4.36 0 01-.54-1.96zM645.72 250.15c4.67-1.85-5.66 19.5-6.33 19.29-.44 0-1.42-.73-2.38 0-1 1.42.75.44 1.14.62a12.93 12.93 0 011.83.47c3-7.61 8.31-16 9.3-24.44-.66-.2-2-.67-2.6-.92-.22 1.26-.68 3.83-.96 4.98z" opacity=".25" style="isolation:isolate"/><path d="M634.05 234.78c4.6 5.81 16.7 11.55 23.72 11-8.88-2.47-19-19.45-20.35-29.14-2.51-11.15 1.66-25.16 5.93-32.72-4.9 7.84-8.75 28-3.59 38.73 3.84 11.78 14.89 24.85 27.52 24.37-10.89 2.91-27-1.96-33.23-12.24z" opacity=".25" style="isolation:isolate"/><path d="M673.24 243.22a9 9 0 00-4.1 0c-1.61.59-.2 2.2-1 2.59-2.28 1.89-14.24-2.79-14.93-3.61 3.06 2.05 12.19 6.15 17.13 4.93-2.2-3.61.05-3.43 3.07-3.62zM681.19 242.61l-3.88.15.52 1h2.63zM681.12 253.45c.43 3.75 13-3.48 13.54-5 0-.59.48.58-.14 1.24-2.64 2.1-6.3 3.78-8.9 5.31l-1.83.77h-1.13l-1.18-.52-.54-1zM683.28 257.07c.89 3 12.33-3.22 12.7-4.87-.11-.44.44.48.29 1s-1.46 1.1-1.46 1.1l-9.15 5.34h-.74l-1.17-.69-.58-1.17v-.81zM684.67 260.77c2 2.82 7.26-1.76 10.21-2.79 2.27-1 3.08-1.39 3-2.05l.11 1-.22.62a61.76 61.76 0 00-8.67 4.45 11.24 11.24 0 01-2.56 1.54l-1-.18a4.47 4.47 0 01-1.06-1.61zM686 265.05c1.43 2.17 13.16-3.3 13.51-5 0-.84.8.85-.77 1.69-3.2 1.57-8.88 5-10.76 5.45l-.73-.29a20.39 20.39 0 01-1.25-1.85zM687.38 268.34c1.67 2.25 9.71-1.61 11.27-2.52 1.54-.7 2.53-1.1 2.49-1.65s.18.55.11.95-1 .92-1.35 1c-1.85.72-8.73 4.18-10.18 4.61l-.84-.11a7.37 7.37 0 01-1.17-1.13zM689.21 271.67c1.9 2.82 7.24-.65 10.39-2 2.64-1.18 3.3-1.61 3.26-2a5.9 5.9 0 01.07 1.06c0 .33-1.17 1-1.17 1a178.3 178.3 0 00-10.32 4.94h-1l-.66-.54-.7-1.21zM691 275.44c1.23 3 13.74-3.34 13.58-3.88 0 0 .37 1.32-1.39 1.94-3.23 1.15-9.07 4.45-10.84 4.39l-1.09-.4-.59-1.21zM692.9 278.66c-.11 1 .59 1.72 5.06.33s7.21-2.63 7.61-3a2.89 2.89 0 00.62-1.13l.51.77v.62l-.73.66a45.86 45.86 0 00-6.37 2.38c-4.09 2.33-6.6 3.46-6.7-.63zM695.17 282.43s2 1.8 5.13.11c3.88-2.23 7.34-2.13 8.42-4.57l.18 1.1-.48.8c-2.09 1.19-5.55 2.59-8.89 4.32-2.53 1.88-4.77.65-4.36-1.76zM697.37 285.73s1.17 1.86 4.5.62 6.88-2.34 7.8-2.71 1.46-.88 1.42-1.32.55 1.54-1.61 2.13-8.71 3.91-9.66 4.1c-1.56.54-2.9-1.94-2.45-2.82zM699.71 289.1c-.18.65.88 1.94 5.38.25s8.6-1.79 8.6-2.82c.3 0-.18 1.69-.18 1.69a29.8 29.8 0 00-5.6.91 34.26 34.26 0 00-6.48 2.89l-1.32-.4-.54-1.39zM701.25 292.76s2 1.68 6.11.51 7.25-1.39 7.8-2.38.51 1.28-2.78 2.27-9 2.19-9 2.19l-1.61-.84-.48-.73zM703.34 295.83s.32 1.65 6.11 1.28 7.35-.33 7.65-.77.11 1.21-3.15 1.61c-3.95.3-11.2 2.22-10.61-2.12zM705.49 299.56c-.54.52.19 2.34 5.75 2.09s7.4-.73 7.54-1.14.92 1.47-4.87 2.05c-6.91.84-9.83 1.06-8.42-3zM706.12 303.81s.69 2.49 6.11 2.49 6.95.11 7.39-.41.63 1.54-6.4 1.5c-8.16-.12-7.79-.63-7.1-3.58zM707 307.43c-2.22 4.08 13.43 5.28 13.43 4.06.52-.65.44 1.18-2.81 1.25-4.12-.1-13.97-.6-10.62-5.31z" opacity=".25" style="isolation:isolate"/><path d="M706.93 311.42c-1.11 3.8 11.59 7.34 13.35 5.86-1.15 3.32-12.1-1.48-13-2.15-1.72-.87-1.15-3.13-.35-3.71zM710.62 320.35c3.83 1.86 7.86 3.42 8.37 2.78-1.68 2.64-12.57-2.76-13.06-5.58l.13-1.17s.73 2.12 4.56 3.97zM704.32 321a12.74 12.74 0 006 5.42c4.24 1.9 6.19 2.15 6.68 1.27s.25 2.19-2.34 1.71-6.93-3.42-7.76-4.05c-1.35-1.25-1.68-2.45-2.39-3.18zM702.79 323.94c0 .95 3.14 5.82 6.29 7.76s4.94 1.43 4.54-.22c.48.22 1.14 2 .15 2.49-3.07 2.75-12.22-7.2-10.98-10.03zM700.55 326.68a13.58 13.58 0 003.37 7.11c3.12 3.93 5.3 3.53 3.88.51 0 0 2.38 2.38 2.23 3.22a1.77 1.77 0 01-2.7 1.39c-3-1.78-7.45-8.41-7.18-11.49zM697 329.54c-.36.29 4.1 14.94 5.71 9.55a17.4 17.4 0 00-.8-3.95c.68 1.48 2.57 4.5 2.89 6.07 0 0-.59 1.54-1.65 1.62s-1.79.22-2.38-.66-2.56-5.86-2.56-5.86c-.51-1.78-1.7-4.9-1.21-6.77zM693.09 333.27c.07 1.5 1.28 8.6 2.38 9.45 2.7 2.13 2.13-3.33 2.08-3.81.46 1.44 1.56 3.62 1.39 5.16.06 1.19-3.15 2.15-3.69.55a34.57 34.57 0 01-2.16-11.35zM688.59 336c-.11 3 0 7.54 1.72 7.65s2.23-3.48 2.23-3.48c0 1.38.5 4.79-.11 6-3.07 2-4.17-1.36-4.06-3.44l-.15-3.84zM678.85 336.9c-1.93 3.36-1.35 9.51 2.2 4.28a20.92 20.92 0 011.83-4.32l1-.73c.16.33-1.11 6.71.77 7.39 1.65.26 2.63-2.49 2.63-2.49-.17 1.44-.12 3.68-1 4.91l-1.07.76-1.35.12-.84-.66c-.56-1.46-.33-3.6-.33-5.13h-.26c-.24 1.07-1.92 5.77-4.5 4.65-1.57-.59-1.28-3.41-1.28-3.41a56.43 56.43 0 012.2-5.37z" opacity=".25" style="isolation:isolate"/><path d="M675.73 326.72c-1.42-.44-1.91.68-1.32.93a19 19 0 003.27.68s-2-.05-5.08 2.69-.24 5.56 1.71 3.41c-1 1.08-2.1 4.34-.93 5.81a1.63 1.63 0 002.4.44l1.51-2.59 1.56-1.71.19.44-1.12 1.91c-.93 1.7-1.1 4.46-3.9 5.27a3.1 3.1 0 01-2.88-3.57s-.49 1.13-2.25.44c-3.61-1-.74-6.47-.19-7.61a27.88 27.88 0 002-6.69 9.22 9.22 0 012.83-.68 3.87 3.87 0 011.81.2M635.07 271.16c-.68 0-4.36 7.4-1.5 5.64l1-1.14a21.5 21.5 0 00-1.87 4.25c.35 2.36 9.35-7 10.58-1a7.2 7.2 0 00-6.7.26c-3.82 2.78-3.88 2.93-4.76 5a2.33 2.33 0 01-.69-1.06c-3.64-.4.92-8.82 1.13-8.86l1.57-2.09z" opacity=".25" style="isolation:isolate"/><path d="M636.32 279.21a5.82 5.82 0 00-2.75 4.8c.11 1.32 1.36-.48 4.4-1.8s6-1 6.91 0c-3.84-2-12.31 1.86-10.76 6.67.48.87 1-1.51 5.13-3s6.62-.73 8 .37c-1.61-.51-6.07-1.35-9 .81-3.76 3.16-3 2.84-3.73 4.68l-.84-.59-.55-1.06-.18-1.46c-3.47-3.74.05-7.4 3.37-9.42z" opacity=".25" style="isolation:isolate"/><path d="M637 288.11c-1.61 1.09-1.57 3.88-.51 4.1s1.72-2.42 5.38-3.7 6.74-.55 6.88-.15c-4.31-.55-9.49 1.37-11.45 5.42l-2.49-.44-.22-1.13s.22-1.39.29-1.58 2.12-2.52 2.12-2.52z" opacity=".25" style="isolation:isolate"/><path d="M642 289.35c-1.68 1-3.36 3.41-2.93 4.58a8.71 8.71 0 01-1.75-.15c.89-1.78 3.02-3.35 4.68-4.43zM640.05 294c1.68-3.06 8.53-4.19 10.8-2.9-1.91-.64-8.2.29-9.63 3.08z" opacity=".25" style="isolation:isolate"/><path d="M643 292.43c-.77.43-1 2-.15 2a16.45 16.45 0 00-1.87-.22l.55-.88zM674.6 255.32c-1.85-3.12-4-9.56-2.88-9.9a17.37 17.37 0 012.79-.49l-1.13-1.42c-.65 0-5.32-.55-3.8 2.05 1.51 3.09 3.54 7.05 5.02 9.76zM677.83 243.51l1.12 1.56a5.22 5.22 0 001.56-1.51zM685.15 244.7a11.25 11.25 0 011.41-.11l1.56-1h-2.24zM692.9 243.56l.1 1.27c.77-.22 25.44.44 14.15 6.59-2.24 1 3.57-1.71 3.57-1.71s1-.58 2.44-1.51l2.1-1.37c-1.27-.43-7.12-2.68-9.13-3.07-4.66-.09-9.46-.1-13.23-.2z" opacity=".25" style="isolation:isolate"/><path d="M706.08 248.74c-.73-.44-.39-1.42 1.12-1.22a7.88 7.88 0 012.69.87c.74-1.24-4.63-2.13-4.54-1.75a3.21 3.21 0 00-.25 1.17zM671.16 167.36a1.16 1.16 0 01.7 1l7.94-.81-.26-1.79-5.16.22-.58-.26.55-1.86-.4-.37zM667 235c.73.07.77 1.2.77 1.2h-1.06z" opacity=".25" style="isolation:isolate"/><g fill="#d88b64" opacity=".65"><path d="M702.41 324.73a35 35 0 01-13.68-.79c-.77-.4-2.62-1.35-3.37-1.76-5.76 1.58-23.94 6.73-29.57 7.69l-1.46-5.93-1.1-8.71c-.52-3.62-.94-8.92-.22-12.52a13 13 0 011.83-5.71c-2.18 3.12-2.36 29.66 5.42 29.58 4.61-.08 23.8-6.92 25.1-6.45 2.94 1.06 10.44 1.89 19 1.19l.4 1.45-1-.07c-.7.51-.91 1.3-1.35 2.03zM718.7 321c4.9-1.8 10.27-5.18 14.47-8.16l3.88-3.07 2.85-3a15.19 15.19 0 002.05-2.42l-.88.22s.29 2.64-14.27 10.69a46.93 46.93 0 01-11 4.24c.51.25 2.38 1.25 2.9 1.5zM712.39 322.8c-.65.15-1.6 0-2.26.16a31.44 31.44 0 00-2-2l1-.14zM556.31 250l1.1 3.45s1.61 1.53 13.47 3.29 17.49-1.1 17.49-1.1l1.54-2.63a27.5 27.5 0 002.78-3.88c-9.77 3.03-28.8 3.29-36.38.87zM734.56 284.78c2.41-.37 7-1.1 9.66.73 3.33 2.45 8.48 4.93 4.61 6.29l-1 .81-4.18-3.37-2.19-2.05-2.46-1.54c-1-.26-3.35-.76-4.44-.87zM731.34 272c2-.51 3.07-2.71 7.68-3.08 9-.91 14.33-2.09 8.05 4.91-2.74-1-3.8-2.36-7.83-2.49-1.9.26-7.9.66-7.9.66zM720.58 258.86c3.65-1.17 10-4.83 16.25-6.15 7.26-1.34 9.36-1.81 9.07 1.47l-.44.22s-5.63-.74-8-.22c-7.06 1.93-10.54 3.82-16.88 4.68z" opacity=".65" style="isolation:isolate"/><path d="M585.74 260.84c5.39-12.08 11.4 24-14.86 11.49l1 1.32c5.36 2.44 16.84 4.79 19.33-6.37 1.53-8.38.18-8.37-2.57-12.15a52.86 52.86 0 00-2.9 5.71zM695.93 150.21c-1.29 7.3-1.74 16.7-11.18 16 6.34-2.14 10.33-10.76 11.18-16zM693 72.56c6.62 3 8.08 6.48 5.61 16.84-2.58 10.88-7.9 22.3-8.68 26.79s-.93 4.2-.93 4.2c-.9-10.36 6.68-29.6 6-39.73 0-4.66 0-5.66-2-8.1zM710.47 76.76c3.83 9.29-10.31 37.61-11.27 44.41-.2-12.86 9.26-33 10.93-44zM721.26 91c.92 6-2.88 11.76-5.66 19.47s-4.2 12.59-4.2 12.59c.74-6.91 6.84-26.15 8.78-31.82zM722.33 131.93c-1.68 9.15-2.17 22.95-15 30.23-5.7 4-7.68 4.25-7.68 4.25 5.06-.41 6.44.17 12.15-3.88 9.29-6.69 9.89-21.39 10.53-30.6zM642.69 117.87c.29 1.47 4.46 4 7.46 7.69s7.11 11.64 7.91 14.49 4.47 10.62 6 14.43 6.2 7.73 6.2 7.73l-3.47.39-1.65-1.81a19.79 19.79 0 01-4.79-9 65.57 65.57 0 00-3.61-10.4 18.5 18.5 0 01-1-4c-.25-2.12-6-12.39-8.54-14-3.2-2.64-3.66-2.67-4.51-5.52zM684.19 121.61c6.81-.34 20.6 2.49 26.87 6.29a113.53 113.53 0 00-12.81-4 90.19 90.19 0 00-14.06-2.29z" opacity=".65" style="isolation:isolate"/></g><g opacity=".4"><path d="M727.9 140.68c4.76 2.92 9.64-3.25 3-4.38-1.2 0-2.16 1.07-3.39.85-1.14-5.08-.14-6.37 5.07-5.84l.24.69c-1.43.08-3.21-.11-4.54.49V136c4.26-2.22 9.88 3.1 4.36 5.95-1.52.47-4.24.69-5.13-.9zM793.11 140.09c-2-.31-2.84 1.72-2.76 3.41.19 0-.64.83-.7.82-4.27-1.9-2.07-8.16-.15-11.11l.81.71c-1.61 1.6-3.71 7.77-1.18 9 .56-1.91 1.89-4 4.2-3.51zM443.34 279.37c-1 .51-3.34.95-3.55-.58 1-.77 3-.43 4.11-1.53 1.61-1.3 1.82-4.1 1-6a2.33 2.33 0 00-.74-.88c-.32-.24-.15-1 .29-.74 3.29 2.11 2.06 6.62-.3 9 1.26 1 3.12 1.13 4.66 1.18-.27 1.92-4.32.04-5.47-.45zm-1.15-.36c0-.26-.52-.18-.69-.14-.39.27.58.43.69.13zM454.32 273.94c-1 1.2-3.44 1.91-4.56.54a3.21 3.21 0 013-4.08c3.73-.17 2.61 2.53 3 5.15.12 1.68.14 3.33.14 5-2.13.17-.1-5.35-1.58-6.61zm-3.91-.18c.6 1.39 2.76.23 3.53-.59.47-3.35-3.74-1.96-3.53.59zM495.87 280.5c7.18 2.56 8.53-6.21 2.14-4.81-.38.18-.85.31-1-.19 1-1.06 2.45-2.17 3.1-3.51-.71-2.52-3.52.38-4.79.9.94-4.36 8.41-3.44 4.42 1.45 5.71 1.67 2.7 8.73-2.58 7.32-.71-.1-1.48-.32-1.29-1.16z" opacity=".4" style="isolation:isolate"/><path d="M504 276.67c-.59-8.24 8.22-5.38 7.05 1.24-.93 6.09-7.51 4.27-7.05-1.24zm.81-.4c0 1.37-.11 3 1.1 3.93a2.88 2.88 0 004.28-1.88c1.47-5.08-5.73-8.96-5.42-2.05z" opacity=".4" style="isolation:isolate"/></g><path fill="none" stroke="#000" stroke-miterlimit="10" stroke-width=".62" d="M627 197.23s-2.1-18.23-2.1-18.89 5.27-4 6.07-4.32 12.16-.39 12.16-.39M631.78 184.93c-.29-2.71-.73-9.23-.73-9.23"/><path d="M585.92 260.51c.61-2.39 3.22-7.25 6.38-11.47l.83.16c-3.08 4.12-5.93 8.69-6.92 11.38-.29.8-.77 1.8-.29-.07zM644.05 112c2.65-3.26 7.47-3.73 11.7-2.22 5.72 2.25 7.74 6 10 9.11 3.76 4.94 6.36 8.58 9.32 11.06 2.75 2.18 2.5 1.17.49-.4-2.94-2.43-5.57-6.12-9.3-11-2.26-3.22-4.35-7-10.25-9.34-4.23-1.52-8.92-1.08-11.86 1.79zM643.2 120c9.14 8.47 10.67 13.05 13.92 22.82 3 6.36 3.28 14.34 9.37 19.91l.46-.42c-6-5.44-6.31-13.5-9.27-19.76-3.37-10.2-4.81-14.24-14.07-23.07zM684.41 166.41c6.88-3.11 9.85-10.53 12-17.28-1.26 7-4.66 14.97-12 17.28z"/><path fill="none" stroke="#000" stroke-miterlimit="10" stroke-width=".62" d="M519.71 301c-3.81 13-11.84 57.91-2.62 75.69"/><path d="M521.32 315.45c1.83 14.46 5.16 29.49 12.88 42-8.47-12.05-11.91-27.45-12.88-42zM525.86 314.57c5.55 5.24 9.35 12.11 12.73 18.89-4.13-6.35-7.83-13.08-12.73-18.89z"/><path fill="none" stroke="#000" stroke-miterlimit="10" stroke-width=".62" d="M792.17 142.25c-44.44 40.75-80.57 7.07-93.26 46.26-5.27 16.25-2 33.39 6.29 45 17 23.49 47.7-2.22 91.95 28.7"/><path fill="none" stroke="#000" stroke-miterlimit="10" stroke-width=".62" d="M729.21 166.65c-2.83-2.05-7.42-2-15.91-1.27s-31.47 2.91-31.47 2.91M656.23 170.82c-7.58.71-12.74 0-21.3 10-13.12 14.15-11.81 44.14 2.44 57.78 7.32 7.32 14.54 10.25 33.18 8.59"/><path d="M721.21 246.1c-36.19-5.47-39.08-77.82.29-80.42-38.6 3.4-35.68 74.2-.29 80.42z"/><path fill="none" stroke="#000" stroke-miterlimit="10" stroke-width=".62" d="M837 104.34c10.37-4.13 33.82-.88 50.51 31.62 27.87 47 28.54 150.2-31.62 159.87C780 292.48 778 124.23 837 104.34z"/><path fill="none" stroke="#000" stroke-miterlimit="10" stroke-width=".62" d="M834.61 92.17c12.28-4.64 39.65-2.89 59.44 33.57 32 53.26 29.05 172.52-39 182.88-88.94-4.04-92.56-193.02-20.44-216.45z"/><path fill="none" stroke="#000" stroke-miterlimit="10" stroke-width=".62" d="M845.89 214.49c11.05-1 9.32-29.69-1.76-29.33-11.05.97-9.32 29.7 1.76 29.33zM796.56 177.58s41.48-1.85 45-1.85 3.91.85 3.54 3.49-.58 3.73-.58 3.73M835.28 195.76a10 10 0 00-6.07-1.61c-3.3 0-33.46 2-33.46 2M795.83 198.1c6.67.25 33.83-2 39 .15"/><path d="M834 196.79c-4.79-1.63-12.28-.14-17.3-.17-5.63.27-11.78.54-17.4.68 5.7-.47 11.66-.81 17.38-1.1 5.68.06 11.81-1.4 17.32.59z"/><path fill="none" stroke="#000" stroke-miterlimit="10" stroke-width=".62" d="M841.46 215.4c-.19 1.81 1.58 5.78-2.64 6.2l-40.11 4.88"/><path fill="none" stroke="#000" stroke-miterlimit="10" stroke-width=".62" d="M839.26 214.23a4.73 4.73 0 01-4.34 3.42 8955 8955 0 01-36.95 4.78"/><path d="M840.68 216.62c.86 5.45-3 4-6.92 4.85a1099.1 1099.1 0 01-30.38 3.65c10-1.5 20.26-2.81 30.34-4 1.94-.29 4.42-.24 6.24-1 1.04-.72.61-2.36.72-3.5z"/><path fill="none" stroke="#000" stroke-miterlimit="10" stroke-width=".62" d="M659.44 170.61c-33.86 11.76-27.31 77.77 10.84 76.47M647.57 171.8s-.44-5.61-.34-6.56.61-1.54 2.07-1.93a27.37 27.37 0 016.52-.66c.8.2.92.85 1.07 2.76"/><path fill="none" stroke="#000" stroke-miterlimit="10" stroke-width=".62" d="M658.89 164.5s.19-2.17-.9-3.05c-1.35-1.93-11-.45-11.74 1-1.78 1.24-.69 9.41-.66 10.08"/><path fill="none" stroke="#000" stroke-miterlimit="10" stroke-width=".62" d="M670.92 162.8a.85.85 0 00-.68-.54c-4.08.19-10 1.12-14.4 3.44-2.05.88-3.59 1.76-3.59 2.34s.25 2.1 1.17 2.37c1.08 1.14 13.3-.45 13.84-2.2 1.45-1.79.35-4.88-2.2-4.41l-2.58.56"/><path fill="none" stroke="#000" stroke-miterlimit="10" stroke-width=".62" d="M666.45 163.85c3.41-1.55 11-1.5 14.4-1.3 0 1-.17 3.68-2.39 3.42-3.61.17-4.05.19-4.51-.05s.83-2.49.21-2.49-3.14 3.83-3.26 4.15M679.43 167.58a14.33 14.33 0 012.4-.22c.17.12 0 .93 0 .93-.49-.35-11.9 2.94-10 0"/><path fill="none" stroke="#000" stroke-miterlimit="10" stroke-width=".1" d="M652.94 198.37c.49-5.09 4.15-8.68 8.78-8.83 2.15-.2 12.35-1 14.79-1.17s4.39.14 4.73 3.12c1 5.14-1.52 13.51-8.15 12.74-3 .15-13.13.73-15.13.73s-5.37-1.46-5.02-6.59z"/><path fill="none" stroke="#000" stroke-miterlimit="10" stroke-width=".62" d="M657.84 235.18c-.55.89-.24 3.28 1.17 3.52.38 2 8.49 3.26 10.25 4 3.87.84 1-1.49-.26-2.75-.69-.58-1.5-.47-1.9-1.06-.7-1.84.37-5.12-1.79-6.7-.59-.58-2.16-.33-2.46-.33-1-.58-2-3.89-4.28-3.07-1.24.22-.8 1.72-.66 2.19s-.22.35-1 .33a1.14 1.14 0 00-1.26 1.07 4.1 4.1 0 00.53 1.66c.05.15-1.45-.07-1.63.35-.68.92 1.85 4.61 3.38 3.61"/><path d="M668.8 240a64.63 64.63 0 01-8.76-1.26 65.37 65.37 0 008.73.64zM665.75 234.63a38.07 38.07 0 01-7 .37 23.08 23.08 0 017-.37z"/><path fill="none" stroke="#000" stroke-miterlimit="10" stroke-width=".62" d="M692.76 243.66c7 .05 13.23.11 13.91.2 1.56.19 7.9 3.7 14.15 3.51s11.18-1.66 11.18-2.73M686 243.62h2M677.68 243.58h2.92M688.37 270.21c-5.89.71-17-20.24-19-25-.55-1.57 1.9-1.79 3.91-1.65M741 244.52c2.63 2.51 5.42 6.16 4.95 9.8M699 258.21c2.09-6.17 11.67-7.25 16.31-11.37"/><path d="M747.32 274.21l-.49-.39c4.83-6 5-10.5 5.06-12.68.08-2-3-4.65-4.77-5.9-3.77-1.68-10.62-.85-14.93.82a115.72 115.72 0 01-12.73 3.55c-2.69.4-2.8-.21-.11-.62a115.09 115.09 0 0012.65-3.52c4.44-1.67 11.27-2.65 15.47-.74.53.36 5.16 3.65 5 6.43-.03 2.07-.2 6.91-5.15 13.05z"/><path d="M748.44 292.85l-.62-.74c3.9-.34 8.14-12.26 3.92-15-6-4.62-12.49-6.57-21-4.55-3.66.53-3.13 0-.1-.61 8.17-2.2 15.47 0 21.47 4.68 4.4 2.72.61 15.76-3.67 16.22z"/><path d="M746.24 312l-.58-.88c3.7-2.7 7.83-7.68 4.63-16-.16-.54-2.82-2.63-4.75-4.16-3.72-2.92-7.2-6.78-11.87-5.44-2.55.55-3.22.14-.13-.61 4.41-1.4 8.69 2.49 12.39 5.56 2.94 2.33 4.75 3.79 5 4.46 3.29 8.47-1.2 14.07-4.69 17.07z"/><path d="M738.51 305.13a33.71 33.71 0 007.91-3.52c-2.04 2.07-4.94 3.72-7.91 3.52z"/><path fill="none" stroke="#000" stroke-miterlimit="10" stroke-width=".62" d="M718.67 320.9c5.09-.42 22-13.21 23.43-16.65M718.89 320.86c1.46 2.71 5.13 10.4 6.3 13.4s3 5.49 5 5.86c5.83 1 18.58-8.51 20.57-14.57 5.7-11.33-4.64-6.82-8.05-21.6"/><path d="M751.17 318.3c-2.74-.18-3.23 2.8-4.24 4.71-3.19 6.13-7.29 12.23-13.25 15.94 4.6-3.53 8-8.3 11.08-13.17 2.1-2.38 2.47-7.78 6.41-7.48zM594 290.15c5.23-3.42 9.88-1.58 17.39-1.15 3.49.65 5.94-.46 6.62 1.85l-.62.1c-.39-1.57-2.93-.77-6.06-1.33-4.18-.39-9.92-.93-11.68-.9a14 14 0 00-5.54 1.6c-.68.35-.71.15-.11-.17z"/><path d="M585.27 299.86c2.21-3.36 5-10.16 7.38-12.61 1.2-1.06 3.64-1 5.44-.32.63.22 1.7.71 1.81 1.43l-.61.1c-.92-1.44-5.1-1.88-6.22-.74-2.19 2.42-5.1 9-7.5 12.19-.29.39-.91.87-.3-.05z"/><path d="M579.89 295.59c.05-2.61.24-7.09.89-8.32 1.11-2.14 9.86.2 11.42.72l-.19.59c-1.29-.67-10.5-2.42-10.68-1-.55 1-1.2 5.22-1.27 8.07-.06.73-.2 1.01-.17-.06z"/><path d="M557.42 310.11c-2-1.23 4.17-11.09 5.31-12.93.41-.62.59-.52.2.06-3.23 4.86-5.31 10.87-5.37 12.15 3.75-4.09 18.53-22.11 23.16-20.82l-.08.61c-1.46-.21-1.84-.27-5.32 2.64-4.58 3.48-13.53 14-17.9 18.29z"/><path d="M578.89 289.12c-1.62-2.53-13.3-11.22-25.45-15.18 9.57 1.64 25.2 12.57 26.41 14.84z"/><path d="M576.36 286.4c-2.52-5.74-3.42-12.31-8-16.26-4.51-4.21-9.87-10.11-10.54-11.82-.82-2.1-2.6-4.73-4.9-5.23l.13-.61c3.28.71 5 4.8 5.35 5.61 6.6 9.79 15.1 11.91 18.6 28.13z"/><path fill="none" stroke="#000" stroke-miterlimit="10" stroke-width=".62" d="M588.74 255.27c4.24 4.62 9.22 18.67 10.32 32.58"/><path d="M581.67 276a25.16 25.16 0 01-9.93-2.06l-.15-.82c3.59 1.68 9.46 2.91 13.26 1.89 5.52-1.95 7.92-11 5.86-16.29l.59-.2c2.54 6.63-1.38 18.18-9.63 17.48z"/><path fill="none" stroke="#000" stroke-miterlimit="10" stroke-width=".21" d="M575.2 281.77c11.88 3.13 21.4-3.79 19.32-15.29"/><path d="M591.69 250.44c2.64 1.07 4 3.86 4.95 6.37-1.08-2.32-2.58-4.94-5.15-5.78z"/><path fill="none" stroke="#000" stroke-miterlimit="10" stroke-width=".62" d="M600.82 246.93c4 .51 7.61 9.66 7.61 9.66M639.86 270.65c3.17-7.86 8.44-15.89 9.42-24.45M646.79 245.1c-.22 7.07-8.51 20.17-10.15 25.26"/><path fill="none" stroke="#000" stroke-miterlimit="10" stroke-width=".62" d="M631 283.19c-3-1.54 0-7.26 2.15-10.2 2.75-3.78 8.27-4 7.66.44"/><path d="M634.71 300.37c4.64-3.3 19.87-12.63 24.89-6.73l-.45.43c-4.34-5.41-19.9 3.57-24.3 6.55-.61.49-.66.18-.14-.25z"/><path d="M645.38 294.83c-5.5 0-12.38-1.55-17.61-2.5-3.56-.48-5-2.92-8.7-1.7-1.22.41-11.57 3.77-10 2.84 2.14-.61 7-2.48 9.76-3.42 3.94-1.3 5.35 1.13 9 1.67 5.34 1 12.67 2.59 18.09 2.48v.62zM657 333.63c-4.37-10.43-7.38-33.7-.22-40.05.5-.07-.61 1.72-1.11 2.53-1.61 2.6-2.85 6.38-2.52 12.88.58 11.41 2.59 23.54 6.67 27.28 1.83 1.73-.22 2.53-2.82-2.64z"/><path d="M654.72 297.54l-.05-.73c6.59-5 20-14.47 25.23-19.73 1.31-2.18 5.09-8.08 5.13-8.14l.52.34c0 .06-3.82 6-5.12 8.12-5.18 5.37-18.98 15.07-25.71 20.14zM655 342.5c-22.84-3.55-56-.34-77.81-3.18-5.87-1.63-19.33-6.65-28.22-14-3.56-2.92-7.84-6-12-8.91-10.62-7.5-20.74-14.46-21-25.15 0-4 3.44-19.13 7.77-25.36 4.17-6 16.65-13 22.57-13.6l.07.62c-5.88.51-19 8.32-22.13 13.34-4.26 6.14-7.66 21.07-7.66 25 0 4.12 1.26 6.9 5.6 12.4 5.07 6.13 19.79 14.9 27.18 21.18 8.82 7.25 22.17 12.23 28 13.85 3.67 1 14.47 1.08 23.15 1.13 13.18.41 29.87-.14 42.76.32 7.43.17 9.7 2.45 17 .41 5.92-2.07 8.91-6.35 10-14.21h.62c-.9 10.77-6.9 15.83-15.9 16.16z"/><path fill="none" stroke="#000" stroke-miterlimit="10" stroke-width=".62" d="M579 339.41c.59 6.15-1.17 30.95-1.17 30.95"/><path d="M575.11 338.23a104.84 104.84 0 01-1.38 15.92 104.36 104.36 0 00.76-15.9z"/><path fill="none" stroke="#000" stroke-miterlimit="10" stroke-width=".62" d="M602.33 340.29c.19 5.76-.44 30.17-.44 30.17M627 340.39c0 4.39-1.56 30.26-1.56 30.26"/><path d="M587.59 290.8a29.12 29.12 0 00-4.49 7.2c.44-2.8 1.9-5.76 4.49-7.2zM602.72 294.71a50.15 50.15 0 00-.78 9.56 13.65 13.65 0 01.78-9.56zM628.68 298.32a33.75 33.75 0 00-10.93 18.25 25.2 25.2 0 0110.93-18.25z"/><path fill="none" stroke="#000" stroke-miterlimit="10" stroke-width=".15" d="M547.23 305.54c-1.23 9.79-7 7.16-6.1-1.56 2.15-9.09 9.53-16.89 6.1 1.56z"/><path fill="none" stroke="#000" stroke-miterlimit="10" stroke-width=".15" d="M537.52 299c.87-4.52 7.22-10.73 11-8.49 5.87 1.54 4.75 29.21-2.39 26.06-4.84-2-10.42-8.2-8.61-17.57zM558.7 305.1c-.34 1.37-.15 3.13.83 2.54M560.16 306.86c.64.1 1.08 3.27 1.86 3.41s1.22-4.44 2-7.71"/><path fill="none" stroke="#000" stroke-miterlimit="10" stroke-width=".15" d="M566 300.47c1.41.73 3.17.73 3.17 1.17-.32.87-3.28 23.32-1.46 25 .49 1.76.68 2.88-.34 2.88s-5.67-1.46-9.37-4.15c-5.59-3.37-6.93-12.93-1.71-15.13.58-.29-.64-.68-.83-3.36s-.34-11 0-10.93c5.91 2.4 3.52 1.92 3.8 7.9"/><path fill="none" stroke="#000" stroke-miterlimit="10" stroke-width=".15" d="M562.11 315.74c.52.19 0 8.54 0 8.78s-3.75-.48-4.44-4.29.88-5.81 4.44-4.49zM572.66 303.73c.1-.47 5.8 1 5.8 1.37a49.91 49.91 0 00-1.41 9.66c-.66 8.74-.26 13.15 1.07 17.91-.09.3-4.78-.24-5.27-.73-2.92-4.65-1.24-22.58-.19-28.21z"/><path fill="none" stroke="#000" stroke-miterlimit="10" stroke-width=".62" d="M681.78 252.38a1.82 1.82 0 00-.48 2.42c.62.8 1.79 1.35 3.48.55a100.81 100.81 0 008.93-4.91c2.55-1.6.46-4.49-1.9-3.4a55.2 55.2 0 00-10.03 5.34z"/><path fill="none" stroke="#000" stroke-miterlimit="10" stroke-width=".62" d="M684.78 255.35a2.14 2.14 0 001 4.14 106.79 106.79 0 0010.29-6c.8-.74-.7-3.92-2.78-2.75"/><path fill="none" stroke="#000" stroke-miterlimit="10" stroke-width=".62" d="M685.8 259.48c-2.52 1-.71 5.19 1.61 3.63.89-.75 8.08-4.83 10.33-5.46 1-2-.48-4.72-2.64-3.51"/><path fill="none" stroke="#000" stroke-miterlimit="10" stroke-width=".62" d="M687.27 263.22c-2.19 1.11-.88 3.94.91 4 .77-.19 4.65-2.38 7-3.59s3.33-1.67 3.7-1.9c1.62-.49.33-4.79-1.13-4.07"/><path fill="none" stroke="#000" stroke-miterlimit="10" stroke-width=".62" d="M688.51 267.06c-2.19.81-.54 4.31 1.58 3.55 1.28-.44 9.18-4.17 10.32-4.68 2.17-.74 0-4.87-1.54-4.21"/><path fill="none" stroke="#000" stroke-miterlimit="10" stroke-width=".62" d="M690.09 270.61c-2.13.89-.32 5.25 2 3.7 1.06-.55 9.12-4.32 10.14-4.8 1.83-.75 0-4.62-1.79-3.58"/><path fill="none" stroke="#000" stroke-miterlimit="10" stroke-width=".62" d="M691.77 274.45a1.9 1.9 0 002 3.22c1.76-.54 8.82-3.91 10-4.46 2-.9.27-4.45-1.54-3.7M704.62 322.62c.69.09 1.79 2.31 4.32 5 2 2.12 4.32 3.18 4.83 3.77a2 2 0 01-.3 2.78c-2.6 2.56-15.67-10.28-8.85-11.55z"/><path fill="none" stroke="#000" stroke-miterlimit="10" stroke-width=".62" d="M705 322.88c-1.28-1.29-.44-4.68 1.5-3.74.55.41 2.31 2.9 5 4.54s4.58 2.12 5.27 2.86c1.77 6.62-8.92.1-10.39-1.9M690.27 247.66c2.67-1.53 3.18-3.4 2.16-4.87-.8-1.14-3.23.14-6.55 2.34s-6.93 3.59-7.28 4.78.91 3.61 3.18 2.47"/><path fill="none" stroke="#000" stroke-miterlimit="10" stroke-width=".62" d="M683.34 246.66c1.78-1.66 6.42-7.9 5.29-10-.48-.8-2-1-3 .2s-6.07 9.42-7.88 8.91"/><path fill="none" stroke="#000" stroke-miterlimit="10" stroke-width=".62" d="M679.24 245.15c-.78-.1-2.1-3.22-4.08-5a14.26 14.26 0 00-8.34-3.91M668.11 239.54c3.3-.38 8.53 10.37 12.06 9"/><path d="M655.9 330.32l-.07-.91c5.11-.63 28-6.87 29.18-7.44.43-.2.81 0 1.33.38 1.44.92 4.81 3.07 16.2 2.08l.05.62c-11.6 1-15.09-1.23-16.59-2.18-1.47-.74-24.48 7.13-30.1 7.45z"/><path fill="none" stroke="#000" stroke-miterlimit="10" stroke-width=".62" d="M679.29 330.38c-.35-3.26-4-2.62-7.66-.1-2.83 2.05-5 7.15-4.59 8.59.34 1.22 2.1 3.18 4.24 1.56"/><path fill="none" stroke="#000" stroke-miterlimit="10" stroke-width=".62" d="M677.48 339.85c-.53 1.32-2 4.54-4 4a3 3 0 01-2.25-3.47c.56-3.06 5.84-11.62 9.91-9.85 1.61.83 1.37 1.9 1.37 1.9"/><path fill="none" stroke="#000" stroke-miterlimit="10" stroke-width=".62" d="M683.19 336.63c-.05 4.05-2 9.42-4.58 9.32-1.83-.07-2.15-2-1.86-3.76.29-2.4 5.69-14.05 9.27-9.1"/><path d="M675.38 341.61c1.09-3.24 3.43-6 5.86-8.3-1.74 2.86-4.04 5.49-5.86 8.3z"/><path fill="none" stroke="#000" stroke-miterlimit="10" stroke-width=".62" d="M690 332.67c-5.45-4.77-10.31 14.68-5.27 14.16 1.85-.29 2.53-1.76 2.53-5.18s1.22-7 1.81-7.36"/><path d="M684.23 336.21c-2.24 1.26-2.82 4.4-3.62 6.71.68-2.48 1-6.12 3.59-7.34z"/><path fill="none" stroke="#000" stroke-miterlimit="10" stroke-width=".62" d="M697.05 330.53c-6.11-1.67-3.59 7-2.78 11 .68 2.78 1.06 4.12 2.69 3.95 2.34-.24 2.29-1.71 1.9-3s-2.83-7.22-1.76-10.59"/><path fill="none" stroke="#000" stroke-miterlimit="10" stroke-width=".62" d="M693.31 331.85c-5.13-1.93-5.2 7.44-4.87 10.57.18 2.6.26 3.92 1.32 4.21s2.67.33 2.85-1.13-.47-9.41.4-11.68M630 279.73a52.73 52.73 0 012.38-13M630.69 292.54a53.32 53.32 0 01-.79-10.54M644.84 260.42c3.89-4.87 12-13.69 11.41-13M629.88 283.83l.35-.87M641.13 294.17c1.85-2.68 8.93-4.59 11.17-1.9M651.23 291.39c-1.35-6-12.16-2.44-13.81 2.49"/><path fill="none" stroke="#000" stroke-miterlimit="10" stroke-width=".62" d="M634.93 293.39c-.83-1.27-.1-4.1 3.8-6.59s10.89-.63 10 1.81"/><path fill="none" stroke="#000" stroke-miterlimit="10" stroke-width=".62" d="M647 286.17c0-7.05-11-4.54-13.32.44-1.47 2.67-.15 5 1 5.36"/><path fill="none" stroke="#000" stroke-miterlimit="10" stroke-width=".62" d="M633.17 288.7c-4.72-3.49 2.17-10.47 6.69-10.54 2.63-.09 5.9 1.76 5.12 4.2"/><path fill="none" stroke="#000" stroke-miterlimit="10" stroke-width=".62" d="M631.85 284.41c-2.54-2.43 1.55-8 4.44-10.05 4.37-3.57 8.45 1.06 7.28 4.68"/><path d="M636.86 278.77c1.42-1.31 4.51-3.2 5.92-1-1.51-2-4.26.08-5.49 1.44z"/><path fill="none" stroke="#000" stroke-miterlimit="10" stroke-width=".62" d="M676.51 328.18c0-2-2.49-3.07-6-1.31M702.05 291.66c-1.81.95-.21 4 2.2 3.58s8.32-1.8 10-2.92c5.75-7.62-9.43-2.53-12.2-.66z"/><path fill="none" stroke="#000" stroke-miterlimit="10" stroke-width=".62" d="M703.45 295.32c-.44 1.53-.15 3.36 3.29 3.29 4.78-.33 12.82.14 10.18-5.27-.45-.58-2.13-.62-6.23.4"/><path d="M681 121.56a74.51 74.51 0 0132.3 7.51 112.73 112.73 0 00-32.3-7.51z"/><path fill="none" stroke="#000" stroke-miterlimit="10" stroke-width=".62" d="M705.3 166.07c18.38-5.58 15.36-27.65 18.45-44.9 2.34-13 7.51-21.38 5.36-26.06a7 7 0 00-9.17-3.71"/><path d="M711.28 122.08c1.73-9.85 7.82-29.52 9.65-33.54 5.11-10.83-3.84-16-10.59-11.32l-.32-.53c7.18-5 16.83.68 11.47 12.11-1.81 4-7.83 23.42-9.57 33.25-1 5.45-1.26 3.58-.64 0z"/><path d="M699.11 118.17c1.33-8.93 4.64-20.31 7.12-28.19 1.85-6.79 6-14.73 1.56-19.47-3.95-4.85-11.08-2.66-14.64 2.24l-.49-.38c3.77-5.23 11.45-7.43 15.62-2.24 4.63 5.12.45 13-1.46 20-2.47 7.86-5.93 19.29-7.09 28.07-1.12 8.42-.8 1.14-.62-.03z"/><path d="M673.24 128.13c-1.07-15.16 1-50.38 10.65-56 17.21-6.08 11.26 15.87 8 30.22A75.66 75.66 0 00689.3 117c-.31 8.24-.82 2.09-.56-1.06a88.25 88.25 0 012.5-13.81c2.67-11.88 6.47-25.38.74-29.76-7.47-2.65-11.42 1.59-13.93 10.44-3.2 13.11-5.41 30.22-4.19 45.22z"/><path fill="none" stroke="#000" stroke-miterlimit="10" stroke-width=".62" d="M703.74 273.21c2.1-.91 3.74 2.61 2.45 3.44-.8.44-4.43 1.61-7.21 3s-3.33 2.16-4.5 1.8-2.45-2.34-1-3.62"/><path fill="none" stroke="#000" stroke-miterlimit="10" stroke-width=".62" d="M695.39 281.52a2.55 2.55 0 00.59 3.18c2.09 1.61 5.83-2.39 9.63-3.44 2.59-1 3.36-1.72 3.29-2.78a2.24 2.24 0 00-2.31-2.16"/><path fill="none" stroke="#000" stroke-miterlimit="10" stroke-width=".62" d="M697.48 285.07c-.4 1.06.26 4.17 2.34 3.37s8.2-3.55 9.92-4.07a1.94 1.94 0 001.06-3.07c-.79-2.6-5.84.3-6.44.47M700.08 288.4c-1 1-.37 3.66 1.5 3.59M710.58 283.93a2.86 2.86 0 012.89 4.18M706.06 298.68a2.49 2.49 0 00-.88 2.71c1.33 3.58 8.13.95 11.27.74 2.39-.52 2.83-1.83 2.47-3s-1.22-1.51-4.37-1.24"/><path fill="none" stroke="#000" stroke-miterlimit="10" stroke-width=".62" d="M706.52 303.1c-.68.76-1.49 3.54 1.07 4.1 2.92.27 14.43 1.44 12-3.37-.64-1.19-6.35-1-9.49-.77M707.18 307.23c-2.83 3.7 1.94 4.85 6.44 5.29 3.27.22 5.39.37 6.37-.22a2.25 2.25 0 00-.2-3.49c-1.24-.68-2.41-.36-5.7-.66a39 39 0 01-5.37-.8"/><path fill="none" stroke="#000" stroke-miterlimit="10" stroke-width=".62" d="M707.47 311a2.45 2.45 0 00.3 4.41c3.24 1.36 10.6 5 12.54 1.86.51-.88.31-2.27-2.13-2.91s-8.54-1.9-10.12-3.07"/><path fill="none" stroke="#000" stroke-miterlimit="10" stroke-width=".62" d="M708.94 316a37.53 37.53 0 007.51 3.86c2.37.87 2.9 1.46 2.83 2.58-1.16 4.22-10.24-1.49-12-2.88-1.34-1.34-2.24-2.78-.22-4.49M702.64 325.45c-4.86 1.24-1.55 6.5 1.34 10 2.27 2.81 3.74 4.37 5 3.39s1.18-1.88.49-2.63c-.82-.38-6.67-8.32-6.27-9.59"/><path fill="none" stroke="#000" stroke-miterlimit="10" stroke-width=".62" d="M700.18 328.26c-7-.19-.57 11.26.85 14 1.6 1.88 5-.33 3.15-2.71-1.42-1.68-4.3-9-4-10.76M705.15 247.37c-.26-1.78 5.31-.06 4.83 1-.36 1.68-5.07 1.07-4.83-1zM532.78 243.16c-12.74 8-16.72 7.51-11.83 28.8M556.31 250a38.39 38.39 0 012 8.72"/><path d="M526.22 249.27c-5.52 4.23-6.72 6.18 1.17 3.08A40.89 40.89 0 01549 251.1a49.19 49.19 0 00-21.43 1.81c-8.31 3.26-7.8.28-1.35-3.64z"/><path d="M534.11 250.82a25.57 25.57 0 017.41-4.84 25.53 25.53 0 00-6.94 5.25z"/><path fill="none" stroke="#000" stroke-miterlimit="10" stroke-width=".15" d="M582.52 333.21c.25.42 5.56 1.32 5.9 1s-.34-1-.78-4.3-.44-5.22-.1-5.32 5.22.44 5.47.88 0 1.22.48 4.54.44 4.25.79 4.39 5.17.54 5.46.2-.58-2.64-.49-8.1 1.52-16.3 1.76-17.67.1-1.9-.54-1.9-5.41 0-5.56.49a99.4 99.4 0 00-1.51 11.37c-.1.34-6-.3-6-.83s.63-8.49.87-9.67.25-1.41-.49-1.61-3.85-.34-4.44.15-1.12 4.54-1.56 12.3.44 13.59.74 14.08zM605 311.2c-.51-.11-.78-3.95-.58-4.34s3.27-1.76 7.61-1.66c12.8-.88 9.34 18.16 4.44 24.11a14.18 14.18 0 01-13.22 5.17c-.4-.05.19-4.15.48-4.2a8 8 0 005.27-1c6.16-2.92 8-22.17-4-18.08z"/><path d="M581.34 313c-1.8 5-1.51 10.41-2.1 15.61-.24-5.16-.52-10.96 2.1-15.61z"/><path fill="none" stroke="#000" stroke-miterlimit="10" stroke-width=".62" d="M844.78 181.39c2.53.1 7.51 3.22 9.17 10.54l3.12-2.15"/><path fill="none" stroke="#000" stroke-miterlimit="10" stroke-width=".62" d="M853 188.51c2.83 0 5.08-.19 5.37 1.27s.49 2-3.41 5c1.27 3.12 1.17 11.13-2 17.28 3.22 2.34 3.61 3.41 2.73 4.78s-1.27 1.56-8.78 2.15"/><path fill="none" stroke="#000" stroke-miterlimit="10" stroke-width=".62" d="M841.36 220.43a11.51 11.51 0 0010.54-6.83s3.22 2 2.73 3.12"/><path d="M843.31 182.27c-.46-4.15-7.4-2.34-10.36-2.79l-11.87.05c-7.8 0-16 0-23.74-.19a694.78 694.78 0 0135.61-.35c3.05.54 10.05-1.07 10.36 3.28z"/><path d="M839.8 180.8c-4.33 2.18-6.14 7.28-7.22 11.72.47-4.52 2.56-10.06 7.22-11.72zM835.8 215.16c-3.61-4.53-4.7-10.83-4.2-16.49.1 5.68 1.09 11.64 4.2 16.49z"/><path fill="none" stroke="#000" stroke-miterlimit="10" stroke-width=".62" d="M710.47 323l2.24-.44"/><path fill="none" stroke="#000" stroke-miterlimit="10" stroke-width=".57" d="M411.1 272.7l-2 50.76"/><path d="M413.64 211.21h-.57c.66-20 1-27.47 1-35.22l.58.58c-.02 7.75-.35 14.65-1.01 34.64z"/><path fill="none" stroke="#000" stroke-miterlimit="10" stroke-width=".57" d="M912.08 90.87c-54-2-126.05-2.27-190.67-2.46M671.09 341.52c-18.74 1.16-37.53.74-44.05.72M688.27 341.34h-1.17M694.08 341.3h-1.61M700.37 341.3h-2.15M704.57 341.33c45.21.33 145-.52 191.45-.07 17.05-.11 3-15.53 3.26-17.42s24.34-11.9 24.06-20.55c-.5-15.63-1.69-48.24-2.65-78.07M920.15 99.7c-.12 14.53-1.07 50.38-.81 75.69M408.72 335.35c-.45 6.75.06 7.4 27.55 6.47 6-.34 51.7-.1 77-.2M896 341.26c15.39.32 26.93-24.2 27.31-38"/><path fill="none" stroke="#000" stroke-miterlimit="10" stroke-width=".57" d="M926.21 92.53c.65 7-8.53 9.66-12.48 3.82-4.19-5.33.63-13.11 7-10.89"/><path fill="none" stroke="#000" stroke-miterlimit="10" stroke-width=".57" d="M930.13 91.69c-5.82 4.22-13-5.55-7.16-9.81s12.94 5.55 7.16 9.81zM926.1 92.73c-6.79 6.2-14-1.27-5.19-7"/><path d="M922.44 84.67a7.46 7.46 0 005.78 6.44 5.75 5.75 0 01-5.78-6.44zM914 88.91c-1.65 5.69 4.73 11.57 9.85 7.6-4.94 5.03-12.59-1.75-9.85-7.6z"/><path fill="none" stroke="#000" stroke-miterlimit="10" stroke-width=".57" d="M913.09 95.44a1.69 1.69 0 102 2.7M412.54 333c4.57 5.3 12.87.54 11.4-6.35-.94-6.71-9.89-8.64-12.69-2.51"/><path fill="none" stroke="#000" stroke-miterlimit="10" stroke-width=".57" d="M409.22 335.26c7.07-1.27 5-13.19-2.11-12s-4.97 13.22 2.11 12zM412.76 333.08c9.18-.6 8.78-11-1.43-8.58"/><path d="M409.48 324.86a5.75 5.75 0 01.64 8.63 7.44 7.44 0 00-.64-8.63zM418.41 321.68c6.1 2.11 5.68 12.31-1.34 12.37 6.41-.93 6.58-9.62 1.34-12.37z"/><path fill="none" stroke="#000" stroke-miterlimit="10" stroke-width=".57" d="M423.72 325.58a1.69 1.69 0 11.54 3.34"/><path fill="none" stroke="#000" stroke-miterlimit="10" stroke-width=".29" d="M899.6 325.2c-16.7 1-45.52-.85-73.76-.56-20.6.06-57.82.26-74.92.24M904.38 262.16c.93 25.93 2 47.48 2.27 56.92M878.65 105c15.28.5 24.33.91 24.58 1.09.47.33 0 16-.29 38.8M729.05 102.15c30.28.24 61.84.71 87.32 1.23M514.81 325.17c-31 0-79.89-.18-80.8-.54-.71-.28 0-20.43 1.17-48.86M786 147.35c-15.72-.15-41.73-.19-65.41-.21M644.5 101.52c10.93.18 18.68.32 29.66.36M658.63 146.47h-19.7M477.2 240.05c-13.55 0-24.43 0-30.18.08M525.27 240h-27.33M517.46 283.43c-19.88.08-63.4.14-82.61.25M672.7 283.61c-8.64.07-17.13.07-25.83.07M809.48 283.43c-18.63.25-37.22.1-55.83.15M905.11 283h-11"/><path fill="none" stroke="#000" stroke-miterlimit="10" stroke-width=".3" d="M847 308.18c.28 7 .5 12.6.61 16.22M783.76 102.45c0 6.18-.23 32.42-.43 46.79M783.09 254c0 6.18-.23 56.29-.43 70.66M492.5 244.78c-.07 21.32-.24 68.67-.4 80.23M724 120c-.07 9.08-.11 28.09-.07 45.12M657.48 142.8c0 6.19.29 12.33.15 18.44M657.11 101.62a50.61 50.61 0 000 8.26"/><path fill="none" stroke="#000" stroke-miterlimit="10" stroke-width=".57" d="M643.91 89.34c10.64-.15 22.48-.29 32.35-.42"/><path fill="none" stroke="#000" stroke-miterlimit="10" stroke-width=".62" d="M911.91 178.85l43.68-21.51c2.12 4.84 22.74 45.89 25.44 51.46-.08.27-26.8 13.92-35.61 18.29a78.67 78.67 0 01-19.36 6.09c-2.22-2.26-9.57-15.21-12.25-20.74M447.32 238.88c-.28 9.77-3.37 33.39-3.75 37.51-7.13-.84-38.48-1.65-46.07-10.92-7.26-6.8-13.61-14.67-13.68-18.11s3-38.74 3.36-38.82l47.37 4.46"/><path fill="none" stroke="#000" stroke-miterlimit="10" stroke-width=".62" d="M383.83 247.9c2.88 8.5 9.05 4.26 13.74 6 1.24 2.92.31 13.11 5.2 15.36M631.27 39.24c18.25 30.25.93 89.37-35.56 105.22 23.57-21.6 26.52-38.74 24.28-47.14-2 24.48-19 42.4-38.7 51.63 6.64-44.85-24.53-77.72-33.95-80.44 11.74 13.22 5.72 33.77 10.82 42.19-7.23-4-13.32-21.23-13.32-21.23s4.62 24.8 9.83 30.07c-21.47-12.22-32.5-34.11-34.78-51.28-4.17 13.23-1.87 27.06 5.59 38.83-32.23-8.65-52.74-39.6-60.37-60.77"/><path fill="none" stroke="#000" stroke-miterlimit="10" stroke-width=".62" d="M480.37 74.7c43.23 59.77 12.85 96.88 28.36 131.89-9.42-2.72-24-26.91-27.9-40.18.5 13.53 12.94 31.16 16.47 35.36-9.39-4.63-31.08-29.82-36.56-55.39M566.73 213.87c10 7.21 33.76 14 50-7.06"/><path d="M564.05 216.15c-1.32-2.69 1.4-5.45 3.85-6.18-1.9 1.55-4.2 3.44-3.85 6.18zM590.85 235.85a24.1 24.1 0 0017.28-4.47 18.17 18.17 0 01-17.28 4.47zM576.54 204.36c2.25-10 14.52-16 24.11-13.69 5.17 1.21 11.77 6.86 7.79 12.38 3.21-5.46-3-10.28-7.88-11.4-9.33-2.11-20.88 3.44-24.02 12.71z"/><path fill="none" stroke="#000" stroke-miterlimit="10" stroke-width=".62" d="M632.85 173.76c8.56-29.73 18-87.59 4.49-116.61M471.39 172.5c-34.23 8.19-8.83 70.69 28.39 50.15 25.28 28 93 43.15 131.15 7.35"/><path d="M465.8 198.07c5.39-7.46 15.11-4.08 21.05.83 3.21 2.85 9.25 6.13 8.33 11.07-3.19 1.41-4.29 6.64-.24 7.7-4.39-.82-3.44-6.54-.12-8.19l-.13.14c.14-4.54-5.28-7.35-8.33-10.05-5.8-4.79-14.83-8.29-20.56-1.5z"/><path d="M478.27 194.7c-2.58 3.27-2.28 8.29-.54 11.91-2-3.65-2.47-8.8.06-12.31z"/><path fill="none" stroke="#000" stroke-miterlimit="10" stroke-width=".62" d="M518.67 236.83c-9.55 2.69-21.39.57-26.53-2.81 4 6 12.24 10.89 18.77 11.77-52.38 6.85-106.65-63.49-114.67-121.31C373.2 17.11 507.3-41 589.71-9.41 626.5 6 656.16 46.58 661.34 91.07A136.41 136.41 0 00637 55.25"/><path fill="none" stroke="#000" stroke-miterlimit="10" stroke-width=".62" d="M433.49 205.84a39 39 0 01-1.38 24.27 52.09 52.09 0 007.7-9s1.92 14.73-7.08 27.2c13.25-5.29 23.95-19.52 23.95-19.52"/><path fill="none" stroke="#000" stroke-miterlimit="10" stroke-width="1.36" d="M421.6 28.88c-2.3-22.07 40.47-45 57-34.72M394.67 100.45C384.89 84.1 360.24 38.8 376.73 9 404-34.85 457.89-39.36 485.21-8.21"/><path fill="none" stroke="#000" stroke-miterlimit="10" stroke-width=".41" d="M560.85 198.45c-14.85 1.33-27.5-34-11.77-43.56 11.69-7 17.68 2.77 22.9 14.46s2.21 27.78-11.13 29.1zM625.21 182.51c-2.14 3.75-5.31 6.65-9.43 7.18-17.27 2.18-18.08-41.82.07-41.62 9.72 0 14.28 19.69 11.9 27.94"/><path fill="none" stroke="#000" stroke-miterlimit="10" stroke-width=".62" d="M524.63 147.41C519.57 144 545 124 551.24 130.16c3.3 2.36 1.08 4.74-1.74 5.7s-8.69 2.43-13.56 4.83-9.2 7.38-11.31 6.72zM624.71 118c3.32-.33 6.5 1.55 8.82 3.37 5 2.92 5.51-8.53-5.76-8.45M572.92 217.38c7.21 2.45 18.72 11.75 27.44 9.17s7.17-9.23 12.64-15.55"/><path fill="none" stroke="#000" stroke-miterlimit="10" stroke-width=".62" d="M574.22 217.88c13.76 6 19.21-8.67 31.36-5.45 4 1.46 6.55-.15 8.17-2M591.53 226c2.32-2.82 6.8-4.28 9-2.66M599.07 222.78c1.63-1.75 5.54-2.66 7.85-.88"/><path fill="none" stroke="#000" stroke-miterlimit="10" stroke-width=".62" d="M590.46 216.09c2.17 2.16 6.28 1.7 7.78-.58 2.38.72 5.31.36 6.49-3.33"/><path d="M577.32 218.82c3.36 1 9.8.38 13.06-2.86 1.31 2.29 6.74 1.61 7.84-.43 2.79.79 5.63-.31 6.48-3.3 0 0 1.53.51 2.74.81s4.5-.92 4.5-.92c-.63.41-5 9.81-5 9.85-1.13-1.9-7-1-7.76.73-2.08-.61-6.43 1.46-7.65 3.44-3.1-1.28-9.54-4.18-12.41-5.82-.01 0-4.47-1.76-1.8-1.5z"/></g></svg>