<svg xmlns="http://www.w3.org/2000/svg" xmlns:xlink="http://www.w3.org/1999/xlink" viewBox="0 0 1440 360"><defs/><defs><linearGradient id="a" x1="933.19" x2="945.41" y1="131.42" y2="201.01" gradientTransform="matrix(1 0 0 -1 0 362)" gradientUnits="userSpaceOnUse"><stop offset="0" stop-color="#d3bb7f"/><stop offset="1" stop-color="#d3bb7f" stop-opacity="0"/></linearGradient><linearGradient id="k" x1="398.9" x2="429.38" y1="98.57" y2="156.86" xlink:href="#a"/><linearGradient id="b" x1="469.19" x2="598" y1="139.03" y2="231" gradientTransform="matrix(1 0 0 -1 0 362)" gradientUnits="userSpaceOnUse"><stop offset=".35" stop-color="#f2b58d"/><stop offset=".55" stop-color="#efb189"/><stop offset=".75" stop-color="#e5a67c"/><stop offset=".85" stop-color="#de9e74"/></linearGradient><linearGradient id="l" x1="649.87" x2="709.02" y1="216.07" y2="258.3" xlink:href="#b"/><linearGradient id="m" x1="672.15" x2="719.44" y1="20.08" y2="99.31" xlink:href="#b"/><linearGradient id="n" x1="559.69" x2="572.17" y1="94.96" y2="115.87" xlink:href="#b"/><linearGradient id="c" x1="378.44" x2="627.98" y1="302.09" y2="235.52" gradientTransform="matrix(1 0 0 -1 0 362)" gradientUnits="userSpaceOnUse"><stop offset="0" stop-color="#4f3721"/><stop offset=".31" stop-color="#48331d"/><stop offset=".76" stop-color="#362712"/><stop offset="1" stop-color="#291f0a"/></linearGradient><linearGradient id="o" x1="523.16" x2="530.59" y1="231.2" y2="229.22" xlink:href="#c"/><linearGradient id="p" x1="597.43" x2="622.61" y1="256.21" y2="249.49" xlink:href="#c"/><linearGradient id="d" x1="569.49" x2="598.63" y1="88.17" y2="84.33" gradientTransform="matrix(1 0 0 -1 0 362)" gradientUnits="userSpaceOnUse"><stop offset="0" stop-color="#a91f18"/><stop offset=".08" stop-color="#b01f16"/><stop offset=".19" stop-color="#c21e12"/><stop offset=".31" stop-color="#e01c0b"/><stop offset=".68" stop-color="#e01c0b"/><stop offset="1" stop-color="#a91f18"/></linearGradient><linearGradient id="q" x1="570.34" x2="602.49" y1="10.97" y2="6.74" xlink:href="#d"/><linearGradient id="e" x1="546.49" x2="596.18" y1="90.01" y2="11.33" gradientTransform="matrix(1 0 0 -1 0 362)" gradientUnits="userSpaceOnUse"><stop offset="0" stop-color="#293b60"/><stop offset="1" stop-color="#19253a"/></linearGradient><linearGradient id="r" x1="590.93" x2="617.66" y1="52.29" y2="56.61" xlink:href="#e"/><linearGradient id="s" x1="567.33" x2="590.29" y1="93.65" y2="93.65" xlink:href="#e"/><linearGradient id="f" x1="526.01" x2="551.13" y1="100.2" y2="126.95" gradientTransform="matrix(1 0 0 -1 0 362)" gradientUnits="userSpaceOnUse"><stop offset="0" stop-color="#bfad95"/><stop offset=".23" stop-color="#b9a790"/><stop offset=".51" stop-color="#aa9881"/><stop offset=".83" stop-color="#907e6a"/><stop offset=".85" stop-color="#8e7c68"/></linearGradient><linearGradient id="t" x1="617.8" x2="642.82" y1="106.63" y2="133.26" xlink:href="#f"/><linearGradient id="g" x1="567.33" x2="581.07" y1="42.84" y2="57.46" gradientTransform="matrix(1 0 0 -1 0 362)" gradientUnits="userSpaceOnUse"><stop offset="0" stop-color="#8e7c68"/><stop offset=".02" stop-color="#907e6a"/><stop offset=".4" stop-color="#aa9881"/><stop offset=".73" stop-color="#b9a790"/><stop offset="1" stop-color="#bfad95"/></linearGradient><linearGradient id="u" x1="582.6" x2="601.11" y1="39.5" y2="59.2" xlink:href="#g"/><linearGradient id="v" x1="600.05" x2="617.7" y1="40.62" y2="59.41" xlink:href="#g"/><linearGradient id="w" x1="553.88" x2="568.64" y1="48.58" y2="64.3" xlink:href="#g"/><linearGradient id="x" x1="538.69" x2="551.39" y1="58.29" y2="71.81" xlink:href="#g"/><linearGradient id="y" x1="741.58" x2="741.58" y1="102.81" y2="222.42" gradientTransform="matrix(1 0 0 -1 0 362)" gradientUnits="userSpaceOnUse"><stop offset="0" stop-opacity=".3"/><stop offset=".05" stop-color="#252525" stop-opacity=".31"/><stop offset=".12" stop-color="#585858" stop-opacity=".33"/><stop offset=".2" stop-color="#848484" stop-opacity=".35"/><stop offset=".28" stop-color="#aaa" stop-opacity=".37"/><stop offset=".36" stop-color="#c9c9c9" stop-opacity=".4"/><stop offset=".44" stop-color="#e1e1e1" stop-opacity=".42"/><stop offset=".53" stop-color="#f2f2f2" stop-opacity=".44"/><stop offset=".63" stop-color="#fcfcfc" stop-opacity=".47"/><stop offset=".75" stop-color="#fff" stop-opacity=".5"/></linearGradient><linearGradient id="z" x1="791.33" x2="899.77" y1="165.08" y2="165.08" gradientTransform="matrix(1 0 0 -1 0 362)" gradientUnits="userSpaceOnUse"><stop offset="0" stop-opacity=".3"/><stop offset=".11" stop-opacity=".27"/><stop offset="1" stop-opacity="0"/></linearGradient><radialGradient id="A" cx="237.24" cy="460.01" r="1" gradientTransform="matrix(87.05 0 0 -100.35 -19853.97 46357.33)" gradientUnits="userSpaceOnUse"><stop offset="0" stop-opacity=".5"/><stop offset=".11" stop-opacity=".45"/><stop offset="1" stop-opacity="0"/></radialGradient><radialGradient id="h" cx="214.1" cy="438.68" r="1.01" gradientTransform="matrix(7.29 2.34 2.3 -7.15 -2006.99 2805.97)" gradientUnits="userSpaceOnUse"><stop offset=".74" stop-color="#8a6f48"/><stop offset="1" stop-color="#533a18"/></radialGradient><radialGradient id="i" cx="164.58" cy="395.99" r=".99" gradientTransform="matrix(2.5 .8 .79 -2.46 -164.45 1004.63)" gradientUnits="userSpaceOnUse"><stop offset=".75" stop-color="#fff"/><stop offset="1" stop-color="#fff" stop-opacity="0"/></radialGradient><radialGradient id="B" cx="212.03" cy="438.53" r="1.01" gradientTransform="matrix(6.75 2.17 2.28 -7.1 -1823.36 2815.11)" xlink:href="#h"/><radialGradient id="C" cx="158.57" cy="395.56" r=".99" gradientTransform="matrix(2.32 .74 .78 -2.44 -69.86 1000.77)" xlink:href="#i"/><clipPath id="j"><path fill="none" d="M0 0h1440v360H0z"/></clipPath></defs><g clip-path="url(#j)"><path fill="#a2d3ff" d="M-13.17-44.75H1440v431.11H-13.17z"/><g fill="#1e2f81" fill-opacity=".33" opacity=".5"><g opacity=".4"><path d="M1247.47-16.33h27.38v423.22h-27.38zM1238.23-14.73h4.62v423.22h-4.62zM1279.53-15.37h4.62v423.22h-4.62z" opacity=".4" style="isolation:isolate"/></g><g opacity=".6"><path d="M1184.11-16.33h27.37v423.22h-27.37zM1174.87-14.73h4.62v423.22h-4.62zM1216.16-15.37h4.62v423.22h-4.62z" opacity=".6" style="isolation:isolate"/></g><g opacity=".8"><path d="M1120.9-16.33h27.37v423.22h-27.37zM1111.65-14.73h4.63v423.22h-4.63zM1153-15.37h4.62v423.22H1153z" opacity=".8" style="isolation:isolate"/></g><path d="M1057.53-16.33h27.38v423.22h-27.38zM1048.29-14.73h4.62v423.22h-4.62zM1089.59-15.37h4.62v423.22h-4.62z" opacity=".5" style="isolation:isolate"/><g opacity=".2"><path d="M1311.06-16.33h27.38v423.22h-27.38zM1301.82-14.73h4.62v423.22h-4.62zM1343.11-15.37h4.62v423.22h-4.62z" opacity=".2" style="isolation:isolate"/></g><path d="M740.62-16.33H768v423.22h-27.38zM731.38-14.73H736v423.22h-4.62zM772.67-15.37h4.62v423.22h-4.62zM677.25-16.33h27.38v423.22h-27.38zM668-14.73h4.62v423.22H668zM709.31-15.37h4.62v423.22h-4.62zM614-16.33h27.38v423.22H614zM604.8-14.73h4.62v423.22h-4.62zM646.09-15.37h4.63v423.22h-4.63zM550.68-16.33h27.37v423.22h-27.37zM541.44-14.73h4.62v423.22h-4.62zM582.73-15.37h4.62v423.22h-4.62zM994.15-16.33h27.37v423.22h-27.37zM984.9-14.73h4.62v423.22h-4.62zM1026.2-15.37h4.62v423.22h-4.62zM930.78-16.33h27.38v423.22h-27.38zM921.54-14.73h4.62v423.22h-4.62zM962.83-15.37h4.63v423.22h-4.63zM867.57-16.33H895v423.22h-27.43zM858.33-14.73H863v423.22h-4.62zM899.62-15.37h4.62v423.22h-4.62zM804.21-16.33h27.37v423.22h-27.37zM795-14.73h4.62v423.22H795zM836.26-15.37h4.62v423.22h-4.62zM297-16.33h27.37v423.22H297zM287.78-14.73h4.62v423.22h-4.62zM329.07-15.37h4.62v423.22h-4.62z" opacity=".5" style="isolation:isolate"/><g opacity=".8"><path d="M233.65-16.33H261v423.22h-27.35zM224.41-14.73H229v423.22h-4.62zM265.71-15.37h4.62v423.22h-4.62z" opacity=".8" style="isolation:isolate"/></g><g opacity=".6"><path d="M170.44-16.33h27.38v423.22h-27.38zM161.2-14.73h4.62v423.22h-4.62zM202.49-15.37h4.63v423.22h-4.63z" opacity=".6" style="isolation:isolate"/></g><g opacity=".4"><path d="M107.08-16.33h27.37v423.22h-27.37zM97.84-14.73h4.62v423.22h-4.62zM139.13-15.37h4.62v423.22h-4.62z" opacity=".4" style="isolation:isolate"/></g><path d="M487.18-16.33h27.38v423.22h-27.38zM477.94-14.73h4.62v423.22h-4.62zM519.23-15.37h4.62v423.22h-4.62zM424-16.33h27.38v423.22H424zM414.73-14.73h4.62v423.22h-4.62zM456-15.37h4.62v423.22H456zM360.61-16.33H388v423.22h-27.39zM351.36-14.73H356v423.22h-4.62zM392.66-15.37h4.62v423.22h-4.62z" opacity=".5" style="isolation:isolate"/><g opacity=".2"><path d="M43.69-16.33h27.38v423.22H43.69zM34.45-14.73h4.62v423.22h-4.62zM75.74-15.37h4.62v423.22h-4.62z" opacity=".2" style="isolation:isolate"/></g></g><path d="M382.93 207.15s-4.3 31.23-5.25 36.86c-3.79 14.19 12.42 26 27.95 26.78-.21 9.64-2.66 44.34-2.92 49.71a9 9 0 012.3 0c.45-14.1 1.62-36.78 2-50.83a46.13 46.13 0 01-7.48-2.71c-7.72-4-15.54-13.47-19.12-20.29a10.23 10.23 0 01-.33-5.69c.67-8.36 2.14-25.46 2.85-33.83zM402.57 332.11c-1.79 7.24-2.17 10.49 12 10.43 9.56.07 469 1 482.44-.19s21-3.41 21.32-24.43c.82-20-1.41-77.16-1.66-90.12 0 0 1.75 4.58 2.92 5.26s11.1 1.46 30.17-8.18 28.81-15.67 27.93-19.07-27.74-50.9-27.74-50.9l-34.74 17 .29-74.65c-.66-.54-512.31 234.86-512.93 234.85zM409.36 206l-.08 2.41-2.11-.22 2.33-41.68.88.8zM638.11 87.22l.07-.8c74.34-1.33 193.1-.73 268.75 1l-.36 1.31s-98 3.94-177.37 3.36-91.09-4.87-91.09-4.87z" opacity=".2" style="isolation:isolate"/><path fill="#d3d8dd" d="M412 169l-1.75-1.85c0 13.05-.64 28.18-.92 41.26l36.35 3.51c.13-.07-1 3.28-1 3.36l-.49 2.38c-.46 3.52-.45 9-.68 12.6-.8 13.58-2 29.93-4.19 43.36-10.08-.78-22.42-1.95-32.31-3.94-.53 15.75-1.25 35-2 50.8a6.47 6.47 0 012 .88l1.12-1.61 1.66-1.36 1.41-.68 1.89-.25a7.72 7.72 0 015.26 2.87 16.29 16.29 0 011.22 2.39 3.06 3.06 0 011.43.28l.43.44.25.68-.1.73-.54.83-1.07.39a18.12 18.12 0 01-1.21 3.4l-1.33 1.53-1.55.92-1.95.54-1.85-.2c-1.14-.47-2.89-1-3.55-2.19l-.78 1.17a11.78 11.78 0 01-3.07 1.27c0 .54-.1 2.53-.14 3.11a3.71 3.71 0 00.68 1.56c.31.23 1.91.92 2.29 1.12l3.16.68c3.09.15 9.47.37 12.51.34 26.5-1.24 59-.3 85.54-.68a226.75 226.75 0 016.52-40.49 30.94 30.94 0 01-2.87-5.54 17.35 17.35 0 01-.53-5.7c1.18-5.55 2.33-13.09 5.15-18.1l-.48-.1a57.83 57.83 0 01-2.14-12.55l.29-3.11.82-2.44 1.9-2.53c5.65-5 12.91-9.44 20.39-10.85A174.72 174.72 0 01514.56 227a56.8 56.8 0 01-11 5.94 34.63 34.63 0 01-7.25.73c-5.56-.11-12-2.89-17-5.21a36.79 36.79 0 01-7.59-6.71c-1.5-2.43-3.67-5.8-4.33-8.62-2.3-.52-5.92-3.14-7.83-4.47-3.39-2.59-10.39-7.89-13.82-10.46C434.61 189 422 179.4 412 169zM638.16 87.22l9.19-.19 1.47 3.4a7.84 7.84 0 00.68-3.4c5.4 0 16.66-.09 22-.3A68.5 68.5 0 00670 96.9a94.84 94.84 0 00-1.17 10.37l-.68 7.25a107.14 107.14 0 00.64 11.48 129.2 129.2 0 01-8.42-10.75l-2.24-3-3-2.77-3.11-2-2.78-.92-2.67-.29-2.78.33-2.33.88-2.09 1.56-1.22 2-.34 1.9a9.22 9.22 0 00.87 4.48 16.61 16.61 0 002.83 2.92c1.3 1.26 3.73 4 4.86 5.45l2.83 5.21c.47 1.09 1.35 3.35 1.76 4.47.42 3 2.43 6.36 3.5 9.2.84 3.53 1.83 7.94 3.8 11.05a83.6 83.6 0 003.69 4.52 28.16 28.16 0 00-4.86.68l-2.83 1.08a6.92 6.92 0 00-.68-2.63l-.92-.77-2-.64a61.8 61.8 0 00-6.22.78 10 10 0 00-2.58.88 6.91 6.91 0 00-1.22 1.85c-.2 1.05.12 7.32.15 8.51a22.32 22.32 0 01-2.39 1.22c0-.14-11.46.25-11.87.24l-2.14 1.27a28.25 28.25 0 00-4.33-4.48c2-3.79 3.88-11.13 5-15.28a164.33 164.33 0 004-33.28l2-3.6 2.23-5.94a119.13 119.13 0 004.87-22.91z"/><path fill="#d3d8dd" d="M642.82 169.37c0-.46-.43-7.13-.08-7.37l.81-.77c.45-.34 6.4-.85 7.08-.94l.84.14.54.69.08 1.68c-.84.43-3.57 1.78-4.31 2.27l-.22.36a5.71 5.71 0 00.62 2.3l2.05.69c-1.99.31-5.47.35-7.41.95zM626 289.82a39.53 39.53 0 01-.8-10.63l.41 1.07.61.19.24.56.66.54-.29 1.14.1 1.1a4.13 4.13 0 001.38 2 4.53 4.53 0 00.85 2.83l.64.34.29 1.7zM619.93 226.12a93.83 93.83 0 003.44-6.4l1.21 3.77a81.62 81.62 0 01-4.65 2.63zM622.29 337.41l.07 1.92c12.29.13 31.69-.08 43.92-.72l.05-1.08s-1.12 1.12-2 .54-2-1.23-2-2.34a16 16 0 01.58-3c-2 1.09-2 4.77-10.07 5.84-6.51.48-10.94-1-16.09-1.11s-14.46-.05-14.46-.05zM667.41 323.2c2.15-.48 4.49.35 4.27 2.12a2.33 2.33 0 012.78 2.19 2.6 2.6 0 013.26 2.09c1-1 2.72-.35 3.49.42.75-1.22 3.07-.86 3.9-.23.07-1.09 2.71-1.06 3.11-.91.54-1.08 2.79-1.57 3.72-1.37.34-1.86 2-2 3.35-2.12-.33-1.53 1.26-2.54 2.34-2.85l-.12-.67c-4.92.64-12.61.43-17.21-2.47-2.99.86-10 2.9-12.89 3.8zM682.24 338.44l.43-3.16 1-3c0 1.49-.13 4.63-.23 6.13zM687.6 338.41a55.78 55.78 0 01.39-7c.25 2 1 4.95 1.21 6.95zM693.58 338.53l-1.52-4.65a26.13 26.13 0 010-4.15c1 2.36 2.22 6.39 3.42 8.66z"/><path fill="#d3d8dd" d="M702.29 338.46h-2.63c.15-1.79-3.69-6.51-3.78-8.76-.28-1.67-.51-3.29-.51-3.29 0 .94 5.45 9.86 7.47 9.7 2.48 0 2.85-1.53 1.28-3.36-1.2-.47-5.69-7.61-5.66-8.5a25.84 25.84 0 004.82 5.22c2.25 1.56 3.58 2.44 4.19 2.29 1.91-.32 2.77-2.08.81-3.64-2.11-1.13-5.1-3.7-5.93-5.25a39.27 39.27 0 006.71 3.65c1.75.69 2.13-.36 2.56-.73a1.54 1.54 0 00-.57-2.64 53 53 0 01-5.24-2.83l1.66-.34a19.89 19.89 0 005 1.14c1.46.21 1.88-1.18 1.75-2.22l3.63 7.08 2.32 5.24s2.17 4.71 4.1 5.7c5.4 1.89 15.67-5.6 19.18-10.29a33.51 33.51 0 003.87-8.13 4.61 4.61 0 00-1.42-4.48 26.66 26.66 0 01-5-5c1.66-.84 6-6.39 5.75-9.11-.1-4.73-.41-8.16-3.94-10.25 3.19-.46 6.55-8.14 5.89-11 .21-4-4.51-6.25-6.55-7.3l.92-1.21c1.88-1.33 4.91-9.95 4-12.76-.56-2-4.55-5.22-6.06-5.66a7.36 7.36 0 00-.65-4 35.05 35.05 0 00-4.29-5.77c16.53-.58 42.9 7.68 56 17.59 9.63 25.33 36.22 53.89 67.87 44.75 35.33-12.35 47.09-61.92 48.52-94.2a586.22 586.22 0 007.08 13c-.58.77.21 10.06.26 16.1.66 17.76 1 30.49 1.62 46.76-.24 6 1.34 13.41-.09 20.18a55 55 0 01-12.85 25.61c-4.48 4.77-8.18 6.7-13.38 6.69-16.22-.08-34.26 0-46.67.08-18.75-.12-77.34-.52-95.23-.25-11.18.3-35.71.73-46.81.19zM645.8 251.19c1.15-1.34 4.38-5.1 5.52-6.34 1.77 0 5.4.1 7.18.18l7-.54c3.92 7.55 8.4 16.34 15 21.92-1.51 2.62-4.54 6.88-6.22 9.37-6 5.09-13.61 10.39-19.66 15.33l-1.17-1.17-1.61-.73-1.89-.09-2.36.48a7.94 7.94 0 00-1-1c.71-.85-2.21-3.13-2.58-2.85.45-.73-1-2.37-1.61-2.36a5.67 5.67 0 00-.47-2.16 8.28 8.28 0 00-1.59-1.59c.79-1.28-.73-2.63-1.41-3.28a4.84 4.84 0 00-2.73-5.82 5.45 5.45 0 000-1.51l-1-1.11c.43-1.54 3.3-7.19 4-8.71.8-1.7 5.28-6.53 6.6-8.02zM704.63 163.33l-4.28.38c5.13-1.76 12.68-6.83 14.42-15.41 1.32-5 3.09-24 3.66-27.5l1.34-7c1.22-4.46 4.1-12.6 4.81-17.09l.07-1.77-.78-2.66-1-1.46-1.75-1.35-1.86-.69a8.41 8.41 0 00-4 .29 23.09 23.09 0 011.23-2.88c62.52.18 127.59.33 190.11 2.45a10.33 10.33 0 00.24 2.6l.78 1.95-.78 1.54.4 1 .93.6a4.54 4.54 0 001.48-.4c.56.21 1.77.77 2.32 1a17.3 17.3 0 002.69.53c-.38 22.36-1.14 53.18-.81 75.46l-7.42 3.46s-.42-6.74-4.47-20.42-13.17-32.5-13.17-32.5S881 109.73 871 100.7c-12.58-11.24-28.46-14.09-38.23-11.7l-5.62 1.75c-2.76 1.4-9 4.72-11.35 6.61A71.94 71.94 0 00802 111c-2.09 2.51-6 9.14-7.62 12a99.6 99.6 0 00-7.45 17c-17.56 16.06-40.38 23.9-63.07 24.31-1.49-3-18.73-1.37-19.24-1z"/><path fill="#ede2a2" d="M904.67 177.37c14.12-7.25 31.09-15.31 45.29-22.41 7.61 15.89 17.59 35.55 25.37 51.31-7.11 3.88-21.31 11.06-28.42 14.69a199.8 199.8 0 01-11.46 5.47 89.23 89.23 0 01-14.94 4.15c-4.63-6-8.75-13.76-12.15-20.55a156.42 156.42 0 00-.92-25.51zM380.3 237c.76-8.82 1.69-22.18 2.9-30.93 19.31 1.85 43.13 4 62.46 5.92a34.25 34.25 0 00-1.8 8.93c-.17 4.45-.65 13.58-.65 13.58a384.91 384.91 0 01-3.93 39.19s-24.38-2.48-28.17-2.92c-11.4-1.61-19.84-9-25.49-16.18-1.83-2.5-5.39-6.62-5.77-9.81z"/><path fill="url(#a)" d="M904.67 177.37c14.12-7.25 31.09-15.31 45.29-22.41 7.61 15.89 17.59 35.55 25.37 51.31-7.11 3.88-21.31 11.06-28.42 14.69a199.8 199.8 0 01-11.46 5.47 89.23 89.23 0 01-14.94 4.15c-4.63-6-8.75-13.76-12.15-20.55a156.42 156.42 0 00-.92-25.51z"/><path fill="url(#k)" d="M380.3 237c.76-8.82 1.69-22.18 2.9-30.93 19.31 1.85 43.13 4 62.46 5.92a34.25 34.25 0 00-1.8 8.93c-.17 4.45-.65 13.58-.65 13.58a384.91 384.91 0 01-3.93 39.19s-24.38-2.48-28.17-2.92c-11.4-1.61-19.84-9-25.49-16.18-1.83-2.5-5.39-6.62-5.77-9.81z"/><path fill="#c4ae70" d="M380.91 247.88c3.35 4.44 8.5 2.2 12.24 3.21l.6.52c.64 2.51.58 5.65 1 8.2a14.1 14.1 0 002.89 6.11c-3.36-2-7.27-6.19-10-9a76.16 76.16 0 01-6.73-9.04z"/><path fill="#f44040" d="M908.07 85.36c-2.79 2.15-1.25 9.83 3.35 11.42 3.21 1.5 5.66 0 7-.76 2.06-1.8 2-3.92 2.37-5.44 11.59-.57 3.89-17.64-4.49-9.89a9.76 9.76 0 00-.91 2.55 24.15 24.15 0 00-3.54-.29 7.86 7.86 0 00-3.78 2.41zM399.14 323.76c.85-3.1 5.59-4.71 8-2.29 3.05-6.46 12.12-5 12.8 3.6 0 7.6-7.94 9.38-11.34 5.16-4.3 5.55-12.29-.5-9.46-6.47z"/><path fill="#d3d8dd" d="M907.55 93.17c-2.15 1.21.61 4.52 2.27 2.59l-1.61-1.49zM419.65 322.73l1 .14.84.62a4.08 4.08 0 01.19 1.43l-.44.69-1.17.51a7.64 7.64 0 00-.42-3.39z"/><path d="M398.8 325.56c-.24 3.37 5.79 8.41 8 3.89.78-1.55.05.83.68.63a6.18 6.18 0 002-2 20.59 20.59 0 00.1-2.87c.3 5.1 4.13 2.19 5.55.54.24-.83 1.31 4.37-1 5.15a7.1 7.1 0 003.35-2.28c-1.24 2.29.67 1.95 1.37.78-2 3.31-7.56 4.17-10.17.82-3.63 5.07-11.05.76-9.93-4.82zM915.52 85.81s-4.67 4.09-3.5 5.69c1.6 2.35 5.16 4.49 2 5.94 2.68-.08 7.06-1.93 5.16-5.94l1.41-1.21 1.66.09 1.6-.48 1.66-1.27a22 22 0 001.21-2.92c-2.84 4.53-8.6 3.32-9.83-2 0 0-.24-.83-.87-.44-.9.94-.53 1.8-.5 2.54zM906.76 94.67c.44.77 1.76 0 1.76 0l1.16 1.12c-1.19.8-2.68.65-2.92-1.12zM419.94 324.44s1.53.29 1.64-.11.4.4-.22 1a2 2 0 01-1.24.58 22.7 22.7 0 00-.18-1.47z" opacity=".25" style="isolation:isolate"/><path d="M894.55 322.69s-1.8.34-1.27 1.26 9.79 10.27 3 13.39c6.57-2.98-.93-12.55-1.73-14.65zM915.23 225.17s-5.69-10.46-7.06-13.57c.2-1.32.2-1.56.83-.39 2.08 4 4.28 8.51 6.18 11.58zM914.6 98.07c-.25 2.29-2.53 3.41-4.87 1.71a8.52 8.52 0 01-2.87-4.92c-.15 1.75 2.22 1.62 2.73.73.53 1 4.1 1.86 5.06 1.7zM404.73 333.3c1.9 0 3.75-1.85 3.75-1.85.95 2.67 10.65 2.67 11.92-.78 1.41-2.14 1.32-6.42 1.32-6.42a2.06 2.06 0 01-.83 1.46l-.78.53c-1.62 5.29-6.41 8.4-11.63 3.94-.83.92-2.12 2.18-3.45 2.09-.03.15-.27.9-.3 1.03zM407 270.82c2.19.8 31.6 4.48 33.82 3.94 1.56-.49 1.36-11.73 2.14-23.21 1.24-16.43 1.48-28 2.39-38.4a27.55 27.55 0 00-1.41 6.52c-.72 13.75-.59 21.82-2.34 35.14-1.17 7.11-1.39 13.35-2.09 18.68-8.21-.64-24.28-2.09-32.46-3.79z" opacity=".15" style="isolation:isolate"/><path d="M637.63 14c1 .16 7.88 16.62 8.49 17.79a133.24 133.24 0 016 25c1.93 13.82.15 21.29.15 21.29s-1.42-3.6-4.47-11a71.83 71.83 0 00-6.91-12.86c2.53 15.28-2.21 40.91-9.46 54.39.7 7.53-3.81 42.45-9.45 50.28 2 1.11 4.52 4.72 4.52 4.72a11.35 11.35 0 012-1.11c.76-.26 12.45-.56 12.45-.56l2.8-1.17s-.06-1-.36-5 .56-5.29 1.68-6 5.89-1.68 9.1-1.48 3.4 4.12 3.4 4.12a16.62 16.62 0 013.66-1.42c1.32-.21 5.29-.15 4.68-.54s-5.64-6.78-6.64-10.75-1.6-7.09-3.05-9.37-1.22-2.67-2.44-7.63-5.1-10.14-8.08-12.66c-5.84-3.91-7.44-12.24-.3-15.09 3.28-1.07 11.43-.16 14.18 3.12s11.44 14.64 12.43 15.78.45.16.45-7.32 2.22-24.78 3.44-33.16c1.29-12.92 7.39-21.24 17.23-16.93 5.4-6.13 15.89-8.34 18 3.51 0 2.21.38 1.14.38 1.14 13.29-6.75 14.55 8 9.92 15.33 2.8-1 9.21-1.41 9.68 5.18.53 4.65-2.14 10.22-4.58 19.6-5.09 18 .45 47-20.35 52.76 1.25-.46 21.42-3.11 24.47.84 20.84.14 50.94-10.9 65.8-25.47 4.25-16.32 21.8-46.26 44.08-52.61 47.32-13.69 75.25 54.39 80.21 88 5.7 38.28 5.01 85.02-25.84 121.28-40.06 40.37-81.79-.71-93.33-32.1-11-7.47-30.39-15.48-44.57-17.19a104.76 104.76 0 00-13.65-1c-.8.11 1 .49 3.17 4.08s1.79 5.22 1.75 5.9.53.58 1.18.77 4.35 3.77 5.11 5.07.84 3.24-.69 7.39a20.1 20.1 0 01-4.27 7.28c4.2 4.14 9.52 2.71 5.68 13.62-1.48 4.07-4.15 5.52-4.72 5.64s.46.61 1.33 1.41 1.41.88 1.91 3.32c2 5.45-.75 11.84-4.58 15-.87 1.07-.42 1.15.23 2.1 2.79 3.3 7.95 4.22 4.73 10.91-2.43 7.67-15.29 19.13-23.45 16.54-2.21-1.18-3.35-4.38-5.14-8.39s-5-10.37-5-10.37c.9 5.44-8.49.31-10.1-.53-1.22-.65-1.37-.42-.31.76s4 2.79 6.1 3.89 2.72 1.9 1.72 3.49c-1.37 3.49-10.66-4.64-8.66-1.79 1.34 1.79 4.39 3.09 5.53 4.42a2 2 0 01-1.52 3.32c-1.61 0-4.77-2.37-6.33-4-3.6-4.46-3.15-2.77-.38 1.48 1.45 2.18 4.34 4.27 4.34 5.26s-1 2.33-2.21 2.1-4-3.39-5.6-5.68-2-3.39-2-2.67 1.19 4.12 2.25 6.44 2.33 2.94 1.95 4.39a2.33 2.33 0 01-2.94 1.41c-1.54-.07-4.46-9.63-5.07-10.26-.38 0-.19 2.83.42 5.3.82 3.78 3.92 7.1-.72 7.67-3.2-.39-3.15-9.25-3.78-10.91-.26-.8-.53 1.61-.57 4.43-.46 3.64 1.88 8.44-2.71 7.62-2.53-.43-1.43-10-1.33-11s-.92 1.3-1.22 2.9c-.68 2.92.5 4.77-1.11 7.28-.8 1.14-1.94 1.6-2.86 1-1.24-.62-1-4.8-1.29-5.68a18.51 18.51 0 01-2 3.81c-2.49 2.57-4.63-.45-4-2.9.12-.87 0-.53-.42 0-1.15 1.8-3.65 2.59-5-.07-.76-1.49-.19-1.83-.19-1.83-4 2.24-5.84-2.55-3.54-5.84.6-1.22-.46.38-1.89 2.42s-2.44 2-6.09 3.66-6.21 1.62-12.71 0-21.66-.51-21.66-.51-.61 10.88-1.63 28.15-2.06 15.41-2.06 15.41l-103 3.86-6.91-9.14c-10.61-16.23-4.09-61.18 1.93-78.59-3.45-4.47-4.06-7.53-4.06-9.66s1.52-15.56 5.28-21.45c-.81-4.17-4.06-13.93-2-18.3s9-10.17 23.69-15c-8.85-1.93-23.69-10.67-23.69-10.67-13.7 12.49-41.27 7.62-49.51-14-47.49-32-115-83.41-80.42-153.41-8.84 6.71-17.18 18.91-17.18 18.91s-.51-6.81 12.1-26.23a132.89 132.89 0 0127.65-30.81 77.64 77.64 0 00-25.11 6.71C391.61 10.49 411.84.12 411.84.12zm-10.82 202.56s-1-4.32-1.78-2.89-2.8 5.38-2.8 5.38zm22.67 28.22l-6.48 7.16a110.33 110.33 0 00-5.23 11c1.17.66 1.06 2.65 1.06 2.65 2.8.47 3.31 4.71 3 6.3 0 0 2.34 1.27 1.37 3.35a3.47 3.47 0 012 4c.76.3 2.44.61 1.93 2.44 1 .25 3 1.78 2.49 3a2.88 2.88 0 011.07.91c2.29-1.06 6.17-.23 7.62 1.63 0 0 12.91-10.37 16.83-13.17s3.91-3.15 5.23-5.18 4.68-7.42 4.68-7.42a66.69 66.69 0 01-8.54-10.52 83.11 83.11 0 01-7-12.36 56.52 56.52 0 01-6.41.46 51.64 51.64 0 01-8.49-.15zm-16.78 41.8c-.35-.05-.35-1.6-.35-1.6s-1.48-.53-1.5-3.33c-2.39-1-1.32-4.42-1.32-4.42s-.92-.05-.94-1.3a1.34 1.34 0 01-.92-.5 25 25 0 00-.08 3.89 43.36 43.36 0 00.84 6.63s3.46.53 4.27.63zm39.42 33.83c.89-.05 4.32.42 3.92 2.49 1.13-.92 3.23 1.15 3.05 2.14.83-.34 3.65.7 3.25 2.19.68-.27 3-.7 3.51.53.63-.7 3.22-1.36 4.09-.28 0-.52 3.2-1.67 3.58-.74.05-1 3-2.07 3.69-1.52.24-1.51 2-2.35 3.38-2.21a2.75 2.75 0 012.64-2.95l-.15-.71c-1.81.78-14.81-.28-16.75-2.06l-1-.59c-3.28.93-9.92 2.8-13.21 3.71z" opacity=".15" style="isolation:isolate"/><path fill="url(#b)" d="M475.88 226c-4.33-2.21-11.33-15.54-8.71-21.85 2.87-7.49 6.73-11.47 14.16-13.82 8.92-1.89 22.09 6.77 27.59 11.78 1.56 0 7 2.57 10.31 5.55-4-10-8.87-17.68-12.75-29.59-4-14.16-4.81-25.21-14.55-35.66 1.75.48 10.26 8.28 13.14 11.83-4.22-10.38-15.19-30.74-22.62-38.75a95.32 95.32 0 008.85 6.13 51.94 51.94 0 008.29 3.93c-3.95-6-12.81-21.9-15.35-29 7.68 13.84 25.41 25 40.2 31-.44 1.56-2.14 3.79-.73 6.47a2.54 2.54 0 004.09.15c2-2.13 2.92-2.94 3.84-4a107.58 107.58 0 0020.1 4.19c7 .63 20.62.23 25.45-1.8l1.7.48c-.33 0 16.3 3.66 17.27 3-3.79 1.89-6.44 8.35-5.64 14.26 1 9.85 2.82 25.52 15.47 24.43 16.75-3 8.66-41.81-5.79-40-4.79-7-4.54-19.65-2.62-27.34a45.56 45.56 0 017.49 2.48c3.11 1.46 10.95 5.89 12.21 6.37 3 1.58 7.47-.35 5.89-4-.58-1-5-4.71-9.73-6.95s-13-3.51-14.79-3.17c1.71-8.05 3.42-27 1.21-35.08 4.49 10.29 7.27 22.89 8.42 34 4.91-5.38 7.55-22.07 7.93-27.73 3.94 4.33 6.68 29.84 6.82 35.28 1.12-1.42 3.79-10.57 4.42-12.41 3.59 21 1.33 52.53-7.49 72.11a25.7 25.7 0 014.23 4.43c-.59 1.06-4.39 2.17-3.89 4.33.34 3.76 1.54 13.61 1.9 17.33-1.72 5.65-1.15 19.92 1.16 25.44-6 13.44-20.32 28.81-39 27.74-23.38-.24-51.15-10.74-69.73-20.53 0 0-6.62 5.79-14.84 6.61a37.42 37.42 0 01-23.91-7.64z"/><path fill="url(#l)" d="M637.77 115.44c-1.51-8.1 8.78-11.78 16.35-6.71 4.43 2.82 7.25 8 7.25 8 1.7 2.37 5.37 6.95 7.3 9.15-1.55-6.61 1.57-37.73 3.94-44.58 1.41-3.94 3.06-9.19 5.94-10.75 4.38-2.11 6.52-1.84 9.34-.2l.34-.14c4.65-7.62 17.48-6.1 17 4.57.83-.58 4.48-2.14 7-1.8s6 3.41 5.6 7.4a35.63 35.63 0 01-2.53 8.71l1.21-.44s4.19-.24 6.38 2.19 2.38 5.26.87 10-3.65 11.64-4.33 14.51c-3.31 12.06-.27 32.58-9.78 42.38-7.5 7-10.6 6.12-17.18 6.57-2.82.27-12.52 1.29-15.23 1.46l-.19-1-2 .25-.34-1.56.54-.24a6.2 6.2 0 00.83-3.07l-.44-.14h-6.38l-3.11.34-.44-.59-3.65.44c-1.77-1.49-6.52-8.45-6.57-11.58-.75-4.7-3.29-8.84-4.43-13a42.68 42.68 0 00-4.47-9.44c-3.09-5.39-7.44-6.11-8.82-10.73z"/><path fill="url(#m)" d="M648.67 297.77a35.16 35.16 0 011.36-3.55c.64 0 4.06-2.72 4.62-3.11 2.94-2.44 9-7.11 12.12-9.3l6.81-5.3a9.16 9.16 0 001.95-2.38c1.9-3.32 3.4-5.28 5-7.69.49.24 1.84.9 2.34 1.07l.73-.1.34.49.73.09a5.73 5.73 0 00-.44 1.22 6 6 0 00.49 1.9l.73.53a5.61 5.61 0 01.92.34c-1.09 1.85.06 3.32 2.09 3.12l-.39.53a2.74 2.74 0 002.39 3.22 2.45 2.45 0 001.85 3.55l.29.44c-.32 1.1.73 3.49 2.48 2.87.29-.1-.44.63-.44.63-.19 1.05.57 2.81 2 2.87l-.2.73.44 1.31.63.78a6.66 6.66 0 001 .39 4.25 4.25 0 00.53 2.63l.93.58 1.12.25-.88 1.26.1 1.46 1.36 1.66-.34.29-.39 1.85.25 1a6.15 6.15 0 001 .88c-.09.2-.52.91-.64 1.11v1.07l.38 1.07.54.59c-1.2 1.14-1.53 2.71-.29 4a9.13 9.13 0 00-1 1.17l-.15.87a6.68 6.68 0 00.53 1.75l-.24.25a1.69 1.69 0 00-1.7 2.38 7.17 7.17 0 01.24 1.27 2 2 0 00-2.09 2l-.34.1s-8.52.39-11.29-.24a17.6 17.6 0 01-5.45-2.29s-25.84 7.25-29.54 7.49c-2.72-9.33-2.16-12.37-3.11-19.9-.27.26.04-8.6.63-9.2zm51.48-48a9.3 9.3 0 00-6 5.65l.58 1.87v.76l-.36.77c1.38.24 2.64 2.64 1.75 3.83a3.14 3.14 0 011.64 4 2.21 2.21 0 011.39 3.72s1.5-.4 1.86.8.91 1.61.51 2.12 0 .37 0 .37c1.92-.3 2.9 1.61 2.19 3.21l-1 .69a2.58 2.58 0 013.51 2.92l-.59.73c2.68-.17 3.64 1.94 2.85 4.31 1.39-.36 2.51 1.16 1.68 2.81s-1.41 1.32-2.63 2h1.39s2.59-.4 3.1.47c1.17 2.26 0 3.41-1.53 4.2 1.25 0 2-.49 3.28.91 2.11 2.93-4.44 4-5.11 3.87l3 .44s3 .22 3.18 1.2.15 2.37-2 2.89a41.47 41.47 0 01-7 .43 47 47 0 007.84.84 3 3 0 011.65.81c.43.62.8 2.95-.95 3.35-4 .48-6-.17-8.8-.4 0 0 4.56 1.53 4.67 1.53s4.38.84 5 1.65c1.77 6.36-9.61 1.14-11.35.69l5.44 2.81c.64.31 4.09 1.6 4.45 2.23 3.77-1 15.78-8.82 19.08-12.12 2.83-2.68 3.61-4.35 4.82-4.93l.15.29 1.38 4.13 1.83 3.54c.94-1.53 4.32-3 5.44-8.25.51-4-.59-8.65-1.21-9.16s-2.59-2.23-2.59-2.23c3.92-.3 7.35-9.58 5.51-13.46-1.28-2.7-6-4.75-6-4.75l2.22-3.32c.72-1.44 4.66-9.5 1.72-12-1.64-1.86-3.54-3.91-4.24-3.91a1.08 1.08 0 01-.94-.4c.67-2.86-2.7-7.76-5.19-9.74h-8.86l-.37.8s-1.53.95-6.82 1.75c-6.56.79-7.73 0-9.42-.36l-.07.33c-2.66 1.92-7.17 3.89-10.08 5.35z"/><path fill="url(#n)" d="M550.76 241.72l-1.85-.59c1.65 2.3 4.91 11.15 4.73 14.5a57.34 57.34 0 004.86 6c2 2.06 7.38 6.78 8.76 9.24 1.81.46 6.17 2.6 11.87 1.95 8.49-1.07 10.14-16.45 5-20.24l3.5-5.31a99.3 99.3 0 01-23.5-2 444.42 444.42 0 01-13.37-3.55z"/><path fill="url(#c)" d="M378.12 74a70.94 70.94 0 00-3.21 8.62c.88-.64 3.76-4.62 4.47-5.55a93.16 93.16 0 017.93-8.07 19.8 19.8 0 013.22-2.58c-.27 1-2.15 4.79-2.58 5.84a112.47 112.47 0 00-4.38 14 82.82 82.82 0 00-1.71 23.6c.25 4.74 1.9 11.16 3 15.76a117 117 0 005.74 14.31c9.46 18.39 24.88 33.76 40.88 46.57 5.47 4.42 12.94 10.57 18.54 14.84 4.9 3.73 11.14 9.06 16.74 11.68h.68c-3.92-9.71 6.48-23.3 17.32-23 6.12-.33 20.44 8.21 23.75 11.73a28.69 28.69 0 016.32 2.73l2.1 1.36a12.49 12.49 0 002.38 1.65c-1.15-1.88-6.41-13.77-7.45-16.06l-3.55-8c-.84-1.92-2.65-8.29-3.26-10.41-2-7.37-4.08-17-7.83-23.7a85.43 85.43 0 00-4.87-6.47c3.28 1.61 6.52 4.9 9.05 7.49.63.73 2.29 2.77 3.21 3.12a195.75 195.75 0 00-11.58-23.07 196.37 196.37 0 00-6.42-9.63c-.32-.45-2.85-3.33-2.77-3.94a35.52 35.52 0 013.69 2.53c1 .6 3.48 2.08 4.43 2.67 2.06 1 5 3 7.3 3.27a222.31 222.31 0 01-11.63-21.12 48.46 48.46 0 01-3-7.06 70 70 0 008.71 11.19c6.32 6.17 14.81 11.43 22.67 15.38a129.07 129.07 0 0020.19 7.78c13.31 3.32 28 4.4 41.46 1.12 2.9.91 7 1.66 9.88 2.44a125.82 125.82 0 0013.67 1.07 32.85 32.85 0 01-4.52-10.22l-.54-4.53.1-4.91c.17-1.86.63-5.75 1-7.54.36-.81 1.47-7.92 1.66-9 1.95-11.27 3.29-23.69.24-34.89a120.07 120.07 0 019 35.87c1.84-1.7 3.42-6.13 4.32-8.42A65.38 65.38 0 00615 82.4a66.25 66.25 0 001.16-9.29l1.51 2.63 1.8 6.23c2.09 8 3 18.32 3.7 26.52 1.4-3.36 3.27-8.85 4.33-12.31a127 127 0 011.66 23.55c7.45-15.11 11.17-35.16 8.71-51.87 1.78 1.86 3.81 6 5 8.32 2 4.37 4.45 10 6.08 14.5 1-3.52.74-9.07.59-12.7-.36-8.58-2.61-18.72-5.16-26.91C642 44 639 34.75 634.17 28.93c5.3 3.11 11.94 6.91 17.13 10.22-3.06-7.14-8.81-15-13.58-21.12A177.42 177.42 0 00612.9-7.08l-176.06-10.8c-2.42 3.16-7.64 10.21-9.67 13.53-1.28 2.26-3.87 7-5 9.35-1.34 3.33-3.17 7.41-3.17 11.06a169.11 169.11 0 00-30.66 20.14 95.53 95.53 0 0123.46-6.28c-.68.71-7 6.14-7.92 6.94a289.65 289.65 0 00-10.62 11.82C389 53.92 380.23 68.06 378.12 74z"/><path fill="url(#o)" d="M523.25 133.18a8.5 8.5 0 01.09-2.75c.32-.92 1.17-2.89 1.17-2.89 1.45.51 5.76 2 7.13 2.55-1.3 1.38-3.52 3.69-4.87 5l-1.43-.09-1.53-.78z"/><path fill="url(#p)" d="M602.17 108.51a25.3 25.3 0 00-4.43-1.07l1-5.43 4.65.34 5.91 1.44 5.36 2c2.74 1.62 7 4.09 8.71 6.9v1.46l-.54 1.29-1.29 1.07-2.07.3c-2.64-.6-6-2.73-8.39-4-1.75-.87-7.18-3.73-8.91-4.3z"/><path fill="#fff" d="M537.92 164.45c-1.52-30.46 29.35-19.87 30.7 9.44.24 4.86-1.8 16.15-9.68 16.44-11.58.5-20.49-15.66-21.02-25.88zM590.33 149.36c-.1-3.38.92-11.14 5.74-13.38a34 34 0 005.15.24 7.46 7.46 0 01-.82-1.56c9-1.46 14.16 14.39 14.84 21.51 3.21 15.15-14.13 28-21.75 9.25a64.73 64.73 0 01-3.16-16.06zM570.7 216.67c-1-.19-3.37-.54-4.41-.69l.51.58c1.09.55 4.28 1.93 5.43 2.48l3.76.73a48.34 48.34 0 0027-5.25c7.05-3.59 7.35-5.34 10-10.44a17.75 17.75 0 001.64-3l-.4-.15c-11.51 12.63-26.93 17.07-43.53 15.74z"/><path fill="#f44040" d="M584.78 226.05c2.21-3.29 3.58-4.69 7.93-3.89l.29.34c1.07-3 6.67-2.16 8.08-.88l2.33 2.29c-3.22 9.09-12.41 5.69-18.63 2.14z"/><path fill="url(#d)" d="M571.05 280.45l-.24-1.41c3 .49 6.12.93 8.91.41.47-.12 1.44-.32 1.92-.41a26.84 26.84 0 003.19-1.44c4.08-2.71 5.57-8 5.37-12.72 2.28 5.9 3.57 13.81 4.33 20.07a14.78 14.78 0 00-2.87-.92c-.61 0-2 0-2.63.07-.3.36-1 1.07-1.31 1.41a50.64 50.64 0 00-8-1.53c-.84 0-2.51 0-3.19.58l-.41 1.54-1.66.07-.31-.71a13.19 13.19 0 00-2-1.63c-.15-.57-.89-2.78-1.1-3.38z"/><path fill="url(#q)" d="M573.22 368.67c.46-9.38 1.59-22.78 1.24-32.11 6.26.59 16.83.79 23.21.8.41.62-.08 9.94-.07 10.88l-.29 20.07z"/><path fill="url(#e)" d="M533 253.15c4.68-2.43 12.17-4.81 16.31-2.82s3.89 5 5.45 6.81l4.13 4.77c2.58 2.73 6.26 5.79 8.37 8.91a29.86 29.86 0 013.41 7.88 64.38 64.38 0 011.55 5 10.92 10.92 0 012.29 2.51l.54-.27 1.12.2.09-1.12a4.54 4.54 0 011.71-1.12 32.49 32.49 0 019.53 1.75l.54-.78c1.42-1 3.56-.83 5.21-.68a3.79 3.79 0 001.33.8l.37.66c4.35 0 10.24.81 14.6 1.17.6.11 2.78.08 3.21.63l.19.49c1.31-.35 3.22-1 4.58-.63a11.7 11.7 0 012.43 1l1.85.63A149.83 149.83 0 00637 291.6a19.52 19.52 0 013.75.34 27.07 27.07 0 019.68-2.87 16.63 16.63 0 013 .87l1.17 1.17a40 40 0 01-4.58 3.16c-2.22 4.35-2.1 10-1.8 14.7a101.32 101.32 0 002.78 17.76c2 .09 5-1 7-1.41 1.07-.26 6.79-1.37 7.64-1.9.33 1.66-.63 4-1.17 5.5a18.56 18.56 0 01-3.06 5.11l-1.56 1.85c-.62.4-1.88 1.19-2.53 1.55a21.07 21.07 0 01-3.65 1l-3.84.43c-1.43-.26-5-.77-6.48-1-2.33-.16-7.91-.47-10.31-.58-11.55-.09-28.57.13-40.15-.1-3.53-.08-15 .05-18.39-.68.48 9.81-.69 21.86-1.38 31.67l-63-1.89a112.89 112.89 0 01-1.86-15.28c.23-2.53.51-8.92.61-11.53 1.07-13.35 2.65-28.41 6.47-41.27a18.15 18.15 0 01-3.36-7.54c-1.1-6.56 4.31-21.78 6.76-26.08 2.88-5.13 9.26-8.58 14.26-11.43z"/><path fill="url(#r)" d="M598 245.17a9.2 9.2 0 013.41 3.8s1.36 2.87 2.77 6 20.34 15.62 20.85 23.94 0 6.43.51 8.32a18.57 18.57 0 01.59 2.63l-4.38-.92c-1.05-.23-3.15-1.16-4.09-1.52l-1.31-.26-1.13.15a15.86 15.86 0 01-2.12.69 3.29 3.29 0 00-1-1 14 14 0 00-3.47-.29l-12.93-1.06h-.7l-.18-.55-.47-.25c-.88-8.18-2.52-17.09-5.95-24.64a37.77 37.77 0 00-2.92-5.87 21.09 21.09 0 01-1.39-1.61l3.47-5.44c1.24-.06 4.35-.37 5.62-.51a26.84 26.84 0 004.82-1.61zm22.58 123.14c.5-8.19 1.59-22.68 1.7-30.9-7.25.11-17.29.08-24.54-.15a476.6 476.6 0 01-.3 17.69c.09 3.34-.11 10.09-.36 13.43z"/><path fill="url(#s)" d="M569 271.5a3.91 3.91 0 00-1.68-.51 42 42 0 012.68 5.88 6 6 0 00.71 2.1c10.59 2.75 19.94-1.76 19.56-13.9-.54-1.41-2.36-7.06-3.39-8.12.28 3.75.76 7.92-3 12.87-2.72 3-4.26 3.38-6.93 3.16-4.38-.5-5.78-.75-7.95-1.48z"/><path fill="url(#f)" d="M514.61 255.61c-.17 4.36 1.19 9.53 2 13.8.44-1.11 1.65-3.71 2.15-4.82l2.52-3.32 3-2.52c6.15-4.81 20.13-13.23 27.48-6.79a35.15 35.15 0 002 3.14 34.46 34.46 0 00-4.82-14c-2.82-.93-6.89-2.34-9.67-3.36a7.14 7.14 0 00-2.19-.33l-2.52.62a49.78 49.78 0 00-14.19 7.49 27.73 27.73 0 00-4.78 5.14c-.16.6-.72 2.26-.88 2.85v2.15z"/><path fill="url(#t)" d="M600.37 244.32a53.8 53.8 0 0011.34-7.57l4.62-5.08c1-1.39 2.87-4.3 3.7-5.77 1.45-.31 3.25-1.78 4.55-2.41.41.95 2.12 4.34 2.6 5.33a50.93 50.93 0 005.53 7.3l3.31 3.12a41.11 41.11 0 006.06 3.35c-1.1 8.54-7.1 17.16-10.2 25l-1 .46-2.22 2.11a33.11 33.11 0 00-3.21 5l-.22 2.36s.1 2.05-.17.68c-2.68-9.61-15.56-16.27-21-23.65a18.58 18.58 0 00-2-4.33c-.87-1.56-2.18-4.22-3.84-5.11zm42.34 6.62a91.21 91.21 0 01-2.34 6.39c2.8-3.29 8-9.25 11-12.49a41.09 41.09 0 01-6.71-1.24c-.52 1.98-1.28 5.4-1.95 7.34z"/><path fill="url(#g)" d="M568.08 301.19c0-1 5 .82 5 .7.2.16.9.17.79.58-1.59 6.53-1.74 13.09-1.63 19.6a30.08 30.08 0 001.12 6.8c.05.26.29.67.14 1-.73.17-1.2 0-3-.17a4.22 4.22 0 01-2.4-.73 31.54 31.54 0 01-1.1-4.87 60.45 60.45 0 01-.14-10.62 123.22 123.22 0 011.22-12.29z"/><path fill="url(#u)" d="M578.33 305.14c.22-.91.48-1.56 2-1.49 1.23.19 3.62-.24 3.59 1a94.81 94.81 0 00-1.06 10.46c.71.64 3.67.84 4.66.9.68 0 1.31.11 1.35-.12s.21-3.4.38-4.6.73-4.76.73-4.76a13.08 13.08 0 01.41-2c.87-.47 4.8-.41 5.54-.45 1.37.09 0 4.22.14 4.47l-.42 3.29c-.36 3.32-.82 8-1 11.35a52.69 52.69 0 00.58 8.09c.49 1.19-5.34.25-5.61.21-.68-2.37-.75-6.53-1.18-8.9a19.05 19.05 0 00-5.38-.88c-1 2 .5 7.29.89 9.41-.55.66-5.56-.29-6-.9-.07-.28-.49-3.23-.61-4.39a94.82 94.82 0 01.99-20.69z"/><path fill="url(#v)" d="M600 303.91c-.52.58-.14 4 .46 4.48.16 0 1.87-.43 2.88-.49 9.91-.53 6.68 21.78-4.24 19.51l-.09.19c-.13-.16-.65 3.93-.4 4 10.95 1.69 17.12-8.26 17.6-18.07 1.41-11.05-8.21-13.26-16.21-9.62z"/><path fill="url(#w)" d="M551 293.22c.4.12 2.11.93 2.52 1.11.49.45 1.56.55 1.55 1.48a30.34 30.34 0 00-.25 5.49l-.77 1.55c0 .31 0 1 .06 1.26 0 0 0 .79.47.79s.48-.29.48-.29c.55-.76 1.11-.31 1.24.38.09 0 .86 3.41 1.58 2.21a67 67 0 001.52-7.08c.15-.22 1.86-2.19 2.08-2.45a7.2 7.2 0 001.62.6c1 .33 1.7-.06 1.55 1-.78 5.13-1.31 8.93-1.87 14.34a41.38 41.38 0 00.05 8.19 25.75 25.75 0 00.62 2.85c.09.24.38 1.57 0 1.86-2.82.18-6.3-1.68-9.8-4-5.32-3.33-7.45-12.37-1.6-15.27v-.17a6.42 6.42 0 01-1-2.81c-.22-4.14-.24-8-.11-10.95zm2.11 21.78c-.47 2.49 1.48 6.84 4.55 6.7.06-1.74.49-6.89 0-8.72-1.81-.9-4.34-.51-4.55 2.02z"/><path fill="url(#x)" d="M537.18 289.66c12.23-9.67 11.46 12.58 9.4 19.49-1.61 8.21-7.75 3.75-10.75-.09-4.36-5.26-4.16-15.06 1.35-19.4zm.54 18c4.13 5.13 5.23-6.43 5.65-8.48 0-1.06 1.53-8.92-2-7.31-3.56 3.61-6.56 11.18-3.65 15.83z"/><path fill="#f44040" d="M621.71 213a59.78 59.78 0 003.75 12.7l2.24 4.19 3.35 4.42 3.9 3.94a42.34 42.34 0 006.27 4c6.65 3.52 17.47 3 24.24 2.29-2.43-3.82 1-3.66 3.21-3.5.1 0-2.69-3.93-3.31-2.58 0 0 1.46 1.75.44 1.75s-8.18-2-8.18-2l-2.43-.78-.63-.54-.39-.73-.68-.34-.34-.44c-1.94.82-3.14-1.92-3.51-2.87 0 0-.29-.63.63-.77l.93-.15v-.78c-.93-1.83.64-2.3 1.95-2.19v-.88c-.41-2 2.46-1.86 3.35-.43a19.73 19.73 0 011.32 2 5.94 5.94 0 012.72.34 8.15 8.15 0 011.46 2.39v1.75c1.56 0 1.85.37 5.4 1.65 4 2.15 4.1 3.61 5.65 5.65h2.57a841.3 841.3 0 015.5-7.16l1.32-.53 1 .19.44.88c.19 2.24-2 4.79-3 6.67h2.19a15.21 15.21 0 013.46-1.37l.72.15a2.53 2.53 0 01.64 1.31l.44-.14 13.28.05c.89.54 7.19 2.53 8.32 2.91a29.32 29.32 0 005.65.73 36 36 0 008.07-1 7.7 7.7 0 003.12-1.21v-.54c-20.86 1.92-32.15-13.09-35-33.48-2.09-22.3 7.67-45.49 32.41-44.08-3.37-4.54-41.11 1.47-41.22.87-2.44.27-6.51.59-8.9 1-.83.12-2.64.57-3.46.78a14.43 14.43 0 01-3.6-.09v-.3c-3.55.51-13.7 1.49-16.59 1.76-3.59.66-6.67 0-10.61 1.94-10.45 5-18 19.55-18.78 30.46l-.24 4.38c.27 1.73.65 5.92.93 7.73z"/><path fill="#fff" d="M673 241h2.53a12.58 12.58 0 01-1.36 1.55A8.32 8.32 0 01673 241zM666 240.94l2.73-.05c1.39 1.84 3.11 4.51 5.54 5 1.54-.41-.65 1-.63 1.27a5.6 5.6 0 00.39 1.9l.58.68a6.57 6.57 0 001.71.34 3.47 3.47 0 00-.3 1.07c.2.37.6 1.13.78 1.51a3.92 3.92 0 002.19.39c-.14.4-.45 1.22-.63 1.6a6.42 6.42 0 00.73 1.7 5.16 5.16 0 001.31.78l-.53.64-.29.92.24.58a3.39 3.39 0 01.73 1.22 5.23 5.23 0 001.26.49 3.18 3.18 0 00-.63 1.12 3.24 3.24 0 001.7 2.48v.29a1.57 1.57 0 00-.19 1.41 3.29 3.29 0 01.49 1.27c-1.54-.08-1.2.74-7.2-5.65-6.71-8.17-9.68-16.38-11.44-19.32v-.92a7.66 7.66 0 011.46-.72zM681 240.89l2.24.24-4 2.49c.43-.62 1.39-2.08 1.76-2.73zM688 241l13 .09 1 .1c.16.17 8 2.72 8.47 2.87-.59.44-1.63 1.73-7.21 4.24-5.1 2.23-6.18 2.87-7.2 3.89a14.09 14.09 0 00-2 3.31l-.29-.49-.93-.1a3.49 3.49 0 00-.29-3.31 3.19 3.19 0 00-1.65-.58c1.39-1.6-.48-3.59-2.29-3.21 2.25-1.52 1.57-3.16-.63-3.75-.47.12-1.4.42-1.85.59a6.79 6.79 0 001.94-2.53zM714 318s4.09 8.51 5.59 12 3.56 7.35 6.23 7.35c6.58-.43 19.7-9.84 20.93-17.52 2.68-8.61-5.74-4.33-9.15-18.59a3.28 3.28 0 00-1.07.73C733.6 307 719.22 316.48 714 318zM622.82 191.71l-.66 2.63L622 193l-1.75-17 .36-.66 5.84-3.83 11.68-.26c-7.02 4.09-13.38 13.75-15.31 20.46zM693.66 187.22c12.37-40.78 48.08-6.29 93.28-47.23 27.51-73.52 87.15-66.28 112 6.57 15.76 44.85 13.89 110.35-20.87 146.49-14.93 16.55-42.64 16.19-60 2.41a95.57 95.57 0 01-14.16-14.52s-6.5-9.78-9.34-15.55-2.78-6.13-2.78-6.13c-12.52-9.43-41.08-19-58.46-17.37-7 0-12 .29-16.28-.51-22.95-3.51-29.51-36.85-23.39-54.16z"/><path fill="#323233" d="M632.93 264.93l-1.07 2.8c-.7.08-2.31 1.43-2.85 1.85l-1.7 2.31c-1 2.31-3.38 6-1.41 8.39l.48.2a2.33 2.33 0 00.61 1.12 4.93 4.93 0 01.07 1.58l.17 1.17a4.46 4.46 0 001 1.45 4.26 4.26 0 001.56 3.27l.24 1.48 10.34 1.29.78-.12a51.11 51.11 0 016.33-2.12 4.88 4.88 0 00-1-1l-.09-.65-.71-1.1-.83-.68-1-.39.19-.46-.36-.88a12.16 12.16 0 00-1.41-.87 6.79 6.79 0 00-.2-1.9 7.36 7.36 0 00-1.89-2 5.52 5.52 0 00-.05-1.72c-.31-.38-1-1.23-1.36-1.56.75-2.16-.35-5.12-2.73-5.82a2.72 2.72 0 00-.73-2.55l-.19-.34c1-2.74 3.76-8 5.1-10.51a56.57 56.57 0 004.21-13.6l-2.57-.95c-.11 2.24-1.09 5.24-1.59 7.42-1.62 4.17-5.4 10.85-7.34 14.89zM662.05 233.69c1.44-.06 3.57.91 4.89 1.41a39.25 39.25 0 013.39 2.34 36 36 0 013.91 5c2.5-2.21 4.72-6.23 6.9-8.72l.87-.44 1 .07.7.44.44 1.1c-.54 2.5-3.78 6.63-5.11 8.79 1.37-.81 5.93-3.85 7.52-4l.72.15.49.68a4.87 4.87 0 01.21 1.74 9.6 9.6 0 01-1.79 2.37l1.31-.44 1.39.11.69.55.33.66v.76l-.26.63-1.05 1 1.05-.11 1 .58a3.26 3.26 0 01.66 2.12l-.62.62 1.17.11.69.59.51 1.24a3.92 3.92 0 01-.25 1.82l.91.15a10.43 10.43 0 011 2.22l-.18 1-.47.73 1.31.55a3.08 3.08 0 01.58 3.5c1.21-.36 2.46 3 1.54 3.65 1.37-.12 3.14 2.86 1.42 3.69a2.49 2.49 0 012.52 3.28l1 .07 1 .84.47.88v.73a9.29 9.29 0 00-.73 1.35c2-1.11 4.32 2.69 2.23 3.76 2.62 0 4.26 1.6 3 4.27a1.78 1.78 0 012.15 2.11L710 289l-.91.76-1.42.59c2.44 0 4.67-1.16 4.81 2.33-.28 1-.83 2-2.11 2l.32.33c1 .12 2.38-.42 3.18 1.17.22 1 .44 2.51-2.59 3.21l-2 .47a24.26 24.26 0 003.32.37s2.15.25 2.26 1.13a2.21 2.21 0 01-1.94 2.81 35.77 35.77 0 01-6.64.58 27.35 27.35 0 004.93.77l2.59.07 1.28.44.58.8.07 1.5-.47 1.13-1.24.4a51.37 51.37 0 01-8.32-.51 45.31 45.31 0 008 2.3s1.86.91 1.86 1.61a2 2 0 01-2 2.41 9 9 0 01-4-.63l-3.72-1.16 2.92 1.93c1.06.39 4.15 1.45 5 2.23l.55.84v1.35l-.8.69a20.13 20.13 0 01-3.39-.11 74.22 74.22 0 01-6.94-3.39l.26.87a31.36 31.36 0 005.07 3.58c.71.35 2.81 1.37 3.47 1.75.83 1.25 0 3.7-2.81 2.88-4-1.34-4.21-2.3-6.86-3.79l1.67 2.19 2.74 2.15a15.9 15.9 0 012.59 2.05 4.34 4.34 0 01-.18 1.86c-2.41 2.91-8.44-4.07-9.82-5.73v.76a36.71 36.71 0 003.06 4.86 35.58 35.58 0 012.71 2.95l.21 1-.65.92-1.14.62-1.13-.51-1.42-1.24c-1.21-1.55-4.29-5.09-5.18-6.79l.18 1.86a78.13 78.13 0 003.94 8.07v.94l-.43.59-1.68.69-.92-.14-.76-.63a42.68 42.68 0 01-3.87-9.67c-.49 1.77.22 4.42.55 6.17l1.42 4.56-.07 1.14-.4.65a5.39 5.39 0 01-2 .44l-.84-.33-.66-.69c-.55-2.29-1.52-7-1.82-9.31l-.33.22c-.63 2.61-.19 7.57-.25 10.22l-.44.87-.84.41-1.06-.15c-2 .16-1.85-4.78-1.79-5.18a44.91 44.91 0 01.19-5.8 10.14 10.14 0 00-1.1 2.55l-.26 2.7a16.6 16.6 0 01-.32 4c-.41 1-.6 1.72-2.56 1.93-2.72.7-1.4-8-1.39-7.92-.45 1.8-1.06 4.47-2.22 5.95-.7.53-1.27 1.68-2.89 1.06-2-.72-.81-5.22-.32-5.91a22.34 22.34 0 01-2.23 3.57l-1.24.55-1.5-.65-1.06-1.28a4.56 4.56 0 01-.25-1.83l-.73.51-1.1.11-.94-.36-1.13-1.13-.33-1.13a17.81 17.81 0 012-5.3 39.82 39.82 0 001.53-6.13l1.64-.8a13.6 13.6 0 013.07.18 5.5 5.5 0 011 .73l.29 1.17a5 5 0 011.79.48 10.56 10.56 0 01.91 1l.11.77 1.06-.08 1 .37.69.55a5.22 5.22 0 01.48 1 4.36 4.36 0 011.86-.22l.84.29.69.62 1-.65c.5 0 1.61-.09 2.11-.07l.8.36.77-.66a4.43 4.43 0 012-.25l.58.33.62-.88 1.06-.66a4.86 4.86 0 012 0l.14-.91.59-.69a6.46 6.46 0 012.44-.51v-1.1l.59-.87a4.13 4.13 0 011.71-.92l.19-.43v-.92l.62-.91.84-.62.77.11-.48-.69v-1.5l.4-.88.59-.51.73-.11.58.26a20.55 20.55 0 01-.88-2l.26-1.21.91-.95a5.32 5.32 0 01-.87-1.71l.29-1.06a7.89 7.89 0 011.06-1.24l-.84-.55-.33-.8a8 8 0 01.4-1.9l.58-.58a3.16 3.16 0 01-1.27-1l-.22-.95.18-1.17.47-.87a8.35 8.35 0 01-1.05-1.17l-.3-.95v-1l.33-.84.55-.51-1.21-.15-1.06-.58-.47-1.1.18-1.49-.91-.33-.88-.81-.51-1.2.26-.95-.77-.22-.66-.66a3.37 3.37 0 010-2.73l-.77.22a3 3 0 01-1.28-.81 4.78 4.78 0 01-.58-2.63l-.8-.18-.95-.65a4.28 4.28 0 01-.29-2.78 4.28 4.28 0 01-1.61-.62l-.47-.62a5.69 5.69 0 01-.26-1.82l.29-.55h-.91l-.91-.51-.51-1a14.06 14.06 0 00.29-1.68l-1-.33a10.54 10.54 0 01-1-1.94l.11-.87.4-.73-.62-.11-1.14-.95a7.27 7.27 0 01-.32-1.9l.47-.58-.77-.4-1.09-1.46-.07-.91.54-1.06h-.62a3.14 3.14 0 01-1.46-2.67 9.68 9.68 0 01.92-1.17l-.7-.07a6.61 6.61 0 01-1.42-2V254l.26-.58.51-.48-1.17.26-1-.44-.84-1a3.89 3.89 0 01.26-1.82 7.36 7.36 0 01-1.61-.18l-.76-.77a2.77 2.77 0 01-.22-2.23l1.27-.87a12.62 12.62 0 01-2.11-.3c-.66-.54-2-1.8-2.63-2.4a34 34 0 00-4.42-4.93c-.92-.69-2.45-1.23-3.43-1.83l-.51-.8zM829.33 90c12.25-4.62 39.54-2.88 59.27 33.48 31.92 53.11 29 172-38.85 182.35C761 301.78 757.42 113.35 829.33 90zm-33.48 144.81c9 35.61 28 58.68 54.74 58.25 59.84-9.33 59.36-112.75 31.53-159.41-16.64-32.4-40-35.65-50.36-31.53-38.98 15.55-48.61 82.33-35.91 132.69z"/><path fill="#a0a3a3" d="M649.74 232.38c-.46-.83 1.45-.74 1.6-1-.91-2.35-.56-2.83 1.85-2.72 0 0-.82-2.39.44-2.48a3 3 0 012.58.68 5.79 5.79 0 011.32 1.94l.48.44s1.85-.24 2.43.24a5.1 5.1 0 011.56 2.78c0 1.28-.36 4.42 1.27 4.52l1.12.54 1.94 2.14-.14.53-.49.3a95.71 95.71 0 01-10.9-3.17 5.19 5.19 0 01-.49-1 4 4 0 01-1.16-1 10.62 10.62 0 01-1.12.24c-.75-.21-1.74-1.72-2.19-2.29zM640.88 170c.27-.12 1.54-.68 1.79-.77v-.29l-.11-6.53s.33-1.39 2.59-1.72 6-.54 6.28-.25c.59.62.46 1.61.62 2.3l2.11-.84a14.25 14.25 0 00-.51-2.52l-1.27-.8-1.83-.55a64 64 0 00-6.9.76c-2.07.32-3.64 3.12-3.28 4.49z"/><path fill="#a0a3a3" d="M647.74 165.07s5.33-2.74 6.76-3.33a35 35 0 0111.13-1.93l.44.58c2-.6 7.87-.3 10-.21l.07.58a9.87 9.87 0 00-.51 1.82c-.17.21-.64.82-.91.88l.22 1.68a7 7 0 012.19-.07 5.31 5.31 0 01-.19.65c-1.73.29-4.29 1-6 1.17l-1.43.33-2-.11-.43-.26c-1.11 0-13 1.48-15 1.65-.8-.09-2.5-.3-3.28-.44l-.77-.55a5.56 5.56 0 01-.47-2z"/><path fill="#162136" d="M515.12 298.75a28.77 28.77 0 008 10.51c12.57 12.19 30.66 31.55 51.45 37.66a99.25 99.25 0 00-.07-10.36c-16.49-2.19-43.58-24.43-53.43-31.9a40.36 40.36 0 01-5.62-6.42z"/><path fill="url(#y)" d="M722.44 241.82c8 .4 9.86-.08 21.31.53 17.4 1.19 34.31 7.79 47.93 16.84-14.89-35.1-17.17-83.72-4.52-119.61-3.69 5.23-27 19.33-36.65 20.68-12.81 3.22-21.77 3.56-32.55 4.48-11.68 1-20.57 9.16-24.23 22-4.53 17.27-2.45 31.94 8.32 46.28 4.86 6.98 14.4 8.76 20.39 8.8z"/><path fill="url(#z)" d="M791.54 173.11c2.74-23 8.76-47.75 28.75-64.28 8-5.45 12.56-8.27 19.42-8.18 37.45 1.39 54.27 54.59 59.37 85.11 2.7 18.6 1.93 39.62-3.22 57.81-8.08 30-31.21 62.81-66.81 44.18-13.15-6.75-24.31-25.75-28.41-37.86-5.68-14.66-8.13-30.71-9.59-44.42a172.11 172.11 0 010-25.89 38.92 38.92 0 01.49-6.47z"/><path fill="url(#A)" d="M791.26 175.19c2.8-23.84 8.38-49.24 29-66.36 8-5.45 12.56-8.27 19.42-8.18 28.14.89 42.78 30.59 51.14 52.8 12.21 35 14.67 72.84-1.75 108-11.46 25.17-33.6 40.37-60.05 26.28-22-13.4-31.17-40.77-35.38-63.63 1.14-1.16 41.85-4.26 42.19-6.15v-.19c.43.34 4.27-.69 4.24-.78a5.7 5.7 0 012.48-.68 30.85 30.85 0 004.38-.39 7.81 7.81 0 002.48-.78l.78-.83c1.66-2.36-1.66-3.78-2.63-4.91l.39-.73a26.72 26.72 0 002.29-9.39c.44-5.79-.73-7-.73-7a22.75 22.75 0 003.41-3l.19-1-.19-1-.59-.88L851 186h-3.46a27.78 27.78 0 00-3.16-4.47c-1.22-.92-3.3-2.51-4.86-2.68l.38-3.11-.14-.93-.54-1-1.36-.63-2.63.05z"/><path fill="#515151" d="M831.24 195.28c.43-14.51 12.14-16.93 16-3.65 1.47 3.14 1.24 19.15-5.73 20.08-8.12 1.4-10.61-12.25-10.27-16.43z"/><path d="M636.5 171.23c-3.14.22-8.17 3.43-9.92 6.21.29 3.06.36 4.23.36 4.23s-3.28 2.26-5.25 8.69l.51 3.79c1.79-8.31 8.58-18.71 15.91-22.84zM652.37 162.79c.14-1.07.24-3.65-1.37-3.7s-7.59.49-8.76 1.8.25 8.52.25 8.52l.24-.1c.23-1.68-1.25-7.39 1-8.17a43.69 43.69 0 017.5-.88l.58.54.2 2zM681.61 240.06c6.13-1.53 18.4-.43 18.91-2.19.34-3.2-2-4.26-3.09-6.13-12.14-18.45-14.17-53.37 8.56-65.54 7.1-3.15 15.54-4.61 18.2-1.85-20.69-.74-31.52 14-32.65 35.91-.43 23.17 11.61 44 35.42 41.6l-.19.49c-2.89 3-18.06 2.81-21.66.05-2.87-1.41-2.62-1.17-5.3-1.22s-11.78-.09-11.78-.09c-.4-2.34-4.33-.74-4.86 0L681 241z" opacity=".25" style="isolation:isolate"/><path d="M787.13 256.45l1.92 1.13 2.63 1.66c-12.92-28.79-15.38-72.2-9.63-100.63-4.2 11.71-8.19 63.07.06 85.2 1.83 5.89-10.72-1.27-33.64-3.16s-31 2.92-41.46-4.67-14.5-22-15-26.18c1 11 9.49 29.52 24.13 31.33 8.27 1.56 13.24.39 19.08.59 18.65.62 37.64 5.49 51.91 14.73zM796.16 223.71c.49 6.73 1.32 13.65 2.52 20.72-4.85-16.37-3.25-10.24-5.12-20.47zM796 195.45a200.55 200.55 0 00-.12 24.07l-3 .39c-1.81-11.46-2.13-14-2.14-24.25zM790.75 193.57c-1-18.59 4.52-49.43 12.22-63.09 8.25-15.67 28.94-40.41 54.4-24.72 14.09 7.94 22.17 21.63 27.3 33.43-29.54-56.53-77.41-23.17-86.12 35.63-5.94 0-2 2-.36 2q-1.35 7.83-2 16.35zM831.19 193.93c-1 17.47 17.5 25.4 16.65.73.24 1 1.16 10.22-2.54 14.11-4.24 5.34-8.43 3.1-10.94-.77a33.64 33.64 0 01-2.34-5.16l-.68-3.5zM846.59 211.09c7.27 4.49-2.08 5.41-4.69 5.18l1.51-.88 1.17-1.19c.47-.78 1.5-2.35 2.01-3.11z" opacity=".25" style="isolation:isolate"/><path d="M790.63 195.23c.08.16.49.36.49.36 1.65.14 36-1.39 36.74-.37 1.17.29 2.09.61 1.73.05-1.4-2.72-10-1.7-12.29-1.7-9.4.53-14.4.53-23.77 1.27 0 0 .1-1.27 1-1.39s-4 .09-4 .09z" opacity=".25" style="isolation:isolate"/><path d="M779.2 205.39c0 24.71 20.76 97.28 71.16 96.57 51.37 2.25 63.73-91.1 56.21-125.2 0 0 1.8 13.43 1.9 18.92s-.15 16.6-.15 16.6c-.15 8.1-3.36 27.69-6 37-9 32.19-34.93 70.65-74.7 51.68-34.9-17.64-44.62-61.47-48.42-95.57zM738 302.69c-.22-.73-1.31 1.09-2.62 2.85s-5.19 7.44-10.95 10.8-8.83 4.74-8.54 5.62-.73-1.64-.73-1.64L714 318a69.52 69.52 0 0011-5.6c6.74-4.91 8-7 11.06-9.67.19-.27.92-1.2 1.09-1.46h.52zM747.41 317.69c.08-1.06-.36-2.56-2.11-2.26s-2.45 2.22-3 3.39c-1 2.8-9.24 14.61-12.41 16.28-5.07 3.45-1.7 2.07.33 1.13 5.58-2.28 7.94-4.32 13-9.42 3.04-3.81 3.42-6.25 4.19-9.12z" opacity=".25" style="isolation:isolate"/><path d="M794.82 219.7c-1 .24-.61 3.36 3.63 2.82s10.14-1.36 10.14-1.36l9.76-1.19s14.55-1.73 15.42-2 1.51-.42 1.58-1.66 0-2.6 0-2.85.53-.34.8 1.08.08 4-1.41 4.25c-.15.22-39.27 4.68-41.31 4.94l-.56-3.84zM662.74 233.79c-.58.29-.11 1.53 2.12 2.48s4.67 3.58 6.5 6 2.81 2.81 5.18 1.68c3.13-1.25 6.19-5.66 7.23-7.63l-3.47 5.77a5.22 5.22 0 01-2.27 2.15c-3.39 1.52-2.72 3-6 .7-1.46-1.93-6.67-7.93-8.83-8.07l-1.06-.69a21.76 21.76 0 01-.26-2.56z" opacity=".25" style="isolation:isolate"/><path d="M653.4 235.57c2.42 1.1 8.66 1.21 10.88 1.65a9.63 9.63 0 011.57 1.68c0 .31-11.29-2-11.54-2.45l-.11-.44zM673.8 247.47c.1 3.72 14.32-3.87 14.27-5.8-.18 1-.77 2.41-3.1 3.54a95.61 95.61 0 00-8.58 4.74h-1l-1.06-.51a4.44 4.44 0 01-.53-1.97zM641 247.51c4.65-1.84-5.64 19.44-6.31 19.23-.44 0-1.42-.73-2.37 0-1 1.42.74.44 1.13.62a12.46 12.46 0 011.82.47c3-7.59 8.29-16 9.27-24.38-.65-.19-1.95-.65-2.59-.91-.22 1.26-.69 3.78-.95 4.97z" opacity=".25" style="isolation:isolate"/><path d="M629.35 232.18C633.94 238 646 243.7 653 243.13c-8.78-2.39-19-19.47-20.29-29-2.5-11.12 1.66-25.1 5.91-32.63-4.88 7.82-8.72 27.89-3.58 38.61 3.84 11.76 14.85 24.78 27.45 24.31-10.86 2.87-26.93-1.99-33.14-12.24z" opacity=".25" style="isolation:isolate"/><path d="M668.42 240.6a8.72 8.72 0 00-4.08 0c-1.61.58-.2 2.19-1 2.58-2.29 1.88-14.21-2.79-14.9-3.6 3.06 2 12.16 6.13 17.09 4.91-2.2-3.58.06-3.42 3.06-3.6zM676.36 240l-3.87.15.51 1h2.63zM676.28 250.79c.44 3.75 13-3.46 13.51-5 0-.58.47.58-.15 1.24-2.62 2.09-6.28 3.77-8.87 5.29l-1.82.77h-1.13l-1.17-.51-.55-1zM678.44 254.41c.88 3 12.3-3.21 12.66-4.86-.11-.44.44.48.29 1s-1.46 1.09-1.46 1.09l-9.12 5.36h-.73l-1.17-.69-.58-1.17v-.8zM679.82 258.09c2 2.82 7.24-1.75 10.19-2.77 2.26-1 3.06-1.39 3-2l.11 1-.22.62a60.33 60.33 0 00-8.68 4.38 11.35 11.35 0 01-2.56 1.53l-.94-.18a4.23 4.23 0 01-1.06-1.61zM681.1 262.36c1.42 2.17 13.12-3.28 13.47-5 0-.84.8.84-.77 1.68-3.18 1.57-8.85 5-10.73 5.44l-.73-.29a21 21 0 01-1.24-1.83zM682.52 265.65c1.67 2.24 9.69-1.61 11.24-2.52 1.54-.7 2.52-1.1 2.49-1.64s.18.54.11.94-1 .92-1.35 1c-1.84.72-8.7 4.17-10.15 4.6l-.84-.11a7.37 7.37 0 01-1.17-1.13zM684.35 269c1.89 2.81 7.22-.65 10.36-2 2.63-1.17 3.29-1.61 3.25-2a5.77 5.77 0 01.07 1.06c0 .33-1.16 1-1.16 1a174.24 174.24 0 00-10.29 4.93h-1l-.66-.55-.69-1.2zM686.14 272.73c1.22 3 13.69-3.33 13.54-3.87 0 0 .36 1.31-1.39 1.93-3.22 1.15-9 4.44-10.8 4.38l-1.1-.4-.58-1.2zM688 275.94c-.11 1 .59 1.71 5 .33 5.42-2 7.38-2 8.21-4.13l.51.77v.62l-.73.66a46.85 46.85 0 00-6.35 2.37c-4 2.33-6.55 3.44-6.64-.62zM690.3 279.7s2 1.79 5.11.11c3.87-2.23 7.32-2.13 8.39-4.57l.18 1.1-.47.8c-2.09 1.18-5.54 2.58-8.87 4.31-2.49 1.87-4.75.65-4.34-1.75zM692.49 283s1.17 1.86 4.49.62 6.86-2.33 7.77-2.7 1.46-.87 1.42-1.31.55 1.53-1.6 2.11-8.69 3.91-9.64 4.09c-1.55.53-2.93-1.95-2.44-2.81zM694.82 286.34c-.18.66.88 1.93 5.37.26s8.57-1.79 8.57-2.81c.3 0-.18 1.67-.18 1.67a30.1 30.1 0 00-5.58.92 33.71 33.71 0 00-6.46 2.88l-1.32-.4-.54-1.39zM696.36 290s2 1.68 6.09.51 7.23-1.39 7.77-2.37.51 1.27-2.77 2.26-8.94 2.19-8.94 2.19l-1.61-.84-.47-.73zM698.44 293.05s.32 1.65 6.09 1.28 7.34-.33 7.63-.76.11 1.2-3.14 1.6c-4.02.3-11.17 2.21-10.58-2.12zM700.59 296.78c-.55.51.18 2.33 5.73 2.08s7.37-.73 7.52-1.13.91 1.46-4.86 2c-6.92.87-9.8 1.09-8.39-2.95zM701.21 301s.69 2.48 6.09 2.48 6.94.11 7.38-.4.62 1.53-6.39 1.5c-8.13-.12-7.77-.58-7.08-3.58zM702.12 304.62c-2.21 4.06 13.39 5.26 13.4 4.05.51-.65.43 1.17-2.81 1.25-4.13-.1-13.96-.6-10.59-5.3z" opacity=".25" style="isolation:isolate"/><path d="M702 308.6c-1.11 3.79 11.56 7.32 13.31 5.84-1.15 3.31-12.06-1.47-13-2.14-1.65-.87-1.09-3.11-.31-3.7zM705.7 317.51c3.82 1.85 7.83 3.4 8.34 2.77-1.67 2.63-12.53-2.76-13-5.57l.12-1.17s.72 2.12 4.54 3.97zM699.42 318.11a12.76 12.76 0 005.94 5.41c4.23 1.89 6.18 2.14 6.66 1.26s.25 2.19-2.33 1.7-6.91-3.4-7.74-4c-1.35-1.25-1.68-2.44-2.38-3.17zM697.89 321.08c0 .95 3.14 5.81 6.28 7.74s4.92 1.42 4.52-.22c.48.22 1.13 2 .15 2.48-3.1 2.72-12.17-7.15-10.95-10zM695.66 323.82a13.5 13.5 0 003.34 7.08c3.11 3.92 5.28 3.53 3.87.51 0 0 2.37 2.37 2.22 3.21a1.77 1.77 0 01-2.7 1.39c-3-1.78-7.42-8.39-7.15-11.46zM692.12 326.67c-.36.29 4.09 14.9 5.7 9.52a17.69 17.69 0 00-.81-3.94c.68 1.48 2.57 4.49 2.89 6.06 0 0-.59 1.53-1.65 1.61s-1.78.21-2.37-.66-2.55-5.84-2.55-5.84c-.51-1.78-1.7-4.89-1.21-6.75zM688.22 330.39c.07 1.5 1.27 8.58 2.37 9.41 2.69 2.13 2.12-3.31 2.08-3.79.45 1.43 1.56 3.61 1.39 5.15.05 1.18-3.15 2.14-3.69.54a34.63 34.63 0 01-2.15-11.31zM683.73 333.09c-.11 3 0 7.52 1.71 7.63s2.23-3.47 2.23-3.47c0 1.37.5 4.77-.11 6-3.06 2-4.16-1.36-4-3.43l-.15-3.83zM674 334c-2 3.33-1.27 9.47 2.19 4.27A21.28 21.28 0 01678 334l1-.73c.16.33-1.11 6.69.76 7.37 1.65.25 2.63-2.48 2.63-2.48-.17 1.43-.12 3.67-1 4.89l-1.06.76-1.35.11-.84-.65c-.56-1.46-.33-3.59-.33-5.11h-.26c-.23 1.08-1.91 5.76-4.48 4.64-1.57-.59-1.28-3.4-1.28-3.4A56.17 56.17 0 01674 334z" opacity=".25" style="isolation:isolate"/><path d="M670.91 323.86c-1.42-.44-1.9.68-1.32.92a19.05 19.05 0 003.26.68s-2 0-5.06 2.68-.24 5.55 1.7 3.41c-1 1.06-2.09 4.33-.92 5.78a1.61 1.61 0 002.39.44l1.5-2.58 1.56-1.7.2.44-1.12 1.9c-.93 1.7-1.11 4.45-3.9 5.25a3.09 3.09 0 01-2.87-3.55s-.48 1.12-2.24.44c-3.6-1-.74-6.46-.19-7.59a27.84 27.84 0 002-6.67 9.22 9.22 0 012.83-.68 4 4 0 011.8.19M630.37 268.46c-.68 0-4.35 7.38-1.49 5.62l1-1.13a21.22 21.22 0 00-1.87 4.23c.35 2.35 9.33-7 10.55-1a7.19 7.19 0 00-6.68.26c-3.81 2.77-3.87 2.93-4.74 5a2.47 2.47 0 01-.7-1.06c-3.62-.4.93-8.79 1.14-8.83l1.56-2.08z" opacity=".25" style="isolation:isolate"/><path d="M631.61 276.49a5.77 5.77 0 00-2.73 4.78c.11 1.31 1.35-.48 4.38-1.79s5.94-1 6.89 0c-3.83-2-12.27 1.85-10.73 6.64.48.88 1-1.5 5.11-3s6.61-.73 8 .36c-1.61-.51-6.06-1.35-8.95.81-3.75 3.15-3 2.84-3.72 4.67l-.84-.59-.55-1.05-.18-1.47c-3.49-3.71.02-7.35 3.32-9.36z" opacity=".25" style="isolation:isolate"/><path d="M632.31 285.35c-1.61 1.1-1.57 3.87-.51 4.09s1.71-2.41 5.36-3.68 6.72-.55 6.86-.15c-4.3-.55-9.47 1.36-11.42 5.4l-2.48-.44-.22-1.13s.22-1.39.29-1.57 2.12-2.52 2.12-2.52z" opacity=".25" style="isolation:isolate"/><path d="M637.27 286.6c-1.68 1-3.36 3.39-2.92 4.56a8.71 8.71 0 01-1.75-.15c.9-1.82 3.02-3.34 4.67-4.41zM635.34 291.27c1.66-3 8.5-4.17 10.76-2.89-1.9-.64-8.18.29-9.6 3.07z" opacity=".25" style="isolation:isolate"/><path d="M638.29 289.66c-.76.44-1 2-.14 2a14.5 14.5 0 00-1.87-.22l.55-.88zM669.79 252.67c-1.85-3.12-4-9.54-2.87-9.88a17.1 17.1 0 012.77-.49l-1.12-1.41c-.65 0-5.31-.55-3.79 2 1.5 3.11 3.53 7.11 5.01 9.78zM673 240.89l1.12 1.56a5.19 5.19 0 001.55-1.51zM680.3 242.07a11.25 11.25 0 011.41-.11l1.56-1H681zM688 240.94l.1 1.27c.77-.23 25.37.43 14.11 6.56-2.23 1 3.56-1.7 3.56-1.7-.29.24 4.76-3 4.52-2.87-1.26-.43-7.09-2.68-9.1-3.07-4.61-.13-9.4-.13-13.19-.19z" opacity=".25" style="isolation:isolate"/><path d="M701.17 246.1c-.73-.44-.39-1.41 1.12-1.22a7.76 7.76 0 012.68.88c.74-1.24-4.62-2.13-4.53-1.75a3.33 3.33 0 00-.24 1.16zM666.36 165a1.15 1.15 0 01.69 1l7.92-.8-.26-1.79-5.14.22-.59-.26.55-1.86-.4-.36zM662.2 232.44c.73.07.76 1.2.76 1.2h-1.06z" opacity=".25" style="isolation:isolate"/><g fill="#d88b64" opacity=".65"><path d="M697.51 321.87a34.78 34.78 0 01-13.63-.79c-.77-.4-2.62-1.34-3.36-1.75-5.75 1.58-23.88 6.67-29.52 7.67l-1.46-5.92-1.1-8.68c-.52-3.61-.94-8.9-.21-12.48a12.93 12.93 0 011.82-5.7c-2.18 3.11-2.36 29.57 5.4 29.49 4.6-.07 23.73-6.89 25-6.42 2.93 1 10.4 1.88 18.94 1.19l.4 1.44-1-.08c-.63.51-.79 1.3-1.28 2.03zM713.76 318.12c4.88-1.79 10.24-5.16 14.42-8.13l3.87-3.07 2.85-3a15.59 15.59 0 002-2.41l-.88.22s.29 2.63-14.23 10.66a46.75 46.75 0 01-11 4.22c.59.3 2.44 1.29 2.97 1.51zM707.47 320c-.65.14-1.6 0-2.26.15a34.3 34.3 0 00-2-2l1-.13zM548.91 241.16l1.25 2.33c6.39 5.92 24 10.41 33.64 9.49l1.54-2.63c.5-.62 2-2.47 2.41-3.13a69.94 69.94 0 01-15.62-.51c-14.8-2.41-15.56-3.59-23.22-5.55zM600.06 236.41a19.32 19.32 0 01-6.18 1.56c3.58 1.33 7.77.29 9.58-3.5a37.81 37.81 0 01-3.4 1.94zM540.67 175c-16.67-37.6 20.07-45.43 27.51-6-6.72-33.27-40.26-28.63-27.51 6z" opacity=".65" style="isolation:isolate"/><path d="M592.56 162.91a50.16 50.16 0 01-3.35-12.62c-.88-7-1-11.76-1-11.76s-6.48 1-11.37-.94c-10.15 2.7-26.5 4.16-45.11-1.6-1.53 2.19-4.25-.16-6.51-1.11a2.58 2.58 0 003-1.16 38.26 38.26 0 013.36-3.58c7.64 2 6.82 2.73 19.12 3.94 7 .44 14 .44 14 .44 3.55-.44 9.32-.93 12.78-1.75 2.44.78 15.51 3.39 18.54 3.21-6.14 2.93-5.85 13.44-5.48 17.3.56 2.72 1.35 6.94 2.02 9.63zM615 154.59c.05-5.46-4-22.43-14.52-22.33-2.48-6.35-3.29-12.19-1.24-23.29 5.65 1.7 16.8 12.16 22.12 7.38-5.31 1.74-11.58-5.27-16.79-6.57-4.46-1.64-4.18-1.93-6.72-2.34-.71.65-1.51 7.71-1.68 13.14-.15 6.38 2.22 10.75 4.16 14.08 9.3-.66 13.8 13.34 14.67 19.93z" opacity=".65" style="isolation:isolate"/><path d="M601 102.11s3.14-8.61 3.21-11.09 2.27 12 2.27 12l2.7.87a64.68 64.68 0 006.93-11c2.19-5 1.68-7.22 2-6.2s3.72 17.14 4.67 25c2.85-2.77 3.94-9 4.45-6.93s1.54 14.74 1.54 20c.53-9.95.43-20.83-1.39-28.39a76.5 76.5 0 01-4.23 12.11c-.42-7-2.7-28.35-6.79-35-.1 4.56-4 23.91-8 27.51-.55-.44-.67-8.89-2.7-16.2-3.29-11.9-3.11-11.2-5.91-18.54.08 3.82 1.82 6.06 1.31 16.28-1.08 12-1.37 13.37-2.33 19.63zM523.27 131.36c-1.17-.49-13.43-5.94-17.13-8.37s4.58 7.1 9.05 10.7c-7.39 1.56-14.11-3.31-14.11-3.31a111 111 0 019.83 31.44 46.87 46.87 0 00-4.28-5c-2.13 10.58 10.62 46.22 15.67 54.6-3.89-3.79-7.4-5.64-7.5-5a15.38 15.38 0 00.68 3.21c-.4-1-6.19-7.28-6.78-8a36.87 36.87 0 015.84 2.63 21.77 21.77 0 014.74 3.43c-4.71-11.09-8.44-16-12.92-30.37-3.4-12.43-5.88-26.39-14.16-34.67 0 0 1.83.37 5 3.29 4.45 4.11 5.38 6 7.38 7.23-.48-2.51-2.26-5.64-7.67-16.06a150 150 0 00-13.72-20.8c4.85 2.89 11 7.51 16.42 9.05-2.9-4-14.9-25.49-15.18-29.2 5.2 12.85 28 27.07 40.15 31.31a18.49 18.49 0 00-1.31 3.89zM475.78 226c11.92 6.46 26.66 9.81 38-1.36 23.88 10.72 86 44.32 109.59-5-15.78 38-54.68 29.46-84.55 17.88-9.34-3.58-17.06-6.47-23.94-10.66-12.57 10.63-27.6 7.52-39.1-.86zM476.07 205.51c4-2 12.56 4.38 12.56 4.38s-1.27 6.43 0 10.9.19-4.67 2.82-7.2 1.36 8.76 7 11.1c-1.26-3-1.46-7.4 2.24-9.35-5.44-8.62-15.84-14.19-24.62-9.83zM576.21 190.82A17 17 0 01588 177.49c10.61-3.41 16.64 2.53 17.81 7.59-3.55-10.05-18.36-5.83-23.94-1.36-3.87 3.91-4.1 3.73-5.66 7.1zM729.57 282c2.4-.36 6.93-1.09 9.63.73 3.32 2.45 8.46 4.92 4.6 6.28l-1 .8-4.16-3.36-2.19-2-2.45-1.54c-1-.27-3.35-.76-4.43-.91zM726.35 269.33c2-.51 3.07-2.7 7.67-3.06 9-.91 14.29-2.09 8 4.89-2.74-1-3.79-2.36-7.81-2.48-1.87.21-7.86.65-7.86.65zM715.63 256.2c3.65-1.17 10-4.82 16.2-6.14 7.25-1.33 9.33-1.8 9 1.46l-.44.22s-5.62-.73-8-.22c-6.97 1.93-10.39 3.81-16.76 4.68z" opacity=".65" style="isolation:isolate"/><path d="M581.18 258.17c5.38-12.05 11.36 24-14.82 11.46l1 1.31c5.35 2.43 16.79 4.77 19.27-6.35 1.53-8.36.19-8.35-2.55-12.12a51 51 0 00-2.9 5.7zM691.05 147.85c-1.28 7.29-1.73 16.66-11.14 16 6.32-2.17 10.29-10.77 11.14-16zM688.13 70.43c6.6 3 8.06 6.46 5.6 16.79-2.58 10.85-7.89 22.24-8.66 26.72s-.93 4.18-.93 4.18c-.89-10.33 6.66-29.51 6-39.61 0-4.68-.03-5.65-2.01-8.08zM705.55 74.62c3.82 9.27-10.28 37.5-11.24 44.28-.19-12.83 9.23-32.88 10.9-43.89zM716.31 88.83c.92 6-2.87 11.72-5.65 19.41s-4.18 12.56-4.18 12.56c.74-6.9 6.81-26.08 8.76-31.73zM717.38 129.63c-1.65 9.06-2.21 23-15 30.14-5.69 4-7.66 4.24-7.66 4.24 5-.41 6.42.17 12.12-3.87 9.3-6.67 9.9-21.33 10.54-30.51zM638 115.61c.3 1.46 4.46 4 7.45 7.67s7.08 11.6 7.88 14.45 4.45 10.58 6 14.38 6.18 7.71 6.18 7.71l-3.46.39-1.65-1.8a19.69 19.69 0 01-4.77-8.95 66 66 0 00-3.6-10.37 17.72 17.72 0 01-1-4c-.25-2.11-6-12.35-8.52-14-3.25-2.61-3.7-2.64-4.51-5.48zM679.35 119.34c6.79-.34 20.54 2.48 26.79 6.27a114.7 114.7 0 00-12.78-3.94 90.34 90.34 0 00-14.01-2.33z" opacity=".65" style="isolation:isolate"/></g><path d="M425.56 23.72c-5.95 27.74-7.58 56.77-1.75 84.67-6.97-27.71-5.32-57.15 1.75-84.67zM498 20.22c-19.7-10.24-43.17-9-63.65-1.76 20.09-8.38 44.39-9.59 63.65 1.76zM526.58 37.15c24 16.35 30.52 46 45 69.49-8.3-11.27-12.84-24.71-19.38-37-6.32-12.36-14.61-23.86-25.58-32.51zM487.46 34.81c40 15 52.78 69.43 91.09 88.76C539.4 105.08 527 50.9 487.46 34.81zM430.82 22c17.51 9.39 29.3 26.79 39.7 43.21-11.38-15.82-22.82-32.88-39.7-43.21zM429.07 25.47c5.52 18.64 10.83 37.58 19.85 54.89-10.04-16.78-15.44-35.97-19.85-54.89zM418.55 29.56a66.32 66.32 0 01-19.85 26.28 111 111 0 0019.85-26.28zM427.31 14.38C432.12.21 442-11.95 453.59-21.24 442.81-11.09 433.18.67 427.31 14.38z" opacity=".4" style="isolation:isolate"/><path d="M475.78 8c47 6.19 67.8 23.54 85.83 67.15C541.93 31.55 523 15.73 475.78 8zM414.47 93.79c3.4 26.72 15.43 51.63 31.53 73-17-20.7-29.27-46.07-31.53-73zM433.15 160.94c9.38 11.24 20.21 21.14 31.53 30.37-12.02-8.31-23.04-18.42-31.53-30.37zM446 106.05c6.33 22 16.15 42.87 26.86 63.07-11.72-19.64-21.63-40.73-26.86-63.07zM413.3 47.08c-14.69 22.73-19.14 51.32-13.43 77.66-6.87-26.18-2.3-55.48 13.43-77.66z" opacity=".4" style="isolation:isolate"/><path d="M389.94 93.79c.54 21.95 6.53 45.66 22.77 61.31-17.13-14.83-23.43-39.33-22.77-61.31zM565.12-7.81C595.85 6.74 612.65 36 608.91 69.85c2.34-34.2-13.55-61.78-43.79-77.66z" opacity=".4" style="isolation:isolate"/><path d="M457.09-4.31c41.77-11.72 93.39-8.14 125 24.53-32.33-31.67-83.02-35.07-125-24.53z" opacity=".4" style="isolation:isolate"/><path d="M502.64 2.41c40.93-.18 85.36 30.13 85.84 73.86-1.72-43.35-45.17-72.81-85.84-73.86z" opacity=".4" style="isolation:isolate"/><path d="M566.87 41.82c12.35 16.77 15 38.77 16.93 59-3.1-20.11-5.58-41.63-16.93-59zM519.57-3.72c18.77.29 36.81 9.37 50.22 22.18-14.16-11.89-31.58-20.72-50.22-22.18zM627 79.78c-.92-42.61-27.33-86.69-69.49-99.27C600.27-8 627.31 37 627 79.78zM614.75 13.21c5.65 8.49 10.54 17.9 12.27 28-2.84-9.81-7.6-18.93-12.27-28zM627.6 27.81c5.25 9.42 9.26 20.05 9.34 31-1.23-10.81-5.13-21.07-9.34-31zM426.14 30.14c-.19 16.94-.41 33.92 1.17 50.8-2.72-16.75-2.49-33.94-1.17-50.8zM432 61.09c1.12 20 6.71 39.25 12.27 58.39C437.59 100.68 432 81.2 432 61.09zM432.57 26.06c7.28 11.44 14.71 23 19.85 35.61-6.06-11.89-13.66-23.79-19.85-35.61zM439 20.8a121.77 121.77 0 0131.53 2.34A727.61 727.61 0 00439 20.8zM433.74 13.21C453.59.87 477.8-3.71 500.89-4.89c-23.01 2.35-46.75 6.78-67.15 18.1zM499.14 72.77C506.48 88 514 104.3 527.46 115.1c-14.26-9.91-22.05-26.64-28.32-42.33zM456.51 33.65c22.22 12.68 34.31 30.55 43.21 54-10.45-23.65-21.08-39.71-43.21-54zM442.49 25.76c10.6 1 20.57 6.12 28.91 12.56-9-5.48-18.53-10.32-28.91-12.56zM477 24.89c26 4.91 45.32 20.32 58.1 43.21-14.25-22.57-32.04-36.86-58.1-43.21zM556.36 54.08a89.35 89.35 0 0113.72 32.12 175 175 0 00-13.72-32.12z" opacity=".4" style="isolation:isolate"/><path d="M581.47-15.7C597.34-5.61 611 8.68 617.38 26.64 610 9.18 596.65-4.68 581.47-15.7zM640.15 26.93c-15.69-20-35.69-39.12-60.73-46.13 25.42 5.89 45.97 25.41 60.73 46.13zM419.43 38c-2.09 13.37-8.71 25.73-10.38 39.26-4 22.38 1.55 45.55 13 65-12.24-19.14-17.91-42.6-13.79-65.1 1.8-13.57 8.58-25.82 11.17-39.16zM409.8 128a136.8 136.8 0 0013.13 26 65.79 65.79 0 01-13.13-26zM476.17 134.31c14.17 14.61 21.74 33.77 28 52.77-7.33-18.58-14.74-37.46-28-52.77zM483 158.62c-7.95-15.57-19.63-29.5-24.74-46.43 6.12 16.5 17.74 30.32 24.74 46.43zM492.59 136.28c-11.45-19.36-27.67-36-37-56.71 10.32 20.09 26.52 36.76 37 56.71zM453.61 64.68c9.73 18.4 20.36 36.55 34.82 51.68-15.31-14.36-26.12-32.77-34.82-51.68zM467.19 54c16.32 16 19.94 40.92 36.56 56.49-17.49-14.84-21.17-39.88-36.56-56.49zM451.42 186.64a183 183 0 0015.33 10.73 40.5 40.5 0 01-15.33-10.73z" opacity=".4" style="isolation:isolate"/><g opacity=".4"><path d="M722.93 138.35c4.74 2.92 9.61-3.24 3-4.36-1.19 0-2.15 1.07-3.38.85-1.14-5.07-.14-6.36 5.06-5.82l.24.68c-1.43.09-3.21-.12-4.53.49v3.49c4.25-2.22 9.85 3.09 4.35 5.93-1.52.47-4.23.69-5.12-.9zM788 137.76c-2-.31-2.84 1.72-2.75 3.41.18 0-.64.83-.7.81-4.25-1.89-2.06-8.13-.15-11.08l.81.71c-1.6 1.6-3.7 7.75-1.18 8.93.56-1.91 1.88-4 4.18-3.5zM444.58 229.57c4.74 2.92 9.6-3.24 3-4.36-1.19 0-2.16 1.07-3.38.85-1.14-5.07-.14-6.36 5.05-5.82l.24.69c-1.42.08-3.2-.12-4.52.48v3.49c4.24-2.22 9.84 3.09 4.34 5.94-1.51.46-4.22.68-5.11-.9zM439.2 276.65c-1 .5-3.34.94-3.54-.59 1-.77 3-.43 4.09-1.53 1.61-1.29 1.82-4.08 1-6a2.3 2.3 0 00-.74-.87c-.31-.24-.15-1 .29-.74 3.28 2.11 2.06 6.6-.3 8.95 1.26 1 3.11 1.13 4.65 1.17-.27 1.96-4.31.09-5.45-.39zm-1.16-.37c0-.26-.51-.18-.68-.14-.36.27.57.44.64.14zM450.15 271.23c-1 1.2-3.44 1.9-4.55.54a3.2 3.2 0 013-4.07c3.71-.17 2.6 2.52 3 5.14.11 1.67.14 3.32.13 5-2.17.05-.09-5.31-1.58-6.61zm-3.9-.18c.59 1.39 2.74.23 3.51-.59.47-3.34-3.76-1.96-3.51.59zM491.57 277.77c7.22 2.54 8.46-6.21 2.13-4.8-.37.18-.85.31-1-.19 1-1 2.45-2.16 3.1-3.49-.71-2.52-3.51.37-4.77.89.93-4.35 8.38-3.43 4.4 1.45 5.69 1.66 2.69 8.7-2.58 7.29-.7-.1-1.47-.31-1.28-1.15z" opacity=".4" style="isolation:isolate"/><path d="M499.63 274c-.58-8.22 8.2-5.36 7 1.24-.85 5.98-7.41 4.2-7-1.24zm.81-.4c-1 5.33 5.65 5.95 5.52.61.11-4.84-6.1-6.35-5.52-.66z" opacity=".4" style="isolation:isolate"/></g><path d="M467.93 214.19C456.76 209.12 453.62 205 428 184c-41.24-32.28-58.28-75.58-38.16-116.74-2 1.41-10.15 9.17-15.92 17.44 4.76-19 22.74-43.72 37-54.45a87.2 87.2 0 00-24.29 7c9.76-9.22 30.08-20.55 31.84-21.43.38-9.58 14.26-29.73 18.44-34.37l.48.39c-.17.19-17 20.64-18.34 34.38-.45.24-17.64 9.44-29 18.88 12.88-5.09 21.28-5.49 23-5.68-12 8.67-30.46 29.92-37.42 51.94 9.49-12 14-14.65 16.05-16.22-34.52 66.55 28.85 117 75.59 147.65z"/><path d="M583.41 247.74c-20.39.59-55.06-12.63-68.7-20.43-11.81 8.43-19.94 8.32-32.53 2.75-14.3-5.52-22.69-24.87-8.86-35.87 12.51-11.72 32.74 2.64 41 13.55.66.94 4.13 6.52-1-.29-6.81-9.1-19.11-16-27.8-17-8.3-1.38-18.4 8.83-18.49 16.56-.48 20.17 28.48 35.44 47.64 19.54C530.05 236 579 253.32 597.8 245c10.89-4 19.92-13.22 25.44-25.89l.57.25c-7.42 16.86-21.25 29.05-40.4 28.38z"/><path d="M498 224.37c-1.17-2.8-.79-7.35 2.07-8.94-7.15-10.06-14.11-12.91-23.24-9.84-.39.18-2 .68-.46-.16 9.45-4 17.34-.47 24.59 10.24-3.05 1.17-3.62 6-2.59 8.66.84 2.3.07 1.35-.37.04z"/><path d="M490.66 206.08c-2.56 3.81-2.89 8.72-2.45 13.19-.65-4.53-.52-9.52 1.93-13.53z"/><path fill="none" stroke="#000" stroke-miterlimit="10" stroke-width=".62" d="M508.57 201.75c5.7 1.31 10.95 6.13 10.95 6.13s-5.25-10.29-10.95-24.09-5.69-30.65-16.64-41.38c4.6 2 13.14 11.83 13.14 11.83s-10.95-26.72-23.43-39.42a64.36 64.36 0 0017.95 10.73S488 108 481 88.11"/><path d="M574.92 194.74c.73-13.69 29.1-25.11 31.31-7-3.15-17.04-29.49-5.59-31.31 7z"/><path fill="none" stroke="#000" stroke-miterlimit="10" stroke-width=".62" d="M624.39 172.82c-2.85-3.73-4.37-4.57-4.37-4.57s5.7-10.29 8.1-34.16-.65-38.32-.65-38.32"/><path fill="none" stroke="#000" stroke-miterlimit="10" stroke-width=".62" d="M622.27 194.74s-2-18.18-2-18.84 5.25-4 6-4.3 12.12-.39 12.12-.39M627.09 182.47c-.29-2.7-.73-9.19-.73-9.19M598.55 63.72a119 119 0 019.63 37.22c5-5 8.76-24.52 7.89-32.84"/><path fill="none" stroke="#000" stroke-miterlimit="10" stroke-width=".62" d="M616.07 72.77c5.54 9 7 35.91 7 35.91s8-18.68 8.32-33.28"/><path fill="none" stroke="#000" stroke-miterlimit="10" stroke-width=".62" d="M629.06 119.92c6.28-11.38 11.53-34.45 8.76-52.26 5.25 6.57 11.09 23.21 11.09 23.21s3.07-11.82-3.06-34.45-11.39-27.15-11.39-27.15 14.45 8 16.93 10.07c-3.35-9.2-20.14-32-38.83-46.71M544.1 147.37c18.27-8.18 32 30.36 19.85 40.43-18.11 13.4-35.95-32.6-19.85-40.43zM600.15 134.63c13.7-.92 20.67 30.47 10.22 37.77-16.28 13.31-27.18-29.5-14.37-36.4"/><path fill="none" stroke="#000" stroke-miterlimit="10" stroke-width=".62" d="M508.19 79.19c5.59 29.09 60.11 57.81 93.13 56.94-14.08-19.57 7.53-49.17-3.21-73.68"/><path fill="none" stroke="#000" stroke-miterlimit="10" stroke-width=".62" d="M597.53 107.32c5.93.58 16.15 7.49 20.34 9.05s7.1-2.14 4.67-4.87-10.9-9.24-24-9.44M482.2 91.31c8.09 28.33 66.13 50.84 95.47 41.31"/><path fill="none" stroke="#000" stroke-miterlimit="10" stroke-width=".62" d="M524.49 127.66c-.93 2.14-2.39 5.59-.15 6.86s2.92.24 3.94-.88 3.41-3.55 3.41-3.55"/><path d="M593.15 238a27.55 27.55 0 0011-4.09 14.2 14.2 0 01-11 4.09zM566.48 213.4a9.19 9.19 0 01-2.24 7.2 41.4 41.4 0 002.24-7.2zM611.64 200c2.35-.4 4.56 1.51 5.54 3.5-1.69-1.45-3.32-3.03-5.54-3.5z"/><path fill="none" stroke="#000" stroke-miterlimit="10" stroke-width=".62" d="M566.19 215.83c16.07 4.1 38.64-2.94 48.08-15.08M566.19 216.32s3 1 12.94 6.52 15.38 8.46 20 6.32 11.78-23.26 15.57-28"/><path d="M581.36 257.84c.61-2.38 3.21-7.23 6-10.67l.48.39a42.63 42.63 0 00-6.19 10.35c-.29.8-.76 1.79-.29-.07zM661.7 160.38c-4.35-4.67-5.76-8.13-7.1-13.67-3.76-9.63-4.75-18.46-13.81-26.51-11.9-11.56 9.7-22.36 20-4.9 3.53 4.89 7 9.46 9.91 11.92 2 1.57 2.25 2.58-.49.41-3-2.49-6.4-7.08-9.94-12-9.7-16.62-30.3-6.84-19.07 4.09 9.17 8.14 10.23 17.06 14 26.82 1.35 5.55 2.67 8.8 7 13.39zM679.57 164c6.86-3.1 9.82-10.5 12-17.23-1.3 6.99-4.69 14.94-12 17.23z"/><path fill="none" stroke="#000" stroke-miterlimit="10" stroke-width=".62" d="M515.34 298.16c-3.8 13-11.8 57.74-2.61 75.47"/><path d="M517 312.62c1.82 14.41 5.14 29.41 12.84 41.89-8.49-12.03-11.93-27.4-12.84-41.89zM521.47 311.74c5.53 5.23 9.33 12.08 12.7 18.83-4.12-6.33-7.81-13.04-12.7-18.83z"/><path fill="none" stroke="#000" stroke-miterlimit="10" stroke-width=".62" d="M787 139.92c-44.31 40.63-80.33 7-93 46.13-5.25 16.21-2 33.28 6.28 44.82 17 23.42 47.56-2.21 91.67 28.61"/><path fill="none" stroke="#000" stroke-miterlimit="10" stroke-width=".62" d="M724.24 164.25c-2.82-2-7.4-1.95-15.86-1.26S677 165.88 677 165.88M651.47 168.41c-7.56.7-12.71 0-21.24 10-13.08 14.11-11.77 44 2.43 57.62 7.3 7.29 14.5 10.22 33.09 8.56"/><path d="M716.26 243.47c-36.09-5.46-39-77.59.29-80.19-38.49 3.39-35.55 73.99-.29 80.19z"/><path fill="none" stroke="#000" stroke-miterlimit="10" stroke-width=".62" d="M831.76 102.12c10.33-4.12 33.72-.87 50.36 31.53 27.79 46.87 28.46 149.78-31.53 159.41-75.73-3.34-77.68-171.06-18.83-190.94z"/><path fill="none" stroke="#000" stroke-miterlimit="10" stroke-width=".62" d="M829.33 90c12.25-4.62 39.54-2.88 59.27 33.48 31.92 53.11 29 172-38.85 182.35C761 301.78 757.42 113.35 829.33 90z"/><path fill="none" stroke="#000" stroke-miterlimit="10" stroke-width=".62" d="M840.58 212c11-1 9.29-29.61-1.76-29.24-11.02.91-9.3 29.56 1.76 29.24zM791.39 175.15s41.36-1.85 44.86-1.85 3.9.85 3.53 3.48-.58 3.72-.58 3.72M830 193.28a10 10 0 00-6.06-1.61c-3.28 0-33.35 2-33.35 2M790.66 195.61c6.66.25 33.73-2 38.9.15"/><path d="M828.69 194.3c-4.78-1.62-12.24-.14-17.24-.17-5.62.27-11.75.55-17.36.68 5.68-.46 11.63-.81 17.34-1.09 5.69.05 11.8-1.4 17.26.58z"/><path fill="none" stroke="#000" stroke-miterlimit="10" stroke-width=".62" d="M836.16 212.86c-.19 1.8 1.58 5.76-2.63 6.18l-40 4.87"/><path fill="none" stroke="#000" stroke-miterlimit="10" stroke-width=".62" d="M834 211.69a4.73 4.73 0 01-4.33 3.41c-3 .44-36.84 4.77-36.84 4.77"/><path d="M835.38 214.08c.93 5.37-3.22 4-6.9 4.83-10 1.33-20.21 2.6-30.29 3.64 10-1.49 20.2-2.8 30.25-4 1.94-.3 4.41-.25 6.22-1 1.04-.71.62-2.34.72-3.47z"/><path fill="none" stroke="#000" stroke-miterlimit="10" stroke-width=".62" d="M654.67 168.2c-33.77 11.72-27.23 77.55 10.81 76.24M642.83 169.38s-.44-5.59-.34-6.54.61-1.53 2.07-1.92a27.71 27.71 0 016.49-.66c.81.2.93.85 1.07 2.75"/><path fill="none" stroke="#000" stroke-miterlimit="10" stroke-width=".62" d="M654.12 162.11s.19-2.17-.9-3c-1.34-1.92-10.94-.45-11.71 1-1.77 1.22-.68 9.37-.65 10"/><path fill="none" stroke="#000" stroke-miterlimit="10" stroke-width=".62" d="M666.11 160.41a.85.85 0 00-.68-.54c-4.06.19-10 1.12-14.35 3.43-2.05.88-3.58 1.75-3.58 2.34s.24 2.09 1.17 2.36c1.07 1.14 13.25-.45 13.79-2.19 1.45-1.79.35-4.87-2.19-4.41l-2.57.56"/><path fill="none" stroke="#000" stroke-miterlimit="10" stroke-width=".62" d="M661.66 161.45c3.4-1.54 10.94-1.48 14.36-1.29 0 1-.18 3.67-2.39 3.41-3.6.17-4 .19-4.5 0s.83-2.48.22-2.48-3.14 3.82-3.26 4.14M674.6 165.18a14.21 14.21 0 012.4-.18c.17.12 0 .92 0 .92-.49-.35-11.86 2.94-9.93 0"/><path fill="none" stroke="#000" stroke-miterlimit="10" stroke-width=".1" d="M648.18 195.88c.49-5.08 4.15-8.66 8.76-8.81 2.14-.19 12.31-1 14.74-1.17s4.38.15 4.73 3.12c.94 5.12-1.52 13.47-8.13 12.7-3 .15-13.09.73-15.09.73s-5.35-1.45-5.01-6.57z"/><path fill="none" stroke="#000" stroke-miterlimit="10" stroke-width=".62" d="M653.07 232.58c-.55.88-.24 3.28 1.17 3.51.37 2 8.47 3.25 10.22 3.94 3.86.84 1-1.49-.26-2.74-.69-.58-1.49-.47-1.89-1.06-.7-1.83.36-5.11-1.79-6.68-.59-.58-2.16-.33-2.45-.33-1-.57-2-3.88-4.27-3.06-1.24.22-.8 1.71-.65 2.19s-.22.35-1 .33a1.13 1.13 0 00-1.26 1.06 4.26 4.26 0 00.53 1.66c.06.14-1.44-.08-1.62.34-.68.92 1.85 4.6 3.38 3.6"/><path d="M664 237.38a64.56 64.56 0 01-8.74-1.26 65.19 65.19 0 008.71.64zM661 232a38.81 38.81 0 01-7 .36 23 23 0 017-.36z"/><path fill="none" stroke="#000" stroke-miterlimit="10" stroke-width=".62" d="M687.89 241c7 .05 13.2.12 13.87.2 1.55.2 7.88 3.7 14.11 3.51s11.13-1.63 11.19-2.71M681.1 241h2M672.85 241h2.92M683.51 267.51c-5.87.71-16.93-20.18-18.93-24.92-.55-1.56 1.89-1.79 3.89-1.65M735.94 241.89c2.63 2.5 5.41 6.14 4.94 9.78M694.14 255.55c2.08-6.16 11.64-7.23 16.27-11.34"/><path d="M742.29 271.5l-.48-.39c4.81-6 5-10.47 5-12.64.08-2-3-4.64-4.76-5.89-3.75-1.67-10.59-.84-14.88.82a116.76 116.76 0 01-12.7 3.54c-2.68.4-2.79-.21-.11-.61a114.73 114.73 0 0012.64-3.52c4.42-1.66 11.23-2.64 15.42-.74.53.36 5.14 3.64 5 6.42-.02 2.06-.19 6.89-5.13 13.01z"/><path d="M743.41 290.09l-.62-.74c3.89-.34 8.12-12.23 3.91-14.94-5.94-4.61-12.45-6.56-20.92-4.53-3.65.52-3.12 0-.1-.61 8.15-2.2 15.42 0 21.41 4.66 4.36 2.69.58 15.7-3.68 16.16z"/><path d="M741.22 309.21l-.58-.88c3.69-2.69 7.81-7.66 4.61-16-.16-.53-2.8-2.62-4.73-4.14-3.72-2.91-7.18-6.76-11.84-5.42-2.54.54-3.21.13-.13-.61 4.4-1.4 8.67 2.48 12.35 5.54 2.94 2.32 4.74 3.78 5 4.45 3.27 8.45-1.21 14.07-4.68 17.06z"/><path d="M733.51 302.33a33.88 33.88 0 007.88-3.51c-2 2.06-4.92 3.7-7.88 3.51z"/><path fill="none" stroke="#000" stroke-miterlimit="10" stroke-width=".62" d="M713.73 318.05c5-.37 22-13.22 23.35-16.6M714 318c1.46 2.7 5.11 10.36 6.27 13.36s3 5.47 5 5.83c5.81 1 18.52-8.48 20.51-14.52 5.68-11.29-4.64-6.8-8-21.53"/><path d="M746.14 315.46c-2.74-.18-3.23 2.8-4.24 4.7-3.18 6.11-7.27 12.19-13.21 15.89 4.59-3.52 8-8.27 11-13.13 2.15-2.37 2.51-7.76 6.45-7.46zM589.37 287.4c5.21-3.42 9.85-1.58 17.34-1.16 3.48.66 5.92-.46 6.6 1.85l-.61.1c-.41-1.56-2.93-.77-6.05-1.33-4.17-.39-9.89-.92-11.65-.89a14.12 14.12 0 00-5.53 1.59c-.62.35-.65.15-.1-.16z"/><path d="M580.71 297.07c2.2-3.34 5-10.13 7.36-12.57 1.2-1.06 3.63-1 5.43-.32.62.22 1.69.7 1.8 1.43l-.61.1c-.91-1.43-5.08-1.87-6.2-.74-2.19 2.41-5.09 9-7.48 12.15-.28.4-.9.88-.3-.05z"/><path d="M575.34 292.82c.06-2.61.25-7.08.89-8.3 1.11-2.14 9.84.2 11.4.72l-.2.59c-1.29-.67-10.47-2.41-10.65-1-.55 1.05-1.2 5.22-1.26 8.05-.02.73-.2 1-.18-.06z"/><path d="M552.94 307.3c-2-1.23 4.16-11.06 5.3-12.9.41-.61.58-.51.2.06-3.22 4.84-5.3 10.84-5.36 12.11 3.74-4.07 18.48-22 23.09-20.76l-.07.62c-1.46-.21-1.84-.27-5.31 2.63-4.56 3.47-13.49 13.94-17.85 18.24z"/><path d="M574.35 286.36c-1.62-2.52-13.26-11.19-25.37-15.13 9.54 1.63 25.12 12.53 26.33 14.8z"/><path d="M571.83 283.66c-2.51-5.73-3.42-12.28-8-16.22-4.5-4.2-9.84-10.08-10.51-11.79-.82-2.09-2.59-4.71-4.89-5.21l.13-.61c3.28.71 5 4.79 5.34 5.6 6.59 9.76 15 11.87 18.47 28.05z"/><path fill="none" stroke="#000" stroke-miterlimit="10" stroke-width=".62" d="M584.17 252.62c4.23 4.6 9.2 18.61 10.29 32.48"/><path d="M577.12 273.24a25.22 25.22 0 01-9.9-2.06l-.14-.82c3.57 1.68 9.42 2.9 13.21 1.88 5.5-1.94 7.9-10.95 5.85-16.24l.59-.2c2.53 6.67-1.39 18.2-9.61 17.44z"/><path fill="none" stroke="#000" stroke-miterlimit="10" stroke-width=".21" d="M570.67 279c11.85 3.11 21.33-3.79 19.27-15.25"/><path d="M587.11 247.8c2.63 1.06 4 3.84 4.94 6.35-1.07-2.31-2.58-4.93-5.13-5.76z"/><path fill="none" stroke="#000" stroke-miterlimit="10" stroke-width=".62" d="M598.26 245.1c2.84 1.83 5.54 8.83 5.54 8.83M635.14 268c3.17-7.84 8.42-15.85 9.39-24.38M642.05 242.47c-.22 7.05-8.48 20.12-10.12 25.18"/><path fill="none" stroke="#000" stroke-miterlimit="10" stroke-width=".62" d="M626.33 280.45c-3-1.54 0-7.24 2.14-10.17 2.74-3.77 8.25-4 7.64.44"/><path d="M630 297.58c4.63-3.29 19.82-12.59 24.82-6.71l-.45.43c-4.33-5.39-19.84 3.56-24.23 6.54-.6.48-.65.16-.14-.26z"/><path d="M640.65 292.06c-5.49 0-12.35-1.55-17.56-2.49-3.55-.48-5-2.92-8.67-1.7-1.23.41-11.54 3.76-9.94 2.83 2.14-.61 7-2.47 9.73-3.41 3.94-1.3 5.34 1.13 9 1.66 5.32 1 12.64 2.59 18 2.48v.62zM652.19 330.74c-4.36-10.35-7.35-33.64-.23-39.93.5-.07-.6 1.72-1.1 2.53-1.61 2.58-2.84 6.35-2.51 12.84.57 11.38 2.58 23.46 6.65 27.2 1.87 1.72-.18 2.52-2.81-2.64z"/><path d="M650 294.76l-.05-.73c6.57-4.95 20-14.43 25.16-19.67 1.3-2.17 5.08-8.06 5.11-8.11l.53.33c0 .06-3.81 5.93-5.11 8.09-5.17 5.37-18.93 15-25.64 20.09zM650.21 339.59c-22.77-3.54-55.78-.34-77.58-3.17-5.86-1.63-19.28-6.63-28.15-13.93a219.56 219.56 0 00-11.94-8.88c-10.59-7.49-20.68-14.43-21-25.08 0-4 3.44-19.07 7.75-25.29 4.16-6 16.6-13 22.51-13.56l.06.62c-5.85.5-19 8.29-22.06 13.3-4.25 6.12-7.63 21-7.63 24.93 0 4.11 1.25 6.88 5.57 12.36 5.06 6.11 19.74 14.86 27.11 21.12 8.79 7.23 22.1 12.2 27.91 13.81 3.67 1 14.43 1.08 23.09 1.13 13.14.41 29.78-.14 42.64.32 7.4.16 9.67 2.44 16.92.4 5.9-2.06 8.89-6.32 10-14.16h.62c-.81 10.71-6.83 15.75-15.82 16.08z"/><path fill="none" stroke="#000" stroke-miterlimit="10" stroke-width=".62" d="M574.46 336.51c.59 6.13-1.17 30.86-1.17 30.86"/><path d="M570.59 335.33a105.37 105.37 0 01-1.38 15.87 105 105 0 00.76-15.85z"/><path fill="none" stroke="#000" stroke-miterlimit="10" stroke-width=".62" d="M597.72 337.38c.2 5.75-.44 30.08-.44 30.08M622.34 337.48c0 4.38-1.55 30.18-1.55 30.18"/><path d="M583 288a29 29 0 00-4.48 7.2c.48-2.77 1.95-5.73 4.48-7.2zM598.11 291.93a50 50 0 00-.78 9.54 13.6 13.6 0 01.78-9.54zM624 295.54a33.64 33.64 0 00-10.9 18.19 25.06 25.06 0 0110.9-18.19z"/><path fill="none" stroke="#000" stroke-miterlimit="10" stroke-width=".15" d="M542.78 302.74c-1.22 9.76-7 7.13-6.08-1.56 2.14-9.06 9.5-16.84 6.08 1.56z"/><path fill="none" stroke="#000" stroke-miterlimit="10" stroke-width=".15" d="M533.1 296.17c.86-4.5 7.2-10.71 10.95-8.47 5.86 1.54 4.73 29.12-2.38 26-4.81-1.96-10.37-8.14-8.57-17.53zM554.22 302.3c-.34 1.36-.15 3.11.83 2.53M555.68 304.05c.63.1 1.07 3.26 1.85 3.41s1.21-4.43 1.94-7.69"/><path fill="none" stroke="#000" stroke-miterlimit="10" stroke-width=".15" d="M561.52 297.68c1.41.73 3.16.73 3.16 1.17-.32.87-3.27 23.25-1.46 25 .49 1.75.68 2.87-.34 2.87s-5.64-1.46-9.34-4.14c-5.58-3.36-6.91-12.89-1.71-15.08.59-.29-.63-.68-.82-3.36s-.34-11 0-10.9c5.89 2.4 3.51 1.92 3.79 7.88"/><path fill="none" stroke="#000" stroke-miterlimit="10" stroke-width=".15" d="M557.63 312.91c.51.19 0 8.51 0 8.76s-3.74-.49-4.42-4.28.86-5.8 4.42-4.48zM568.14 300.94c.1-.48 5.79 1 5.79 1.36a48.6 48.6 0 00-1.41 9.63c-.66 8.71-.26 13.11 1.07 17.86-.1.29-4.77-.24-5.26-.73-2.91-4.63-1.23-22.52-.19-28.12z"/><path fill="none" stroke="#000" stroke-miterlimit="10" stroke-width=".62" d="M676.94 249.74a1.79 1.79 0 00-.47 2.4c.62.81 1.78 1.35 3.46.55a100.34 100.34 0 008.91-4.89c2.54-1.6.46-4.48-1.9-3.39a54.34 54.34 0 00-10 5.33z"/><path fill="none" stroke="#000" stroke-miterlimit="10" stroke-width=".62" d="M679.93 252.69a2.13 2.13 0 001 4.13 106.1 106.1 0 0010.25-6c.8-.73-.69-3.9-2.77-2.73"/><path fill="none" stroke="#000" stroke-miterlimit="10" stroke-width=".62" d="M681 256.82c-2.52 1-.72 5.16 1.6 3.61.89-.75 8.05-4.81 10.29-5.44 1-2-.47-4.71-2.63-3.5"/><path fill="none" stroke="#000" stroke-miterlimit="10" stroke-width=".62" d="M682.41 260.54c-2.17 1.11-.87 3.93.92 4 .76-.19 4.63-2.38 7-3.58s3.31-1.66 3.68-1.9c1.61-.49.34-4.77-1.13-4.05"/><path fill="none" stroke="#000" stroke-miterlimit="10" stroke-width=".62" d="M683.66 264.37c-2.19.8-.55 4.29 1.57 3.54 1.27-.44 9.16-4.16 10.29-4.67 2.16-.74 0-4.85-1.54-4.2"/><path fill="none" stroke="#000" stroke-miterlimit="10" stroke-width=".62" d="M685.22 267.91c-2.11.88-.31 5.23 2 3.69 1-.55 9.08-4.31 10.1-4.78 1.83-.75 0-4.62-1.78-3.58"/><path fill="none" stroke="#000" stroke-miterlimit="10" stroke-width=".62" d="M686.9 271.74a1.9 1.9 0 002 3.21c1.75-.54 8.8-3.9 9.93-4.45 2-.89.27-4.43-1.54-3.68M699.71 319.77c.69.09 1.79 2.3 4.31 5 2 2.12 4.31 3.17 4.82 3.76a2 2 0 01-.3 2.77c-2.54 2.54-15.62-10.3-8.83-11.53z"/><path fill="none" stroke="#000" stroke-miterlimit="10" stroke-width=".62" d="M700.11 320c-1.27-1.28-.44-4.66 1.5-3.72.55.4 2.3 2.88 5 4.53s4.56 2.11 5.26 2.84c1.76 6.61-8.9.1-10.37-1.89M685.41 245c2.66-1.54 3.17-3.4 2.15-4.86-.8-1.14-3.22.14-6.53 2.33s-6.9 3.59-7.25 4.76.9 3.61 3.16 2.48"/><path fill="none" stroke="#000" stroke-miterlimit="10" stroke-width=".62" d="M678.5 244c1.77-1.66 6.4-7.88 5.28-10-.49-.8-2-1.05-3 .19s-6.06 9.4-7.86 8.88"/><path fill="none" stroke="#000" stroke-miterlimit="10" stroke-width=".62" d="M674.41 242.52c-.78-.1-2.09-3.21-4.06-5a14.27 14.27 0 00-8.32-3.89M663.32 236.93c3.29-.39 8.5 10.34 12 8.92"/><path d="M651.14 327.45l-.08-.91c5.11-.63 27.89-6.85 29.11-7.42.42-.2.8 0 1.32.37 1.43.92 4.8 3.06 16.15 2.09l.06.62c-11.57 1-15.06-1.23-16.55-2.18-1.47-.74-24.4 7.09-30.01 7.43z"/><path fill="none" stroke="#000" stroke-miterlimit="10" stroke-width=".62" d="M674.46 327.51c-.35-3.25-4-2.62-7.64-.1-2.82 2-5 7.13-4.58 8.56.35 1.22 2.1 3.17 4.24 1.56"/><path fill="none" stroke="#000" stroke-miterlimit="10" stroke-width=".62" d="M672.66 337c-.54 1.31-1.95 4.52-3.94 4a2.94 2.94 0 01-2.24-3.45c.55-3 5.82-11.59 9.88-9.83 1.6.83 1.36 1.9 1.36 1.9"/><path fill="none" stroke="#000" stroke-miterlimit="10" stroke-width=".62" d="M678.35 333.73c-.05 4-1.94 9.4-4.57 9.3-1.82-.07-2.14-2-1.85-3.75.28-2.39 5.67-14 9.24-9.07"/><path d="M670.57 338.7c1.07-3.23 3.41-5.94 5.84-8.27-1.74 2.84-4.03 5.47-5.84 8.27z"/><path fill="none" stroke="#000" stroke-miterlimit="10" stroke-width=".62" d="M685.11 329.79c-5.42-4.76-10.27 14.64-5.25 14.12 1.85-.3 2.53-1.76 2.53-5.16s1.22-7 1.8-7.35"/><path d="M679.39 333.32c-2.24 1.25-2.82 4.38-3.62 6.69.69-2.48 1-6.1 3.59-7.31z"/><path fill="none" stroke="#000" stroke-miterlimit="10" stroke-width=".62" d="M692.17 327.65c-6.09-1.66-3.59 7-2.77 11 .68 2.77 1.05 4.11 2.67 3.94 2.34-.24 2.29-1.7 1.9-3s-2.82-7.2-1.75-10.56"/><path fill="none" stroke="#000" stroke-miterlimit="10" stroke-width=".62" d="M688.44 329c-5.12-1.92-5.19 7.42-4.86 10.54.19 2.59.26 3.91 1.32 4.2s2.66.33 2.84-1.13-.47-9.38.4-11.64M571.91 218.9c8.51 4 34.09-2.37 38.68-10.15M584.9 226c3.43-6 8.34-4 11.39-1.61M592.93 222.4c3.5-3.84 7.89-1.32 10.51 1.68M619.93 226.12c3.07-1.68 4.6-2.7 4.6-2.7M625.31 277a52.4 52.4 0 012.37-12.92M626 289.77a53.07 53.07 0 01-.78-10.54M640.11 257.75c3.91-4.9 11.95-13.61 11.38-13M625.2 281.09c.1-.28.21-.57.34-.86M636.41 291.4c1.85-2.68 8.9-4.57 11.14-1.9M646.48 288.63c-1.34-6-12.12-2.44-13.77 2.48"/><path fill="none" stroke="#000" stroke-miterlimit="10" stroke-width=".62" d="M630.23 290.62c-.83-1.26-.1-4.09 3.79-6.57s10.85-.63 10 1.8"/><path fill="none" stroke="#000" stroke-miterlimit="10" stroke-width=".62" d="M642.29 283.42c0-7-10.95-4.52-13.28.44-1.47 2.67-.15 5 1 5.35"/><path fill="none" stroke="#000" stroke-miterlimit="10" stroke-width=".62" d="M628.47 286c-4.7-3.49 2.17-10.44 6.67-10.51 2.63-.1 5.89 1.75 5.11 4.19"/><path fill="none" stroke="#000" stroke-miterlimit="10" stroke-width=".62" d="M627.16 281.67c-2.54-2.43 1.54-8 4.43-10 4.36-3.55 8.42 1.06 7.25 4.68"/><path d="M632.15 276.05c1.42-1.31 4.5-3.19 5.91-1-1.51-2-4.25.08-5.47 1.44z"/><path fill="none" stroke="#000" stroke-miterlimit="10" stroke-width=".62" d="M671.68 325.32c0-2.05-2.48-3.07-6-1.32M697.16 288.89c-1.81.95-.22 4 2.19 3.58s8.29-1.8 9.93-2.92c5.78-7.55-9.37-2.55-12.12-.66z"/><path fill="none" stroke="#000" stroke-miterlimit="10" stroke-width=".62" d="M698.54 292.54c-.43 1.54-.14 3.36 3.29 3.29 4.76-.33 12.78.14 10.15-5.26-.44-.58-2.12-.62-6.21.41"/><path d="M676.16 119.29a74.43 74.43 0 0132.22 7.49 112.58 112.58 0 00-32.22-7.49z"/><path fill="none" stroke="#000" stroke-miterlimit="10" stroke-width=".62" d="M700.4 163.67c18.32-5.57 15.31-27.57 18.39-44.77 2.33-12.94 7.49-21.31 5.35-26a7 7 0 00-9.14-3.68"/><path d="M706.36 119.81c1.72-9.82 7.79-29.44 9.61-33.45 5.11-10.79-3.83-15.92-10.55-11.28l-.32-.53c7.16-5 16.79.68 11.44 12.07-1.81 4-7.81 23.35-9.55 33.16-1 5.43-1.26 3.57-.63 0z"/><path d="M694.22 115.91c1.33-8.91 4.63-20.25 7.1-28.1 1.85-6.77 6-14.69 1.55-19.42-3.93-4.84-11-2.65-14.59 2.23l-.49-.37c3.76-5.22 11.42-7.41 15.57-2.25 4.62 5.12.46 13-1.45 20-2.46 7.84-5.91 19.23-7.07 28-1.11 8.34-.79 1.08-.62-.09z"/><path d="M668.43 125.84c-1.07-15.12 1-50.24 10.61-55.88 17.17-6.06 11.24 15.83 7.93 30.13a76 76 0 00-2.53 14.69c-.31 8.21-.82 2.08-.56-1.06a88.91 88.91 0 012.49-13.78c2.67-11.84 6.46-25.3.74-29.66-7.44-2.65-11.39 1.58-13.89 10.4-3.18 13.07-5.39 30.14-4.17 45.1z"/><path fill="none" stroke="#000" stroke-miterlimit="10" stroke-width=".62" d="M698.84 270.5c2.1-.91 3.73 2.6 2.44 3.43-.8.44-4.41 1.61-7.19 3s-3.32 2.15-4.49 1.79-2.44-2.34-.94-3.62"/><path fill="none" stroke="#000" stroke-miterlimit="10" stroke-width=".62" d="M690.52 278.79a2.53 2.53 0 00.58 3.17c2.08 1.6 5.82-2.39 9.6-3.43 2.59-1 3.36-1.72 3.28-2.77a2.24 2.24 0 00-2.3-2.16"/><path fill="none" stroke="#000" stroke-miterlimit="10" stroke-width=".62" d="M692.6 282.33c-.4 1.05.25 4.16 2.33 3.35s8.18-3.54 9.89-4.05a1.93 1.93 0 001.06-3.06c-.79-2.59-5.82.29-6.42.47M695.19 285.65c-1 1-.37 3.65 1.49 3.57M705.66 281.19a2.85 2.85 0 012.88 4.16M701.15 295.9a2.49 2.49 0 00-.88 2.7c1.33 3.57 8.12.95 11.24.73 2.39-.51 2.83-1.82 2.46-3s-1.21-1.51-4.35-1.25"/><path fill="none" stroke="#000" stroke-miterlimit="10" stroke-width=".62" d="M701.61 300.3c-3.91 6.3 9.15 4.15 11.53 3.87a2 2 0 001.46-3.17c-.64-1.2-6.33-1-9.46-.78"/><path fill="none" stroke="#000" stroke-miterlimit="10" stroke-width=".62" d="M702.27 304.42c-2.83 3.69 1.93 4.84 6.42 5.28 3.26.22 5.38.36 6.35-.22a2.24 2.24 0 00-.19-3.48c-1.24-.68-2.41-.37-5.7-.66a39 39 0 01-5.35-.8"/><path fill="none" stroke="#000" stroke-miterlimit="10" stroke-width=".62" d="M702.56 308.19a2.44 2.44 0 00.29 4.4c3.24 1.35 10.58 4.94 12.51 1.85.51-.87.31-2.26-2.12-2.89s-8.52-1.9-10.1-3.07"/><path fill="none" stroke="#000" stroke-miterlimit="10" stroke-width=".62" d="M704 313.13a37.57 37.57 0 007.49 3.84c2.36.88 2.9 1.46 2.83 2.58-1.16 4.2-10.22-1.48-12-2.87-1.34-1.34-2.24-2.78-.22-4.48M697.74 322.59c-4.84 1.24-1.55 6.48 1.34 10 2.26 2.8 3.72 4.36 5 3.38s1.16-1.87.48-2.62c-.82-.38-6.65-8.3-6.25-9.57"/><path fill="none" stroke="#000" stroke-miterlimit="10" stroke-width=".62" d="M695.29 325.39c-7-.19-.57 11.23.85 13.92 1.59 1.88 5-.33 3.14-2.7-1.42-1.68-4.28-8.93-3.95-10.73M700.25 244.74c-.26-1.78 5.29-.06 4.82 1-.37 1.67-5.07 1.06-4.82-1zM538.11 237.22c-6.79.95-15.54 6.05-19.92 10.22s-4.82 7-1.61 21.82M548.84 241a37.51 37.51 0 015 15"/><path d="M521.84 246.63c-5.51 4.21-6.71 6.16 1.16 3.07a40.73 40.73 0 0121.53-1.24 48.18 48.18 0 00-17.18.7c-3.43.47-6.65 2.5-10.08 2.5-1.42-1.56 3.41-4.22 4.57-5.03z"/><path d="M529.7 248.18a25.58 25.58 0 017.39-4.83 25.2 25.2 0 00-6.92 5.24zM547.23 240.88c-2.8.51-5.57 1.26-8.32 2 2.71-1 5.4-1.92 8.19-2.64z"/><path fill="none" stroke="#000" stroke-miterlimit="10" stroke-width=".15" d="M578 330.33c.25.42 5.54 1.31 5.88 1s-.34-1-.77-4.28-.44-5.21-.1-5.3 5.2.43 5.45.87.05 1.22.48 4.53.44 4.23.78 4.38 5.16.53 5.45.19-.58-2.63-.48-8.08 1.5-16.25 1.75-17.61.1-1.9-.54-1.9-5.4 0-5.54.49a96.79 96.79 0 00-1.51 11.33c-.1.35-6-.29-6-.82s.63-8.47.88-9.64.24-1.41-.49-1.6-3.84-.34-4.43.14-1.12 4.53-1.56 12.27.42 13.54.75 14.03zM600.4 308.38c-.51-.11-.78-3.94-.59-4.33 3.23-2.41 16.07-3.4 16.3 5.55 1.07 11.23-5 23.67-17.46 22-.39 0 .19-4.13.48-4.18a8.09 8.09 0 005.26-1c6.13-2.92 7.96-22.12-3.99-18.04z"/><path d="M576.8 310.18c-1.81 5-1.51 10.39-2.09 15.57-.3-5.16-.52-10.94 2.09-15.57z"/><path fill="none" stroke="#000" stroke-miterlimit="10" stroke-width=".62" d="M839.47 179c2.53.09 7.49 3.21 9.14 10.51l3.12-2.14"/><path fill="none" stroke="#000" stroke-miterlimit="10" stroke-width=".62" d="M847.64 186.05c2.82 0 5.06-.19 5.35 1.27s.49 1.94-3.4 5c1.26 3.11 1.17 11.09-2.05 17.23 3.22 2.33 3.6 3.4 2.73 4.76s-1.27 1.56-8.76 2.14"/><path fill="none" stroke="#000" stroke-miterlimit="10" stroke-width=".62" d="M836.06 217.88c4.68.23 9.3-3.4 10.51-6.82 0 0 3.21 1.95 2.72 3.12"/><path d="M838 179.82c-.46-4.13-7.39-2.33-10.34-2.78l-11.83.06c-7.78 0-15.92 0-23.67-.2 7.75-.3 15.89-.39 23.67-.42 3.48 0 8.4 0 11.84.08 2.99.49 10.11-1.01 10.33 3.26z"/><path d="M834.5 178.36c-4.32 2.18-6.12 7.25-7.2 11.68.48-4.54 2.56-10.04 7.2-11.68zM830.51 212.62c-3.59-4.52-4.68-10.8-4.18-16.45.09 5.67 1.09 11.61 4.18 16.45z"/><path fill="none" stroke="#000" stroke-miterlimit="10" stroke-width=".62" d="M705.55 320.17l2.23-.44"/><path fill="none" stroke="#000" stroke-miterlimit="10" stroke-width=".57" d="M407.05 270c-.78 20-1.51 38.33-2 50.61"/><path d="M409.58 208.68H409c.66-19.93 1-34 1-41.69l.57.58c0 7.73-.33 21.18-.99 41.11z"/><path fill="none" stroke="#000" stroke-miterlimit="10" stroke-width=".57" d="M906.57 88.69c-53.83-2-125.68-2.27-190.11-2.45M666.28 338.61c-18.68 1.16-37.42.74-43.92.72M683.41 338.43h-1.17M689.2 338.4h-1.6M695.48 338.39h-2.14M699.66 338.42c45.21.33 144.27-.51 190.91-.07 17-.11 3-15.48 3.24-17.37s24.27-11.86 24-20.49c-.5-15.58-1.69-48.1-2.65-77.84M914.63 97.5c-.13 14.48-1.08 50.23-.81 75.46M404.68 332.46c-.45 6.73.05 7.38 27.46 6.46 5.94-.34 51.56-.1 76.74-.21M890.57 338.35c15.35.33 26.86-24.13 27.24-37.86"/><path fill="none" stroke="#000" stroke-miterlimit="10" stroke-width=".57" d="M920.66 90.34c.66 7-8.5 9.63-12.44 3.82-4.18-5.32.63-13.08 7-10.86"/><path fill="none" stroke="#000" stroke-miterlimit="10" stroke-width=".57" d="M924.57 89.51c-5.8 4.2-12.91-5.54-7.14-9.78s12.91 5.53 7.14 9.78zM920.55 90.55c-6.77 6.18-14-1.28-5.17-7"/><path d="M916.91 82.51a7.42 7.42 0 005.76 6.42 5.72 5.72 0 01-5.76-6.42zM908.46 86.74c-1.64 5.66 4.72 11.54 9.82 7.58-4.9 5.01-12.52-1.75-9.82-7.58z"/><path fill="none" stroke="#000" stroke-miterlimit="10" stroke-width=".57" d="M907.59 93.24a1.69 1.69 0 102 2.69M408.48 330.13c4.56 5.29 12.84.55 11.37-6.32-.93-6.7-9.86-8.61-12.65-2.51"/><path fill="none" stroke="#000" stroke-miterlimit="10" stroke-width=".57" d="M405.17 332.37c7.05-1.27 5-13.15-2.11-11.92s-4.95 13.14 2.11 11.92zM408.7 330.2c9.15-.6 8.76-10.95-1.43-8.56"/><path d="M405.43 322a5.72 5.72 0 01.64 8.6 7.39 7.39 0 00-.64-8.6zM414.34 318.83c6.07 2.1 5.66 12.28-1.34 12.34 6.39-.93 6.56-9.59 1.34-12.34z"/><path fill="none" stroke="#000" stroke-miterlimit="10" stroke-width=".57" d="M419.63 322.71a1.69 1.69 0 11.54 3.33"/><path fill="none" stroke="#000" stroke-miterlimit="10" stroke-width=".29" d="M745.88 322c48.59-.74 110.79.6 148.25.32M898.9 259.48c.93 25.86 2 47.34 2.26 56.75M873.24 102.77c15.23.49 24.26.91 24.51 1.08.47.33 0 16-.29 38.7M724.08 99.94c30.19.24 61.65.7 87.06 1.22M433.76 210.87c.32-7.37.6-14.8.81-21.8M510.45 322.31c-31 0-79.65-.18-80.56-.54-.71-.28 0-20.37 1.17-48.72M780.89 145c-15.67-.14-41.61-.19-65.22-.21M636.41 99.31c10.9.17 22 .32 32.93.36M653.86 144.13h-26.67M437.63 191.77l-3.2.07M537.33 237.34c-38.36.06-80.86.11-94.47.17M513.09 280.69c-19.81.08-63.21.14-82.37.25M667.89 280.87c-8.61.07-17.08.07-25.75.07M804.27 280.69c-18.57.25-37.11.1-55.67.15M899.62 280.23l-11-.05M841.66 305.37c.27 7 .49 12.57.6 16.18"/><path fill="none" stroke="#000" stroke-miterlimit="10" stroke-width=".3" d="M778.63 100.24c0 6.16-.23 32.32-.43 46.65M778 251.39c0 6.16-.23 56.12-.43 70.45M488.24 232.14c0 6.16-.23 75.68-.43 90M719 117.71c-.07 9-.11 28-.07 45M652.72 140.47c0 6.17.28 12.3.14 18.38M652.34 99.41a49.14 49.14 0 000 8.23"/><path fill="none" stroke="#000" stroke-miterlimit="10" stroke-width=".57" d="M647.35 87.05l-9.19.12M671.44 86.74l-22 .29"/><path fill="none" stroke="#000" stroke-miterlimit="10" stroke-width=".62" d="M906.41 176.42L950 155c2.12 4.84 22.67 45.77 25.37 51.31-.09.28-26.73 13.89-35.51 18.25a78.56 78.56 0 01-19.31 6.06c-2.21-2.25-9.53-15.16-12.21-20.67M383.2 206l62.62 5.87c-3.43 9.09-2 29.93-4.34 44.34-1.3 9.9-2.06 17.44-2.06 17.44-7.1-.84-38.37-1.65-45.94-10.89-7.24-6.78-13.56-14.63-13.63-18s2.97-38.66 3.35-38.76z"/><path fill="none" stroke="#000" stroke-miterlimit="10" stroke-width=".62" d="M379.86 245.27c2.86 8.47 9 4.24 13.7 6 1.24 2.91.31 13.08 5.18 15.32"/><path d="M570.42 218.17c11.77 5 31.28-.48 40.1-9-2.13 4.55-4.8 10.3-7.11 14.75-1.89-2.38-7.42-5.49-10.51-1.56l-1.89-.44-1.66.05-1.6.73a23 23 0 00-2.75 3.2c-4.23-2.02-10.45-5.57-14.58-7.73z"/><path fill="url(#h)" d="M553.48 170.52c-.72-7.43 10.68-11.65 14.11-3.62 4.47 11.56-12.86 16.03-14.11 3.62z"/><path d="M565.75 171.72c-2.08 6.76-11.36 3.28-9.79-3.15s12.2-3.07 9.79 3.15z"/><path fill="url(#i)" d="M562.29 165.32c-1 3.2-6.08 1.57-5-1.61s6.07-1.56 5 1.61z"/><path fill="url(#B)" d="M601.69 159.88c-.64-7 10-11.92 13.22-3.85 3.97 11.24-12.27 16.13-13.22 3.85z"/><path d="M613.11 160.82c-2.05 6.68-10.66 3.51-9.07-2.91s11.44-3.25 9.07 2.91z"/><path fill="url(#C)" d="M610 154.58a2.43 2.43 0 11-4.63-1.49 2.43 2.43 0 114.63 1.49z"/></g></svg>