<svg xmlns="http://www.w3.org/2000/svg" xmlns:xlink="http://www.w3.org/1999/xlink" id="Layer_1" x="0" y="0" version="1.1" viewBox="0 0 1440 360" xml:space="preserve"><defs/><style>.st3,.st4{opacity:.4}.st4{fill:#1e2f81;fill-opacity:.33;enable-background:new}.st5,.st6{opacity:.6}.st6{fill:#1e2f81;fill-opacity:.33;enable-background:new}.st7,.st8,.st9{opacity:.8}.st8,.st9{fill:#1e2f81;fill-opacity:.33;enable-background:new}.st9{opacity:.5}.st10{opacity:.2}.st11{fill:#1e2f81;fill-opacity:.33}.st11,.st12{opacity:.2;enable-background:new}.st13{fill:#d3d8dd}.st14{fill:#ede2a2}.st18{fill:#f44040}.st19,.st20{opacity:.25;enable-background:new}.st20{opacity:.15}.st28{fill:#fff}.st41{fill:#323233}.st42{fill:#a0a3a3}.st49,.st50{enable-background:new}.st49{fill:#d88b64;opacity:.65}.st50{opacity:.4}.st51,.st54,.st55,.st56,.st58,.st59{fill:none;stroke:#000;stroke-width:.6207;stroke-miterlimit:10}.st54,.st55,.st56,.st58,.st59{stroke-width:.146}.st55,.st56,.st58,.st59{stroke-width:.5733}.st56,.st58,.st59{stroke-width:.2866}.st58,.st59{stroke-width:.2954}.st59{stroke-width:.2957}</style><defs><path id="SVGID_1_" d="M0 0h1440v360H0z"/></defs><clipPath id="SVGID_2_"><use overflow="visible" xlink:href="#SVGID_1_"/></clipPath><g clip-path="url(#SVGID_2_)"><path fill="#a2d3ff" d="M-13.2-44.7H1440v431.1H-13.2V-44.7z"/><g opacity=".5"><g class="st3"><path d="M1247.5-16.3h27.4v423.2h-27.4V-16.3zM1238.2-14.7h4.6v423.2h-4.6V-14.7zM1279.5-15.4h4.6v423.2h-4.6V-15.4z" class="st4"/></g><g class="st5"><path d="M1184.1-16.3h27.4v423.2h-27.4V-16.3zM1174.9-14.7h4.6v423.2h-4.6V-14.7zM1216.2-15.4h4.6v423.2h-4.6V-15.4z" class="st6"/></g><g class="st7"><path d="M1120.9-16.3h27.4v423.2h-27.4V-16.3zM1111.7-14.7h4.6v423.2h-4.6V-14.7zM1152.9-15.4h4.6v423.2h-4.6V-15.4z" class="st8"/></g><path d="M1057.5-16.3h27.4v423.2h-27.4V-16.3zM1048.3-14.7h4.6v423.2h-4.6V-14.7zM1089.6-15.4h4.6v423.2h-4.6V-15.4z" class="st9"/><g class="st10"><path d="M1311.1-16.3h27.4v423.2h-27.4V-16.3zM1301.8-14.7h4.6v423.2h-4.6V-14.7zM1343.1-15.4h4.6v423.2h-4.6V-15.4z" class="st11"/></g><path d="M740.6-16.3H768v423.2h-27.4V-16.3zM731.4-14.7h4.6v423.2h-4.6V-14.7zM772.7-15.4h4.6v423.2h-4.6V-15.4zM677.3-16.3h27.4v423.2h-27.4V-16.3zM668-14.7h4.6v423.2H668V-14.7zM709.3-15.4h4.6v423.2h-4.6V-15.4zM614-16.3h27.4v423.2H614V-16.3zM604.8-14.7h4.6v423.2h-4.6V-14.7zM646.1-15.4h4.6v423.2h-4.6V-15.4zM550.7-16.3h27.4v423.2h-27.4V-16.3zM541.4-14.7h4.6v423.2h-4.6V-14.7zM582.7-15.4h4.6v423.2h-4.6V-15.4zM994.1-16.3h27.4v423.2h-27.4V-16.3zM984.9-14.7h4.6v423.2h-4.6V-14.7zM1026.2-15.4h4.6v423.2h-4.6V-15.4zM930.8-16.3h27.4v423.2h-27.4V-16.3zM921.5-14.7h4.6v423.2h-4.6V-14.7zM962.8-15.4h4.6v423.2h-4.6V-15.4zM867.6-16.3H895v423.2h-27.4V-16.3zM858.3-14.7h4.6v423.2h-4.6V-14.7zM899.6-15.4h4.6v423.2h-4.6V-15.4zM804.2-16.3h27.4v423.2h-27.4V-16.3zM795-14.7h4.6v423.2H795V-14.7zM836.3-15.4h4.6v423.2h-4.6V-15.4zM297-16.3h27.4v423.2H297V-16.3zM287.8-14.7h4.6v423.2h-4.6V-14.7zM329.1-15.4h4.6v423.2h-4.6V-15.4z" class="st9"/><g class="st7"><path d="M233.7-16.3H261v423.2h-27.4V-16.3zM224.4-14.7h4.6v423.2h-4.6V-14.7zM265.7-15.4h4.6v423.2h-4.6V-15.4z" class="st8"/></g><g class="st5"><path d="M170.4-16.3h27.4v423.2h-27.4V-16.3zM161.2-14.7h4.6v423.2h-4.6V-14.7zM202.5-15.4h4.6v423.2h-4.6V-15.4z" class="st6"/></g><g class="st3"><path d="M107.1-16.3h27.4v423.2h-27.4V-16.3zM97.8-14.7h4.6v423.2h-4.6V-14.7zM139.1-15.4h4.6v423.2h-4.6V-15.4z" class="st4"/></g><path d="M487.2-16.3h27.4v423.2h-27.4V-16.3zM477.9-14.7h4.6v423.2h-4.6V-14.7zM519.2-15.4h4.6v423.2h-4.6V-15.4zM424-16.3h27.4v423.2H424V-16.3zM414.7-14.7h4.6v423.2h-4.6V-14.7zM456-15.4h4.6v423.2H456V-15.4zM360.6-16.3H388v423.2h-27.4V-16.3zM351.4-14.7h4.6v423.2h-4.6V-14.7zM392.7-15.4h4.6v423.2h-4.6V-15.4z" class="st9"/><g class="st10"><path d="M43.7-16.3h27.4v423.2H43.7V-16.3zM34.4-14.7H39v423.2h-4.6V-14.7zM75.7-15.4h4.6v423.2h-4.6V-15.4z" class="st11"/></g></g><path d="M382.9 207.1s-4.3 31.2-5.3 36.9c-4 14 12.6 26.1 28 26.8-.2 9.6-2.7 44.3-2.9 49.7 1.1-.3 1.8 0 2.3 0 .4-14.1 1.6-36.8 2-50.8 0 0-3-.7-7.5-2.7-7.7-4-15.5-13.5-19.1-20.3-1.1-2.9-.3-5.7-.3-5.7l2.8-33.9zM402.6 332.1c-1.8 7.2-2.2 10.5 12 10.4 9.6.1 469 1 482.4-.2 13.4-1.2 21-3.4 21.3-24.4.8-20-1.4-77.2-1.7-90.1 0 0 1.8 4.6 2.9 5.3 1.2.7 11.1 1.5 30.2-8.2 19.1-9.6 28.8-15.7 27.9-19.1-.9-3.4-27.7-50.9-27.7-50.9l-34.7 17 .3-74.6-.8.1-512.1 234.7zM409.4 206l-.1 2.4-2.1-.2 2.3-41.7.9.8-1 38.7zM638.1 87.2l.1-.8c74.3-1.3 193.1-.7 268.8.9l-.4 1.3s-98 3.9-177.4 3.4-91.1-4.8-91.1-4.8z" class="st12"/><path d="M412 169l-1.8-1.9c0 13-.6 28.2-.9 41.3 7.7.7 28.4 2.7 36.3 3.5.1-.1-1 3.3-1 3.4l-.5 2.4c-.5 3.5-.5 9-.7 12.6-.8 13.6-2 29.9-4.2 43.4-10.1-.8-22.4-1.9-32.3-3.9-.5 15.8-1.2 35-2 50.8.7.1 1.5.5 2 .9l1.1-1.6 1.7-1.4 1.4-.7 1.9-.2 1.2.1 1.3.5c.9.5 2.1 1.4 2.8 2.2.4.7.9 1.7 1.2 2.4h.7l.7.2.4.4.2.7-.1.7-.5.8-.9.4c-.2.9-.8 2.6-1.2 3.4l-1.4 1.6-1.6.9-1.9.5-1.8-.2c-.7-.3-2.2-.9-2.9-1.4l-.7-.8-.8 1.2a12 12 0 01-3.1 1.3c0 .5-.1 2.5-.1 3.1l.2.8.5.8 2.3 1.1 3.2.7c3.1.1 9.5.4 12.5.3 26.5-1.2 59-.3 85.5-.7.4-5.5 1.3-14.3 2.2-19.9.8-4.2 3-16.7 4.3-20.6-1.1-1.5-2.2-3.9-2.9-5.5-.5-1.6-.7-4-.5-5.7 1.2-5.5 2.4-13.2 5.2-18.1l-.5-.1c-.6-1.5-1.4-6.2-1.7-7.9l-.4-4.7.3-3.1.8-2.4 1.9-2.5c1.6-1.4 5.2-4.3 7-5.3 1.7-1 5.5-3.1 7.3-3.8 1.6-.6 4.4-1.5 6.1-1.8-7.5-2.8-16.2-6.4-23.2-10.3-2.8 2.1-7.8 4.7-11 5.9l-3.6.6-3.6.1c-5.6-.1-12-2.9-17-5.2-2.5-1.7-5.8-4.3-7.6-6.7-1.5-2.4-3.7-5.8-4.3-8.6-2.3-.5-5.9-3.1-7.8-4.5-3.4-2.6-10.4-7.9-13.8-10.5-11.3-9-23.9-18.6-33.9-29zM638.2 87.2l9.2-.2 1.5 3.4.4-.8c.1-.4.4-2.2.3-2.6 5.4 0 16.7-.1 22-.3-.7 2.2-1.3 7.8-1.5 10.2-.4 2.3-1.2 8.1-1.2 10.4l-.7 7.2c0 3.3.2 8.3.6 11.5-1.7-1.9-5.1-6.1-6.5-8.1-1-1.4-3.1-4.2-4.1-5.6l-3-2.8-3.1-1.9-2.8-.9-2.7-.3-2.8.3-2.3.9-2.1 1.6-1.2 2-.3 1.9v1.7c.1.7.5 2.2.9 2.8.5.9 2.1 2.3 2.8 2.9 1.3 1.3 3.7 4 4.9 5.5 1.9 3.2 4.4 7.6 5 11.4.7 2.2 2.3 5.2 3.1 7.3l.9 3.8c.3 1.1 1.1 3.6 1.5 4.7l1.4 2.5c.9 1.2 2.7 3.4 3.7 4.5-1.2.1-3.7.3-4.9.7l-2.8 1.1-.2-1.5-.5-1.2-.9-.8-2-.6c-2.7.3-6.4.4-8.8 1.7-.4.2-1 1.5-1.2 1.8-.2 1.1.1 7.3.1 8.5-.3.3-2 1-2.4 1.2h-.9l-10.9.3-2.1 1.3c-1.2-1.4-2.8-3.4-4.3-4.5 2-3.8 3.9-11.1 5-15.3l2-9.5c.8-6.5 2-17.2 2-23.7l2-3.6 2.2-5.9c2-7 3.9-15.7 4.7-23z" class="st13"/><path d="M642.8 169.4c0-.5-.4-7.1-.1-7.4l.8-.8c.4-.3 6.4-.8 7.1-.9l.8.1.5.7.1 1.7c-.8.4-3.6 1.8-4.3 2.3l-.2.4c0 .4.3 1.9.6 2.3l2 .7c-1.9.2-5.3.3-7.3.9zM626 289.8c-.7-3-1.1-7.6-.8-10.6l.4 1.1.6.2.2.6.7.5-.3 1.1c0 .4.1 1.4.3 1.7.2.4.8 1.1 1.2 1.4 0 1 .2 2 .9 2.8l.6.3.3 1.7-4.1-.8zM619.9 226.1c.9-1.6 2.7-4.8 3.4-6.4l1.2 3.8c-1 .7-3.4 2-4.6 2.6zM622.3 337.4l.1 1.9c12.3.1 31.7-.1 43.9-.7v-1.1s-1.1 1.1-2 .5c-.9-.6-2-1.2-2-2.3 0-1.1.6-3 .6-3l-1.1.9c-4.3 7.7-17.7 4.3-25.1 3.9-5.2-.1-14.4-.1-14.4-.1zM667.4 323.2c2.1-.5 4.5.4 4.3 2.1 1.4-.3 2.7.7 2.8 2.2 1.5-.5 3 .6 3.3 2.1 1.1-1 2.7-.4 3.5.4.8-1.3 3-.9 3.9-.2.1-1.1 2.6-1 3.1-.9 0 0 .7-.9 1.6-1.2.9-.3 2.1-.2 2.1-.2.4-1.9 2-2 3.3-2.1-.3-1.6 1.2-2.5 2.3-2.8l-.1-.7c-1.7.5-13.5.4-15.5-1.7l-1.7-.8c-3 .9-10 2.9-12.9 3.8zM682.2 338.4l.4-3.2 1-3c0 1.5-.1 4.6-.2 6.1l-1.2.1zM687.6 338.4c-.1-1.7.2-5.2.4-7 .2 2 1 5 1.2 6.9l-1.6.1zM693.6 338.5l-1.5-4.6c0-.8-.2-3.4 0-4.1 1 2.4 2.2 6.4 3.4 8.7h-1.9z" class="st13"/><path d="M702.3 338.5h-2.6c.1-1.8-3.7-6.5-3.8-8.8-.3-1.7-.5-3.3-.5-3.3 0 .9 5.4 9.9 7.5 9.7 2.5 0 2.8-1.5 1.3-3.4-1.3-.6-5.6-7.5-5.7-8.5 0 0 2.6 3.7 4.8 5.2 2.3 1.6 3.6 2.4 4.2 2.3.6-.1 1.7-.6 1.8-1.2.1-.6.3-1.6-1-2.5-2.1-1.1-5.1-3.7-5.9-5.3 2.2 1.4 3.2 2.1 6.7 3.7 1.8.7 2.1-.4 2.6-.7.4-.4 1.2-1.8-.6-2.6-2.2-1.1-4.8-2.4-5.2-2.8l1.7-.3 2.8.9 2.2.3c1.5.2 1.9-1.2 1.8-2.2l3.6 7.1 2.3 5.2s2.2 4.7 4.1 5.7c5.1 2 15.9-5.7 19.2-10.3 2.1-3.5 3.7-7.1 3.9-8.1.2-1.1.3-3-1.4-4.5-2.2-1.8-4-3.5-5-5 1.7-.8 6-6.4 5.8-9.1 0-2.4-.4-5.8-.9-6.9-1-2.1-1.7-2.1-3.1-3.3 3.3-.6 6.5-8 5.9-11 .1-4.2-4.4-6.1-6.5-7.3l.9-1.2c2-1.6 4.8-9.6 4-12.8-.6-2-4.5-5.2-6.1-5.7 0 0 .3-2.2-.7-4a34.1 34.1 0 00-4.3-5.8c17.1-.4 42.3 7.5 56 17.6 1.7 5.3 12.9 24.9 19.2 29.8 10.5 11.3 31.9 20.8 48.7 14.9 18.2-6.7 22.2-15.2 31.6-28.8 10.7-17.5 16.3-45.8 16.9-65.4 1.2 2.4 5.7 10.6 7.1 13l-.2.9c.3 11.5 1.2 34.8 1.6 46l.6 16c-.2 6 1.3 13.4-.1 20.2-1.4 8.1-6.2 18.4-12.8 25.6-4.5 4.8-8.2 6.7-13.4 6.7h-31.5c-27 .3-83.6-.5-110.4-.1-11.4.2-36 .6-47.1.1zM645.8 251.2c1.2-1.3 4.4-5.1 5.5-6.3 1.8 0 5.4.1 7.2.2 1.7-.1 5.2-.4 7-.5 3.9 7.5 8.4 16.3 15 21.9-1.5 2.6-4.5 6.9-6.2 9.4-5.9 5.1-13.6 10.4-19.7 15.3l-1.2-1.2-1.6-.7-1.9-.1-2.4.5-1-1c.7-.9-2.2-3.1-2.6-2.8.4-.8-1-2.3-1.6-2.4 0 0-.1-1.6-.5-2.2-.7-.9-1.1-1.2-1.6-1.6.8-1.4-.7-2.6-1.4-3.3.6-2.5-.3-4.6-2.7-5.8.1-.4.1-1.1 0-1.5l-.9-1.1c.4-1.5 3.3-7.2 4-8.7.8-1.8 5.3-6.6 6.6-8.1zM704.6 163.3l-4.3.4c5.1-1.7 12.7-6.9 14.4-15.4 1.3-5 3.1-24 3.7-27.5l1.3-7 3-10c.7-2.4 2-6.3 1.9-8.9l-.8-2.7-1-1.5-1.7-1.4-1.9-.7-1.1-.2c-.5.1-2.5.2-2.9.5.1-.2 1-2.8 1.2-2.9 62.5.2 127.6.3 190.1 2.5-.1.7.1 2 .2 2.6.2.4.6 1.6.8 2l-.8 1.5.4.9.9.6h.4l1.1-.4c.6.2 1.8.8 2.3 1 .7.2 2 .5 2.7.5-.4 22.4-1.1 53.2-.8 75.5l-7.4 3.5s-.4-6.7-4.5-20.4c-4-13.7-13.2-32.5-13.2-32.5s-7.8-13.8-17.7-22.8c-12.6-11.2-28.5-14.1-38.3-11.7l-5.6 1.8-7.3 3.9-4.1 2.7c-5 3.6-10.1 8.8-13.8 13.7-2.1 2.5-6 9.1-7.6 12l-3.1 6c-1.3 2.6-3.3 8.3-4.3 11-17.9 16.2-40 23.8-63.1 24.3 0 0-.2-1.4-6.5-1.8-6.1-.2-12.6.9-12.6.9z" class="st13"/><path d="M904.7 177.4c14.1-7.2 31.1-15.3 45.3-22.4 7.6 15.9 17.6 35.5 25.4 51.3-7.1 3.9-21.3 11.1-28.4 14.7-2.8 1.5-8.6 4.3-11.5 5.5-4.5 1.7-10.2 3.3-14.9 4.1-4.6-6-8.8-13.8-12.1-20.6.3-7.9.2-17.7-.9-25.5-.2 0-2.9-7.1-2.9-7.1zM380.3 236.9c.8-8.8 1.7-22.2 2.9-30.9 19.3 1.8 43.1 4 62.5 5.9 0 0-1.6 4.5-1.8 8.9-.2 4.5-.7 13.6-.7 13.6-.6 12.2-2 27.2-3.9 39.2l-28.2-2.9c-3.8-.4-11.5-3.3-15.5-6.2-4-2.9-10-10-10-10-1.8-2.5-5.4-6.6-5.8-9.8l.5-7.8z" class="st14"/><linearGradient id="SVGID_3_" x1="933.19" x2="945.41" y1="131.42" y2="201.01" gradientTransform="matrix(1 0 0 -1 0 362)" gradientUnits="userSpaceOnUse"><stop offset="0" stop-color="#d3bb7f"/><stop offset="1" stop-color="#d3bb7f" stop-opacity="0"/></linearGradient><path fill="url(#SVGID_3_)" d="M904.7 177.4c14.1-7.2 31.1-15.3 45.3-22.4 7.6 15.9 17.6 35.5 25.4 51.3-7.1 3.9-21.3 11.1-28.4 14.7-2.8 1.5-8.6 4.3-11.5 5.5-4.5 1.7-10.2 3.3-14.9 4.1-4.6-6-8.8-13.8-12.1-20.6.3-7.9.2-17.7-.9-25.5-.2 0-2.9-7.1-2.9-7.1z"/><linearGradient id="SVGID_4_" x1="398.88" x2="429.38" y1="98.54" y2="156.86" gradientTransform="matrix(1 0 0 -1 0 362)" gradientUnits="userSpaceOnUse"><stop offset="0" stop-color="#d3bb7f"/><stop offset="1" stop-color="#d3bb7f" stop-opacity="0"/></linearGradient><path fill="url(#SVGID_4_)" d="M380.3 236.9c.8-8.8 1.7-22.2 2.9-30.9 19.3 1.8 43.1 4 62.5 5.9 0 0-1.6 4.5-1.8 8.9-.2 4.5-.7 13.6-.7 13.6-.6 12.2-2 27.2-3.9 39.2l-28.2-2.9c-3.8-.4-11.5-3.3-15.5-6.2-4-2.9-10-10-10-10-1.8-2.5-5.4-6.6-5.8-9.8l.5-7.8z"/><path fill="#c4ae70" d="M380.9 247.9c3.5 4.5 8.4 2.2 12.2 3.2l.6.5c.6 2.5.6 5.7 1 8.2.4 2.1 1.5 4.5 2.9 6.1-3.4-2-7.3-6.2-10-9l-3-3.5-3.7-5.5z"/><path d="M908.1 85.4c-2.8 2.3-1.3 9.7 3.4 11.4 3.2 1.5 5.7 0 7-.8 2-1.7 2-4 2.4-5.4 11.6-.6 4-17.6-4.5-9.9-.5 1-.8 1.8-.9 2.6-.6-.2-2.8-.3-3.5-.3l-1.6.6c-.8.3-2 1.2-2.3 1.8zM399.1 323.8s1-2.7 3.4-3.3c3.2-.4 3.8.2 4.6 1 3.2-6.5 12-5.1 12.8 3.6-.1 7.7-7.9 9.4-11.3 5.2-4.4 5.5-12.2-.5-9.5-6.5z" class="st18"/><path d="M907.6 93.2c-2.2 1.3.6 4.5 2.3 2.6l-1.6-1.5-.7-1.1zM419.6 322.7l1 .1.8.6c.1.3.2 1.1.2 1.4l-.4.7-1.2.5.1-1.4c-.1-.3-.3-1.5-.5-1.9z" class="st13"/><path d="M398.8 325.6c-.2 3.4 5.7 8.4 8 3.9.8-1.6 0 .8.7.6.6-.2 1.9-1.8 2-2 .2-1 .1-2.1.1-2.9.3 5.1 4.1 2.2 5.5.5.2-.8 1.3 4.4-1 5.2a7.8 7.8 0 003.4-2.3c-1.2 2.3.7 2 1.4.8-2.1 3.4-7.4 4.2-10.2.8-3.1 4.2-8.3 1.9-9.8-1.9l-.2-1.1.1-1.8v.2zM915.5 85.8s-4.7 4.1-3.5 5.7c1.6 2.3 5.2 4.5 2 5.9 2.7-.1 7.1-1.9 5.2-5.9l1.4-1.2 1.7.1 1.6-.5 1.7-1.3c.2-.5 1.2-2.4 1.2-2.9-2.9 4.5-8.6 3.3-9.8-2 0 0-.2-.8-.9-.4-1 .9-.6 1.8-.6 2.5zM906.8 94.7c.4.8 1.8 0 1.8 0l1.2 1.1c-1.3.8-2.7.7-3-1.1zM419.9 324.4s1.5.3 1.6-.1c.1-.4.4.4-.2 1-.6.6-1.2.6-1.2.6 0-.4-.1-1.1-.2-1.5z" class="st19"/><path d="M894.5 322.7s-1.8.3-1.3 1.3c.5.9 9.8 10.3 3 13.4 6.7-3.3-.8-12.4-1.7-14.7zM915.2 225.2s-5.7-10.5-7.1-13.6c.2-1.3.2-1.6.8-.4 2.1 4 4.3 8.5 6.2 11.6l.1 2.4zM914.6 98.1c-.2 2.3-2.5 3.4-4.9 1.7-2.3-1.7-2.9-4.9-2.9-4.9s0 1.5 1.3 1.4c1.4-.1 1.4-.6 1.4-.6s1 1 2 1.2c1.8.4 1.8.5 3.1.5v.7zM404.7 333.3c1.9 0 3.7-1.8 3.7-1.8 1.1 2.7 10.5 2.7 11.9-.8 1.4-2.1 1.3-6.4 1.3-6.4s0 .9-.8 1.5l-.8.5c-1.7 5.3-6.3 8.4-11.6 3.9-.7.8-1.8 1.8-2.9 2.1h-.5c0 .1-.2.9-.3 1zM407 270.8c2.2.8 31.6 4.5 33.8 3.9 1.6-.5 1.4-11.7 2.1-23.2 1.2-16.4 1.5-28 2.4-38.4.3-1.4-1.4 4.1-1.4 6.5-.7 13.7-.6 21.8-2.3 35.1-1.2 7.1-1.4 13.4-2.1 18.7-8.2-.6-24.3-2.1-32.5-3.8v1.2z" class="st20"/><path d="M637.6 13.9c1 .2 7.9 16.6 8.5 17.8 0 0 4.1 11.1 6 25s.2 21.3.2 21.3-1.4-3.6-4.5-11c-3-7.4-6.9-12.9-6.9-12.9 2.5 16-2.1 40.2-9.5 54.4 0 0-.3 12.8-1.6 21.5s-4.8 24.2-7.9 28.8c2 1.1 4.5 4.7 4.5 4.7s1.3-.9 2-1.1c.8-.3 12.5-.6 12.5-.6l2.8-1.2s-.1-1-.4-5c-.3-4 .6-5.3 1.7-6 1.1-.7 5.9-1.7 9.1-1.5 3.2.2 3.4 4.1 3.4 4.1s2.3-1.2 3.7-1.4c1.3-.2 5.3-.2 4.7-.5s-5.6-6.8-6.6-10.8c-1-4-1.6-7.1-3-9.4-1.4-2.3-1.2-2.7-2.4-7.6-1.2-5-5.1-10.1-8.1-12.7-5.8-3.9-7.4-12.2-.3-15.1 3.3-1.1 11.4-.2 14.2 3.1 2.7 3.3 11.4 14.6 12.4 15.8 1 1.1.5.2.5-7.3s2.2-24.8 3.4-33.2c1.4-13 7.2-21.2 17.2-16.9 0 0 5.5-5.9 10.7-5 5.2.8 7.3 6.3 7.3 8.5s.4 1.1.4 1.1c13.4-6.7 14.5 8 9.9 15.3 2.9-1.1 9.1-1.4 9.7 5.2.5 4.7-2.1 10.2-4.6 19.6-5.1 18 .4 47-20.4 52.8 1.5-.5 21.2-3.1 24.5.8 21.5-.1 50.3-10.6 65.8-25.5 4.5-16.7 21.4-45.9 44.1-52.6 47.7-13.5 75 54.1 80.2 88 5.8 37.4 4.6 86.2-25.9 121.4-21 22.6-44.5 17.7-59 10.4-20.1-12.2-28.9-30.4-34.3-42.5-11.7-7.8-29.7-15.2-44.6-17.2-4.5-.7-12.8-1.1-13.6-1-.8.1 1 .5 3.2 4.1 2.1 3.6 1.8 5.2 1.8 5.9 0 .7.5.6 1.2.8.6.2 4.3 3.8 5.1 5.1.8 1.3.8 3.2-.7 7.4s-3.7 6.8-4.3 7.3c-.6.5 3.4 1.9 5.5 3.9 2.1 1.9 1.6 5.6.2 9.7-1.5 4.1-4.2 5.5-4.7 5.6-.6.1.5.6 1.3 1.4.9.8 1.4.9 1.9 3.3 1.9 5.7-.7 11.7-4.6 15.1-.9 1.1-.4 1.1.2 2.1 2.8 3.4 7.9 4 4.7 10.9-2.2 7.5-15.6 19.3-23.4 16.5-2.2-1.2-3.4-4.4-5.1-8.4-1.8-4-5-10.4-5-10.4.9 5.4-8.5.3-10.1-.5-1.2-.6-1.4-.4-.3.8 1.1 1.2 4 2.8 6.1 3.9s2.7 1.9 1.8 3.5c-1 1.6-2.7.8-5.1-.4-2.4-1.2-4.9-3.2-3.5-1.4 1.3 1.8 4.4 3.1 5.5 4.4 1.1 1.3.1 3.3-1.5 3.3s-4.8-2.4-6.3-4c-3.6-4.5-3.1-2.8-.4 1.5 1.4 2.2 4.3 4.3 4.3 5.3s-1 2.3-2.2 2.1c-1.2-.2-4-3.4-5.6-5.7-1.6-2.3-1.9-3.4-2-2.7 0 .7 1.2 4.1 2.2 6.4 1.1 2.3 2.3 2.9 1.9 4.4-.4 1.4-2.1 1.7-2.9 1.4-1.6-.1-4.5-9.6-5.1-10.3-.4 0-.2 2.8.4 5.3.6 2.5 1.8 4.8 1.8 5.8 0 1.1-1.4 1.8-2.6 1.8-3.2-.4-3.2-9.3-3.8-10.9-.9-.6-.4 9.8-.5 10.6 0 1.6-1.6 1.6-2.8 1.4-2.5-.4-1.4-10-1.3-11 0-.8-.9 1.3-1.2 2.9-.7 2.9.5 4.8-1.1 7.3-.8 1.1-1.9 1.6-2.9 1-1.2-.6-1-4.8-1.3-5.7 0 0-1.1 2.7-2 3.8-2.6 2.6-4.6-.4-4-2.9.1-.9 0-.5-.4 0-1.2 1.8-3.7 2.6-5-.1-.8-1.5-.2-1.8-.2-1.8-4.1 2.2-5.8-2.4-3.5-5.8.6-1.2-.5.4-1.9 2.4s-2.4 2-6.1 3.7c-3.7 1.6-6.2 1.6-12.7 0-6.5-1.6-21.7-.5-21.7-.5s-.6 10.9-1.6 28.2c-1 17.3-2.1 15.4-2.1 15.4l-103 3.9-6.9-9.1c-10.6-15.5-4.1-61.8 1.9-78.6-3.5-4.5-4.1-7.5-4.1-9.7 0-2.1 1.5-15.6 5.3-21.5-.8-4.2-4.1-13.9-2-18.3 2-4.4 8.9-10.2 23.7-15-8.8-1.9-23.7-10.7-23.7-10.7-13.9 12.5-41.1 7.7-49.5-14-47.8-32.5-114.9-82.8-80.4-153.4-8.8 6.7-17.2 18.9-17.2 18.9s-.5-6.8 12.1-26.2 27.7-30.8 27.7-30.8-11.6.6-25.1 6.7C391.7 10.3 411.9 0 411.9 0l225.7 13.9zm-10.8 202.7s-1-4.3-1.8-2.9-2.8 5.4-2.8 5.4l4.6-2.5zm22.7 28.2L643 252s-3.3 5.9-5.2 11c1.2.7 1.1 2.6 1.1 2.6 2.9.6 3.3 4.6 3 6.3 0 0 2.3 1.3 1.4 3.4 1.1.4 2.6 2 2 4 .8.3 2.4.6 1.9 2.4 1 .3 3 1.8 2.5 3 .5.2 1.1.9 1.1.9 2.5-1 6-.3 7.6 1.6 0 0 12.9-10.4 16.8-13.2 3.9-2.8 3.9-3.2 5.2-5.2 1.3-2 4.7-7.4 4.7-7.4s-3.9-3.7-8.5-10.5c-4.6-6.9-7-12.4-7-12.4s-.9.2-6.4.5-8.5-.2-8.5-.2l-5.2 6zm-16.8 41.8c-.4-.1-.4-1.6-.4-1.6s-1.5-.5-1.5-3.3c-2.4-1-1.3-4.4-1.3-4.4s-.9-.1-.9-1.3c-.5 0-.9-.5-.9-.5s-.2.8-.1 3.9c.1 3 .8 6.6.8 6.6s3.5.5 4.3.6zm39.4 33.8c.9 0 4.3.4 3.9 2.5 1.2-.9 3.2 1.1 3 2.1.9-.3 3.6.7 3.3 2.2.8-.3 2.9-.7 3.5.5.7-.7 3.2-1.4 4.1-.3.1-.5 3.2-1.7 3.6-.7.1-1.1 2.9-2.1 3.7-1.5.3-1.6 2-2.3 3.4-2.2-.2-1.4 1.1-3 2.6-2.9l-.2-.7c-2.2.7-14.3-.2-16.7-2.1l-1-.6c-3.3.9-9.9 2.8-13.2 3.7z" class="st20"/><linearGradient id="SVGID_5_" x1="469.2" x2="598.06" y1="139.02" y2="231.03" gradientTransform="matrix(1 0 0 -1 0 362)" gradientUnits="userSpaceOnUse"><stop offset=".35" stop-color="#f2b58d"/><stop offset=".55" stop-color="#efb189"/><stop offset=".75" stop-color="#e5a67c"/><stop offset=".85" stop-color="#de9e74"/></linearGradient><path fill="url(#SVGID_5_)" d="M475.9 226c-4.5-2.5-11.2-15.2-8.7-21.8 2.9-7.5 6.7-11.5 14.2-13.8 8.9-1.9 22.1 6.8 27.6 11.8l1.4.2s6.8 3 9 5.4c-4-10-8.9-17.7-12.7-29.6-4-14-4.9-25.4-14.6-35.7 1.8.5 10.3 8.3 13.1 11.8-4.2-10.4-15.2-30.7-22.6-38.7 0 0 4.6 3.6 8.9 6.1 4.3 2.5 8.3 3.9 8.3 3.9-3.9-6-12.8-21.9-15.3-29l2.6 3.8c5.6 10.2 26.5 23.1 37.6 27.2-.4 1.5-2.1 3.9-.7 6.5 1.2 1.5 2.9 1.5 4.1.1 2-2.1 2.9-2.9 3.8-4 6.2 1.7 9.2 2.8 20.1 4.2 7 .6 20.6.2 25.5-1.8l1.7.5c-.4 0 16.3 3.7 17.3 3-3.9 1.9-6.4 8.3-5.6 14.3 1 9.7 2.9 25.7 15.5 24.4 9.2-1.9 10.9-14.3 8.5-22.5-1.1-7.3-6.7-19-14.3-17.5-4.9-7.4-4.5-19.3-2.6-27.3 0 0 4.4 1 7.5 2.5 3.1 1.5 10.9 5.9 12.2 6.4 3 1.6 7.4-.3 5.9-4-.6-1-5-4.7-9.7-7-4.7-2.2-13-3.5-14.8-3.2.1-2.7 1.8-9.2 2.1-16.3.4-10.3.1-12.4-.9-18.7 3.8 8.6 6.4 19.7 7.9 29 .1 1.1.3 4 .5 5.1 4.9-5.4 7.5-22.1 7.9-27.7l.6.7s3.4 8.8 4.1 15.3c1.4 11.7 1.6 12.2 2 19.3 1.1-1.4 3.8-10.6 4.4-12.4 2.2 10.2 1.8 29 .5 38.7 0 6.4-4.5 27.4-8 33.4 1.3 1.2 3.3 2.9 4.2 4.4-.2.5-2.6 1.8-3.5 2.7-.5.5-.4.8-.4 1.6.3 3.8 1.5 13.6 1.9 17.3-1.7 6.2-1.2 19.3 1.2 25.4-6.1 13.5-20.2 28.7-39 27.7-23.4-.3-51.2-10.7-69.7-20.5 0 0-6.6 5.8-14.8 6.6-11.1.2-20-4.5-24.2-7.8z"/><linearGradient id="SVGID_6_" x1="649.87" x2="709.02" y1="216.07" y2="258.31" gradientTransform="matrix(1 0 0 -1 0 362)" gradientUnits="userSpaceOnUse"><stop offset=".35" stop-color="#f2b58d"/><stop offset=".55" stop-color="#efb189"/><stop offset=".75" stop-color="#e5a67c"/><stop offset=".85" stop-color="#de9e74"/></linearGradient><path fill="url(#SVGID_6_)" d="M637.8 115.4c-1.4-8.2 8.7-11.8 16.4-6.7 4.4 2.8 7.2 8 7.2 8 1.7 2.4 5.4 7 7.3 9.1-1.6-6.6 1.6-37.7 3.9-44.6 1.4-3.9 3.1-9.2 5.9-10.8 4.4-2.1 6.5-1.8 9.3-.2l.3-.1c4.8-7.6 17.4-6.2 17 4.6.8-.6 4.5-2.1 7-1.8 2.5.3 6 3.4 5.6 7.4-.4 4-2.5 8.7-2.5 8.7l1.2-.4s4.2-.2 6.4 2.2c2.2 2.4 2.4 5.3.9 10-1.5 4.8-3.7 11.6-4.3 14.5-3.2 11.7-.5 33.2-9.8 42.4-7.8 7.1-10.3 6-17.2 6.6-2.8.3-12.5 1.3-15.2 1.5l-.2-1-2 .2-.3-1.6.5-.2c.4-.9 1-2.1.8-3.1l-.4-.1h-6.4l-3.1.3-.4-.6-3.7.4c-1.8-1.5-6.5-8.4-6.6-11.6-.7-4.7-3.3-8.8-4.4-13-.4-1.8-2.5-6.4-4.5-9.4-3-5.3-7.4-6-8.7-10.7z"/><linearGradient id="SVGID_7_" x1="672.15" x2="719.44" y1="20.09" y2="99.31" gradientTransform="matrix(1 0 0 -1 0 362)" gradientUnits="userSpaceOnUse"><stop offset=".35" stop-color="#f2b58d"/><stop offset=".55" stop-color="#efb189"/><stop offset=".75" stop-color="#e5a67c"/><stop offset=".85" stop-color="#de9e74"/></linearGradient><path fill="url(#SVGID_7_)" d="M648.7 297.8c.3-.9 1-2.8 1.4-3.6.6 0 4.1-2.7 4.6-3.1 2.9-2.4 9-7.1 12.1-9.3l6.8-5.3s1.3-1.1 1.9-2.4c1.9-3.3 3.4-5.3 5-7.7.5.2 1.8.9 2.3 1.1l.7-.1.3.5.7.1c-.2.2-.4.9-.4 1.2 0 .5.2 1.4.5 1.9l.7.5c.2.1.7.2.9.3-.7 1.3-.5 2.4.9 3.1.3.1.9.1 1.2 0l-.4.5c-.3 1.7.7 3 2.4 3.2-.9 1.5.3 3.4 1.8 3.6l.3.4c-.3 1.1.7 3.5 2.5 2.9.3-.1-.4.6-.4.6-.2 1.1.5 2.8 1.9 2.9l-.2.7.4 1.3.6.8c.1.1.8.4 1 .4 0 .5 0 1.5.2 2l.3.6.9.6 1.1.2-.9 1.3.1 1.5c.3.4 1 1.2 1.4 1.7l-.3.3-.4 1.8.2 1c.2.3.7.7 1 .9l-.6 1.1v1.1l.4 1.1.5.6c-1.2 1.2-1.5 2.7-.3 4-.2.2-.8.9-1 1.2l-.1.9c0 .5.3 1.3.5 1.8l-.2.2c-1.2-.3-2.3 1.2-1.7 2.4.1.3.2 1.3.2 1.3-1.3-.1-2 .8-2.1 2l-.3.1s-8.5.4-11.3-.2c-3.3-.8-4.8-1.9-5.5-2.3 0 0-25.8 7.3-29.5 7.5-2.7-9.3-2.2-12.4-3.1-19.9 0 0-.2-4.1.1-6.4.7-2.4.9-2.9.9-2.9zm51.5-48c-2.9.8-5 3.1-6 5.7.1.4.4 1.4.6 1.9v.8l-.4.8c1.4.3 2.6 2.6 1.8 3.8 1.4.7 2.3 2.3 1.6 4 1.8.3 2.8 2.3 1.4 3.7 0 0 1.5-.4 1.9.8.4 1.2.9 1.6.5 2.1s0 .4 0 .4c2-.3 2.9 1.6 2.2 3.2l-.9.7c2-.8 3.8.8 3.5 2.9l-.6.7c2.7-.1 3.6 1.9 2.8 4.3 1.4-.3 2.5 1.1 1.7 2.8-.9 1.7-1.4 1.3-2.6 2h1.4s2.6-.4 3.1.5c1.2 2.3 0 3.4-1.5 4.2 1.3 0 2-.5 3.3.9 2.1 3-4.4 3.9-5.1 3.9l3 .4s3 .2 3.2 1.2c.2 1 .1 2.4-2 2.9-2.2.5-7 .4-7 .4 2 .4 5.8.8 7.8.8 0 0 1.2.2 1.6.8.4.6.8 3-.9 3.4-4 .5-6-.2-8.8-.4 0 0 4.6 1.5 4.7 1.5.1 0 4.4.8 5 1.6 1.9 6.3-9.7 1.1-11.4.7l5.4 2.8c.6.3 4.1 1.6 4.5 2.2 5.8-1.8 19.8-11.5 23.2-16.6l.7-.4.1.3 1.4 4.1 1.8 3.5c.9-1.5 4.3-3 5.4-8.2.5-4-.6-8.7-1.2-9.2a639 639 0 01-2.6-2.2c4.1-.5 7.3-9.4 5.5-13.5-1.3-2.7-6-4.7-6-4.7l2.2-3.3c.7-1.4 4.7-9.5 1.7-12-1.6-1.9-3.5-3.9-4.2-3.9-.7 0-.9-.4-.9-.4.6-3-2.6-7.6-5.2-9.7H727l-.4.8s-1.5.9-6.8 1.8c-5.3.8-8.5-.1-8.5-.1l-.9-.3-.1.3c-2.7 1.9-7.2 3.8-10.1 5.3z"/><linearGradient id="SVGID_8_" x1="559.69" x2="572.17" y1="94.96" y2="115.87" gradientTransform="matrix(1 0 0 -1 0 362)" gradientUnits="userSpaceOnUse"><stop offset=".35" stop-color="#f2b58d"/><stop offset=".55" stop-color="#efb189"/><stop offset=".75" stop-color="#e5a67c"/><stop offset=".85" stop-color="#de9e74"/></linearGradient><path fill="url(#SVGID_8_)" d="M550.8 241.7l-1.8-.6c1.6 2.3 4.9 11.2 4.7 14.5 1 1.6 3.6 4.6 4.9 6 2 2.1 7.4 6.8 8.8 9.2 1.8.4 6.2 2.6 11.9 1.9 8.5-1.1 10.1-16.4 5-20.2l3.5-5.3c-5.4.4-17.1-.5-23.5-2-3.5-.7-13.5-3.5-13.5-3.5z"/><linearGradient id="SVGID_9_" x1="378.44" x2="627.98" y1="302.09" y2="235.52" gradientTransform="matrix(1 0 0 -1 0 362)" gradientUnits="userSpaceOnUse"><stop offset="0" stop-color="#4f3721"/><stop offset=".31" stop-color="#48331d"/><stop offset=".76" stop-color="#362712"/><stop offset="1" stop-color="#291f0a"/></linearGradient><path fill="url(#SVGID_9_)" d="M378.1 74c-1 2.1-2.6 6.4-3.2 8.6.9-.6 3.8-4.6 4.5-5.5 1.8-2 5.9-6.4 7.9-8.1.7-.6 2.4-2.2 3.2-2.6-.3 1-2.1 4.8-2.6 5.8-1.6 4.1-3.4 9.7-4.4 14-1 4.3-1.6 10.4-2 14.8 0 2.2.2 6.6.3 8.8.3 4.7 1.9 11.2 3 15.8 1.3 4.3 3.8 10.2 5.7 14.3 1.3 2.4 4 7.2 5.5 9.5 1.8 2.4 5.5 7.6 7.3 10 2.5 2.8 8.1 9.2 10.7 11.8 5 4.6 12 11.1 17.4 15.3 5.5 4.4 12.9 10.6 18.5 14.8 4.9 3.7 11.2 9.1 16.7 11.7h.7c-3.8-10 6.3-23.1 17.3-23 6.6-.2 20.1 8 23.7 11.7 2.8.7 6.1 2.4 8.4 4.1.5.4 1.8 1.4 2.4 1.7-1.1-1.9-6.4-13.8-7.4-16.1l-3.6-8c-.8-1.9-2.7-8.3-3.3-10.4-2-7.4-4.1-17-7.8-23.7-1.4-1.9-3.3-4.7-4.9-6.5 3.3 1.6 6.5 4.9 9.1 7.5l2.1 2.4 1.1.7c-.5-1.8-3.3-7.4-4.2-9.2-4.3-8.9-10-19-16.3-26.6l-.3-.8c.8.4 3 2 3.7 2.5 1 .6 3.5 2.1 4.4 2.7 2.1 1 5 3 7.3 3.3-3.9-6.5-8.5-14.2-11.6-21.1-.8-1.6-2.6-5.3-3-7.1 1.2 1.7 3.6 5.2 4.8 6.9l3.9 4.3c6.3 6.2 14.8 11.4 22.7 15.4 6.1 2.9 13.7 6.1 20.2 7.8 13.3 3.3 28 4.4 41.5 1.1 2.9.9 7 1.7 9.9 2.4 3.9.4 9.7 1.1 13.7 1.1-1-1.3-2.7-4.9-3.4-6.4l-1.1-3.8-.5-4.5.1-4.9c.2-1.9.6-5.8 1-7.5.4-.8 1.5-7.9 1.7-9 1.3-7.1 2.2-15.8 2.1-23-.2-3.6-1-8.4-1.8-11.9 4.6 11.1 8.1 23.9 9 35.9 1.9-1.7 3.4-6.1 4.3-8.4l1.4-4.5 1.1-5.5c.5-2.3 1.1-7 1.2-9.3l1.5 2.6 1.8 6.2c2.1 8 3 18.3 3.7 26.5 1.4-3.4 3.3-8.8 4.3-12.3 1.4 7.3 1.8 16.2 1.7 23.6 3.9-7.3 6.4-16.8 8-24.9 1.5-8.5 2.1-18.4.7-27 1.8 1.9 3.8 6 5 8.3 2 4.4 4.5 10 6.1 14.5 1-3.5.7-9.1.6-12.7-.2-3.2-.9-9.6-1.5-12.7-.6-3.3-2.7-10.9-3.6-14.2-2.5-7.2-5.5-16.5-10.3-22.3 5.3 3.1 11.9 6.9 17.1 10.2-3.1-7.1-8.8-15-13.6-21.1-3.2-4.2-11.3-12.8-15-16.6l-9.8-8.5-176.1-10.8c-2.4 3.2-7.6 10.2-9.7 13.5a211 211 0 00-5 9.3c-1 2.3-2.4 5.7-2.8 8.1l-.4 1.7V16c-10.4 5.4-21.7 12.6-30.6 20.1 5.1-2.2 12.9-4.3 18.4-5.5 1.2-.3 3.8-.7 5.1-.8-.7.7-7 6.1-7.9 6.9-3.2 3.4-7.7 8.3-10.6 11.8-4.3 5.4-13.1 19.6-15.2 25.5z"/><linearGradient id="SVGID_10_" x1="523.16" x2="530.59" y1="231.2" y2="229.22" gradientTransform="matrix(1 0 0 -1 0 362)" gradientUnits="userSpaceOnUse"><stop offset="0" stop-color="#4f3721"/><stop offset=".31" stop-color="#48331d"/><stop offset=".76" stop-color="#362712"/><stop offset="1" stop-color="#291f0a"/></linearGradient><path fill="url(#SVGID_10_)" d="M523.2 133.2s-.2-1.8.1-2.7c.3-.9 1.2-2.9 1.2-2.9 1.5.5 5.8 2 7.1 2.6-1.3 1.4-3.5 3.7-4.9 5l-1.4-.1-1.5-.8-.6-1.1z"/><linearGradient id="SVGID_11_" x1="597.43" x2="622.61" y1="256.21" y2="249.49" gradientTransform="matrix(1 0 0 -1 0 362)" gradientUnits="userSpaceOnUse"><stop offset="0" stop-color="#4f3721"/><stop offset=".31" stop-color="#48331d"/><stop offset=".76" stop-color="#362712"/><stop offset="1" stop-color="#291f0a"/></linearGradient><path fill="url(#SVGID_11_)" d="M602.2 108.5c-1.1-.4-3.3-1-4.4-1.1l.9-5.4 4.6.3 5.9 1.4 5.4 2 4.2 2.5 3.3 2.7 1.2 1.7v1.5l-.5 1.3-1.3 1.1-2.1.3c-2.6-.6-6-2.7-8.4-4-1.7-.9-7.1-3.7-8.8-4.3z"/><path d="M537.9 164.4c-1.7-29.9 29.1-20.6 30.7 9.4.5 14.9-10.6 23.3-22.8 9.4-4.5-4.7-7.5-13-7.9-18.8zM590.3 149.4c0-3.5.8-11 5.7-13.4 1.2.2 3.9.3 5.2.2-.3-.3-.7-1.2-.8-1.6 9.1-1.3 14.1 14.2 14.8 21.5.4 3.8.2 8.5-1.4 11.8-4.7 9.3-16.5 9.2-20.3-2.5-2.3-6.3-3.1-13.8-3.2-16zM570.7 216.7c-1-.2-3.4-.5-4.4-.7l.5.6c1.1.5 4.3 1.9 5.4 2.5l3.8.7c9.1.8 17.7-.6 27-5.3 7.1-3.6 7.4-5.3 10-10.4.4-.6 1.4-2.3 1.6-3l-.4-.1c-11.8 12.7-26.6 16.9-43.5 15.7z" class="st28"/><path d="M584.8 226.1c2.3-3.3 3.5-4.7 7.9-3.9l.3.3c1.1-3 6.6-2.2 8.1-.9l2.3 2.3c-3.4 9.1-12.3 5.7-18.6 2.2z" class="st18"/><linearGradient id="SVGID_12_" x1="569.49" x2="598.63" y1="88.17" y2="84.33" gradientTransform="matrix(1 0 0 -1 0 362)" gradientUnits="userSpaceOnUse"><stop offset="0" stop-color="#a91f18"/><stop offset=".08" stop-color="#b01f16"/><stop offset=".19" stop-color="#c21e12"/><stop offset=".31" stop-color="#e01c0b"/><stop offset=".68" stop-color="#e01c0b"/><stop offset="1" stop-color="#a91f18"/></linearGradient><path fill="url(#SVGID_12_)" d="M571.1 280.5l-.2-1.4c3 .5 6.1.9 8.9.4l1.9-.4c1-.3 2.3-1 3.2-1.4 4.1-2.7 5.6-8 5.4-12.7 2.3 5.9 3.6 13.8 4.3 20.1-.7-.3-2.1-.8-2.9-.9-.6 0-2 0-2.6.1-.3.4-1 1.1-1.3 1.4-2.3-.6-5.7-1.4-8-1.5-.8 0-2.5 0-3.2.6l-.4 1.5-1.7.1-.3-.7c-.4-.3-1.5-1.5-2-1.6-.2-.8-.9-3.1-1.1-3.6z"/><linearGradient id="SVGID_13_" x1="570.34" x2="602.49" y1="10.97" y2="6.74" gradientTransform="matrix(1 0 0 -1 0 362)" gradientUnits="userSpaceOnUse"><stop offset="0" stop-color="#a91f18"/><stop offset=".08" stop-color="#b01f16"/><stop offset=".19" stop-color="#c21e12"/><stop offset=".31" stop-color="#e01c0b"/><stop offset=".68" stop-color="#e01c0b"/><stop offset="1" stop-color="#a91f18"/></linearGradient><path fill="url(#SVGID_13_)" d="M573.2 368.7c.5-9.4 1.6-22.8 1.2-32.1 6.3.6 16.8.8 23.2.8.4.6-.1 9.9-.1 10.9l-.3 20.1-24 .3z"/><linearGradient id="SVGID_14_" x1="546.49" x2="596.18" y1="90.01" y2="11.33" gradientTransform="matrix(1 0 0 -1 0 362)" gradientUnits="userSpaceOnUse"><stop offset="0" stop-color="#293b60"/><stop offset="1" stop-color="#19253a"/></linearGradient><path fill="url(#SVGID_14_)" d="M533 253.2c4.7-2.4 12.2-4.8 16.3-2.8 4.1 2 3.9 5 5.5 6.8 1.6 1.8 4.1 4.8 4.1 4.8 2.6 2.7 6.3 5.8 8.4 8.9 1.5 2 2.7 5.5 3.4 7.9.4 1.2 1.3 3.8 1.6 5 .7.7 1.8 1.6 2.3 2.5l.5-.3 1.1.2.1-1.1.8-.7.9-.4c.8-.2 5.1.6 6 .7.8.2 2.9.7 3.6 1l.5-.8c1.4-1 3.6-.8 5.2-.7.3.3.9.7 1.3.8l.4.7c4.4 0 10.2.8 14.6 1.2.6.1 2.8.1 3.2.6l.2.5c1.4-.4 3.2-1 4.6-.6.6.1 1.9.7 2.4 1l1.8.6c3.8 1 11.4 2.2 15.2 2.7.8 0 3 .1 3.7.3 2.8-1.4 6.5-2.7 9.7-2.9.7.1 2.3.5 3 .9l1.2 1.2c-1.3 1.1-3.1 2.2-4.6 3.2-.7 1.1-1.5 4.5-1.8 5.8-.2 2.6-.2 6.3 0 8.9.3 5.5 1.4 12.5 2.8 17.8 2 .1 5-1 7-1.4 1.1-.3 6.8-1.4 7.6-1.9.3 1.7-.6 4-1.2 5.5-.6 1.7-1.9 3.8-3.1 5.1-.4.5-1.2 1.4-1.6 1.8-.6.4-1.9 1.2-2.5 1.6-.9.4-2.7.9-3.7 1l-3.8.4c-1.4-.3-5-.8-6.5-1-2.3-.2-7.9-.5-10.3-.6-11.5-.1-28.6.1-40.1-.1-3.5-.1-15 0-18.4-.7.5 9.8-.7 21.9-1.4 31.7l-63-1.9c-.9-4.5-1.6-10.7-1.8-15.3.2-2.5.5-8.9.6-11.5 1.1-13.3 2.7-28.4 6.5-41.3-1.2-1.5-2.5-3.7-3.4-7.5-1.1-6.6 4.3-21.8 6.8-26.1 2.9-5.3 9.3-8.7 14.3-11.5z"/><linearGradient id="SVGID_15_" x1="590.93" x2="617.66" y1="52.29" y2="56.61" gradientTransform="matrix(1 0 0 -1 0 362)" gradientUnits="userSpaceOnUse"><stop offset="0" stop-color="#293b60"/><stop offset="1" stop-color="#19253a"/></linearGradient><path fill="url(#SVGID_15_)" d="M598 245.2c2.1 1 3.4 3.8 3.4 3.8s1.4 2.9 2.8 6 20.3 15.6 20.9 23.9c.5 8.3 0 6.4.5 8.3.5 1.9.6 2.6.6 2.6-1-.2-3.3-.7-4.4-.9-1.5-.5-3.8-1.6-5.4-1.8l-1.1.1c-.4.1-1.8.7-2.1.7-.2-.4-.6-.8-1-1-.9-.2-2.5-.4-3.5-.3l-12.9-1.1h-.7l-.2-.5-.5-.3c-.5-4.8-1.4-10.3-2.5-15-.7-2.3-2.4-7.4-3.4-9.6-.6-1.4-2-4.6-2.9-5.9-.2-.2-1.2-1.3-1.4-1.6l3.5-5.4 5.6-.5c1.2-.2 3.6-1 4.7-1.5zm22.6 123.1c.5-8.2 1.6-22.7 1.7-30.9-7.3.1-17.3.1-24.5-.1.1 4.2-.1 13.5-.3 17.7.1 3.3-.1 10.1-.4 13.4l23.5-.1z"/><linearGradient id="SVGID_16_" x1="567.33" x2="590.28" y1="93.66" y2="93.66" gradientTransform="matrix(1 0 0 -1 0 362)" gradientUnits="userSpaceOnUse"><stop offset="0" stop-color="#293b60"/><stop offset="1" stop-color="#19253a"/></linearGradient><path fill="url(#SVGID_16_)" d="M569 271.5l-1.1-.5h-.6c.5.6 1.4 2.8 1.7 3.5 0 0 1 2.1 1 2.4.1.7.4 1.7.7 2.1 10.7 2.7 19.9-1.7 19.6-13.9l-2.3-6.3-1.1-1.8c-.1.7.4 2.1.2 4-.2 1.3-.5 5.9-3.2 8.9s-4.3 3.4-6.9 3.2c-4.4-.6-5.8-.9-8-1.6z"/><linearGradient id="SVGID_17_" x1="525.99" x2="551.12" y1="100.21" y2="126.96" gradientTransform="matrix(1 0 0 -1 0 362)" gradientUnits="userSpaceOnUse"><stop offset="0" stop-color="#bfad95"/><stop offset=".23" stop-color="#b9a790"/><stop offset=".51" stop-color="#aa9881"/><stop offset=".83" stop-color="#907e6a"/><stop offset=".85" stop-color="#8e7c68"/></linearGradient><path fill="url(#SVGID_17_)" d="M514.6 255.6c-.2 4.4 1.2 9.5 2 13.8.4-1.1 1.6-3.7 2.2-4.8l2.5-3.3 3-2.5c3-2.5 7.7-5.1 11.2-6.8 4.4-1.9 11.7-4.2 16.2 0 .4.8 1.4 2.4 2 3.1-.4-4.8-2.4-9.9-4.8-14.1-1.9-.6-5.8-2-7.7-2.6-1.2-.4-2.9-1.2-4.2-1.1-4.8 1-10.3 3.6-14.3 6.4-1.2.7-3.4 2.4-4.3 3.4-.7.8-2.3 2.6-2.9 3.5l-.9 2.8v2.2z"/><linearGradient id="SVGID_18_" x1="617.8" x2="642.82" y1="106.63" y2="133.26" gradientTransform="matrix(1 0 0 -1 0 362)" gradientUnits="userSpaceOnUse"><stop offset="0" stop-color="#bfad95"/><stop offset=".23" stop-color="#b9a790"/><stop offset=".51" stop-color="#aa9881"/><stop offset=".83" stop-color="#907e6a"/><stop offset=".85" stop-color="#8e7c68"/></linearGradient><path fill="url(#SVGID_18_)" d="M600.4 244.3c3.6-1.7 8.3-4.9 11.3-7.6l4.6-5.1c1-1.4 2.9-4.3 3.7-5.8l1.5-.5c.6-.4 2.5-1.6 3.1-1.9.4.9 2.1 4.3 2.6 5.3l2.3 3.5 3.2 3.8 3.3 3.1c1.4 1 4.5 2.7 6.1 3.4l-.7 3.7-2.4 6.5c-1.9 4-5.6 10.7-7.2 14.8l-1 .5-2.2 2.1c-1 1.2-2.6 3.6-3.2 5l-.2 2.4s.1 2-.2.7c-2.7-9.6-15.6-16.3-21-23.6-.8-1.9-1-2.8-2-4.3-.9-1.6-2.2-4.2-3.8-5.1l2.2-.9zm42.3 6.6c-.5 1.4-1.7 5.1-2.3 6.4 2.8-3.3 8.1-9.2 10.9-12.5-1.9-.3-4.9-.6-6.7-1.2-.5 2-1.2 5.4-1.9 7.3z"/><linearGradient id="SVGID_19_" x1="567.33" x2="581.06" y1="42.84" y2="57.46" gradientTransform="matrix(1 0 0 -1 0 362)" gradientUnits="userSpaceOnUse"><stop offset="0" stop-color="#8e7c68"/><stop offset=".02" stop-color="#907e6a"/><stop offset=".4" stop-color="#aa9881"/><stop offset=".73" stop-color="#b9a790"/><stop offset="1" stop-color="#bfad95"/></linearGradient><path fill="url(#SVGID_19_)" d="M568.1 301.2c-.1-1 5.1.8 5 .7.2.2.9.2.8.6-1.6 6.5-1.7 13.1-1.6 19.6 0 1.7.5 5.1 1.1 6.8 0 .3.3.7.1 1-.7.2-1.2 0-3-.2-1.2-.1-2.2-.4-2.4-.7-.2-.3-.9-3.3-1.2-4.8-.5-4.5-.2-6.7-.1-10.6.3-3.9.6-8.7 1.3-12.4z"/><linearGradient id="SVGID_20_" x1="582.6" x2="601.11" y1="39.5" y2="59.21" gradientTransform="matrix(1 0 0 -1 0 362)" gradientUnits="userSpaceOnUse"><stop offset="0" stop-color="#8e7c68"/><stop offset=".02" stop-color="#907e6a"/><stop offset=".4" stop-color="#aa9881"/><stop offset=".73" stop-color="#b9a790"/><stop offset="1" stop-color="#bfad95"/></linearGradient><path fill="url(#SVGID_20_)" d="M578.3 305.1s.3-.9.4-1.1c.7-.7 4.1-.2 4.7-.1 1 .4 0 1.8.1 2.7-.2 3-.6 5.7-.7 8.5.7.6 3.7.8 4.7.9.7 0 1.3.1 1.4-.1 0-1.4.8-8.1 1.1-9.4 0 0 .3-1.9.4-2 .1-.1.9-.3 1.7-.3.7-.1 3.6-.1 3.8-.1.2 0 .7.3.6.9-.9 7-1.9 13.8-1.9 20.8a60.27 60.27 0 00.5 5.5s.2.5-.3.5c-.8.1-4.7-.1-5.3-.3-.3-.9-.6-4.2-.8-5.2-.1-.5-.2-3.3-.4-3.7l-.2-.1c-1.5-.4-3.6-.7-5.2-.7 0 0-.3 0-.3.9-.1 2.3.7 6.5 1.2 8.5-.5.7-5.6-.3-6-.9-.1-.3-.5-3.2-.6-4.4-.4-7.2.1-14 1.1-20.8z"/><linearGradient id="SVGID_21_" x1="600.05" x2="617.71" y1="40.63" y2="59.43" gradientTransform="matrix(1 0 0 -1 0 362)" gradientUnits="userSpaceOnUse"><stop offset="0" stop-color="#8e7c68"/><stop offset=".02" stop-color="#907e6a"/><stop offset=".4" stop-color="#aa9881"/><stop offset=".73" stop-color="#b9a790"/><stop offset="1" stop-color="#bfad95"/></linearGradient><path fill="url(#SVGID_21_)" d="M600 303.9s-.2 0-.2.5c0 .8 0 3.5.7 4 .2 0 1.9-.4 2.9-.5 9.7-.7 7 21.7-4.2 19.5l-.1.2s-.3 1.1-.4 2.3c-.1 1.2 0 1.7 0 1.7 11 1.6 17.1-8.2 17.6-18.1 1.2-11.1-8.2-13.2-16.3-9.6z"/><linearGradient id="SVGID_22_" x1="553.89" x2="568.61" y1="48.65" y2="64.31" gradientTransform="matrix(1 0 0 -1 0 362)" gradientUnits="userSpaceOnUse"><stop offset="0" stop-color="#8e7c68"/><stop offset=".02" stop-color="#907e6a"/><stop offset=".4" stop-color="#aa9881"/><stop offset=".73" stop-color="#b9a790"/><stop offset="1" stop-color="#bfad95"/></linearGradient><path fill="url(#SVGID_22_)" d="M551 293.2c.4.1 2.1.9 2.5 1.1.5.4 1.6.6 1.6 1.5-.2 2-.4 3.6-.3 5.5l-.8 1.6c0 .3 0 1 .1 1.3 0 0 .1.8.5.8s.5-.3.5-.3c.6-.8 1.1-.3 1.2.4.1 0 .9 3.4 1.6 2.2.3-.6 1.5-6.5 1.5-7.1.2-.2 1.9-2.2 2.1-2.4.5.1.7.4 1.6.6.6.1 1.3.3 1.4.3.5.4-.6 4.8-.5 5-.7 5.4-1.9 12.5-1.2 18.2.3 2.8 2.6 6.1-2.2 4.3-3.5-1-10.7-4.9-11.6-9.6-1.5-4.5-.2-7.3 2.9-9.3v-.2s-.9-1.2-1-2.8c-.2-4.1-.2-8-.1-10.9l.2-.2zm2.1 21.8c-.4 2.5 1.4 6.6 4.4 6.8l.1-.1c.1-1.5.3-6.7.1-8.3l-.1-.4c-1.8-.9-4.2-.6-4.5 2z"/><linearGradient id="SVGID_23_" x1="538.7" x2="551.41" y1="58.3" y2="71.83" gradientTransform="matrix(1 0 0 -1 0 362)" gradientUnits="userSpaceOnUse"><stop offset="0" stop-color="#8e7c68"/><stop offset=".02" stop-color="#907e6a"/><stop offset=".4" stop-color="#aa9881"/><stop offset=".73" stop-color="#b9a790"/><stop offset="1" stop-color="#bfad95"/></linearGradient><path fill="url(#SVGID_23_)" d="M537.2 289.7c12.3-9.7 11.4 12.6 9.4 19.5-1.7 8.3-7.7 3.8-10.7-.1-4.4-5.5-4.3-15 1.3-19.4zm.5 18c4.1 5.1 5.2-6.4 5.6-8.5 0-1.1 1.5-8.9-2-7.3-3.5 3.6-6.5 11.1-3.6 15.8z"/><path d="M621.7 213c.4 1.9 1.5 6.3 1.9 8.2l1.8 4.5 2.2 4.2 3.4 4.4 3.9 3.9 3 2.2 3.3 1.8c1.3.6 4.1 1.5 5.4 1.9 0 0 3.6 1 7.6.9 6.1-.1 8.4-.2 11.1-.5l-.8-1.6c-.9-2.3 3.6-2 4-1.9 0 0-1.8-2.6-2.6-2.8-.9-.1-.7.2-.7.2s1.5 1.8.4 1.8c-3-.5-8.5-2.2-10.6-2.8l-.6-.5-.4-.7-.7-.3-.3-.4c-2 .8-3.1-1.9-3.5-2.9 0 0-.3-.6.6-.8l.9-.1v-.8c-.9-1.8.6-2.3 1.9-2.2v-.9c-.4-2 2.4-1.9 3.4-.4.6.7 1.3 2 1.3 2 .7.1 1.7-.2 2.7.3.5.4 1.5 2.2 1.5 2.4v1.8c1.6 0 1.8.4 5.4 1.7 4 2.1 4.1 3.6 5.6 5.6h2.6c1.4-1.8 4.1-5.4 5.5-7.2l1.3-.5 1 .2.4.9c0 .6 0 1.3-.2 1.8-.6 1.2-2 3.7-2.7 4.8h2.2c.7-.3 2.7-1.3 3.5-1.4l.7.1.5.7.1.6.4-.1h13.3c.9.5 7.2 2.5 8.3 2.9 1.2.4 4.4.7 5.6.7 2.4 0 5.7-.5 8.1-1 1.1-.1 2.2-.6 3.1-1.2v-.5c-21.1 1.7-32-12.9-35-33.5-1.9-22.6 7.4-45.2 32.4-44.1-1.7-1.1-.7-1.9-10.4-1.7-8.4.4-30.9 2.6-30.9 2.6-2.4.3-6.5.6-8.9 1-.8.1-2.6.6-3.5.8-.6 0-3 .2-3.6-.1v-.3c-3.6.5-13.7 1.5-16.6 1.8-3.6.7-6.7 0-10.6 1.9-10.7 5.3-17.9 19.2-18.8 30.5l-.2 4.4c.6 1.7 1 5.9 1.3 7.7z" class="st18"/><path d="M673 241h2.5c-.3.4-1 1.2-1.4 1.6-.3-.4-.9-1.2-1.1-1.6zM666 240.9h2.7c1.4 1.9 3.1 4.5 5.5 5 0 0 .8-.2.5.1-.3.4-.8.7-.8.7l-.3.4c0 .6.1 1.4.4 1.9l.6.7c.4.2 1.3.3 1.7.3-.1.2-.3.8-.3 1.1.2.4.6 1.1.8 1.5l.7.3c.4 0 1.1.1 1.5 0-.1.4-.5 1.2-.6 1.6.1.5.5 1.3.7 1.7.3.2 1 .7 1.3.8l-.5.6-.3.9c.1.4.5 1 .8 1.3l.2.5c.3.2.9.4 1.3.5-.2.3-.6.8-.6 1.1l.1.7.4.8c.3.3.9.8 1.2 1v.3l-.2.4c-.1.2 0 .7 0 1 .2.3.5.9.5 1.3-1.4 0-1.3.7-7.2-5.6-6.7-8.2-9.7-16.4-11.4-19.3v-.9c.2-.2 1-.5 1.3-.7zM681 240.9l2.2.2-4 2.5c.5-.6 1.4-2.1 1.8-2.7zM688 241l13 .1 1 .1c.2.2 8 2.7 8.5 2.9-.6.4-1.6 1.7-7.2 4.2-5.1 2.2-6.2 2.9-7.2 3.9s-2 3.3-2 3.3l-.3-.5-.9-.1.3-.7c0-1.4-.1-3.2-2.2-3.2 0 0 1-1.3.1-2.2-1.5-1.4-1.3-.9-2.4-1l1.1-.9c1.1-1.3-.7-2.7-1.7-2.8-.5.1-1.4.4-1.8.6.8-.6 1.6-1.6 1.9-2.5l-.2-1.2zM714 318s4.1 8.5 5.6 12 3.6 7.3 6.2 7.3c6.6-.4 19.7-9.8 20.9-17.5 2.7-8.7-5.5-4-9.1-18.6-.3.1-.8.5-1.1.7-3.2 5.4-16.9 14.4-22.5 16.1zM622.8 191.7l-.7 2.6-.1-1.3-1.8-17 .4-.7 5.8-3.8 11.7-.3c-7.2 4.4-13.2 13.5-15.3 20.5zM693.7 187.2c12.5-40.9 47.5-6 93.3-47.2 5.6-19.7 27.3-51.7 53.3-51.9 23.5.5 39 17.6 50.1 38.7 25.2 46.9 26.3 126.5-12.3 166.3-15.2 16.6-42.4 16.2-60 2.4-8.9-7.4-14.2-14.5-14.2-14.5s-6.5-9.8-9.3-15.5c-2.8-5.8-2.8-6.1-2.8-6.1-13.1-9.6-40.5-18.9-58.5-17.4-7 0-12 .3-16.3-.5-23.2-4-29.3-36.5-23.3-54.3z" class="st28"/><path d="M632.9 264.9c-.3.7-.8 2.1-1.1 2.8-.8.1-2.2 1.4-2.8 1.9l-1.7 2.3c-.9 1.8-2.2 4.5-2.2 6.5.1.7.3 1.4.8 1.9l.5.2.2.7.4.4c.1.4.1 1.2.1 1.6l.2 1.2c.2.5.6 1.1 1 1.5l.1 1 .4 1c.2.3.8 1 1.1 1.2l.2 1.5 10.3 1.3.8-.1c1.5-.7 4.7-1.7 6.3-2.1-.2-.3-.7-.8-1-1l-.1-.7-.7-1.1-.8-.7-1-.4.2-.5-.4-.9-1.4-.9c.1-.4-.1-1.5-.2-1.9l-.9-1.1c-.2-.2-.8-.7-1-.9.1-.4 0-1.3 0-1.7-.3-.4-1-1.2-1.4-1.6l.3-1.2c0-2-.8-3.9-3-4.6.2-.6 0-2-.7-2.6l-.2-.3c1-2.7 3.8-8 5.1-10.5 1.8-3.8 3.5-9.4 4.2-13.6l-2.6-.9c-.1 2.2-1.1 5.2-1.6 7.4-1.7 4.2-5.4 10.9-7.4 14.9zM662 233.7c1.4-.1 3.6.9 4.9 1.4.9.5 2.6 1.7 3.4 2.3 1.4 1.3 2.8 3.5 3.9 5 2.5-2.2 4.7-6.2 6.9-8.7l.9-.4 1 .1.7.4.4 1.1c-.5 2.5-3.8 6.6-5.1 8.8l5.5-3.4 2-.6.7.1.5.7c.2.5.2 1.2.2 1.7-.4.8-1.2 1.7-1.8 2.4l1.3-.4 1.4.1.7.5.3.7v.8l-.3.6-1.1 1 1.1-.1 1 .6c.4.5.7 1.4.7 2.1l-.6.6 1.2.1.7.6.5 1.2v.8l-.3 1 .9.1c.3.3.9 1.8 1 2.2l-.2 1-.5.7 1.3.5s.8 1 .9 1.7c.1.7-.3 1.8-.3 1.8 1.2-.3 2.4 2.9 1.5 3.6 1.4-.1 3.1 2.8 1.4 3.7 0 0 1.6-.1 2.2.9.7 1.5.6 1.7.4 2.3l1 .1 1 .8.5.9v.7c-.2.3-.6 1-.7 1.4 2-1.1 4.3 2.7 2.2 3.8 2.6 0 4.3 1.6 3 4.3 1.4-.2 2.3.8 2.2 2.1l-.5 1.6-.9.8-1.4.6c2.5 0 4.6-1.2 4.8 2.3 0 0-.5 1.4-.9 1.6-.4.3-1.2.4-1.2.4l.3.3c1 .1 2.4-.4 3.2 1.2.2 1 .4 2.5-2.6 3.2l-2 .5c.7.2 2.5.3 3.3.4 0 0 2.2.3 2.3 1.1.1.9.2 2.4-1.9 2.8-3.8.7-4.3.4-6.6.6 1.2.3 3.7.7 4.9.8l2.6.1 1.3.4.6.8.1 1.5-.5 1.1-1.2.4c-2.1.1-6.2-.1-8.3-.5l4 1.4 4 .9s1.9.9 1.9 1.6c0 .7.1 2.2-2 2.4s-4-.6-4-.6l-3.7-1.2 2.9 1.9 3.6 1.4 1.3.9.5.8v1.4l-.8.7c-.8 0-2.6 0-3.4-.1-1.8-.7-5.3-2.4-6.9-3.4l.3.9 2.5 2 2.6 1.6c.7.3 2.8 1.4 3.5 1.8.8 1.3 0 3.7-2.8 2.9-4-1.3-4.2-2.3-6.9-3.8l1.7 2.2 2.7 2.2c.5.4 2.3 1.5 2.6 2v1.1l-.2.8c-1.4 2-4.9-.9-5.5-1.4-1.3-1.1-3.3-3-4.3-4.3v.8c.6 1.3 2.2 3.7 3.1 4.9.5.5 2.3 2.3 2.7 3l.2 1-.7.9-1.1.6-1.1-.5-1.4-1.2c-1.2-1.5-4.3-5.1-5.2-6.8l.2 1.9c1 2.4 2.7 5.8 3.9 8.1v.9l-.4.6-1.7.7-.9-.1-.8-.6-2.3-4.6c-.5-1.2-1.3-3.8-1.6-5.1l-.2 1.4.2 2c.3 2.2 1.3 5.2 2 7.3l-.1 1.1-.4.7-1 .4-1 .1-.8-.3-.7-.7c-.6-2.3-1.5-7-1.8-9.3l-.3.2c-.6 2.6-.2 7.6-.3 10.2l-.4.9-.8.4-1.1-.1c-2 .1-1.8-4.7-1.8-5.2-.1-1.5 0-4.4.2-5.8-.4.6-.9 1.9-1.1 2.6l-.3 2.7c.1 1.5 0 3.6-.7 5-5.3 4.2-3.7-5.7-3.5-7-.5 1.8-1.1 4.4-2.2 5.9l-.7.7s-1.2 1-2.2.4c-2-.8-.8-5.2-.3-5.9-.4.8-1.6 2.9-2.2 3.6l-1.2.5-1.5-.7-1.1-1.3c-.2-.5-.4-1.3-.3-1.8l-.7.5-1.1.1-.9-.4-1.1-1.1-.3-1.1c.3-1.6 1.2-3.9 2-5.3.5-1.8 1.4-4.3 1.5-6.1l1.6-.8c.7 0 2.4 0 3.1.2.3.2.8.5 1 .7.1.3.2.9.3 1.2.5.1 1.4.2 1.8.5.2.2.7.7.9 1l.1.8 1.1-.1 1 .4.7.5c.1.1.5.9.5 1l.9-.3h.9l.8.3.7.6 1-.7c.5 0 1.6-.1 2.1-.1l.8.4.8-.7 1.1-.3h.9l.6.3.6-.9 1.1-.7.9-.1 1.1.1.1-.9.6-.7c.7-.3 1.7-.5 2.4-.5v-1.1l.6-.9.8-.6.9-.3.2-.4v-.9l.6-.9.8-.6.8.1-.5-.7V318l.4-.9.6-.5.7-.1.6.3c-.3-.5-.7-1.5-.9-2l.3-1.2.9-.9c-.4-.4-.7-1.2-.9-1.7l.3-1.1c.2-.3.7-1 1.1-1.2l-.8-.5-.3-.8c0-.5.2-1.5.4-1.9l.6-.6-.7-.3-.6-.7-.2-.9.2-1.2.5-.9c-.3-.2-.8-.9-1.1-1.2l-.3-.9v-1l.3-.8.5-.5-1.2-.1-1.1-.6-.5-1.1.2-1.5-.9-.3-.9-.8-.5-1.2c.1-.2.2-.8.3-.9l-.8-.2-.7-.7-.3-1.2v-.9l.3-.7-.8.2-.7-.3-.6-.5c-.4-.8-.7-1.7-.6-2.6l-.8-.2-.9-.7-.3-.7c-.1-.5 0-1.5 0-2-.5-.1-1.2-.3-1.6-.6l-.5-.6c-.1-.4-.3-1.4-.3-1.8l.3-.5h-.9l-.9-.5-.5-1c.1-.4.3-1.3.3-1.7l-1-.3c-.3-.4-.8-1.4-1-1.9l.1-.9.4-.7-.6-.1-1.1-.9c-.1-.4-.4-1.4-.3-1.9l.5-.6-.8-.4-1.1-1.5-.1-.9.5-1.1h-.6l-.8-.7c-.2-.3-.6-.9-.7-1.3v-.7c.2-.2.7-1 .9-1.2l-.7-.1-.9-.9-.5-1V254l.3-.6.5-.5-1.2.3-1-.4-.8-.9v-.8l.3-1c-.4 0-1.2-.1-1.6-.2l-.8-.8-.4-1c0-.3 0-1 .1-1.2l1.3-.9c-.5 0-1.6-.2-2.1-.3-.7-.5-2-1.8-2.6-2.4l-2.4-3.1-2-1.9c-.9-.7-2.5-1.2-3.4-1.8l-.5-.8-.5-2zM829.3 90c12.3-4.6 39.5-2.9 59.3 33.5 32.1 52.2 28.4 173.1-38.8 182.4-88.8-4.1-92.4-192.6-20.5-215.9zm-33.5 144.8c9 35.6 28 58.7 54.7 58.2 24.1-.4 42.3-28.7 48-61.1s.2-65.9-16.4-98.3c-16.6-32.4-40-35.7-50.4-31.5-38.9 15.6-48.6 82.4-35.9 132.7z" class="st41"/><path d="M649.7 232.4c-.4-.8 1.4-.7 1.6-1-.9-2.4-.6-2.8 1.8-2.7 0 0-.8-2.4.4-2.5 1.3-.1 1.8 0 2.6.7.8.6 1.3 1.9 1.3 1.9l.5.4s1.8-.2 2.4.2c.6.5 1.6 1.9 1.6 2.8s0 3.2.2 3.8c.3.6 1 .7 1 .7l1.1.5 1.9 2.1-.1.5-.5.3c-1.9-.4-9.1-2.3-10.9-3.2-.1-.2-.4-.7-.5-1-.4-.2-.9-.6-1.2-1-.2.1-.9.2-1.1.2-.7-.2-1.7-1.7-2.2-2.3l.1-.4zM640.9 170c.3-.1 1.5-.7 1.8-.8v-.3l-.1-6.5s.3-1.4 2.6-1.7c2.3-.3 6-.5 6.3-.3.6.6.5 1.6.6 2.3l2.1-.8c-.1-.6-.3-1.9-.5-2.5l-1.3-.8-1.8-.5c-2.7.3-10.7-.3-10.2 5.3l.5 6.6z" class="st42"/><path d="M647.7 165.1s5.3-2.7 6.8-3.3c2.3-.9 2.9-.7 4.1-1.2 1.4-.2 5.7-.9 7-.7l.4.6 3-.4 7 .2.1.6c-.2.4-.5 1.4-.5 1.8l-.6.7-.3.2.2 1.7 1.8-.2.4.1c0 .2-.1.5-.2.7 0 0-1.7.2-1.8.4-1.2.4-3.1.6-4.2.8l-1.4.3-2-.1-.4-.3c-1.1 0-12.9 1.5-15 1.6l-3.3-.4-.8-.5-.5-1.4v-.6l.2-.6z" class="st42"/><path fill="#162136" d="M515.1 298.7s2.6 6.3 8 10.5c12.6 12.2 30.7 31.6 51.5 37.7.1-7.2.1-8.6-.1-10.4-17.1-2.5-43.1-24.1-53.4-31.9l-2.6-2.6c-.5-.7-2.5-3.1-3-3.9l-.4.6z"/><linearGradient id="SVGID_24_" x1="741.58" x2="741.58" y1="102.81" y2="222.42" gradientTransform="matrix(1 0 0 -1 0 362)" gradientUnits="userSpaceOnUse"><stop offset="0" stop-opacity=".3"/><stop offset=".05" stop-color="#252525" stop-opacity=".31"/><stop offset=".12" stop-color="#585858" stop-opacity=".33"/><stop offset=".2" stop-color="#848484" stop-opacity=".35"/><stop offset=".28" stop-color="#aaa" stop-opacity=".37"/><stop offset=".36" stop-color="#c9c9c9" stop-opacity=".4"/><stop offset=".44" stop-color="#e1e1e1" stop-opacity=".42"/><stop offset=".53" stop-color="#f2f2f2" stop-opacity=".44"/><stop offset=".63" stop-color="#fcfcfc" stop-opacity=".47"/><stop offset=".75" stop-color="#fff" stop-opacity=".5"/></linearGradient><path fill="url(#SVGID_24_)" d="M722.4 241.8c8 .4 9.9-.1 21.3.5 16 1.3 32.7 6.8 45.1 15.2.6.4 2.2 1.3 2.8 1.6-14.9-35.1-17.1-83.7-4.5-119.6-3.7 5.2-27 19.3-36.6 20.7-12.8 3.2-21.8 3.6-32.6 4.5-11.9 1.1-20.4 9-24.2 22-4.6 16.9-2.3 32.4 8.3 46.3 4.9 7 14.4 8.8 20.4 8.8z"/><linearGradient id="SVGID_25_" x1="791.33" x2="899.77" y1="165.09" y2="165.09" gradientTransform="matrix(1 0 0 -1 0 362)" gradientUnits="userSpaceOnUse"><stop offset="0" stop-opacity=".3"/><stop offset=".11" stop-opacity=".27"/><stop offset="1" stop-opacity="0"/></linearGradient><path fill="url(#SVGID_25_)" d="M791.5 173.1c2.6-22.5 9-48.3 28.8-64.3 8-5.4 12.6-8.3 19.4-8.2 13.7 0 24.4 8.7 32.6 17.5 3 3.5 8 11.9 10.7 17a170.9 170.9 0 0116.2 50.6c2.7 18.6 1.9 39.6-3.2 57.8-8.3 30.1-30.9 62.7-66.8 44.2-13.2-6.8-24.3-25.8-28.4-37.9-5.7-14.7-8.1-30.7-9.6-44.4-.7-7.7-.6-18.2 0-25.9-.2-1.5 0-4.8.3-6.4z"/><radialGradient id="SVGID_26_" cx="237.24" cy="460.01" r="1" gradientTransform="matrix(87.0453 0 0 -100.346 -19853.97 46357.34)" gradientUnits="userSpaceOnUse"><stop offset="0" stop-opacity=".5"/><stop offset=".11" stop-opacity=".45"/><stop offset="1" stop-opacity="0"/></radialGradient><path fill="url(#SVGID_26_)" d="M791.3 175.2c2.6-23.2 8.7-49.9 29-66.4 8-5.4 12.6-8.3 19.4-8.2 13.7 0 24.4 8.7 32.6 17.5 6.9 7.9 15.2 26.2 18.6 35.3 12.3 34.9 14.6 72.9-1.8 108-11.8 25.4-33.2 40.3-60 26.3-22-13.4-31.2-40.8-35.4-63.6l.7-.4L834 219c.5-.2 1.4-.7 1.9-1v-.2c1.8.3 4.7-.9 5.9-1.5 1.4.1 3.7-.2 5.2-.4.7-.1 1.9-.4 2.5-.8l.8-.8.5-1.1s.1-1.1-1-2c-1.1-.9-2.1-1.8-2.1-1.8l.4-.7s1.8-3.6 2.3-9.4c.4-5.8-.7-7-.7-7 .9-.7 2.7-2.1 3.4-3l.2-1-.2-1-.6-.9-1.5-.4h-3.5c-.7-1.3-2.2-3.4-3.2-4.5-1.2-.9-3.3-2.5-4.9-2.7.1-.7.5-3.4.2-4l-.5-1-1.4-.6h-2.6l-43.8 2z"/><path fill="#515151" d="M831.2 195.3c.5-14.6 12-17 16-3.7 1.5 3.2 1.2 19.1-5.7 20.1-8.3 1.3-10.5-12.1-10.3-16.4z"/><path d="M636.5 171.2c-3.1.2-8.2 3.4-9.9 6.2l.4 4.2s-3.3 2.3-5.3 8.7l.5 3.8c1.9-8.5 8.4-18.5 15.9-22.8l-1.6-.1zM652.4 162.8c.1-1.1.2-3.6-1.4-3.7-1.6 0-7.6.5-8.8 1.8-1.1 1.2.2 8.5.2 8.5l.2-.1-.2-5.7s0-2.2 1.3-2.5c2.6-.5 6-1 7.5-.9l.6.5.2 2 .4.1zM681.6 240.1c6.1-1.5 18.4-.4 18.9-2.2.5-1.8-1.2-3.8-1.2-3.8-3.7-4-6.8-11.7-8.2-16.1-5-15.6-3.2-43.5 14.9-51.8 6.9-3.1 15.8-4.6 18.2-1.8-11.6-.3-22.6 4.1-28 16.3-9.8 17.9-4.3 55.3 19.3 60.5 4.6.9 11.5.7 11.5.7l-.2.5c-3.3 3-17.7 2.8-21.7 0-2.9-1.4-2.6-1.2-5.3-1.2-2.7 0-11.8-.1-11.8-.1-.4-2.3-4.3-.7-4.9 0l-2.1-.1.6-.9z" class="st19"/><path d="M787.1 256.4l1.9 1.1 2.6 1.7c-13-29.4-15.4-71.6-9.6-100.6-4.3 12.9-8.2 61.8.1 85.2 1.8 5.9-10.7-1.3-33.6-3.2-22.9-1.9-30.9 2.9-41.5-4.7-10.5-7.6-14.5-22-15-26.2 1.1 11.2 9.3 29.3 24.1 31.3 8.3 1.6 13.2.4 19.1.6 19.3.9 37.1 5.4 51.9 14.8zM796.2 223.7c.5 6.7 1.3 13.7 2.5 20.7-4.9-16.4-3.2-10.3-5.1-20.5l2.6-.2zM796 195.4c-.5 7.7-.6 15.7-.1 24.1l-3 .4c-1.8-11.5-2.1-14-2.1-24.3l5.2-.2zM790.8 193.6c-1-18.6 4.5-49.4 12.2-63.1 8.5-15.8 28.6-40.3 54.4-24.7 13.8 7.6 22.4 21.9 27.3 33.4-29.8-56.6-77.2-23.3-86.1 35.6-5.9 0-2 2-.4 2-.9 5.2-1.6 10.7-2 16.3l-5.4.5zM831.2 193.9c-.9 17.5 17.4 25.4 16.6.7.2 1 1.2 10.2-2.5 14.1-4.3 5.3-8.4 3.1-10.9-.8-.7-1.2-1.9-3.8-2.3-5.2l-.7-3.5-.2-5.3zM846.6 211.1c7.3 4.6-2.1 5.4-4.7 5.2l1.5-.9 1.2-1.2c.4-.8 1.5-2.4 2-3.1z" class="st19"/><path d="M790.6 195.2c.1.2.5.4.5.4 1.6.1 36-1.4 36.7-.4 1.2.3 2.1.6 1.7 0-.4-.6-.8-1.3-3.4-1.7-2.6-.3-7.1-.2-8.9 0-9.4.5-14.4.5-23.8 1.3 0 0 .1-1.3 1-1.4.9-.1-4 .1-4 .1l.2 1.7z" class="st19"/><path d="M779.2 205.4c.2 25 20.4 97 71.2 96.6 51.4 2.3 63.7-91.1 56.2-125.2 0 0 1.8 13.4 1.9 18.9.1 5.5-.1 16.6-.1 16.6-.1 8.1-3.4 27.7-6 37-9.1 32.3-34.7 70.6-74.7 51.7-34.8-17.4-44.9-61.7-48.5-95.6zM738 302.7c-.2-.7-1.3 1.1-2.6 2.8-1.3 1.8-5.2 7.4-10.9 10.8-5.8 3.4-8.8 4.7-8.5 5.6.3.9-.7-1.6-.7-1.6l-1.2-2.3s6.8-2.7 11.1-5.6c6.7-4.9 8-7 11.1-9.7.2-.3.9-1.2 1.1-1.5h.5l.1 1.5zM747.4 317.7c.1-1.1-.4-2.6-2.1-2.3-1.8.3-2.4 2.2-3 3.4-1 2.8-9.2 14.6-12.4 16.3-5.1 3.5-1.7 2.1.3 1.1l3.7-1.7 3.7-2.4s3.8-3.6 5.6-5.4c3.1-3.7 3.4-6.1 4.2-9z" class="st19"/><path d="M794.8 219.7c-1 .2-.6 3.4 3.6 2.8 4.2-.5 10.1-1.4 10.1-1.4l9.8-1.2s14.5-1.7 15.4-2c.9-.2 1.5-.4 1.6-1.7s0-2.6 0-2.8c0-.2.5-.3.8 1.1.3 1.4.1 4-1.4 4.3-1.5.3-4.7.7-4.7.7l-36.6 4.3-.6-3.8 2-.3zM662.7 233.8c-.6.3-.1 1.5 2.1 2.5 2.2.9 4.7 3.6 6.5 6 1.8 2.4 2.8 2.8 5.2 1.7 3.1-1.3 6.2-5.7 7.2-7.6l-3.5 5.8s-.6 1.3-2.3 2.2c-1.6.8-3 1.8-3 1.8-2.9.7-5.4-4.7-7.9-6.7-2-1.8-3.9-2.4-3.9-2.4l-1.1-.7c-.1-.6-.2-1.9-.3-2.6h1z" class="st19"/><path d="M653.4 235.6c2.4 1.1 8.7 1.2 10.9 1.6.5.4 1.3 1.2 1.6 1.7 0 0-3.5-.3-6.7-1.1-3.1-.7-4.9-1.4-4.9-1.4l-.1-.4-.8-.4zM673.8 247.5c0 .8 1.1 1.7 3.7.6s9.8-3.8 10.6-6.4c-.2.9-.8 2.4-3.1 3.5s-5.8 3.1-5.8 3.1c-.6.4-2.1 1.2-2.7 1.6h-1l-1.1-.5-.3-.5-.3-1.4zM641 247.5c.9-.9 1.7.4.5 4.6-1.7 5.3-4.8 11.6-6.8 14.6-.4 0-1.4-.7-2.4 0-.5.7-.3.9 0 .8.3-.1 1.1-.1 1.1-.1.5.1 1.4.3 1.8.5.7-2.2 3.9-8.6 5-10.7 1.5-3.2 3.9-9.8 4.3-13.7-.7-.2-2-.7-2.6-.9-.2 1.2-.6 3.7-.9 4.9z" class="st19"/><path d="M629.4 232.2c4.9 6 16.3 11.4 23.6 10.9-9.1-2.8-18.7-19.1-20.3-29.1-2.4-11.8 1.5-24.5 5.9-32.6-4.9 8.2-8.7 27.5-3.6 38.6 4.1 12 14.5 24.6 27.4 24.3-2.8.7-4.1 1.2-13.1.2-8.1-.5-17.4-7.8-19.9-12.3z" class="st19"/><path d="M668.4 240.6s-2.5-.6-4.1 0c-1.6.6-.2 2.2-1 2.6-2.6 1.9-14-2.7-14.9-3.6 0 0 4.9 3 8.8 4 3.9 1.1 5 1.1 5 1.1l3.3-.2s-1.4-2.3-.8-2.8c1.3-1 2.6-.7 3.8-.8l-.1-.3zM676.4 240l-3.9.1.5.9h2.6l.8-1zM676.3 250.8c.2 3.8 13.2-3.5 13.5-5 0-.6.5.6-.1 1.2-.6.7-3.8 2.5-3.8 2.5-1.2.7-5.6 3.2-6.9 3.6h-1.1l-1.2-.5-.5-1 .1-.8zM678.4 254.4c.7 3.1 12.5-3.3 12.7-4.9-.1-.4.4.5.3 1-.1.5-1.5 1.1-1.5 1.1l-9.1 5.3h-.7l-1.2-.7-.6-1.2v-.8l.1.2zM679.8 258.1c2 2.8 7.2-1.8 10.2-2.8 2.3-1 3.1-1.4 3-2 0-.7.1 1 .1 1l-.2.6c-2.6.9-6.3 3-8.7 4.4-.5.3-2 1.4-2.6 1.5l-.9-.2-.6-.6-.5-1 .2-.9zM681.1 262.4c1.3 1.9 8.3-1.7 9.9-2.4 1.6-.8 3.6-1.7 3.6-2.6 0-.8.8.8-.8 1.7-3.2 1.6-8.9 5-10.7 5.4l-.7-.3c-.4-.4-1-1.4-1.3-1.8zM682.5 265.6c1.7 2.3 9.6-1.6 11.2-2.5 1.5-.7 2.5-1.1 2.5-1.6s.2.5.1.9-1 .9-1.4 1c-1.8.7-8.7 4.2-10.1 4.6l-.8-.1c-.3-.2-.9-.8-1.2-1.1l-.3-1.2zM684.3 269c1.9 2.8 7.2-.6 10.4-2 2.6-1.2 3.3-1.6 3.2-2 0-.4.1.7.1 1.1 0 .3-1.2 1-1.2 1-2.3 1-8.1 3.7-10.3 4.9h-.9l-.7-.5-.7-1.2.1-1.3zM686.1 272.7s.9 1.8 5 .2c5.2-2.1 6.6-2.3 8.6-4.1 0 0 .4 1.3-1.4 1.9-3.2 1.1-9 4.4-10.8 4.4l-1.1-.4-.6-1.2.3-.8zM688 275.9c-.1 1 .6 1.7 5 .3 5.4-2 7.4-2 8.2-4.1l.5.8v.6l-.7.7s-3.2.9-6.4 2.4c-3.1 1.5-3.9 2.5-5.4 2-1.3-.5-1.2-2.7-1.2-2.7zM690.3 279.7s2 1.8 5.1.1c3.9-2.2 7.3-2.1 8.4-4.6l.2 1.1-.5.8c-2.1 1.2-5.5 2.6-8.9 4.3-2.5 1.9-4.7.7-4.3-1.7zM692.5 283s1.2 1.9 4.5.6c3.3-1.2 6.9-2.3 7.8-2.7.9-.4 1.5-.9 1.4-1.3 0-.4.5 1.5-1.6 2.1-2.2.6-8.7 3.9-9.6 4.1-1.7.5-2.9-1.9-2.5-2.8zM694.8 286.3c-.2.7.9 1.9 5.4.3 4.5-1.7 8.6-1.8 8.6-2.8.3 0-.2 1.7-.2 1.7s-2.8.1-5.6.9-6.5 2.9-6.5 2.9l-1.3-.4-.5-1.4.1-1.2zM696.4 290s2 1.7 6.1.5 7.2-1.4 7.8-2.4c.5-1 .5 1.3-2.8 2.3-3.3 1-8.9 2.2-8.9 2.2l-1.6-.8-.5-.7-.1-1.1zM698.4 293.1s.3 1.6 6.1 1.3c5.8-.4 7.3-.3 7.6-.8.3-.4.1 1.2-3.1 1.6-3.9.3-11.2 2.2-10.6-2.1zM700.6 296.8c-.5.5.2 2.3 5.7 2.1 5.5-.3 7.4-.7 7.5-1.1.1-.4.9 1.5-4.9 2-6.8.8-9.7 1-8.3-3zM701.2 301s.7 2.5 6.1 2.5c5.4 0 6.9.1 7.4-.4.4-.5.6 1.5-6.4 1.5-8.1-.1-7.8-.6-7.1-3.6zM702.1 304.6c-2.1 4.1 13.3 5.2 13.4 4.1.5-.7.4 1.2-2.8 1.2-4.1-.1-13.9-.6-10.6-5.3z" class="st19"/><path d="M702 308.6c-1.3 3.7 11.7 7.4 13.3 5.8-1.1 3.4-12.1-1.5-13-2.1-1.6-.9-1.1-3.1-.3-3.7zM705.7 317.5c3.8 1.8 7.8 3.4 8.3 2.8.5-.6-.1 1.2-2.9.6-3.8-.9-9.1-3.3-10.1-6.2l.1-1.2s.8 2.2 4.6 4zM699.4 318.1s1.7 3.5 5.9 5.4c4.2 1.9 6.2 2.1 6.7 1.3.5-.9.2 2.2-2.3 1.7-2.6-.5-6.9-3.4-7.7-4-1.4-1.2-1.7-2.4-2.4-3.2l-.2-1.2zM697.9 321.1c0 .9 3.1 5.8 6.3 7.7 3.1 1.9 4.9 1.4 4.5-.2.5.2 1.1 2 .1 2.5-3.4 2.6-10.6-6.3-11.1-8.8l.2-1.2zM695.7 323.8s.3 3.5 3.4 7.1c3.1 3.9 5.3 3.5 3.9.5 0 0 2.4 2.4 2.2 3.2-.1.8-.9 2.2-2.7 1.4-3-1.8-7.4-8.4-7.2-11.5l.4-.7zM692.1 326.7c-.1.8 1.7 6.7 3.6 9.9.9 1.5 2 .9 2.1-.3 0-1.3-.8-3.9-.8-3.9.7 1.5 2.6 4.5 2.9 6.1 0 0-.6 1.5-1.6 1.6-1.1.1-1.8.2-2.4-.7-.6-.9-2.6-5.8-2.6-5.8-.5-2-1.7-5.1-1.2-6.9zM688.2 330.4c.1 1.5 1.3 8.6 2.4 9.4 2.7 2.1 2.1-3.3 2.1-3.8.5 1.4 1.6 3.6 1.4 5.1.1 1.2-3.1 2.1-3.7.5-1.4-3.9-2.1-7.4-2.2-11.2zM683.7 333.1c-.1 3 0 7.5 1.7 7.6 1.8.1 2.2-3.5 2.2-3.5 0 .9.2 4.5.1 5.3l-.3.7c-3.1 2-4.1-1.3-4-3.4l-.1-3.8.4-2.9zM674 334c-1.9 3.4-1.3 9.5 2.2 4.3.3-1 1.2-3.5 1.8-4.3l1-.7c.2.3-1.1 6.7.8 7.4 1.6.3 2.6-2.5 2.6-2.5-.1.9-.3 3-.4 3.8l-.5 1.1-1.1.8-1.3.1-.8-.7c-.6-1.5-.3-3.6-.3-5.1h-.3c-.2 1.1-1.9 5.8-4.5 4.6-1.6-.6-1.3-3.4-1.3-3.4.3-1.2 1.6-4.2 2.1-5.4z" class="st19"/><path d="M670.9 323.9c-1.4-.4-1.9.7-1.3.9 1.4.5 2.2.5 3.3.7 0 0-2 0-5.1 2.7-3.1 2.7-.2 5.5 1.7 3.4-1 1.1-2.1 4.3-.9 5.8 1.2 1.5 2.4.4 2.4.4l1.5-2.6 1.6-1.7.2.4c-.7 1-1.8 3.3-2.2 4.5-1.2 2.5-3.4 3.9-5.5 1l-.3-1.1v-.7s-.5 1.1-2.2.4c-3.6-1.1-.8-6.4-.2-7.6 1-2 1.6-4.5 2-6.7 0 0 1.5-.6 2.8-.7 1.4 0 1.8.2 1.8.2M630.4 268.5c-.7 0-4.4 7.4-1.5 5.6l.9-1.1s-1.8 3.2-1.9 4.2c.2 2.4 9.3-7 10.5-1-1.1-.5-4-1.4-6.7.3-3.8 2.8-3.9 3-4.7 5l-.5-.5-.2-.5c-3.6-.5.9-8.7 1.1-8.8l1.6-2.1 1.4-1.1z" class="st19"/><path d="M631.6 276.5a5.78 5.78 0 00-2.7 4.8c.1 1.3 1.4-.5 4.4-1.8 3-1.3 5.9-1 6.9 0-3.9-2-12.2 1.8-10.7 6.6.5.9 1-1.5 5.1-3s6.6-.7 8 .4c-1.6-.5-6.1-1.4-8.9.8-3.7 3.1-3 2.9-3.7 4.7l-.8-.6-.5-1.1-.2-1.5c-1.8-1.7-1.8-4.3-.4-6.2l1.7-1.7 1.8-1.4z" class="st19"/><path d="M632.3 285.4c-1.6 1.1-1.6 3.9-.5 4.1 1.1.2 1.7-2.4 5.4-3.7 3.6-1.3 6.7-.5 6.9-.1-4.4-.5-9.3 1.3-11.4 5.4l-2.5-.4-.2-1.1s.2-1.4.3-1.6c0-.3 2-2.6 2-2.6z" class="st19"/><path d="M637.3 286.6c-1.7 1-3.4 3.4-2.9 4.6-1.6-.1-1.8-.1-1.8-.1l.9-1.5c.8-.9 2.8-2.4 3.8-3zM635.3 291.3c1.8-3.1 8.4-4.2 10.8-2.9-2-.6-8 .2-9.6 3.1l-1.2-.2z" class="st19"/><path d="M638.3 289.7c-.8.4-1 2-.1 2s-1.9-.2-1.9-.2l.5-.9 1.5-.9zM669.8 252.7c-1.8-3.1-4-9.5-2.9-9.9 1.1-.3 2.8-.5 2.8-.5l-1.1-1.4c-.7 0-5.3-.6-3.8 2 1.5 3.1 3.5 7.1 5 9.8zM673 240.9l1.1 1.6.9-.6.7-.9-2.7-.1zM680.3 242.1c.8-.1 1.4-.1 1.4-.1l1.6-1H681l-.7 1.1zM688 240.9l.1 1.3c.8-.2 25.3.4 14.1 6.6-2.2 1 3.6-1.7 3.6-1.7s1-.6 2.4-1.5 2.1-1.4 2.1-1.4c-1.3-.5-2.2-.9-5.2-1.8-2-.6-2.5-1.2-3.9-1.3-4.6-.1-9.4-.1-13.2-.2z" class="st19"/><path d="M701.2 246.1c-.7-.4-.4-1.4 1.1-1.2 1.5.2 2.7.9 2.7.9s.3-.8-1.3-1.3c-1.6-.4-3.1-.7-3.3-.5-.2.2-.2 1.2-.2 1.2l1 .9zM666.4 165c.7.3.7 1 .7 1l7.9-.8-.3-1.8-5.1.2-.6-.3.5-1.9-.4-.4-2.7 4zM662.2 232.4c.7.1.8 1.2.8 1.2h-1.1l.3-1.2z" class="st19"/><g opacity=".65"><path d="M697.5 321.9c-4.3.6-9.5.4-13.6-.8-.8-.4-2.6-1.3-3.4-1.8-5.7 1.6-23.9 6.7-29.5 7.7l-1.5-5.9-1.1-8.7c-.5-3.6-.9-8.9-.2-12.5l.3-2.1c.3-.9 1-2.8 1.5-3.6-2.1 3.4-2.5 29.3 5.4 29.5 4.6-.1 23.7-6.9 25-6.4 2.9 1.1 10.4 1.9 18.9 1.2l.4 1.4-.9-.1-.6.5c-.1.5-.5 1.2-.7 1.6zM713.8 318.1c4.9-1.8 10.2-5.2 14.4-8.1l3.9-3.1 2.8-3c.5-.5 1.8-1.8 2-2.4l-.9.2s.3 2.6-14.2 10.7c-3.4 1.9-7.2 3.2-11 4.2.6.3 2.4 1.3 3 1.5zM707.5 319.9c-.6.1-1.6 0-2.3.2l-2-2c.3 0 .6-.1 1-.1l3.3 1.9zM548.9 241.2l1.2 2.3c6.9 6.1 23.4 10.3 33.6 9.5l1.5-2.6c.5-.6 2-2.5 2.4-3.1 0 0-6.4.7-15.6-.5-14.7-2.5-15.4-3.7-23.1-5.6zM600.1 236.4l-2.5 1c-.8.2-2.8.5-3.6.6 3.7 1.3 7.7.3 9.6-3.5-.9.5-2.7 1.5-3.5 1.9zM540.7 175c-3.3-4.8-8.1-26.3 2-30.9 13.6-6.3 24.2 13.6 25.5 25-.9-5.1-5.8-19.1-14.5-21.8-19.3-5.5-17.1 19.1-13 27.7z" class="st49"/><path d="M592.6 162.9s-2.5-5.6-3.4-12.6-.9-11.8-.9-11.8-6.5 1-11.4-.9c-10.1 2.7-26.5 4.2-45.1-1.6-1.5 2.2-4.3-.2-6.5-1.1 1.2.2 2 .1 3-1.2 1.9-2.2 2.2-2.3 3.4-3.6 7.6 1.9 6.8 2.7 19.1 3.9 7 .4 14 .4 14 .4 3.6-.4 9.3-.9 12.8-1.8 2.4.8 15.5 3.4 18.5 3.2l-.5.4c-5.3 1.9-5.4 14.2-5 16.9.5 2.9 1.3 7.1 2 9.8zM615 154.6c0-5.6-3.9-22.3-14.5-22.3-2.5-6.4-3.3-12.2-1.2-23.3 5.4 1.6 17.1 12.2 22.1 7.4-4.8 1.9-11.8-5.3-16.8-6.6-4.5-1.6-4.2-1.9-6.7-2.3l-.4.7c-1.3 7.8-2.8 18.4 2.9 26.5 9.5-.5 13.6 13.1 14.6 19.9z" class="st49"/><path d="M601 102.1s3.1-8.6 3.2-11.1 2.3 12 2.3 12l2.7.9s4.7-6.1 6.9-11c2.2-5 1.7-7.2 2-6.2.3 1 3.7 17.1 4.7 25 2.8-2.8 3.9-9.1 4.5-6.9.5 2.1 1.5 14.7 1.5 20 .7-7.8.1-19.5-.7-24.9-.1-.7-.4-2.9-.7-3.5-1 3.8-2.5 8.5-4.2 12.1-.4-7-2.7-28.4-6.8-35-.2 4.9-3.8 23.6-8 27.5l-.3-.6s-.6-8.8-2.4-15.6c-3.3-11.9-3.1-11.2-5.9-18.5.1 3.8 1.8 6.1 1.3 16.3-1.1 12-1.4 13.4-2.3 19.6h2.2zM523.3 131.4c-1.2-.5-13.4-5.9-17.1-8.4-3.7-2.4 4.6 7.1 9 10.7-7.4 1.6-14.1-3.3-14.1-3.3s7.5 14.6 9.8 31.4c-2.6-3.4-4.3-5-4.3-5-2 11.3 10.4 45.6 15.7 54.6-3.9-3.8-7.4-5.6-7.5-5-.1.7.7 3.2.7 3.2-.4-1-6.2-7.3-6.8-8 0 0 2.7.9 5.8 2.6 3.1 1.8 4.7 3.4 4.7 3.4-4.7-11.1-8.4-16-12.9-30.4-3.4-12.4-5.9-26.4-14.2-34.7 0 0 1.8.4 5 3.3 4.4 4.1 5.4 6 7.4 7.2-.5-2.5-2.3-5.6-7.7-16.1-5.6-10.3-10.1-15.9-13.7-20.8 2.8 1.8 8.4 5.3 11.3 6.9l3.1 1.5 2 .6c-1.6-2.9-2.4-3.5-6.7-11.1-4.4-8.3-7.6-14.4-8.5-18.1 5.6 13.2 27.6 26.8 40.1 31.3l-.7 1.5c0 .9-.3 2.1-.4 2.7zM475.8 226c12.1 6.5 26.4 9.9 38-1.4 9.6 2.9 36.6 21.1 67.2 21 24.8-.7 31.8-8.2 42.4-26-15.9 38.1-54.5 29.4-84.5 17.9-9.3-3.6-17.1-6.5-23.9-10.7-12.8 10.7-27.6 7.6-39.2-.8zM476.1 205.5c4-2 12.6 4.4 12.6 4.4s-1.3 6.4 0 10.9.2-4.7 2.8-7.2c2.6-2.5 1.4 8.8 7 11.1-1.3-3-1.5-7.4 2.2-9.3-5.7-8.8-15.5-14.2-24.6-9.9zM576.2 190.8s1.2-9.9 11.8-13.3c10.6-3.4 16.6 2.5 17.8 7.6-3.8-10.1-18.2-5.8-23.9-1.4-3.9 3.9-4.1 3.8-5.7 7.1zM729.6 282c2.4-.4 6.9-1.1 9.6.7 3.3 2.4 8.5 4.9 4.6 6.3l-1 .8-4.2-3.4-2.2-2-2.4-1.5c-1.1-.3-3.3-.7-4.4-.9zM726.4 269.3c2-.5 3.1-2.7 7.7-3.1 9-.9 14.3-2.1 8 4.9l-3.1-1.4s-2.8-1.3-4.7-1.1c-2 .3-7.9.7-7.9.7zM715.6 256.2c3.7-1.2 10-4.8 16.2-6.1 7.2-1.3 9.3-1.8 9.1 1.5l-.4.2s-5.6-.7-8-.2c-7.1 1.8-10.6 3.7-16.9 4.6z" class="st49"/><path d="M581.2 258.2c5-8.8 5.8 7.8 2.5 10.8-3.1 5.6-14.7 2.3-17.3.7l1 1.3c5.4 2.4 16.7 4.8 19.3-6.4 1.4-5.3 0-8.7 0-8.7-.6-.9-1.9-2.6-2.6-3.4-.8 1.3-2.3 4.2-2.9 5.7zM691.1 147.9c-1.3 7.3-1.6 16.6-11.1 16 6.4-2.4 10.1-10.6 11.1-16zM688.1 70.4c6.6 3 8.1 6.5 5.6 16.8-3.4 13-8.6 23.9-9.6 30.9-.9-10.3 6.7-29.5 6-39.6.2-2.5-.4-5.5-.4-5.5l-.8-1.7-.8-.9zM705.6 74.6c.8 3.6 1.1 10-2.3 19s-8.6 22.5-8.9 25.3c-.2-12.8 9.2-32.9 10.9-43.9l.3-.4zM716.3 88.8c.9 6-2.9 11.7-5.6 19.4-2.8 7.7-4.2 12.6-4.2 12.6.7-6.9 6.8-26.1 8.8-31.7l1-.3zM717.4 129.6s-1.2 8.9-3.4 16c-2.1 7.1-5.9 10.1-11.6 14.2-5.7 4-7.7 4.2-7.7 4.2l5.8-.4s3.6-1.4 6.3-3.4c9.4-6.8 9.9-21.3 10.6-30.6zM638 115.6c.3 1.5 4.5 4 7.4 7.7 3 3.6 7.1 11.6 7.9 14.5.8 2.8 4.5 10.6 6 14.4 1.5 3.8 6.2 7.7 6.2 7.7l-3.5.4c-2.3-2.9-3.8-2.5-6.4-10.8-2.5-9.7-3.7-8.9-4.6-14.4-.2-2.1-6-12.4-8.5-14-2.6-2.1-3-2.5-3.9-3.7l-.6-1.8zM679.3 119.3s8.5.1 14.7 1.7c6.1 1.5 12.1 4.6 12.1 4.6s-5.2-2-12.8-3.9c-7.5-1.9-14-2.4-14-2.4z" class="st49"/></g><path d="M425.6 23.7c-5.9 27.7-7.6 56.8-1.8 84.7-7-27.7-5.3-57.2 1.8-84.7zM498 20.2c-19.7-10.2-43.2-9-63.6-1.8 20-8.3 44.3-9.5 63.6 1.8zM526.6 37.2c24.5 16.9 30.3 45.7 45 69.5-8.3-11.3-12.8-24.7-19.4-37-6.4-12.4-14.6-23.9-25.6-32.5zM487.5 34.8c39 14.1 53.2 69.8 91.1 88.8-38.8-18.2-52.5-73.6-91.1-88.8zM430.8 22c17.5 9.4 29.3 26.8 39.7 43.2-11.4-15.8-22.8-32.9-39.7-43.2zM429.1 25.5c5.5 18.6 10.8 37.6 19.9 54.9-10.1-16.8-15.5-36-19.9-54.9zM418.6 29.6c-4.3 10.2-11.1 19.5-19.9 26.3 8-7.7 14.5-16.7 19.9-26.3zM427.3 14.4C432.1.2 442-11.9 453.6-21.2 442.8-11.1 433.2.7 427.3 14.4z" class="st50"/><path d="M475.8 8c9.5 1.7 19.1 3.2 28.3 6.1 29 7.9 47.1 34.4 57.6 61.1-10.6-23.8-25.7-48.1-51-58-11.2-4.7-23.2-6.8-34.9-9.2zM414.5 93.8c3.4 26.7 15.4 51.6 31.5 73-17-20.7-29.3-46.1-31.5-73zM433.2 160.9c9.4 11.2 20.2 21.1 31.5 30.4-12-8.3-23.1-18.4-31.5-30.4zM446 106.1c6.3 22 16.1 42.9 26.9 63.1-11.8-19.7-21.7-40.8-26.9-63.1zM413.3 47.1c-14.7 22.7-19.1 51.3-13.4 77.7-6.9-26.2-2.3-55.5 13.4-77.7z" class="st50"/><path d="M389.9 93.8c.5 21.9 6.5 45.7 22.8 61.3-17.1-14.8-23.4-39.3-22.8-61.3zM565.1-7.8c31 14.9 47.4 43.3 43.8 77.7 2.2-34.7-13.3-61.5-43.8-77.7z" class="st50"/><path d="M457.1-4.3c41.8-11.7 93.4-8.1 125 24.5-32.3-31.7-83-35.1-125-24.5z" class="st50"/><path d="M502.6 2.4c40.9-.2 85.4 30.1 85.8 73.9-1.6-43.4-45.1-72.8-85.8-73.9z" class="st50"/><path d="M566.9 41.8c12.3 16.8 15 38.8 16.9 59-3.1-20.1-5.6-41.6-16.9-59zM519.6-3.7c18.8.3 36.8 9.4 50.2 22.2-14.2-11.9-31.6-20.8-50.2-22.2zM627 79.8c-.9-42.6-27.3-86.7-69.5-99.3C600.3-8 627.3 37 627 79.8zM614.8 13.2c5.6 8.5 10.5 17.9 12.3 28-2.9-9.8-7.7-18.9-12.3-28zM627.6 27.8c5.2 9.4 9.3 20.1 9.3 30.9-1.2-10.7-5.1-21-9.3-30.9zM426.1 30.1c-.2 16.9-.4 33.9 1.2 50.8-2.7-16.7-2.5-33.9-1.2-50.8zM432 61.1c1.1 20 6.7 39.3 12.3 58.4-6.7-18.8-12.3-38.3-12.3-58.4zM432.6 26.1c7.3 11.4 14.7 23 19.9 35.6-6.1-11.9-13.7-23.8-19.9-35.6zM439 20.8c10.5-.5 21.2.1 31.5 2.3-10.5-1-21-1.7-31.5-2.3zM433.7 13.2C453.6.9 477.8-3.7 500.9-4.9c-23 2.4-46.8 6.8-67.2 18.1zM499.1 72.8c7.3 15.2 14.8 31.5 28.3 42.3-14.2-9.9-22-26.6-28.3-42.3zM456.5 33.6c22.8 13.3 33.9 29.9 43.2 54-11-24.3-20.4-38.9-43.2-54zM442.5 25.8c10.6 1.1 20.6 6.1 28.9 12.6-9-5.6-18.5-10.5-28.9-12.6zM476.9 24.9c26.5 5.2 44.9 19.9 58.1 43.2-14.7-23-31.4-36.5-58.1-43.2zM556.4 54.1c6.7 9.6 11.3 20.7 13.7 32.1-3.6-11.1-8-21.9-13.7-32.1z" class="st50"/><path d="M581.5-15.7C597.3-5.6 611 8.7 617.4 26.6 610 9.2 596.6-4.7 581.5-15.7zM640.2 26.9c-15.7-20-35.7-39.1-60.7-46.1 25.3 5.9 45.9 25.4 60.7 46.1zM419.4 38c-2.1 13.4-8.7 25.7-10.4 39.3-4 22.4 1.6 45.5 13 65-12.2-19.1-17.9-42.6-13.8-65.1 1.9-13.6 8.6-25.9 11.2-39.2zM409.8 127.9c3.4 9.1 7.9 17.8 13.1 26a65.29 65.29 0 01-13.1-26zM476.2 134.3c14.2 14.6 21.7 33.8 28 52.8-7.4-18.6-14.8-37.5-28-52.8zM483 158.6c-8-15.6-19.6-29.5-24.7-46.4 6.1 16.5 17.7 30.3 24.7 46.4zM492.6 136.3c-11.5-19.4-27.7-36.1-37-56.7 10.3 20.1 26.5 36.7 37 56.7zM453.6 64.7c9.7 18.4 20.4 36.6 34.8 51.7-15.3-14.4-26.1-32.8-34.8-51.7zM467.2 54c16.3 16 19.9 40.9 36.6 56.5-6.9-5.1-11.2-12.8-15.1-20.2-6.6-12.5-12.2-25.7-21.5-36.3zM451.4 186.6c4.9 3.9 10.1 7.4 15.3 10.7a39 39 0 01-15.3-10.7z" class="st50"/><g class="st3"><path d="M722.9 138.4c4.9 2.9 9.6-3.2 3-4.4-1.2 0-2.2 1.1-3.4.8-1.1-5.1-.1-6.4 5.1-5.8l.2.7c-1.4.1-3.2-.1-4.5.5v3.5c3.3-1.8 9.2 1.6 5.5 5.2-1.3 1.4-5.2 1.7-6.3-.1l.4-.4zM788 137.8c-2-.3-2.8 1.7-2.8 3.4.2 0-.6.8-.7.8-4.3-1.9-2.1-8.1-.2-11.1l.8.7c-1.6 1.4-3.7 7.9-1.2 8.9.6-1.9 1.9-4 4.2-3.5l-.1.8zM444.6 229.6c4.9 2.9 9.6-3.2 3-4.4-1.2 0-2.2 1.1-3.4.8-1.1-5.1-.1-6.4 5.1-5.8l.2.7c-1.4.1-3.2-.1-4.5.5v3.5c3.3-1.8 9.2 1.6 5.5 5.2-1.3 1.4-5.2 1.7-6.3-.1l.4-.4zM439.2 276.6c-1 .5-3.3.9-3.5-.6 1-.8 3-.4 4.1-1.5 1.6-1.3 1.8-4.1 1-6-.2-.3-.4-.6-.7-.9-.3-.2-.2-1 .3-.7 3.3 2.1 2.1 6.6-.3 9 1.3 1 3.1 1.1 4.6 1.2-.2 1.9-4.5 0-5.5-.5zm-1.2-.3c0-.3-.5-.2-.7-.1-.3.2.6.4.7.1zM450.1 271.2c-1 1.2-3.4 1.9-4.5.5-.7-2.2 1.4-4.6 3.7-4 3 0 1.9 3.1 2.3 5.1.1 1.7.1 3.3.1 5-2.1.3-.1-5.4-1.6-6.6zm-3.9-.2c.5 1.4 2.8.2 3.5-.6.5-3.3-3.7-1.9-3.5.6zM491.6 277.8c7.4 2.5 8.3-6.3 2.1-4.8-.4.2-.8.3-1-.2 1-1.1 2.4-2.2 3.1-3.5-.7-2.5-3.5.4-4.8.9.9-4.3 8.4-3.5 4.4 1.5 5.7 1.7 2.7 8.7-2.6 7.3-.7-.2-1.4-.4-1.2-1.2z" class="st50"/><path d="M499.6 274c-.5-8.3 8.1-5.4 7 1.2-.8 6-7.4 4.2-7-1.2zm.8-.5c-.9 5.4 5.6 6 5.5.6.2-4.7-6-6.2-5.5-.6z" class="st50"/></g><path d="M467.9 214.2c-11.2-5.1-14.3-9.2-39.9-30.2-41.2-32.3-58.3-75.6-38.2-116.7-2 1.4-10.2 9.2-15.9 17.4 4.8-19 22.7-43.7 37-54.4-2.8.2-15.2 2.6-24.3 7 9.8-9.2 30.1-20.5 31.8-21.4.4-9.6 14.3-29.7 18.4-34.4l.5.4c-.2.2-17 20.6-18.3 34.4-.4.2-17.6 9.4-29 18.9 12.9-5.1 21.3-5.5 23-5.7-12 8.7-30.5 29.9-37.4 51.9 9.5-12 14-14.7 16-16.2-34.3 67.2 28.5 116.5 75.6 147.7l.7 1.3z"/><path d="M583.4 247.7c-20.4.6-55.1-12.6-68.7-20.4-11.8 8.4-19.9 8.3-32.5 2.8-14.3-5.5-22.7-24.9-8.9-35.9 12-11.8 33.1 2.8 41 13.6.7.9 4.1 6.5-1-.3-6.8-9.1-19.1-16-27.8-17-8.3-1.4-18.4 8.8-18.5 16.6-.2 7.9 4.4 17.9 15.4 22.5 10.7 4.6 19 6.7 32.3-2.9 15.4 9.5 64.3 26.8 83.1 18.5 10.9-4 19.9-13.2 25.4-25.9l.6.2c-7.4 16.7-21.2 28.9-40.4 28.2z"/><path d="M498 224.4c-1.2-2.8-.8-7.4 2.1-8.9-6.9-9.9-14.4-13-23.2-9.8-.4.2-2 .7-.5-.2 9.2-4 17.6-.4 24.6 10.2-3 1.2-3.6 6-2.6 8.7.8 2.2 0 1.3-.4 0z"/><path d="M490.7 206.1c-2.6 3.8-2.9 8.7-2.4 13.2-.7-4.5-.5-9.5 1.9-13.5l.5.3z"/><path d="M508.6 201.8c5.7 1.3 10.9 6.1 10.9 6.1s-5.3-10.3-10.9-24.1c-5.7-13.8-5.7-30.7-16.6-41.4 4.6 2 13.1 11.8 13.1 11.8s-10.9-26.7-23.4-39.4c8.3 7.2 18 10.7 18 10.7S488 108 481 88.1" class="st51"/><path d="M574.9 194.7c.7-13.7 29.4-25.1 31.3-7-2.9-17-29.5-5.5-31.3 7z"/><path d="M624.4 172.8c-2.8-3.7-4.4-4.6-4.4-4.6s5.7-10.3 8.1-34.2c2.4-23.9-.7-38.3-.7-38.3" class="st51"/><path d="M622.3 194.7s-2-18.2-2-18.8 5.3-4 6.1-4.3c.8-.3 12.1-.4 12.1-.4M627.1 182.5c-.3-2.7-.7-9.2-.7-9.2M598.5 63.7s8 16.9 9.6 37.2c5-5 8.8-24.5 7.9-32.8" class="st51"/><path d="M616.1 72.8c5.5 9.1 7 35.9 7 35.9s8-18.7 8.3-33.3" class="st51"/><path d="M629.1 119.9c6.3-11.4 11.5-34.5 8.8-52.3 5.3 6.6 11.1 23.2 11.1 23.2s3.1-11.8-3.1-34.5c-6.1-22.6-11.4-27.2-11.4-27.2s14.5 8 16.9 10.1c-3.4-9.2-20.1-32-38.8-46.7M544.1 147.4c18.4-8 31.9 30.1 19.9 40.4-6 5.5-15.2 1.6-21.6-9.5-6.5-11.1-6-27.6 1.7-30.9zM600.2 134.6c13.6-1.1 20.7 30.7 10.2 37.8-5.3 4.4-13.9 3.6-17.8-9.9-2.8-11.3-4.3-21 3.4-26.5" class="st51"/><path d="M508.2 79.2c6.1 29.5 59.6 57.5 93.1 56.9-14.1-19.1 7.5-49-3.2-73.7" class="st51"/><path d="M597.5 107.3c5.9.6 16.2 7.5 20.3 9.1 4.2 1.6 7.1-2.1 4.7-4.9-2.4-2.7-10.9-9.2-24-9.4M482.2 91.3c8.4 28.5 65.8 50.7 95.5 41.3" class="st51"/><path d="M524.5 127.7c-.9 2.1-2.4 5.6-.1 6.9 2.2 1.3 2.9.2 3.9-.9s3.4-3.6 3.4-3.6" class="st51"/><path d="M593.1 238c3.9-.5 7.7-2 11-4.1-2.8 2.8-7 4.5-11 4.1zM566.5 213.4c.4 2.6-.6 5.3-2.2 7.2.8-2.3 1.7-4.7 2.2-7.2zM611.6 200c2.4-.4 4.6 1.5 5.5 3.5-1.6-1.4-3.2-3-5.5-3.5z"/><path d="M566.2 215.8c16.5 4 38.3-2.8 48.1-15.1M566.2 216.3s3 1 12.9 6.5 15.4 8.5 20 6.3c4.7-2.1 11.8-23.3 15.6-28" class="st51"/><path d="M581.4 257.8c.6-2.4 3.2-7.2 6-10.7l.5.4c-2.7 3.3-5.2 7.7-6.2 10.4-.3.8-.8 1.8-.3-.1zM661.7 160.4c-4.4-4.7-5.8-8.1-7.1-13.7-1.1-4.8-2.6-6-3.7-9.9-.4-3.6-5.3-12.9-10.2-16.6-11.8-11.1 9.2-22.7 20-4.9 3.5 4.9 7 9.5 9.9 11.9 2 1.6 2.3 2.6-.5.4-2.9-2.5-6.4-7.1-9.9-12-10.2-17-30.2-6.4-19.1 4.1 4.9 3.7 10 13.2 10.3 16.9 1.1 3.9 2.6 5.1 3.6 9.9 1.4 5.5 2.7 8.8 7 13.4l-.3.5zM679.6 164c6.9-3.1 9.8-10.5 12-17.2-1.3 7-4.7 14.9-12 17.2z"/><path d="M515.3 298.2c-3.8 13-11.8 57.7-2.6 75.5" class="st51"/><path d="M516.9 312.6c1.8 14.4 5.1 29.4 12.8 41.9-8.4-12-11.8-27.4-12.8-41.9zM521.5 311.7c5.5 5.2 9.3 12.1 12.7 18.8-4.2-6.3-7.8-13-12.7-18.8z"/><path d="M787 139.9c-18.8 17.9-43.6 24-70.5 25-26.8 2.9-31.5 47.2-16.2 66 16.7 23.4 47-2.3 91.7 28.6" class="st51"/><path d="M724.2 164.3c-2.8-2-7.4-1.9-15.9-1.3-8.5.7-31.4 2.9-31.4 2.9M651.5 168.4c-7.6.7-12.7 0-21.2 10-13.1 14.1-11.8 44 2.4 57.6 7.3 7.3 14.5 10.2 33.1 8.6" class="st51"/><path d="M716.3 243.5c-36-5.3-38.9-77.7.3-80.2-38.5 3.1-35.5 74.3-.3 80.2z"/><path d="M831.8 102.1c10.3-4.1 33.7-.9 50.4 31.5s22.1 65.9 16.4 98.3c-5.7 32.4-23.9 60.7-48 61.1-75.7-3.3-77.7-171.1-18.8-190.9z" class="st51"/><path d="M829.3 90c12.3-4.6 39.5-2.9 59.3 33.5 32.1 52.2 28.4 173.1-38.8 182.4-88.8-4.1-92.4-192.6-20.5-215.9z" class="st51"/><path d="M840.6 211.9c11-1.1 9.3-29.5-1.8-29.2-11 1.1-9.3 29.5 1.8 29.2zM791.4 175.1s41.4-1.8 44.9-1.8 3.9.9 3.5 3.5c-.4 2.6-.6 3.7-.6 3.7M830 193.3c-1.5-.9-2.8-1.6-6.1-1.6s-33.4 2-33.4 2M790.7 195.6c6.6.2 33.8-2 38.9.1" class="st51"/><path d="M828.7 194.3c-4.8-1.6-12.2-.1-17.2-.2-5.6.3-11.7.5-17.4.7 5.7-.5 11.6-.8 17.3-1.1 5.7.1 11.8-1.4 17.3.6z"/><path d="M836.2 212.9c-.1 1.8 1.5 5.7-2.6 6.2-6 .7-40 4.9-40 4.9" class="st51"/><path d="M834 211.7c-.6 1.5-1.3 3-4.3 3.4l-36.8 4.8" class="st51"/><path d="M835.4 214.1c0 1.2.4 2.8-.6 3.7-1.8.9-4.3.8-6.3 1.2-10 1.3-20.2 2.6-30.3 3.6 10-1.5 20.2-2.8 30.3-4 1.9-.3 4.4-.2 6.2-1 1-.8.6-2.4.7-3.5z"/><path d="M654.7 168.2c-16.8 5-25.8 29.9-20.9 47.9 5.1 17.8 15.5 29.1 31.7 28.4M642.8 169.4s-.4-5.6-.3-6.5c.1-.9.6-1.5 2.1-1.9 1.5-.4 5.7-.9 6.5-.7.8.2.9.9 1.1 2.7" class="st51"/><path d="M654.1 162.1s.2-2.2-.9-3c-1.3-1.9-10.9-.4-11.7.9-1.8 1.2-.7 9.4-.7 10" class="st51"/><path d="M666.1 160.4s-.2-.5-.7-.5c-.5 0-6.6.7-7.9 1-1.3.3-4.4 1.6-6.4 2.5-2 .9-3.6 1.8-3.6 2.3s.2 2.1 1.2 2.4c1.1 1.1 13.3-.4 13.8-2.2 1.4-1.8.3-4.9-2.2-4.4-1.4.3-2.6.6-2.6.6" class="st51"/><path d="M661.7 161.5c.3-.3.6-.5 3.1-.8 4.3-.7 7.7-.7 11.3-.5 0 1-.2 3.6-2.4 3.4-3.6.2-4 .2-4.5 0s.8-2.5.2-2.5c-.6 0-3.1 3.8-3.3 4.1M674.6 165.2s2.2-.3 2.4-.2c.2.1 0 .9 0 .9s-3.3.3-5 .8c-1.7.5-4.9.5-5 .2-.1-.3-.1-1 .1-1" class="st51"/><path fill="none" stroke="#000" stroke-miterlimit="10" stroke-width=".1" d="M648.2 195.9c.5-5.1 4.1-8.7 8.8-8.8 2.1-.2 12.3-1 14.7-1.2 2.4-.1 4.4.1 4.7 3.1.9 5.1-1.5 13.5-8.1 12.7-3 .1-13.1.7-15.1.7s-5.4-1.4-5-6.5z"/><path d="M653.1 232.6c-.5.9-.3 3.2 1.2 3.5.2 1.9 8.6 3.3 10.2 3.9 3.9.8 1-1.5-.3-2.7-.7-.6-1.5-.5-1.9-1.1-.4-.6-.3-2.7-.3-3.8s-.9-2.3-1.5-2.9c-.6-.6-2.2-.3-2.4-.3-1-.6-2-3.9-4.3-3.1-1.2.2-.8 1.7-.7 2.2.1.5-.2.3-1 .3s-1.3.5-1.3 1.1c0 .6.4 1.4.5 1.7.1.1-1.4-.1-1.6.3-.7 1 1.8 4.5 3.4 3.6" class="st51"/><path d="M664 237.4c-2.9-.1-5.8-.8-8.7-1.3 2.9.3 5.8.7 8.7.6v.7zM661 232c-2.3.3-4.6.5-7 .4 2.3-.4 4.6-.6 7-.4z"/><path d="M687.9 241c7 0 13.2.1 13.9.2 1.6.2 7.9 3.7 14.1 3.5 6.2-.2 11.1-1.7 11.2-2.7M681.1 241h2M672.9 241h2.9M683.5 267.5c-5.9.7-16.9-20.2-18.9-24.9-.6-1.6 1.9-1.8 3.9-1.7M735.9 241.9c2.6 2.5 5.4 6.1 4.9 9.8M694.1 255.5c2.1-6.2 11.6-7.2 16.3-11.3" class="st51"/><path d="M742.3 271.5l-.5-.4c4.8-6 5-10.5 5-12.6.1-2-3-4.6-4.8-5.9-3.8-1.7-10.6-.8-14.9.8-3.6 1.2-10 3.1-12.7 3.5-2.7.4-2.8-.2-.1-.6 2.7-.4 9-2.3 12.6-3.5 4.4-1.7 11.2-2.6 15.4-.7.5.4 5.1 3.6 5 6.4.1 2-.1 6.9-5 13z"/><path d="M743.4 290.1l-.6-.7c3.9-.4 8.1-12.1 3.9-14.9-6.4-4.7-12-6.5-20.9-4.5-3.7.5-3.1 0-.1-.6 8.6-2.2 15.1-.1 21.4 4.7 4.3 2.6.6 15.4-3.7 16z"/><path d="M741.2 309.2l-.6-.9c3.8-2.8 7.8-7.5 4.6-16-.2-.5-2.8-2.6-4.7-4.1-3.7-2.9-7.2-6.8-11.8-5.4-2.5.5-3.2.1-.1-.6 4.4-1.4 8.7 2.5 12.3 5.5 2.9 2.3 4.7 3.8 4.9 4.4 3.3 8.8-1 13.9-4.6 17.1z"/><path d="M733.5 302.3c2.8-.7 5.4-2.2 7.9-3.5-2 2.1-4.9 3.7-7.9 3.5z"/><path d="M713.7 318.1c5.5-.7 21.5-12.8 23.4-16.6M713.9 318c1.5 2.7 5.1 10.4 6.3 13.4 1.2 3 3 5.5 5 5.8 5.8 1 18.5-8.5 20.5-14.5 5.7-11.4-4.4-6.4-8-21.5" class="st51"/><path d="M746.1 315.5c-2.7-.2-3.2 2.8-4.2 4.7-3.2 6.1-7.3 12.2-13.2 15.9 4.6-3.5 8-8.3 11-13.1 2.1-2.5 2.5-7.8 6.4-7.5zM589.4 287.4c5.2-3.4 9.9-1.6 17.3-1.2 3.4.6 6-.4 6.6 1.8l-.6.1c-.3-1.5-3-.8-6-1.3-4.2-.4-9.9-.9-11.6-.9a13 13 0 00-5.5 1.6c-.7.4-.8.2-.2-.1z"/><path d="M580.7 297.1c2.2-3.3 5-10.1 7.4-12.6 1.2-1.1 3.6-1 5.4-.3.6.2 1.7.7 1.8 1.4l-.6.1c-.9-1.4-5.1-1.9-6.2-.7-2.2 2.4-5.1 9-7.5 12.2-.3.3-.9.8-.3-.1z"/><path d="M575.3 292.8c.1-2.6.2-7.1.9-8.3 1.1-2.1 9.8.2 11.4.7l-.2.6c-1.3-.7-10.5-2.4-10.6-1-.5 1-1.2 5.2-1.3 8 0 .8-.2 1.1-.2 0z"/><path d="M552.9 307.3c-2-1 4.2-11.2 5.3-12.9.4-.6.6-.5.2.1-3.2 4.8-5.3 10.8-5.4 12.1 3.5-3.9 18.8-22.3 23.1-20.8l-.1.6c-1.5-.2-1.8-.3-5.3 2.6-3.7 3.1-13 12.6-16.5 17-.4.8-.9 1.3-1.3 1.3z"/><path d="M574.3 286.4c-1.6-2.5-13.3-11.2-25.4-15.1-.5-.2-.3-.5.2-.3 11.7 3.8 24.3 12.1 26.2 15.1l-1 .3z"/><path d="M571.8 283.7c-2.5-5.7-3.4-12.3-7.9-16.2-4.5-4.2-9.8-10.1-10.5-11.8-.8-2.1-2.6-4.7-4.9-5.2l.1-.6c3.3.7 5 4.8 5.3 5.6 6.9 10.3 14.6 11.1 18.5 28.1l-.6.1z"/><path d="M584.2 252.6c4.2 4.6 9.2 18.6 10.3 32.5" class="st51"/><path d="M577.1 273.2c-3.8 0-7.6-1-9.9-2.1l-.1-.8c3.6 1.7 9.4 2.9 13.2 1.9 5.5-1.9 7.9-11 5.8-16.2l.6-.2c2.6 6.7-1.4 18.2-9.6 17.4z"/><path fill="none" stroke="#000" stroke-miterlimit="10" stroke-width=".21" d="M570.7 279c12 3 21.2-3.6 19.3-15.3"/><path d="M587.1 247.8c2.6 1.1 4 3.8 4.9 6.4-1.1-2.3-2.6-4.9-5.1-5.8l.2-.6z"/><path d="M598.3 245.1c2.8 1.8 5.5 8.8 5.5 8.8M635.1 267.9c3.2-7.8 8.4-15.8 9.4-24.4M642.1 242.5c-.2 7-8.5 20.1-10.1 25.2" class="st51"/><path d="M626.3 280.5c-3-1.3.1-7.4 2.1-10.2 2.7-3.8 8.3-4 7.6.4" class="st51"/><path d="M630 297.6c4.6-3.3 19.9-12.6 24.8-6.7l-.4.4c-4.1-5.5-20 3.6-24.2 6.5-.7.5-.7.2-.2-.2z"/><path d="M640.6 292.1c-5.5 0-12.3-1.5-17.6-2.5-3.6-.5-5-2.9-8.7-1.7-2.7.9-7.6 2.4-9.8 3-.6.2-.8 0-.2-.2 2.1-.6 7-2.5 9.7-3.4 3.9-1.3 5.3 1.1 9 1.7 5.3 1 12.6 2.6 18 2.5v.6h-.4zM652.2 330.7c-3.3-6.5-4.2-19.9-4.5-24.5-.2-7.8.9-11.6 4.2-15.4.5-.1-.6 1.7-1.1 2.5-1.6 2.6-2.8 6.4-2.5 12.8.6 11.4 2.6 23.5 6.7 27.2 1.9 1.8-.2 2.6-2.8-2.6z"/><path d="M650 294.8v-.7c4.6-3 9.6-7.5 14.7-11.1 4-3 9.5-7 10.4-8.6 1.3-2.2 5.1-8.1 5.1-8.1l.5.3c0 .1-3.8 5.9-5.1 8.1-1 1.6-6.3 5.6-10.6 8.7-5.1 3.7-10.4 8.3-15 11.4zM650.2 339.6c-22.8-3.5-55.8-.3-77.6-3.2-5.9-1.6-19.3-6.6-28.1-13.9-3.5-2.9-7.8-5.9-11.9-8.9-10.6-7.5-20.7-14.4-21-25.1 0-4 3.4-19.1 7.7-25.3 4.2-6 16.6-13 22.5-13.6l.1.6c-5.9.5-19 8.3-22.1 13.3-4.2 6.1-7.6 21-7.6 24.9 0 4.1 1.3 6.9 5.6 12.4 5.1 6.1 19.7 14.9 27.1 21.1 8.8 7.2 22.1 12.2 27.9 13.8 5 1.4 23.8 1 31.9 1.3 8.5.3 25.4-.3 33.8.2 7.4.2 9.7 2.4 16.9.4 5.7-1.9 9-6.6 10-14.2h.6c-.8 10.8-6.8 15.9-15.8 16.2z"/><path d="M574.5 336.5c.6 6.1-1.2 30.9-1.2 30.9" class="st51"/><path d="M570.6 335.3c0 5.3-.6 10.6-1.4 15.9.6-5.3 1-10.6.8-15.9h.6z"/><path d="M597.7 337.4c.2 5.7-.4 30.1-.4 30.1M622.3 337.5c0 4.4-1.6 30.2-1.6 30.2" class="st51"/><path d="M583 288c-2 2.1-3.2 4.7-4.5 7.2.5-2.8 2-5.7 4.5-7.2zM598.1 291.9c-.7 3.1-.7 6.3-.8 9.5-.7-3-.7-6.6.8-9.5zM624 295.5c-5.4 4.8-9.4 11.1-10.9 18.2.6-7.3 4.9-14 10.9-18.2z"/><path d="M542.8 302.7c-.6 3-1.6 6.7-3.5 6.3-1.8-.4-3.3-4-2.6-7.8 2.1-9.1 9.5-16.8 6.1 1.5z" class="st54"/><path d="M533.1 296.2c.9-4.5 7.2-10.7 10.9-8.5s3.9 7.5 3.6 13.7c-.3 6.2-1.7 14-6 12.3-4.7-2-10.3-8.1-8.5-17.5zM554.2 302.3c-.3 1.4-.1 3.1.8 2.5M555.7 304.1c.6.1 1.1 3.3 1.8 3.4.8.1 1.2-4.4 1.9-7.7" class="st54"/><path d="M561.5 297.7c1.4.7 3.2.7 3.2 1.2s-.9 6-1.7 12.8c-.8 6.8-.2 10.4.2 12.2.5 1.8.7 2.9-.3 2.9s-5.6-1.5-9.3-4.1c-5.6-3.5-7-12.8-1.7-15.1.6-.3-.6-.7-.8-3.4-.2-2.7-.3-10.9 0-10.9 5.9 2.4 3.5 1.9 3.8 7.9" class="st54"/><path d="M557.6 312.9c.5.2 0 8.5 0 8.8 0 .2-3.7-.5-4.4-4.3-.6-3.8.9-5.8 4.4-4.5zM568.1 300.9c.1-.5 5.8 1 5.8 1.4 0 .3-.9 2.7-1.4 9.6-.7 8.7-.3 13.1 1.1 17.9-.1.3-4.8-.2-5.3-.7-2.9-4.7-1.2-22.6-.2-28.2z" class="st54"/><path d="M676.9 249.7c-.6.4-1.1 1.6-.5 2.4.6.8 1.8 1.4 3.5.5 1.7-.8 7.7-3.9 8.9-4.9 2.5-1.6.5-4.5-1.9-3.4-1.2.4-6.5 3.1-10 5.4z" class="st51"/><path d="M679.9 252.7c-2.8 1.1-1.2 4.6 1 4.1 1.5-.7 8.9-4.9 10.3-6 .8-.7-.7-3.9-2.8-2.7" class="st51"/><path d="M681 256.8c-2.5 1-.7 5.2 1.6 3.6.9-.7 8.1-4.8 10.3-5.4 1-2-.5-4.7-2.6-3.5" class="st51"/><path d="M682.4 260.5c-.9.6-1.5 1.5-1.1 2.3.4.8 1.2 1.9 2 1.7.8-.2 4.6-2.4 7-3.6 2.3-1.2 3.3-1.7 3.7-1.9 1.6-.5.3-4.8-1.1-4.1" class="st51"/><path d="M683.7 264.4c-2.2.8-.5 4.3 1.6 3.5 1.3-.4 9.2-4.2 10.3-4.7 2.2-.7 0-4.9-1.5-4.2" class="st51"/><path d="M685.2 267.9c-2.1.9-.3 5.2 2 3.7 1.1-.5 9.1-4.3 10.1-4.8 1.8-.7 0-4.6-1.8-3.6" class="st51"/><path d="M686.9 271.7c-1.9 1.3-.4 4.3 2 3.2 1.8-.5 8.8-3.9 9.9-4.5 2-.9.3-4.4-1.5-3.7M699.7 319.8c.7.1 1.8 2.3 4.3 5 2.6 3.1 7.1 3.5 4.5 6.5-2.6 2.5-15.6-10.3-8.8-11.5z" class="st51"/><path d="M700.1 320c-1.3-1.3-.4-4.7 1.5-3.7.5.4 2.3 2.9 5 4.5s4.6 2.1 5.3 2.8c.7.7.3 2.2-.6 2.7-.9.5-2.9 0-4.7-1-1.8-1-4.1-2.4-5-3.6M685.4 245c2.7-1.5 3.2-3.4 2.2-4.9-.8-1.1-3.2.1-6.5 2.3-3.3 2.2-6.9 3.6-7.3 4.8-.3 1.2.9 3.6 3.2 2.5" class="st51"/><path d="M678.5 244c1.7-1.4 6.5-8.2 5.3-10-.5-.8-2-1-3 .2-1.1 1.2-6.1 9.4-7.9 8.9" class="st51"/><path d="M674.4 242.5c-.8-.1-2.1-3.2-4.1-5-2-1.8-4.9-3.7-8.3-3.9M663.3 236.9c1.7.2 3.7 1.9 6.4 5.3s3.8 4 5.6 3.6" class="st51"/><path d="M651.1 327.5l-.1-.9c5.1-.6 27.9-6.9 29.1-7.4.4-.2.8 0 1.3.4 1.4.9 4.8 3.1 16.2 2.1l.1.6c-11.6 1-15.1-1.2-16.5-2.2-.4-.3-.6-.4-.7-.3-1.3.5-24.2 7-29.4 7.7z"/><path d="M674.5 327.5c-.3-3.3-4-2.6-7.6-.1-2.8 2-5 7.1-4.6 8.6.3 1.2 2.1 3.2 4.2 1.6" class="st51"/><path d="M672.7 336.9c-.5 1.3-1.9 4.5-3.9 4a2.9 2.9 0 01-2.2-3.5c.6-3.1 5.8-11.6 9.9-9.8 1.6.8 1.4 1.9 1.4 1.9" class="st51"/><path d="M678.4 333.7c0 4-1.9 9.4-4.6 9.3-1.8-.1-2.1-2-1.9-3.7.3-2.4 5.6-14 9.2-9.1" class="st51"/><path d="M670.6 338.7c1.1-3.2 3.4-5.9 5.8-8.3-1.7 2.9-4 5.5-5.8 8.3z"/><path d="M685.1 329.8c-5.6-4.7-10.2 14.8-5.3 14.1 1.8-.3 2.5-1.8 2.5-5.2s1.2-7 1.8-7.3" class="st51"/><path d="M679.4 333.3c-2.2 1.3-2.8 4.4-3.6 6.7.7-2.5 1-6.1 3.6-7.3v.6z"/><path d="M692.2 327.7c-.9-.7-3.7 0-3.9 1.9-.1 1.6.7 13.8 3.8 13 2.3-.2 2.3-1.7 1.9-3-.4-1.3-2.8-7.2-1.8-10.6" class="st51"/><path d="M688.4 329c-5.2-1.9-5.1 7.4-4.9 10.5.2 2.6.3 3.9 1.3 4.2 1.1.3 2.7.3 2.8-1.1.2-1.5-.5-9.4.4-11.6M571.9 218.9c8.9 3.9 33.7-2.2 38.7-10.1M584.9 226c3.5-6 8.2-4 11.4-1.6M592.9 222.4c3.5-3.8 7.9-1.3 10.5 1.7M619.9 226.1c3.1-1.7 4.6-2.7 4.6-2.7M625.3 277c.2-4.1 1-8.6 2.4-12.9M626 289.8c-.5-2.9-.9-6.5-.8-10.5M640.1 257.7c4-5 11.7-13.4 11.4-13M625.2 281.1l.3-.9M636.4 291.4c1.8-2.7 8.9-4.6 11.1-1.9M646.5 288.6c-1.3-6-12.1-2.4-13.8 2.5" class="st51"/><path d="M630.2 290.6c-.8-1.3-.1-4.1 3.8-6.6s10.9-.6 10 1.8" class="st51"/><path d="M642.3 283.4c0-7-11-4.5-13.3.4-1.5 2.7-.1 5 1 5.4" class="st51"/><path d="M628.5 286c-4.7-3.6 2.1-10.4 6.7-10.5 2.6-.1 5.9 1.8 5.1 4.2" class="st51"/><path d="M627.2 281.7c-2.5-2.4 1.5-8 4.4-10 4.4-3.6 8.4 1.1 7.3 4.7" class="st51"/><path d="M632.2 276c1.4-1.3 4.5-3.2 5.9-1-1.5-2-4.2.1-5.5 1.4l-.4-.4z"/><path d="M671.7 325.3c0-2-2.5-3.1-6-1.3M697.2 288.9c-1.8.9-.2 4 2.2 3.6 2.4-.4 8.3-1.8 9.9-2.9 1.8-1.2 1.8-4-.4-4.1-3.4-.2-8.4 1.6-11.7 3.4z" class="st51"/><path d="M698.5 292.5c-.4 1.5-.1 3.4 3.3 3.3 4.7-.4 12.9.2 10.1-5.3-.4-.6-2.1-.6-6.2.4" class="st51"/><path d="M676.2 119.3c11 0 22.4 2.6 32.2 7.5-10.2-4.1-21.3-6.6-32.2-7.5z"/><path d="M700.4 163.7c18.5-5.9 15.2-27.3 18.4-44.8 2.3-12.9 7.5-21.3 5.4-26s-7-4.8-9.1-3.7" class="st51"/><path d="M706.4 119.8c1.7-9.8 7.8-29.4 9.6-33.4 5-10.9-3.7-15.9-10.6-11.3l-.3-.5c7.3-5 16.7.6 11.4 12.1-1.8 4-7.8 23.4-9.6 33.2-.9 5.3-1.2 3.5-.5-.1z"/><path d="M694.2 115.9c1.3-8.9 4.6-20.2 7.1-28.1 1.8-6.8 6-14.7 1.6-19.4-3.9-4.8-11-2.7-14.6 2.2l-.5-.4c3.8-5.2 11.4-7.4 15.6-2.2 4.6 5.1.5 13-1.5 20-2.5 7.8-5.9 19.2-7.1 28-1.1 8.3-.8 1.1-.6-.1z"/><path d="M668.4 125.8c-1.2-14.7 1.2-50.7 10.6-55.9 17.2-6.1 11.2 15.8 7.9 30.1-1.8 7.1-2.4 11.8-2.5 14.7-.3 8.2-.8 2.1-.6-1.1.2-2.9.9-7.4 2.5-13.8 2.7-11.6 6.4-25.6.7-29.7-7.4-2.6-11.4 1.6-13.9 10.4-3.2 13.1-5.4 30.1-4.2 45.1l-.5.2z"/><path d="M698.8 270.5c1.6-.4 2.2.4 2.5 1.2.3.8.7 1.8-.1 2.2-.8.4-4.4 1.6-7.2 3s-3.3 2.2-4.5 1.8c-1.2-.4-2.4-2.3-.9-3.6" class="st51"/><path d="M690.5 278.8c-.7 1.7 0 2.6.6 3.2.6.6 1.8.5 2.6 0s4.4-2.5 7-3.5c2.6-1 3.4-1.7 3.3-2.8-.1-1.1-1-2.3-2.3-2.2" class="st51"/><path d="M692.6 282.3c-.4 1.1.3 4.2 2.3 3.4 2.1-.8 8.2-3.5 9.9-4.1 1.7-.5 1.6-2.1 1.1-3.1-.9-2.6-5.7.3-6.4.5M695.2 285.6c-.9 1-.4 3.6 1.5 3.6M705.7 281.2c3.1-.2 3.6 2.8 2.9 4.2M701.1 295.9c-.8.5-1.2 1.7-.9 2.7 1.1 3.5 8.2 1 11.2.7 2.4-.5 2.8-1.8 2.5-3-.4-1.2-1.2-1.5-4.4-1.2" class="st51"/><path d="M701.6 300.3c-3.9 6.3 9.2 4.1 11.5 3.9 1.8-.4 2.2-2.1 1.5-3.1-.6-1.2-6.3-1-9.5-.8" class="st51"/><path d="M702.3 304.4c-2.8 3.7 1.9 4.8 6.4 5.3 3.3.2 5.4.4 6.4-.2 1-.6 1-2.8-.2-3.5-1.2-.7-2.4-.4-5.7-.7-3.3-.3-5.4-.8-5.4-.8" class="st51"/><path d="M702.6 308.2c-1.3.8-2.1 3 .3 4.4 3.1 1.3 10.7 4.9 12.5 1.8.5-.9.3-2.3-2.1-2.9-2.4-.6-8.5-1.9-10.1-3.1" class="st51"/><path d="M704 313.1c2.1 1.4 5.1 3 7.5 3.8 2.4.9 2.9 1.5 2.8 2.6-1 4.2-10.3-1.5-12-2.9-1.3-1.3-2.2-2.8-.2-4.5M697.7 322.6c-4.9 1.1-1.5 6.5 1.3 10 2.3 2.8 3.7 4.4 5 3.4 1.3-1 1.2-1.9.5-2.6-.7-.8-2.9-3.1-4.5-5.6-1.5-2.5-1.8-3.9-1.8-3.9" class="st51"/><path d="M695.3 325.4c-7-.3-.5 11.3.9 13.9 1.6 1.9 5-.3 3.1-2.7-1.4-1.7-4.3-8.9-3.9-10.7M700.2 244.7c-.3-1.8 5.3-.1 4.8 1-.4 1.7-4.9 1.1-4.8-1zM538.1 237.2c-6.8.9-15.5 6.1-19.9 10.2-4.4 4.2-4.8 7-1.6 21.8M548.8 241c4.3 6.9 5 15 5 15" class="st51"/><path d="M521.8 246.6c-5.5 4.3-6.8 6.2 1.2 3.1 6.9-2.3 14.4-2.8 21.5-1.2-5.7-.8-11.6-.6-17.2.7-3.4.5-6.6 2.5-10.1 2.5-1.4-1.5 3.5-4.3 4.6-5.1z"/><path d="M529.7 248.2c2.1-2.1 4.7-3.6 7.4-4.8-2.5 1.4-5 3-6.9 5.2l-.5-.4zM547.2 240.9c-2.8.5-5.6 1.3-8.3 2 2.7-1 5.4-1.9 8.2-2.6l.1.6z"/><path d="M578 330.3c.3.4 5.5 1.3 5.9 1 .3-.3-.3-1-.8-4.3-.4-3.3-.4-5.2-.1-5.3.3-.1 5.2.4 5.5.9.2.4 0 1.2.5 4.5s.4 4.2.8 4.4c.3.1 5.2.5 5.5.2.3-.3-.6-2.6-.5-8.1.1-5.5 1.5-16.3 1.8-17.6.2-1.4.1-1.9-.5-1.9s-5.4 0-5.5.5c-.1.5-.8 4.3-1.1 6.9-.3 2.6-.3 4.1-.4 4.4-.1.3-6-.3-6-.8s.6-8.5.9-9.6c.2-1.2.2-1.4-.5-1.6-.7-.2-3.8-.3-4.4.1-2 1-2.4 25.7-1.1 26.3zM600.4 308.4c-.5-.1-.8-3.9-.6-4.3.2-.4 3.3-1.8 7.6-1.7 12.8-.9 9.3 18.1 4.4 24-2.9 3.6-7.9 6-13.2 5.2-.4 0 .2-4.1.5-4.2.3 0 2.4.6 5.3-1 6.1-3 8-22-4-18z" class="st54"/><path d="M576.8 310.2c-1.8 5-1.5 10.4-2.1 15.6-.3-5.2-.5-11 2.1-15.6z"/><path d="M839.5 178.9c2.5.1 7.5 3.2 9.1 10.5l3.1-2.1" class="st51"/><path d="M847.6 186.1c2.8 0 5.1-.2 5.4 1.3.3 1.5.5 1.9-3.4 5 1.3 3.1 1.2 11.1-2 17.2 3.2 2.3 3.6 3.4 2.7 4.8-.9 1.4-1.3 1.6-8.8 2.1" class="st51"/><path d="M836.1 217.9c2.2.2 5.1-1.1 6.9-2.1 1.8-1.1 3.6-4.7 3.6-4.7s3.2 1.9 2.7 3.1" class="st51"/><path d="M838 179.8c-.2-4-7.5-2.4-10.3-2.8l-11.8.1c-7.8 0-15.9 0-23.7-.2 7.7-.3 15.9-.4 23.7-.4 3.5 0 8.4 0 11.8.1 2.9.4 10.2-1 10.3 3.2z"/><path d="M834.5 178.4c-4.3 2.2-6.1 7.3-7.2 11.7.5-4.6 2.6-10.1 7.2-11.7zM830.5 212.6c-3.6-4.5-4.7-10.8-4.2-16.4.1 5.6 1.1 11.6 4.2 16.4z"/><path d="M705.6 320.2l2.2-.4" class="st51"/><path d="M407 270c-.8 20-1.5 38.3-2 50.6" class="st55"/><path d="M409.6 208.7h-.6c.7-19.9 1-34 1-41.7l.6.6c0 7.7-.4 21.2-1 41.1z"/><path d="M906.6 88.7c-53.8-2-125.7-2.3-190.1-2.5M666.3 338.6c-18.7 1.2-37.4.7-43.9.7M683.4 338.4h-1.2M689.2 338.4h-1.6M695.5 338.4h-2.1M699.7 338.4c45.2.3 144.3-.5 190.9-.1 17-.1 3-15.5 3.2-17.4.3-1.9 24.3-11.9 24-20.5-.5-15.6-1.7-48.1-2.6-77.8M914.6 97.5c-.1 14.5-1.1 50.2-.8 75.5M404.7 332.5c-.6 6.5.1 7.5 27.5 6.5 5.9-.3 51.6-.1 76.7-.2M890.6 338.4c15.4.3 26.9-24.1 27.2-37.9" class="st55"/><path d="M920.7 90.3c.7 7-8.5 9.6-12.4 3.8-4.2-5.3.6-13.1 7-10.9" class="st55"/><path d="M924.6 89.5c-5.8 4.2-12.9-5.5-7.1-9.8 5.7-4.2 12.8 5.6 7.1 9.8zM920.6 90.5c-6.8 6.2-14-1.2-5.2-7" class="st55"/><path d="M916.9 82.5c.3 3.1 2.7 5.8 5.8 6.4-3.3.3-6.4-3.2-5.8-6.4zM908.5 86.7c-1.6 5.7 4.7 11.5 9.8 7.6-5 5-12.5-1.6-9.8-7.6z"/><path d="M907.6 93.2c-1.9 1.5.1 4.1 2 2.7M408.5 330.1c4.6 5.3 12.8.5 11.4-6.3-.9-6.7-9.9-8.6-12.7-2.5" class="st55"/><path d="M405.2 332.4c7.1-1.4 5-13.1-2.1-11.9-7.1 1.3-5 13 2.1 11.9zM408.7 330.2c9.2-.7 8.8-10.9-1.4-8.6" class="st55"/><path d="M405.4 322c2.8 1.8 3.1 6.4.6 8.6 1.7-2.6 1.5-6.3-.6-8.6zM414.3 318.8c6.1 2.2 5.7 12.2-1.3 12.3 6.4-.9 6.6-9.5 1.3-12.3z"/><path d="M419.6 322.7c2.4-.3 2.8 2.9.5 3.3" class="st55"/><path d="M745.9 322c26.2 0 82.2-.4 97.7-.2 22.3.8 40.9 1 50.5.5M898.9 259.5c.9 25.9 1.9 47.3 2.3 56.8M873.2 102.8c15.2.5 24.3.9 24.5 1.1.5.3 0 16-.3 38.7M724.1 99.9c30.2.2 61.7.7 87.1 1.2M433.8 210.9c.3-7.4.6-14.8.8-21.8M510.5 322.3c-31 0-79.7-.2-80.6-.5-.7-.3 0-20.4 1.2-48.7M780.9 145c-15.7-.1-41.6-.2-65.2-.2M636.4 99.3c10.9.2 22 .3 32.9.4M653.9 144.1h-26.7M437.6 191.8c-1.1 0-2.2 0-3.2.1M537.3 237.3c-38.4.1-80.9.1-94.5.2M513.1 280.7c-19.8.1-63.2.1-82.4.3M667.9 280.9c-8.6.1-17.1.1-25.8.1M804.3 280.7c-18.6.2-37.1.1-55.7.1M899.6 280.2h-11" class="st56"/><path fill="none" stroke="#000" stroke-miterlimit="10" stroke-width=".29" d="M841.7 305.4c.3 7 .5 12.6.6 16.2"/><path d="M778.6 100.2c0 6.2-.2 32.3-.4 46.7M778 251.4c0 6.2-.2 56.1-.4 70.4M488.2 232.1c0 6.2-.2 75.7-.4 90" class="st58"/><path d="M719 117.7c-.1 9-.1 28-.1 45M652.7 140.5c0 6.2.3 12.3.1 18.4M652.3 99.4c-.2 2.8-.2 5.5 0 8.2" class="st59"/><path d="M647.4 87.1c-3 0-6.1.1-9.2.1M671.4 86.7l-22 .3" class="st55"/><path d="M906.4 176.4C922.8 168.3 950 155 950 155c2.1 4.8 22.7 45.8 25.4 51.3-.1.3-26.7 13.9-35.5 18.2-8.8 4.4-19.3 6.1-19.3 6.1-2.2-2.3-9.5-15.2-12.2-20.7M383.2 206l62.6 5.9c-3.4 9.1-2 29.9-4.3 44.3-1.3 9.9-2.1 17.4-2.1 17.4-7.1-.8-38.4-1.7-45.9-10.9-7.2-6.8-13.6-14.6-13.6-18.1-.1-3.3 2.9-38.5 3.3-38.6z" class="st51"/><path d="M379.9 245.3c3 8.6 8.9 4.2 13.7 6 1.3 3.1.1 12.7 5.2 15.3" class="st51"/><path d="M570.4 218.2c11.8 5 31.3-.5 40.1-9-2.1 4.5-4.8 10.3-7.1 14.7-2-2.4-7.3-5.5-10.5-1.6l-1.9-.4h-1.7l-1.6.7c-.8.7-2.2 2.3-2.8 3.2-4.1-1.9-10.4-5.5-14.5-7.6z"/><radialGradient id="SVGID_27_" cx="214.1" cy="438.68" r="1.01" gradientTransform="matrix(7.2862 2.3411 2.2977 -7.151 -2007 2805.97)" gradientUnits="userSpaceOnUse"><stop offset=".74" stop-color="#8a6f48"/><stop offset="1" stop-color="#533a18"/></radialGradient><path fill="url(#SVGID_27_)" d="M553.5 170.5c-.7-7.5 10.6-11.7 14.1-3.6 4.4 11.9-13.1 15.7-14.1 3.6z"/><path d="M565.8 171.7c-2.1 6.8-11.4 3.3-9.8-3.1 1.5-6.4 12.2-3.1 9.8 3.1z"/><radialGradient id="SVGID_28_" cx="164.58" cy="395.99" r=".99" gradientTransform="matrix(2.5021 .8039 .789 -2.4556 -164.45 1004.63)" gradientUnits="userSpaceOnUse"><stop offset=".75" stop-color="#fff"/><stop offset="1" stop-color="#fff" stop-opacity="0"/></radialGradient><path fill="url(#SVGID_28_)" d="M562.3 165.3c-1 3.2-6 1.6-5-1.6s6-1.6 5 1.6z"/><radialGradient id="SVGID_29_" cx="212.03" cy="438.53" r="1.01" gradientTransform="matrix(6.7484 2.1685 2.2828 -7.1043 -1823.36 2815.1)" gradientUnits="userSpaceOnUse"><stop offset=".74" stop-color="#8a6f48"/><stop offset="1" stop-color="#533a18"/></radialGradient><path fill="url(#SVGID_29_)" d="M601.7 159.9c-.6-7 9.9-11.9 13.2-3.9 3.9 11.6-12.5 15.9-13.2 3.9z"/><path d="M613.1 160.8c-2 6.7-10.7 3.5-9.1-2.9 1.6-6.3 11.5-3.2 9.1 2.9z"/><radialGradient id="SVGID_30_" cx="158.57" cy="395.56" r=".99" gradientTransform="matrix(2.3174 .7446 .7839 -2.4396 -69.86 1000.77)" gradientUnits="userSpaceOnUse"><stop offset=".75" stop-color="#fff"/><stop offset="1" stop-color="#fff" stop-opacity="0"/></radialGradient><path fill="url(#SVGID_30_)" d="M610 154.6c-1 3.2-5.6 1.7-4.6-1.5s5.6-1.7 4.6 1.5z"/></g></svg>